<svg width="3012" height="843" xmlns="http://www.w3.org/2000/svg" xmlns:xlink="http://www.w3.org/1999/xlink" overflow="hidden"><defs><clipPath id="clip0"><rect x="735" y="782" width="3012" height="843"/></clipPath></defs><g clip-path="url(#clip0)" transform="translate(-735 -782)"><path d="M736.5 980.5C736.5 908.703 980.729 850.5 1282 850.5 1583.27 850.5 1827.5 908.703 1827.5 980.5 1827.5 1052.3 1583.27 1110.5 1282 1110.5 980.729 1110.5 736.5 1052.3 736.5 980.5Z" stroke="#000000" stroke-width="3.4375" stroke-linejoin="round" stroke-miterlimit="10" fill="#BBE0E3" fill-rule="evenodd"/><text font-family="Arial,Arial_MSFontService,sans-serif" font-weight="700" font-size="83" transform="matrix(1 0 0 1 921.787 1011)">http://jan.novak.cz</text><path d="M1827 974.844 2404.59 974.844 2404.59 985.157 1827 985.156ZM2399.44 954.219 2451 980 2399.44 1005.78Z"/><text font-family="Arial,Arial_MSFontService,sans-serif" font-weight="700" font-size="83" transform="matrix(1 0 0 1 1963.97 887)">rdf:type</text><path d="M2451.5 980.5C2451.5 908.703 2695.73 850.5 2997 850.5 3298.27 850.5 3542.5 908.703 3542.5 980.5 3542.5 1052.3 3298.27 1110.5 2997 1110.5 2695.73 1110.5 2451.5 1052.3 2451.5 980.5Z" stroke="#000000" stroke-width="3.4375" stroke-linejoin="round" stroke-miterlimit="10" fill="#F8C39A" fill-rule="evenodd"/><text font-family="Arial,Arial_MSFontService,sans-serif" font-weight="700" font-size="83" transform="matrix(1 0 0 1 2767.15 1011)">foaf<tspan font-size="83" x="151.25" y="0">:Person</tspan></text><path d="M3054.16 1110 3054.16 1323.59 3043.84 1323.59 3043.84 1110ZM3074.78 1318.44 3049 1370 3023.22 1318.44Z"/><path d="M2443.5 1493.5C2443.5 1421.7 2687.73 1363.5 2989 1363.5 3290.27 1363.5 3534.5 1421.7 3534.5 1493.5 3534.5 1565.3 3290.27 1623.5 2989 1623.5 2687.73 1623.5 2443.5 1565.3 2443.5 1493.5Z" stroke="#000000" stroke-width="3.4375" stroke-linejoin="round" stroke-miterlimit="10" fill="#F8C39A" fill-rule="evenodd"/><text font-family="Arial,Arial_MSFontService,sans-serif" font-weight="700" font-size="83" transform="matrix(1 0 0 1 2782.02 1523)">foaf<tspan font-size="83" x="151.25" y="0">:Agent</tspan><tspan font-size="83" x="351.275" y="-277">owl:sublassOf</tspan></text></g></svg>