<svg width="4466" height="2718" xmlns="http://www.w3.org/2000/svg" xmlns:xlink="http://www.w3.org/1999/xlink" overflow="hidden"><defs><clipPath id="clip0"><rect x="100" y="570" width="4466" height="2718"/></clipPath></defs><g clip-path="url(#clip0)" transform="translate(-100 -570)"><path d="M2773.38 2381.33 2825.55 2395.7 2855.27 2287.74 2959.63 2316.46 2929.91 2424.42 2982.08 2438.79 2867.82 2446.05Z" stroke="#000000" stroke-width="3.4375" stroke-miterlimit="8" fill="#00CCFF" fill-rule="evenodd"/><path d="M4112.15 2301.91 4061.31 2320.46 4099.69 2425.65 3998.02 2462.75 3959.63 2357.56 3908.79 2376.11 3997.68 2303.95Z" stroke="#000000" stroke-width="3.4375" stroke-miterlimit="8" fill="#00CCFF" fill-rule="evenodd"/><rect x="3050.5" y="2344.5" width="811" height="88" stroke="#53585F" stroke-width="9.16667" stroke-miterlimit="8" fill="#00CCFF"/><text font-family="Arial,Arial_MSFontService,sans-serif" font-weight="400" font-size="65" transform="matrix(1 0 0 1 3173.16 2412)">standardní rozhraní</text><path d="M2401.5 1042C2401.5 908.071 2873.62 799.5 3456 799.5 4038.38 799.5 4510.5 908.071 4510.5 1042 4510.5 1175.93 4038.38 1284.5 3456 1284.5 2873.62 1284.5 2401.5 1175.93 2401.5 1042Z" stroke="#000000" stroke-width="3.4375" stroke-linejoin="round" stroke-miterlimit="10" fill="#FFFFFF" fill-rule="evenodd"/><path d="M2509.5 1946.5C2509.5 1751.54 2933.26 1593.5 3456 1593.5 3978.74 1593.5 4402.5 1751.54 4402.5 1946.5 4402.5 2141.46 3978.74 2299.5 3456 2299.5 2933.26 2299.5 2509.5 2141.46 2509.5 1946.5Z" stroke="#000000" stroke-width="3.4375" stroke-linejoin="round" stroke-miterlimit="10" fill="#FFFFFF" fill-rule="evenodd"/><path d="M2708.5 1786C2708.5 1766.39 2727.75 1750.5 2751.5 1750.5 2775.25 1750.5 2794.5 1766.39 2794.5 1786 2794.5 1805.61 2775.25 1821.5 2751.5 1821.5 2727.75 1821.5 2708.5 1805.61 2708.5 1786Z" stroke="#000000" stroke-width="3.4375" stroke-linejoin="round" stroke-miterlimit="10" fill="#FF0000" fill-rule="evenodd"/><path d="M3480.5 2068C3480.5 2048.39 3499.75 2032.5 3523.5 2032.5 3547.25 2032.5 3566.5 2048.39 3566.5 2068 3566.5 2087.61 3547.25 2103.5 3523.5 2103.5 3499.75 2103.5 3480.5 2087.61 3480.5 2068Z" stroke="#000000" stroke-width="3.4375" stroke-linejoin="round" stroke-miterlimit="10" fill="#FF0000" fill-rule="evenodd"/><path d="M3523.5 1892C3523.5 1872.39 3542.75 1856.5 3566.5 1856.5 3590.25 1856.5 3609.5 1872.39 3609.5 1892 3609.5 1911.61 3590.25 1927.5 3566.5 1927.5 3542.75 1927.5 3523.5 1911.61 3523.5 1892Z" stroke="#000000" stroke-width="3.4375" stroke-linejoin="round" stroke-miterlimit="10" fill="#FF0000" fill-rule="evenodd"/><path d="M3909.5 2103.5C3909.5 2084.17 3928.75 2068.5 3952.5 2068.5 3976.25 2068.5 3995.5 2084.17 3995.5 2103.5 3995.5 2122.83 3976.25 2138.5 3952.5 2138.5 3928.75 2138.5 3909.5 2122.83 3909.5 2103.5Z" stroke="#000000" stroke-width="3.4375" stroke-linejoin="round" stroke-miterlimit="10" fill="#FF0000" fill-rule="evenodd"/><path d="M4167.5 1856.5C4167.5 1837.17 4186.53 1821.5 4210 1821.5 4233.47 1821.5 4252.5 1837.17 4252.5 1856.5 4252.5 1875.83 4233.47 1891.5 4210 1891.5 4186.53 1891.5 4167.5 1875.83 4167.5 1856.5Z" stroke="#000000" stroke-width="3.4375" stroke-linejoin="round" stroke-miterlimit="10" fill="#FF0000" fill-rule="evenodd"/><path d="M2794.5 2068C2794.5 2048.39 2813.75 2032.5 2837.5 2032.5 2861.25 2032.5 2880.5 2048.39 2880.5 2068 2880.5 2087.61 2861.25 2103.5 2837.5 2103.5 2813.75 2103.5 2794.5 2087.61 2794.5 2068Z" stroke="#000000" stroke-width="3.4375" stroke-linejoin="round" stroke-miterlimit="10" fill="#FF0000" fill-rule="evenodd"/><path d="M0.080478-1.71686 8.08048-1.34186 16.2524-0.137622 24.2262 1.83179 31.985 4.43329 39.4944 7.6723 46.738 11.479 53.5565 15.868 59.915 20.6941 65.7686 25.9044 71.0628 31.5082 75.727 37.4388 79.7025 43.7061 82.9123 50.1063 85.3068 56.7989 86.8032 63.5039C86.8208 63.5835 86.8327 63.6643 86.8389 63.7456L87.3389 70.3707 87.7775 77.0117 87.744 76.7693 89.119 83.2693 91.254 89.5768 94.118 95.6439 97.6666 101.625 101.825 107.298 106.599 112.672 111.936 117.756 117.697 122.344 123.907 126.581 130.409 130.254 137.218 133.376 136.917 133.27 143.91 135.021 143.075 138.355 136.083 136.605C135.98 136.579 135.879 136.544 135.782 136.499L128.716 133.246 121.968 129.419 115.553 125.031 109.564 120.244 104.026 114.953 99.0501 109.327 94.7084 103.375 91.007 97.1061 87.996 90.6732 85.756 83.9807 84.381 77.4807C84.3641 77.4008 84.3529 77.3197 84.3475 77.2383L83.9111 70.6293 83.4111 64.0043 83.4468 64.2461 82.0682 57.9511 79.8377 51.6437 76.7975 45.5439 73.023 39.5612 68.5622 33.8668 63.4814 28.4706 57.835 23.4309 51.6935 18.757 45.137 14.521 38.1306 10.8277 30.89 7.69171 23.3988 5.16821 15.7476 3.26262 7.91952 2.09186-0.080478 1.71686ZM141.578 122.321 166 141 136.404 149.33Z" transform="matrix(1 0 0 -1 2880.5 2068.5)"/><path d="M2794.55 1784.78 2806.62 1785.16 2818.67 1786.35 2830.53 1788.3 2842.12 1790.88 2853.29 1794.1 2864.01 1797.88 2874.18 1802.23 2883.71 1807.03 2892.44 1812.21 2900.36 1817.78 2907.36 1823.69 2913.31 1829.94 2918.12 1836.34C2918.18 1836.41 2918.22 1836.48 2918.26 1836.56L2921.76 1843.06C2921.81 1843.15 2921.85 1843.24 2921.88 1843.34L2924.01 1849.84C2924.03 1849.92 2924.06 1850 2924.07 1850.09L2924.63 1853.4 2924.84 1856.9 2925.52 1863.45 2925.45 1863.11 2927.51 1869.61 2927.4 1869.33 2930.78 1875.83 2930.64 1875.62 2935.14 1881.87 2940.58 1887.84 2947.01 1893.53 2954.39 1898.93 2962.6 1904.04 2971.48 1908.66 2981.07 1912.93 2991.16 1916.64 3001.68 1919.79 3012.58 1922.33 3023.9 1923.87 3023.43 1927.27 3011.8 1925.67 3000.69 1923.08 2989.97 1919.86 2979.68 1916.07 2969.89 1911.71 2960.78 1906.96 2952.36 1901.7 2944.74 1896.1 2938.04 1890.16 2932.35 1883.88 2927.85 1877.63C2927.81 1877.56 2927.76 1877.49 2927.72 1877.42L2924.35 1870.92C2924.3 1870.83 2924.27 1870.74 2924.24 1870.64L2922.17 1864.14C2922.14 1864.03 2922.11 1863.92 2922.1 1863.8L2921.41 1857.1 2921.24 1853.98 2920.68 1850.66 2920.74 1850.91 2918.62 1844.41 2918.74 1844.69 2915.24 1838.19 2915.37 1838.41 2910.82 1832.31 2905.14 1826.31 2898.39 1820.59 2890.68 1815.17 2882.16 1810.1 2872.82 1805.39 2862.87 1801.12 2852.34 1797.4 2841.38 1794.24 2829.97 1791.7 2818.33 1789.77 2806.51 1788.59 2794.45 1788.22ZM3020.26 1911.48 3046.5 1927.5 3017.94 1938.88Z"/><path d="M0.0184471-1.71865 34.9559-1.34365 52.1127-0.843018 68.883-0.154804 85.0862 0.658411 100.604 1.59688 115.257 2.72381 129.023 3.91262 141.616 5.22805 153.028 6.66981 158.226 7.35865 163.077 8.11425 167.56 8.93436 171.625 9.68481 175.313 10.5104 178.604 11.3326 181.424 12.1642 183.82 13.0034 185.81 13.9522 187.28 14.8511C187.41 14.9321 187.53 15.0302 187.634 15.143L188.447 16.018C188.623 16.2077 188.754 16.4346 188.83 16.682L189.08 17.4945 189.33 18.307 188.903 17.5972 189.778 18.4722 189.467 18.2261 190.78 19.0386 192.477 19.8175 194.681 20.5613 197.415 21.3488 200.659 22.1432 204.364 22.9452 208.432 23.684 212.989 24.4954 217.883 25.2382 223.218 25.9201 234.836 27.3567 247.798 28.6649 261.832 29.8498 276.878 30.9735 292.726 31.9092 309.334 32.7208 326.506 33.4076 344.111 33.9069 357.102 34.0422 357.067 37.4795 344.014 37.3431 326.369 36.8424 309.166 36.1542 292.524 35.3408 276.622 34.4015 261.543 33.2752 247.452 32.0851 234.414 30.7683 222.782 29.3299 217.367 28.6368 212.386 27.8796 207.818 27.066 203.636 26.3048 199.841 25.4818 196.46 24.6512 193.569 23.8137 191.023 22.9325 188.97 21.9614 187.658 21.1489C187.545 21.0791 187.441 20.9966 187.347 20.9028L186.472 20.0278C186.274 19.8296 186.127 19.5859 186.045 19.318L185.795 18.5055 185.545 17.693 185.928 18.357 185.116 17.482 185.47 17.7739 184.315 17.0478 182.68 16.2466 180.451 15.4608 177.771 14.6674 174.562 13.8646 171 13.0652 166.94 12.3156 162.548 11.5107 157.774 10.7664 152.597 10.0802 141.259 8.64695 128.727 7.33738 114.993 6.15119 100.396 5.02811 84.9138 4.09159 68.742 3.2798 52.0123 2.59302 34.9191 2.09365-0.0184471 1.71865ZM352.645 21.9638 380 36 352.358 49.4623Z" transform="matrix(1 0 0 -1 3143.5 1927.5)"/><rect x="3051" y="1891" width="86" height="71.0001" stroke="#000000" stroke-width="10.3125" stroke-miterlimit="8" fill="#00FF00"/><rect x="3137" y="2068" width="86" height="70.0002" stroke="#000000" stroke-width="10.3125" stroke-miterlimit="8" fill="#00FF00"/><path d="M0.0268522-1.71854 24.0269-1.34354 35.8231-0.842196 47.3433-0.216217 58.4384 0.598367 69.0886 1.5379 79.1805 2.60325 88.6521 3.7947 97.309 5.04902 105.173 6.43227 112.102 7.88013 117.992 9.39827 122.794 10.9945 126.474 12.6911C126.587 12.7438 126.695 12.8087 126.794 12.8847L128.919 14.5097C129.062 14.6186 129.186 14.7492 129.288 14.8967L129.851 15.7092C129.975 15.8881 130.063 16.0889 130.112 16.301L130.3 17.1135 130.208 16.8303 130.895 18.4553 130.376 17.7749 132.439 19.3999 132.121 19.2014 135.496 20.8264 139.814 22.3138 145.26 23.778 151.743 25.1961 159.185 26.5594 167.456 27.8648 176.401 28.982 186.062 30.0415 196.22 30.976 206.819 31.7863 229.165 32.7817 229.012 36.2157 206.556 35.2137 195.905 34.399 185.688 33.4585 175.974 32.393 166.919 31.2602 158.565 29.9406 151.007 28.5539 144.365 27.097 138.686 25.5612 134.004 23.9236 130.629 22.2986C130.516 22.2442 130.41 22.1776 130.311 22.1001L128.249 20.4751C128.021 20.2957 127.843 20.0616 127.73 19.7947L127.042 18.1697C127.003 18.0781 126.973 17.9834 126.95 17.8865L126.763 17.074 127.024 17.6658 126.462 16.8533 126.831 17.2403 124.706 15.6153 125.026 15.8089 121.706 14.2555 117.133 12.7267 111.398 11.2449 104.577 9.81773 96.816 8.45098 88.2229 7.2053 78.8195 6.02175 68.7864 4.9621 58.1866 4.02663 47.1567 3.21622 35.6769 2.5922 23.9731 2.09354-0.0268522 1.71854ZM224.807 20.6517 252 35 224.206 48.1452Z" transform="matrix(-1 1.22465e-16 1.22465e-16 1 3480.5 2068.5)"/><path d="M0.137062 1.71328-2.98794 1.96328-2.72389 1.92129-5.84889 2.67129-8.76447 3.79416-11.6833 5.38734-14.6024 7.36309-17.4462 9.80689-20.36 12.6656-23.2886 15.9038-26.1557 19.5084-28.8994 23.4783-34.4074 32.5196-39.5234 42.8275-44.4207 54.2406-48.8819 66.7046-52.9173 80.0599-56.458 94.1686-59.4407 108.843-61.8651 124.083-63.6676 139.697-64.7855 155.559-65.1567 171.54-64.5325 187.496-62.7915 203.312-59.8731 218.871-56.0213 234.078-51.241 248.717-45.5321 262.792-39.1374 276.132-32.0082 288.584-24.2658 299.972-15.972 310.299-7.2054 319.302-2.73203 323.279 1.82148 326.906 6.48315 330.153 11.208 333.033 10.909 332.888 18.4066 335.662 17.2137 338.886 9.71604 336.112C9.61197 336.073 9.51175 336.025 9.41703 335.967L4.51685 332.972-0.32148 329.594-5.01797 325.846-9.6696 321.698-18.6531 312.451-27.1092 301.903-34.9918 290.291-42.2376 277.618-48.7179 264.083-54.509 249.783-59.3537 234.922-63.2519 219.504-66.2085 203.688-67.9675 187.629-68.5933 171.46-68.2145 155.316-67.0824 139.303-65.2599 123.542-62.8093 108.157-59.792 93.3314-56.2077 79.0651-52.1181 65.5454-47.5793 52.8844-42.6016 41.2975-37.3426 30.7304-31.7256 21.5217-28.8443 17.3666-25.8364 13.5962-22.765 10.2094-19.6788 7.19311-16.5226 4.5119-13.3167 2.36266-9.98553 0.580841-6.65111-0.671291-3.52611-1.42129C-3.43927-1.44213-3.35109-1.45615-3.26206-1.46328L-0.137062-1.71328ZM16.8076 322.815 40 343 9.93675 349.443Z" transform="matrix(-1.83697e-16 -1 -1 1.83697e-16 3180.5 2143.5)"/><rect x="3824" y="1821" width="85.0002" height="70.0001" stroke="#000000" stroke-width="10.3125" stroke-miterlimit="8" fill="#00FF00"/><path d="M0.0323219-1.71845 19.9698-1.34345 39.4121-0.21586 48.6514 0.600432 57.5556 1.54076 65.9663 2.60742 73.8208 3.80077 81.0445 5.05667 87.6057 6.44346 93.3587 7.89615 98.318 9.41975 102.33 11.031 105.457 12.746C105.579 12.8135 105.692 12.8956 105.795 12.9905L107.545 14.6155C107.736 14.7937 107.885 15.0135 107.979 15.258L108.604 16.883 109.187 18.5628 108.732 17.8655 110.482 19.4905 110.187 19.2703 112.937 20.8953 116.421 22.355 120.905 23.8026 126.252 25.2133 132.373 26.5722 139.197 27.8742 146.57 28.9881 154.539 30.0462 162.94 30.9793 171.72 31.7885 186.185 32.5396 186.006 35.9725 171.405 35.2115 162.56 34.3957 154.086 33.4538 146.055 32.3869 138.553 31.2508 131.627 29.9278 125.373 28.5367 119.845 27.0724 115.079 25.52 111.188 23.8547 108.438 22.2297C108.332 22.1671 108.233 22.0932 108.143 22.0095L106.393 20.3845C106.187 20.1928 106.03 19.9534 105.938 19.6872L105.396 18.117 104.771 16.492 105.205 17.1345 103.455 15.5095 103.793 15.754 101.045 14.219 97.307 12.7052 92.5163 11.2288 86.8943 9.80654 80.4555 8.44333 73.3042 7.19923 65.5337 6.01758 57.1944 4.95924 48.3486 4.02457 39.2129 3.21586 19.9052 2.09345-0.0323219 1.71845ZM181.961 20.3645 209 35 181.068 47.85Z" transform="matrix(1 0 0 -1 3609.5 1891.5)"/><path d="M0.141563 1.71291-7.42094 2.33791-7.17195 2.29879-14.672 4.04879-14.4382 3.97637-21.8132 6.85137-28.8094 10.6379-35.5828 15.3497-42.1437 20.8778-48.3353 27.2034-54.1114 34.2184-59.468 41.8622-64.3348 50.0652-68.5165 58.6884-72.1565 67.7065-75.0455 77.0702-77.1985 86.6286-78.5479 96.301-78.9704 106.076-78.9824 105.784-78.3574 110.722-78.4466 110.352-76.6341 115.352-76.7894 115.032-73.7269 119.969-73.8754 119.765-69.7504 124.64-64.5879 129.359-58.3955 134.071-51.1232 138.811-42.9058 143.44-33.7313 148.025-23.618 152.49-12.6101 156.905-0.788313 161.197 11.8584 165.433 25.187 169.48 39.274 173.407 54.0534 177.21 69.3944 180.827 85.3673 184.321 101.9 187.627 118.935 190.747 136.471 193.68 154.38 196.363 172.737 198.923 191.455 201.169 229.735 205.04 269 207.911 308.825 209.658 326.113 209.926 326.059 213.363 308.675 213.092 268.75 211.339 229.39 208.46 191.045 204.581 172.263 202.327 153.87 199.762 135.904 197.07 118.315 194.128 101.225 190.998 84.6327 187.679 68.6056 184.173 53.1966 180.54 38.351 176.718 24.188 172.77 10.7666 168.692-1.96169 164.428-13.8899 160.095-25.007 155.635-35.2687 151.1-44.5942 146.435-53.0018 141.689-60.4795 136.804-66.9121 131.891-72.3746 126.86-76.4996 121.985C-76.5541 121.921-76.6036 121.853-76.6481 121.781L-79.7106 116.843C-79.7733 116.742-79.8253 116.635-79.8659 116.523L-81.6784 111.523C-81.7217 111.404-81.7517 111.28-81.7676 111.153L-82.3927 106.216C-82.4049 106.119-82.4089 106.022-82.4046 105.924L-81.9521 95.824-80.5515 85.8714-78.3296 76.0548-75.3436 66.4185-71.6085 57.1866-67.2902 48.3098-62.282 39.8878-56.7636 32.0316-50.7897 24.7966-44.3564 18.2472-37.5422 12.5253-30.4406 7.61211-23.0618 3.64863-15.6868 0.773627C-15.6105 0.743905-15.5327 0.719805-15.4531 0.701211L-7.95305-1.04879C-7.87104-1.06793-7.78799-1.08097-7.70406-1.08791L-0.141563-1.71291ZM321.717 197.825 349 212 321.29 225.321Z" transform="matrix(-1 0 0 1 3915.5 1856.5)"/><path d="M3915.5 1854.78 4144.58 1854.78 4144.58 1858.22 3915.5 1858.22ZM4140 1842.75 4167.5 1856.5 4140 1870.25Z"/><rect x="4081" y="1997" width="86" height="71.0001" stroke="#000000" stroke-width="10.3125" stroke-miterlimit="8" fill="#00FF00"/><path d="M4208.22 1891.55 4207.47 1917.86 4206.65 1930.8 4205.46 1943.41 4204.02 1955.64 4202.26 1967.38 4200.32 1978.42 4198.18 1988.78 4195.86 1998.34 4193.27 2006.99C4193.24 2007.1 4193.2 2007.21 4193.14 2007.31L4189.25 2014.6 4186.22 2012.98 4190.11 2005.69 4189.98 2006.01 4192.52 1997.53 4194.82 1988.09 4196.93 1977.83 4198.86 1966.87 4200.61 1955.24 4202.04 1943.09 4203.22 1930.58 4204.03 1917.76 4204.78 1891.45ZM4201.61 2017.99 4174.5 2032.5 4179.16 2002.11Z"/><path d="M0.0497979-1.71803 8.6748-1.46803 17.3499-0.648564 25.8038 0.548271 34.1569 2.25361 42.1945 4.40222 49.8398 6.86412 57.1142 9.64473 63.9721 12.8153 70.2605 16.2411 75.927 19.8651C76.0741 19.9594 76.206 20.0755 76.3182 20.2095L80.8735 25.6538 78.2372 27.8597 73.6818 22.4155 74.073 22.7599 68.6145 19.2589 62.5279 15.9347 55.8858 12.8553 48.7852 10.1359 41.3055 7.72278 33.4681 5.62139 25.3212 3.95173 17.0251 2.77356 8.5752 1.96803-0.0497979 1.71803ZM88.6124 15.4413 92 46 65.5204 30.3749Z" transform="matrix(-1 1.22465e-16 1.22465e-16 1 4075.5 2032.5)"/><path d="M0.112463 1.71507-3.70004 1.96507-7.29324 2.68643-10.8315 3.88055-14.3982 5.5575-18.009 7.67212-21.5657 10.2127-25.1519 13.1972-28.6191 16.5493-32.1192 20.2985-35.5482 24.4676-42.1571 33.8644-48.4592 44.5017-54.3345 56.3872-59.7269 69.2882-64.6299 83.1364-68.9134 97.7342-72.5787 113.026-75.5611 128.819-77.734 145.041-79.0997 161.455-79.5318 178.045-79.2191 194.655-78.3462 211.096-76.9129 227.349-74.9814 243.167-72.5526 258.417-69.7492 273.116-66.5749 286.928-62.9694 299.851-59.1144 311.784-55.0191 322.512-50.6321 331.831-48.4185 336.008-46.1555 339.734-43.8278 343.16-41.5274 346.058-39.2255 348.597-36.9145 350.658-34.5769 352.279-32.3407 353.408-32.6311 353.291-30.1311 354.041-30.454 353.977-27.954 354.227-25.2879 354.752C-25.1053 354.789-24.9297 354.855-24.7683 354.948L-22.2683 356.385C-22.1437 356.457-22.0285 356.544-21.9255 356.644L-19.488 359.019C-19.4257 359.08-19.3681 359.145-19.3156 359.215L-16.8156 362.527-14.2703 366.813-11.8261 371.88-9.40895 377.787-7.00883 384.415-4.67374 391.794-2.40794 399.847-0.148648 408.569 2.04821 417.919 4.12082 427.965 6.18689 438.546 8.19133 449.632 10.0718 461.289 11.9488 473.489 13.641 486.084 15.3294 499.091 16.8947 512.551 19.7101 540.515 22.1503 569.732 24.0902 599.952 25.5294 630.858 26.4056 662.327 26.4922 671.068 23.0549 671.101 22.9694 662.423 22.0956 631.017 20.6598 600.173 18.7247 570.018 16.2899 540.86 13.4803 512.949 11.9206 499.534 10.234 486.541 8.55124 474.011 6.67818 461.836 4.80867 450.243 2.81311 439.204 0.75418 428.66-1.29821 418.706-3.47635 409.431-5.71706 400.778-7.95126 392.831-10.2412 385.585-12.5911 379.088-14.9239 373.37-17.2297 368.562-19.5594 364.598-22.0594 361.285-21.887 361.481-24.3245 359.106-23.9817 359.365-26.4817 357.928-25.9621 358.123-28.296 357.648-30.796 357.398C-30.9054 357.387-31.0136 357.365-31.1189 357.334L-33.6189 356.584C-33.719 356.554-33.8163 356.515-33.9093 356.467L-36.5481 355.096-39.2105 353.217-41.7745 350.903-44.2226 348.192-46.6722 345.09-49.0946 341.516-51.4565 337.617-53.7429 333.294-58.2309 323.738-62.3856 312.841-66.2806 300.774-69.9251 287.697-73.1258 273.759-75.9474 258.958-78.3936 243.583-80.3371 227.651-81.7788 211.279-82.656 194.72-82.9682 177.955-82.5253 161.17-81.141 144.584-78.9389 128.181-75.9214 112.224-72.2116 96.7658-67.8701 81.9886-62.8981 67.9618-57.4155 54.8628-51.4158 42.7483-44.9679 31.8856-38.2018 22.2824-34.6308 17.9515-31.0059 14.0757-27.3481 10.5528-23.5593 7.41229-19.741 4.70288-15.8518 2.4425-11.9185 0.619451-7.95676-0.686428-3.92496-1.46507-0.112463-1.71507ZM38.4776 666.365 25 694 10.9789 666.637Z" transform="matrix(-1.83697e-16 -1 -1 1.83697e-16 3922.5 2128.5)"/><rect x="2979" y="1575" width="919" height="133" fill="#FFFFFF"/><text font-family="Arial,Arial_MSFontService,sans-serif" font-weight="400" font-size="68" transform="matrix(1 0 0 1 3075.28 1648)">procesy aplikační vrstvy <tspan font-size="68" x="29.4937" y="82">informačního systému</tspan><tspan font-size="68" x="215.119" y="164">transakce</tspan></text><path d="M2347.5 2807.5C2347.5 2648.99 2843.79 2520.5 3456 2520.5 4068.21 2520.5 4564.5 2648.99 4564.5 2807.5 4564.5 2966.01 4068.21 3094.5 3456 3094.5 2843.79 3094.5 2347.5 2966.01 2347.5 2807.5Z" stroke="#000000" stroke-width="3.4375" stroke-linejoin="round" stroke-miterlimit="10" fill="#FFFFFF" fill-rule="evenodd"/><path d="M2455.5 2725C2455.5 2740.19 2540.12 2752.5 2644.5 2752.5 2748.88 2752.5 2833.5 2740.19 2833.5 2725L2833.5 2890C2833.5 2905.19 2748.88 2917.5 2644.5 2917.5 2540.12 2917.5 2455.5 2905.19 2455.5 2890Z" fill="#CCFFFF" fill-rule="evenodd"/><path d="M2455.5 2725C2455.5 2709.81 2540.12 2697.5 2644.5 2697.5 2748.88 2697.5 2833.5 2709.81 2833.5 2725 2833.5 2740.19 2748.88 2752.5 2644.5 2752.5 2540.12 2752.5 2455.5 2740.19 2455.5 2725Z" fill="#E0FFFF" fill-rule="evenodd"/><path d="M2833.5 2725C2833.5 2740.19 2748.88 2752.5 2644.5 2752.5 2540.12 2752.5 2455.5 2740.19 2455.5 2725 2455.5 2709.81 2540.12 2697.5 2644.5 2697.5 2748.88 2697.5 2833.5 2709.81 2833.5 2725L2833.5 2890C2833.5 2905.19 2748.88 2917.5 2644.5 2917.5 2540.12 2917.5 2455.5 2905.19 2455.5 2890L2455.5 2725" stroke="#000000" stroke-width="3.4375" stroke-linejoin="round" stroke-miterlimit="10" fill="none" fill-rule="evenodd"/><rect x="2502" y="2785" width="284" height="88" fill="#CCFFFF"/><text font-family="Arial,Arial_MSFontService,sans-serif" font-weight="400" font-size="52" transform="matrix(1 0 0 1 2511.43 2854)">databáze<tspan font-size="35" x="215.99" y="15">1</tspan></text><path d="M4078.5 2725C4078.5 2740.19 4163.12 2752.5 4267.5 2752.5 4371.88 2752.5 4456.5 2740.19 4456.5 2725L4456.5 2890C4456.5 2905.19 4371.88 2917.5 4267.5 2917.5 4163.12 2917.5 4078.5 2905.19 4078.5 2890Z" fill="#33CCCC" fill-rule="evenodd"/><path d="M4078.5 2725C4078.5 2709.81 4163.12 2697.5 4267.5 2697.5 4371.88 2697.5 4456.5 2709.81 4456.5 2725 4456.5 2740.19 4371.88 2752.5 4267.5 2752.5 4163.12 2752.5 4078.5 2740.19 4078.5 2725Z" fill="#85E0E0" fill-rule="evenodd"/><path d="M4456.5 2725C4456.5 2740.19 4371.88 2752.5 4267.5 2752.5 4163.12 2752.5 4078.5 2740.19 4078.5 2725 4078.5 2709.81 4163.12 2697.5 4267.5 2697.5 4371.88 2697.5 4456.5 2709.81 4456.5 2725L4456.5 2890C4456.5 2905.19 4371.88 2917.5 4267.5 2917.5 4163.12 2917.5 4078.5 2905.19 4078.5 2890L4078.5 2725" stroke="#000000" stroke-width="3.4375" stroke-linejoin="round" stroke-miterlimit="10" fill="none" fill-rule="evenodd"/><rect x="4125" y="2785" width="283" height="88" fill="#33CCCC"/><text font-family="Arial,Arial_MSFontService,sans-serif" font-weight="400" font-size="52" transform="matrix(1 0 0 1 4134.22 2854)">databáze<tspan font-size="35" x="215.989" y="15">n</tspan></text><path d="M2888.5 2725C2888.5 2740.19 2973.12 2752.5 3077.5 2752.5 3181.88 2752.5 3266.5 2740.19 3266.5 2725L3266.5 2890C3266.5 2905.19 3181.88 2917.5 3077.5 2917.5 2973.12 2917.5 2888.5 2905.19 2888.5 2890Z" fill="#99CCFF" fill-rule="evenodd"/><path d="M2888.5 2725C2888.5 2709.81 2973.12 2697.5 3077.5 2697.5 3181.88 2697.5 3266.5 2709.81 3266.5 2725 3266.5 2740.19 3181.88 2752.5 3077.5 2752.5 2973.12 2752.5 2888.5 2740.19 2888.5 2725Z" fill="#C2E0FF" fill-rule="evenodd"/><path d="M3266.5 2725C3266.5 2740.19 3181.88 2752.5 3077.5 2752.5 2973.12 2752.5 2888.5 2740.19 2888.5 2725 2888.5 2709.81 2973.12 2697.5 3077.5 2697.5 3181.88 2697.5 3266.5 2709.81 3266.5 2725L3266.5 2890C3266.5 2905.19 3181.88 2917.5 3077.5 2917.5 2973.12 2917.5 2888.5 2905.19 2888.5 2890L2888.5 2725" stroke="#000000" stroke-width="3.4375" stroke-linejoin="round" stroke-miterlimit="10" fill="none" fill-rule="evenodd"/><rect x="2935" y="2785" width="284" height="88" fill="#99CCFF"/><text font-family="Arial,Arial_MSFontService,sans-serif" font-weight="400" font-size="52" transform="matrix(1 0 0 1 2944.16 2854)">databáze<tspan font-size="35" x="215.99" y="15">2</tspan></text><path d="M3483.5 2725C3483.5 2740.19 3568.12 2752.5 3672.5 2752.5 3776.88 2752.5 3861.5 2740.19 3861.5 2725L3861.5 2890C3861.5 2905.19 3776.88 2917.5 3672.5 2917.5 3568.12 2917.5 3483.5 2905.19 3483.5 2890Z" fill="#00CCFF" fill-rule="evenodd"/><path d="M3483.5 2725C3483.5 2709.81 3568.12 2697.5 3672.5 2697.5 3776.88 2697.5 3861.5 2709.81 3861.5 2725 3861.5 2740.19 3776.88 2752.5 3672.5 2752.5 3568.12 2752.5 3483.5 2740.19 3483.5 2725Z" fill="#66E0FF" fill-rule="evenodd"/><path d="M3861.5 2725C3861.5 2740.19 3776.88 2752.5 3672.5 2752.5 3568.12 2752.5 3483.5 2740.19 3483.5 2725 3483.5 2709.81 3568.12 2697.5 3672.5 2697.5 3776.88 2697.5 3861.5 2709.81 3861.5 2725L3861.5 2890C3861.5 2905.19 3776.88 2917.5 3672.5 2917.5 3568.12 2917.5 3483.5 2905.19 3483.5 2890L3483.5 2725" stroke="#000000" stroke-width="3.4375" stroke-linejoin="round" stroke-miterlimit="10" fill="none" fill-rule="evenodd"/><rect x="3530" y="2785" width="284" height="88" fill="#00CCFF"/><text font-family="Arial,Arial_MSFontService,sans-serif" font-weight="400" font-size="52" transform="matrix(1 0 0 1 3539.21 2854)">databáze<tspan font-size="35" x="215.99" y="15">i</tspan></text><rect x="3012" y="3164" width="920" height="89" fill="#FFFFFF"/><text font-family="Arial,Arial_MSFontService,sans-serif" font-weight="400" font-size="65" transform="matrix(1 0 0 1 3083.91 3233)">stav informačního systému</text><rect x="3320" y="2741" width="108" height="88" fill="#FFFFFF"/><text font-family="Arial,Arial_MSFontService,sans-serif" font-weight="700" font-size="117" transform="matrix(1 0 0 1 3341.64 2860)">..<tspan font-size="117" x="16.3167" y="141">.</tspan></text><rect x="3915" y="2741" width="108" height="88" fill="#FFFFFF"/><text font-family="Arial,Arial_MSFontService,sans-serif" font-weight="700" font-size="117" transform="matrix(1 0 0 1 3936.69 2860)">..<tspan font-size="117" x="16.3167" y="141">.</tspan></text><path d="M2756.76 1464.92 2810.63 1470.05 2821.25 1358.58 2928.98 1368.84 2918.36 1480.31 2972.23 1485.44 2860.96 1512.34Z" stroke="#000000" stroke-width="3.4375" stroke-miterlimit="8" fill="#00FFFF" fill-rule="evenodd"/><path d="M4077.3 1346.4 4024.34 1357.14 4046.61 1466.88 3940.69 1488.37 3918.43 1378.63 3865.48 1389.37 3963.96 1331.3Z" stroke="#000000" stroke-width="3.4375" stroke-miterlimit="8" fill="#00FFFF" fill-rule="evenodd"/><rect x="3012.5" y="1353.5" width="813" height="111" stroke="#53585F" stroke-width="9.16667" stroke-miterlimit="8" fill="#00FFFF"/><text font-family="Arial,Arial_MSFontService,sans-serif" font-weight="400" font-size="65" transform="matrix(1 0 0 1 3244.9 1422)">komunikace</text><path d="M2617.5 932C2617.5 907.423 2641.68 887.5 2671.5 887.5 2701.32 887.5 2725.5 907.423 2725.5 932 2725.5 956.577 2701.32 976.5 2671.5 976.5 2641.68 976.5 2617.5 956.577 2617.5 932Z" fill="#FF99CC" fill-rule="evenodd"/><path d="M2648.58 918.691C2648.58 916.131 2651.09 914.056 2654.2 914.056 2657.31 914.056 2659.83 916.131 2659.83 918.691 2659.83 921.251 2657.31 923.327 2654.2 923.327 2651.09 923.327 2648.58 921.251 2648.58 918.691M2683.18 918.691C2683.18 916.131 2685.69 914.056 2688.8 914.056 2691.91 914.056 2694.43 916.131 2694.43 918.691 2694.43 921.251 2691.91 923.327 2688.8 923.327 2685.69 923.327 2683.18 921.251 2683.18 918.691" stroke="#000000" stroke-width="3.4375" stroke-linejoin="round" stroke-miterlimit="10" fill="#CD7BA4" fill-rule="evenodd"/><path d="M2642.23 951.407C2661.74 962.45 2681.23 962.45 2700.7 951.407" stroke="#000000" stroke-width="3.4375" stroke-linejoin="round" stroke-miterlimit="10" fill="none" fill-rule="evenodd"/><path d="M2617.5 932C2617.5 907.423 2641.68 887.5 2671.5 887.5 2701.32 887.5 2725.5 907.423 2725.5 932 2725.5 956.577 2701.32 976.5 2671.5 976.5 2641.68 976.5 2617.5 956.577 2617.5 932Z" stroke="#000000" stroke-width="3.4375" stroke-linejoin="round" stroke-miterlimit="10" fill="none" fill-rule="evenodd"/><path d="M2888.5 932C2888.5 907.423 2912.68 887.5 2942.5 887.5 2972.32 887.5 2996.5 907.423 2996.5 932 2996.5 956.577 2972.32 976.5 2942.5 976.5 2912.68 976.5 2888.5 956.577 2888.5 932Z" fill="#FF99CC" fill-rule="evenodd"/><path d="M2919.57 918.691C2919.57 916.131 2922.09 914.056 2925.2 914.056 2928.31 914.056 2930.82 916.131 2930.82 918.691 2930.82 921.251 2928.31 923.327 2925.2 923.327 2922.09 923.327 2919.57 921.251 2919.57 918.691M2954.17 918.691C2954.17 916.131 2956.69 914.056 2959.8 914.056 2962.91 914.056 2965.42 916.131 2965.42 918.691 2965.42 921.251 2962.91 923.327 2959.8 923.327 2956.69 923.327 2954.17 921.251 2954.17 918.691" stroke="#000000" stroke-width="3.4375" stroke-linejoin="round" stroke-miterlimit="10" fill="#CD7BA4" fill-rule="evenodd"/><path d="M2913.23 951.407C2932.74 962.45 2952.23 962.45 2971.7 951.407" stroke="#000000" stroke-width="3.4375" stroke-linejoin="round" stroke-miterlimit="10" fill="none" fill-rule="evenodd"/><path d="M2888.5 932C2888.5 907.423 2912.68 887.5 2942.5 887.5 2972.32 887.5 2996.5 907.423 2996.5 932 2996.5 956.577 2972.32 976.5 2942.5 976.5 2912.68 976.5 2888.5 956.577 2888.5 932Z" stroke="#000000" stroke-width="3.4375" stroke-linejoin="round" stroke-miterlimit="10" fill="none" fill-rule="evenodd"/><path d="M4186.5 1020.5C4186.5 996.2 4210.68 976.5 4240.5 976.5 4270.32 976.5 4294.5 996.2 4294.5 1020.5 4294.5 1044.8 4270.32 1064.5 4240.5 1064.5 4210.68 1064.5 4186.5 1044.8 4186.5 1020.5Z" fill="#FF99CC" fill-rule="evenodd"/><path d="M4217.58 1007.34C4217.58 1004.81 4220.09 1002.76 4223.2 1002.76 4226.31 1002.76 4228.83 1004.81 4228.83 1007.34 4228.83 1009.87 4226.31 1011.92 4223.2 1011.92 4220.09 1011.92 4217.58 1009.87 4217.58 1007.34M4252.17 1007.34C4252.17 1004.81 4254.69 1002.76 4257.8 1002.76 4260.91 1002.76 4263.42 1004.81 4263.42 1007.34 4263.42 1009.87 4260.91 1011.92 4257.8 1011.92 4254.69 1011.92 4252.17 1009.87 4252.17 1007.34" stroke="#000000" stroke-width="3.4375" stroke-linejoin="round" stroke-miterlimit="10" fill="#CD7BA4" fill-rule="evenodd"/><path d="M4211.23 1039.69C4230.74 1050.61 4250.23 1050.61 4269.7 1039.69" stroke="#000000" stroke-width="3.4375" stroke-linejoin="round" stroke-miterlimit="10" fill="none" fill-rule="evenodd"/><path d="M4186.5 1020.5C4186.5 996.2 4210.68 976.5 4240.5 976.5 4270.32 976.5 4294.5 996.2 4294.5 1020.5 4294.5 1044.8 4270.32 1064.5 4240.5 1064.5 4210.68 1064.5 4186.5 1044.8 4186.5 1020.5Z" stroke="#000000" stroke-width="3.4375" stroke-linejoin="round" stroke-miterlimit="10" fill="none" fill-rule="evenodd"/><rect x="2888" y="1108" width="1135" height="172" fill="#FFFFFF" fill-opacity="0"/><text font-family="Arial,Arial_MSFontService,sans-serif" font-weight="400" font-size="65" transform="matrix(1 0 0 1 2890.27 1176)">kontaktní body manuální i automatické,<tspan font-size="65" x="270.142" y="79">vizualizace, sběr dat</tspan></text><path d="M3699.5 887.5C3699.5 863.2 3723.68 843.5 3753.5 843.5 3783.32 843.5 3807.5 863.2 3807.5 887.5 3807.5 911.801 3783.32 931.5 3753.5 931.5 3723.68 931.5 3699.5 911.801 3699.5 887.5Z" fill="#CCFFCC" fill-rule="evenodd"/><path d="M3730.57 874.341C3730.57 871.809 3733.09 869.757 3736.2 869.757 3739.31 869.757 3741.82 871.809 3741.82 874.341 3741.82 876.872 3739.31 878.924 3736.2 878.924 3733.09 878.924 3730.57 876.872 3730.57 874.341M3765.17 874.341C3765.17 871.809 3767.69 869.757 3770.8 869.757 3773.91 869.757 3776.42 871.809 3776.42 874.341 3776.42 876.872 3773.91 878.924 3770.8 878.924 3767.69 878.924 3765.17 876.872 3765.17 874.341" stroke="#000000" stroke-width="3.4375" stroke-linejoin="round" stroke-miterlimit="10" fill="#A4CDA4" fill-rule="evenodd"/><path d="M3724.23 914.878C3743.74 903.959 3763.23 903.959 3782.7 914.878" stroke="#000000" stroke-width="3.4375" stroke-linejoin="round" stroke-miterlimit="10" fill="none" fill-rule="evenodd"/><path d="M3699.5 887.5C3699.5 863.2 3723.68 843.5 3753.5 843.5 3783.32 843.5 3807.5 863.2 3807.5 887.5 3807.5 911.801 3783.32 931.5 3753.5 931.5 3723.68 931.5 3699.5 911.801 3699.5 887.5Z" stroke="#000000" stroke-width="3.4375" stroke-linejoin="round" stroke-miterlimit="10" fill="none" fill-rule="evenodd"/><path d="M3807.5 976C3807.5 951.423 3831.68 931.5 3861.5 931.5 3891.32 931.5 3915.5 951.423 3915.5 976 3915.5 1000.58 3891.32 1020.5 3861.5 1020.5 3831.68 1020.5 3807.5 1000.58 3807.5 976Z" fill="#FF99CC" fill-rule="evenodd"/><path d="M3838.57 962.691C3838.57 960.131 3841.09 958.056 3844.2 958.056 3847.31 958.056 3849.82 960.131 3849.82 962.691 3849.82 965.251 3847.31 967.327 3844.2 967.327 3841.09 967.327 3838.57 965.251 3838.57 962.691M3873.17 962.691C3873.17 960.131 3875.69 958.056 3878.8 958.056 3881.91 958.056 3884.42 960.131 3884.42 962.691 3884.42 965.251 3881.91 967.327 3878.8 967.327 3875.69 967.327 3873.17 965.251 3873.17 962.691" stroke="#000000" stroke-width="3.4375" stroke-linejoin="round" stroke-miterlimit="10" fill="#CD7BA4" fill-rule="evenodd"/><path d="M3832.23 995.407C3851.74 1006.45 3871.23 1006.45 3890.7 995.407" stroke="#000000" stroke-width="3.4375" stroke-linejoin="round" stroke-miterlimit="10" fill="none" fill-rule="evenodd"/><path d="M3807.5 976C3807.5 951.423 3831.68 931.5 3861.5 931.5 3891.32 931.5 3915.5 951.423 3915.5 976 3915.5 1000.58 3891.32 1020.5 3861.5 1020.5 3831.68 1020.5 3807.5 1000.58 3807.5 976Z" stroke="#000000" stroke-width="3.4375" stroke-linejoin="round" stroke-miterlimit="10" fill="none" fill-rule="evenodd"/><path d="M2515.35 577.269 2658.88 733.132 2640.09 882.322 2489.86 888.775 2346.33 732.911Z" stroke="#6E5F11" stroke-width="9.16667" stroke-miterlimit="8" fill="#00FF00" fill-rule="evenodd"/><rect x="2421" y="703" width="216" height="88" fill="#00FF00" fill-opacity="0"/><text font-family="Arial,Arial_MSFontService,sans-serif" font-weight="400" font-size="65" transform="matrix(1 0 0 1 2434.45 771)">vstupy</text><path d="M4137.81 770.798 4278.58 612.523 4428.69 616.43 4450.08 765.053 4309.31 923.328Z" stroke="#6E5F11" stroke-width="9.16667" stroke-miterlimit="8" fill="#CCFFCC" fill-rule="evenodd"/><rect x="4158" y="710" width="270" height="88" fill="#CCFFCC" fill-opacity="0"/><text font-family="Arial,Arial_MSFontService,sans-serif" font-weight="400" font-size="65" transform="matrix(1 0 0 1 4182.17 778)">výstupy</text><path d="M2779.5 1020.5C2779.5 996.2 2803.9 976.5 2834 976.5 2864.1 976.5 2888.5 996.2 2888.5 1020.5 2888.5 1044.8 2864.1 1064.5 2834 1064.5 2803.9 1064.5 2779.5 1044.8 2779.5 1020.5Z" stroke="#000000" stroke-width="3.4375" stroke-linejoin="round" stroke-miterlimit="10" fill="#FFFF99" fill-rule="evenodd"/><path d="M3428.5 932C3428.5 907.423 3452.68 887.5 3482.5 887.5 3512.32 887.5 3536.5 907.423 3536.5 932 3536.5 956.577 3512.32 976.5 3482.5 976.5 3452.68 976.5 3428.5 956.577 3428.5 932Z" stroke="#000000" stroke-width="3.4375" stroke-linejoin="round" stroke-miterlimit="10" fill="#FFFF99" fill-rule="evenodd"/><path d="M3104.5 887.5C3104.5 863.2 3128.68 843.5 3158.5 843.5 3188.32 843.5 3212.5 863.2 3212.5 887.5 3212.5 911.801 3188.32 931.5 3158.5 931.5 3128.68 931.5 3104.5 911.801 3104.5 887.5Z" stroke="#000000" stroke-width="3.4375" stroke-linejoin="round" stroke-miterlimit="10" fill="#FFFF99" fill-rule="evenodd"/><path d="M4023.5 976C4023.5 951.423 4047.9 931.5 4078 931.5 4108.1 931.5 4132.5 951.423 4132.5 976 4132.5 1000.58 4108.1 1020.5 4078 1020.5 4047.9 1020.5 4023.5 1000.58 4023.5 976Z" stroke="#000000" stroke-width="3.4375" stroke-linejoin="round" stroke-miterlimit="10" fill="#FFFF99" fill-rule="evenodd"/><path d="M3212.5 976C3212.5 951.423 3236.68 931.5 3266.5 931.5 3296.32 931.5 3320.5 951.423 3320.5 976 3320.5 1000.58 3296.32 1020.5 3266.5 1020.5 3236.68 1020.5 3212.5 1000.58 3212.5 976Z" stroke="#000000" stroke-width="3.4375" stroke-linejoin="round" stroke-miterlimit="10" fill="#FFFF99" fill-rule="evenodd"/><path d="M129.5 929 1940.5 929 1940.5 836.5 2125.5 1021.5 1940.5 1206.5 1940.5 1114 129.5 1114Z" stroke="#02488C" stroke-width="9.16667" stroke-miterlimit="8" fill="#0365C0" fill-rule="evenodd"/><text fill="#FFFFFF" font-family="Arial Nova Light,Arial Nova Light_MSFontService,sans-serif" font-weight="300" font-size="128" transform="matrix(1 0 0 1 236.825 1051)">prezentační vrstva, <tspan font-style="italic" font-weight="700" font-size="128" x="1075.94" y="0">vizualizace</tspan><tspan fill="#000000" font-size="128" x="365.566" y="296">komunikace  s kontaktními </tspan><tspan fill="#000000" font-size="128" x="597.322" y="450">body, síť, přenos </tspan><tspan fill="#000000" font-size="128" x="1546.65" y="450">-</tspan><tspan fill="#000000" font-style="italic" font-weight="700" font-size="128" x="805.566" y="604">serializace</tspan></text><path d="M129.5 1843.5 1848.5 1843.5 1848.5 1686.5 2162.5 2000.5 1848.5 2314.5 1848.5 2157.5 129.5 2157.5Z" stroke="#02488C" stroke-width="9.16667" stroke-miterlimit="8" fill="#0365C0" fill-rule="evenodd"/><text fill="#FFFFFF" font-family="Arial Nova Light,Arial Nova Light_MSFontService,sans-serif" font-weight="300" font-size="128" transform="matrix(1 0 0 1 177.814 1975)">aplikační vrstva <tspan font-size="128" x="880" y="0">–</tspan><tspan font-size="128" x="977.969" y="0">business </tspan><tspan font-size="128" x="1494.17" y="0">logic</tspan><tspan font-size="128" x="1751.98" y="0">, </tspan><tspan font-size="128" x="152.969" y="154">transakce, dotazy, procesy</tspan></text><path d="M129.5 2832.25 1830 2832.25 1830 2684.5 2125.5 2980 1830 3275.5 1830 3127.75 129.5 3127.75Z" stroke="#02488C" stroke-width="9.16667" stroke-miterlimit="8" fill="#0365C0" fill-rule="evenodd"/><text fill="#FFFFFF" font-family="Arial Nova Light,Arial Nova Light_MSFontService,sans-serif" font-weight="300" font-size="110" transform="matrix(1 0 0 1 275.21 2918)">datová vrstva (relační, objektová), <tspan font-size="110" x="258.385" y="132">případně distribuovaná</tspan><tspan fill="#000000" font-size="128" x="389.768" y="-499">komunikace s databází, </tspan><tspan fill="#000000" font-size="128" x="374.299" y="-345">serverové skripty </tspan><tspan fill="#000000" font-size="128" x="1343.1" y="-345">-</tspan><tspan fill="#000000" font-size="128" x="1419.87" y="-345">PHP,  </tspan><tspan fill="#000000" font-size="128" x="758.451" y="-191">ADL, SQL</tspan></text><path d="M370.5 1169.5 500.5 1299.5 435.5 1299.5 435.5 1667.5 500.5 1667.5 370.5 1797.5 240.5 1667.5 305.5 1667.5 305.5 1299.5 240.5 1299.5Z" stroke="#6E5F11" stroke-width="9.16667" stroke-linejoin="round" stroke-miterlimit="10" fill="#92D050" fill-rule="evenodd"/><path d="M370.5 2204.5 500.5 2334.5 435.5 2334.5 435.5 2665.5 500.5 2665.5 370.5 2795.5 240.5 2665.5 305.5 2665.5 305.5 2334.5 240.5 2334.5Z" stroke="#6E5F11" stroke-width="9.16667" stroke-linejoin="round" stroke-miterlimit="10" fill="#92D050" fill-rule="evenodd"/></g></svg>