<?xml version="1.0" encoding="UTF-8" standalone="no"?>
<!-- Created with Inkscape (http://www.inkscape.org/) -->

<svg
   xmlns:dc="http://purl.org/dc/elements/1.1/"
   xmlns:cc="http://creativecommons.org/ns#"
   xmlns:rdf="http://www.w3.org/1999/02/22-rdf-syntax-ns#"
   xmlns:svg="http://www.w3.org/2000/svg"
   xmlns="http://www.w3.org/2000/svg"
   xmlns:sodipodi="http://sodipodi.sourceforge.net/DTD/sodipodi-0.dtd"
   xmlns:inkscape="http://www.inkscape.org/namespaces/inkscape"
   version="1.1"
   id="svg2"
   xml:space="preserve"
   width="3012.8"
   height="1248"
   viewBox="0 0 3012.8 1248"
   sodipodi:docname="kart_souc1.svg"
   inkscape:version="0.92.5 (2060ec1f9f, 2020-04-08)"><metadata
     id="metadata8"><rdf:RDF><cc:Work
         rdf:about=""><dc:format>image/svg+xml</dc:format><dc:type
           rdf:resource="http://purl.org/dc/dcmitype/StillImage" /><dc:title></dc:title></cc:Work></rdf:RDF></metadata><defs
     id="defs6" /><sodipodi:namedview
     pagecolor="#ffffff"
     bordercolor="#666666"
     borderopacity="1"
     objecttolerance="10"
     gridtolerance="10"
     guidetolerance="10"
     inkscape:pageopacity="0"
     inkscape:pageshadow="2"
     inkscape:window-width="1281"
     inkscape:window-height="705"
     id="namedview4"
     showgrid="false"
     inkscape:zoom="0.14172862"
     inkscape:cx="1506.4"
     inkscape:cy="624"
     inkscape:window-x="364"
     inkscape:window-y="151"
     inkscape:window-maximized="0"
     inkscape:current-layer="g10" /><g
     id="g10"
     inkscape:groupmode="layer"
     inkscape:label="kart_souc1"
     transform="matrix(1.3333333,0,0,1.3333333,0,3.12e-5)"><g
       id="g12"><path
         d="m 2.773,468 0.153,-11.773 0.449,-11.778 0.676,-11.773 0.972,-11.778 1.278,-11.699 1.574,-11.625 1.875,-11.625 2.102,-11.625 2.398,-11.472 2.699,-11.477 3,-11.324 3.227,-11.324 3.523,-11.176 3.75,-11.102 4.051,-11.023 4.273,-10.875 4.579,-10.801 4.875,-10.648 5.097,-10.5 5.324,-10.352 5.551,-10.273 5.852,-10.051 6.074,-9.977 6.375,-9.75 6.523,-9.597 6.829,-9.375 6.972,-9.227 7.199,-9.074 7.5,-8.852 7.653,-8.625 7.875,-8.398 8.023,-8.25 8.324,-8.028 8.403,-7.796 8.699,-7.579 8.773,-7.347 9,-7.051 9.153,-6.898 9.375,-6.602 9.449,-6.375 9.676,-6.074 9.75,-5.852 9.972,-5.625 10.051,-5.324 10.125,-5.023 10.352,-4.801 10.426,-4.5 10.5,-4.278 10.574,-3.898 10.722,-3.676 10.801,-3.375 10.875,-3.148 10.949,-2.778 11.028,-2.546 11.023,-2.25 11.176,-1.875 11.176,-1.653 11.176,-1.347 11.25,-1.051 11.25,-0.75 11.25,-0.449 11.25,-0.153 11.25,0.153 11.25,0.449 11.25,0.75 11.25,1.051 11.171,1.347 11.176,1.653 11.102,1.875 11.097,2.25 11.028,2.546 10.875,2.778 10.875,3.074 10.801,3.375 10.722,3.676 10.653,3.972 10.5,4.278 10.421,4.5 10.278,4.722 10.199,5.102 10.051,5.324 9.898,5.551 9.75,5.852 9.676,6.148 9.449,6.375 9.375,6.602 9.153,6.824 9,7.125 8.847,7.347 8.625,7.5 8.477,7.801 8.25,8.028 8.097,8.25 7.801,8.398 7.727,8.699 7.426,8.778 7.199,9.074 7.051,9.222 6.75,9.454 6.597,9.523 6.301,9.75 6.074,9.977 5.852,10.046 5.551,10.278 5.398,10.347 5.102,10.5 4.796,10.653 4.579,10.801 4.347,10.875 4.051,11.023 3.75,11.102 3.523,11.171 3.227,11.329 2.926,11.324 2.699,11.472 2.398,11.477 2.176,11.625 1.801,11.625 1.574,11.625 1.278,11.699 1.046,11.778 0.676,11.773 0.449,11.773 0.153,11.778 -0.153,11.773 -0.449,11.778 -0.676,11.773 -0.972,11.773 -1.352,11.704 -1.5,11.625 -1.875,11.625 -2.097,11.625 -2.477,11.472 -2.625,11.477 -3,11.398 -3.227,11.25 -3.523,11.176 -3.75,11.102 -4.051,11.023 -4.347,10.875 -4.579,10.801 -4.796,10.648 -5.102,10.5 -5.324,10.426 -5.625,10.199 -5.852,10.051 -6.074,9.977 -6.301,9.75 -6.523,9.597 -6.824,9.375 -6.977,9.227 -7.273,9.074 -7.426,8.852 -7.653,8.625 -7.875,8.472 -8.097,8.176 -8.25,8.023 -8.477,7.801 -8.625,7.574 -8.847,7.352 -9,7.051 -9.153,6.898 -9.301,6.602 -9.523,6.375 -9.602,6.074 -9.824,5.852 -9.898,5.625 -10.051,5.324 -10.199,5.023 -10.278,4.801 -10.421,4.5 -10.5,4.273 -10.653,3.903 -10.648,3.676 -10.801,3.375 -10.875,3.148 -10.949,2.773 -11.028,2.551 -11.097,2.25 -11.102,1.875 -11.176,1.653 -11.171,1.347 -11.25,1.051 -11.25,0.75 -11.25,0.449 -11.25,0.153 -11.25,-0.153 -11.25,-0.449 -11.25,-0.75 -11.25,-1.051 -11.176,-1.347 -11.176,-1.653 -11.102,-1.875 -11.097,-2.25 -11.028,-2.551 -10.949,-2.773 -10.875,-3.074 -10.801,-3.375 -10.648,-3.676 -10.648,-3.977 -10.5,-4.273 -10.426,-4.5 -10.278,-4.727 -10.199,-5.097 -10.051,-5.324 -9.972,-5.551 -9.75,-5.852 -9.676,-6.148 -9.449,-6.375 -9.301,-6.602 -9.227,-6.824 -9,-7.125 -8.773,-7.352 -8.699,-7.5 -8.403,-7.796 -8.324,-8.028 -8.023,-8.25 -7.875,-8.398 -7.653,-8.699 -7.5,-8.778 -7.199,-9.074 -7.051,-9.227 -6.75,-9.449 -6.523,-9.523 -6.375,-9.75 -6.074,-9.977 L 64.199,704.023 58.648,693.75 53.25,683.398 48.227,672.898 43.352,662.25 38.773,651.449 34.426,640.574 30.449,629.551 26.625,618.449 23.102,607.273 19.875,595.949 16.949,584.625 14.25,573.148 11.852,561.676 9.676,550.051 7.875,538.426 6.301,526.801 5.023,515.102 3.977,503.324 3.301,491.551 2.852,479.773 2.699,468 Z"
         style="fill:#00b0f0;fill-opacity:0.29800002;fill-rule:evenodd;stroke:none"
         id="path14"
         inkscape:connector-curvature="0" /><g
         id="g16"><path
           d="m 2.773,468 0.153,-11.773 0.449,-11.778 0.676,-11.773 0.972,-11.778 1.278,-11.699 1.574,-11.625 1.875,-11.625 2.102,-11.625 2.398,-11.472 2.699,-11.477 3,-11.324 3.227,-11.324 3.523,-11.176 3.75,-11.102 4.051,-11.023 4.273,-10.875 4.579,-10.801 4.875,-10.648 5.097,-10.5 5.324,-10.352 5.551,-10.273 5.852,-10.051 6.074,-9.977 6.375,-9.75 6.523,-9.597 6.829,-9.375 6.972,-9.227 7.199,-9.074 7.5,-8.852 7.653,-8.625 7.875,-8.398 8.023,-8.25 8.324,-8.028 8.403,-7.796 8.699,-7.579 8.773,-7.347 9,-7.051 9.153,-6.898 9.375,-6.602 9.449,-6.375 9.676,-6.074 9.75,-5.852 9.972,-5.625 10.051,-5.324 10.125,-5.023 10.352,-4.801 10.426,-4.5 10.5,-4.278 10.574,-3.898 10.722,-3.676 10.801,-3.375 10.875,-3.148 10.949,-2.778 11.028,-2.546 11.023,-2.25 11.176,-1.875 11.176,-1.653 11.176,-1.347 11.25,-1.051 11.25,-0.75 11.25,-0.449 11.25,-0.153 11.25,0.153 11.25,0.449 11.25,0.75 11.25,1.051 11.171,1.347 11.176,1.653 11.102,1.875 11.097,2.25 11.028,2.546 10.875,2.778 10.875,3.074 10.801,3.375 10.722,3.676 10.653,3.972 10.5,4.278 10.421,4.5 10.278,4.722 10.199,5.102 10.051,5.324 9.898,5.551 9.75,5.852 9.676,6.148 9.449,6.375 9.375,6.602 9.153,6.824 9,7.125 8.847,7.347 8.625,7.5 8.477,7.801 8.25,8.028 8.097,8.25 7.801,8.398 7.727,8.699 7.426,8.778 7.199,9.074 7.051,9.222 6.75,9.454 6.597,9.523 6.301,9.75 6.074,9.977 5.852,10.046 5.551,10.278 5.398,10.347 5.102,10.5 4.796,10.653 4.579,10.801 4.347,10.875 4.051,11.023 3.75,11.102 3.523,11.171 3.227,11.329 2.926,11.324 2.699,11.472 2.398,11.477 2.176,11.625 1.801,11.625 1.574,11.625 1.278,11.699 1.046,11.778 0.676,11.773 0.449,11.773 0.153,11.778 -0.153,11.773 -0.449,11.778 -0.676,11.773 -0.972,11.773 -1.352,11.704 -1.5,11.625 -1.875,11.625 -2.097,11.625 -2.477,11.472 -2.625,11.477 -3,11.398 -3.227,11.25 -3.523,11.176 -3.75,11.102 -4.051,11.023 -4.347,10.875 -4.579,10.801 -4.796,10.648 -5.102,10.5 -5.324,10.426 -5.625,10.199 -5.852,10.051 -6.074,9.977 -6.301,9.75 -6.523,9.597 -6.824,9.375 -6.977,9.227 -7.273,9.074 -7.426,8.852 -7.653,8.625 -7.875,8.472 -8.097,8.176 -8.25,8.023 -8.477,7.801 -8.625,7.574 -8.847,7.352 -9,7.051 -9.153,6.898 -9.301,6.602 -9.523,6.375 -9.602,6.074 -9.824,5.852 -9.898,5.625 -10.051,5.324 -10.199,5.023 -10.278,4.801 -10.421,4.5 -10.5,4.273 -10.653,3.903 -10.648,3.676 -10.801,3.375 -10.875,3.148 -10.949,2.773 -11.028,2.551 -11.097,2.25 -11.102,1.875 -11.176,1.653 -11.171,1.347 -11.25,1.051 -11.25,0.75 -11.25,0.449 -11.25,0.153 -11.25,-0.153 -11.25,-0.449 -11.25,-0.75 -11.25,-1.051 -11.176,-1.347 -11.176,-1.653 -11.102,-1.875 -11.097,-2.25 -11.028,-2.551 -10.949,-2.773 -10.875,-3.074 -10.801,-3.375 -10.648,-3.676 -10.648,-3.977 -10.5,-4.273 -10.426,-4.5 -10.278,-4.727 -10.199,-5.097 -10.051,-5.324 -9.972,-5.551 -9.75,-5.852 -9.676,-6.148 -9.449,-6.375 -9.301,-6.602 -9.227,-6.824 -9,-7.125 -8.773,-7.352 -8.699,-7.5 -8.403,-7.796 -8.324,-8.028 -8.023,-8.25 -7.875,-8.398 -7.653,-8.699 -7.5,-8.778 -7.199,-9.074 -7.051,-9.227 -6.75,-9.449 -6.523,-9.523 -6.375,-9.75 -6.074,-9.977 L 64.199,704.023 58.648,693.75 53.25,683.398 48.227,672.898 43.352,662.25 38.773,651.449 34.426,640.574 30.449,629.551 26.625,618.449 23.102,607.273 19.875,595.949 16.949,584.625 14.25,573.148 11.852,561.676 9.676,550.051 7.875,538.426 6.301,526.801 5.023,515.102 3.977,503.324 3.301,491.551 2.852,479.773 2.699,468 Z"
           style="fill:none;stroke:#ffffff;stroke-width:2.1166501;stroke-linecap:butt;stroke-linejoin:round;stroke-miterlimit:4;stroke-dasharray:none;stroke-opacity:0.29800002"
           id="path18"
           inkscape:connector-curvature="0" /></g><g
         id="g20"><path
           d="m 2.773,468 0.153,-11.773 0.449,-11.778 0.676,-11.773 0.972,-11.778 1.278,-11.699 1.574,-11.625 1.875,-11.625 2.102,-11.625 2.398,-11.472 2.699,-11.477 3,-11.324 3.227,-11.324 3.523,-11.176 3.75,-11.102 4.051,-11.023 4.273,-10.875 4.579,-10.801 4.875,-10.648 5.097,-10.5 5.324,-10.352 5.551,-10.273 5.852,-10.051 6.074,-9.977 6.375,-9.75 6.523,-9.597 6.829,-9.375 6.972,-9.227 7.199,-9.074 7.5,-8.852 7.653,-8.625 7.875,-8.398 8.023,-8.25 8.324,-8.028 8.403,-7.796 8.699,-7.579 8.773,-7.347 9,-7.051 9.153,-6.898 9.375,-6.602 9.449,-6.375 9.676,-6.074 9.75,-5.852 9.972,-5.625 10.051,-5.324 10.125,-5.023 10.352,-4.801 10.426,-4.5 10.5,-4.278 10.574,-3.898 10.722,-3.676 10.801,-3.375 10.875,-3.148 10.949,-2.778 11.028,-2.546 11.023,-2.25 11.176,-1.875 11.176,-1.653 11.176,-1.347 11.25,-1.051 11.25,-0.75 11.25,-0.449 11.25,-0.153 11.25,0.153 11.25,0.449 11.25,0.75 11.25,1.051 11.171,1.347 11.176,1.653 11.102,1.875 11.097,2.25 11.028,2.546 10.875,2.778 10.875,3.074 10.801,3.375 10.722,3.676 10.653,3.972 10.5,4.278 10.421,4.5 10.278,4.722 10.199,5.102 10.051,5.324 9.898,5.551 9.75,5.852 9.676,6.148 9.449,6.375 9.375,6.602 9.153,6.824 9,7.125 8.847,7.347 8.625,7.5 8.477,7.801 8.25,8.028 8.097,8.25 7.801,8.398 7.727,8.699 7.426,8.778 7.199,9.074 7.051,9.222 6.75,9.454 6.597,9.523 6.301,9.75 6.074,9.977 5.852,10.046 5.551,10.278 5.398,10.347 5.102,10.5 4.796,10.653 4.579,10.801 4.347,10.875 4.051,11.023 3.75,11.102 3.523,11.171 3.227,11.329 2.926,11.324 2.699,11.472 2.398,11.477 2.176,11.625 1.801,11.625 1.574,11.625 1.278,11.699 1.046,11.778 0.676,11.773 0.449,11.773 0.153,11.778 -0.153,11.773 -0.449,11.778 -0.676,11.773 -0.972,11.773 -1.352,11.704 -1.5,11.625 -1.875,11.625 -2.097,11.625 -2.477,11.472 -2.625,11.477 -3,11.398 -3.227,11.25 -3.523,11.176 -3.75,11.102 -4.051,11.023 -4.347,10.875 -4.579,10.801 -4.796,10.648 -5.102,10.5 -5.324,10.426 -5.625,10.199 -5.852,10.051 -6.074,9.977 -6.301,9.75 -6.523,9.597 -6.824,9.375 -6.977,9.227 -7.273,9.074 -7.426,8.852 -7.653,8.625 -7.875,8.472 -8.097,8.176 -8.25,8.023 -8.477,7.801 -8.625,7.574 -8.847,7.352 -9,7.051 -9.153,6.898 -9.301,6.602 -9.523,6.375 -9.602,6.074 -9.824,5.852 -9.898,5.625 -10.051,5.324 -10.199,5.023 -10.278,4.801 -10.421,4.5 -10.5,4.273 -10.653,3.903 -10.648,3.676 -10.801,3.375 -10.875,3.148 -10.949,2.773 -11.028,2.551 -11.097,2.25 -11.102,1.875 -11.176,1.653 -11.171,1.347 -11.25,1.051 -11.25,0.75 -11.25,0.449 -11.25,0.153 -11.25,-0.153 -11.25,-0.449 -11.25,-0.75 -11.25,-1.051 -11.176,-1.347 -11.176,-1.653 -11.102,-1.875 -11.097,-2.25 -11.028,-2.551 -10.949,-2.773 -10.875,-3.074 -10.801,-3.375 -10.648,-3.676 -10.648,-3.977 -10.5,-4.273 -10.426,-4.5 -10.278,-4.727 -10.199,-5.097 -10.051,-5.324 -9.972,-5.551 -9.75,-5.852 -9.676,-6.148 -9.449,-6.375 -9.301,-6.602 -9.227,-6.824 -9,-7.125 -8.773,-7.352 -8.699,-7.5 -8.403,-7.796 -8.324,-8.028 -8.023,-8.25 -7.875,-8.398 -7.653,-8.699 -7.5,-8.778 -7.199,-9.074 -7.051,-9.227 -6.75,-9.449 -6.523,-9.523 -6.375,-9.75 -6.074,-9.977 L 64.199,704.023 58.648,693.75 53.25,683.398 48.227,672.898 43.352,662.25 38.773,651.449 34.426,640.574 30.449,629.551 26.625,618.449 23.102,607.273 19.875,595.949 16.949,584.625 14.25,573.148 11.852,561.676 9.676,550.051 7.875,538.426 6.301,526.801 5.023,515.102 3.977,503.324 3.301,491.551 2.852,479.773 2.699,468 Z"
           style="fill:none;stroke:#000000;stroke-width:5.32499981;stroke-linecap:butt;stroke-linejoin:round;stroke-miterlimit:4;stroke-dasharray:none;stroke-opacity:1"
           id="path22"
           inkscape:connector-curvature="0" /></g><text
         transform="translate(388.27515,860.40015)"
         style="font-style:italic;font-variant:normal;font-size:120.375px;font-family:Arimo;-inkscape-font-specification:Arimo-Italic;writing-mode:lr-tb;fill:#000000;fill-opacity:1;fill-rule:nonzero;stroke:none"
         id="text26"><tspan
           x="0"
           y="0"
           id="tspan24">A</tspan></text>
<text
         transform="translate(468.60059,896.54993)"
         style="font-style:italic;font-variant:normal;font-size:69.82499695px;font-family:Arimo;-inkscape-font-specification:Arimo-Italic;writing-mode:lr-tb;fill:#000000;fill-opacity:1;fill-rule:nonzero;stroke:none"
         id="text30"><tspan
           x="0"
           y="0"
           id="tspan28">1</tspan></text>
<g
         id="g32"><path
           d="m 417.898,80.25 0.153,-2.699 0.222,-1.352 0.301,-1.273 0.301,-1.352 0.449,-1.273 0.528,-1.278 0.597,-1.273 0.676,-1.199 0.75,-1.199 0.75,-1.125 0.898,-1.125 1.954,-2.102 1.046,-0.977 1.125,-0.898 1.204,-0.898 1.199,-0.829 2.551,-1.5 1.421,-0.597 1.352,-0.602 1.426,-0.523 1.426,-0.449 1.5,-0.375 3,-0.602 1.574,-0.148 1.5,-0.079 1.574,-0.074 h 1.574 l 3,0.301 1.574,0.301 1.5,0.301 1.426,0.375 1.5,0.449 1.426,0.523 1.352,0.528 1.421,0.671 1.278,0.676 1.273,0.824 2.403,1.653 1.125,0.972 1.046,0.977 1.954,2.102 0.898,1.125 0.75,1.125 0.75,1.199 0.676,1.199 0.597,1.273 0.528,1.278 0.449,1.273 0.301,1.278 0.301,1.347 0.222,1.352 0.153,2.699 -0.153,2.699 -0.222,1.352 -0.301,1.273 -0.301,1.352 -0.449,1.273 -0.528,1.278 -0.597,1.273 -0.676,1.199 -0.75,1.199 -0.75,1.125 -0.898,1.125 -1.954,2.102 -1.046,0.977 -1.125,0.898 -1.204,0.898 -1.199,0.829 -2.551,1.5 -1.421,0.597 -1.352,0.602 -1.426,0.523 -1.426,0.449 -1.5,0.375 -3,0.602 -1.574,0.148 -1.5,0.079 -1.574,0.074 v -0.074 h -1.574 l -1.5,-0.153 -1.574,-0.148 -1.5,-0.227 -3,-0.75 -1.426,-0.449 -2.852,-1.051 -1.347,-0.676 -1.278,-0.671 -1.273,-0.75 -1.278,-0.829 -2.25,-1.796 -1.046,-0.977 -1.051,-1.051 -0.903,-1.051 -0.898,-1.125 -0.824,-1.125 -0.75,-1.199 -0.676,-1.199 -0.602,-1.273 -0.898,-2.551 -0.375,-1.352 -0.301,-1.273 -0.222,-1.352 -0.153,-2.699 z"
           style="fill:#00b0f0;fill-opacity:1;fill-rule:evenodd;stroke:#000000;stroke-width:3.29999995;stroke-linecap:butt;stroke-linejoin:round;stroke-miterlimit:4;stroke-dasharray:none;stroke-opacity:1"
           id="path34"
           inkscape:connector-curvature="0" /></g><g
         id="g36"><path
           d="m 240,235.352 0.148,-2.704 0.227,-1.347 0.301,-1.352 0.301,-1.273 0.449,-1.278 0.523,-1.273 0.602,-1.273 0.676,-1.204 0.75,-1.199 0.824,-1.125 0.898,-1.125 0.903,-1.051 1.046,-1.046 1.051,-0.977 1.125,-0.977 2.403,-1.648 1.273,-0.824 2.699,-1.352 2.852,-1.051 1.5,-0.449 1.5,-0.375 3,-0.597 1.574,-0.153 1.5,-0.148 h 3.148 l 1.5,0.148 1.579,0.153 3,0.597 1.5,0.375 1.5,0.449 2.847,1.051 2.699,1.352 1.278,0.824 2.398,1.648 1.125,0.977 1.051,0.977 1.051,1.046 0.898,1.051 0.903,1.125 0.824,1.125 0.75,1.199 0.676,1.204 0.597,1.273 0.528,1.273 0.449,1.278 0.301,1.273 0.296,1.352 0.227,1.347 0.148,2.704 h -0.074 l -0.148,2.699 -0.227,1.347 -0.301,1.278 -0.296,1.347 -0.454,1.278 -0.523,1.273 -0.602,1.278 -0.671,1.199 -0.75,1.199 -1.653,2.25 -1.949,2.102 -1.125,0.972 -2.25,1.801 -1.273,0.824 -2.551,1.5 -1.426,0.602 -1.352,0.597 -1.421,0.528 -1.5,0.449 -1.5,0.375 -3,0.602 -1.579,0.148 -1.5,0.074 -1.574,0.074 v -0.074 h -1.574 l -1.5,-0.148 -1.574,-0.153 -1.5,-0.222 -3,-0.75 -1.5,-0.449 -1.426,-0.528 -1.352,-0.523 -1.421,-0.676 -1.278,-0.676 -1.273,-0.75 -1.278,-0.824 -1.199,-0.898 -1.125,-0.903 -1.051,-0.972 -1.949,-2.102 -0.898,-1.125 -0.824,-1.125 -1.352,-2.398 -0.602,-1.278 -0.523,-1.273 -0.449,-1.278 -0.375,-1.347 -0.301,-1.278 -0.227,-1.347 -0.074,-1.352 z"
           style="fill:#00b0f0;fill-opacity:1;fill-rule:evenodd;stroke:#000000;stroke-width:3.29999995;stroke-linecap:butt;stroke-linejoin:round;stroke-miterlimit:4;stroke-dasharray:none;stroke-opacity:1"
           id="path38"
           inkscape:connector-curvature="0" /></g><g
         id="g40"><path
           d="m 655.125,545.551 0.148,-2.699 0.227,-1.352 0.301,-1.352 0.301,-1.273 0.449,-1.273 0.523,-1.278 0.602,-1.273 0.676,-1.199 0.75,-1.204 0.824,-1.125 0.898,-1.125 0.903,-1.046 1.046,-1.051 1.051,-0.977 1.125,-0.972 2.403,-1.653 1.273,-0.824 2.699,-1.352 2.852,-1.046 1.5,-0.454 1.5,-0.375 3,-0.597 1.574,-0.153 1.5,-0.148 h 3.148 l 1.5,0.148 1.579,0.153 3,0.597 1.5,0.375 1.5,0.454 2.847,1.046 2.699,1.352 1.278,0.824 2.398,1.653 1.125,0.972 1.051,0.977 1.051,1.051 0.898,1.046 0.903,1.125 0.824,1.125 0.75,1.204 0.676,1.199 0.597,1.273 0.528,1.278 0.449,1.273 0.301,1.273 0.296,1.352 0.227,1.352 0.148,2.699 h -0.074 l -0.148,2.699 -0.227,1.352 -0.301,1.273 -0.296,1.352 -0.454,1.273 -0.523,1.273 -0.602,1.278 -0.671,1.199 -0.75,1.199 -1.653,2.25 -1.949,2.102 -1.125,0.972 -2.25,1.801 -1.273,0.824 -2.551,1.5 -1.426,0.602 -1.352,0.602 -1.421,0.523 -1.5,0.449 -1.5,0.375 -3,0.602 -1.579,0.148 -1.5,0.074 -1.574,0.079 v -0.079 h -1.574 l -1.5,-0.148 -1.574,-0.148 -1.5,-0.227 -3,-0.75 -1.5,-0.449 -1.426,-0.528 -1.352,-0.523 -1.421,-0.676 -1.278,-0.676 -1.273,-0.75 -1.278,-0.824 -1.199,-0.898 -1.125,-0.903 -1.051,-0.972 -1.949,-2.102 -0.898,-1.125 -0.824,-1.125 -1.352,-2.398 -0.602,-1.278 -0.523,-1.273 -0.449,-1.273 -0.375,-1.352 -0.301,-1.273 -0.227,-1.352 -0.074,-1.352 z"
           style="fill:#00b0f0;fill-opacity:1;fill-rule:evenodd;stroke:#000000;stroke-width:3.29999995;stroke-linecap:butt;stroke-linejoin:round;stroke-miterlimit:4;stroke-dasharray:none;stroke-opacity:1"
           id="path42"
           inkscape:connector-curvature="0" /></g><g
         id="g44"><path
           d="m 417.898,442.125 0.153,-2.699 0.222,-1.352 0.301,-1.273 0.301,-1.352 0.449,-1.273 0.528,-1.278 0.597,-1.273 0.676,-1.199 0.75,-1.199 0.75,-1.125 0.898,-1.125 1.954,-2.102 1.046,-0.977 1.125,-0.898 1.204,-0.898 1.199,-0.829 2.551,-1.5 1.421,-0.597 1.352,-0.602 1.426,-0.523 1.426,-0.449 1.5,-0.375 3,-0.602 1.574,-0.148 1.5,-0.079 1.574,-0.074 h 1.574 l 3,0.301 1.574,0.301 1.5,0.301 1.426,0.375 1.5,0.449 1.426,0.523 1.352,0.528 1.421,0.671 1.278,0.676 1.273,0.824 2.403,1.653 1.125,0.972 1.046,0.977 1.954,2.102 0.898,1.125 0.75,1.125 0.75,1.199 0.676,1.199 0.597,1.273 0.528,1.278 0.449,1.273 0.301,1.278 0.301,1.347 0.222,1.352 0.153,2.699 -0.153,2.699 -0.222,1.352 -0.301,1.273 -0.301,1.352 -0.449,1.273 -0.528,1.278 -0.597,1.273 -0.676,1.199 -0.75,1.199 -0.75,1.125 -0.898,1.125 -1.954,2.102 -1.046,0.977 -1.125,0.898 -1.204,0.898 -1.199,0.829 -2.551,1.5 -1.421,0.597 -1.352,0.602 -1.426,0.523 -1.426,0.449 -1.5,0.375 -3,0.602 -1.574,0.148 -1.5,0.079 -1.574,0.074 v -0.074 h -1.574 l -1.5,-0.153 -1.574,-0.148 -1.5,-0.227 -3,-0.75 -1.426,-0.449 -2.852,-1.051 -1.347,-0.676 -1.278,-0.671 -1.273,-0.75 -1.278,-0.829 -2.25,-1.796 -1.046,-0.977 -1.051,-1.051 -0.903,-1.051 -0.898,-1.125 -0.824,-1.125 -0.75,-1.199 -0.676,-1.199 -0.602,-1.273 -0.898,-2.551 -0.375,-1.352 -0.301,-1.273 -0.222,-1.352 -0.153,-2.699 z"
           style="fill:#00b0f0;fill-opacity:1;fill-rule:evenodd;stroke:#000000;stroke-width:3.29999995;stroke-linecap:butt;stroke-linejoin:round;stroke-miterlimit:4;stroke-dasharray:none;stroke-opacity:1"
           id="path46"
           inkscape:connector-curvature="0" /></g><path
         d="m 1367.176,468 0.148,-11.773 0.449,-11.778 0.676,-11.773 0.977,-11.778 1.273,-11.699 1.574,-11.625 1.875,-11.625 2.102,-11.625 2.398,-11.472 2.704,-11.477 3,-11.324 3.222,-11.324 3.528,-11.176 3.75,-11.102 4.046,-11.023 4.278,-10.875 4.574,-10.801 4.875,-10.648 5.102,-10.5 5.324,-10.352 5.551,-10.273 5.847,-10.051 6.074,-9.977 6.375,-9.75 6.528,-9.597 6.824,-9.375 6.977,-9.227 7.199,-9.074 7.5,-8.852 7.648,-8.625 7.875,-8.398 8.028,-8.25 8.324,-8.028 8.398,-7.796 8.699,-7.579 8.778,-7.347 9,-7.051 9.148,-6.898 9.375,-6.602 9.449,-6.375 9.676,-6.074 9.75,-5.852 9.977,-5.625 10.051,-5.324 10.125,-5.023 10.347,-4.801 10.426,-4.5 10.5,-4.278 10.574,-3.898 10.727,-3.676 10.801,-3.375 10.875,-3.148 10.949,-2.778 11.023,-2.546 11.028,-2.25 11.171,-1.875 11.176,-1.653 11.176,-1.347 11.25,-1.051 11.25,-0.75 11.25,-0.449 11.25,-0.153 11.25,0.153 11.25,0.449 11.25,0.75 11.25,1.051 11.176,1.347 11.176,1.653 11.097,1.875 11.102,2.25 11.023,2.546 10.875,2.778 10.875,3.074 10.801,3.375 10.727,3.676 10.648,3.972 10.5,4.278 10.426,4.5 10.273,4.722 10.199,5.102 10.051,5.324 9.903,5.551 9.75,5.852 9.671,6.148 9.454,6.375 9.375,6.602 9.148,6.824 9,7.125 8.852,7.347 8.625,7.5 8.472,7.801 8.25,8.028 8.102,8.25 7.801,8.398 7.722,8.699 7.426,8.778 7.199,9.074 7.051,9.222 6.75,9.454 6.602,9.523 6.296,9.75 6.079,9.977 5.847,10.046 5.551,10.278 5.398,10.347 5.102,10.5 4.801,10.653 4.574,10.801 4.352,10.875 4.046,11.023 3.75,11.102 3.528,11.171 3.222,11.329 2.926,11.324 2.699,11.472 2.403,11.477 2.176,11.625 1.796,11.625 1.579,11.625 1.273,11.699 1.051,11.778 0.676,11.773 0.449,11.773 0.148,11.778 -0.148,11.773 -0.449,11.778 -0.676,11.773 -0.977,11.773 -1.347,11.704 -1.5,11.625 -1.875,11.625 -2.102,11.625 -2.477,11.472 -2.625,11.477 -3,11.398 -3.222,11.25 -3.528,11.176 -3.75,11.102 -4.046,11.023 -4.352,10.875 -4.574,10.801 -4.801,10.648 -5.102,10.5 -5.324,10.426 -5.625,10.199 -5.847,10.051 -6.079,9.977 -6.296,9.75 -6.528,9.597 -6.824,9.375 -6.977,9.227 -7.273,9.074 -7.426,8.852 -7.648,8.625 -7.875,8.472 -8.102,8.176 -8.25,8.023 -8.472,7.801 -8.625,7.574 -8.852,7.352 -9,7.051 -9.148,6.898 -9.301,6.602 -9.528,6.375 -9.597,6.074 -9.824,5.852 -9.903,5.625 -10.051,5.324 -10.199,5.023 -10.273,4.801 -10.426,4.5 -10.5,4.273 -10.648,3.903 -10.653,3.676 -10.801,3.375 -10.875,3.148 -10.949,2.773 -11.023,2.551 -11.102,2.25 -11.097,1.875 -11.176,1.653 -11.176,1.347 -11.25,1.051 -11.25,0.75 -11.25,0.449 -11.25,0.153 -11.25,-0.153 -11.25,-0.449 -11.25,-0.75 -11.25,-1.051 -11.176,-1.347 -11.176,-1.653 -11.097,-1.875 -11.102,-2.25 -11.023,-2.551 -10.949,-2.773 -10.875,-3.074 -10.801,-3.375 -10.653,-3.676 -10.648,-3.977 -10.5,-4.273 -10.426,-4.5 -10.273,-4.727 -10.199,-5.097 -10.051,-5.324 -9.977,-5.551 -9.75,-5.852 -9.676,-6.148 -9.449,-6.375 -9.301,-6.602 -9.222,-6.824 -9,-7.125 -8.778,-7.352 -8.699,-7.5 -8.398,-7.796 -8.324,-8.028 -8.028,-8.25 -7.875,-8.398 -7.648,-8.699 -7.5,-8.778 -7.199,-9.074 -7.051,-9.227 -6.75,-9.449 -6.528,-9.523 -6.375,-9.75 -6.074,-9.977 -5.847,-10.051 -5.551,-10.273 -5.403,-10.352 -5.023,-10.5 -4.875,-10.648 -4.574,-10.801 -4.352,-10.875 -3.972,-11.023 -3.829,-11.102 -3.523,-11.176 -3.227,-11.324 -2.921,-11.324 -2.704,-11.477 -2.398,-11.472 -2.176,-11.625 -1.801,-11.625 -1.574,-11.625 -1.273,-11.699 -1.051,-11.778 -0.676,-11.773 -0.449,-11.778 -0.148,-11.773 z"
         style="fill:#ff0000;fill-opacity:0.29800002;fill-rule:evenodd;stroke:none"
         id="path48"
         inkscape:connector-curvature="0" /><g
         id="g50"><path
           d="m 1367.176,468 0.148,-11.773 0.449,-11.778 0.676,-11.773 0.977,-11.778 1.273,-11.699 1.574,-11.625 1.875,-11.625 2.102,-11.625 2.398,-11.472 2.704,-11.477 3,-11.324 3.222,-11.324 3.528,-11.176 3.75,-11.102 4.046,-11.023 4.278,-10.875 4.574,-10.801 4.875,-10.648 5.102,-10.5 5.324,-10.352 5.551,-10.273 5.847,-10.051 6.074,-9.977 6.375,-9.75 6.528,-9.597 6.824,-9.375 6.977,-9.227 7.199,-9.074 7.5,-8.852 7.648,-8.625 7.875,-8.398 8.028,-8.25 8.324,-8.028 8.398,-7.796 8.699,-7.579 8.778,-7.347 9,-7.051 9.148,-6.898 9.375,-6.602 9.449,-6.375 9.676,-6.074 9.75,-5.852 9.977,-5.625 10.051,-5.324 10.125,-5.023 10.347,-4.801 10.426,-4.5 10.5,-4.278 10.574,-3.898 10.727,-3.676 10.801,-3.375 10.875,-3.148 10.949,-2.778 11.023,-2.546 11.028,-2.25 11.171,-1.875 11.176,-1.653 11.176,-1.347 11.25,-1.051 11.25,-0.75 11.25,-0.449 11.25,-0.153 11.25,0.153 11.25,0.449 11.25,0.75 11.25,1.051 11.176,1.347 11.176,1.653 11.097,1.875 11.102,2.25 11.023,2.546 10.875,2.778 10.875,3.074 10.801,3.375 10.727,3.676 10.648,3.972 10.5,4.278 10.426,4.5 10.273,4.722 10.199,5.102 10.051,5.324 9.903,5.551 9.75,5.852 9.671,6.148 9.454,6.375 9.375,6.602 9.148,6.824 9,7.125 8.852,7.347 8.625,7.5 8.472,7.801 8.25,8.028 8.102,8.25 7.801,8.398 7.722,8.699 7.426,8.778 7.199,9.074 7.051,9.222 6.75,9.454 6.602,9.523 6.296,9.75 6.079,9.977 5.847,10.046 5.551,10.278 5.398,10.347 5.102,10.5 4.801,10.653 4.574,10.801 4.352,10.875 4.046,11.023 3.75,11.102 3.528,11.171 3.222,11.329 2.926,11.324 2.699,11.472 2.403,11.477 2.176,11.625 1.796,11.625 1.579,11.625 1.273,11.699 1.051,11.778 0.676,11.773 0.449,11.773 0.148,11.778 -0.148,11.773 -0.449,11.778 -0.676,11.773 -0.977,11.773 -1.347,11.704 -1.5,11.625 -1.875,11.625 -2.102,11.625 -2.477,11.472 -2.625,11.477 -3,11.398 -3.222,11.25 -3.528,11.176 -3.75,11.102 -4.046,11.023 -4.352,10.875 -4.574,10.801 -4.801,10.648 -5.102,10.5 -5.324,10.426 -5.625,10.199 -5.847,10.051 -6.079,9.977 -6.296,9.75 -6.528,9.597 -6.824,9.375 -6.977,9.227 -7.273,9.074 -7.426,8.852 -7.648,8.625 -7.875,8.472 -8.102,8.176 -8.25,8.023 -8.472,7.801 -8.625,7.574 -8.852,7.352 -9,7.051 -9.148,6.898 -9.301,6.602 -9.528,6.375 -9.597,6.074 -9.824,5.852 -9.903,5.625 -10.051,5.324 -10.199,5.023 -10.273,4.801 -10.426,4.5 -10.5,4.273 -10.648,3.903 -10.653,3.676 -10.801,3.375 -10.875,3.148 -10.949,2.773 -11.023,2.551 -11.102,2.25 -11.097,1.875 -11.176,1.653 -11.176,1.347 -11.25,1.051 -11.25,0.75 -11.25,0.449 -11.25,0.153 -11.25,-0.153 -11.25,-0.449 -11.25,-0.75 -11.25,-1.051 -11.176,-1.347 -11.176,-1.653 -11.097,-1.875 -11.102,-2.25 -11.023,-2.551 -10.949,-2.773 -10.875,-3.074 -10.801,-3.375 -10.653,-3.676 -10.648,-3.977 -10.5,-4.273 -10.426,-4.5 -10.273,-4.727 -10.199,-5.097 -10.051,-5.324 -9.977,-5.551 -9.75,-5.852 -9.676,-6.148 -9.449,-6.375 -9.301,-6.602 -9.222,-6.824 -9,-7.125 -8.778,-7.352 -8.699,-7.5 -8.398,-7.796 -8.324,-8.028 -8.028,-8.25 -7.875,-8.398 -7.648,-8.699 -7.5,-8.778 -7.199,-9.074 -7.051,-9.227 -6.75,-9.449 -6.528,-9.523 -6.375,-9.75 -6.074,-9.977 -5.847,-10.051 -5.551,-10.273 -5.403,-10.352 -5.023,-10.5 -4.875,-10.648 -4.574,-10.801 -4.352,-10.875 -3.972,-11.023 -3.829,-11.102 -3.523,-11.176 -3.227,-11.324 -2.921,-11.324 -2.704,-11.477 -2.398,-11.472 -2.176,-11.625 -1.801,-11.625 -1.574,-11.625 -1.273,-11.699 -1.051,-11.778 -0.676,-11.773 -0.449,-11.778 -0.148,-11.773 z"
           style="fill:none;stroke:#ffffff;stroke-width:2.1166501;stroke-linecap:butt;stroke-linejoin:round;stroke-miterlimit:4;stroke-dasharray:none;stroke-opacity:0.29800002"
           id="path52"
           inkscape:connector-curvature="0" /></g><g
         id="g54"><path
           d="m 1367.176,468 0.148,-11.773 0.449,-11.778 0.676,-11.773 0.977,-11.778 1.273,-11.699 1.574,-11.625 1.875,-11.625 2.102,-11.625 2.398,-11.472 2.704,-11.477 3,-11.324 3.222,-11.324 3.528,-11.176 3.75,-11.102 4.046,-11.023 4.278,-10.875 4.574,-10.801 4.875,-10.648 5.102,-10.5 5.324,-10.352 5.551,-10.273 5.847,-10.051 6.074,-9.977 6.375,-9.75 6.528,-9.597 6.824,-9.375 6.977,-9.227 7.199,-9.074 7.5,-8.852 7.648,-8.625 7.875,-8.398 8.028,-8.25 8.324,-8.028 8.398,-7.796 8.699,-7.579 8.778,-7.347 9,-7.051 9.148,-6.898 9.375,-6.602 9.449,-6.375 9.676,-6.074 9.75,-5.852 9.977,-5.625 10.051,-5.324 10.125,-5.023 10.347,-4.801 10.426,-4.5 10.5,-4.278 10.574,-3.898 10.727,-3.676 10.801,-3.375 10.875,-3.148 10.949,-2.778 11.023,-2.546 11.028,-2.25 11.171,-1.875 11.176,-1.653 11.176,-1.347 11.25,-1.051 11.25,-0.75 11.25,-0.449 11.25,-0.153 11.25,0.153 11.25,0.449 11.25,0.75 11.25,1.051 11.176,1.347 11.176,1.653 11.097,1.875 11.102,2.25 11.023,2.546 10.875,2.778 10.875,3.074 10.801,3.375 10.727,3.676 10.648,3.972 10.5,4.278 10.426,4.5 10.273,4.722 10.199,5.102 10.051,5.324 9.903,5.551 9.75,5.852 9.671,6.148 9.454,6.375 9.375,6.602 9.148,6.824 9,7.125 8.852,7.347 8.625,7.5 8.472,7.801 8.25,8.028 8.102,8.25 7.801,8.398 7.722,8.699 7.426,8.778 7.199,9.074 7.051,9.222 6.75,9.454 6.602,9.523 6.296,9.75 6.079,9.977 5.847,10.046 5.551,10.278 5.398,10.347 5.102,10.5 4.801,10.653 4.574,10.801 4.352,10.875 4.046,11.023 3.75,11.102 3.528,11.171 3.222,11.329 2.926,11.324 2.699,11.472 2.403,11.477 2.176,11.625 1.796,11.625 1.579,11.625 1.273,11.699 1.051,11.778 0.676,11.773 0.449,11.773 0.148,11.778 -0.148,11.773 -0.449,11.778 -0.676,11.773 -0.977,11.773 -1.347,11.704 -1.5,11.625 -1.875,11.625 -2.102,11.625 -2.477,11.472 -2.625,11.477 -3,11.398 -3.222,11.25 -3.528,11.176 -3.75,11.102 -4.046,11.023 -4.352,10.875 -4.574,10.801 -4.801,10.648 -5.102,10.5 -5.324,10.426 -5.625,10.199 -5.847,10.051 -6.079,9.977 -6.296,9.75 -6.528,9.597 -6.824,9.375 -6.977,9.227 -7.273,9.074 -7.426,8.852 -7.648,8.625 -7.875,8.472 -8.102,8.176 -8.25,8.023 -8.472,7.801 -8.625,7.574 -8.852,7.352 -9,7.051 -9.148,6.898 -9.301,6.602 -9.528,6.375 -9.597,6.074 -9.824,5.852 -9.903,5.625 -10.051,5.324 -10.199,5.023 -10.273,4.801 -10.426,4.5 -10.5,4.273 -10.648,3.903 -10.653,3.676 -10.801,3.375 -10.875,3.148 -10.949,2.773 -11.023,2.551 -11.102,2.25 -11.097,1.875 -11.176,1.653 -11.176,1.347 -11.25,1.051 -11.25,0.75 -11.25,0.449 -11.25,0.153 -11.25,-0.153 -11.25,-0.449 -11.25,-0.75 -11.25,-1.051 -11.176,-1.347 -11.176,-1.653 -11.097,-1.875 -11.102,-2.25 -11.023,-2.551 -10.949,-2.773 -10.875,-3.074 -10.801,-3.375 -10.653,-3.676 -10.648,-3.977 -10.5,-4.273 -10.426,-4.5 -10.273,-4.727 -10.199,-5.097 -10.051,-5.324 -9.977,-5.551 -9.75,-5.852 -9.676,-6.148 -9.449,-6.375 -9.301,-6.602 -9.222,-6.824 -9,-7.125 -8.778,-7.352 -8.699,-7.5 -8.398,-7.796 -8.324,-8.028 -8.028,-8.25 -7.875,-8.398 -7.648,-8.699 -7.5,-8.778 -7.199,-9.074 -7.051,-9.227 -6.75,-9.449 -6.528,-9.523 -6.375,-9.75 -6.074,-9.977 -5.847,-10.051 -5.551,-10.273 -5.403,-10.352 -5.023,-10.5 -4.875,-10.648 -4.574,-10.801 -4.352,-10.875 -3.972,-11.023 -3.829,-11.102 -3.523,-11.176 -3.227,-11.324 -2.921,-11.324 -2.704,-11.477 -2.398,-11.472 -2.176,-11.625 -1.801,-11.625 -1.574,-11.625 -1.273,-11.699 -1.051,-11.778 -0.676,-11.773 -0.449,-11.778 -0.148,-11.773 z"
           style="fill:none;stroke:#000000;stroke-width:5.32499981;stroke-linecap:butt;stroke-linejoin:round;stroke-miterlimit:4;stroke-dasharray:none;stroke-opacity:1"
           id="path56"
           inkscape:connector-curvature="0" /></g><text
         transform="translate(1752.6753,860.40015)"
         style="font-style:italic;font-variant:normal;font-size:120.375px;font-family:Arimo;-inkscape-font-specification:Arimo-Italic;writing-mode:lr-tb;fill:#000000;fill-opacity:1;fill-rule:nonzero;stroke:none"
         id="text60"><tspan
           x="0"
           y="0"
           id="tspan58">A</tspan></text>
<text
         transform="translate(1833,896.54993)"
         style="font-style:italic;font-variant:normal;font-size:69.82499695px;font-family:Arimo;-inkscape-font-specification:Arimo-Italic;writing-mode:lr-tb;fill:#000000;fill-opacity:1;fill-rule:nonzero;stroke:none"
         id="text64"><tspan
           x="0"
           y="0"
           id="tspan62">2</tspan></text>
<g
         id="g66"><path
           d="m 1782.449,80.25 0.153,-2.699 0.222,-1.352 0.301,-1.347 0.301,-1.278 0.449,-1.273 0.523,-1.278 0.602,-1.273 0.676,-1.199 0.75,-1.199 0.824,-1.125 0.898,-1.125 0.903,-1.051 1.051,-1.051 1.046,-0.977 1.125,-0.972 2.403,-1.653 1.273,-0.824 2.699,-1.347 2.852,-1.051 1.5,-0.449 1.5,-0.375 3,-0.602 1.574,-0.148 1.5,-0.153 h 3.153 l 1.5,0.153 1.574,0.148 3,0.602 1.5,0.375 1.5,0.449 2.847,1.051 2.704,1.347 1.273,0.824 2.398,1.653 1.125,0.972 1.051,0.977 1.051,1.051 0.898,1.051 0.903,1.125 0.824,1.125 0.75,1.199 0.676,1.199 0.597,1.273 0.528,1.278 0.449,1.273 0.301,1.278 0.301,1.347 0.222,1.352 0.153,2.699 h -0.079 l -0.148,2.699 -0.227,1.352 -0.296,1.273 -0.301,1.352 -0.449,1.273 -0.528,1.278 -0.597,1.273 -0.676,1.199 -0.75,1.199 -1.653,2.25 -1.949,2.102 -1.125,0.977 -2.25,1.796 -1.273,0.829 -2.551,1.5 -1.426,0.597 -1.347,0.602 -1.426,0.523 -1.5,0.449 -1.5,0.375 -3,0.602 -1.574,0.148 -1.5,0.079 -1.579,0.074 v -0.074 h -1.574 l -1.5,-0.153 -1.574,-0.148 -1.5,-0.227 -3,-0.75 -1.5,-0.449 -1.426,-0.523 -1.347,-0.528 -1.426,-0.676 -1.278,-0.671 -1.273,-0.75 -1.273,-0.829 -1.204,-0.898 -1.125,-0.898 -1.046,-0.977 -1.954,-2.102 -0.898,-1.125 -0.824,-1.125 -1.352,-2.398 -0.597,-1.273 -0.528,-1.278 -0.449,-1.273 -0.375,-1.352 -0.301,-1.273 -0.222,-1.352 -0.079,-1.347 z"
           style="fill:#ff0000;fill-opacity:1;fill-rule:evenodd;stroke:#c00000;stroke-width:3.29999995;stroke-linecap:butt;stroke-linejoin:round;stroke-miterlimit:4;stroke-dasharray:none;stroke-opacity:1"
           id="path68"
           inkscape:connector-curvature="0" /></g><g
         id="g70"><path
           d="m 2079.074,338.699 0.153,-2.699 0.222,-1.352 0.301,-1.347 0.301,-1.278 0.449,-1.273 0.523,-1.273 0.602,-1.278 0.676,-1.199 0.75,-1.199 0.824,-1.125 0.898,-1.125 0.903,-1.051 1.051,-1.051 1.046,-0.972 1.125,-0.977 2.403,-1.648 1.273,-0.829 2.699,-1.347 2.852,-1.051 1.5,-0.449 1.5,-0.375 3,-0.602 1.574,-0.148 1.5,-0.153 h 3.153 l 1.5,0.153 1.574,0.148 3,0.602 1.5,0.375 1.5,0.449 2.847,1.051 2.704,1.347 1.273,0.829 2.398,1.648 1.125,0.977 1.051,0.972 1.051,1.051 0.898,1.051 0.903,1.125 0.824,1.125 0.75,1.199 0.676,1.199 0.597,1.278 0.528,1.273 0.449,1.273 0.301,1.278 0.301,1.347 0.222,1.352 0.153,2.699 h -0.079 l -0.148,2.699 -0.227,1.352 -0.296,1.273 -0.301,1.352 -0.449,1.273 -0.528,1.278 -0.597,1.273 -0.676,1.199 -0.75,1.204 -1.653,2.25 -1.949,2.097 -1.125,0.977 -2.25,1.801 -1.273,0.824 -2.551,1.5 -1.426,0.597 -1.347,0.602 -1.426,0.523 -1.5,0.454 -1.5,0.375 -3,0.597 -1.574,0.153 -1.5,0.074 -1.579,0.074 v -0.074 h -1.574 l -1.5,-0.153 -1.574,-0.148 -1.5,-0.227 -3,-0.75 -1.5,-0.449 -1.426,-0.523 -1.347,-0.528 -1.426,-0.671 -1.278,-0.676 -1.273,-0.75 -1.273,-0.824 -1.204,-0.903 -1.125,-0.898 -1.046,-0.977 -1.954,-2.097 -0.898,-1.125 -0.824,-1.125 -1.352,-2.403 -0.597,-1.273 -0.528,-1.278 -0.449,-1.273 -0.375,-1.352 -0.301,-1.273 -0.222,-1.352 -0.079,-1.347 z"
           style="fill:#ff0000;fill-opacity:1;fill-rule:evenodd;stroke:#c00000;stroke-width:3.29999995;stroke-linecap:butt;stroke-linejoin:round;stroke-miterlimit:4;stroke-dasharray:none;stroke-opacity:1"
           id="path72"
           inkscape:connector-curvature="0" /></g><g
         id="g74"><path
           d="m 1663.801,597.227 0.148,-2.704 0.227,-1.347 0.301,-1.278 0.296,-1.347 0.454,-1.278 0.523,-1.273 0.602,-1.273 0.671,-1.204 0.75,-1.199 0.75,-1.125 0.903,-1.125 1.949,-2.097 1.051,-0.977 1.125,-0.898 1.199,-0.903 1.199,-0.824 2.551,-1.5 1.426,-0.602 1.347,-0.597 1.426,-0.528 1.426,-0.449 1.5,-0.375 3,-0.597 1.574,-0.153 1.5,-0.074 1.574,-0.074 h 1.579 l 3,0.301 1.574,0.296 1.5,0.301 1.426,0.375 1.5,0.449 1.421,0.528 1.352,0.523 1.426,0.676 1.273,0.676 1.278,0.824 2.398,1.648 1.125,0.977 1.051,0.977 1.949,2.097 0.898,1.125 0.75,1.125 0.75,1.199 0.676,1.204 0.602,1.273 0.523,1.273 0.449,1.278 0.301,1.273 0.301,1.352 0.227,1.347 0.148,2.704 -0.148,2.699 -0.227,1.347 -0.301,1.278 -0.301,1.347 -0.449,1.278 -0.523,1.273 -0.602,1.278 -0.676,1.199 -0.75,1.199 -0.75,1.125 -0.898,1.125 -1.949,2.102 -1.051,0.972 -1.125,0.903 -1.199,0.898 -1.199,0.824 -2.551,1.5 -1.426,0.602 -1.352,0.597 -1.421,0.528 -1.426,0.449 -1.5,0.375 -3,0.602 -1.574,0.148 -1.5,0.074 -1.579,0.074 v -0.074 h -1.574 l -1.5,-0.148 -1.574,-0.153 -1.5,-0.222 -3,-0.75 -1.426,-0.449 -2.847,-1.051 -1.352,-0.676 -1.273,-0.676 -1.278,-0.75 -1.273,-0.824 -2.25,-1.801 -1.051,-0.972 -1.051,-1.051 -0.898,-1.051 -0.903,-1.125 -0.824,-1.125 -0.75,-1.199 -0.676,-1.199 -0.597,-1.278 -0.903,-2.551 -0.375,-1.347 -0.296,-1.278 -0.227,-1.347 -0.148,-2.699 z"
           style="fill:#ff0000;fill-opacity:1;fill-rule:evenodd;stroke:#c00000;stroke-width:3.29999995;stroke-linecap:butt;stroke-linejoin:round;stroke-miterlimit:4;stroke-dasharray:none;stroke-opacity:1"
           id="path76"
           inkscape:connector-curvature="0" /></g><g
         id="g78"><path
           d="m 477.074,106.125 1290.602,0.301"
           style="fill:none;stroke:#000000;stroke-width:1.95000005;stroke-linecap:butt;stroke-linejoin:round;stroke-miterlimit:4;stroke-dasharray:none;stroke-opacity:1"
           id="path80"
           inkscape:connector-curvature="0" /></g><path
         d="m 1782.375,106.426 -15.75,7.875 v -15.75 z"
         style="fill:#000000;fill-opacity:1;fill-rule:evenodd;stroke:none"
         id="path82"
         inkscape:connector-curvature="0" /><g
         id="g84"><path
           d="M 477.074,106.125 2064.449,311.023"
           style="fill:none;stroke:#000000;stroke-width:1.95000005;stroke-linecap:butt;stroke-linejoin:round;stroke-miterlimit:4;stroke-dasharray:none;stroke-opacity:1"
           id="path86"
           inkscape:connector-curvature="0" /></g><path
         d="m 2079,312.898 -16.648,5.778 2.023,-15.602 z"
         style="fill:#000000;fill-opacity:1;fill-rule:evenodd;stroke:none"
         id="path88"
         inkscape:connector-curvature="0" /><g
         id="g90"><path
           d="M 477.074,106.125 1650.227,565.949"
           style="fill:none;stroke:#000000;stroke-width:1.95000005;stroke-linecap:butt;stroke-linejoin:round;stroke-miterlimit:4;stroke-dasharray:none;stroke-opacity:1"
           id="path92"
           inkscape:connector-curvature="0" /></g><path
         d="m 1663.875,571.352 -17.551,1.574 5.778,-14.625 z"
         style="fill:#000000;fill-opacity:1;fill-rule:evenodd;stroke:none"
         id="path94"
         inkscape:connector-curvature="0" /><g
         id="g96"><path
           d="M 299.398,209.477 1767.676,107.176"
           style="fill:none;stroke:#000000;stroke-width:1.95000005;stroke-linecap:butt;stroke-linejoin:round;stroke-miterlimit:4;stroke-dasharray:none;stroke-opacity:1"
           id="path98"
           inkscape:connector-curvature="0" /></g><path
         d="m 1782.375,106.125 -15.148,8.926 -1.125,-15.676 z"
         style="fill:#000000;fill-opacity:1;fill-rule:evenodd;stroke:none"
         id="path100"
         inkscape:connector-curvature="0" /><g
         id="g102"><path
           d="M 299.398,209.477 2064.301,312.074"
           style="fill:none;stroke:#000000;stroke-width:1.95000005;stroke-linecap:butt;stroke-linejoin:round;stroke-miterlimit:4;stroke-dasharray:none;stroke-opacity:1"
           id="path104"
           inkscape:connector-curvature="0" /></g><path
         d="m 2079,312.898 -16.199,6.977 0.898,-15.75 z"
         style="fill:#000000;fill-opacity:1;fill-rule:evenodd;stroke:none"
         id="path106"
         inkscape:connector-curvature="0" /><g
         id="g108"><path
           d="M 299.398,209.477 1649.699,567.602"
           style="fill:none;stroke:#000000;stroke-width:1.95000005;stroke-linecap:butt;stroke-linejoin:round;stroke-miterlimit:4;stroke-dasharray:none;stroke-opacity:1"
           id="path110"
           inkscape:connector-curvature="0" /></g><path
         d="m 1663.875,571.352 -17.25,3.597 4.051,-15.222 z"
         style="fill:#000000;fill-opacity:1;fill-rule:evenodd;stroke:none"
         id="path112"
         inkscape:connector-curvature="0" /><g
         id="g114"><path
           d="M 477.074,468 1768.199,110.023"
           style="fill:none;stroke:#000000;stroke-width:1.95000005;stroke-linecap:butt;stroke-linejoin:round;stroke-miterlimit:4;stroke-dasharray:none;stroke-opacity:1"
           id="path116"
           inkscape:connector-curvature="0" /></g><path
         d="m 1782.375,106.125 -13.051,11.773 -4.199,-15.148 z"
         style="fill:#000000;fill-opacity:1;fill-rule:evenodd;stroke:none"
         id="path118"
         inkscape:connector-curvature="0" /><g
         id="g120"><path
           d="M 477.074,468 2064.375,314.324"
           style="fill:none;stroke:#000000;stroke-width:1.95000005;stroke-linecap:butt;stroke-linejoin:round;stroke-miterlimit:4;stroke-dasharray:none;stroke-opacity:1"
           id="path122"
           inkscape:connector-curvature="0" /></g><path
         d="m 2079,312.898 -14.926,9.375 -1.5,-15.671 z"
         style="fill:#000000;fill-opacity:1;fill-rule:evenodd;stroke:none"
         id="path124"
         inkscape:connector-curvature="0" /><g
         id="g126"><path
           d="M 477.074,468 1649.25,570.074"
           style="fill:none;stroke:#000000;stroke-width:1.95000005;stroke-linecap:butt;stroke-linejoin:round;stroke-miterlimit:4;stroke-dasharray:none;stroke-opacity:1"
           id="path128"
           inkscape:connector-curvature="0" /></g><path
         d="m 1663.875,571.352 -16.352,6.449 1.352,-15.676 z"
         style="fill:#000000;fill-opacity:1;fill-rule:evenodd;stroke:none"
         id="path130"
         inkscape:connector-curvature="0" /><g
         id="g132"><path
           d="M 714.602,571.352 1768.875,111.977"
           style="fill:none;stroke:#000000;stroke-width:1.95000005;stroke-linecap:butt;stroke-linejoin:round;stroke-miterlimit:4;stroke-dasharray:none;stroke-opacity:1"
           id="path134"
           inkscape:connector-curvature="0" /></g><path
         d="m 1782.375,106.125 -11.324,13.5 -6.227,-14.398 z"
         style="fill:#000000;fill-opacity:1;fill-rule:evenodd;stroke:none"
         id="path136"
         inkscape:connector-curvature="0" /><g
         id="g138"><path
           d="M 714.602,571.352 2064.523,315.602"
           style="fill:none;stroke:#000000;stroke-width:1.95000005;stroke-linecap:butt;stroke-linejoin:round;stroke-miterlimit:4;stroke-dasharray:none;stroke-opacity:1"
           id="path140"
           inkscape:connector-curvature="0" /></g><path
         d="m 2079,312.898 -14.023,10.653 -2.926,-15.449 z"
         style="fill:#000000;fill-opacity:1;fill-rule:evenodd;stroke:none"
         id="path142"
         inkscape:connector-curvature="0" /><g
         id="g144"><path
           d="m 714.602,571.352 h 934.5"
           style="fill:none;stroke:#000000;stroke-width:1.95000005;stroke-linecap:butt;stroke-linejoin:round;stroke-miterlimit:4;stroke-dasharray:none;stroke-opacity:1"
           id="path146"
           inkscape:connector-curvature="0" /></g><path
         d="m 1663.801,571.352 -15.75,7.875 v -15.75 z"
         style="fill:#000000;fill-opacity:1;fill-rule:evenodd;stroke:none"
         id="path148"
         inkscape:connector-curvature="0" /></g></g></svg>