<svg width="3224" height="1170" xmlns="http://www.w3.org/2000/svg" xmlns:xlink="http://www.w3.org/1999/xlink" overflow="hidden"><defs><filter id="fx0" x="-10%" y="-10%" width="120%" height="120%" filterUnits="userSpaceOnUse" primitiveUnits="userSpaceOnUse"><feComponentTransfer color-interpolation-filters="sRGB"><feFuncR type="discrete" tableValues="0 0"/><feFuncG type="discrete" tableValues="0 0"/><feFuncB type="discrete" tableValues="0 0"/><feFuncA type="linear" slope="0.4" intercept="0"/></feComponentTransfer><feGaussianBlur stdDeviation="6.11111 6.11111"/></filter><filter id="fx1" x="-10%" y="-10%" width="120%" height="120%" filterUnits="userSpaceOnUse" primitiveUnits="userSpaceOnUse"><feComponentTransfer color-interpolation-filters="sRGB"><feFuncR type="discrete" tableValues="0 0"/><feFuncG type="discrete" tableValues="0 0"/><feFuncB type="discrete" tableValues="0 0"/><feFuncA type="linear" slope="0.4" intercept="0"/></feComponentTransfer><feGaussianBlur stdDeviation="6.11111 6.11111"/></filter><filter id="fx2" x="-10%" y="-10%" width="120%" height="120%" filterUnits="userSpaceOnUse" primitiveUnits="userSpaceOnUse"><feComponentTransfer color-interpolation-filters="sRGB"><feFuncR type="discrete" tableValues="0 0"/><feFuncG type="discrete" tableValues="0 0"/><feFuncB type="discrete" tableValues="0 0"/><feFuncA type="linear" slope="0.4" intercept="0"/></feComponentTransfer><feGaussianBlur stdDeviation="6.11111 6.11111"/></filter><filter id="fx3" x="-10%" y="-10%" width="120%" height="120%" filterUnits="userSpaceOnUse" primitiveUnits="userSpaceOnUse"><feComponentTransfer color-interpolation-filters="sRGB"><feFuncR type="discrete" tableValues="0 0"/><feFuncG type="discrete" tableValues="0 0"/><feFuncB type="discrete" tableValues="0 0"/><feFuncA type="linear" slope="0.4" intercept="0"/></feComponentTransfer><feGaussianBlur stdDeviation="6.11111 6.11111"/></filter><filter id="fx4" x="-10%" y="-10%" width="120%" height="120%" filterUnits="userSpaceOnUse" primitiveUnits="userSpaceOnUse"><feComponentTransfer color-interpolation-filters="sRGB"><feFuncR type="discrete" tableValues="0 0"/><feFuncG type="discrete" tableValues="0 0"/><feFuncB type="discrete" tableValues="0 0"/><feFuncA type="linear" slope="0.4" intercept="0"/></feComponentTransfer><feGaussianBlur stdDeviation="6.11111 6.11111"/></filter><filter id="fx5" x="-10%" y="-10%" width="120%" height="120%" filterUnits="userSpaceOnUse" primitiveUnits="userSpaceOnUse"><feComponentTransfer color-interpolation-filters="sRGB"><feFuncR type="discrete" tableValues="0 0"/><feFuncG type="discrete" tableValues="0 0"/><feFuncB type="discrete" tableValues="0 0"/><feFuncA type="linear" slope="0.4" intercept="0"/></feComponentTransfer><feGaussianBlur stdDeviation="6.11111 6.11111"/></filter><filter id="fx6" x="-10%" y="-10%" width="120%" height="120%" filterUnits="userSpaceOnUse" primitiveUnits="userSpaceOnUse"><feComponentTransfer color-interpolation-filters="sRGB"><feFuncR type="discrete" tableValues="0 0"/><feFuncG type="discrete" tableValues="0 0"/><feFuncB type="discrete" tableValues="0 0"/><feFuncA type="linear" slope="0.4" intercept="0"/></feComponentTransfer><feGaussianBlur stdDeviation="6.11111 6.11111"/></filter><filter id="fx7" x="-10%" y="-10%" width="120%" height="120%" filterUnits="userSpaceOnUse" primitiveUnits="userSpaceOnUse"><feComponentTransfer color-interpolation-filters="sRGB"><feFuncR type="discrete" tableValues="0 0"/><feFuncG type="discrete" tableValues="0 0"/><feFuncB type="discrete" tableValues="0 0"/><feFuncA type="linear" slope="0.4" intercept="0"/></feComponentTransfer><feGaussianBlur stdDeviation="6.11111 6.11111"/></filter><clipPath id="clip8"><rect x="698" y="1037" width="3224" height="1170"/></clipPath><clipPath id="clip9"><path d="M1816.5 1056.5 1816.5 1355.5 2750.5 1355.5 2750.5 1056.5ZM698 1037 3922 1037 3922 2207 698 2207Z" fill-rule="evenodd" clip-rule="evenodd"/></clipPath><clipPath id="clip10"><rect x="-16" y="-16" width="320" height="134"/></clipPath><clipPath id="clip11"><rect x="0" y="0" width="983" height="348"/></clipPath><clipPath id="clip12"><rect x="11" y="8" width="303" height="89"/></clipPath><clipPath id="clip13"><rect x="0" y="0" width="1117" height="368"/></clipPath><clipPath id="clip14"><path d="M711.5 1678.5 711.5 2093.5 1505.5 2093.5 1505.5 1678.5ZM698 1037 3922 1037 3922 2207 698 2207Z" fill-rule="evenodd" clip-rule="evenodd"/></clipPath><clipPath id="clip15"><rect x="-16" y="-16" width="278" height="168"/></clipPath><clipPath id="clip16"><rect x="0" y="0" width="843" height="464"/></clipPath><clipPath id="clip17"><rect x="11" y="8" width="162" height="144"/></clipPath><clipPath id="clip18"><rect x="0" y="0" width="655" height="556"/></clipPath><clipPath id="clip19"><path d="M3068.5 1678.5 3068.5 2093.5 3888.5 2093.5 3888.5 1678.5ZM698 1037 3922 1037 3922 2207 698 2207Z" fill-rule="evenodd" clip-rule="evenodd"/></clipPath><clipPath id="clip20"><rect x="-16" y="-16" width="285" height="168"/></clipPath><clipPath id="clip21"><rect x="0" y="0" width="869" height="464"/></clipPath><clipPath id="clip22"><rect x="11" y="8" width="172" height="144"/></clipPath><clipPath id="clip23"><rect x="0" y="0" width="706" height="556"/></clipPath><clipPath id="clip24"><path d="M1829.5 1686.5 1829.5 2101.5 2753.5 2101.5 2753.5 1686.5ZM698 1037 3922 1037 3922 2207 698 2207Z" fill-rule="evenodd" clip-rule="evenodd"/></clipPath><clipPath id="clip25"><rect x="-16" y="-16" width="316" height="168"/></clipPath><clipPath id="clip26"><rect x="0" y="0" width="973" height="464"/></clipPath><clipPath id="clip27"><rect x="11" y="8" width="303" height="144"/></clipPath><clipPath id="clip28"><rect x="0" y="0" width="1156" height="556"/></clipPath></defs><g clip-path="url(#clip8)" transform="translate(-698 -1037)"><g clip-path="url(#clip9)"><g clip-path="url(#clip10)" filter="url(#fx0)" transform="translate(1802 1042)"><g clip-path="url(#clip11)"><rect x="24.2225" y="24.2225" width="934" height="299" stroke="#3C1F4E" stroke-width="9" stroke-miterlimit="8" fill="#CAACDD"/></g></g><g clip-path="url(#clip12)" filter="url(#fx1)" transform="translate(1734 1036)"><g clip-path="url(#clip13)"><path d="M15.4629-8.30273 67.3359-8.30273 67.3359 0 3.80859 0 3.80859-8.30273 52.1016-72.8203 6.93164-72.8203 6.93164-80.8184 64.8223-80.8184 64.8223-74.4199ZM91.7604-11.8828 91.4557-11.8828 91.4557 30.9258 81.6296 30.9258 81.6296-80.8184 90.8464-80.8184 90.8464-67.5644 91.2272-67.6406C94.8327-72.9726 98.9079-76.8066 103.453-79.1426 107.998-81.4785 113.089-82.6465 118.725-82.6465 125.479-82.6465 131.332-80.8564 136.283-77.2764 141.234-73.6963 145.017-68.7578 147.632-62.4609 150.248-56.1641 151.555-49.0547 151.555-41.1328 151.555-32.5508 150.21-25.0225 147.518-18.5478 144.827-12.0732 140.955-7.0459 135.902-3.46582 130.849 0.114258 124.895 1.9043 118.04 1.9043 112.2 1.9043 107.173 0.825195 102.958-1.33301 98.7428-3.49121 95.0104-7.00781 91.7604-11.8828ZM117.278-74.3437C111.59-74.3437 106.779-72.833 102.843-69.8115 98.9079-66.79 95.9499-62.626 93.9694-57.3193 91.9889-52.0127 90.9987-45.9316 90.9987-39.0762 90.9987-32.2715 92.0778-26.4062 94.236-21.4805 96.3942-16.5547 99.4157-12.8096 103.3-10.2451 107.185-7.68066 111.717-6.39844 116.897-6.39844 121.874-6.39844 126.215-7.80762 129.923-10.626 133.63-13.4443 136.473-17.4561 138.454-22.6611 140.434-27.8662 141.424-33.9727 141.424-40.9805 141.424-47.6328 140.434-53.4853 138.454-58.5381 136.473-63.5908 133.655-67.4883 129.999-70.2305 126.342-72.9726 122.102-74.3437 117.278-74.3437ZM200.285-6.39844C205.718-6.39844 210.428-7.8584 214.414-10.7783 218.401-13.6982 221.283-17.748 223.06-22.9277L232.734-21.4043C230.144-13.8379 225.98-8.06152 220.242-4.07519 214.503-0.0888673 207.622 1.9043 199.599 1.9043 192.185 1.9043 185.748 0.203125 180.289-3.19922 174.83-6.60156 170.628-11.4512 167.683-17.748 164.738-24.0449 163.265-31.3828 163.265-39.7617 163.265-48.5469 164.75-56.1641 167.721-62.6133 170.692-69.0625 174.894-74.0137 180.327-77.4668 185.761-80.9199 192.134-82.6465 199.447-82.6465 207.572-82.6465 214.237-80.7422 219.442-76.9336 224.647-73.125 228.443-67.9199 230.829-61.3184 233.216-54.7168 234.409-47.125 234.409-38.543L173.396-38.543C173.599-31.8906 174.83-26.1396 177.09-21.29 179.35-16.4404 182.473-12.7461 186.459-10.207 190.446-7.66797 195.054-6.39844 200.285-6.39844ZM199.294-74.4199C194.622-74.4199 190.458-73.3281 186.802-71.1445 183.146-68.9609 180.188-65.7998 177.928-61.6611 175.668-57.5225 174.259-52.5586 173.701-46.7695L224.279-46.7695C223.365-55.9101 220.8-62.8037 216.585-67.4502 212.37-72.0967 206.607-74.4199 199.294-74.4199ZM190.077-111.668 200.665-97.6523 211.253-111.668 221.308-111.668 206.302-91.4062 195.029-91.4062 180.023-111.668ZM279.814-80.8184 279.814-72.8203 264.579-72.8203 264.579-19.8047C264.579-16.3516 264.871-13.749 265.455-11.9971 266.039-10.2451 266.953-9.07715 268.198-8.49316 269.442-7.90918 271.181-7.61719 273.415-7.61719 275.701-7.61719 277.986-7.94726 280.271-8.60742L281.642-0.152344C277.326 0.558594 274.025 0.914062 271.74 0.914062 266.966 0.914062 263.361 0.177734 260.923-1.29492 258.486-2.76758 256.848-5.01465 256.01-8.03613 255.172-11.0576 254.753-15.2598 254.753-20.6426L254.753-72.8203 243.175-72.8203 243.175-80.8184 254.753-80.8184 254.753-100.166 264.579-107.174 264.579-80.8184ZM348.687-53.9297C348.687-60.4297 347.037-65.4189 343.736-68.8975 340.435-72.376 335.687-74.1152 329.492-74.1152 324.82-74.1152 320.643-72.96 316.962-70.6494 313.28-68.3389 310.475-65.2285 308.545-61.3184 306.666-57.6113 305.727-52.2285 305.727-45.1699L305.727 0 295.9 0 295.9-80.8184 305.117-80.8184 305.117-67.9453C307.859-72.6172 311.465-76.2353 315.934-78.7998 320.402-81.3643 325.353-82.6465 330.787-82.6465 339.623-82.6465 346.453-80.2725 351.277-75.5244 356.102-70.7764 358.514-64.0351 358.514-55.3008L358.514 0 348.687 0ZM442.769 0 432.638 0C431.267-3.25 430.404-7.3125 430.048-12.1875L429.82-12.2637C426.163-7.49023 422.037-3.93555 417.442-1.59961 412.846 0.736328 407.374 1.9043 401.027 1.9043 396.101 1.9043 391.784 0.952148 388.077-0.952148 384.37-2.85644 381.501-5.50976 379.47-8.91211 377.439-12.3145 376.423-16.1992 376.423-20.5664 376.423-25.2383 377.413-29.2119 379.394-32.4873 381.374-35.7627 384.548-38.4795 388.915-40.6377 393.283-42.7959 399.046-44.4082 406.206-45.4746 416.82-47.0488 424.538-48.75 429.363-50.5781L429.363-53.5488C429.363-58.5762 428.804-62.5752 427.687-65.5459 426.57-68.5166 424.551-70.7256 421.631-72.1728 418.711-73.6201 414.56-74.3437 409.177-74.3437 397.497-74.3437 390.49-69.0625 388.154-58.5L378.48-59.8711C380.105-67.3359 383.558-72.998 388.839-76.8574 394.12-80.7168 401.103-82.6465 409.786-82.6465 416.49-82.6465 421.987-81.7578 426.278-79.9805 430.569-78.2031 433.793-75.3213 435.951-71.335 438.11-67.3486 439.189-62.0293 439.189-55.3769L439.189-25.0605C439.189-18.1035 439.43-12.9873 439.912-9.71191 440.395-6.43652 441.347-3.19922 442.769 0ZM405.292-36.9434C398.589-35.6738 393.79-33.7441 390.896-31.1543 388.001-28.5644 386.554-25.0352 386.554-20.5664 386.554-16.0469 388.039-12.5049 391.01-9.94043 393.981-7.37598 398.158-6.09375 403.54-6.09375 405.521-6.09375 407.793-6.47461 410.358-7.23633 412.922-7.99805 415.36-9.06445 417.67-10.4355 419.981-11.8066 421.822-13.3301 423.193-15.0059 424.97-17.1895 426.265-19.0811 427.077-20.6807 427.89-22.2803 428.474-24.4258 428.829-27.1172 429.185-29.8086 429.363-33.668 429.363-38.6953L429.363-42.8848C427.992-42.2246 425.249-41.374 421.136-40.333 417.023-39.292 411.742-38.1621 405.292-36.9434ZM400.722-91.4062 412.376-111.668 425.706-111.668 408.568-91.4062ZM555.779-80.8184 565.909-80.8184 534.222 0 525.538 0 493.851-80.8184 503.982-80.8184 529.88-11.7305ZM640.998 0 630.867 0C629.496-3.25 628.633-7.3125 628.277-12.1875L628.049-12.2637C624.393-7.49023 620.267-3.93555 615.671-1.59961 611.075 0.736328 605.604 1.9043 599.256 1.9043 594.33 1.9043 590.014 0.952148 586.307-0.952148 582.6-2.85644 579.73-5.50976 577.699-8.91211 575.668-12.3145 574.652-16.1992 574.652-20.5664 574.652-25.2383 575.643-29.2119 577.623-32.4873 579.604-35.7627 582.777-38.4795 587.145-40.6377 591.512-42.7959 597.275-44.4082 604.436-45.4746 615.049-47.0488 622.768-48.75 627.592-50.5781L627.592-53.5488C627.592-58.5762 627.033-62.5752 625.916-65.5459 624.799-68.5166 622.78-70.7256 619.86-72.1728 616.94-73.6201 612.789-74.3437 607.406-74.3437 595.727-74.3437 588.719-69.0625 586.383-58.5L576.709-59.8711C578.334-67.3359 581.787-72.998 587.068-76.8574 592.35-80.7168 599.332-82.6465 608.016-82.6465 614.719-82.6465 620.216-81.7578 624.507-79.9805 628.798-78.2031 632.022-75.3213 634.181-71.335 636.339-67.3486 637.418-62.0293 637.418-55.3769L637.418-25.0605C637.418-18.1035 637.659-12.9873 638.142-9.71191 638.624-6.43652 639.576-3.19922 640.998 0ZM603.521-36.9434C596.818-35.6738 592.02-33.7441 589.125-31.1543 586.23-28.5644 584.783-25.0352 584.783-20.5664 584.783-16.0469 586.269-12.5049 589.239-9.94043 592.21-7.37598 596.387-6.09375 601.77-6.09375 603.75-6.09375 606.022-6.47461 608.587-7.23633 611.151-7.99805 613.589-9.06445 615.899-10.4355 618.21-11.8066 620.051-13.3301 621.422-15.0059 623.199-17.1895 624.494-19.0811 625.307-20.6807 626.119-22.2803 626.703-24.4258 627.059-27.1172 627.414-29.8086 627.592-33.668 627.592-38.6953L627.592-42.8848C626.221-42.2246 623.479-41.374 619.365-40.333 615.252-39.292 609.971-38.1621 603.521-36.9434ZM665.15-8.30273 717.023-8.30273 717.023 0 653.496 0 653.496-8.30273 701.789-72.8203 656.619-72.8203 656.619-80.8184 714.51-80.8184 714.51-74.4199ZM740.686-67.7168 740.991-67.7168C744.596-72.9473 748.595-76.7432 752.988-79.1045 757.38-81.4658 762.217-82.6465 767.499-82.6465 774.659-82.6465 780.765-80.8437 785.818-77.2383 790.871-73.6328 794.705-68.6943 797.32-62.4228 799.935-56.1514 801.243-49.0547 801.243-41.1328 801.243-32.4492 799.897-24.8828 797.206-18.4336 794.514-11.9844 790.642-6.98242 785.59-3.42773 780.537 0.126953 774.583 1.9043 767.727 1.9043 761.938 1.9043 756.847 0.761719 752.455-1.52344 748.062-3.80859 744.241-7.41406 740.991-12.3398L740.686-12.3398 740.686 0 731.317 0 731.317-111.668 740.686-111.668ZM767.042-74.3437C761.202-74.3437 756.301-72.7822 752.341-69.6592 748.38-66.5361 745.447-62.3213 743.543-57.0146 741.638-51.708 740.686-45.7793 740.686-39.2285 740.686-32.373 741.765-26.4824 743.924-21.5566 746.082-16.6309 749.103-12.873 752.988-10.2832 756.873-7.69336 761.405-6.39844 766.585-6.39844 771.256-6.39844 775.459-7.82031 779.191-10.6641 782.923-13.5078 785.869-17.5449 788.027-22.7754 790.185-28.0059 791.264-34.0488 791.264-40.9043 791.264-47.5566 790.236-53.4092 788.179-58.4619 786.123-63.5146 783.266-67.4248 779.61-70.1924 775.954-72.96 771.764-74.3437 767.042-74.3437ZM881.05 0 870.919 0C869.548-3.25 868.685-7.3125 868.329-12.1875L868.101-12.2637C864.445-7.49023 860.319-3.93555 855.723-1.59961 851.127 0.736328 845.656 1.9043 839.308 1.9043 834.382 1.9043 830.066 0.952148 826.359-0.952148 822.652-2.85644 819.783-5.50976 817.751-8.91211 815.72-12.3145 814.704-16.1992 814.704-20.5664 814.704-25.2383 815.695-29.2119 817.675-32.4873 819.656-35.7627 822.829-38.4795 827.197-40.6377 831.564-42.7959 837.328-44.4082 844.488-45.4746 855.101-47.0488 862.82-48.75 867.644-50.5781L867.644-53.5488C867.644-58.5762 867.085-62.5752 865.968-65.5459 864.851-68.5166 862.832-70.7256 859.912-72.1728 856.993-73.6201 852.841-74.3437 847.458-74.3437 835.779-74.3437 828.771-69.0625 826.435-58.5L816.761-59.8711C818.386-67.3359 821.839-72.998 827.12-76.8574 832.402-80.7168 839.384-82.6465 848.068-82.6465 854.771-82.6465 860.268-81.7578 864.559-79.9805 868.85-78.2031 872.075-75.3213 874.233-71.335 876.391-67.3486 877.47-62.0293 877.47-55.3769L877.47-25.0605C877.47-18.1035 877.711-12.9873 878.194-9.71191 878.676-6.43652 879.628-3.19922 881.05 0ZM843.574-36.9434C836.87-35.6738 832.072-33.7441 829.177-31.1543 826.283-28.5644 824.835-25.0352 824.835-20.5664 824.835-16.0469 826.321-12.5049 829.291-9.94043 832.262-7.37598 836.439-6.09375 841.822-6.09375 843.802-6.09375 846.075-6.47461 848.639-7.23633 851.203-7.99805 853.641-9.06445 855.952-10.4355 858.262-11.8066 860.103-13.3301 861.474-15.0059 863.251-17.1895 864.546-19.0811 865.359-20.6807 866.171-22.2803 866.755-24.4258 867.111-27.1172 867.466-29.8086 867.644-33.668 867.644-38.6953L867.644-42.8848C866.273-42.2246 863.531-41.374 859.417-40.333 855.304-39.292 850.023-38.1621 843.574-36.9434Z" fill="#3C1F4E" transform="matrix(1 0 0 1 113.717 219)"/></g></g></g><rect x="1816.5" y="1056.5" width="934" height="299" stroke="#3C1F4E" stroke-width="9.16667" stroke-miterlimit="8" fill="#CAACDD"/><text fill="#3C1F4E" font-family="Arial Nova Light,Arial Nova Light_MSFontService,sans-serif" font-weight="300" font-size="156" transform="matrix(1 0 0 1 1837.99 1245)">zpětná vazba</text><g clip-path="url(#clip14)"><g clip-path="url(#clip15)" filter="url(#fx2)" transform="translate(697 1664)"><g clip-path="url(#clip16)"><rect x="24.2228" y="24.2228" width="794" height="415" stroke="#3C1F4E" stroke-width="9" stroke-miterlimit="8" fill="#CAACDD"/></g></g><g clip-path="url(#clip17)" filter="url(#fx3)" transform="translate(799 1644)"><g clip-path="url(#clip18)"><path d="M63.0703-80.8184 73.2012-80.8184 41.5137 0 32.8301 0 1.14258-80.8184 11.2734-80.8184 37.1719-11.7305ZM109.518-74.3437C106.065-74.3437 102.993-73.8105 100.301-72.7441 97.61-71.6777 95.5153-70.167 94.0173-68.2119 92.5192-66.2568 91.7702-63.959 91.7702-61.3184 91.7702-58.5254 92.3922-56.2275 93.6364-54.4248 94.8805-52.6221 97.0133-51.0986 100.035-49.8545 103.056-48.6103 107.309-47.5059 112.794-46.541 119.649-45.2715 125.146-43.6465 129.285-41.666 133.423-39.6855 136.458-37.1719 138.387-34.125 140.317-31.0781 141.282-27.2949 141.282-22.7754 141.282-18.0527 140.025-13.8252 137.511-10.0928 134.998-6.36035 131.481-3.42773 126.962-1.29492 122.442 0.83789 117.288 1.9043 111.499 1.9043 102.764 1.9043 95.7565-0.0507814 90.4753-3.96094 85.194-7.87109 81.7917-13.6855 80.2682-21.4043L89.9421-22.9277C92.278-11.9082 99.4381-6.39844 111.423-6.39844 115.485-6.39844 119.002-7.0459 121.972-8.34082 124.943-9.63574 127.228-11.4385 128.828-13.749 130.427-16.0596 131.227-18.6875 131.227-21.6328 131.227-24.832 130.44-27.4219 128.866-29.4023 127.292-31.3828 124.829-32.9824 121.477-34.2012 118.126-35.4199 113.505-36.5625 107.614-37.6289 99.0827-39.1016 92.7223-41.6533 88.5329-45.2842 84.3434-48.915 82.2487-53.9297 82.2487-60.3281 82.2487-64.5937 83.3659-68.415 85.6003-71.792 87.8346-75.1689 91.0085-77.8223 95.1217-79.7519 99.235-81.6816 104.034-82.6465 109.518-82.6465 117.339-82.6465 123.75-80.9834 128.752-77.6572 133.754-74.331 137.067-69.4434 138.692-62.9941L129.094-61.623C128.18-65.6855 126.035-68.8213 122.658-71.0303 119.281-73.2393 114.901-74.3437 109.518-74.3437ZM187.574-80.8184 187.574-72.8203 172.34-72.8203 172.34-19.8047C172.34-16.3516 172.632-13.749 173.216-11.9971 173.8-10.2451 174.714-9.07715 175.958-8.49316 177.202-7.90918 178.941-7.61719 181.176-7.61719 183.461-7.61719 185.746-7.94726 188.031-8.60742L189.402-0.152344C185.086 0.558594 181.785 0.914062 179.5 0.914062 174.727 0.914062 171.121 0.177734 168.684-1.29492 166.246-2.76758 164.608-5.01465 163.771-8.03613 162.933-11.0576 162.514-15.2598 162.514-20.6426L162.514-72.8203 150.936-72.8203 150.936-80.8184 162.514-80.8184 162.514-100.166 172.34-107.174 172.34-80.8184ZM231.844-6.70312C239.512-6.70312 245.466-9.19141 249.707-14.168 253.947-19.1445 256.067-26.3047 256.067-35.6484L256.067-80.8184 265.893-80.8184 265.893 0 256.676 0 256.676-12.9492C253.883-8.22656 250.24-4.57031 245.746-1.98047 241.252 0.609375 236.313 1.9043 230.93 1.9043 222.044 1.9043 215.226-0.495117 210.478-5.29394 205.73-10.0928 203.356-16.834 203.356-25.5176L203.356-80.8184 213.182-80.8184 213.182-26.8125C213.182-20.3633 214.744-15.3994 217.867-11.9209 220.99-8.44238 225.649-6.70312 231.844-6.70312ZM297.438-11.8828 297.133-11.8828 297.133 30.9258 287.307 30.9258 287.307-80.8184 296.523-80.8184 296.523-67.5644 296.904-67.6406C300.51-72.9726 304.585-76.8066 309.13-79.1426 313.675-81.4785 318.766-82.6465 324.402-82.6465 331.156-82.6465 337.009-80.8564 341.96-77.2764 346.911-73.6963 350.694-68.7578 353.31-62.4609 355.925-56.1641 357.232-49.0547 357.232-41.1328 357.232-32.5508 355.887-25.0225 353.195-18.5478 350.504-12.0732 346.632-7.0459 341.579-3.46582 336.526 0.114258 330.572 1.9043 323.717 1.9043 317.877 1.9043 312.85 0.825195 308.635-1.33301 304.42-3.49121 300.688-7.00781 297.438-11.8828ZM322.955-74.3437C317.268-74.3437 312.456-72.833 308.521-69.8115 304.585-66.79 301.627-62.626 299.646-57.3193 297.666-52.0127 296.676-45.9316 296.676-39.0762 296.676-32.2715 297.755-26.4062 299.913-21.4805 302.071-16.5547 305.093-12.8096 308.978-10.2451 312.862-7.68066 317.395-6.39844 322.574-6.39844 327.551-6.39844 331.893-7.80762 335.6-10.626 339.307-13.4443 342.15-17.4561 344.131-22.6611 346.111-27.8662 347.102-33.9727 347.102-40.9805 347.102-47.6328 346.111-53.4853 344.131-58.5381 342.15-63.5908 339.332-67.4883 335.676-70.2305 332.02-72.9726 327.779-74.3437 322.955-74.3437Z" fill="#3C1F4E" transform="matrix(1 0 0 1 137.018 219)"/><path d="M15.4629-8.30273 67.3359-8.30273 67.3359 0 3.80859 0 3.80859-8.30273 52.1016-72.8203 6.93164-72.8203 6.93164-80.8184 64.8223-80.8184 64.8223-74.4199ZM146.68 0 137.464 0 137.464-12.7207 137.159-12.7207C134.467-8.09961 130.938-4.50684 126.571-1.94238 122.204 0.62207 117.202 1.9043 111.565 1.9043 104.76 1.9043 98.7301 0.139648 93.4743-3.38965 88.2184-6.91894 84.1178-11.8828 81.1725-18.2812 78.2272-24.6797 76.7546-32.043 76.7546-40.3711 76.7546-48.8008 78.1891-56.2148 81.0583-62.6133 83.9274-69.0117 87.9518-73.9502 93.1315-77.4287 98.3112-80.9072 104.303-82.6465 111.108-82.6465 122.128-82.6465 130.557-78.0762 136.397-68.9355L136.854-68.9355 136.854-111.668 146.68-111.668ZM111.87-74.3437C106.842-74.3437 102.424-72.8838 98.6159-69.9639 94.8073-67.0439 91.9001-63.0195 89.8942-57.8906 87.8883-52.7617 86.8854-46.8965 86.8854-40.2949 86.8854-33.4902 87.9518-27.5234 90.0846-22.3945 92.2174-17.2656 95.1881-13.3174 98.9967-10.5498 102.805-7.78223 107.122-6.39844 111.946-6.39844 117.278-6.39844 121.861-7.74414 125.695-10.4355 129.529-13.127 132.474-16.9863 134.531-22.0137 136.588-27.041 137.616-32.9824 137.616-39.8379 137.616-46.9473 136.549-53.0918 134.417-58.2715 132.284-63.4512 129.288-67.4248 125.428-70.1924 121.569-72.96 117.049-74.3437 111.87-74.3437ZM197.161-72.8203C193.048-72.8203 189.544-71.5762 186.65-69.0879 183.755-66.5996 181.584-63.1338 180.137-58.6904 178.69-54.2471 177.966-49.1055 177.966-43.2656L177.966 0 168.14 0 168.14-80.8184 177.357-80.8184 177.357-67.9453 177.509-68.0215C180.048-72.998 182.892-76.6797 186.04-79.0664 189.189-81.4531 193.048-82.6465 197.618-82.6465 199.802-82.6465 201.833-82.4053 203.712-81.9228 205.591-81.4404 207.724-80.5898 210.111-79.3711L206.835-70.2305C203.281-71.957 200.056-72.8203 197.161-72.8203ZM215.973-40.3711C215.973-49.4102 217.497-57.1035 220.544-63.4512 223.59-69.7988 227.831-74.585 233.264-77.8096 238.698-81.0342 244.995-82.6465 252.155-82.6465 259.417-82.6465 265.777-81.0342 271.236-77.8096 276.695-74.585 280.935-69.8115 283.957-63.4893 286.978-57.167 288.489-49.5117 288.489-40.5234 288.489-31.5352 286.991-23.8545 283.995-17.4814 280.999-11.1084 276.771-6.28418 271.312-3.00879 265.853 0.266601 259.467 1.9043 252.155 1.9043 244.995 1.9043 238.685 0.279297 233.226-2.9707 227.767-6.2207 223.527-11.0449 220.506-17.4434 217.484-23.8418 215.973-31.4844 215.973-40.3711ZM252.003-74.3437C246.975-74.3437 242.519-73.0742 238.634-70.5351 234.75-67.9961 231.69-64.1748 229.456-59.0713 227.221-53.9678 226.104-47.7344 226.104-40.3711 226.104-32.9062 227.209-26.6348 229.418-21.5566 231.627-16.4785 234.673-12.6826 238.558-10.1689 242.443-7.65527 246.975-6.39844 252.155-6.39844 257.284-6.39844 261.816-7.65527 265.752-10.1689 269.687-12.6826 272.772-16.4912 275.007-21.5947 277.241-26.6982 278.358-33.0078 278.358-40.5234 278.358-47.7344 277.254-53.8662 275.045-58.9189 272.836-63.9717 269.751-67.8057 265.79-70.4209 261.829-73.0361 257.233-74.3437 252.003-74.3437ZM315.579-97.3476 305.753-97.3476 305.753-111.668 315.579-111.668ZM315.579 8.60742C315.579 14.1934 315.033 18.7383 313.941 22.2422 312.849 25.7461 311.034 28.374 308.495 30.126 305.956 31.8779 302.528 32.7539 298.212 32.7539 296.79 32.7539 295.228 32.6143 293.527 32.335 291.826 32.0557 290.188 31.6367 288.614 31.0781L290.442 22.7754C292.27 23.3848 294.251 23.6895 296.383 23.6895 298.973 23.6895 300.928 23.2832 302.249 22.4707 303.569 21.6582 304.483 20.1982 304.991 18.0908 305.499 15.9834 305.753 12.7969 305.753 8.53125L305.753-80.8184 315.579-80.8184ZM364.761-6.70312C372.429-6.70312 378.383-9.19141 382.623-14.168 386.864-19.1445 388.984-26.3047 388.984-35.6484L388.984-80.8184 398.81-80.8184 398.81 0 389.593 0 389.593-12.9492C386.8-8.22656 383.157-4.57031 378.662-1.98047 374.168 0.609375 369.23 1.9043 363.847 1.9043 354.96 1.9043 348.143-0.495117 343.395-5.29394 338.647-10.0928 336.273-16.834 336.273-25.5176L336.273-80.8184 346.099-80.8184 346.099-26.8125C346.099-20.3633 347.66-15.3994 350.784-11.9209 353.907-8.44238 358.566-6.70312 364.761-6.70312ZM367.122-115.248C369.611-115.248 371.896-114.639 373.978-113.42 376.06-112.201 377.71-110.551 378.929-108.469 380.148-106.387 380.757-104.102 380.757-101.613 380.757-99.125 380.148-96.8398 378.929-94.7578 377.71-92.6758 376.06-91.0254 373.978-89.8066 371.896-88.5879 369.611-87.9785 367.122-87.9785 364.634-87.9785 362.349-88.5879 360.267-89.8066 358.185-91.0254 356.534-92.6758 355.316-94.7578 354.097-96.8398 353.488-99.125 353.488-101.613 353.488-104.102 354.097-106.387 355.316-108.469 356.534-110.551 358.185-112.201 360.267-113.42 362.349-114.639 364.634-115.248 367.122-115.248ZM367.122-92.9297C369.509-92.9297 371.553-93.7803 373.254-95.4814 374.955-97.1826 375.806-99.2266 375.806-101.613 375.806-104 374.955-106.044 373.254-107.745 371.553-109.446 369.509-110.297 367.122-110.297 364.786-110.297 362.755-109.446 361.029-107.745 359.302-106.044 358.439-104 358.439-101.613 358.439-99.2266 359.289-97.1826 360.991-95.4814 362.692-93.7803 364.736-92.9297 367.122-92.9297Z" fill="#3C1F4E" transform="matrix(1 0 0 1 113.804 407)"/></g></g></g><rect x="711.5" y="1678.5" width="794" height="415" stroke="#3C1F4E" stroke-width="9.16667" stroke-miterlimit="8" fill="#CAACDD"/><text fill="#3C1F4E" font-family="Arial Nova Light,Arial Nova Light_MSFontService,sans-serif" font-weight="300" font-size="156" transform="matrix(1 0 0 1 926.296 1854)">vstup <tspan font-size="156" x="-23.2146" y="188">zdrojů</tspan></text><g clip-path="url(#clip19)"><g clip-path="url(#clip20)" filter="url(#fx4)" transform="translate(3054 1664)"><g clip-path="url(#clip21)"><rect x="24.2229" y="24.2228" width="820" height="415" stroke="#3C1F4E" stroke-width="9" stroke-miterlimit="8" fill="#CAACDD"/></g></g><g clip-path="url(#clip22)" filter="url(#fx5)" transform="translate(3155 1644)"><g clip-path="url(#clip23)"><path d="M63.0703-80.8184 73.2012-80.8184 41.5137 0 32.8301 0 1.14258-80.8184 11.2734-80.8184 37.1719-11.7305ZM111.27-11.1973 111.575-11.1973C113.098-16.377 115.587-23.6894 119.04-33.1348L136.635-80.8184 146.309-80.8184 111.575 11.8066C109.544 17.1895 107.487 21.3916 105.405 24.4131 103.323 27.4346 101.05 29.5801 98.5876 30.8496 96.1247 32.1191 93.192 32.7539 89.7897 32.7539 86.4381 32.7539 83.1881 32.3477 80.0397 31.5352L82.0964 23.2324C83.0104 23.5371 84.0641 23.7656 85.2575 23.918 86.4508 24.0703 87.5299 24.1465 88.4948 24.1465 91.0846 24.1465 93.192 23.7148 94.8171 22.8516 96.442 21.9883 97.8766 20.5156 99.1208 18.4336 100.365 16.3516 101.723 13.3301 103.196 9.36914L106.395 0.457031 76.0026-80.8184 86.4381-80.8184 103.729-33.7441C106.522-26.0762 109.036-18.5605 111.27-11.1973ZM105.481-91.4062 117.135-111.668 130.465-111.668 113.327-91.4062ZM182.852-74.3437C179.398-74.3437 176.326-73.8105 173.635-72.7441 170.943-71.6777 168.849-70.167 167.351-68.2119 165.853-66.2568 165.104-63.959 165.104-61.3184 165.104-58.5254 165.726-56.2275 166.97-54.4248 168.214-52.6221 170.347-51.0986 173.368-49.8545 176.39-48.6103 180.643-47.5059 186.127-46.541 192.982-45.2715 198.479-43.6465 202.618-41.666 206.757-39.6855 209.791-37.1719 211.721-34.125 213.65-31.0781 214.615-27.2949 214.615-22.7754 214.615-18.0527 213.358-13.8252 210.845-10.0928 208.331-6.36035 204.814-3.42773 200.295-1.29492 195.775 0.83789 190.621 1.9043 184.832 1.9043 176.098 1.9043 169.09-0.0507814 163.809-3.96094 158.527-7.87109 155.125-13.6855 153.602-21.4043L163.275-22.9277C165.611-11.9082 172.771-6.39844 184.756-6.39844 188.818-6.39844 192.335-7.0459 195.306-8.34082 198.276-9.63574 200.562-11.4385 202.161-13.749 203.761-16.0596 204.561-18.6875 204.561-21.6328 204.561-24.832 203.773-27.4219 202.199-29.4023 200.625-31.3828 198.162-32.9824 194.811-34.2012 191.459-35.4199 186.838-36.5625 180.947-37.6289 172.416-39.1016 166.056-41.6533 161.866-45.2842 157.677-48.915 155.582-53.9297 155.582-60.3281 155.582-64.5937 156.699-68.415 158.934-71.792 161.168-75.1689 164.342-77.8223 168.455-79.7519 172.568-81.6816 177.367-82.6465 182.852-82.6465 190.672-82.6465 197.083-80.9834 202.085-77.6572 207.087-74.331 210.4-69.4434 212.025-62.9941L202.428-61.623C201.514-65.6855 199.368-68.8213 195.991-71.0303 192.614-73.2393 188.234-74.3437 182.852-74.3437ZM260.908-80.8184 260.908-72.8203 245.673-72.8203 245.673-19.8047C245.673-16.3516 245.965-13.749 246.549-11.9971 247.133-10.2451 248.047-9.07715 249.291-8.49316 250.535-7.90918 252.275-7.61719 254.509-7.61719 256.794-7.61719 259.079-7.94726 261.365-8.60742L262.736-0.152344C258.419 0.558594 255.118 0.914062 252.833 0.914062 248.06 0.914062 244.454 0.177734 242.017-1.29492 239.579-2.76758 237.942-5.01465 237.104-8.03613 236.266-11.0576 235.847-15.2598 235.847-20.6426L235.847-72.8203 224.269-72.8203 224.269-80.8184 235.847-80.8184 235.847-100.166 245.673-107.174 245.673-80.8184ZM305.178-6.70312C312.846-6.70312 318.8-9.19141 323.04-14.168 327.28-19.1445 329.4-26.3047 329.4-35.6484L329.4-80.8184 339.227-80.8184 339.227 0 330.01 0 330.01-12.9492C327.217-8.22656 323.573-4.57031 319.079-1.98047 314.585 0.609375 309.646 1.9043 304.264 1.9043 295.377 1.9043 288.56-0.495117 283.812-5.29394 279.063-10.0928 276.689-16.834 276.689-25.5176L276.689-80.8184 286.516-80.8184 286.516-26.8125C286.516-20.3633 288.077-15.3994 291.2-11.9209 294.323-8.44238 298.982-6.70312 305.178-6.70312ZM370.771-11.8828 370.466-11.8828 370.466 30.9258 360.64 30.9258 360.64-80.8184 369.857-80.8184 369.857-67.5644 370.238-67.6406C373.843-72.9726 377.918-76.8066 382.463-79.1426 387.008-81.4785 392.099-82.6465 397.736-82.6465 404.49-82.6465 410.342-80.8564 415.293-77.2764 420.244-73.6963 424.028-68.7578 426.643-62.4609 429.258-56.1641 430.566-49.0547 430.566-41.1328 430.566-32.5508 429.22-25.0225 426.529-18.5478 423.837-12.0732 419.965-7.0459 414.912-3.46582 409.86 0.114258 403.906 1.9043 397.05 1.9043 391.21 1.9043 386.183 0.825195 381.968-1.33301 377.753-3.49121 374.021-7.00781 370.771-11.8828ZM396.288-74.3437C390.601-74.3437 385.789-72.833 381.854-69.8115 377.918-66.79 374.96-62.626 372.98-57.3193 370.999-52.0127 370.009-45.9316 370.009-39.0762 370.009-32.2715 371.088-26.4062 373.246-21.4805 375.405-16.5547 378.426-12.8096 382.311-10.2451 386.196-7.68066 390.728-6.39844 395.908-6.39844 400.884-6.39844 405.226-7.80762 408.933-10.626 412.64-13.4443 415.484-17.4561 417.464-22.6611 419.445-27.8662 420.435-33.9727 420.435-40.9805 420.435-47.6328 419.445-53.4853 417.464-58.5381 415.484-63.5908 412.665-67.4883 409.009-70.2305 405.353-72.9726 401.113-74.3437 396.288-74.3437Z" fill="#3C1F4E" transform="matrix(1 0 0 1 114.482 219)"/><path d="M15.4629-8.30273 67.3359-8.30273 67.3359 0 3.80859 0 3.80859-8.30273 52.1016-72.8203 6.93164-72.8203 6.93164-80.8184 64.8223-80.8184 64.8223-74.4199ZM146.68 0 137.464 0 137.464-12.7207 137.159-12.7207C134.467-8.09961 130.938-4.50684 126.571-1.94238 122.204 0.62207 117.202 1.9043 111.565 1.9043 104.76 1.9043 98.7301 0.139648 93.4743-3.38965 88.2184-6.91894 84.1178-11.8828 81.1725-18.2812 78.2272-24.6797 76.7546-32.043 76.7546-40.3711 76.7546-48.8008 78.1891-56.2148 81.0583-62.6133 83.9274-69.0117 87.9518-73.9502 93.1315-77.4287 98.3112-80.9072 104.303-82.6465 111.108-82.6465 122.128-82.6465 130.557-78.0762 136.397-68.9355L136.854-68.9355 136.854-111.668 146.68-111.668ZM111.87-74.3437C106.842-74.3437 102.424-72.8838 98.6159-69.9639 94.8073-67.0439 91.9001-63.0195 89.8942-57.8906 87.8883-52.7617 86.8854-46.8965 86.8854-40.2949 86.8854-33.4902 87.9518-27.5234 90.0846-22.3945 92.2174-17.2656 95.1881-13.3174 98.9967-10.5498 102.805-7.78223 107.122-6.39844 111.946-6.39844 117.278-6.39844 121.861-7.74414 125.695-10.4355 129.529-13.127 132.474-16.9863 134.531-22.0137 136.588-27.041 137.616-32.9824 137.616-39.8379 137.616-46.9473 136.549-53.0918 134.417-58.2715 132.284-63.4512 129.288-67.4248 125.428-70.1924 121.569-72.96 117.049-74.3437 111.87-74.3437ZM197.161-72.8203C193.048-72.8203 189.544-71.5762 186.65-69.0879 183.755-66.5996 181.584-63.1338 180.137-58.6904 178.69-54.2471 177.966-49.1055 177.966-43.2656L177.966 0 168.14 0 168.14-80.8184 177.357-80.8184 177.357-67.9453 177.509-68.0215C180.048-72.998 182.892-76.6797 186.04-79.0664 189.189-81.4531 193.048-82.6465 197.618-82.6465 199.802-82.6465 201.833-82.4053 203.712-81.9228 205.591-81.4404 207.724-80.5898 210.111-79.3711L206.835-70.2305C203.281-71.957 200.056-72.8203 197.161-72.8203ZM215.973-40.3711C215.973-49.4102 217.497-57.1035 220.544-63.4512 223.59-69.7988 227.831-74.585 233.264-77.8096 238.698-81.0342 244.995-82.6465 252.155-82.6465 259.417-82.6465 265.777-81.0342 271.236-77.8096 276.695-74.585 280.935-69.8115 283.957-63.4893 286.978-57.167 288.489-49.5117 288.489-40.5234 288.489-31.5352 286.991-23.8545 283.995-17.4814 280.999-11.1084 276.771-6.28418 271.312-3.00879 265.853 0.266601 259.467 1.9043 252.155 1.9043 244.995 1.9043 238.685 0.279297 233.226-2.9707 227.767-6.2207 223.527-11.0449 220.506-17.4434 217.484-23.8418 215.973-31.4844 215.973-40.3711ZM252.003-74.3437C246.975-74.3437 242.519-73.0742 238.634-70.5351 234.75-67.9961 231.69-64.1748 229.456-59.0713 227.221-53.9678 226.104-47.7344 226.104-40.3711 226.104-32.9062 227.209-26.6348 229.418-21.5566 231.627-16.4785 234.673-12.6826 238.558-10.1689 242.443-7.65527 246.975-6.39844 252.155-6.39844 257.284-6.39844 261.816-7.65527 265.752-10.1689 269.687-12.6826 272.772-16.4912 275.007-21.5947 277.241-26.6982 278.358-33.0078 278.358-40.5234 278.358-47.7344 277.254-53.8662 275.045-58.9189 272.836-63.9717 269.751-67.8057 265.79-70.4209 261.829-73.0361 257.233-74.3437 252.003-74.3437ZM315.579-97.3476 305.753-97.3476 305.753-111.668 315.579-111.668ZM315.579 8.60742C315.579 14.1934 315.033 18.7383 313.941 22.2422 312.849 25.7461 311.034 28.374 308.495 30.126 305.956 31.8779 302.528 32.7539 298.212 32.7539 296.79 32.7539 295.228 32.6143 293.527 32.335 291.826 32.0557 290.188 31.6367 288.614 31.0781L290.442 22.7754C292.27 23.3848 294.251 23.6895 296.383 23.6895 298.973 23.6895 300.928 23.2832 302.249 22.4707 303.569 21.6582 304.483 20.1982 304.991 18.0908 305.499 15.9834 305.753 12.7969 305.753 8.53125L305.753-80.8184 315.579-80.8184ZM364.761-6.70312C372.429-6.70312 378.383-9.19141 382.623-14.168 386.864-19.1445 388.984-26.3047 388.984-35.6484L388.984-80.8184 398.81-80.8184 398.81 0 389.593 0 389.593-12.9492C386.8-8.22656 383.157-4.57031 378.662-1.98047 374.168 0.609375 369.23 1.9043 363.847 1.9043 354.96 1.9043 348.143-0.495117 343.395-5.29394 338.647-10.0928 336.273-16.834 336.273-25.5176L336.273-80.8184 346.099-80.8184 346.099-26.8125C346.099-20.3633 347.66-15.3994 350.784-11.9209 353.907-8.44238 358.566-6.70312 364.761-6.70312ZM367.122-115.248C369.611-115.248 371.896-114.639 373.978-113.42 376.06-112.201 377.71-110.551 378.929-108.469 380.148-106.387 380.757-104.102 380.757-101.613 380.757-99.125 380.148-96.8398 378.929-94.7578 377.71-92.6758 376.06-91.0254 373.978-89.8066 371.896-88.5879 369.611-87.9785 367.122-87.9785 364.634-87.9785 362.349-88.5879 360.267-89.8066 358.185-91.0254 356.534-92.6758 355.316-94.7578 354.097-96.8398 353.488-99.125 353.488-101.613 353.488-104.102 354.097-106.387 355.316-108.469 356.534-110.551 358.185-112.201 360.267-113.42 362.349-114.639 364.634-115.248 367.122-115.248ZM367.122-92.9297C369.509-92.9297 371.553-93.7803 373.254-95.4814 374.955-97.1826 375.806-99.2266 375.806-101.613 375.806-104 374.955-106.044 373.254-107.745 371.553-109.446 369.509-110.297 367.122-110.297 364.786-110.297 362.755-109.446 361.029-107.745 359.302-106.044 358.439-104 358.439-101.613 358.439-99.2266 359.289-97.1826 360.991-95.4814 362.692-93.7803 364.736-92.9297 367.122-92.9297Z" fill="#3C1F4E" transform="matrix(1 0 0 1 127.957 407)"/></g></g></g><rect x="3068.5" y="1678.5" width="820" height="415" stroke="#3C1F4E" stroke-width="9.16667" stroke-miterlimit="8" fill="#CAACDD"/><text fill="#3C1F4E" font-family="Arial Nova Light,Arial Nova Light_MSFontService,sans-serif" font-weight="300" font-size="156" transform="matrix(1 0 0 1 3259.76 1854)">výstup <tspan font-size="156" x="13.4749" y="188">zdrojů</tspan></text><path d="M1713.08 1170.43 1722.94 1824.99C1722.98 1827.53 1720.96 1829.61 1718.43 1829.65 1715.9 1829.68 1713.81 1827.66 1713.77 1825.13L1703.92 1170.57C1703.88 1168.04 1705.9 1165.96 1708.43 1165.92 1710.96 1165.88 1713.04 1167.9 1713.08 1170.43ZM1744.69 1785.63 1718.5 1834.5 1690.85 1786.45C1689.59 1784.25 1690.34 1781.45 1692.54 1780.19 1694.73 1778.92 1697.53 1779.68 1698.8 1781.87L1722.33 1822.77 1714.32 1822.89 1736.61 1781.3C1737.81 1779.07 1740.58 1778.23 1742.82 1779.43 1745.05 1780.63 1745.89 1783.4 1744.69 1785.63Z" fill="#3E4247"/><path d="M1708.5 1170.5 1813.5 1170.5" stroke="#3E4247" stroke-width="9.16667" stroke-linejoin="round" stroke-miterlimit="10" fill="none" fill-rule="evenodd"/><path d="M2864.5 1174.08 2762.94 1174.08 2762.94 1164.92 2864.5 1164.92ZM2801.97 1196.42 2753.5 1169.5 2801.97 1142.58C2804.18 1141.35 2806.97 1142.14 2808.2 1144.36 2809.43 1146.57 2808.63 1149.36 2806.42 1150.59L2765.17 1173.51 2765.17 1165.49 2806.42 1188.41C2808.63 1189.64 2809.43 1192.43 2808.2 1194.64 2806.97 1196.85 2804.18 1197.65 2801.97 1196.42Z" fill="#3E4247"/><path d="M2864.5 1169.5 2864.5 1834.5" stroke="#3E4247" stroke-width="9.16667" stroke-linecap="round" stroke-linejoin="round" stroke-miterlimit="10" fill="none" fill-rule="evenodd"/><path d="M0.0138006-4.58331 322.573-3.61207 322.545 5.55456-0.0138006 4.58331ZM283.616-26.0694 331.996 0.999661 283.453 27.7768C281.237 28.9995 278.449 28.1938 277.226 25.9774 276.004 23.7609 276.809 20.973 279.026 19.7504L320.345-3.042 320.321 4.97108 279.14-18.0697C276.931-19.3057 276.142-22.0984 277.378-24.3074 278.614-26.5165 281.407-27.3053 283.616-26.0694Z" fill="#3E4247" transform="matrix(1 0 0 -1 1497.5 1835.5)"/><path d="M3.51934e-06-4.58333 460.558-4.58298 460.558 4.58369-3.51934e-06 4.58333ZM421.534-26.9229 469.996 0.000359273 421.534 26.9235C419.321 28.1529 416.531 27.3556 415.302 25.1428 414.072 22.9301 414.87 20.1397 417.082 18.9104L458.332-4.0062 458.332 4.00691 417.082-18.9098C414.87-20.1391 414.072-22.9295 415.302-25.1422 416.531-27.355 419.321-28.1522 421.534-26.9229Z" fill="#3E4247" transform="matrix(1 0 0 -1 2616.5 1834.5)"/><g clip-path="url(#clip24)"><g clip-path="url(#clip25)" filter="url(#fx6)" transform="translate(1815 1672)"><g clip-path="url(#clip26)"><rect x="24.2227" y="24.2227" width="924" height="415" stroke="#3C1F4E" stroke-width="9" stroke-miterlimit="8" fill="#CAACDD"/></g></g><g clip-path="url(#clip27)" filter="url(#fx7)" transform="translate(1744 1652)"><g clip-path="url(#clip28)"><path d="M39.7617-80.8184 39.7617-72.8203 24.5273-72.8203 24.5273-19.8047C24.5273-16.3516 24.8193-13.749 25.4033-11.9971 25.9873-10.2451 26.9014-9.07715 28.1455-8.49316 29.3896-7.90918 31.1289-7.61719 33.3633-7.61719 35.6484-7.61719 37.9336-7.94726 40.2187-8.60742L41.5898-0.152344C37.2734 0.558594 33.9727 0.914062 31.6875 0.914062 26.9141 0.914062 23.3086 0.177734 20.8711-1.29492 18.4336-2.76758 16.7959-5.01465 15.958-8.03613 15.1201-11.0576 14.7012-15.2598 14.7012-20.6426L14.7012-72.8203 3.12305-72.8203 3.12305-80.8184 14.7012-80.8184 14.7012-100.166 24.5273-107.174 24.5273-80.8184ZM84.8698-72.8203C80.7565-72.8203 77.2526-71.5762 74.3581-69.0879 71.4635-66.5996 69.2926-63.1338 67.8454-58.6904 66.3981-54.2471 65.6745-49.1055 65.6745-43.2656L65.6745 0 55.8483 0 55.8483-80.8184 65.0651-80.8184 65.0651-67.9453 65.2174-68.0215C67.7565-72.998 70.6003-76.6797 73.7487-79.0664 76.8971-81.4531 80.7565-82.6465 85.3268-82.6465 87.5104-82.6465 89.5417-82.4053 91.4206-81.9228 93.2995-81.4404 95.4323-80.5898 97.819-79.3711L94.5436-70.2305C90.9889-71.957 87.7643-72.8203 84.8698-72.8203ZM171.779 0 161.648 0C160.277-3.25 159.414-7.3125 159.059-12.1875L158.83-12.2637C155.174-7.49023 151.048-3.93555 146.452-1.59961 141.856 0.736328 136.385 1.9043 130.037 1.9043 125.111 1.9043 120.795 0.952148 117.088-0.952148 113.381-2.85644 110.512-5.50976 108.48-8.91211 106.449-12.3145 105.434-16.1992 105.434-20.5664 105.434-25.2383 106.424-29.2119 108.404-32.4873 110.385-35.7627 113.559-38.4795 117.926-40.6377 122.293-42.7959 128.057-44.4082 135.217-45.4746 145.83-47.0488 153.549-48.75 158.373-50.5781L158.373-53.5488C158.373-58.5762 157.814-62.5752 156.697-65.5459 155.58-68.5166 153.562-70.7256 150.642-72.1728 147.722-73.6201 143.57-74.3437 138.188-74.3437 126.508-74.3437 119.5-69.0625 117.164-58.5L107.49-59.8711C109.115-67.3359 112.568-72.998 117.85-76.8574 123.131-80.7168 130.113-82.6465 138.797-82.6465 145.5-82.6465 150.997-81.7578 155.288-79.9805 159.579-78.2031 162.804-75.3213 164.962-71.335 167.12-67.3486 168.199-62.0293 168.199-55.3769L168.199-25.0605C168.199-18.1035 168.44-12.9873 168.923-9.71191 169.405-6.43652 170.357-3.19922 171.779 0ZM134.303-36.9434C127.6-35.6738 122.801-33.7441 119.906-31.1543 117.012-28.5644 115.564-25.0352 115.564-20.5664 115.564-16.0469 117.05-12.5049 120.021-9.94043 122.991-7.37598 127.168-6.09375 132.551-6.09375 134.531-6.09375 136.804-6.47461 139.368-7.23633 141.933-7.99805 144.37-9.06445 146.681-10.4355 148.991-11.8066 150.832-13.3301 152.203-15.0059 153.98-17.1895 155.275-19.0811 156.088-20.6807 156.9-22.2803 157.484-24.4258 157.84-27.1172 158.195-29.8086 158.373-33.668 158.373-38.6953L158.373-42.8848C157.002-42.2246 154.26-41.374 150.146-40.333 146.033-39.292 140.752-38.1621 134.303-36.9434ZM243.844-53.9297C243.844-60.4297 242.193-65.4189 238.893-68.8975 235.592-72.376 230.844-74.1152 224.648-74.1152 219.977-74.1152 215.8-72.96 212.118-70.6494 208.437-68.3389 205.631-65.2285 203.701-61.3184 201.822-57.6113 200.883-52.2285 200.883-45.1699L200.883 0 191.057 0 191.057-80.8184 200.273-80.8184 200.273-67.9453C203.016-72.6172 206.621-76.2353 211.09-78.7998 215.559-81.3643 220.51-82.6465 225.943-82.6465 234.779-82.6465 241.609-80.2725 246.434-75.5244 251.258-70.7764 253.67-64.0351 253.67-55.3008L253.67 0 243.844 0ZM299.154-74.3437C295.701-74.3437 292.628-73.8105 289.937-72.7441 287.245-71.6777 285.151-70.167 283.653-68.2119 282.155-66.2568 281.406-63.959 281.406-61.3184 281.406-58.5254 282.028-56.2275 283.272-54.4248 284.516-52.6221 286.649-51.0986 289.67-49.8545 292.692-48.6103 296.945-47.5059 302.429-46.541 309.284-45.2715 314.782-43.6465 318.92-41.666 323.059-39.6855 326.093-37.1719 328.023-34.125 329.952-31.0781 330.917-27.2949 330.917-22.7754 330.917-18.0527 329.66-13.8252 327.147-10.0928 324.633-6.36035 321.117-3.42773 316.597-1.29492 312.077 0.83789 306.923 1.9043 301.134 1.9043 292.4 1.9043 285.392-0.0507814 280.111-3.96094 274.829-7.87109 271.427-13.6855 269.904-21.4043L279.577-22.9277C281.913-11.9082 289.074-6.39844 301.058-6.39844 305.12-6.39844 308.637-7.0459 311.608-8.34082 314.578-9.63574 316.864-11.4385 318.463-13.749 320.063-16.0596 320.863-18.6875 320.863-21.6328 320.863-24.832 320.076-27.4219 318.501-29.4023 316.927-31.3828 314.464-32.9824 311.113-34.2012 307.761-35.4199 303.14-36.5625 297.249-37.6289 288.718-39.1016 282.358-41.6533 278.168-45.2842 273.979-48.915 271.884-53.9297 271.884-60.3281 271.884-64.5937 273.001-68.415 275.236-71.792 277.47-75.1689 280.644-77.8223 284.757-79.7519 288.87-81.6816 293.669-82.6465 299.154-82.6465 306.974-82.6465 313.385-80.9834 318.387-77.6572 323.389-74.331 326.702-69.4434 328.327-62.9941L318.73-61.623C317.816-65.6855 315.67-68.8213 312.293-71.0303 308.916-73.2393 304.536-74.3437 299.154-74.3437ZM373.02-105.041C369.415-105.041 366.736-104.432 364.984-103.213 363.232-101.994 362.102-100.395 361.594-98.4141 361.087-96.4336 360.833-93.8945 360.833-90.7969L360.833-80.8184 376.448-80.8184 376.448-72.8203 360.833-72.8203 360.833 0 351.006 0 351.006-72.8203 338.819-72.8203 338.819-80.8184 351.006-80.8184 351.006-91.7109C351.006-99.0742 352.733-104.559 356.186-108.164 359.639-111.77 364.819-113.572 371.725-113.572 373.96-113.572 376.08-113.433 378.086-113.153 380.091-112.874 382.313-112.48 384.751-111.973L382.694-103.67C381.171-104.076 379.571-104.406 377.895-104.66 376.219-104.914 374.594-105.041 373.02-105.041ZM383.265-40.3711C383.265-49.4102 384.788-57.1035 387.835-63.4512 390.882-69.7988 395.122-74.585 400.556-77.8096 405.99-81.0342 412.286-82.6465 419.447-82.6465 426.708-82.6465 433.069-81.0342 438.528-77.8096 443.987-74.585 448.227-69.8115 451.248-63.4893 454.27-57.167 455.781-49.5117 455.781-40.5234 455.781-31.5352 454.282-23.8545 451.286-17.4814 448.29-11.1084 444.063-6.28418 438.604-3.00879 433.145 0.266601 426.759 1.9043 419.447 1.9043 412.286 1.9043 405.977 0.279297 400.518-2.9707 395.059-6.2207 390.819-11.0449 387.797-17.4434 384.776-23.8418 383.265-31.4844 383.265-40.3711ZM419.294-74.3437C414.267-74.3437 409.811-73.0742 405.926-70.5351 402.041-67.9961 398.982-64.1748 396.747-59.0713 394.513-53.9678 393.396-47.7344 393.396-40.3711 393.396-32.9062 394.5-26.6348 396.709-21.5566 398.918-16.4785 401.965-12.6826 405.85-10.1689 409.735-7.65527 414.267-6.39844 419.447-6.39844 424.575-6.39844 429.108-7.65527 433.043-10.1689 436.979-12.6826 440.064-16.4912 442.298-21.5947 444.532-26.6982 445.65-33.0078 445.65-40.5234 445.65-47.7344 444.545-53.8662 442.336-58.9189 440.127-63.9717 437.042-67.8057 433.081-70.4209 429.12-73.0361 424.525-74.3437 419.294-74.3437ZM501.38-72.8203C497.267-72.8203 493.763-71.5762 490.868-69.0879 487.974-66.5996 485.803-63.1338 484.356-58.6904 482.908-54.2471 482.185-49.1055 482.185-43.2656L482.185 0 472.359 0 472.359-80.8184 481.575-80.8184 481.575-67.9453 481.728-68.0215C484.267-72.998 487.111-76.6797 490.259-79.0664 493.407-81.4531 497.267-82.6465 501.837-82.6465 504.021-82.6465 506.052-82.4053 507.931-81.9228 509.81-81.4404 511.943-80.5898 514.329-79.3711L511.054-70.2305C507.499-71.957 504.275-72.8203 501.38-72.8203ZM605.809-82.6465C610.633-82.6465 614.874-81.6435 618.53-79.6377 622.186-77.6318 625.03-74.6103 627.061-70.5732 629.092-66.5361 630.108-61.5976 630.108-55.7578L630.108 0 620.587 0 620.587-54.1582C620.587-61.4707 619.215-66.625 616.473-69.6211 613.731-72.6172 609.491-74.1152 603.753-74.1152 596.643-74.1152 591.298-71.7031 587.718-66.8789 584.138-62.0547 582.348-54.9707 582.348-45.6269L582.348 0 572.827 0 572.827-52.4824C572.827-58.0176 572.217-62.3594 570.999-65.5078 569.78-68.6562 568.041-70.8779 565.781-72.1728 563.521-73.4678 560.665-74.1152 557.212-74.1152 552.489-74.1152 548.414-72.7949 544.986-70.1543 541.558-67.5137 538.968-63.8955 537.216-59.2998 535.464-54.7041 534.589-49.5117 534.589-43.7227L534.589 0 525.067 0 525.067-80.8184 534.284-80.8184 534.284-69.0879 534.589-69.0879C540.479-78.1269 548.63-82.6465 559.04-82.6465 564.321-82.6465 568.739-81.5674 572.294-79.4092 575.848-77.251 578.59-73.8613 580.52-69.2402 584.075-74.166 587.896-77.6318 591.984-79.6377 596.072-81.6435 600.68-82.6465 605.809-82.6465ZM714.331 0 704.201 0C702.829-3.25 701.966-7.3125 701.611-12.1875L701.382-12.2637C697.726-7.49023 693.6-3.93555 689.004-1.59961 684.409 0.736328 678.937 1.9043 672.589 1.9043 667.663 1.9043 663.347 0.952148 659.64-0.952148 655.933-2.85644 653.064-5.50976 651.033-8.91211 649.001-12.3145 647.986-16.1992 647.986-20.5664 647.986-25.2383 648.976-29.2119 650.956-32.4873 652.937-35.7627 656.111-38.4795 660.478-40.6377 664.845-42.7959 670.609-44.4082 677.769-45.4746 688.382-47.0488 696.101-48.75 700.925-50.5781L700.925-53.5488C700.925-58.5762 700.367-62.5752 699.249-65.5459 698.132-68.5166 696.114-70.7256 693.194-72.1728 690.274-73.6201 686.122-74.3437 680.74-74.3437 669.06-74.3437 662.052-69.0625 659.716-58.5L650.042-59.8711C651.667-67.3359 655.12-72.998 660.402-76.8574 665.683-80.7168 672.665-82.6465 681.349-82.6465 688.052-82.6465 693.549-81.7578 697.84-79.9805 702.131-78.2031 705.356-75.3213 707.514-71.335 709.672-67.3486 710.751-62.0293 710.751-55.3769L710.751-25.0605C710.751-18.1035 710.992-12.9873 711.475-9.71191 711.957-6.43652 712.909-3.19922 714.331 0ZM676.855-36.9434C670.152-35.6738 665.353-33.7441 662.458-31.1543 659.564-28.5644 658.117-25.0352 658.117-20.5664 658.117-16.0469 659.602-12.5049 662.573-9.94043 665.543-7.37598 669.72-6.09375 675.103-6.09375 677.083-6.09375 679.356-6.47461 681.92-7.23633 684.485-7.99805 686.922-9.06445 689.233-10.4355 691.543-11.8066 693.384-13.3301 694.755-15.0059 696.533-17.1895 697.827-19.0811 698.64-20.6807 699.452-22.2803 700.036-24.4258 700.392-27.1172 700.747-29.8086 700.925-33.668 700.925-38.6953L700.925-42.8848C699.554-42.2246 696.812-41.374 692.699-40.333 688.585-39.292 683.304-38.1621 676.855-36.9434ZM764.23-74.3437C759.406-74.3437 755.064-73.0742 751.204-70.5351 747.345-67.9961 744.324-64.1748 742.14-59.0713 739.956-53.9678 738.865-47.709 738.865-40.2949 738.865-33.5918 739.893-27.6885 741.95-22.585 744.006-17.4814 746.977-13.5078 750.862-10.6641 754.746-7.82031 759.355-6.39844 764.687-6.39844 770.73-6.39844 775.795-8.1123 779.883-11.54 783.971-14.9678 787.031-20.4141 789.062-27.8789L798.888-26.0508C796.349-16.707 792.21-9.71191 786.472-5.06543 780.734-0.418945 773.32 1.9043 764.23 1.9043 756.917 1.9043 750.582 0.101562 745.225-3.50391 739.867-7.10937 735.78-12.1113 732.961-18.5098 730.143-24.9082 728.734-32.2461 728.734-40.5234 728.734-48.9023 730.206-56.2783 733.152-62.6514 736.097-69.0244 740.286-73.9502 745.72-77.4287 751.154-80.9072 757.476-82.6465 764.687-82.6465 773.523-82.6465 780.619-80.5771 785.977-76.4385 791.334-72.2998 795.257-66.168 797.745-58.043L787.919-56.2148C784.618-68.3008 776.722-74.3437 764.23-74.3437ZM847.107-6.39844C852.541-6.39844 857.251-7.8584 861.237-10.7783 865.224-13.6982 868.105-17.748 869.883-22.9277L879.557-21.4043C876.967-13.8379 872.803-8.06152 867.064-4.07519 861.326-0.0888673 854.445 1.9043 846.422 1.9043 839.008 1.9043 832.571 0.203125 827.112-3.19922 821.653-6.60156 817.451-11.4512 814.506-17.748 811.56-24.0449 810.088-31.3828 810.088-39.7617 810.088-48.5469 811.573-56.1641 814.544-62.6133 817.515-69.0625 821.717-74.0137 827.15-77.4668 832.584-80.9199 838.957-82.6465 846.27-82.6465 854.394-82.6465 861.06-80.7422 866.265-76.9336 871.47-73.125 875.266-67.9199 877.652-61.3184 880.039-54.7168 881.232-47.125 881.232-38.543L820.219-38.543C820.422-31.8906 821.653-26.1396 823.913-21.29 826.173-16.4404 829.296-12.7461 833.282-10.207 837.268-7.66797 841.877-6.39844 847.107-6.39844ZM846.117-74.4199C841.445-74.4199 837.281-73.3281 833.625-71.1445 829.969-68.9609 827.011-65.7998 824.751-61.6611 822.491-57.5225 821.082-52.5586 820.523-46.7695L871.102-46.7695C870.187-55.9101 867.623-62.8037 863.408-67.4502 859.193-72.0967 853.43-74.4199 846.117-74.4199Z" fill="#3C1F4E" transform="matrix(1 0 0 1 113.513 219)"/><path d="M73.8105 0 63.6797 0C62.3086-3.25 61.4453-7.3125 61.0898-12.1875L60.8613-12.2637C57.2051-7.49023 53.0791-3.93555 48.4834-1.59961 43.8877 0.736328 38.416 1.9043 32.0684 1.9043 27.1426 1.9043 22.8262 0.952148 19.1191-0.952148 15.4121-2.85644 12.543-5.50976 10.5117-8.91211 8.48047-12.3145 7.46484-16.1992 7.46484-20.5664 7.46484-25.2383 8.45508-29.2119 10.4355-32.4873 12.416-35.7627 15.5898-38.4795 19.957-40.6377 24.3242-42.7959 30.0879-44.4082 37.248-45.4746 47.8613-47.0488 55.5801-48.75 60.4043-50.5781L60.4043-53.5488C60.4043-58.5762 59.8457-62.5752 58.7285-65.5459 57.6113-68.5166 55.5928-70.7256 52.6728-72.1728 49.7529-73.6201 45.6016-74.3437 40.2187-74.3437 28.5391-74.3437 21.5312-69.0625 19.1953-58.5L9.52148-59.8711C11.1465-67.3359 14.5996-72.998 19.8809-76.8574 25.1621-80.7168 32.1445-82.6465 40.8281-82.6465 47.5312-82.6465 53.0283-81.7578 57.3193-79.9805 61.6103-78.2031 64.835-75.3213 66.9932-71.335 69.1514-67.3486 70.2305-62.0293 70.2305-55.3769L70.2305-25.0605C70.2305-18.1035 70.4717-12.9873 70.9541-9.71191 71.4365-6.43652 72.3887-3.19922 73.8105 0ZM36.334-36.9434C29.6309-35.6738 24.832-33.7441 21.9375-31.1543 19.043-28.5644 17.5957-25.0352 17.5957-20.5664 17.5957-16.0469 19.0811-12.5049 22.0518-9.94043 25.0225-7.37598 29.1992-6.09375 34.582-6.09375 36.5625-6.09375 38.835-6.47461 41.3994-7.23633 43.9639-7.99805 46.4014-9.06445 48.7119-10.4355 51.0225-11.8066 52.8633-13.3301 54.2344-15.0059 56.0117-17.1895 57.3066-19.0811 58.1191-20.6807 58.9316-22.2803 59.5156-24.4258 59.8711-27.1172 60.2266-29.8086 60.4043-33.668 60.4043-38.6953L60.4043-42.8848C59.0332-42.2246 56.291-41.374 52.1777-40.333 48.0644-39.292 42.7832-38.1621 36.334-36.9434ZM144.469-11.8828 144.164-11.8828 144.164 30.9258 134.338 30.9258 134.338-80.8184 143.555-80.8184 143.555-67.5644 143.936-67.6406C147.541-72.9726 151.616-76.8066 156.161-79.1426 160.706-81.4785 165.797-82.6465 171.434-82.6465 178.187-82.6465 184.04-80.8564 188.991-77.2764 193.942-73.6963 197.726-68.7578 200.341-62.4609 202.956-56.1641 204.264-49.0547 204.264-41.1328 204.264-32.5508 202.918-25.0225 200.227-18.5478 197.535-12.0732 193.663-7.0459 188.61-3.46582 183.558 0.114258 177.604 1.9043 170.748 1.9043 164.908 1.9043 159.881 0.825195 155.666-1.33301 151.451-3.49121 147.719-7.00781 144.469-11.8828ZM169.986-74.3437C164.299-74.3437 159.487-72.833 155.552-69.8115 151.616-66.79 148.658-62.626 146.678-57.3193 144.697-52.0127 143.707-45.9316 143.707-39.0762 143.707-32.2715 144.786-26.4062 146.944-21.4805 149.103-16.5547 152.124-12.8096 156.009-10.2451 159.894-7.68066 164.426-6.39844 169.605-6.39844 174.582-6.39844 178.924-7.80762 182.631-10.626 186.338-13.4443 189.182-17.4561 191.162-22.6611 193.143-27.8662 194.133-33.9727 194.133-40.9805 194.133-47.6328 193.143-53.4853 191.162-58.5381 189.182-63.5908 186.363-67.4883 182.707-70.2305 179.051-72.9726 174.811-74.3437 169.986-74.3437ZM249.87-72.8203C245.757-72.8203 242.253-71.5762 239.358-69.0879 236.464-66.5996 234.293-63.1338 232.845-58.6904 231.398-54.2471 230.674-49.1055 230.674-43.2656L230.674 0 220.848 0 220.848-80.8184 230.065-80.8184 230.065-67.9453 230.217-68.0215C232.757-72.998 235.6-76.6797 238.749-79.0664 241.897-81.4531 245.757-82.6465 250.327-82.6465 252.51-82.6465 254.542-82.4053 256.421-81.9228 258.299-81.4404 260.432-80.5898 262.819-79.3711L259.544-70.2305C255.989-71.957 252.764-72.8203 249.87-72.8203ZM268.682-40.3711C268.682-49.4102 270.205-57.1035 273.252-63.4512 276.299-69.7988 280.539-74.585 285.973-77.8096 291.406-81.0342 297.703-82.6465 304.863-82.6465 312.125-82.6465 318.485-81.0342 323.944-77.8096 329.403-74.585 333.644-69.8115 336.665-63.4893 339.687-57.167 341.197-49.5117 341.197-40.5234 341.197-31.5352 339.699-23.8545 336.703-17.4814 333.707-11.1084 329.479-6.28418 324.021-3.00879 318.562 0.266601 312.176 1.9043 304.863 1.9043 297.703 1.9043 291.394 0.279297 285.935-2.9707 280.476-6.2207 276.235-11.0449 273.214-17.4434 270.192-23.8418 268.682-31.4844 268.682-40.3711ZM304.711-74.3437C299.684-74.3437 295.228-73.0742 291.343-70.5351 287.458-67.9961 284.398-64.1748 282.164-59.0713 279.93-53.9678 278.812-47.7344 278.812-40.3711 278.812-32.9062 279.917-26.6348 282.126-21.5566 284.335-16.4785 287.382-12.6826 291.267-10.1689 295.151-7.65527 299.684-6.39844 304.863-6.39844 309.992-6.39844 314.524-7.65527 318.46-10.1689 322.396-12.6826 325.48-16.4912 327.715-21.5947 329.949-26.6982 331.066-33.0078 331.066-40.5234 331.066-47.7344 329.962-53.8662 327.753-58.9189 325.544-63.9717 322.459-67.8057 318.498-70.4209 314.537-73.0361 309.941-74.3437 304.711-74.3437ZM388.396-74.3437C383.572-74.3437 379.23-73.0742 375.371-70.5351 371.512-67.9961 368.49-64.1748 366.307-59.0713 364.123-53.9678 363.031-47.709 363.031-40.2949 363.031-33.5918 364.06-27.6885 366.116-22.585 368.173-17.4814 371.144-13.5078 375.028-10.6641 378.913-7.82031 383.521-6.39844 388.854-6.39844 394.896-6.39844 399.962-8.1123 404.05-11.54 408.138-14.9678 411.197-20.4141 413.229-27.8789L423.055-26.0508C420.516-16.707 416.377-9.71191 410.639-5.06543 404.9-0.418945 397.486 1.9043 388.396 1.9043 381.084 1.9043 374.749 0.101562 369.392-3.50391 364.034-7.10937 359.946-12.1113 357.128-18.5098 354.31-24.9082 352.9-32.2461 352.9-40.5234 352.9-48.9023 354.373-56.2783 357.318-62.6514 360.264-69.0244 364.453-73.9502 369.887-77.4287 375.32-80.9072 381.643-82.6465 388.854-82.6465 397.689-82.6465 404.786-80.5771 410.144-76.4385 415.501-72.2998 419.424-66.168 421.912-58.043L412.086-56.2148C408.785-68.3008 400.889-74.3437 388.396-74.3437ZM471.274-6.39844C476.708-6.39844 481.418-7.8584 485.404-10.7783 489.39-13.6982 492.272-17.748 494.049-22.9277L503.723-21.4043C501.133-13.8379 496.969-8.06152 491.231-4.07519 485.493-0.0888673 478.612 1.9043 470.589 1.9043 463.174 1.9043 456.738 0.203125 451.279-3.19922 445.82-6.60156 441.618-11.4512 438.673-17.748 435.727-24.0449 434.255-31.3828 434.255-39.7617 434.255-48.5469 435.74-56.1641 438.711-62.6133 441.681-69.0625 445.883-74.0137 451.317-77.4668 456.751-80.9199 463.124-82.6465 470.436-82.6465 478.561-82.6465 485.226-80.7422 490.431-76.9336 495.636-73.125 499.432-67.9199 501.819-61.3184 504.206-54.7168 505.399-47.125 505.399-38.543L444.385-38.543C444.589-31.8906 445.82-26.1396 448.08-21.29 450.34-16.4404 453.463-12.7461 457.449-10.207 461.435-7.66797 466.044-6.39844 471.274-6.39844ZM470.284-74.4199C465.612-74.4199 461.448-73.3281 457.792-71.1445 454.135-68.9609 451.177-65.7998 448.918-61.6611 446.658-57.5225 445.249-52.5586 444.69-46.7695L495.268-46.7695C494.354-55.9101 491.79-62.8037 487.575-67.4502 483.36-72.0967 477.596-74.4199 470.284-74.4199ZM546.081-74.3437C542.628-74.3437 539.555-73.8105 536.864-72.7441 534.172-71.6777 532.078-70.167 530.58-68.2119 529.082-66.2568 528.333-63.959 528.333-61.3184 528.333-58.5254 528.955-56.2275 530.199-54.4248 531.443-52.6221 533.576-51.0986 536.597-49.8545 539.619-48.6103 543.872-47.5059 549.356-46.541 556.212-45.2715 561.709-43.6465 565.847-41.666 569.986-39.6855 573.02-37.1719 574.95-34.125 576.88-31.0781 577.844-27.2949 577.844-22.7754 577.844-18.0527 576.588-13.8252 574.074-10.0928 571.56-6.36035 568.044-3.42773 563.524-1.29492 559.005 0.83789 553.85 1.9043 548.061 1.9043 539.327 1.9043 532.319-0.0507814 527.038-3.96094 521.756-7.87109 518.354-13.6855 516.831-21.4043L526.505-22.9277C528.84-11.9082 536.001-6.39844 547.985-6.39844 552.047-6.39844 555.564-7.0459 558.535-8.34082 561.505-9.63574 563.791-11.4385 565.39-13.749 566.99-16.0596 567.79-18.6875 567.79-21.6328 567.79-24.832 567.003-27.4219 565.428-29.4023 563.854-31.3828 561.391-32.9824 558.04-34.2012 554.688-35.4199 550.067-36.5625 544.176-37.6289 535.645-39.1016 529.285-41.6533 525.095-45.2842 520.906-48.915 518.811-53.9297 518.811-60.3281 518.811-64.5937 519.928-68.415 522.163-71.792 524.397-75.1689 527.571-77.8223 531.684-79.7519 535.797-81.6816 540.596-82.6465 546.081-82.6465 553.901-82.6465 560.312-80.9834 565.314-77.6572 570.316-74.331 573.63-69.4434 575.255-62.9941L565.657-61.623C564.743-65.6855 562.597-68.8213 559.22-71.0303 555.843-73.2393 551.464-74.3437 546.081-74.3437ZM621.166-11.1973 621.471-11.1973C622.994-16.377 625.482-23.6894 628.936-33.1348L646.531-80.8184 656.205-80.8184 621.471 11.8066C619.439 17.1895 617.383 21.3916 615.301 24.4131 613.219 27.4346 610.946 29.5801 608.483 30.8496 606.021 32.1191 603.088 32.7539 599.686 32.7539 596.334 32.7539 593.084 32.3477 589.936 31.5352L591.992 23.2324C592.906 23.5371 593.96 23.7656 595.153 23.918 596.347 24.0703 597.426 24.1465 598.391 24.1465 600.98 24.1465 603.088 23.7148 604.713 22.8516 606.338 21.9883 607.772 20.5156 609.017 18.4336 610.261 16.3516 611.619 13.3301 613.092 9.36914L616.291 0.457031 585.898-80.8184 596.334-80.8184 613.625-33.7441C616.418-26.0762 618.932-18.5605 621.166-11.1973Z" fill="#3C1F4E" transform="matrix(1 0 0 1 228.096 407)"/></g></g></g><rect x="1829.5" y="1686.5" width="924" height="415" stroke="#3C1F4E" stroke-width="9.16667" stroke-miterlimit="8" fill="#CAACDD"/><text fill="#3C1F4E" font-family="Arial Nova Light,Arial Nova Light_MSFontService,sans-serif" font-weight="300" font-size="156" transform="matrix(1 0 0 1 1847.79 1862)">transformace <tspan font-size="156" x="114.583" y="188">a procesy</tspan></text></g></svg>