<?xml version="1.0" encoding="UTF-8" standalone="no"?>
<!-- Created with Inkscape (http://www.inkscape.org/) -->

<svg
   xmlns:dc="http://purl.org/dc/elements/1.1/"
   xmlns:cc="http://creativecommons.org/ns#"
   xmlns:rdf="http://www.w3.org/1999/02/22-rdf-syntax-ns#"
   xmlns:svg="http://www.w3.org/2000/svg"
   xmlns="http://www.w3.org/2000/svg"
   xmlns:sodipodi="http://sodipodi.sourceforge.net/DTD/sodipodi-0.dtd"
   xmlns:inkscape="http://www.inkscape.org/namespaces/inkscape"
   version="1.1"
   id="svg2"
   xml:space="preserve"
   width="3215.8"
   height="1228.7"
   viewBox="0 0 3215.8 1228.7"
   sodipodi:docname="type_struct.svg"
   inkscape:version="0.92.5 (2060ec1f9f, 2020-04-08)"><metadata
     id="metadata8"><rdf:RDF><cc:Work
         rdf:about=""><dc:format>image/svg+xml</dc:format><dc:type
           rdf:resource="http://purl.org/dc/dcmitype/StillImage" /><dc:title></dc:title></cc:Work></rdf:RDF></metadata><defs
     id="defs6" /><sodipodi:namedview
     pagecolor="#ffffff"
     bordercolor="#666666"
     borderopacity="1"
     objecttolerance="10"
     gridtolerance="10"
     guidetolerance="10"
     inkscape:pageopacity="0"
     inkscape:pageshadow="2"
     inkscape:window-width="1920"
     inkscape:window-height="1028"
     id="namedview4"
     showgrid="false"
     inkscape:zoom="0.13278189"
     inkscape:cx="1607.9"
     inkscape:cy="614.34998"
     inkscape:window-x="0"
     inkscape:window-y="0"
     inkscape:window-maximized="1"
     inkscape:current-layer="g10" /><g
     id="g10"
     inkscape:groupmode="layer"
     inkscape:label="type_struct"
     transform="matrix(1.3333333,0,0,1.3333333,0,6.1384163e-5)"><g
       id="g12"><path
         d="m 1793.176,109.352 0.148,-5.551 0.449,-5.625 0.75,-5.477 0.977,-5.551 1.273,-5.398 1.653,-5.324 1.801,-5.324 2.171,-5.102 2.403,-5.102 2.699,-4.875 2.852,-4.722 3.222,-4.653 3.375,-4.421 3.602,-4.278 3.824,-4.051 4.051,-3.824 4.273,-3.597 4.426,-3.375 4.648,-3.227 4.727,-2.852 4.875,-2.699 5.102,-2.398 5.097,-2.176 5.324,-1.801 5.329,-1.648 5.398,-1.278 5.551,-0.972 5.472,-0.75 5.625,-0.449 5.551,-0.153 5.551,0.153 5.625,0.449 5.477,0.75 5.546,0.972 5.403,1.278 5.324,1.648 5.324,1.801 5.102,2.176 5.097,2.398 4.875,2.699 4.727,2.852 4.648,3.227 4.426,3.375 4.278,3.597 4.046,3.824 3.829,4.051 3.597,4.278 3.375,4.421 3.227,4.653 2.847,4.722 2.704,4.875 2.398,5.102 2.176,5.102 1.801,5.324 1.648,5.324 1.273,5.398 0.977,5.551 0.75,5.477 0.449,5.625 0.153,5.551 h -0.079 l -0.148,5.546 -0.449,5.625 -0.676,5.477 -1.051,5.551 -1.273,5.398 -1.653,5.324 -1.796,5.25 -2.176,5.176 -2.403,5.028 -2.625,4.949 -2.921,4.722 -3.153,4.653 -3.449,4.426 -3.602,4.199 -3.824,4.051 -4.051,3.824 -4.273,3.676 -4.426,3.375 -4.574,3.148 -4.727,2.926 -4.949,2.699 -5.023,2.398 -5.176,2.102 -5.25,1.875 -5.324,1.574 -5.477,1.352 -5.472,0.972 -5.477,0.75 -5.625,0.454 -5.551,0.148 v -0.074 l -5.551,-0.153 -5.625,-0.449 -5.472,-0.676 -5.551,-1.046 -5.398,-1.278 -5.329,-1.648 -5.25,-1.801 -5.171,-2.176 -5.028,-2.398 -4.949,-2.625 -4.727,-2.926 -4.648,-3.148 -4.426,-3.454 -4.199,-3.597 -4.051,-3.824 -3.824,-4.051 -3.676,-4.278 -3.375,-4.421 -3.148,-4.579 -2.926,-4.722 -2.699,-4.949 -2.403,-5.028 -2.097,-5.176 -1.875,-5.25 -1.574,-5.324 -1.352,-5.472 -0.977,-5.477 -0.75,-5.477 -0.449,-5.625 z"
         style="fill:#0365c0;fill-opacity:0.32900002;fill-rule:evenodd;stroke:none"
         id="path14"
         inkscape:connector-curvature="0" /><g
         id="g16"><path
           d="m 1793.176,109.352 0.148,-5.551 0.449,-5.625 0.75,-5.477 0.977,-5.551 1.273,-5.398 1.653,-5.324 1.801,-5.324 2.171,-5.102 2.403,-5.102 2.699,-4.875 2.852,-4.722 3.222,-4.653 3.375,-4.421 3.602,-4.278 3.824,-4.051 4.051,-3.824 4.273,-3.597 4.426,-3.375 4.648,-3.227 4.727,-2.852 4.875,-2.699 5.102,-2.398 5.097,-2.176 5.324,-1.801 5.329,-1.648 5.398,-1.278 5.551,-0.972 5.472,-0.75 5.625,-0.449 5.551,-0.153 5.551,0.153 5.625,0.449 5.477,0.75 5.546,0.972 5.403,1.278 5.324,1.648 5.324,1.801 5.102,2.176 5.097,2.398 4.875,2.699 4.727,2.852 4.648,3.227 4.426,3.375 4.278,3.597 4.046,3.824 3.829,4.051 3.597,4.278 3.375,4.421 3.227,4.653 2.847,4.722 2.704,4.875 2.398,5.102 2.176,5.102 1.801,5.324 1.648,5.324 1.273,5.398 0.977,5.551 0.75,5.477 0.449,5.625 0.153,5.551 h -0.079 l -0.148,5.546 -0.449,5.625 -0.676,5.477 -1.051,5.551 -1.273,5.398 -1.653,5.324 -1.796,5.25 -2.176,5.176 -2.403,5.028 -2.625,4.949 -2.921,4.722 -3.153,4.653 -3.449,4.426 -3.602,4.199 -3.824,4.051 -4.051,3.824 -4.273,3.676 -4.426,3.375 -4.574,3.148 -4.727,2.926 -4.949,2.699 -5.023,2.398 -5.176,2.102 -5.25,1.875 -5.324,1.574 -5.477,1.352 -5.472,0.972 -5.477,0.75 -5.625,0.454 -5.551,0.148 v -0.074 l -5.551,-0.153 -5.625,-0.449 -5.472,-0.676 -5.551,-1.046 -5.398,-1.278 -5.329,-1.648 -5.25,-1.801 -5.171,-2.176 -5.028,-2.398 -4.949,-2.625 -4.727,-2.926 -4.648,-3.148 -4.426,-3.454 -4.199,-3.597 -4.051,-3.824 -3.824,-4.051 -3.676,-4.278 -3.375,-4.421 -3.148,-4.579 -2.926,-4.722 -2.699,-4.949 -2.403,-5.028 -2.097,-5.176 -1.875,-5.25 -1.574,-5.324 -1.352,-5.472 -0.977,-5.477 -0.75,-5.477 -0.449,-5.625 z"
           style="fill:none;stroke:#ffffff;stroke-width:2.1166501;stroke-linecap:butt;stroke-linejoin:round;stroke-miterlimit:4;stroke-dasharray:none;stroke-opacity:0.32900002"
           id="path18"
           inkscape:connector-curvature="0" /></g><g
         id="g20"><path
           d="m 1793.176,109.352 0.148,-5.551 0.449,-5.625 0.75,-5.477 0.977,-5.551 1.273,-5.398 1.653,-5.324 1.801,-5.324 2.171,-5.102 2.403,-5.102 2.699,-4.875 2.852,-4.722 3.222,-4.653 3.375,-4.421 3.602,-4.278 3.824,-4.051 4.051,-3.824 4.273,-3.597 4.426,-3.375 4.648,-3.227 4.727,-2.852 4.875,-2.699 5.102,-2.398 5.097,-2.176 5.324,-1.801 5.329,-1.648 5.398,-1.278 5.551,-0.972 5.472,-0.75 5.625,-0.449 5.551,-0.153 5.551,0.153 5.625,0.449 5.477,0.75 5.546,0.972 5.403,1.278 5.324,1.648 5.324,1.801 5.102,2.176 5.097,2.398 4.875,2.699 4.727,2.852 4.648,3.227 4.426,3.375 4.278,3.597 4.046,3.824 3.829,4.051 3.597,4.278 3.375,4.421 3.227,4.653 2.847,4.722 2.704,4.875 2.398,5.102 2.176,5.102 1.801,5.324 1.648,5.324 1.273,5.398 0.977,5.551 0.75,5.477 0.449,5.625 0.153,5.551 h -0.079 l -0.148,5.546 -0.449,5.625 -0.676,5.477 -1.051,5.551 -1.273,5.398 -1.653,5.324 -1.796,5.25 -2.176,5.176 -2.403,5.028 -2.625,4.949 -2.921,4.722 -3.153,4.653 -3.449,4.426 -3.602,4.199 -3.824,4.051 -4.051,3.824 -4.273,3.676 -4.426,3.375 -4.574,3.148 -4.727,2.926 -4.949,2.699 -5.023,2.398 -5.176,2.102 -5.25,1.875 -5.324,1.574 -5.477,1.352 -5.472,0.972 -5.477,0.75 -5.625,0.454 -5.551,0.148 v -0.074 l -5.551,-0.153 -5.625,-0.449 -5.472,-0.676 -5.551,-1.046 -5.398,-1.278 -5.329,-1.648 -5.25,-1.801 -5.171,-2.176 -5.028,-2.398 -4.949,-2.625 -4.727,-2.926 -4.648,-3.148 -4.426,-3.454 -4.199,-3.597 -4.051,-3.824 -3.824,-4.051 -3.676,-4.278 -3.375,-4.421 -3.148,-4.579 -2.926,-4.722 -2.699,-4.949 -2.403,-5.028 -2.097,-5.176 -1.875,-5.25 -1.574,-5.324 -1.352,-5.472 -0.977,-5.477 -0.75,-5.477 -0.449,-5.625 z"
           style="fill:none;stroke:#024a8e;stroke-width:5.32499981;stroke-linecap:butt;stroke-linejoin:round;stroke-miterlimit:4;stroke-dasharray:none;stroke-opacity:1"
           id="path22"
           inkscape:connector-curvature="0" /></g><path
         d="m 2038.426,920.102 h -53.324 V 792.148 h 106.574 v 127.954 z"
         style="fill:#002060;fill-opacity:0.11000001;fill-rule:evenodd;stroke:none"
         id="path24"
         inkscape:connector-curvature="0" /><g
         id="g26"><path
           d="m 2038.426,920.102 h -53.324 V 792.148 h 106.574 v 127.954 z"
           style="fill:none;stroke:#ffffff;stroke-width:2.1166501;stroke-linecap:butt;stroke-linejoin:round;stroke-miterlimit:4;stroke-dasharray:none;stroke-opacity:0.11000001"
           id="path28"
           inkscape:connector-curvature="0" /></g><g
         id="g30"><path
           d="m 2038.426,920.102 h -53.324 V 792.148 h 106.574 v 127.954 z"
           style="fill:none;stroke:#000000;stroke-width:2.625;stroke-linecap:butt;stroke-linejoin:miter;stroke-miterlimit:4;stroke-dasharray:none;stroke-opacity:1"
           id="path32"
           inkscape:connector-curvature="0" /></g><text
         transform="translate(2017.125,858.90015)"
         style="font-variant:normal;font-weight:normal;font-size:63.52499771px;font-family:Arimo;-inkscape-font-specification:Arimo;writing-mode:lr-tb;fill:#000000;fill-opacity:1;fill-rule:nonzero;stroke:none"
         id="text36"><tspan
           x="0"
           y="0"
           id="tspan34">…</tspan></text>
<g
         id="g38"><path
           d="m 1570.801,664.273 14.773,6.153 191.477,-461.102 29.472,12.227 -191.472,461.176 14.847,6.148 -41.847,17.25 z"
           style="fill:#0365c0;fill-opacity:1;fill-rule:evenodd;stroke:#024a8e;stroke-width:5.32499981;stroke-linecap:butt;stroke-linejoin:round;stroke-miterlimit:4;stroke-dasharray:none;stroke-opacity:1"
           id="path40"
           inkscape:connector-curvature="0" /></g><g
         id="g42"><path
           d="m 1772.25,689.699 15.75,2.25 65.102,-458.25 31.648,4.5 -65.102,458.176 15.903,2.324 -36.227,27.153 z"
           style="fill:#0365c0;fill-opacity:1;fill-rule:evenodd;stroke:#024a8e;stroke-width:5.32499981;stroke-linecap:butt;stroke-linejoin:round;stroke-miterlimit:4;stroke-dasharray:none;stroke-opacity:1"
           id="path44"
           inkscape:connector-curvature="0" /></g><g
         id="g46"><path
           d="m 2142.824,709.875 15.153,-5.023 -157.727,-473.704 30.301,-10.125 157.722,473.704 15.227,-5.028 -20.25,40.5 z"
           style="fill:#0365c0;fill-opacity:1;fill-rule:evenodd;stroke:#024a8e;stroke-width:5.32499981;stroke-linecap:butt;stroke-linejoin:round;stroke-miterlimit:4;stroke-dasharray:none;stroke-opacity:1"
           id="path48"
           inkscape:connector-curvature="0" /></g><text
         transform="translate(1141.7256,515.47522)"
         style="font-variant:normal;font-weight:normal;font-size:63.52499771px;font-family:Arimo;-inkscape-font-specification:Arimo;writing-mode:lr-tb;fill:#000000;fill-opacity:1;fill-rule:nonzero;stroke:none"
         id="text54"><tspan
           x="0 14.10255 67.018875 102.33877 137.65868 172.97858"
           y="0"
           sodipodi:role="line"
           id="tspan50">jméno </tspan><tspan
           x="0 31.762499 45.865047 81.184944 112.94745 130.54387 165.86377 201.18367 232.94617 250.54259"
           y="76.199699"
           sodipodi:role="line"
           id="tspan52">vlastnosti</tspan></text>
<text
         transform="translate(1406.1753,607.57507)"
         style="font-variant:normal;font-weight:normal;font-size:36.82500076px;font-family:Arimo;-inkscape-font-specification:Arimo;writing-mode:lr-tb;fill:#000000;fill-opacity:1;fill-rule:nonzero;stroke:none"
         id="text58"><tspan
           x="0"
           y="0"
           id="tspan56">1</tspan></text>
<g
         id="g60"><path
           d="M 265.352,265.801 H 0.977 V 134.324 h 528.75 v 131.477 z"
           style="fill:#ffffff;fill-opacity:1;fill-rule:evenodd;stroke:#000000;stroke-width:1.95000005;stroke-linecap:butt;stroke-linejoin:miter;stroke-miterlimit:4;stroke-dasharray:none;stroke-opacity:1"
           id="path62"
           inkscape:connector-curvature="0" /></g><text
         transform="translate(6.300293,201.07507)"
         style="font-variant:normal;font-weight:normal;font-size:63.52499771px;font-family:Arimo;-inkscape-font-specification:Arimo;writing-mode:lr-tb;fill:#000000;fill-opacity:1;fill-rule:nonzero;stroke:none"
         id="text66"><tspan
           x="0 45.865047 81.184944 95.287498 130.60739 165.92729 197.68979 250.60611 285.92603 321.24591 356.56583"
           y="0"
           sodipodi:role="line"
           id="tspan64">UplneJmeno:</tspan></text>
<g
         id="g68"><path
           d="M 942.824,265.801 H 529.727 V 134.324 h 826.125 v 131.477 z"
           style="fill:#ffffff;fill-opacity:1;fill-rule:evenodd;stroke:#000000;stroke-width:1.95000005;stroke-linecap:butt;stroke-linejoin:miter;stroke-miterlimit:4;stroke-dasharray:none;stroke-opacity:1"
           id="path70"
           inkscape:connector-curvature="0" /></g><text
         transform="translate(535.05029,201.07507)"
         style="font-variant:normal;font-weight:normal;font-size:63.52499771px;font-family:Arimo;-inkscape-font-specification:Arimo;writing-mode:lr-tb;fill:#000000;fill-opacity:1;fill-rule:nonzero;stroke:none"
         id="text74"><tspan
           x="0 22.48785 64.795502 85.949326 121.26922 138.86565 156.46207 174.05849 191.65492 226.97482 262.29471 279.89114 297.48758 329.25006 364.56998 399.88986 417.4863 463.35135 498.67123 530.43372 565.75366 597.51611 615.11255 632.70898 678.57404 720.88165 752.64417 770.2406"
           y="0"
           sodipodi:role="line"
           id="tspan72">&quot;Prof. Ing. Jan Novák, CSc.&quot;</tspan></text>
<g
         id="g76"><path
           d="M 265.352,397.352 H 0.977 V 265.875 h 528.75 v 131.477 z"
           style="fill:#ffffff;fill-opacity:1;fill-rule:evenodd;stroke:#000000;stroke-width:1.95000005;stroke-linecap:butt;stroke-linejoin:miter;stroke-miterlimit:4;stroke-dasharray:none;stroke-opacity:1"
           id="path78"
           inkscape:connector-curvature="0" /></g><text
         transform="translate(6.300293,332.625)"
         style="font-variant:normal;font-weight:normal;font-size:63.52499771px;font-family:Arimo;-inkscape-font-specification:Arimo;writing-mode:lr-tb;fill:#000000;fill-opacity:1;fill-rule:nonzero;stroke:none"
         id="text82"><tspan
           x="0 31.762499 84.678825 119.99872 155.31862 190.63852 208.23494"
           y="0"
           sodipodi:role="line"
           id="tspan80">Jmeno: </tspan></text>
<g
         id="g84"><path
           d="M 265.352,528.898 H 0.977 V 397.426 h 528.75 v 131.472 z"
           style="fill:#ffffff;fill-opacity:1;fill-rule:evenodd;stroke:#000000;stroke-width:1.95000005;stroke-linecap:butt;stroke-linejoin:miter;stroke-miterlimit:4;stroke-dasharray:none;stroke-opacity:1"
           id="path86"
           inkscape:connector-curvature="0" /></g><text
         transform="translate(6.300293,464.17493)"
         style="font-variant:normal;font-weight:normal;font-size:63.52499771px;font-family:Arimo;-inkscape-font-specification:Arimo;writing-mode:lr-tb;fill:#000000;fill-opacity:1;fill-rule:nonzero;stroke:none"
         id="text90"><tspan
           x="0 42.307648 63.461472 77.564026 91.666573 144.5829 179.9028 215.22269 229.32524 246.92166"
           y="0"
           sodipodi:role="line"
           id="tspan88">Prijmeni: </tspan></text>
<g
         id="g92"><path
           d="M 628.875,397.352 H 529.727 V 265.875 h 198.222 v 131.477 z"
           style="fill:#ffffff;fill-opacity:1;fill-rule:evenodd;stroke:#000000;stroke-width:1.95000005;stroke-linecap:butt;stroke-linejoin:miter;stroke-miterlimit:4;stroke-dasharray:none;stroke-opacity:1"
           id="path94"
           inkscape:connector-curvature="0" /></g><text
         transform="translate(535.05029,332.625)"
         style="font-variant:normal;font-weight:normal;font-size:63.52499771px;font-family:Arimo;-inkscape-font-specification:Arimo;writing-mode:lr-tb;fill:#000000;fill-opacity:1;fill-rule:nonzero;stroke:none"
         id="text98"><tspan
           x="0 22.48785 54.250347 89.570244 124.89014"
           y="0"
           sodipodi:role="line"
           id="tspan96">&quot;Jan&quot;</tspan></text>
<path
         d="M 645.449,528.898 H 529.801 V 397.426 h 231.301 v 131.472 z"
         style="fill:#ffffff;fill-opacity:1;fill-rule:evenodd;stroke:none"
         id="path100"
         inkscape:connector-curvature="0" /><g
         id="g102"><path
           d="M 681.09,528.762 H 529.938 v -131.2 h 302.3 v 131.2 z"
           style="fill:none;stroke:#000000;stroke-width:2.22693491;stroke-linecap:butt;stroke-linejoin:miter;stroke-miterlimit:4;stroke-dasharray:none;stroke-opacity:1"
           id="path104"
           inkscape:connector-curvature="0" /></g><text
         transform="translate(535.125,464.17493)"
         style="font-variant:normal;font-weight:normal;font-size:63.52499771px;font-family:Arimo;-inkscape-font-specification:Arimo;writing-mode:lr-tb;fill:#000000;fill-opacity:1;fill-rule:nonzero;stroke:none"
         id="text110"><tspan
           x="0 22.48785 68.352898 103.6728 135.4353 170.75519"
           y="0"
           sodipodi:role="line"
           id="tspan106">&quot;Novák&quot;</tspan></text>
<g
         id="g112"><path
           d="M 942.824,134.25 H 529.727 V 2.773 h 826.125 V 134.25 Z"
           style="fill:#ffffff;fill-opacity:1;fill-rule:evenodd;stroke:#000000;stroke-width:1.95000005;stroke-linecap:butt;stroke-linejoin:miter;stroke-miterlimit:4;stroke-dasharray:none;stroke-opacity:1"
           id="path114"
           inkscape:connector-curvature="0" /></g><text
         transform="translate(535.05029,69.525146)"
         style="font-variant:normal;font-weight:bold;font-size:63.52499771px;font-family:Arimo;-inkscape-font-specification:Arimo-Bold;writing-mode:lr-tb;fill:#000000;fill-opacity:1;fill-rule:nonzero;stroke:none"
         id="text118"><tspan
           x="0 38.750248 77.500496 116.25075 155.00099 193.75125 214.90508 250.22496 267.82138 303.1413 320.7377 356.05762 391.3775 412.53134 451.28159 490.03183 525.35175 546.50555 564.10199"
           y="0"
           sodipodi:role="line"
           id="tspan116">hodnoty vlastností </tspan></text>
<g
         id="g120"><path
           d="M 265.352,134.25 H 0.977 V 2.773 h 528.75 V 134.25 Z"
           style="fill:#ffffff;fill-opacity:1;fill-rule:evenodd;stroke:#000000;stroke-width:1.95000005;stroke-linecap:butt;stroke-linejoin:miter;stroke-miterlimit:4;stroke-dasharray:none;stroke-opacity:1"
           id="path122"
           inkscape:connector-curvature="0" /></g><text
         transform="translate(6.300293,69.525146)"
         style="font-variant:normal;font-weight:bold;font-size:63.52499771px;font-family:Arimo;-inkscape-font-specification:Arimo-Bold;writing-mode:lr-tb;fill:#000000;fill-opacity:1;fill-rule:nonzero;stroke:none"
         id="text126"><tspan
           x="0 17.596424 74.070145 109.39005 148.14029 183.46019 201.05663 236.37651 253.97295 289.29285 324.61273 345.76657 384.51682 423.26706 458.58698 479.74078 497.33722"
           y="0"
           sodipodi:role="line"
           id="tspan124">jména vlastností </tspan></text>
<text
         transform="translate(1867.8003,624.15015)"
         style="font-variant:normal;font-weight:normal;font-size:63.52499771px;font-family:Arimo;-inkscape-font-specification:Arimo;writing-mode:lr-tb;fill:#000000;fill-opacity:1;fill-rule:nonzero;stroke:none"
         id="text130"><tspan
           x="0 14.10255 67.018875 102.33877 137.65868"
           y="0"
           sodipodi:role="line"
           id="tspan128">jméno</tspan></text>
<text
         transform="translate(2040.5259,640.04993)"
         style="font-variant:normal;font-weight:normal;font-size:36.82500076px;font-family:Arimo;-inkscape-font-specification:Arimo;writing-mode:lr-tb;fill:#000000;fill-opacity:1;fill-rule:nonzero;stroke:none"
         id="text134"><tspan
           x="0"
           y="0"
           id="tspan132">2</tspan></text>
<text
         transform="translate(2166.5259,581.54993)"
         style="font-variant:normal;font-weight:normal;font-size:63.52499771px;font-family:Arimo;-inkscape-font-specification:Arimo;writing-mode:lr-tb;fill:#000000;fill-opacity:1;fill-rule:nonzero;stroke:none"
         id="text138"><tspan
           x="0 14.10255 67.018875 102.33877 137.65868"
           y="0"
           sodipodi:role="line"
           id="tspan136">jméno</tspan></text>
<text
         transform="translate(2339.25,597.45007)"
         style="font-variant:normal;font-weight:normal;font-size:36.82500076px;font-family:Arimo;-inkscape-font-specification:Arimo;writing-mode:lr-tb;fill:#000000;fill-opacity:1;fill-rule:nonzero;stroke:none"
         id="text142"><tspan
           x="0"
           y="0"
           id="tspan140">n</tspan></text>
<g
         id="g144"><path
           d="M 265.352,660.676 H 0.977 V 529.199 h 528.75 v 131.477 z"
           style="fill:#ffffff;fill-opacity:1;fill-rule:evenodd;stroke:#000000;stroke-width:1.95000005;stroke-linecap:butt;stroke-linejoin:miter;stroke-miterlimit:4;stroke-dasharray:none;stroke-opacity:1"
           id="path146"
           inkscape:connector-curvature="0" /></g><text
         transform="translate(6.300293,595.95007)"
         style="font-variant:normal;font-weight:normal;font-size:63.52499771px;font-family:Arimo;-inkscape-font-specification:Arimo;writing-mode:lr-tb;fill:#000000;fill-opacity:1;fill-rule:nonzero;stroke:none"
         id="text150"><tspan
           x="0 45.865047 81.184944 98.781372 134.10127 187.01759 232.88264 268.20255 289.35635 324.67627 356.43875 374.03519"
           y="0"
           sodipodi:role="line"
           id="tspan148">DatumNaroz: </tspan></text>
<g
         id="g152"><path
           d="M 695.023,660.676 H 529.801 V 529.199 H 860.25 v 131.477 z"
           style="fill:#ffffff;fill-opacity:1;fill-rule:evenodd;stroke:#000000;stroke-width:1.95000005;stroke-linecap:butt;stroke-linejoin:miter;stroke-miterlimit:4;stroke-dasharray:none;stroke-opacity:1"
           id="path154"
           inkscape:connector-curvature="0" /></g><text
         transform="translate(535.125,595.95007)"
         style="font-variant:normal;font-weight:normal;font-size:63.52499771px;font-family:Arimo;-inkscape-font-specification:Arimo;writing-mode:lr-tb;fill:#000000;fill-opacity:1;fill-rule:nonzero;stroke:none"
         id="text158"><tspan
           x="0 35.319901 70.639801 88.236221 123.55612 141.15254 176.47244 211.79234 247.11224"
           y="0"
           sodipodi:role="line"
           id="tspan156">24.5.1954</tspan></text>
</g></g></svg>
