<?xml version="1.0" encoding="UTF-8"?>
<svg viewBox="0 0 700 280" width="700" height="280"
     font-family="sans-serif" font-size="13" fill="#1f2937"
     xmlns="http://www.w3.org/2000/svg">
  <defs>
    <marker id="arr" markerWidth="10" markerHeight="7" refX="9" refY="3.5" orient="auto">
      <polygon points="0 0, 10 3.5, 0 7" fill="#4b5563"/>
    </marker>
  </defs>

  <!-- Nadpisy sekcí -->
  <text x="100" y="20" text-anchor="middle" font-weight="bold" font-size="14">Počáteční stav</text>
  <text x="310" y="20" text-anchor="middle" font-weight="bold" font-size="14">Stav</text>
  <text x="540" y="20" text-anchor="middle" font-weight="bold" font-size="14">Koncový stav</text>

  <!-- Počáteční stav (plný kruh) -->
  <circle cx="100" cy="70" r="18" fill="#1f2937"/>
  <line x1="118" y1="70" x2="160" y2="70" stroke="#4b5563" stroke-width="2" marker-end="url(#arr)"/>

  <!-- Stav box -->
  <rect x="165" y="40" width="280" height="100" rx="8" fill="#dbeafe" stroke="#3b82f6" stroke-width="2"/>
  <text x="305" y="70" text-anchor="middle" font-weight="bold" font-size="14">název stavu</text>
  <line x1="165" y1="78" x2="445" y2="78" stroke="#3b82f6" stroke-width="1"/>
  <text x="305" y="98" text-anchor="middle" font-size="12" fill="#4b5563">stavové proměnné</text>
  <line x1="165" y1="108" x2="445" y2="108" stroke="#3b82f6" stroke-width="1"/>
  <text x="305" y="128" text-anchor="middle" font-size="12" fill="#4b5563">činnosti (entry/do/exit)</text>

  <!-- Šipka přechodu -->
  <line x1="445" y1="70" x2="490" y2="70" stroke="#4b5563" stroke-width="2" marker-end="url(#arr)"/>
  <text x="467" y="62" text-anchor="middle" font-size="11" fill="#6b7280">[podmínka]</text>

  <!-- Koncový stav (kruh s tečkou) -->
  <circle cx="540" cy="70" r="18" fill="none" stroke="#1f2937" stroke-width="2.5"/>
  <circle cx="540" cy="70" r="11" fill="#1f2937"/>

  <!-- Strážní podmínky sekce -->
  <text x="350" y="190" text-anchor="middle" font-weight="bold" font-size="13" fill="#374151">Strážní podmínka (guard)</text>
  <rect x="170" y="205" width="110" height="45" rx="8" fill="#dbeafe" stroke="#3b82f6" stroke-width="2"/>
  <text x="225" y="233" text-anchor="middle">stavA</text>
  <rect x="420" y="205" width="110" height="45" rx="8" fill="#dbeafe" stroke="#3b82f6" stroke-width="2"/>
  <text x="475" y="233" text-anchor="middle">stavB</text>
  <line x1="280" y1="228" x2="418" y2="228" stroke="#4b5563" stroke-width="2" marker-end="url(#arr)"/>
  <text x="350" y="220" text-anchor="middle" font-size="12" fill="#4b5563">[podmínka (vstup)]</text>
</svg>
