<?xml version="1.0" encoding="UTF-8"?>
<svg viewBox="0 0 700 260" width="700" height="260"
     font-family="sans-serif" font-size="13" fill="#1f2937"
     xmlns="http://www.w3.org/2000/svg">
  <defs>
    <marker id="arr" markerWidth="10" markerHeight="7" refX="9" refY="3.5" orient="auto">
      <polygon points="0 0, 10 3.5, 0 7" fill="#4b5563"/>
    </marker>
    <marker id="arr-red" markerWidth="10" markerHeight="7" refX="9" refY="3.5" orient="auto">
      <polygon points="0 0, 10 3.5, 0 7" fill="#dc2626"/>
    </marker>
  </defs>

  <!-- Pipeline -->
  <text x="350" y="20" text-anchor="middle" font-weight="bold" font-size="14">Řetěz s pevným uspořádáním (pipeline)</text>

  <!-- T1: Objednávková -->
  <rect x="20" y="50" width="150" height="55" rx="8" fill="#dbeafe" stroke="#3b82f6" stroke-width="2"/>
  <text x="95" y="74" text-anchor="middle" font-weight="bold" font-size="12">Objednávková</text>
  <text x="95" y="92" text-anchor="middle" font-size="12">transakce</text>

  <!-- Fronta 1 -->
  <rect x="200" y="60" width="100" height="35" rx="6" fill="#fef9c3" stroke="#ca8a04" stroke-width="2"/>
  <text x="250" y="82" text-anchor="middle" font-size="12">Expediční</text>
  <text x="250" y="96" text-anchor="middle" font-size="11" fill="#6b7280">fronta</text>

  <!-- T2: Expediční -->
  <rect x="330" y="50" width="140" height="55" rx="8" fill="#dcfce7" stroke="#16a34a" stroke-width="2"/>
  <text x="400" y="74" text-anchor="middle" font-weight="bold" font-size="12">Expediční</text>
  <text x="400" y="92" text-anchor="middle" font-size="12">transakce</text>

  <!-- Fronta 2 -->
  <rect x="500" y="60" width="100" height="35" rx="6" fill="#fef9c3" stroke="#ca8a04" stroke-width="2"/>
  <text x="550" y="82" text-anchor="middle" font-size="12">Fakturační</text>
  <text x="550" y="96" text-anchor="middle" font-size="11" fill="#6b7280">fronta</text>

  <!-- T3: Fakturační -->
  <rect x="620" y="50" width="60" height="55" rx="8" fill="#f3e8ff" stroke="#9333ea" stroke-width="2"/>
  <text x="650" y="74" text-anchor="middle" font-size="11">Fakturační</text>
  <text x="650" y="90" text-anchor="middle" font-size="11">transakce</text>

  <!-- Šipky pipeline -->
  <line x1="170" y1="78" x2="198" y2="78" stroke="#4b5563" stroke-width="2" marker-end="url(#arr)"/>
  <text x="184" y="70" text-anchor="middle" font-size="10" fill="#ca8a04">vlož</text>
  <line x1="300" y1="78" x2="328" y2="78" stroke="#4b5563" stroke-width="2" marker-end="url(#arr)"/>
  <text x="314" y="70" text-anchor="middle" font-size="10" fill="#16a34a">vyber</text>
  <line x1="470" y1="78" x2="498" y2="78" stroke="#4b5563" stroke-width="2" marker-end="url(#arr)"/>
  <text x="484" y="70" text-anchor="middle" font-size="10" fill="#ca8a04">vlož</text>
  <line x1="600" y1="78" x2="618" y2="78" stroke="#4b5563" stroke-width="2" marker-end="url(#arr)"/>
  <text x="609" y="70" text-anchor="middle" font-size="10" fill="#9333ea">vyber</text>

  <!-- Paralelní varianta -->
  <text x="350" y="150" text-anchor="middle" font-weight="bold" font-size="14">Podpora paralelismu</text>

  <rect x="20" y="170" width="150" height="55" rx="8" fill="#dbeafe" stroke="#3b82f6" stroke-width="2"/>
  <text x="95" y="194" text-anchor="middle" font-weight="bold" font-size="12">Objednávková</text>
  <text x="95" y="212" text-anchor="middle" font-size="12">transakce</text>

  <!-- Fronta pro exp -->
  <rect x="200" y="165" width="110" height="30" rx="6" fill="#fef9c3" stroke="#ca8a04" stroke-width="1.5"/>
  <text x="255" y="184" text-anchor="middle" font-size="11">Exp. fronta</text>

  <!-- Fronta pro fakt -->
  <rect x="200" y="205" width="110" height="30" rx="6" fill="#fef9c3" stroke="#ca8a04" stroke-width="1.5"/>
  <text x="255" y="224" text-anchor="middle" font-size="11">Fakt. fronta</text>

  <rect x="340" y="165" width="120" height="30" rx="8" fill="#dcfce7" stroke="#16a34a" stroke-width="1.5"/>
  <text x="400" y="184" text-anchor="middle" font-size="12">Expediční T</text>
  <rect x="340" y="205" width="120" height="30" rx="8" fill="#f3e8ff" stroke="#9333ea" stroke-width="1.5"/>
  <text x="400" y="224" text-anchor="middle" font-size="12">Fakturační T</text>

  <line x1="170" y1="190" x2="198" y2="180" stroke="#4b5563" stroke-width="1.5" marker-end="url(#arr)"/>
  <line x1="170" y1="200" x2="198" y2="218" stroke="#4b5563" stroke-width="1.5" marker-end="url(#arr)"/>
  <line x1="310" y1="180" x2="338" y2="180" stroke="#4b5563" stroke-width="1.5" marker-end="url(#arr)"/>
  <line x1="310" y1="220" x2="338" y2="220" stroke="#4b5563" stroke-width="1.5" marker-end="url(#arr)"/>

  <text x="510" y="184" font-size="12" fill="#16a34a">⟵ paralelně</text>
  <text x="510" y="222" font-size="12" fill="#9333ea">⟵ paralelně</text>
</svg>
