<?xml version="1.0" encoding="UTF-8"?>
<svg viewBox="0 0 720 220" width="720" height="220"
     font-family="sans-serif" font-size="13" fill="#1f2937"
     xmlns="http://www.w3.org/2000/svg">
  <defs>
    <marker id="arr" markerWidth="10" markerHeight="7" refX="9" refY="3.5" orient="auto">
      <polygon points="0 0, 10 3.5, 0 7" fill="#4b5563"/>
    </marker>
  </defs>

  <!-- Časová osa -->
  <line x1="30" y1="80" x2="700" y2="80" stroke="#9ca3af" stroke-width="1.5" marker-end="url(#arr)"/>
  <text x="710" y="84" font-size="12" fill="#6b7280">čas</text>

  <!-- begin -->
  <line x1="60" y1="60" x2="60" y2="95" stroke="#1f2937" stroke-width="2"/>
  <text x="60" y="110" text-anchor="middle" font-size="11" fill="#374151">begin</text>

  <!-- ST1 -->
  <rect x="65" y="50" width="140" height="35" rx="5" fill="#dbeafe" stroke="#3b82f6" stroke-width="1.5"/>
  <text x="135" y="72" text-anchor="middle" font-weight="bold">ST₁</text>
  <!-- commit1 -->
  <line x1="205" y1="50" x2="205" y2="95" stroke="#16a34a" stroke-width="2"/>
  <text x="205" y="110" text-anchor="middle" font-size="11" fill="#16a34a">commit</text>
  <text x="135" y="40" text-anchor="middle" font-size="11" fill="#16a34a">→ trvanlivé</text>

  <!-- ST2 -->
  <rect x="210" y="50" width="140" height="35" rx="5" fill="#dbeafe" stroke="#3b82f6" stroke-width="1.5"/>
  <text x="280" y="72" text-anchor="middle" font-weight="bold">ST₂</text>
  <line x1="350" y1="50" x2="350" y2="95" stroke="#16a34a" stroke-width="2"/>
  <text x="350" y="110" text-anchor="middle" font-size="11" fill="#16a34a">commit</text>
  <text x="280" y="40" text-anchor="middle" font-size="11" fill="#16a34a">→ trvanlivé</text>

  <!-- ST3 s havárií -->
  <rect x="355" y="50" width="100" height="35" rx="5" fill="#fee2e2" stroke="#dc2626" stroke-width="1.5" stroke-dasharray="5,3"/>
  <text x="405" y="72" text-anchor="middle" font-weight="bold">ST₃</text>
  <line x1="455" y1="50" x2="455" y2="95" stroke="#dc2626" stroke-width="2"/>
  <text x="455" y="110" text-anchor="middle" font-size="11" fill="#dc2626">havárie</text>
  <text x="405" y="40" text-anchor="middle" font-size="11" fill="#dc2626">rollback</text>

  <!-- Popis -->
  <text x="360" y="145" text-anchor="middle" font-size="13" fill="#374151">
    Po havárii: ST₁ a ST₂ zachovány, ST₃ odvolána
  </text>
  <text x="360" y="168" text-anchor="middle" font-size="12" fill="#6b7280">
    Celá zřetězená transakce <tspan font-weight="bold" fill="#dc2626">není atomická</tspan> – podtransakce jsou trvanlivé samostatně
  </text>

  <!-- Legenda pipeline -->
  <text x="30" y="200" font-size="12" fill="#6b7280">Pipeline: objednávka → expedice → fakturace (každá fáze = podtransakce)</text>
</svg>
