<?xml version="1.0" encoding="UTF-8" standalone="no"?>
<svg
   width="3235"
   height="1046"
   overflow="hidden"
   version="1.1"
   id="svg232"
   sodipodi:docname="nois.svg"
   inkscape:version="1.1.2 (0a00cf5339, 2022-02-04)"
   xmlns:inkscape="http://www.inkscape.org/namespaces/inkscape"
   xmlns:sodipodi="http://sodipodi.sourceforge.net/DTD/sodipodi-0.dtd"
   xmlns="http://www.w3.org/2000/svg"
   xmlns:svg="http://www.w3.org/2000/svg">
  <sodipodi:namedview
     id="namedview234"
     pagecolor="#ffffff"
     bordercolor="#666666"
     borderopacity="1.0"
     inkscape:pageshadow="2"
     inkscape:pageopacity="0.0"
     inkscape:pagecheckerboard="0"
     showgrid="false"
     inkscape:zoom="0.54621329"
     inkscape:cx="1461.8831"
     inkscape:cy="522.68959"
     inkscape:window-width="2560"
     inkscape:window-height="1376"
     inkscape:window-x="0"
     inkscape:window-y="0"
     inkscape:window-maximized="1"
     inkscape:current-layer="svg232" />
  <defs
     id="defs150">
    <filter
       id="fx0"
       x="-10%"
       y="-10%"
       width="120%"
       height="120%"
       filterUnits="userSpaceOnUse"
       primitiveUnits="userSpaceOnUse">
      <feComponentTransfer
         color-interpolation-filters="sRGB"
         id="feComponentTransfer10">
        <feFuncR
           type="discrete"
           tableValues="0 0"
           id="feFuncR2" />
        <feFuncG
           type="discrete"
           tableValues="0 0"
           id="feFuncG4" />
        <feFuncB
           type="discrete"
           tableValues="0 0"
           id="feFuncB6" />
        <feFuncA
           type="linear"
           slope="0.4"
           intercept="0"
           id="feFuncA8" />
      </feComponentTransfer>
      <feGaussianBlur
         stdDeviation="6.11111 6.11111"
         id="feGaussianBlur12" />
    </filter>
    <filter
       id="fx1"
       x="-10%"
       y="-10%"
       width="120%"
       height="120%"
       filterUnits="userSpaceOnUse"
       primitiveUnits="userSpaceOnUse">
      <feComponentTransfer
         color-interpolation-filters="sRGB"
         id="feComponentTransfer23">
        <feFuncR
           type="discrete"
           tableValues="0 0"
           id="feFuncR15" />
        <feFuncG
           type="discrete"
           tableValues="0 0"
           id="feFuncG17" />
        <feFuncB
           type="discrete"
           tableValues="0 0"
           id="feFuncB19" />
        <feFuncA
           type="linear"
           slope="0.4"
           intercept="0"
           id="feFuncA21" />
      </feComponentTransfer>
      <feGaussianBlur
         stdDeviation="6.11111 6.11111"
         id="feGaussianBlur25" />
    </filter>
    <filter
       id="fx2"
       x="-10%"
       y="-10%"
       width="120%"
       height="120%"
       filterUnits="userSpaceOnUse"
       primitiveUnits="userSpaceOnUse">
      <feComponentTransfer
         color-interpolation-filters="sRGB"
         id="feComponentTransfer36">
        <feFuncR
           type="discrete"
           tableValues="0 0"
           id="feFuncR28" />
        <feFuncG
           type="discrete"
           tableValues="0 0"
           id="feFuncG30" />
        <feFuncB
           type="discrete"
           tableValues="0 0"
           id="feFuncB32" />
        <feFuncA
           type="linear"
           slope="0.4"
           intercept="0"
           id="feFuncA34" />
      </feComponentTransfer>
      <feGaussianBlur
         stdDeviation="6.11111 6.11111"
         id="feGaussianBlur38" />
    </filter>
    <filter
       id="fx3"
       x="-10%"
       y="-10%"
       width="120%"
       height="120%"
       filterUnits="userSpaceOnUse"
       primitiveUnits="userSpaceOnUse">
      <feComponentTransfer
         color-interpolation-filters="sRGB"
         id="feComponentTransfer49">
        <feFuncR
           type="discrete"
           tableValues="0 0"
           id="feFuncR41" />
        <feFuncG
           type="discrete"
           tableValues="0 0"
           id="feFuncG43" />
        <feFuncB
           type="discrete"
           tableValues="0 0"
           id="feFuncB45" />
        <feFuncA
           type="linear"
           slope="0.4"
           intercept="0"
           id="feFuncA47" />
      </feComponentTransfer>
      <feGaussianBlur
         stdDeviation="6.11111 6.11111"
         id="feGaussianBlur51" />
    </filter>
    <filter
       id="fx4"
       x="-10%"
       y="-10%"
       width="120%"
       height="120%"
       filterUnits="userSpaceOnUse"
       primitiveUnits="userSpaceOnUse">
      <feComponentTransfer
         color-interpolation-filters="sRGB"
         id="feComponentTransfer62">
        <feFuncR
           type="discrete"
           tableValues="0 0"
           id="feFuncR54" />
        <feFuncG
           type="discrete"
           tableValues="0 0"
           id="feFuncG56" />
        <feFuncB
           type="discrete"
           tableValues="0 0"
           id="feFuncB58" />
        <feFuncA
           type="linear"
           slope="0.4"
           intercept="0"
           id="feFuncA60" />
      </feComponentTransfer>
      <feGaussianBlur
         stdDeviation="6.11111 6.11111"
         id="feGaussianBlur64" />
    </filter>
    <filter
       id="fx5"
       x="-10%"
       y="-10%"
       width="120%"
       height="120%"
       filterUnits="userSpaceOnUse"
       primitiveUnits="userSpaceOnUse">
      <feComponentTransfer
         color-interpolation-filters="sRGB"
         id="feComponentTransfer75">
        <feFuncR
           type="discrete"
           tableValues="0 0"
           id="feFuncR67" />
        <feFuncG
           type="discrete"
           tableValues="0 0"
           id="feFuncG69" />
        <feFuncB
           type="discrete"
           tableValues="0 0"
           id="feFuncB71" />
        <feFuncA
           type="linear"
           slope="0.4"
           intercept="0"
           id="feFuncA73" />
      </feComponentTransfer>
      <feGaussianBlur
         stdDeviation="6.11111 6.11111"
         id="feGaussianBlur77" />
    </filter>
    <filter
       id="fx6"
       x="-10%"
       y="-10%"
       width="120%"
       height="120%"
       filterUnits="userSpaceOnUse"
       primitiveUnits="userSpaceOnUse">
      <feComponentTransfer
         color-interpolation-filters="sRGB"
         id="feComponentTransfer88">
        <feFuncR
           type="discrete"
           tableValues="0 0"
           id="feFuncR80" />
        <feFuncG
           type="discrete"
           tableValues="0 0"
           id="feFuncG82" />
        <feFuncB
           type="discrete"
           tableValues="0 0"
           id="feFuncB84" />
        <feFuncA
           type="linear"
           slope="0.4"
           intercept="0"
           id="feFuncA86" />
      </feComponentTransfer>
      <feGaussianBlur
         stdDeviation="6.11111 6.11111"
         id="feGaussianBlur90" />
    </filter>
    <clipPath
       id="clip7">
      <rect
         x="698"
         y="1029"
         width="3235"
         height="1046"
         id="rect93" />
    </clipPath>
    <clipPath
       id="clip8">
      <path
         d="M2262 1612.5C2060.14 1612.5 1896.5 1708.53 1896.5 1827 1896.5 1945.47 2060.14 2041.5 2262 2041.5 2463.86 2041.5 2627.5 1945.47 2627.5 1827 2627.5 1708.53 2463.86 1612.5 2262 1612.5ZM698 1029 3933 1029 3933 2075 698 2075Z"
         fill-rule="evenodd"
         clip-rule="evenodd"
         id="path96" />
    </clipPath>
    <clipPath
       id="clip9">
      <rect
         x="-16"
         y="-16"
         width="261"
         height="172"
         id="rect99" />
    </clipPath>
    <clipPath
       id="clip10">
      <rect
         x="0"
         y="0"
         width="780"
         height="478"
         id="rect102" />
    </clipPath>
    <clipPath
       id="clip11">
      <path
         d="M1816.5 1056.5 1816.5 1355.5 2750.5 1355.5 2750.5 1056.5ZM698 1029 3933 1029 3933 2075 698 2075Z"
         fill-rule="evenodd"
         clip-rule="evenodd"
         id="path105" />
    </clipPath>
    <clipPath
       id="clip12">
      <rect
         x="-16"
         y="-16"
         width="320"
         height="134"
         id="rect108" />
    </clipPath>
    <clipPath
       id="clip13">
      <rect
         x="0"
         y="0"
         width="983"
         height="348"
         id="rect111" />
    </clipPath>
    <clipPath
       id="clip14">
      <rect
         x="15"
         y="15"
         width="137"
         height="82"
         id="rect114" />
    </clipPath>
    <clipPath
       id="clip15">
      <rect
         x="0"
         y="0"
         width="581"
         height="423"
         id="rect117" />
    </clipPath>
    <clipPath
       id="clip16">
      <path
         d="M711.5 1678.5 711.5 1977.5 1505.5 1977.5 1505.5 1678.5ZM698 1029 3933 1029 3933 2075 698 2075Z"
         fill-rule="evenodd"
         clip-rule="evenodd"
         id="path120" />
    </clipPath>
    <clipPath
       id="clip17">
      <rect
         x="-16"
         y="-16"
         width="278"
         height="134"
         id="rect123" />
    </clipPath>
    <clipPath
       id="clip18">
      <rect
         x="0"
         y="0"
         width="843"
         height="348"
         id="rect126" />
    </clipPath>
    <clipPath
       id="clip19">
      <rect
         x="15"
         y="15"
         width="168"
         height="93"
         id="rect129" />
    </clipPath>
    <clipPath
       id="clip20">
      <rect
         x="0"
         y="0"
         width="683"
         height="423"
         id="rect132" />
    </clipPath>
    <clipPath
       id="clip21">
      <path
         d="M3080.5 1678.5 3080.5 1977.5 3899.5 1977.5 3899.5 1678.5ZM698 1029 3933 1029 3933 2075 698 2075Z"
         fill-rule="evenodd"
         clip-rule="evenodd"
         id="path135" />
    </clipPath>
    <clipPath
       id="clip22">
      <rect
         x="-16"
         y="-16"
         width="285"
         height="134"
         id="rect138" />
    </clipPath>
    <clipPath
       id="clip23">
      <rect
         x="0"
         y="0"
         width="868"
         height="348"
         id="rect141" />
    </clipPath>
    <clipPath
       id="clip24">
      <rect
         x="15"
         y="11"
         width="192"
         height="97"
         id="rect144" />
    </clipPath>
    <clipPath
       id="clip25">
      <rect
         x="0"
         y="0"
         width="768"
         height="423"
         id="rect147" />
    </clipPath>
  </defs>
  <g
     clip-path="url(#clip8)"
     id="g160"
     transform="translate(-698,-1029)">
    <g
       clip-path="url(#clip9)"
       filter="url(#fx0)"
       transform="translate(1882,1598)"
       id="g158">
      <g
         clip-path="url(#clip10)"
         id="g156">
        <path
           d="m 24.2227,238.723 c 0,-118.465 163.6403,-214.5002 365.5003,-214.5002 201.86,0 365.5,96.0352 365.5,214.5002 0,118.465 -163.64,214.5 -365.5,214.5 -201.86,0 -365.5003,-96.035 -365.5003,-214.5 z"
           stroke="#3e4247"
           stroke-width="9"
           stroke-linejoin="round"
           stroke-miterlimit="10"
           fill="#dcdde0"
           fill-rule="evenodd"
           id="path154" />
      </g>
    </g>
  </g>
  <g
     clip-path="url(#clip11)"
     id="g178"
     transform="translate(-698,-1029)">
    <g
       clip-path="url(#clip12)"
       filter="url(#fx1)"
       transform="translate(1802,1042)"
       id="g170">
      <g
         clip-path="url(#clip13)"
         id="g168">
        <rect
           x="24.2225"
           y="24.2225"
           width="934"
           height="299"
           stroke="#3e4247"
           stroke-width="9"
           stroke-miterlimit="8"
           fill="#dcdde0"
           id="rect166" />
      </g>
    </g>
    <g
       clip-path="url(#clip14)"
       filter="url(#fx2)"
       transform="translate(2002,1028)"
       id="g176">
      <g
         clip-path="url(#clip15)"
         id="g174">
        <path
           d="m 41.1035,-87.2109 c -4.0508,0 -7.6548,0.6255 -10.812,1.8764 -3.1572,1.251 -5.6145,3.0232 -7.3718,5.3167 -1.7573,2.2934 -2.636,4.989 -2.636,8.0867 0,3.2763 0.7297,5.9719 2.1892,8.0866 1.4595,2.1148 3.9614,3.9019 7.5059,5.3613 3.5444,1.4595 8.5334,2.7552 14.967,3.887 8.042,1.4893 14.4905,3.3955 19.3455,5.7188 4.8549,2.3232 8.4143,5.2719 10.6779,8.8462 2.2637,3.5742 3.3955,8.0122 3.3955,13.3139 0,5.5401 -1.4743,10.4993 -4.4231,14.8777 C 70.9929,-7.46118 66.8677,-4.021 61.5659,-1.51904 56.2642,0.98291 50.2178,2.23389 43.4268,2.23389 33.1807,2.23389 24.96,-0.0595704 18.7646,-4.64648 12.5693,-9.2334 8.57812,-16.0542 6.79102,-25.1089 L 18.1392,-26.896 c 2.7402,12.9268 11.1396,19.39014 25.1982,19.39014 4.7656,0 8.8909,-0.75952 12.3757,-2.27856 3.4849,-1.51908 6.1656,-3.63378 8.042,-6.34428 1.8765,-2.7104 2.8147,-5.7932 2.8147,-9.2483 0,-3.7529 -0.9233,-6.791 -2.77,-9.1142 -1.8467,-2.3232 -4.7358,-4.1997 -8.6675,-5.6294 -3.9316,-1.4297 -9.3525,-2.77 -16.2627,-4.021 -10.0078,-1.7275 -17.469,-4.7209 -22.3835,-8.9802 -4.9146,-4.2593 -7.37184,-10.1419 -7.37184,-17.6477 0,-5.0039 1.31054,-9.4866 3.93164,-13.448 2.6211,-3.9614 6.3442,-7.074 11.1694,-9.3377 4.8252,-2.2636 10.4546,-3.3955 16.8882,-3.3955 9.1738,0 16.6946,1.951 22.5623,5.8528 5.8676,3.9019 9.7546,9.6355 11.6609,17.2009 l -11.2588,1.6084 c -1.0723,-4.7656 -3.5891,-8.4441 -7.5506,-11.0354 -3.9614,-2.5913 -9.0993,-3.8869 -15.4138,-3.8869 z m 90.9045,-7.5952 v 9.3823 h -17.871 v 62.1914 c 0,4.0508 0.343,7.1037 1.028,9.1589 0.685,2.0552 1.757,3.4253 3.216,4.11037 1.46,0.68505 3.5,1.02758 6.121,1.02758 2.681,0 5.362,-0.3872 8.042,-1.16165 l 1.609,9.918489 c -5.064,0.833984 -8.936,1.250981 -11.617,1.250981 -5.599,0 -9.829,-0.863774 -12.688,-2.59131 -2.859,-1.72754 -4.781,-4.36353 -5.763,-7.90796 -0.983,-3.5444 -1.475,-8.4739 -1.475,-14.7883 V -85.4238 H 89.0282 v -9.3823 H 102.61 v -22.6959 l 11.527,-8.221 v 30.9169 z M 225.231,0 h -11.884 c -1.608,-3.8125 -2.621,-8.57812 -3.038,-14.2969 l -0.268,-0.0893 c -4.289,5.59958 -9.129,9.7695 -14.52,12.50974 -5.392,2.740229 -11.81,4.11035 -19.257,4.11035 -5.778,0 -10.841,-1.11695 -15.19,-3.35083 -4.349,-2.23389 -7.714,-5.34644 -10.097,-9.33766 -2.383,-3.9912 -3.574,-8.5483 -3.574,-13.6714 0,-5.4804 1.161,-10.1418 3.485,-13.9841 2.323,-3.8423 6.046,-7.0293 11.169,-9.561 5.123,-2.5318 11.884,-4.4231 20.284,-5.6741 12.45,-1.8467 21.505,-3.8423 27.164,-5.9868 v -3.4849 c 0,-5.8974 -0.656,-10.5886 -1.966,-14.0735 -1.311,-3.4848 -3.679,-6.0761 -7.104,-7.7739 -3.425,-1.6978 -8.295,-2.5466 -14.609,-2.5466 -13.702,0 -21.922,6.1953 -24.663,18.5859 l -11.348,-1.6084 c 1.907,-8.7568 5.957,-15.3989 12.153,-19.9263 6.195,-4.5273 14.386,-6.791 24.572,-6.791 7.864,0 14.312,1.0425 19.346,3.1275 5.033,2.0849 8.816,5.4655 11.348,10.1418 2.532,4.6763 3.798,10.9163 3.798,18.72 v 35.5635 c 0,8.1611 0.282,14.1628 0.848,18.0051 0.566,3.84226 1.683,7.63987 3.351,11.3928 z m -43.963,-43.3374 c -7.863,1.4893 -13.492,3.7529 -16.888,6.791 -3.395,3.0381 -5.093,7.1782 -5.093,12.4204 0,5.3018 1.742,9.4568 5.227,12.4651 3.485,3.00831 8.385,4.51246 14.699,4.51246 2.323,0 4.989,-0.44677 7.998,-1.34033 3.008,-0.89355 5.867,-2.14453 8.578,-3.75293 2.71,-1.6084 4.87,-3.3955 6.478,-5.3613 2.085,-2.5615 3.604,-4.7805 4.557,-6.657 0.953,-1.8765 1.638,-4.3933 2.055,-7.5505 0.417,-3.1573 0.626,-7.6846 0.626,-13.5821 v -4.9145 c -1.609,0.7744 -4.825,1.7722 -9.651,2.9934 -4.825,1.2212 -11.02,2.5466 -18.586,3.9763 z m 127.614,-51.4687 h 11.884 L 283.595,0 h -10.187 l -37.172,-94.8061 h 11.884 l 30.381,81.0454 z"
           fill="#292c30"
           transform="translate(129.597,253)"
           id="path172" />
      </g>
    </g>
  </g>
  <rect
     x="1118.5"
     y="27.5"
     width="934"
     height="299"
     stroke="#3e4247"
     stroke-width="9.16667"
     stroke-miterlimit="8"
     fill="#dcdde0"
     id="rect180" />
  <text
     fill="#292c30"
     font-family="'Arial Nova Light', 'Arial Nova Light_MSFontService', sans-serif"
     font-weight="300"
     font-size="183px"
     id="text182"
     x="1423.87"
     y="242">stav</text>
  <g
     id="g1419"
     transform="translate(606.58759)">
    <g
       clip-path="url(#clip16)"
       id="g196"
       transform="translate(-698,-1029)">
      <g
         clip-path="url(#clip17)"
         filter="url(#fx3)"
         transform="translate(697,1664)"
         id="g188">
        <g
           clip-path="url(#clip18)"
           id="g186">
          <rect
             x="24.222799"
             y="24.222799"
             width="794"
             height="299"
             stroke="#3e4247"
             stroke-width="9"
             stroke-miterlimit="8"
             fill="#dcdde0"
             id="rect184" />
        </g>
      </g>
      <g
         clip-path="url(#clip19)"
         filter="url(#fx4)"
         transform="translate(776,1637)"
         id="g194">
        <g
           clip-path="url(#clip20)"
           id="g192">
          <path
             d="M 73.9863,-94.8061 H 85.8706 L 48.6987,0 H 38.5122 L 1.34033,-94.8061 H 13.2246 l 30.3809,81.0454 z m 54.2007,7.5952 c -4.051,0 -7.655,0.6255 -10.812,1.8764 -3.157,1.251 -5.615,3.0232 -7.372,5.3167 -1.757,2.2934 -2.636,4.989 -2.636,8.0867 0,3.2763 0.73,5.9719 2.189,8.0866 1.46,2.1148 3.962,3.9019 7.506,5.3613 3.545,1.4595 8.534,2.7552 14.967,3.887 8.042,1.4893 14.491,3.3955 19.346,5.7188 4.855,2.3232 8.414,5.2719 10.678,8.8462 2.263,3.5742 3.395,8.0122 3.395,13.3139 0,5.5401 -1.474,10.4993 -4.423,14.8777 -2.949,4.37842 -7.074,7.8186 -12.376,10.32056 -5.302,2.50195 -11.348,3.75293 -18.139,3.75293 -10.246,0 -18.467,-2.2934604 -24.662,-6.88037 C 99.6527,-9.2334 95.6615,-16.0542 93.8743,-25.1089 l 11.3477,-1.7871 c 2.741,12.9268 11.14,19.39014 25.199,19.39014 4.765,0 8.891,-0.75952 12.375,-2.27856 3.485,-1.51908 6.166,-3.63378 8.042,-6.34428 1.877,-2.7104 2.815,-5.7932 2.815,-9.2483 0,-3.7529 -0.923,-6.791 -2.77,-9.1142 -1.847,-2.3232 -4.736,-4.1997 -8.667,-5.6294 -3.932,-1.4297 -9.353,-2.77 -16.263,-4.021 -10.008,-1.7275 -17.469,-4.7209 -22.384,-8.9802 -4.9141,-4.2593 -7.3714,-10.1419 -7.3714,-17.6477 0,-5.0039 1.3105,-9.4866 3.9314,-13.448 2.621,-3.9614 6.344,-7.074 11.17,-9.3377 4.825,-2.2636 10.454,-3.3955 16.888,-3.3955 9.174,0 16.694,1.951 22.562,5.8528 5.868,3.9019 9.755,9.6355 11.661,17.2009 l -11.259,1.6084 c -1.072,-4.7656 -3.589,-8.4441 -7.55,-11.0354 -3.962,-2.5913 -9.1,-3.8869 -15.414,-3.8869 z m 90.904,-7.5952 v 9.3823 H 201.22 v 62.1914 c 0,4.0508 0.343,7.1037 1.028,9.1589 0.685,2.0552 1.757,3.4253 3.217,4.11037 1.459,0.68505 3.499,1.02758 6.121,1.02758 2.68,0 5.361,-0.3872 8.042,-1.16165 l 1.608,9.918489 C 216.173,0.655273 212.3,1.07227 209.62,1.07227 c -5.6,0 -9.829,-0.863774 -12.689,-2.59131 -2.859,-1.72754 -4.78,-4.36353 -5.763,-7.90796 -0.983,-3.5444 -1.474,-8.4739 -1.474,-14.7883 v -61.2085 h -13.583 v -9.3823 h 13.583 v -22.6959 l 11.526,-8.221 v 30.9169 z m 52.12,86.94282 c 8.995,0 15.98,-2.91892 20.954,-8.75682 4.974,-5.8379 7.461,-14.2373 7.461,-25.1983 v -52.9877 h 11.527 V 0 h -10.812 v -15.1904 c -3.276,5.54001 -7.551,9.82907 -12.823,12.86716 -5.272,3.038084 -11.065,4.55713 -17.379,4.55713 -10.425,0 -18.422,-2.814701 -23.992,-8.44409 -5.57,-5.6294 -8.355,-13.5374 -8.355,-23.7239 v -64.872 h 11.527 v 63.353 c 0,7.5654 1.832,13.3884 5.495,17.469 3.664,4.08054 9.13,6.12082 16.397,6.12082 z m 76.219,-6.07622 h -0.358 V 36.2783 H 335.545 V -94.8061 h 10.812 v 15.5478 l 0.447,-0.0893 c 4.23,-6.2549 9.01,-10.7525 14.342,-13.4927 5.331,-2.7403 11.303,-4.1104 17.916,-4.1104 7.922,0 14.788,2.0999 20.596,6.2996 5.808,4.1997 10.246,9.9929 13.314,17.3796 3.068,7.3867 4.602,15.7266 4.602,25.0196 0,10.0673 -1.579,18.8986 -4.736,26.4938 -3.157,7.5953 -7.7,13.49272 -13.627,17.69243 -5.927,4.199703 -12.912,6.29956 -20.954,6.29956 -6.85,0 -12.748,-1.265873 -17.692,-3.79761 -4.944,-2.53174 -9.323,-6.65698 -13.135,-12.37578 z m 29.934,-73.2714 c -6.672,0 -12.316,1.7722 -16.933,5.3166 -4.617,3.5445 -8.087,8.4292 -10.41,14.6543 -2.323,6.2251 -3.485,13.3587 -3.485,21.4006 0,7.9825 1.266,14.8628 3.798,20.6412 2.531,5.7783 6.076,10.1716 10.633,13.1799 4.557,3.00829 9.874,4.51244 15.95,4.51244 5.838,0 10.931,-1.65308 15.28,-4.95924 4.348,-3.3061 7.684,-8.0122 10.008,-14.1182 2.323,-6.1059 3.484,-13.2692 3.484,-21.4899 0,-7.8037 -1.161,-14.6692 -3.484,-20.5965 -2.324,-5.9272 -5.63,-10.4992 -9.919,-13.716 -4.289,-3.2168 -9.263,-4.8252 -14.922,-4.8252 z"
             fill="#292c30"
             transform="translate(129.642,252)"
             id="path190" />
        </g>
      </g>
    </g>
    <rect
       x="13.5"
       y="649.5"
       width="794"
       height="299"
       stroke="#3e4247"
       stroke-width="9.16667"
       stroke-miterlimit="8"
       fill="#dcdde0"
       id="rect198" />
    <text
       fill="#292c30"
       font-family="'Arial Nova Light', 'Arial Nova Light_MSFontService', sans-serif"
       font-weight="300"
       font-size="183px"
       id="text200"
       x="197.91901"
       y="851">vstup</text>
  </g>
  <g
     clip-path="url(#clip21)"
     id="g214"
     transform="translate(-698,-1029)">
    <g
       clip-path="url(#clip22)"
       filter="url(#fx5)"
       transform="translate(3066,1664)"
       id="g206">
      <g
         clip-path="url(#clip23)"
         id="g204">
        <rect
           x="24.2227"
           y="24.222799"
           width="819"
           height="299"
           stroke="#3e4247"
           stroke-width="9"
           stroke-miterlimit="8"
           fill="#dcdde0"
           id="rect202" />
      </g>
    </g>
    <g
       clip-path="url(#clip24)"
       filter="url(#fx6)"
       transform="translate(3115,1637)"
       id="g212">
      <g
         clip-path="url(#clip25)"
         id="g210">
        <path
           d="M 73.9863,-94.8061 H 85.8706 L 48.6987,0 H 38.5122 L 1.34033,-94.8061 H 13.2246 l 30.3809,81.0454 z m 56.2557,81.6708 h 0.357 c 1.788,-6.0761 4.706,-14.6542 8.757,-25.7343 l 20.641,-55.9365 h 11.349 L 130.599,13.8501 c -2.382,6.3144 -4.795,11.2439 -7.237,14.7883 -2.443,3.5445 -5.109,6.0613 -7.998,7.5506 -2.889,1.4892 -6.329,2.2338 -10.32,2.2338 -3.932,0 -7.7444,-0.4765 -11.4377,-1.4296 l 2.4126,-9.7398 c 1.0722,0.3574 2.3083,0.6255 3.7082,0.8042 1.3999,0.1787 2.6659,0.2681 3.7979,0.2681 3.038,0 5.51,-0.5064 7.416,-1.5191 1.906,-1.0127 3.589,-2.7402 5.049,-5.1826 1.459,-2.4424 3.053,-5.9868 4.78,-10.6333 L 124.523,0.536133 88.8704,-94.8061 h 12.2416 l 20.284,55.2216 c 3.276,8.9951 6.225,17.8116 8.846,26.4492 z m -6.791,-94.0917 13.671,-23.768 h 15.638 l -20.105,23.768 z m 90.1,20.0161 c -4.05,0 -7.654,0.6255 -10.812,1.8764 -3.157,1.251 -5.614,3.0232 -7.371,5.3167 -1.758,2.2934 -2.636,4.989 -2.636,8.0867 0,3.2763 0.729,5.9719 2.189,8.0866 1.459,2.1148 3.961,3.9019 7.506,5.3613 3.544,1.4595 8.533,2.7552 14.967,3.887 8.042,1.4893 14.49,3.3955 19.345,5.7188 4.855,2.3232 8.414,5.2719 10.678,8.8462 2.264,3.5742 3.396,8.0122 3.396,13.3139 0,5.5401 -1.475,10.4993 -4.423,14.8777 -2.949,4.37842 -7.074,7.8186 -12.376,10.32056 -5.302,2.50195 -11.348,3.75293 -18.139,3.75293 -10.246,0 -18.467,-2.2934604 -24.662,-6.88037 -6.196,-4.58692 -10.187,-11.40772 -11.974,-20.46242 l 11.348,-1.7871 c 2.74,12.9268 11.14,19.39014 25.198,19.39014 4.766,0 8.891,-0.75952 12.376,-2.27856 3.485,-1.51908 6.166,-3.63378 8.042,-6.34428 1.876,-2.7104 2.815,-5.7932 2.815,-9.2483 0,-3.7529 -0.924,-6.791 -2.77,-9.1142 -1.847,-2.3232 -4.736,-4.1997 -8.668,-5.6294 -3.931,-1.4297 -9.352,-2.77 -16.262,-4.021 -10.008,-1.7275 -17.469,-4.7209 -22.384,-8.9802 -4.915,-4.2593 -7.372,-10.1419 -7.372,-17.6477 0,-5.0039 1.311,-9.4866 3.932,-13.448 2.621,-3.9614 6.344,-7.074 11.169,-9.3377 4.825,-2.2636 10.455,-3.3955 16.888,-3.3955 9.174,0 16.695,1.951 22.563,5.8528 5.867,3.9019 9.754,9.6355 11.661,17.2009 l -11.259,1.6084 c -1.073,-4.7656 -3.589,-8.4441 -7.551,-11.0354 -3.961,-2.5913 -9.099,-3.8869 -15.414,-3.8869 z m 90.905,-7.5952 v 9.3823 h -17.871 v 62.1914 c 0,4.0508 0.342,7.1037 1.028,9.1589 0.685,2.0552 1.757,3.4253 3.216,4.11037 1.46,0.68505 3.5,1.02758 6.121,1.02758 2.681,0 5.362,-0.3872 8.042,-1.16165 l 1.609,9.918489 c -5.064,0.833984 -8.936,1.250981 -11.617,1.250981 -5.599,0 -9.829,-0.863774 -12.688,-2.59131 -2.859,-1.72754 -4.781,-4.36353 -5.764,-7.90796 -0.982,-3.5444 -1.474,-8.4739 -1.474,-14.7883 v -61.2085 h -13.582 v -9.3823 h 13.582 v -22.6959 l 11.527,-8.221 v 30.9169 z m 52.12,86.94282 c 8.995,0 15.979,-2.91892 20.954,-8.75682 4.974,-5.8379 7.461,-14.2373 7.461,-25.1983 v -52.9877 h 11.527 V 0 h -10.812 v -15.1904 c -3.277,5.54001 -7.551,9.82907 -12.823,12.86716 -5.272,3.038084 -11.065,4.55713 -17.38,4.55713 -10.424,0 -18.422,-2.814701 -23.992,-8.44409 -5.569,-5.6294 -8.354,-13.5374 -8.354,-23.7239 v -64.872 h 11.527 v 63.353 c 0,7.5654 1.831,13.3884 5.495,17.469 3.664,4.08054 9.129,6.12082 16.397,6.12082 z m 76.218,-6.07622 h -0.357 V 36.2783 H 420.91 V -94.8061 h 10.812 v 15.5478 l 0.447,-0.0893 c 4.229,-6.2549 9.01,-10.7525 14.341,-13.4927 5.332,-2.7403 11.304,-4.1104 17.916,-4.1104 7.923,0 14.788,2.0999 20.597,6.2996 5.808,4.1997 10.246,9.9929 13.313,17.3796 3.068,7.3867 4.602,15.7266 4.602,25.0196 0,10.0673 -1.578,18.8986 -4.736,26.4938 -3.157,7.5953 -7.699,13.49272 -13.626,17.69243 -5.928,4.199703 -12.912,6.29956 -20.954,6.29956 -6.851,0 -12.748,-1.265873 -17.692,-3.79761 -4.945,-2.53174 -9.323,-6.65698 -13.136,-12.37578 z m 29.934,-73.2714 c -6.672,0 -12.316,1.7722 -16.933,5.3166 -4.616,3.5445 -8.086,8.4292 -10.409,14.6543 -2.324,6.2251 -3.485,13.3587 -3.485,21.4006 0,7.9825 1.266,14.8628 3.797,20.6412 2.532,5.7783 6.076,10.1716 10.634,13.1799 4.557,3.00829 9.873,4.51244 15.95,4.51244 5.837,0 10.931,-1.65308 15.279,-4.95924 4.349,-3.3061 7.685,-8.0122 10.008,-14.1182 2.323,-6.1059 3.485,-13.2692 3.485,-21.4899 0,-7.8037 -1.162,-14.6692 -3.485,-20.5965 -2.323,-5.9272 -5.629,-10.4992 -9.918,-13.716 -4.289,-3.2168 -9.263,-4.8252 -14.923,-4.8252 z"
           fill="#292c30"
           transform="translate(129.438,252)"
           id="path208" />
      </g>
    </g>
  </g>
  <g
     id="g1423"
     transform="translate(-669.36159)">
    <rect
       x="2382.5"
       y="649.5"
       width="819"
       height="299"
       stroke="#3e4247"
       stroke-width="9.16667"
       stroke-miterlimit="8"
       fill="#dcdde0"
       id="rect216" />
    <text
       fill="#292c30"
       font-family="'Arial Nova Light', 'Arial Nova Light_MSFontService', sans-serif"
       font-weight="300"
       font-size="183px"
       id="text218"
       x="2536.72"
       y="851">výstup</text>
  </g>
  <path
     d="m 2167.198,140.43947 2.96,493.62326 c 0.01,1.95269 -2.03,3.54264 -4.56,3.55807 -2.53,0.007 -4.6,-1.57451 -4.61,-3.5272 l -2.95,-493.62325 c -0.02,-1.9527 2.03,-3.54264 4.56,-3.55036 2.53,-0.007 4.59,1.56679 4.6,3.51948 z m 25.12,463.42206 -26.7,37.50259 -27.15,-37.30964 c -1.24,-1.70571 -0.45,-3.85908 1.75,-4.81614 2.21,-0.95705 5.01,-0.35503 6.25,1.35068 l 23.1,31.75255 -8.01,0.0309 22.73,-31.91464 c 1.21,-1.71343 4,-2.3386 6.22,-1.39698 2.22,0.94162 3.03,3.08726 1.81,4.8007 z"
     fill="#3e4247"
     id="path220"
     style="stroke-width:0.999998" />
  <path
     d="m 2058.4831,141.5 h 105"
     stroke="#3e4247"
     stroke-width="9.16667"
     stroke-linejoin="round"
     stroke-miterlimit="10"
     fill="none"
     fill-rule="evenodd"
     id="path222" />
  <path
     d="m 1000.9942,136.19698 h 101.56 l -10e-5,9.16 h -101.5599 z m 62.5299,-22.34 48.47,26.92 -48.47,26.92 c -2.2099,1.23 -5,0.44 -6.2299,-1.78 -1.2299,-2.2101 -0.4301,-5 1.78,-6.23 l 41.25,-22.92 -2e-4,8.0201 -41.2499,-22.9201 c -2.2099,-1.23 -3.01,-4.02 -1.78,-6.23 1.2301,-2.21 4.0201,-3.01 6.23,-1.78 z"
     fill="#3e4247"
     id="path224" />
  <path
     d="M 1006.0885,143.60852 V 631.77401"
     stroke="#3e4247"
     stroke-width="9.16671"
     stroke-linecap="round"
     stroke-linejoin="round"
     stroke-miterlimit="10"
     fill="none"
     fill-rule="evenodd"
     id="path226" />
</svg>
