<svg width="3061" height="787" xmlns="http://www.w3.org/2000/svg" xmlns:xlink="http://www.w3.org/1999/xlink" overflow="hidden"><defs><clipPath id="clip0"><rect x="735" y="774" width="3061" height="787"/></clipPath></defs><g clip-path="url(#clip0)" transform="translate(-735 -774)"><path d="M736.5 980.5C736.5 908.703 980.729 850.5 1282 850.5 1583.27 850.5 1827.5 908.703 1827.5 980.5 1827.5 1052.3 1583.27 1110.5 1282 1110.5 980.729 1110.5 736.5 1052.3 736.5 980.5Z" stroke="#000000" stroke-width="3.4375" stroke-linejoin="round" stroke-miterlimit="10" fill="#BBE0E3" fill-rule="evenodd"/><text font-family="Arial,Arial_MSFontService,sans-serif" font-weight="700" font-size="83" transform="matrix(1 0 0 1 853.037 1011)">http://novak.cz/clanek</text><path d="M1827 974.844 2404.59 974.844 2404.59 985.157 1827 985.156ZM2399.44 954.219 2451 980 2399.44 1005.78Z"/><text font-family="Arial,Arial_MSFontService,sans-serif" font-weight="700" font-size="83" transform="matrix(1 0 0 1 1826.56 880)">doc:<tspan font-size="83" x="174.167" y="0">authored_by</tspan></text><path d="M2451.5 980.5C2451.5 908.703 2695.73 850.5 2997 850.5 3298.27 850.5 3542.5 908.703 3542.5 980.5 3542.5 1052.3 3298.27 1110.5 2997 1110.5 2695.73 1110.5 2451.5 1052.3 2451.5 980.5Z" stroke="#000000" stroke-width="3.4375" stroke-linejoin="round" stroke-miterlimit="10" fill="#BBE0E3" fill-rule="evenodd"/><text font-family="Arial,Arial_MSFontService,sans-serif" font-weight="700" font-size="83" transform="matrix(1 0 0 1 2636.53 1011)">http://jan.novak.cz</text><path d="M1697.5 1400.83C1697.5 1384.08 1711.08 1370.5 1727.83 1370.5L2421.17 1370.5C2437.92 1370.5 2451.5 1384.08 2451.5 1400.83L2451.5 1522.17C2451.5 1538.92 2437.92 1552.5 2421.17 1552.5L1727.83 1552.5C1711.08 1552.5 1697.5 1538.92 1697.5 1522.17Z" stroke="#000000" stroke-width="3.4375" stroke-linejoin="round" stroke-miterlimit="10" fill="#BBE0E3" fill-rule="evenodd"/><text font-family="Arial,Arial_MSFontService,sans-serif" font-weight="400" font-size="83" transform="matrix(1 0 0 1 1851.63 1492)">“Jan Nov<tspan font-size="83" x="330" y="0">ák</tspan><tspan font-size="83" x="417.083" y="0">”</tspan></text><path d="M2659.5 1400.83C2659.5 1384.08 2673.08 1370.5 2689.83 1370.5L3382.17 1370.5C3398.92 1370.5 3412.5 1384.08 3412.5 1400.83L3412.5 1522.17C3412.5 1538.92 3398.92 1552.5 3382.17 1552.5L2689.83 1552.5C2673.08 1552.5 2659.5 1538.92 2659.5 1522.17Z" stroke="#000000" stroke-width="3.4375" stroke-linejoin="round" stroke-miterlimit="10" fill="#BBE0E3" fill-rule="evenodd"/><text font-family="Arial,Arial_MSFontService,sans-serif" font-weight="400" font-size="83" transform="matrix(1 0 0 1 2900.07 1492)">“<tspan font-size="83" x="27.5" y="0">česká</tspan><tspan font-size="83" x="242.917" y="0">”</tspan></text><path d="M1.68089-4.87458 711.809 239.997 708.447 249.746-1.68089 4.87458ZM713.658 218.818 754 260 696.85 267.564Z" transform="matrix(-1 0 0 1 2867 1110)"/><path d="M3054.16 1110 3054.16 1323.59 3043.84 1323.59 3043.84 1110ZM3074.78 1318.44 3049 1370 3023.22 1318.44Z"/><text font-family="Arial,Arial_MSFontService,sans-serif" font-weight="700" font-size="83" transform="matrix(1 0 0 1 2068.25 1233)">doc:<tspan font-size="83" x="174.167" y="0">name</tspan><tspan font-size="83" x="1091.41" y="26">doc:</tspan><tspan font-size="83" x="1265.57" y="26">nationality</tspan></text></g></svg>