<svg width="3921" height="505" xmlns="http://www.w3.org/2000/svg" xmlns:xlink="http://www.w3.org/1999/xlink" overflow="hidden"><defs><clipPath id="clip0"><rect x="350" y="1183" width="3921" height="505"/></clipPath></defs><g clip-path="url(#clip0)" transform="translate(-350 -1183)"><path d="M351.5 1502C351.5 1400.1 698.927 1317.5 1127.5 1317.5 1556.07 1317.5 1903.5 1400.1 1903.5 1502 1903.5 1603.9 1556.07 1686.5 1127.5 1686.5 698.927 1686.5 351.5 1603.9 351.5 1502Z" stroke="#000000" stroke-width="3.4375" stroke-linejoin="round" stroke-miterlimit="10" fill="#C1E1FE" fill-rule="evenodd"/><text font-family="Arial Nova Light,Arial Nova Light_MSFontService,sans-serif" font-weight="700" font-size="110" transform="matrix(1 0 0 1 610.812 1542)">http://novak.cz/clanek</text><path d="M3123.5 1402.83C3123.5 1375.59 3145.59 1353.5 3172.83 1353.5L4220.17 1353.5C4247.41 1353.5 4269.5 1375.59 4269.5 1402.83L4269.5 1600.17C4269.5 1627.41 4247.41 1649.5 4220.17 1649.5L3172.83 1649.5C3145.59 1649.5 3123.5 1627.41 3123.5 1600.17Z" stroke="#000000" stroke-width="3.4375" stroke-linejoin="round" stroke-miterlimit="10" fill="#C1E1FE" fill-rule="evenodd"/><text font-family="Arial Nova Light,Arial Nova Light_MSFontService,sans-serif" font-weight="700" font-size="110" transform="matrix(1 0 0 1 3446.78 1542)">Jan Nov<tspan font-size="110" x="386.719" y="0">ák</tspan></text><path d="M1903 1495.84 3076.59 1495.84 3076.59 1506.16 1903 1506.16ZM3071.44 1475.22 3123 1501 3071.44 1526.78Z"/><text font-family="Arial Nova Light,Arial Nova Light_MSFontService,sans-serif" font-weight="700" font-size="110" transform="matrix(1 0 0 1 1814.69 1323)">http://novak.cz/authored_by</text></g></svg>