<svg width="4341" height="2346" xmlns="http://www.w3.org/2000/svg" xmlns:xlink="http://www.w3.org/1999/xlink" xml:space="preserve" overflow="hidden"><defs><clipPath id="clip0"><rect x="196" y="900" width="4341" height="2346"/></clipPath></defs><g clip-path="url(#clip0)" transform="translate(-196 -900)"><rect x="196" y="900" width="4341" height="2346" fill="#0365C0"/><rect x="1150.5" y="1005.5" width="341" height="249" stroke="#C00000" stroke-width="9.16667" stroke-miterlimit="8" fill="#FFFFFF"/><text font-family="Tahoma,Tahoma_MSFontService,sans-serif" font-weight="400" font-size="104" transform="matrix(1 0 0 1 1289.4 1109)">A</text><rect x="1150.5" y="1254.5" width="341" height="248" stroke="#C00000" stroke-width="9.16667" stroke-miterlimit="8" fill="#FFFFFF"/><rect x="1150.5" y="1502.5" width="341" height="249" stroke="#C00000" stroke-width="9.16667" stroke-miterlimit="8" fill="#FFFFFF"/><rect x="1917.5" y="1751.5" width="340" height="249" stroke="#C00000" stroke-width="9.16667" stroke-miterlimit="8" fill="#FFFFFF"/><text font-family="Tahoma,Tahoma_MSFontService,sans-serif" font-weight="400" font-size="104" transform="matrix(1 0 0 1 2055.56 1855)">C</text><rect x="1917.5" y="2000.5" width="340" height="249" stroke="#C00000" stroke-width="9.16667" stroke-miterlimit="8" fill="#FFFFFF"/><rect x="1917.5" y="2249.5" width="340" height="249" stroke="#C00000" stroke-width="9.16667" stroke-miterlimit="8" fill="#FFFFFF"/><rect x="469.5" y="1751.5" width="341" height="249" stroke="#C00000" stroke-width="9.16667" stroke-miterlimit="8" fill="#FFFFFF"/><text font-family="Tahoma,Tahoma_MSFontService,sans-serif" font-weight="400" font-size="104" transform="matrix(1 0 0 1 608.94 1855)">B</text><rect x="469.5" y="2000.5" width="341" height="249" stroke="#C00000" stroke-width="9.16667" stroke-miterlimit="8" fill="#FFFFFF"/><rect x="469.5" y="2249.5" width="341" height="249" stroke="#C00000" stroke-width="9.16667" stroke-miterlimit="8" fill="#FFFFFF"/><path d="M1674.5 1502.5 1491.5 1378 1674.5 1253.5Z" stroke="#C00000" stroke-width="9.16667" stroke-miterlimit="8" fill="#FFFFFF" fill-rule="evenodd"/><path d="M0 0 158 1.00003" stroke="#C00000" stroke-width="9.16667" stroke-linejoin="round" stroke-miterlimit="10" fill="none" fill-rule="evenodd" transform="matrix(-1 0 0 1 1832.5 1377.5)"/><path d="M1831.5 1378.5 2087.5 1378.5" stroke="#C00000" stroke-width="9.16667" stroke-linejoin="round" stroke-miterlimit="10" fill="none" fill-rule="evenodd"/><path d="M2087.5 1378.5 2087.5 1751.5" stroke="#C00000" stroke-width="9.16667" stroke-linejoin="round" stroke-miterlimit="10" fill="none" fill-rule="evenodd"/><path d="M969.5 1253.5 1151.5 1378 969.5 1502.5Z" stroke="#C00000" stroke-width="9.16667" stroke-miterlimit="8" fill="#FFFFFF" fill-rule="evenodd"/><path d="M0 0 159 0.999672" stroke="#C00000" stroke-width="9.16667" stroke-linejoin="round" stroke-miterlimit="10" fill="none" fill-rule="evenodd" transform="matrix(1 -1.22465e-16 -1.22465e-16 -1 810.5 1379.5)"/><path d="M0 0 170 0.000360892" stroke="#C00000" stroke-width="9.16667" stroke-linejoin="round" stroke-miterlimit="10" fill="none" fill-rule="evenodd" transform="matrix(-1 0 0 1 810.5 1378.5)"/><path d="M640.5 1378.5 640.5 1751.5" stroke="#C00000" stroke-width="9.16667" stroke-linejoin="round" stroke-miterlimit="10" fill="none" fill-rule="evenodd"/><rect x="469" y="2821" width="1788" height="320" fill="#FFFFFF"/><text font-family="Arial Nova Light,Arial Nova Light_MSFontService,sans-serif" font-weight="300" font-size="110" transform="matrix(1 0 0 1 521.571 2945)">základní tvar jednoduché dědičnosti</text><rect x="3234.5" y="2002.5" width="341" height="249" stroke="#C00000" stroke-width="9.16667" stroke-miterlimit="8" fill="#FFFFFF"/><text font-family="Tahoma,Tahoma_MSFontService,sans-serif" font-weight="400" font-size="104" transform="matrix(1 0 0 1 3373.48 2106)">C</text><rect x="3234.5" y="2251.5" width="341" height="249" stroke="#C00000" stroke-width="9.16667" stroke-miterlimit="8" fill="#FFFFFF"/><rect x="3234.5" y="2500.5" width="341" height="248" stroke="#C00000" stroke-width="9.16667" stroke-miterlimit="8" fill="#FFFFFF"/><rect x="4001.5" y="1006.5" width="340" height="249" stroke="#C00000" stroke-width="9.16667" stroke-miterlimit="8" fill="#FFFFFF"/><text font-family="Tahoma,Tahoma_MSFontService,sans-serif" font-weight="400" font-size="104" transform="matrix(1 0 0 1 4140.39 1110)">B</text><rect x="4001.5" y="1255.5" width="340" height="249" stroke="#C00000" stroke-width="9.16667" stroke-miterlimit="8" fill="#FFFFFF"/><rect x="4001.5" y="1504.5" width="340" height="249" stroke="#C00000" stroke-width="9.16667" stroke-miterlimit="8" fill="#FFFFFF"/><rect x="2553.5" y="1006.5" width="341" height="249" stroke="#C00000" stroke-width="9.16667" stroke-miterlimit="8" fill="#FFFFFF"/><text font-family="Tahoma,Tahoma_MSFontService,sans-serif" font-weight="400" font-size="104" transform="matrix(1 0 0 1 2692.29 1110)">A</text><rect x="2553.5" y="1255.5" width="341" height="249" stroke="#C00000" stroke-width="9.16667" stroke-miterlimit="8" fill="#FFFFFF"/><rect x="2553.5" y="1504.5" width="341" height="249" stroke="#C00000" stroke-width="9.16667" stroke-miterlimit="8" fill="#FFFFFF"/><path d="M2638.5 2020.5 2724 1753.5 2809.5 2020.5Z" stroke="#C00000" stroke-width="9.16667" stroke-miterlimit="8" fill="#FFFFFF" fill-rule="evenodd"/><path d="M0 0 231 0.999672" stroke="#C00000" stroke-width="9.16667" stroke-linejoin="round" stroke-miterlimit="10" fill="none" fill-rule="evenodd" transform="matrix(-6.12323e-17 -1 -1 6.12323e-17 2725.5 2251.5)"/><path d="M2724.5 2251.5 2724.5 2375.5" stroke="#C00000" stroke-width="9.16667" stroke-linejoin="round" stroke-miterlimit="10" fill="none" fill-rule="evenodd"/><path d="M2724.5 2375.5 3234.5 2375.5" stroke="#C00000" stroke-width="9.16667" stroke-linejoin="round" stroke-miterlimit="10" fill="none" fill-rule="evenodd"/><path d="M4001.5 2020.5 4086.5 1753.5 4171.5 2020.5Z" stroke="#C00000" stroke-width="9.16667" stroke-miterlimit="8" fill="#FFFFFF" fill-rule="evenodd"/><path d="M0 0 231 0.999672" stroke="#C00000" stroke-width="9.16667" stroke-linejoin="round" stroke-miterlimit="10" fill="none" fill-rule="evenodd" transform="matrix(-6.12323e-17 -1 -1 6.12323e-17 4087.5 2251.5)"/><path d="M4086.5 2251.5 4086.5 2375.5" stroke="#C00000" stroke-width="9.16667" stroke-linejoin="round" stroke-miterlimit="10" fill="none" fill-rule="evenodd"/><path d="M3575.5 2375.5 4086.5 2375.5" stroke="#C00000" stroke-width="9.16667" stroke-linejoin="round" stroke-miterlimit="10" fill="none" fill-rule="evenodd"/><rect x="2468" y="2820" width="1788" height="319" fill="#FFFFFF"/><text font-family="Arial Nova Light,Arial Nova Light_MSFontService,sans-serif" font-weight="300" font-size="110" transform="matrix(1 0 0 1 2754.84 2943)">základní tvar vícenásobné </text><text font-family="Arial Nova Light,Arial Nova Light_MSFontService,sans-serif" font-weight="300" font-size="110" transform="matrix(1 0 0 1 3121.23 3075)">dědičnosti</text></g></svg>