<svg width="4344" height="2524" xmlns="http://www.w3.org/2000/svg" xmlns:xlink="http://www.w3.org/1999/xlink" xml:space="preserve" overflow="hidden"><defs><clipPath id="clip0"><rect x="195" y="646" width="4344" height="2524"/></clipPath></defs><g clip-path="url(#clip0)" transform="translate(-195 -646)"><rect x="196.5" y="647.5" width="4341" height="2521" stroke="#000000" stroke-width="3.4375" stroke-miterlimit="8" fill="#0365C0"/><rect x="780" y="2517" width="668" height="163" stroke="#C00000" stroke-width="8.02083" stroke-miterlimit="8" fill="#FFFFFF"/><text font-family="Arial,Arial_MSFontService,sans-serif" font-weight="400" font-size="104" transform="matrix(1 0 0 1 789.017 2618)">Banka</text><rect x="780" y="2680" width="668" height="244" stroke="#C00000" stroke-width="8.02083" stroke-miterlimit="8" fill="#FFFFFF"/><rect x="780" y="2924" width="668" height="163" stroke="#C00000" stroke-width="8.02083" stroke-miterlimit="8" fill="#FFFFFF"/><rect x="780" y="1623" width="668" height="163" stroke="#C00000" stroke-width="8.02083" stroke-miterlimit="8" fill="#FFFFFF"/><text font-family="Arial,Arial_MSFontService,sans-serif" font-weight="400" font-size="104" transform="matrix(1 0 0 1 789.017 1724)">PravOsoba</text><rect x="780" y="1786" width="668" height="243" stroke="#C00000" stroke-width="8.02083" stroke-miterlimit="8" fill="#FFFFFF"/><rect x="780" y="2029" width="668" height="163" stroke="#C00000" stroke-width="8.02083" stroke-miterlimit="8" fill="#FFFFFF"/><rect x="1865" y="728" width="668" height="163" stroke="#C00000" stroke-width="8.02083" stroke-miterlimit="8" fill="#FFFFFF"/><text font-family="Arial,Arial_MSFontService,sans-serif" font-weight="400" font-size="104" transform="matrix(1 0 0 1 1874.46 829)">EkonSubjekt</text><rect x="1865" y="891" width="668" height="244" stroke="#C00000" stroke-width="8.02083" stroke-miterlimit="8" fill="#FFFFFF"/><rect x="1865" y="1135" width="668" height="163" stroke="#C00000" stroke-width="8.02083" stroke-miterlimit="8" fill="#FFFFFF"/><rect x="1615" y="1623" width="668" height="163" stroke="#C00000" stroke-width="8.02083" stroke-miterlimit="8" fill="#FFFFFF"/><text font-family="Arial,Arial_MSFontService,sans-serif" font-weight="400" font-size="104" transform="matrix(1 0 0 1 1623.98 1724)">OsobaVOR</text><rect x="1615" y="1786" width="668" height="243" stroke="#C00000" stroke-width="8.02083" stroke-miterlimit="8" fill="#FFFFFF"/><rect x="1615" y="2029" width="668" height="163" stroke="#C00000" stroke-width="8.02083" stroke-miterlimit="8" fill="#FFFFFF"/><rect x="2366" y="1623" width="1086" height="163" stroke="#C00000" stroke-width="8.02083" stroke-miterlimit="8" fill="#FFFFFF"/><text font-family="Arial,Arial_MSFontService,sans-serif" font-weight="400" font-size="104" transform="matrix(1 0 0 1 2375.44 1724)">FyzickaOsobaPodn</text><rect x="2366" y="1786" width="1086" height="243" stroke="#C00000" stroke-width="8.02083" stroke-miterlimit="8" fill="#FFFFFF"/><rect x="2366" y="2029" width="1086" height="163" stroke="#C00000" stroke-width="8.02083" stroke-miterlimit="8" fill="#FFFFFF"/><rect x="3118" y="728" width="668" height="163" stroke="#C00000" stroke-width="8.02083" stroke-miterlimit="8" fill="#FFFFFF"/><text font-family="Arial,Arial_MSFontService,sans-serif" font-weight="400" font-size="104" transform="matrix(1 0 0 1 3126.9 829)">Obcan</text><rect x="3118" y="891" width="668" height="244" stroke="#C00000" stroke-width="8.02083" stroke-miterlimit="8" fill="#FFFFFF"/><rect x="3118" y="1135" width="668" height="163" stroke="#C00000" stroke-width="8.02083" stroke-miterlimit="8" fill="#FFFFFF"/><path d="M1686 972 1865 1053.5 1686 1135Z" stroke="#C00000" stroke-width="8.02083" stroke-miterlimit="8" fill="#FFFFFF" fill-rule="evenodd"/><path d="M1114 1054 1686 1054" stroke="#C00000" stroke-width="8.02083" stroke-linejoin="round" stroke-miterlimit="10" fill="none" fill-rule="evenodd"/><path d="M2115 1472 2198.5 1297 2282 1472Z" stroke="#C00000" stroke-width="8.02083" stroke-miterlimit="8" fill="#FFFFFF" fill-rule="evenodd"/><path d="M0 0 151 0.999672" stroke="#C00000" stroke-width="8.02083" stroke-linejoin="round" stroke-miterlimit="10" fill="none" fill-rule="evenodd" transform="matrix(-6.12323e-17 -1 -1 6.12323e-17 2200 1623)"/><path d="M3201 1472 3284.5 1298 3368 1472Z" stroke="#C00000" stroke-width="8.02083" stroke-miterlimit="8" fill="#FFFFFF" fill-rule="evenodd"/><path d="M0 0 151 0.999672" stroke="#C00000" stroke-width="8.02083" stroke-linejoin="round" stroke-miterlimit="10" fill="none" fill-rule="evenodd" transform="matrix(-6.12323e-17 -1 -1 6.12323e-17 3286 1623)"/><path d="M1030 2366 1113.5 2192 1197 2366Z" stroke="#C00000" stroke-width="8.02083" stroke-miterlimit="8" fill="#FFFFFF" fill-rule="evenodd"/><path d="M0 0 152 0.999672" stroke="#C00000" stroke-width="8.02083" stroke-linejoin="round" stroke-miterlimit="10" fill="none" fill-rule="evenodd" transform="matrix(-6.12323e-17 -1 -1 6.12323e-17 1115 2518)"/><path d="M2366 1472 2449.5 1298 2533 1472Z" stroke="#C00000" stroke-width="8.02083" stroke-miterlimit="8" fill="#FFFFFF" fill-rule="evenodd"/><path d="M0 0 151 0.999672" stroke="#C00000" stroke-width="8.02083" stroke-linejoin="round" stroke-miterlimit="10" fill="none" fill-rule="evenodd" transform="matrix(-6.12323e-17 -1 -1 6.12323e-17 2451 1623)"/><path d="M1114 1054 1114 1623" stroke="#C00000" stroke-width="8.02083" stroke-linejoin="round" stroke-miterlimit="10" fill="none" fill-rule="evenodd"/></g></svg>