<svg width="4263" height="2542" xmlns="http://www.w3.org/2000/svg" xmlns:xlink="http://www.w3.org/1999/xlink" xml:space="preserve" overflow="hidden"><defs><clipPath id="clip0"><rect x="274" y="665" width="4263" height="2542"/></clipPath></defs><g clip-path="url(#clip0)" transform="translate(-274 -665)"><rect x="274" y="665" width="4263" height="2542" fill="#0365C0"/><rect x="508.5" y="1241.5" width="1421" height="1490" stroke="#C00000" stroke-width="9.16667" stroke-miterlimit="8" fill="#FFFFFF"/><text font-family="Courier New,Courier New_MSFontService,sans-serif" font-weight="400" font-size="104" transform="matrix(1 0 0 1 1187.75 1599)">…</text><text font-family="Courier New,Courier New_MSFontService,sans-serif" font-weight="400" font-size="104" transform="matrix(1 0 0 1 823.376 1725)">Extent typu</text><text font-family="Courier New,Courier New_MSFontService,sans-serif" font-weight="400" font-size="70" transform="matrix(1 0 0 1 1510.3 1750)">1</text><text font-family="Courier New,Courier New_MSFontService,sans-serif" font-weight="400" font-size="104" transform="matrix(1 0 0 1 1552.13 1725)">:</text><text font-family="Courier New,Courier New_MSFontService,sans-serif" font-weight="400" font-size="104" transform="matrix(1 0 0 1 823.376 1850)">Extent typu</text><text font-family="Courier New,Courier New_MSFontService,sans-serif" font-weight="400" font-size="70" transform="matrix(1 0 0 1 1510.3 1875)">2</text><text font-family="Courier New,Courier New_MSFontService,sans-serif" font-weight="400" font-size="104" transform="matrix(1 0 0 1 1552.13 1850)">:</text><text font-family="Courier New,Courier New_MSFontService,sans-serif" font-weight="400" font-size="104" transform="matrix(1 0 0 1 823.376 1975)">Extent typu</text><text font-family="Courier New,Courier New_MSFontService,sans-serif" font-weight="400" font-size="70" transform="matrix(1 0 0 1 1510.3 2000)">3</text><text font-family="Courier New,Courier New_MSFontService,sans-serif" font-weight="400" font-size="104" transform="matrix(1 0 0 1 1552.13 1975)">:</text><text font-family="Courier New,Courier New_MSFontService,sans-serif" font-weight="400" font-size="104" transform="matrix(1 0 0 1 1187.75 2100)">…</text><text font-family="Tahoma,Tahoma_MSFontService,sans-serif" font-weight="400" font-size="104" transform="matrix(1 0 0 1 822.23 2237)">Ostatní vlastnosti</text><text font-family="Tahoma,Tahoma_MSFontService,sans-serif" font-weight="400" font-size="104" transform="matrix(1 0 0 1 815.63 2362)">objektu Databáze</text><rect x="508.5" y="897.5" width="1421" height="344" stroke="#C00000" stroke-width="9.16667" stroke-miterlimit="8" fill="#FFFFFF"/><text font-family="Tahoma,Tahoma_MSFontService,sans-serif" font-weight="400" font-size="104" transform="matrix(1 0 0 1 581.02 1018)">Systémový objekt Databáze</text><rect x="508.5" y="2731.5" width="1421" height="344" stroke="#C00000" stroke-width="9.16667" stroke-miterlimit="8" fill="#FFFFFF"/><rect x="2849.5" y="782.5" width="1505" height="459" stroke="#C00000" stroke-width="9.16667" stroke-miterlimit="8" fill="#FFFFFF"/><text font-family="Tahoma,Tahoma_MSFontService,sans-serif" font-weight="400" font-size="104" transform="matrix(1 0 0 1 2953.11 903)">Kolekce všech objektů typu</text><text font-family="Tahoma,Tahoma_MSFontService,sans-serif" font-weight="400" font-size="70" transform="matrix(1 0 0 1 4211.23 928)">1</text><rect x="2849.5" y="1470.5" width="1505" height="459" stroke="#C00000" stroke-width="9.16667" stroke-miterlimit="8" fill="#FFFFFF"/><text font-family="Tahoma,Tahoma_MSFontService,sans-serif" font-weight="400" font-size="104" transform="matrix(1 0 0 1 2953.11 1591)">Kolekce všech objektů typu</text><text font-family="Tahoma,Tahoma_MSFontService,sans-serif" font-weight="400" font-size="70" transform="matrix(1 0 0 1 4211.23 1616)">2</text><rect x="2849.5" y="2158.5" width="1505" height="458" stroke="#C00000" stroke-width="9.16667" stroke-miterlimit="8" fill="#FFFFFF"/><text font-family="Tahoma,Tahoma_MSFontService,sans-serif" font-weight="400" font-size="104" transform="matrix(1 0 0 1 2953.11 2278)">Kolekce všech objektů typu</text><text font-family="Tahoma,Tahoma_MSFontService,sans-serif" font-weight="400" font-size="70" transform="matrix(1 0 0 1 4211.23 2303)">3</text><path d="M3.95715e-06-4.58333 408.925-4.58298 408.925 4.58369-3.95715e-06 4.58333ZM383.734-20.0003 418.021 0.000358706 383.734 20.001C381.548 21.2764 378.741 20.5379 377.466 18.3514 376.191 16.1649 376.929 13.3585 379.116 12.083L406.616-3.95863 406.616 3.95934 379.116-12.0824C376.929-13.3578 376.191-16.1643 377.466-18.3507 378.741-20.5372 381.548-21.2758 383.734-20.0003Z" fill="#C00000" transform="matrix(1 0 0 -1 2431.5 1002.5)"/><path d="M3.95715e-06-4.58333 408.925-4.58298 408.925 4.58369-3.95715e-06 4.58333ZM383.734-20.0003 418.021 0.000358706 383.734 20.001C381.548 21.2764 378.741 20.5379 377.466 18.3514 376.191 16.1649 376.929 13.3585 379.116 12.083L406.616-3.95863 406.616 3.95934 379.116-12.0824C376.929-13.3578 376.191-16.1643 377.466-18.3507 378.741-20.5372 381.548-21.2758 383.734-20.0003Z" fill="#C00000" transform="matrix(1 0 0 -1 2347.5 1002.5)"/><path d="M0 0 836 688" stroke="#C00000" stroke-width="9.16667" stroke-linejoin="round" stroke-miterlimit="10" fill="none" fill-rule="evenodd" transform="matrix(1 0 0 -1 1511.5 1690.5)"/><path d="M3.95715e-06-4.58333 408.925-4.58298 408.925 4.58369-3.95715e-06 4.58333ZM383.734-20.0003 418.021 0.000358706 383.734 20.001C381.548 21.2764 378.741 20.5379 377.466 18.3514 376.191 16.1649 376.929 13.3585 379.116 12.083L406.616-3.95863 406.616 3.95934 379.116-12.0824C376.929-13.3578 376.191-16.1643 377.466-18.3507 378.741-20.5372 381.548-21.2758 383.734-20.0003Z" fill="#C00000" transform="matrix(1 0 0 -1 2431.5 1690.5)"/><path d="M3.95715e-06-4.58333 408.925-4.58298 408.925 4.58369-3.95715e-06 4.58333ZM383.734-20.0003 418.021 0.000358706 383.734 20.001C381.548 21.2764 378.741 20.5379 377.466 18.3514 376.191 16.1649 376.929 13.3585 379.116 12.083L406.616-3.95863 406.616 3.95934 379.116-12.0824C376.929-13.3578 376.191-16.1643 377.466-18.3507 378.741-20.5372 381.548-21.2758 383.734-20.0003Z" fill="#C00000" transform="matrix(1 0 0 -1 2347.5 1690.5)"/><path d="M0 0 836 115" stroke="#C00000" stroke-width="9.16667" stroke-linejoin="round" stroke-miterlimit="10" fill="none" fill-rule="evenodd" transform="matrix(1 0 0 -1 1511.5 1805.5)"/><path d="M2431.5 2373.92 2840.43 2373.92 2840.43 2383.08 2431.5 2383.08ZM2815.23 2358.5 2849.52 2378.5 2815.23 2398.5C2813.05 2399.78 2810.24 2399.04 2808.97 2396.85 2807.69 2394.66 2808.43 2391.86 2810.62 2390.58L2838.12 2374.54 2838.12 2382.46 2810.62 2366.42C2808.43 2365.14 2807.69 2362.34 2808.97 2360.15 2810.24 2357.96 2813.05 2357.22 2815.23 2358.5Z" fill="#C00000"/><path d="M3.95715e-06-4.58333 408.925-4.58298 408.925 4.58369-3.95715e-06 4.58333ZM383.734-20.0003 418.021 0.000358706 383.734 20.001C381.548 21.2764 378.741 20.5379 377.466 18.3514 376.191 16.1649 376.929 13.3585 379.116 12.083L406.616-3.95863 406.616 3.95934 379.116-12.0824C376.929-13.3578 376.191-16.1643 377.466-18.3507 378.741-20.5372 381.548-21.2758 383.734-20.0003Z" fill="#C00000" transform="matrix(1 0 0 -1 2347.5 2378.5)"/><path d="M1511.5 1920.5 2347.5 2378.5" stroke="#C00000" stroke-width="9.16667" stroke-linejoin="round" stroke-miterlimit="10" fill="none" fill-rule="evenodd"/></g></svg>