<svg width="3458" height="2449" xmlns="http://www.w3.org/2000/svg" xmlns:xlink="http://www.w3.org/1999/xlink" xml:space="preserve" overflow="hidden"><defs><clipPath id="clip0"><rect x="515" y="752" width="3458" height="2449"/></clipPath></defs><g clip-path="url(#clip0)" transform="translate(-515 -752)"><rect x="610.5" y="984.5" width="322" height="186" stroke="#024C90" stroke-width="9.16667" stroke-miterlimit="8" fill="#83C2FD"/><text font-family="Arial,Arial_MSFontService,sans-serif" font-weight="400" font-size="156" transform="matrix(1 0 0 1 609.571 1136)">A</text><rect x="610.5" y="1170.5" width="322" height="185" stroke="#024C90" stroke-width="9.16667" stroke-miterlimit="8" fill="#83C2FD"/><rect x="610.5" y="1355.5" width="322" height="186" stroke="#024C90" stroke-width="9.16667" stroke-miterlimit="8" fill="#83C2FD"/><rect x="1658.5" y="984.5" width="323" height="186" stroke="#024C90" stroke-width="9.16667" stroke-miterlimit="8" fill="#83C2FD"/><text font-family="Arial,Arial_MSFontService,sans-serif" font-weight="400" font-size="156" transform="matrix(1 0 0 1 1658.48 1136)">B</text><rect x="1658.5" y="1170.5" width="323" height="185" stroke="#024C90" stroke-width="9.16667" stroke-miterlimit="8" fill="#83C2FD"/><rect x="1658.5" y="1355.5" width="323" height="186" stroke="#024C90" stroke-width="9.16667" stroke-miterlimit="8" fill="#83C2FD"/><path d="M937.038 1260.21 1653.96 1260.21 1653.96 1264.79 937.038 1264.79ZM963.383 1280.52 932.49 1262.5 963.383 1244.48C964.476 1243.84 965.879 1244.21 966.517 1245.3 967.155 1246.4 966.786 1247.8 965.692 1248.44L938.192 1264.48 938.192 1260.52 965.692 1276.56C966.786 1277.2 967.155 1278.6 966.517 1279.7 965.879 1280.79 964.476 1281.16 963.383 1280.52ZM1627.62 1244.48 1658.51 1262.5 1627.62 1280.52C1626.52 1281.16 1625.12 1280.79 1624.48 1279.7 1623.85 1278.6 1624.21 1277.2 1625.31 1276.56L1652.81 1260.52 1652.81 1264.48 1625.31 1248.44C1624.21 1247.8 1623.85 1246.4 1624.48 1245.3 1625.12 1244.21 1626.52 1243.84 1627.62 1244.48Z"/><rect x="610" y="1727" width="1371" height="278" fill="#FFFFFF"/><text font-family="Arial Nova Light,Arial Nova Light_MSFontService,sans-serif" font-weight="300" font-size="156" transform="matrix(1 0 0 1 886.62 1902)">1:1 proti 1:1</text><rect x="1560.5" y="2044.5" width="251" height="204" stroke="#024C90" stroke-width="9.16667" stroke-miterlimit="8" fill="#83C2FD"/><text font-family="Arial,Arial_MSFontService,sans-serif" font-weight="400" font-size="156" transform="matrix(1 0 0 1 1559.78 2196)">A</text><rect x="1560.5" y="2248.5" width="251" height="205" stroke="#024C90" stroke-width="9.16667" stroke-miterlimit="8" fill="#83C2FD"/><rect x="1560.5" y="2453.5" width="251" height="204" stroke="#024C90" stroke-width="9.16667" stroke-miterlimit="8" fill="#83C2FD"/><rect x="1246.5" y="2248.5" width="251" height="205" stroke="#024C90" stroke-width="9.16667" stroke-miterlimit="8" fill="#83C2FD"/><text font-family="Arial,Arial_MSFontService,sans-serif" font-weight="400" font-size="156" transform="matrix(1 0 0 1 1246.05 2400)">A</text><rect x="1246.5" y="2453.5" width="251" height="204" stroke="#024C90" stroke-width="9.16667" stroke-miterlimit="8" fill="#83C2FD"/><rect x="1246.5" y="2657.5" width="251" height="204" stroke="#024C90" stroke-width="9.16667" stroke-miterlimit="8" fill="#83C2FD"/><rect x="932.5" y="2453.5" width="251" height="204" stroke="#024C90" stroke-width="9.16667" stroke-miterlimit="8" fill="#83C2FD"/><text font-family="Arial,Arial_MSFontService,sans-serif" font-weight="400" font-size="156" transform="matrix(1 0 0 1 932.313 2605)">A</text><rect x="932.5" y="2657.5" width="251" height="204" stroke="#024C90" stroke-width="9.16667" stroke-miterlimit="8" fill="#83C2FD"/><rect x="932.5" y="2861.5" width="251" height="204" stroke="#024C90" stroke-width="9.16667" stroke-miterlimit="8" fill="#83C2FD"/><rect x="2898.5" y="1976.5" width="251" height="204" stroke="#024C90" stroke-width="9.16667" stroke-miterlimit="8" fill="#83C2FD"/><text font-family="Arial,Arial_MSFontService,sans-serif" font-weight="400" font-size="156" transform="matrix(1 0 0 1 2898.37 2128)">B</text><rect x="2898.5" y="2180.5" width="251" height="204" stroke="#024C90" stroke-width="9.16667" stroke-miterlimit="8" fill="#83C2FD"/><rect x="2898.5" y="2384.5" width="251" height="205" stroke="#024C90" stroke-width="9.16667" stroke-miterlimit="8" fill="#83C2FD"/><rect x="3254.5" y="2350.5" width="251" height="205" stroke="#024C90" stroke-width="9.16667" stroke-miterlimit="8" fill="#83C2FD"/><text font-family="Arial,Arial_MSFontService,sans-serif" font-weight="400" font-size="156" transform="matrix(1 0 0 1 3253.93 2502)">B</text><rect x="3254.5" y="2555.5" width="251" height="204" stroke="#024C90" stroke-width="9.16667" stroke-miterlimit="8" fill="#83C2FD"/><rect x="3254.5" y="2759.5" width="251" height="204" stroke="#024C90" stroke-width="9.16667" stroke-miterlimit="8" fill="#83C2FD"/><path d="M5.07279-0.906244 1753.27 509.523 1751.98 513.923 3.7882 3.49339ZM24.5943 25.9544-0.0101956-0.00297657 34.6958-8.64342C35.924-8.94918 37.1675-8.20143 37.4733-6.97327 37.779-5.74511 37.0313-4.50161 35.8031-4.19585L4.90928 3.49551 6.01886-0.304811 27.9207 22.8013C28.7914 23.7199 28.7526 25.1704 27.834 26.0411 26.9155 26.9118 25.465 26.873 24.5943 25.9544ZM1732.41 487.045 1757.01 513.003 1722.3 521.643C1721.08 521.949 1719.83 521.201 1719.53 519.973 1719.22 518.745 1719.97 517.501 1721.2 517.195L1752.09 509.504 1750.98 513.305 1729.08 490.198C1728.21 489.28 1728.25 487.829 1729.17 486.959 1730.08 486.088 1731.54 486.127 1732.41 487.045Z" transform="matrix(1 0 0 -1 1183.5 2761.5)"/><path d="M4.66322-2.06477 2066.59 99.4886 2066.37 104.066 4.43776 2.51302ZM29.9589 19.5186-0.0106079-0.000522461 31.7319-16.4801C32.8552-17.0633 34.2386-16.6254 34.8218-15.5021 35.4049-14.3788 34.9671-12.9955 33.8438-12.4123L5.58793 2.25712 5.78269-1.69708 32.4602 15.678C33.5208 16.3687 33.8206 17.7884 33.1299 18.849 32.4391 19.9095 31.0194 20.2093 29.9589 19.5186ZM2041.04 82.4815 2071.01 102.001 2039.27 118.48C2038.15 119.063 2036.76 118.626 2036.18 117.502 2035.6 116.379 2036.03 114.996 2037.16 114.412L2065.41 99.743 2065.22 103.697 2038.54 86.3221C2037.48 85.6314 2037.18 84.2117 2037.87 83.1512 2038.56 82.0906 2039.98 81.7908 2041.04 82.4815Z" transform="matrix(1 0 0 -1 1183.5 2759.5)"/><path d="M3249.58 2658.8 1815.46 2353.69 1816.42 2349.2 3250.54 2654.31ZM3228.04 2633.45 3254.51 2657.5 3220.54 2668.7C3219.34 2669.1 3218.05 2668.44 3217.65 2667.24 3217.25 2666.04 3217.91 2664.74 3219.11 2664.35L3249.34 2654.38 3248.52 2658.25 3224.96 2636.84C3224.02 2635.99 3223.96 2634.54 3224.81 2633.6 3225.66 2632.66 3227.11 2632.6 3228.04 2633.45ZM1837.96 2374.55 1811.49 2350.5 1845.46 2339.3C1846.66 2338.9 1847.95 2339.56 1848.35 2340.76 1848.75 2341.96 1848.09 2343.26 1846.89 2343.65L1816.66 2353.62 1817.48 2349.75 1841.04 2371.16C1841.98 2372.01 1842.05 2373.46 1841.19 2374.4 1840.34 2375.34 1838.89 2375.4 1837.96 2374.55Z"/><path d="M4.71411-1.8751 1124.68 99.3091 1124.27 103.874 4.3017 2.68964ZM29.136 20.7269-0.0105783-0.000955669 32.379-15.1693C33.5252-15.706 34.8895-15.212 35.4263-14.0658 35.9631-12.9196 35.4691-11.5553 34.3229-11.0185L5.491 2.48364 5.84723-1.45929 31.7923 16.9917C32.8237 17.7252 33.0652 19.156 32.3317 20.1874 31.5982 21.2188 30.1674 21.4604 29.136 20.7269ZM1099.86 81.2733 1129.01 102.001 1096.62 117.169C1095.47 117.706 1094.11 117.212 1093.57 116.066 1093.04 114.92 1093.53 113.555 1094.68 113.019L1123.51 99.5165 1123.15 103.459 1097.21 85.0084C1096.18 84.2749 1095.93 82.8442 1096.67 81.8127 1097.4 80.7813 1098.83 80.5398 1099.86 81.2733Z" transform="matrix(1 0 0 -1 1811.5 2350.5)"/><path d="M1502.24 2553.48 3250.02 2654.94 3249.76 2659.52 1501.97 2558.06ZM1527.29 2575.28 1497.49 2555.5 1529.38 2539.3C1530.5 2538.73 1531.88 2539.18 1532.46 2540.3 1533.03 2541.43 1532.58 2542.81 1531.45 2543.39L1503.07 2557.81 1503.3 2553.85 1529.82 2571.46C1530.88 2572.16 1531.16 2573.58 1530.46 2574.64 1529.76 2575.69 1528.34 2575.98 1527.29 2575.28ZM3224.71 2637.72 3254.51 2657.5 3222.62 2673.7C3221.5 2674.27 3220.12 2673.82 3219.54 2672.7 3218.97 2671.57 3219.42 2670.19 3220.55 2669.61L3248.93 2655.19 3248.7 2659.15 3222.18 2641.54C3221.12 2640.84 3220.84 2639.42 3221.54 2638.36 3222.24 2637.31 3223.66 2637.02 3224.71 2637.72Z"/><rect x="1622" y="2793" width="1255" height="408" fill="#FFFFFF"/><text font-family="Arial Nova Light,Arial Nova Light_MSFontService,sans-serif" font-weight="300" font-size="156" transform="matrix(1 0 0 1 1819.34 2968)">1:N proti 1:N</text><rect x="2320" y="1704" width="1616" height="272" fill="#FFFFFF"/><text font-family="Arial Nova Light,Arial Nova Light_MSFontService,sans-serif" font-weight="300" font-size="156" transform="matrix(1 0 0 1 2377.55 1880)">1:N proti 1:1 a naopak</text><rect x="2562.5" y="1071.5" width="323" height="181" stroke="#024C90" stroke-width="9.16667" stroke-miterlimit="8" fill="#83C2FD"/><text font-family="Arial,Arial_MSFontService,sans-serif" font-weight="400" font-size="156" transform="matrix(1 0 0 1 2562.08 1223)">A</text><rect x="2562.5" y="1252.5" width="323" height="181" stroke="#024C90" stroke-width="9.16667" stroke-miterlimit="8" fill="#83C2FD"/><rect x="2562.5" y="1433.5" width="323" height="181" stroke="#024C90" stroke-width="9.16667" stroke-miterlimit="8" fill="#83C2FD"/><rect x="3289.5" y="799.5" width="324" height="181" stroke="#024C90" stroke-width="9.16667" stroke-miterlimit="8" fill="#83C2FD"/><text font-family="Arial,Arial_MSFontService,sans-serif" font-weight="400" font-size="156" transform="matrix(1 0 0 1 3289.41 951)">B</text><rect x="3289.5" y="980.5" width="324" height="181" stroke="#024C90" stroke-width="9.16667" stroke-miterlimit="8" fill="#83C2FD"/><rect x="3289.5" y="1161.5" width="324" height="181" stroke="#024C90" stroke-width="9.16667" stroke-miterlimit="8" fill="#83C2FD"/><rect x="3397.5" y="920.5" width="323" height="181" stroke="#024C90" stroke-width="9.16667" stroke-miterlimit="8" fill="#83C2FD"/><text font-family="Arial,Arial_MSFontService,sans-serif" font-weight="400" font-size="156" transform="matrix(1 0 0 1 3397.16 1072)">B</text><rect x="3397.5" y="1101.5" width="323" height="181" stroke="#024C90" stroke-width="9.16667" stroke-miterlimit="8" fill="#83C2FD"/><rect x="3397.5" y="1282.5" width="323" height="181" stroke="#024C90" stroke-width="9.16667" stroke-miterlimit="8" fill="#83C2FD"/><rect x="3505.5" y="1040.5" width="323" height="182" stroke="#024C90" stroke-width="9.16667" stroke-miterlimit="8" fill="#83C2FD"/><text font-family="Arial,Arial_MSFontService,sans-serif" font-weight="400" font-size="156" transform="matrix(1 0 0 1 3504.92 1192)">B</text><rect x="3505.5" y="1222.5" width="323" height="181" stroke="#024C90" stroke-width="9.16667" stroke-miterlimit="8" fill="#83C2FD"/><rect x="3505.5" y="1403.5" width="323" height="181" stroke="#024C90" stroke-width="9.16667" stroke-miterlimit="8" fill="#83C2FD"/><rect x="3613.5" y="1161.5" width="323" height="181" stroke="#024C90" stroke-width="9.16667" stroke-miterlimit="8" fill="#83C2FD"/><text font-family="Arial,Arial_MSFontService,sans-serif" font-weight="400" font-size="156" transform="matrix(1 0 0 1 3612.67 1313)">B</text><rect x="3613.5" y="1342.5" width="323" height="181" stroke="#024C90" stroke-width="9.16667" stroke-miterlimit="8" fill="#83C2FD"/><rect x="3613.5" y="1523.5" width="323" height="181" stroke="#024C90" stroke-width="9.16667" stroke-miterlimit="8" fill="#83C2FD"/><path d="M5.04325 0.623479 401.507 266.568 398.954 270.374 2.49002 4.42978ZM15.608 32.1698-0.00882037-0.00591701 35.6861 2.23793C36.9493 2.31734 37.9089 3.4057 37.8295 4.66886 37.7501 5.93202 36.6618 6.89164 35.3986 6.81223L3.62446 4.81486 5.8299 1.52706 19.7314 30.1685C20.284 31.3072 19.809 32.6782 18.6704 33.2308 17.5317 33.7835 16.1607 33.3085 15.608 32.1698ZM388.392 238.83 404.009 271.006 368.314 268.762C367.051 268.682 366.091 267.594 366.17 266.331 366.25 265.068 367.338 264.108 368.601 264.188L400.375 266.185 398.17 269.473 384.269 240.831C383.716 239.693 384.191 238.322 385.33 237.769 386.468 237.216 387.839 237.691 388.392 238.83Z" transform="matrix(1 0 0 -1 2885.5 1342.5)"/><path d="M5.05226-0.560565 481.554 177.268 479.951 181.562 3.44974 3.73349ZM22.6326 27.6817-0.00995097-0.0037136 35.2345-6.08579C36.4818-6.30102 37.6673-5.46443 37.8825-4.21721 38.0978-2.96999 37.2612-1.78445 36.014-1.56922L4.64082 3.84479 6.02505 0.135682 26.1805 24.78C26.9818 25.7597 26.8371 27.2035 25.8574 28.0048 24.8777 28.806 23.4339 28.6614 22.6326 27.6817ZM462.367 153.318 485.01 181.004 449.766 187.086C448.518 187.301 447.333 186.464 447.118 185.217 446.902 183.97 447.739 182.784 448.986 182.569L480.359 177.155 478.975 180.864 458.819 156.22C458.018 155.24 458.163 153.796 459.143 152.995 460.122 152.194 461.566 152.338 462.367 153.318Z" transform="matrix(1 0 0 -1 2885.5 1342.5)"/><path d="M4.81358-1.64414 642.81 87.1032 642.179 91.6428 4.18211 2.89548ZM28.1054 22.1042-0.0105202-0.00146344 33.0712-13.5943C34.2419-14.0754 35.5808-13.5163 36.0619-12.3456 36.5429-11.1749 35.9838-9.83595 34.8131-9.35493L5.36519 2.74487 5.91065-1.17636 30.9382 18.5012C31.9332 19.2835 32.1056 20.7242 31.3233 21.7191 30.541 22.7141 29.1003 22.8865 28.1054 22.1042ZM618.895 67.8955 647.01 90.0012 613.929 103.594C612.758 104.075 611.419 103.516 610.938 102.345 610.457 101.175 611.016 99.8357 612.187 99.3546L641.635 87.2548 641.089 91.1761 616.062 71.4985C615.067 70.7162 614.894 69.2755 615.677 68.2806 616.459 67.2856 617.9 67.1132 618.895 67.8955Z" transform="matrix(1 0 0 -1 2885.5 1342.5)"/><path d="M2890.29 1340.79 3609.28 1430.66 3608.71 1435.21 2889.72 1345.34ZM2913.91 1364.21 2885.49 1342.5 2918.38 1328.45C2919.54 1327.95 2920.89 1328.49 2921.39 1329.66 2921.88 1330.82 2921.34 1332.17 2920.18 1332.66L2890.9 1345.17 2891.39 1341.24 2916.69 1360.57C2917.7 1361.34 2917.89 1362.78 2917.12 1363.78 2916.35 1364.79 2914.91 1364.98 2913.91 1364.21ZM3585.09 1411.79 3613.51 1433.5 3580.62 1447.55C3579.46 1448.05 3578.11 1447.51 3577.61 1446.34 3577.12 1445.18 3577.66 1443.83 3578.82 1443.34L3608.1 1430.83 3607.61 1434.76 3582.31 1415.43C3581.3 1414.66 3581.11 1413.22 3581.88 1412.22 3582.65 1411.21 3584.09 1411.02 3585.09 1411.79Z"/></g></svg>