<?xml version="1.0" encoding="UTF-8" standalone="no"?>
<!-- Created with Inkscape (http://www.inkscape.org/) -->

<svg
   xmlns:dc="http://purl.org/dc/elements/1.1/"
   xmlns:cc="http://creativecommons.org/ns#"
   xmlns:rdf="http://www.w3.org/1999/02/22-rdf-syntax-ns#"
   xmlns:svg="http://www.w3.org/2000/svg"
   xmlns="http://www.w3.org/2000/svg"
   xmlns:sodipodi="http://sodipodi.sourceforge.net/DTD/sodipodi-0.dtd"
   xmlns:inkscape="http://www.inkscape.org/namespaces/inkscape"
   version="1.1"
   id="svg2"
   xml:space="preserve"
   width="1898.5002"
   height="1786.3003"
   viewBox="0 0 1898.5002 1786.3003"
   sodipodi:docname="struktury.svg"
   inkscape:version="0.92.5 (2060ec1f9f, 2020-04-08)"><metadata
     id="metadata8"><rdf:RDF><cc:Work
         rdf:about=""><dc:format>image/svg+xml</dc:format><dc:type
           rdf:resource="http://purl.org/dc/dcmitype/StillImage" /><dc:title></dc:title></cc:Work></rdf:RDF></metadata><defs
     id="defs6" /><sodipodi:namedview
     pagecolor="#ffffff"
     bordercolor="#666666"
     borderopacity="1"
     objecttolerance="10"
     gridtolerance="10"
     guidetolerance="10"
     inkscape:pageopacity="0"
     inkscape:pageshadow="2"
     inkscape:window-width="1920"
     inkscape:window-height="1028"
     id="namedview4"
     showgrid="false"
     inkscape:zoom="0.13211664"
     inkscape:cx="949.25012"
     inkscape:cy="893.15015"
     inkscape:window-x="0"
     inkscape:window-y="0"
     inkscape:window-maximized="1"
     inkscape:current-layer="g10" /><g
     id="g10"
     inkscape:groupmode="layer"
     inkscape:label="struktury"
     transform="matrix(1.3333333,0,0,1.3333333,0,5.1324174e-5)"><g
       id="g12"><path
         d="m 563.699,521.102 14.778,6.148 98.097,-236.324 29.551,12.222 -98.176,236.403 14.852,6.148 -41.852,17.25 z"
         style="fill:#caacdd;fill-opacity:0.32900002;fill-rule:evenodd;stroke:none"
         id="path14"
         inkscape:connector-curvature="0" /><g
         id="g16"><path
           d="m 563.699,521.102 14.778,6.148 98.097,-236.324 29.551,12.222 -98.176,236.403 14.852,6.148 -41.852,17.25 z"
           style="fill:none;stroke:#ffffff;stroke-width:2.1166501;stroke-linecap:butt;stroke-linejoin:round;stroke-miterlimit:4;stroke-dasharray:none;stroke-opacity:0.32900002"
           id="path18"
           inkscape:connector-curvature="0" /></g><g
         id="g20"><path
           d="m 563.699,521.102 14.778,6.148 98.097,-236.324 29.551,12.222 -98.176,236.403 14.852,6.148 -41.852,17.25 z"
           style="fill:none;stroke:#3b1f4d;stroke-width:5.32499981;stroke-linecap:butt;stroke-linejoin:round;stroke-miterlimit:4;stroke-dasharray:none;stroke-opacity:1"
           id="path22"
           inkscape:connector-curvature="0" /></g><path
         d="M 961.875,549.227 977.023,544.199 900,312.75 l 30.301,-10.051 77.023,231.375 15.227,-5.023 -20.25,40.5 z"
         style="fill:#caacdd;fill-opacity:0.32900002;fill-rule:evenodd;stroke:none"
         id="path24"
         inkscape:connector-curvature="0" /><g
         id="g26"><path
           d="M 961.875,549.227 977.023,544.199 900,312.75 l 30.301,-10.051 77.023,231.375 15.227,-5.023 -20.25,40.5 z"
           style="fill:none;stroke:#ffffff;stroke-width:2.1166501;stroke-linecap:butt;stroke-linejoin:round;stroke-miterlimit:4;stroke-dasharray:none;stroke-opacity:0.32900002"
           id="path28"
           inkscape:connector-curvature="0" /></g><g
         id="g30"><path
           d="M 961.875,549.227 977.023,544.199 900,312.75 l 30.301,-10.051 77.023,231.375 15.227,-5.023 -20.25,40.5 z"
           style="fill:none;stroke:#3b1f4d;stroke-width:5.32499981;stroke-linecap:butt;stroke-linejoin:round;stroke-miterlimit:4;stroke-dasharray:none;stroke-opacity:1"
           id="path32"
           inkscape:connector-curvature="0" /></g><path
         d="m 315.602,1061.477 14.773,6.148 98.102,-236.324 29.546,12.222 -98.171,236.403 14.847,6.148 -41.847,17.25 z"
         style="fill:#caacdd;fill-opacity:0.32900002;fill-rule:evenodd;stroke:none"
         id="path34"
         inkscape:connector-curvature="0" /><g
         id="g36"><path
           d="m 315.602,1061.477 14.773,6.148 98.102,-236.324 29.546,12.222 -98.171,236.403 14.847,6.148 -41.847,17.25 z"
           style="fill:none;stroke:#ffffff;stroke-width:2.1166501;stroke-linecap:butt;stroke-linejoin:round;stroke-miterlimit:4;stroke-dasharray:none;stroke-opacity:0.32900002"
           id="path38"
           inkscape:connector-curvature="0" /></g><g
         id="g40"><path
           d="m 315.602,1061.477 14.773,6.148 98.102,-236.324 29.546,12.222 -98.171,236.403 14.847,6.148 -41.847,17.25 z"
           style="fill:none;stroke:#3b1f4d;stroke-width:5.32499981;stroke-linecap:butt;stroke-linejoin:round;stroke-miterlimit:4;stroke-dasharray:none;stroke-opacity:1"
           id="path42"
           inkscape:connector-curvature="0" /></g><path
         d="m 713.773,1089.676 15.153,-5.028 -77.028,-231.449 30.301,-10.051 77.028,231.375 15.222,-5.023 -20.25,40.5 z"
         style="fill:#caacdd;fill-opacity:0.32900002;fill-rule:evenodd;stroke:none"
         id="path44"
         inkscape:connector-curvature="0" /><g
         id="g46"><path
           d="m 713.773,1089.676 15.153,-5.028 -77.028,-231.449 30.301,-10.051 77.028,231.375 15.222,-5.023 -20.25,40.5 z"
           style="fill:none;stroke:#ffffff;stroke-width:2.1166501;stroke-linecap:butt;stroke-linejoin:round;stroke-miterlimit:4;stroke-dasharray:none;stroke-opacity:0.32900002"
           id="path48"
           inkscape:connector-curvature="0" /></g><g
         id="g50"><path
           d="m 713.773,1089.676 15.153,-5.028 -77.028,-231.449 30.301,-10.051 77.028,231.375 15.222,-5.023 -20.25,40.5 z"
           style="fill:none;stroke:#3b1f4d;stroke-width:5.32499981;stroke-linecap:butt;stroke-linejoin:round;stroke-miterlimit:4;stroke-dasharray:none;stroke-opacity:1"
           id="path52"
           inkscape:connector-curvature="0" /></g><g
         id="g54"><path
           d="m 444.75,46.352 0.074,-2.176 0.153,-2.176 0.296,-2.176 0.375,-2.097 0.528,-2.102 0.597,-2.102 0.75,-2.023 0.829,-2.023 0.898,-1.954 1.051,-1.949 1.125,-1.801 1.273,-1.796 1.278,-1.727 1.421,-1.648 1.5,-1.579 1.579,-1.5 1.648,-1.421 1.727,-1.278 1.796,-1.273 1.875,-1.125 1.875,-1.051 1.954,-0.898 2.023,-0.829 2.023,-0.75 2.102,-0.597 2.102,-0.528 2.097,-0.375 2.176,-0.296 2.176,-0.153 2.176,-0.074 h 617.097 l 2.176,0.074 2.176,0.153 2.176,0.296 2.097,0.375 2.102,0.528 2.097,0.597 2.028,0.75 2.023,0.829 1.949,0.898 1.954,1.051 1.796,1.125 1.801,1.273 1.727,1.278 1.648,1.421 1.574,1.5 1.5,1.579 1.426,1.648 1.278,1.727 1.273,1.796 1.125,1.875 1.051,1.875 0.898,1.954 0.824,2.023 0.75,2.023 0.602,2.102 0.523,2.102 0.375,2.097 0.301,2.176 0.153,2.176 0.074,2.176 0.074,166.046 h -0.074 l -0.074,2.176 -0.153,2.176 -0.301,2.102 -0.375,2.171 -0.523,2.102 -0.602,2.102 -0.75,2.023 -0.824,2.023 -0.898,1.954 -1.051,1.875 -1.125,1.875 -1.199,1.796 -1.352,1.727 -1.426,1.648 -1.5,1.579 -1.574,1.5 -1.648,1.347 -1.653,1.352 -1.796,1.199 -1.875,1.199 -1.875,0.977 -1.954,0.972 -2.023,0.829 -2.023,0.75 -2.102,0.597 -2.102,0.528 -2.171,0.375 -2.102,0.296 -2.176,0.153 -2.176,0.074 -617.171,0.074 v -0.074 l -2.176,-0.074 -2.176,-0.153 -2.102,-0.296 -2.171,-0.375 -2.102,-0.528 -2.102,-0.597 -2.023,-0.75 -2.023,-0.829 -1.954,-0.898 -1.875,-1.051 -1.875,-1.125 -1.796,-1.199 -1.727,-1.352 -1.648,-1.421 -1.579,-1.5 -1.5,-1.579 -1.347,-1.648 -1.352,-1.648 -1.199,-1.801 -1.199,-1.875 -0.977,-1.875 -0.972,-1.949 -0.829,-2.028 -0.75,-2.023 -0.597,-2.102 -0.528,-2.097 -0.375,-2.176 -0.296,-2.102 -0.153,-2.176 -0.074,-2.171 z"
           style="fill:#ffc000;fill-opacity:1;fill-rule:evenodd;stroke:#3b1f4d;stroke-width:5.32499981;stroke-linecap:butt;stroke-linejoin:round;stroke-miterlimit:4;stroke-dasharray:none;stroke-opacity:1"
           id="path56"
           inkscape:connector-curvature="0" /></g><text
         transform="translate(503.69971,77.360229)"
         style="font-variant:normal;font-weight:normal;font-size:61.04999924px;font-family:Arimo;-inkscape-font-specification:Arimo;writing-mode:lr-tb;fill:#000000;fill-opacity:1;fill-rule:nonzero;stroke:none"
         id="text62"><tspan
           x="0 40.659302 57.570152 77.899803 111.84361 142.36861 159.27945 193.22325 213.5529 247.4967 278.0217 311.96552 345.9093 376.4343 393.34515 427.28897 461.23276 478.14362 512.0874 542.61243 573.13739"
           y="0"
           sodipodi:role="line"
           id="tspan58">Strukturovaný datový </tspan><tspan
           x="245.77516 262.686 293.211"
           y="143.77513"
           sodipodi:role="line"
           id="tspan60">typ</tspan></text>
<g
         id="g64"><path
           d="m 283.949,643.5 0.074,-1.426 0.079,-1.426 0.222,-1.5 0.227,-1.421 0.375,-1.352 0.375,-1.426 0.449,-1.347 0.602,-1.352 0.597,-1.273 0.676,-1.278 0.75,-1.199 0.824,-1.199 0.903,-1.199 0.972,-1.051 0.977,-1.051 1.051,-0.977 1.046,-0.972 1.204,-0.903 1.199,-0.824 1.199,-0.75 1.273,-0.676 1.278,-0.597 1.347,-0.602 1.352,-0.449 1.426,-0.375 1.347,-0.375 1.426,-0.227 1.5,-0.222 1.426,-0.074 1.426,-0.079 h 371.472 l 1.426,0.079 1.426,0.074 1.5,0.222 1.426,0.227 1.347,0.375 1.426,0.375 1.352,0.449 1.347,0.602 1.278,0.597 1.273,0.676 1.199,0.75 1.204,0.824 1.199,0.903 1.051,0.972 1.046,0.977 1.954,2.102 0.898,1.199 0.824,1.199 0.75,1.199 0.676,1.278 0.602,1.273 0.597,1.352 0.449,1.347 0.375,1.426 0.375,1.352 0.227,1.421 0.227,1.5 0.148,2.852 0.074,110.625 h -0.074 l -0.148,2.852 -0.227,1.421 -0.227,1.426 -0.296,1.426 -0.454,1.426 -0.449,1.347 -0.597,1.278 -0.602,1.347 -0.676,1.278 -0.75,1.199 -0.824,1.199 -0.898,1.125 -0.903,1.125 -0.972,1.051 -1.051,0.977 -1.125,0.972 -1.125,0.824 -1.199,0.829 -1.204,0.75 -1.273,0.75 -1.352,0.597 -1.273,0.528 -1.426,0.523 -1.347,0.375 -1.426,0.375 -1.426,0.227 -1.426,0.222 -1.426,0.074 -1.421,0.079 -371.551,0.074 v -0.074 l -1.426,-0.079 -1.426,-0.074 -1.426,-0.222 -1.421,-0.227 -1.426,-0.301 -1.426,-0.449 -1.352,-0.449 -1.273,-0.602 -1.352,-0.597 -1.273,-0.676 -1.199,-0.75 -1.199,-0.824 -1.125,-0.903 -1.125,-0.898 -1.051,-0.977 -0.977,-1.051 -0.972,-1.125 -0.829,-1.125 -0.824,-1.199 -0.75,-1.199 -0.75,-1.273 -0.597,-1.352 -0.528,-1.273 -0.523,-1.426 -0.375,-1.352 -0.375,-1.426 -0.227,-1.421 -0.222,-1.426 -0.079,-1.426 -0.074,-1.426 z"
           style="fill:#ffc000;fill-opacity:1;fill-rule:evenodd;stroke:#3b1f4d;stroke-width:5.32499981;stroke-linecap:butt;stroke-linejoin:round;stroke-miterlimit:4;stroke-dasharray:none;stroke-opacity:1"
           id="path66"
           inkscape:connector-curvature="0" /></g><text
         transform="translate(379.65015,720.35486)"
         style="font-variant:normal;font-weight:normal;font-size:61.04999924px;font-family:Arimo;-inkscape-font-specification:Arimo;writing-mode:lr-tb;fill:#000000;fill-opacity:1;fill-rule:nonzero;stroke:none"
         id="text70"><tspan
           x="0 40.659302 57.570152 77.899803 111.84361 142.36861 159.27945 193.22325 213.5529"
           y="0"
           sodipodi:role="line"
           id="tspan68">Struktura</tspan></text>
<g
         id="g72"><path
           d="m 892.875,640.801 0.148,-2.852 0.227,-1.5 0.227,-1.426 0.375,-1.347 0.375,-1.426 0.449,-1.352 0.597,-1.347 0.602,-1.278 0.676,-1.273 0.75,-1.199 0.824,-1.199 0.898,-1.204 0.977,-1.046 0.977,-1.051 1.046,-0.977 1.051,-0.972 1.199,-0.903 1.204,-0.824 1.199,-0.75 1.273,-0.676 1.278,-0.597 1.347,-0.602 1.352,-0.449 1.426,-0.375 1.347,-0.375 1.426,-0.227 1.5,-0.222 1.426,-0.079 1.426,-0.074 h 371.472 l 1.426,0.074 1.426,0.079 1.5,0.222 1.426,0.227 1.347,0.375 1.426,0.375 1.352,0.449 1.347,0.602 1.278,0.597 1.273,0.676 1.199,0.75 1.199,0.824 1.204,0.903 1.046,0.972 1.051,0.977 0.977,1.051 0.972,1.046 0.903,1.204 0.824,1.199 0.75,1.199 0.676,1.273 0.597,1.278 0.602,1.347 0.449,1.352 0.375,1.426 0.375,1.347 0.227,1.426 0.222,1.5 0.079,1.426 0.074,1.426 0.074,110.625 h -0.074 l -0.074,1.426 -0.079,1.421 -0.222,1.426 -0.227,1.426 -0.301,1.426 -0.449,1.426 -0.449,1.347 -0.602,1.278 -0.597,1.347 -0.676,1.278 -0.75,1.199 -0.824,1.199 -0.903,1.125 -0.898,1.125 -0.977,1.051 -1.046,0.972 -1.125,0.977 -1.125,0.824 -1.204,0.824 -1.199,0.75 -1.273,0.75 -1.352,0.602 -1.273,0.523 -1.426,0.528 -1.352,0.375 -1.421,0.375 -1.426,0.222 -1.426,0.227 -2.852,0.148 -371.546,0.079 v -0.079 l -2.852,-0.148 -1.426,-0.227 -1.426,-0.222 -1.421,-0.301 -1.426,-0.449 -1.352,-0.449 -1.273,-0.602 -1.352,-0.602 -1.273,-0.671 -1.199,-0.75 -1.204,-0.829 -2.25,-1.796 -1.046,-0.977 -0.977,-1.051 -0.977,-1.125 -0.824,-1.125 -0.824,-1.199 -0.75,-1.199 -0.75,-1.278 -0.602,-1.347 -0.523,-1.278 -0.523,-1.421 -0.375,-1.352 -0.375,-1.426 -0.227,-1.426 -0.227,-1.421 -0.148,-2.852 z"
           style="fill:#ffc000;fill-opacity:1;fill-rule:evenodd;stroke:#3b1f4d;stroke-width:5.32499981;stroke-linecap:butt;stroke-linejoin:round;stroke-miterlimit:4;stroke-dasharray:none;stroke-opacity:1"
           id="path74"
           inkscape:connector-curvature="0" /></g><text
         transform="translate(1003.6501,720.35486)"
         style="font-variant:normal;font-weight:normal;font-size:61.04999924px;font-family:Arimo;-inkscape-font-specification:Arimo;writing-mode:lr-tb;fill:#000000;fill-opacity:1;fill-rule:nonzero;stroke:none"
         id="text78"><tspan
           x="0 40.659302 74.603104 88.156204 122.1 152.625 183.15001"
           y="0"
           sodipodi:role="line"
           id="tspan76">Kolekce</tspan></text>
<g
         id="g80"><path
           d="m 2.699,1198.648 0.074,-1.421 0.079,-1.426 0.222,-1.5 0.227,-1.426 0.375,-1.352 0.375,-1.421 0.449,-1.352 0.602,-1.352 0.597,-1.273 0.676,-1.273 0.75,-1.204 0.824,-1.199 0.903,-1.199 0.972,-1.051 0.977,-1.051 1.051,-0.972 1.046,-0.977 1.204,-0.898 1.199,-0.824 1.199,-0.75 1.273,-0.676 1.278,-0.602 1.347,-0.597 1.352,-0.454 1.426,-0.375 1.347,-0.375 1.426,-0.222 1.5,-0.227 2.852,-0.148 h 371.472 l 2.852,0.148 1.5,0.227 1.426,0.222 1.347,0.375 1.426,0.375 1.352,0.454 1.347,0.597 1.278,0.602 1.273,0.676 1.199,0.75 1.204,0.824 1.199,0.898 1.051,0.977 1.046,0.972 1.954,2.102 0.898,1.199 0.824,1.199 0.75,1.204 0.676,1.273 0.602,1.273 0.597,1.352 0.449,1.352 0.375,1.421 0.375,1.352 0.227,1.426 0.227,1.5 0.074,1.426 0.074,1.421 0.074,110.625 h -0.074 l -0.148,2.852 -0.454,2.852 -0.296,1.421 -0.454,1.426 -0.449,1.352 -0.597,1.273 -0.602,1.352 -0.676,1.273 -0.75,1.199 -0.824,1.204 -0.898,1.125 -0.903,1.125 -0.972,1.046 -1.051,0.977 -1.125,0.977 -1.125,0.824 -1.199,0.824 -1.204,0.75 -1.273,0.75 -1.352,0.602 -1.273,0.523 -1.426,0.523 -1.347,0.375 -1.426,0.375 -2.852,0.454 -1.426,0.074 -1.421,0.074 -371.551,0.074 v -0.074 l -2.852,-0.148 -1.426,-0.227 -1.421,-0.227 -1.426,-0.296 -1.426,-0.454 -1.352,-0.449 -1.273,-0.597 -1.352,-0.602 -1.273,-0.676 -1.199,-0.75 -1.199,-0.824 -1.125,-0.898 -1.125,-0.903 -1.051,-0.972 -0.977,-1.051 -0.972,-1.125 -0.829,-1.125 -0.824,-1.199 -0.75,-1.204 -0.75,-1.273 -0.597,-1.352 -0.528,-1.273 -0.523,-1.426 -0.375,-1.347 -0.375,-1.426 -0.227,-1.426 -0.222,-1.426 -0.079,-1.426 -0.074,-1.421 z"
           style="fill:#ffc000;fill-opacity:1;fill-rule:evenodd;stroke:#3b1f4d;stroke-width:5.32499981;stroke-linecap:butt;stroke-linejoin:round;stroke-miterlimit:4;stroke-dasharray:none;stroke-opacity:1"
           id="path82"
           inkscape:connector-curvature="0" /></g><text
         transform="translate(133.94971,1275.505)"
         style="font-variant:normal;font-weight:normal;font-size:61.04999924px;font-family:Arimo;-inkscape-font-specification:Arimo;writing-mode:lr-tb;fill:#000000;fill-opacity:1;fill-rule:nonzero;stroke:none"
         id="text86"><tspan
           x="0 47.435852 81.379654 94.932755 128.87656 159.40155"
           y="0"
           sodipodi:role="line"
           id="tspan84">Objekt</tspan></text>
<g
         id="g88"><path
           d="m 720.977,1191.824 0.148,-3 0.227,-1.574 0.222,-1.426 0.375,-1.5 0.449,-1.5 0.528,-1.426 0.523,-1.347 0.676,-1.426 0.75,-1.352 0.75,-1.273 0.898,-1.199 0.903,-1.278 0.972,-1.125 1.051,-1.125 1.125,-1.046 1.125,-0.977 1.278,-0.898 1.199,-0.903 1.347,-0.75 1.278,-0.75 1.426,-0.676 1.347,-0.523 1.426,-0.523 1.5,-0.454 1.5,-0.375 1.426,-0.222 1.574,-0.227 3,-0.148 h 642 l 3,0.148 1.574,0.227 1.426,0.222 1.5,0.375 1.5,0.454 1.426,0.523 1.347,0.523 1.426,0.676 1.352,0.75 1.273,0.75 1.199,0.903 1.278,0.898 1.125,0.977 1.125,1.046 1.051,1.125 0.972,1.125 0.903,1.278 0.898,1.199 0.75,1.352 0.75,1.273 0.676,1.426 0.523,1.347 0.528,1.426 0.449,1.5 0.375,1.5 0.222,1.426 0.227,1.574 0.148,3 0.079,116.028 -0.079,1.5 -0.074,1.5 -0.222,1.574 -0.227,1.426 -0.375,1.5 -0.449,1.5 -0.528,1.421 -0.523,1.352 -0.676,1.426 -0.75,1.273 -0.75,1.352 -0.898,1.199 -0.903,1.273 -0.972,1.125 -1.051,1.125 -1.125,1.051 -1.125,0.977 -1.273,0.898 -1.204,0.903 -1.273,0.75 -1.352,0.75 -1.421,0.671 -1.352,0.528 -1.426,0.523 -1.5,0.449 -1.5,0.375 -1.426,0.227 -1.574,0.227 -3,0.148 -642.074,0.074 -3,-0.148 -1.574,-0.227 -1.426,-0.222 -1.5,-0.375 -1.5,-0.454 -1.426,-0.523 -1.347,-0.523 -1.426,-0.676 -1.278,-0.75 -1.347,-0.75 -1.199,-0.903 -1.278,-0.898 -1.125,-0.977 -1.125,-1.046 -1.051,-1.125 -0.972,-1.125 -0.903,-1.278 -0.898,-1.199 -0.75,-1.273 -0.75,-1.352 -0.676,-1.426 -0.523,-1.347 -0.528,-1.426 -0.449,-1.5 -0.375,-1.5 -0.222,-1.426 -0.227,-1.574 -0.148,-3 z"
           style="fill:#ffc000;fill-opacity:1;fill-rule:evenodd;stroke:#3b1f4d;stroke-width:5.32499981;stroke-linecap:butt;stroke-linejoin:round;stroke-miterlimit:4;stroke-dasharray:none;stroke-opacity:1"
           id="path90"
           inkscape:connector-curvature="0" /></g><text
         transform="translate(851.25,1275.505)"
         style="font-variant:normal;font-weight:normal;font-size:61.04999924px;font-family:Arimo;-inkscape-font-specification:Arimo;writing-mode:lr-tb;fill:#000000;fill-opacity:1;fill-rule:nonzero;stroke:none"
         id="text94"><tspan
           x="0 40.659302 60.988953 94.932755 125.45775 142.36861 176.31241 193.22325 223.74826 240.6591 260.98877 294.93256 325.45755 342.36841 376.31219 396.64185"
           y="0"
           sodipodi:role="line"
           id="tspan92">Prostá struktura</tspan></text>
</g></g></svg>