<svg width="4093" height="2737" xmlns="http://www.w3.org/2000/svg" xmlns:xlink="http://www.w3.org/1999/xlink" xml:space="preserve" overflow="hidden"><defs><clipPath id="clip0"><rect x="338" y="587" width="4093" height="2737"/></clipPath></defs><g clip-path="url(#clip0)" transform="translate(-338 -587)"><path d="M1016.5 2647.5C1016.5 2545.33 1099.33 2462.5 1201.5 2462.5 1303.67 2462.5 1386.5 2545.33 1386.5 2647.5 1386.5 2749.67 1303.67 2832.5 1201.5 2832.5 1099.33 2832.5 1016.5 2749.67 1016.5 2647.5Z" stroke="#6E5F11" stroke-width="9.16667" stroke-linejoin="round" stroke-miterlimit="10" fill="#92D050" fill-rule="evenodd" fill-opacity="0.329412"/><path d="M342.5 780.14C342.5 675.957 426.957 591.5 531.139 591.5L4237.86 591.5C4342.04 591.5 4426.5 675.957 4426.5 780.14L4426.5 3130.86C4426.5 3235.04 4342.04 3319.5 4237.86 3319.5L531.139 3319.5C426.957 3319.5 342.5 3235.04 342.5 3130.86Z" stroke="#02488C" stroke-width="9.16667" stroke-linejoin="round" stroke-miterlimit="10" fill="#0365C0" fill-rule="evenodd" fill-opacity="0.0509804"/><text font-family="Arial Nova Light,Arial Nova Light_MSFontService,sans-serif" font-weight="300" font-size="156" transform="matrix(1 0 0 1 2429.33 942)">zanořená datová struktura</text><path d="M1977.5 1501.5C1977.5 1399.33 2060.33 1316.5 2162.5 1316.5 2264.67 1316.5 2347.5 1399.33 2347.5 1501.5 2347.5 1603.67 2264.67 1686.5 2162.5 1686.5 2060.33 1686.5 1977.5 1603.67 1977.5 1501.5Z" stroke="#02488C" stroke-width="9.16667" stroke-linejoin="round" stroke-miterlimit="10" fill="#0365C0" fill-rule="evenodd" fill-opacity="0.329412"/><path d="M1349.21 2348.94 1370.6 2366.57 1949.85 1663.4 1992.64 1698.65 1413.39 2401.82 1434.79 2419.44 1356.75 2426.98Z" stroke="#02488C" stroke-width="9.16667" stroke-miterlimit="8" fill="#0365C0" fill-rule="evenodd"/><path d="M2885.89 2172.87 2902.97 2151.03 2343.68 1713.53 2377.83 1669.86 2937.12 2107.37 2954.2 2085.54 2963.71 2163.36Z" stroke="#02488C" stroke-width="9.16667" stroke-miterlimit="8" fill="#0365C0" fill-rule="evenodd"/><path d="M2975.5 2204C2975.5 2102.1 3058.33 2019.5 3160.5 2019.5 3262.67 2019.5 3345.5 2102.1 3345.5 2204 3345.5 2305.9 3262.67 2388.5 3160.5 2388.5 3058.33 2388.5 2975.5 2305.9 2975.5 2204Z" stroke="#02488C" stroke-width="9.16667" stroke-linejoin="round" stroke-miterlimit="10" fill="#0365C0" fill-rule="evenodd" fill-opacity="0.329412"/><rect x="3123.5" y="2647.5" width="185" height="222" stroke="#000000" stroke-width="4.58333" stroke-miterlimit="8" fill="#002060" fill-opacity="0.109804"/><text font-family="Arial Nova Light,Arial Nova Light_MSFontService,sans-serif" font-weight="300" font-size="130" transform="matrix(1 0 0 1 3178.25 2780)">…</text><path d="M2871.74 2485.56 2897.34 2496.19 2946.97 2376.68 2998.17 2397.94 2948.54 2517.45 2974.14 2528.08 2901.68 2558.02Z" stroke="#02488C" stroke-width="9.16667" stroke-miterlimit="8" fill="#0365C0" fill-rule="evenodd"/><path d="M3035.98 2583.95 3063.42 2587.85 3085.95 2429.17 3140.83 2436.96 3118.31 2595.64 3145.75 2599.54 3083.07 2646.63Z" stroke="#02488C" stroke-width="9.16667" stroke-miterlimit="8" fill="#0365C0" fill-rule="evenodd"/><path d="M3364.5 2594.27 3390.8 2585.52 3333.91 2414.57 3386.52 2397.06 3443.4 2568.01 3469.71 2559.26 3434.61 2629.37Z" stroke="#02488C" stroke-width="9.16667" stroke-miterlimit="8" fill="#0365C0" fill-rule="evenodd"/><text font-family="Arial Nova Light,Arial Nova Light_MSFontService,sans-serif" font-weight="300" font-size="130" transform="matrix(1 0 0 1 2439.06 2410)">jméno</text><text font-family="Arial Nova Light,Arial Nova Light_MSFontService,sans-serif" font-weight="300" font-size="87" transform="matrix(1 0 0 1 2779.37 2442)">1</text><text font-family="Arial Nova Light,Arial Nova Light_MSFontService,sans-serif" font-weight="300" font-size="130" transform="matrix(1 0 0 1 2660.82 2743)">jméno</text><text font-family="Arial Nova Light,Arial Nova Light_MSFontService,sans-serif" font-weight="300" font-size="87" transform="matrix(1 0 0 1 3001.13 2775)">2</text><text font-family="Arial Nova Light,Arial Nova Light_MSFontService,sans-serif" font-weight="300" font-size="130" transform="matrix(1 0 0 1 3326.09 2780)">jméno</text><text font-family="Arial Nova Light,Arial Nova Light_MSFontService,sans-serif" font-weight="300" font-size="87" transform="matrix(1 0 0 1 3666.4 2812)">n</text><text font-family="Arial Nova Light,Arial Nova Light_MSFontService,sans-serif" font-weight="300" font-size="130" transform="matrix(1 0 0 1 1552.03 1819)">C</text><text font-family="Arial Nova Light,Arial Nova Light_MSFontService,sans-serif" font-weight="300" font-size="130" transform="matrix(1 0 0 1 2808.65 1819)">D</text><rect x="3271.5" y="3070.5" width="911" height="191" stroke="#7030A0" stroke-width="9.16667" stroke-linejoin="round" stroke-miterlimit="10" fill="#7030A0" fill-opacity="0.211765"/><text font-family="Arial Nova Light,Arial Nova Light_MSFontService,sans-serif" font-weight="300" font-size="130" transform="matrix(1 0 0 1 3484.04 3213)">D.jméno</text><text font-family="Arial Nova Light,Arial Nova Light_MSFontService,sans-serif" font-weight="300" font-size="87" transform="matrix(1 0 0 1 3951.54 3245)">i</text></g></svg>