<svg width="4238" height="2765" xmlns="http://www.w3.org/2000/svg" xmlns:xlink="http://www.w3.org/1999/xlink" xml:space="preserve" overflow="hidden"><defs><clipPath id="clip0"><rect x="218" y="559" width="4238" height="2765"/></clipPath></defs><g clip-path="url(#clip0)" transform="translate(-218 -559)"><path d="M222.5 758.046C222.5 650.601 309.601 563.5 417.046 563.5L4221.95 563.5C4329.4 563.5 4416.5 650.601 4416.5 758.046L4416.5 3124.95C4416.5 3232.4 4329.4 3319.5 4221.95 3319.5L417.046 3319.5C309.601 3319.5 222.5 3232.4 222.5 3124.95Z" stroke="#02488C" stroke-width="9.16667" stroke-linejoin="round" stroke-miterlimit="10" fill="#0365C0" fill-rule="evenodd" fill-opacity="0.0509804"/><path d="M3345.5 2425.5C3345.5 2323.33 3428.1 2240.5 3530 2240.5 3631.9 2240.5 3714.5 2323.33 3714.5 2425.5 3714.5 2527.67 3631.9 2610.5 3530 2610.5 3428.1 2610.5 3345.5 2527.67 3345.5 2425.5Z" stroke="#02488C" stroke-width="9.16667" stroke-linejoin="round" stroke-miterlimit="10" fill="#0365C0" fill-rule="evenodd" fill-opacity="0.329412"/><path d="M2531.5 1686.5C2531.5 1584.33 2614.33 1501.5 2716.5 1501.5 2818.67 1501.5 2901.5 1584.33 2901.5 1686.5 2901.5 1788.67 2818.67 1871.5 2716.5 1871.5 2614.33 1871.5 2531.5 1788.67 2531.5 1686.5Z" stroke="#C00000" stroke-width="9.16667" stroke-linejoin="round" stroke-miterlimit="10" fill="#FF0000" fill-rule="evenodd" fill-opacity="0.329412"/><path d="M958.435 2220.47 966.252 2247.07 2532.88 1786.6 2548.52 1839.78 981.885 2300.26 989.702 2326.85 920.881 2289.3Z" stroke="#C00000" stroke-width="9.16667" stroke-miterlimit="8" fill="#FF0000" fill-rule="evenodd" fill-opacity="0.329412"/><path d="M2173.31 2124.98 2189.61 2147.4 2589.87 1856.34 2622.48 1901.18 2222.21 2192.24 2238.52 2214.65 2161.07 2202.42Z" stroke="#C00000" stroke-width="9.16667" stroke-miterlimit="8" fill="#FF0000" fill-rule="evenodd"/><path d="M3379.36 2241.9 3397.97 2221.36 2956.63 1821.64 2993.84 1780.55 3435.18 2180.26 3453.79 2159.72 3457.67 2238.03Z" stroke="#C00000" stroke-width="9.16667" stroke-miterlimit="8" fill="#FF0000" fill-rule="evenodd" fill-opacity="0.329412"/><text font-family="Arial Nova Light,Arial Nova Light_MSFontService,sans-serif" font-weight="300" font-size="130" transform="matrix(1 0 0 1 1515.07 2003)">1</text><text font-family="Arial Nova Light,Arial Nova Light_MSFontService,sans-serif" font-weight="300" font-size="130" transform="matrix(1 0 0 1 2402.1 2114)">2</text><text font-family="Arial Nova Light,Arial Nova Light_MSFontService,sans-serif" font-weight="300" font-size="130" transform="matrix(1 0 0 1 3030.41 2077)">n</text><path d="M2125.5 910.5C2125.5 808.327 2208.33 725.5 2310.5 725.5 2412.67 725.5 2495.5 808.327 2495.5 910.5 2495.5 1012.67 2412.67 1095.5 2310.5 1095.5 2208.33 1095.5 2125.5 1012.67 2125.5 910.5Z" stroke="#02488C" stroke-width="9.16667" stroke-linejoin="round" stroke-miterlimit="10" fill="#0365C0" fill-rule="evenodd" fill-opacity="0.329412"/><path d="M1958.58 1418.23 1984.18 1428.86 2133.86 1068.4 2185.06 1089.66 2035.38 1450.12 2060.98 1460.75 1988.52 1490.69Z" stroke="#02488C" stroke-width="9.16667" stroke-miterlimit="8" fill="#0365C0" fill-rule="evenodd"/><path d="M2569.78 1467 2596.08 1458.25 2483.85 1120.99 2536.45 1103.48 2648.68 1440.75 2674.98 1431.99 2639.89 1502.1Z" stroke="#02488C" stroke-width="9.16667" stroke-miterlimit="8" fill="#0365C0" fill-rule="evenodd"/><text font-family="Arial Nova Light,Arial Nova Light_MSFontService,sans-serif" font-weight="300" font-size="130" transform="matrix(1 0 0 1 1847.71 1227)">A</text><text font-family="Arial Nova Light,Arial Nova Light_MSFontService,sans-serif" font-weight="300" font-size="130" transform="matrix(1 0 0 1 2734.73 1264)">B</text><path d="M1718.5 1686.5C1718.5 1584.33 1801.33 1501.5 1903.5 1501.5 2005.67 1501.5 2088.5 1584.33 2088.5 1686.5 2088.5 1788.67 2005.67 1871.5 1903.5 1871.5 1801.33 1871.5 1718.5 1788.67 1718.5 1686.5Z" stroke="#6E5F11" stroke-width="9.16667" stroke-linejoin="round" stroke-miterlimit="10" fill="#92D050" fill-rule="evenodd" fill-opacity="0.329412"/><rect x="2716.5" y="1945.5" width="185" height="222" stroke="#000000" stroke-width="4.58333" stroke-miterlimit="8" fill="#002060" fill-opacity="0.109804"/><text font-family="Arial Nova Light,Arial Nova Light_MSFontService,sans-serif" font-weight="300" font-size="130" transform="matrix(1 0 0 1 2771.69 2077)">…</text><text font-family="Arial Nova Light,Arial Nova Light_MSFontService,sans-serif" font-weight="300" font-size="156" transform="matrix(1 0 0 1 2604.76 873)">zanořená datová struktura</text><path d="M425.5 2425.5C425.5 2323.33 508.103 2240.5 610 2240.5 711.896 2240.5 794.5 2323.33 794.5 2425.5 794.5 2527.67 711.896 2610.5 610 2610.5 508.103 2610.5 425.5 2527.67 425.5 2425.5Z" stroke="#02488C" stroke-width="9.16667" stroke-linejoin="round" stroke-miterlimit="10" fill="#0365C0" fill-rule="evenodd" fill-opacity="0.329412"/><path d="M1866.5 2352C1866.5 2250.1 1949.33 2167.5 2051.5 2167.5 2153.67 2167.5 2236.5 2250.1 2236.5 2352 2236.5 2453.9 2153.67 2536.5 2051.5 2536.5 1949.33 2536.5 1866.5 2453.9 1866.5 2352Z" stroke="#02488C" stroke-width="9.16667" stroke-linejoin="round" stroke-miterlimit="10" fill="#0365C0" fill-rule="evenodd" fill-opacity="0.329412"/><rect x="3271.5" y="3070.5" width="911" height="191" stroke="#7030A0" stroke-width="9.16667" stroke-linejoin="round" stroke-miterlimit="10" fill="#7030A0" fill-opacity="0.211765"/><text font-family="Arial Nova Light,Arial Nova Light_MSFontService,sans-serif" font-weight="300" font-size="130" transform="matrix(1 0 0 1 3522.14 3213)">item</text><text font-family="Arial Nova Light,Arial Nova Light_MSFontService,sans-serif" font-weight="300" font-size="130" transform="matrix(1 0 0 1 3759.9 3213)">(B)</text></g></svg>