<svg width="4727" height="2845" xmlns="http://www.w3.org/2000/svg" xmlns:xlink="http://www.w3.org/1999/xlink" xml:space="preserve" overflow="hidden"><defs><clipPath id="clip0"><rect x="-4" y="583" width="4727" height="2845"/></clipPath></defs><g clip-path="url(#clip0)" transform="translate(4 -583)"><path d="M2920.5 2795.5C2920.5 2448.67 3263.67 2167.5 3687 2167.5 4110.33 2167.5 4453.5 2448.67 4453.5 2795.5 4453.5 3142.33 4110.33 3423.5 3687 3423.5 3263.67 3423.5 2920.5 3142.33 2920.5 2795.5Z" stroke="#7030A0" stroke-width="9.16667" stroke-linejoin="round" stroke-miterlimit="10" fill="#F8C39A" fill-rule="evenodd" fill-opacity="0.501961"/><path d="M1460.5 2758.5C1460.5 2411.67 1803.67 2130.5 2227 2130.5 2650.33 2130.5 2993.5 2411.67 2993.5 2758.5 2993.5 3105.33 2650.33 3386.5 2227 3386.5 1803.67 3386.5 1460.5 3105.33 1460.5 2758.5Z" stroke="#7030A0" stroke-width="9.16667" stroke-linejoin="round" stroke-miterlimit="10" fill="#F8C39A" fill-rule="evenodd" fill-opacity="0.501961"/><path d="M0.499836 2795.5C0.499836 2448.67 343.897 2167.5 767.5 2167.5 1191.1 2167.5 1534.5 2448.67 1534.5 2795.5 1534.5 3142.33 1191.1 3423.5 767.5 3423.5 343.897 3423.5 0.499836 3142.33 0.499836 2795.5Z" stroke="#7030A0" stroke-width="9.16667" stroke-linejoin="round" stroke-miterlimit="10" fill="#F8C39A" fill-rule="evenodd" fill-opacity="0.501961"/><path d="M1275.5 1354C1275.5 966.02 1730.6 651.5 2292 651.5 2853.4 651.5 3308.5 966.02 3308.5 1354 3308.5 1741.98 2853.4 2056.5 2292 2056.5 1730.6 2056.5 1275.5 1741.98 1275.5 1354Z" stroke="#02488C" stroke-width="9.16667" stroke-linejoin="round" stroke-miterlimit="10" fill="#0365C0" fill-rule="evenodd" fill-opacity="0.101961"/><text font-family="Arial Nova Light,Arial Nova Light_MSFontService,sans-serif" font-weight="300" font-size="130" transform="matrix(1 0 0 1 498.138 2384)">OID</text><text font-family="Arial Nova Light,Arial Nova Light_MSFontService,sans-serif" font-weight="300" font-size="130" transform="matrix(1 0 0 1 3417.94 2363)">OID</text><text font-family="Arial Nova Light,Arial Nova Light_MSFontService,sans-serif" font-weight="300" font-size="130" transform="matrix(1 0 0 1 1939.56 2310)">OID</text><text fill="#898989" font-family="Arial Nova Light,Arial Nova Light_MSFontService,sans-serif" font-weight="300" font-size="78" transform="matrix(1 0 0 1 3252.47 3164)">13</text><path d="M3345.5 2425.5C3345.5 2323.33 3428.1 2240.5 3530 2240.5 3631.9 2240.5 3714.5 2323.33 3714.5 2425.5 3714.5 2527.67 3631.9 2610.5 3530 2610.5 3428.1 2610.5 3345.5 2527.67 3345.5 2425.5Z" stroke="#02488C" stroke-width="9.16667" stroke-linejoin="round" stroke-miterlimit="10" fill="#0365C0" fill-rule="evenodd" fill-opacity="0.329412"/><path d="M3225.03 2746.59 3250.63 2757.22 3316.56 2598.44 3367.76 2619.7 3301.83 2778.48 3327.43 2789.11 3254.97 2819.05Z" stroke="#02488C" stroke-width="9.16667" stroke-miterlimit="8" fill="#0365C0" fill-rule="evenodd"/><path d="M3809.87 2653.34 3826.95 2631.51 3694.29 2527.73 3728.45 2484.06 3861.11 2587.84 3878.19 2566.01 3887.7 2643.83Z" stroke="#02488C" stroke-width="9.16667" stroke-miterlimit="8" fill="#0365C0" fill-rule="evenodd"/><path d="M2531.5 1686.5C2531.5 1584.33 2614.33 1501.5 2716.5 1501.5 2818.67 1501.5 2901.5 1584.33 2901.5 1686.5 2901.5 1788.67 2818.67 1871.5 2716.5 1871.5 2614.33 1871.5 2531.5 1788.67 2531.5 1686.5Z" stroke="#C00000" stroke-width="9.16667" stroke-linejoin="round" stroke-miterlimit="10" fill="#FF0000" fill-rule="evenodd" fill-opacity="0.329412"/><path d="M958.435 2220.47 966.252 2247.07 2532.88 1786.6 2548.52 1839.78 981.885 2300.26 989.702 2326.85 920.881 2289.3Z" stroke="#C00000" stroke-width="9.16667" stroke-miterlimit="8" fill="#FF0000" fill-rule="evenodd" fill-opacity="0.329412"/><path d="M2173.31 2124.98 2189.61 2147.4 2589.87 1856.34 2622.48 1901.18 2222.21 2192.24 2238.52 2214.65 2161.07 2202.42Z" stroke="#C00000" stroke-width="9.16667" stroke-miterlimit="8" fill="#FF0000" fill-rule="evenodd" fill-opacity="0.329412"/><path d="M3379.36 2241.9 3397.97 2221.36 2956.63 1821.64 2993.84 1780.55 3435.18 2180.26 3453.79 2159.72 3457.67 2238.03Z" stroke="#C00000" stroke-width="9.16667" stroke-miterlimit="8" fill="#FF0000" fill-rule="evenodd" fill-opacity="0.329412"/><text font-family="Arial Nova Light,Arial Nova Light_MSFontService,sans-serif" font-weight="300" font-size="130" transform="matrix(1 0 0 1 1515.07 2003)">1</text><text font-family="Arial Nova Light,Arial Nova Light_MSFontService,sans-serif" font-weight="300" font-size="130" transform="matrix(1 0 0 1 2439.06 2188)">2</text><text font-family="Arial Nova Light,Arial Nova Light_MSFontService,sans-serif" font-weight="300" font-size="130" transform="matrix(1 0 0 1 3030.41 2077)">n</text><path d="M2125.5 910.5C2125.5 808.327 2208.33 725.5 2310.5 725.5 2412.67 725.5 2495.5 808.327 2495.5 910.5 2495.5 1012.67 2412.67 1095.5 2310.5 1095.5 2208.33 1095.5 2125.5 1012.67 2125.5 910.5Z" stroke="#02488C" stroke-width="9.16667" stroke-linejoin="round" stroke-miterlimit="10" fill="#0365C0" fill-rule="evenodd" fill-opacity="0.329412"/><path d="M1958.58 1418.23 1984.18 1428.86 2133.86 1068.4 2185.06 1089.66 2035.38 1450.12 2060.98 1460.75 1988.52 1490.69Z" stroke="#02488C" stroke-width="9.16667" stroke-miterlimit="8" fill="#0365C0" fill-rule="evenodd"/><path d="M2569.78 1467 2596.08 1458.25 2483.85 1120.99 2536.45 1103.48 2648.68 1440.75 2674.98 1431.99 2639.89 1502.1Z" stroke="#02488C" stroke-width="9.16667" stroke-miterlimit="8" fill="#0365C0" fill-rule="evenodd"/><text font-family="Arial Nova Light,Arial Nova Light_MSFontService,sans-serif" font-weight="300" font-size="130" transform="matrix(1 0 0 1 1847.71 1227)">A</text><text font-family="Arial Nova Light,Arial Nova Light_MSFontService,sans-serif" font-weight="300" font-size="130" transform="matrix(1 0 0 1 2734.73 1264)">B</text><path d="M1718.5 1686.5C1718.5 1584.33 1801.33 1501.5 1903.5 1501.5 2005.67 1501.5 2088.5 1584.33 2088.5 1686.5 2088.5 1788.67 2005.67 1871.5 1903.5 1871.5 1801.33 1871.5 1718.5 1788.67 1718.5 1686.5Z" stroke="#6E5F11" stroke-width="9.16667" stroke-linejoin="round" stroke-miterlimit="10" fill="#92D050" fill-rule="evenodd" fill-opacity="0.329412"/><path d="M3899.5 2684.5C3899.5 2582.33 3982.33 2499.5 4084.5 2499.5 4186.67 2499.5 4269.5 2582.33 4269.5 2684.5 4269.5 2786.67 4186.67 2869.5 4084.5 2869.5 3982.33 2869.5 3899.5 2786.67 3899.5 2684.5Z" stroke="#02488C" stroke-width="9.16667" stroke-linejoin="round" stroke-miterlimit="10" fill="#0365C0" fill-rule="evenodd" fill-opacity="0.329412"/><text font-family="Arial Nova Light,Arial Nova Light_MSFontService,sans-serif" font-weight="300" font-size="130" transform="matrix(1 0 0 1 3067.37 2706)">C</text><text font-family="Arial Nova Light,Arial Nova Light_MSFontService,sans-serif" font-weight="300" font-size="130" transform="matrix(1 0 0 1 3584.8 2743)">D</text><path d="M3012.5 3017C3012.5 2915.1 3095.33 2832.5 3197.5 2832.5 3299.67 2832.5 3382.5 2915.1 3382.5 3017 3382.5 3118.9 3299.67 3201.5 3197.5 3201.5 3095.33 3201.5 3012.5 3118.9 3012.5 3017Z" stroke="#6E5F11" stroke-width="9.16667" stroke-linejoin="round" stroke-miterlimit="10" fill="#92D050" fill-rule="evenodd" fill-opacity="0.329412"/><rect x="2716.5" y="1945.5" width="185" height="222" stroke="#000000" stroke-width="4.58333" stroke-miterlimit="8" fill="#002060" fill-opacity="0.109804"/><text font-family="Arial Nova Light,Arial Nova Light_MSFontService,sans-serif" font-weight="300" font-size="130" transform="matrix(1 0 0 1 2771.69 2077)">…</text><text font-family="Arial Nova Light,Arial Nova Light_MSFontService,sans-serif" font-weight="300" font-size="156" transform="matrix(1 0 0 1 3298.64 783)">odkazované objekty</text><path d="M425.5 2425.5C425.5 2323.33 508.103 2240.5 610 2240.5 711.896 2240.5 794.5 2323.33 794.5 2425.5 794.5 2527.67 711.896 2610.5 610 2610.5 508.103 2610.5 425.5 2527.67 425.5 2425.5Z" stroke="#02488C" stroke-width="9.16667" stroke-linejoin="round" stroke-miterlimit="10" fill="#0365C0" fill-rule="evenodd" fill-opacity="0.329412"/><path d="M305.23 2746.59 330.831 2757.22 396.765 2598.44 447.965 2619.7 382.031 2778.48 407.631 2789.11 335.17 2819.05Z" stroke="#02488C" stroke-width="9.16667" stroke-miterlimit="8" fill="#0365C0" fill-rule="evenodd"/><path d="M890.075 2653.34 907.154 2631.51 774.487 2527.73 808.645 2484.06 941.312 2587.84 958.391 2566.01 967.899 2643.83Z" stroke="#02488C" stroke-width="9.16667" stroke-miterlimit="8" fill="#0365C0" fill-rule="evenodd"/><path d="M979.5 2684.5C979.5 2582.33 1062.33 2499.5 1164.5 2499.5 1266.67 2499.5 1349.5 2582.33 1349.5 2684.5 1349.5 2786.67 1266.67 2869.5 1164.5 2869.5 1062.33 2869.5 979.5 2786.67 979.5 2684.5Z" stroke="#02488C" stroke-width="9.16667" stroke-linejoin="round" stroke-miterlimit="10" fill="#0365C0" fill-rule="evenodd" fill-opacity="0.329412"/><text font-family="Arial Nova Light,Arial Nova Light_MSFontService,sans-serif" font-weight="300" font-size="130" transform="matrix(1 0 0 1 147.571 2706)">C</text><text font-family="Arial Nova Light,Arial Nova Light_MSFontService,sans-serif" font-weight="300" font-size="130" transform="matrix(1 0 0 1 665.004 2743)">D</text><path d="M92.5 3017C92.5 2915.1 175.327 2832.5 277.5 2832.5 379.673 2832.5 462.5 2915.1 462.5 3017 462.5 3118.9 379.673 3201.5 277.5 3201.5 175.327 3201.5 92.5 3118.9 92.5 3017Z" stroke="#6E5F11" stroke-width="9.16667" stroke-linejoin="round" stroke-miterlimit="10" fill="#92D050" fill-rule="evenodd" fill-opacity="0.329412"/><path d="M1866.5 2352C1866.5 2250.1 1949.33 2167.5 2051.5 2167.5 2153.67 2167.5 2236.5 2250.1 2236.5 2352 2236.5 2453.9 2153.67 2536.5 2051.5 2536.5 1949.33 2536.5 1866.5 2453.9 1866.5 2352Z" stroke="#02488C" stroke-width="9.16667" stroke-linejoin="round" stroke-miterlimit="10" fill="#0365C0" fill-rule="evenodd" fill-opacity="0.329412"/><path d="M1746.65 2672.67 1772.25 2683.3 1838.19 2524.52 1889.39 2545.78 1823.45 2704.56 1849.05 2715.19 1776.59 2745.13Z" stroke="#02488C" stroke-width="9.16667" stroke-miterlimit="8" fill="#0365C0" fill-rule="evenodd"/><path d="M2331.49 2579.42 2348.57 2557.59 2215.91 2453.81 2250.07 2410.14 2382.73 2513.92 2399.81 2492.09 2409.32 2569.91Z" stroke="#02488C" stroke-width="9.16667" stroke-miterlimit="8" fill="#0365C0" fill-rule="evenodd"/><path d="M2421.5 2610.5C2421.5 2508.33 2504.1 2425.5 2606 2425.5 2707.9 2425.5 2790.5 2508.33 2790.5 2610.5 2790.5 2712.67 2707.9 2795.5 2606 2795.5 2504.1 2795.5 2421.5 2712.67 2421.5 2610.5Z" stroke="#02488C" stroke-width="9.16667" stroke-linejoin="round" stroke-miterlimit="10" fill="#0365C0" fill-rule="evenodd" fill-opacity="0.329412"/><text font-family="Arial Nova Light,Arial Nova Light_MSFontService,sans-serif" font-weight="300" font-size="130" transform="matrix(1 0 0 1 1588.99 2632)">C</text><text font-family="Arial Nova Light,Arial Nova Light_MSFontService,sans-serif" font-weight="300" font-size="130" transform="matrix(1 0 0 1 2106.42 2669)">D</text><path d="M1534.5 2943.5C1534.5 2841.33 1617.1 2758.5 1719 2758.5 1820.9 2758.5 1903.5 2841.33 1903.5 2943.5 1903.5 3045.67 1820.9 3128.5 1719 3128.5 1617.1 3128.5 1534.5 3045.67 1534.5 2943.5Z" stroke="#6E5F11" stroke-width="9.16667" stroke-linejoin="round" stroke-miterlimit="10" fill="#92D050" fill-rule="evenodd" fill-opacity="0.329412"/><text font-family="Arial Nova Light,Arial Nova Light_MSFontService,sans-serif" font-weight="300" font-size="156" transform="matrix(1 0 0 1 2971.92 1655)">kolekce odkazů</text><text font-family="Arial Nova Light,Arial Nova Light_MSFontService,sans-serif" font-weight="300" font-size="156" transform="matrix(1 0 0 1 1321.58 1411)">vlastník</text><text font-family="Arial Nova Light,Arial Nova Light_MSFontService,sans-serif" font-weight="300" font-size="156" transform="matrix(1 0 0 1 950.825 2446)">člen</text><text font-family="Arial Nova Light,Arial Nova Light_MSFontService,sans-serif" font-weight="300" font-size="156" transform="matrix(1 0 0 1 2392.25 2372)">člen</text><text font-family="Arial Nova Light,Arial Nova Light_MSFontService,sans-serif" font-weight="300" font-size="156" transform="matrix(1 0 0 1 3833.67 2372)">člen</text><text fill="#A6500C" font-family="Arial Nova Light,Arial Nova Light_MSFontService,sans-serif" font-weight="300" font-size="156" transform="matrix(1 0 0 1 535.836 2002)">objekty</text><rect x="203.5" y="836.5" width="911" height="191" stroke="#7030A0" stroke-width="9.16667" stroke-linejoin="round" stroke-miterlimit="10" fill="#7030A0" fill-opacity="0.211765"/><text font-family="Arial Nova Light,Arial Nova Light_MSFontService,sans-serif" font-weight="300" font-size="130" transform="matrix(1 0 0 1 454.503 980)">item</text><text font-family="Arial Nova Light,Arial Nova Light_MSFontService,sans-serif" font-weight="300" font-size="130" transform="matrix(1 0 0 1 692.263 980)">(B)</text></g></svg>