<svg width="4727" height="2845" xmlns="http://www.w3.org/2000/svg" xmlns:xlink="http://www.w3.org/1999/xlink" xml:space="preserve" overflow="hidden"><defs><clipPath id="clip0"><rect x="-4" y="583" width="4727" height="2845"/></clipPath></defs><g clip-path="url(#clip0)" transform="translate(4 -583)"><path d="M0.499836 2795.5C0.499836 2448.67 343.897 2167.5 767.5 2167.5 1191.1 2167.5 1534.5 2448.67 1534.5 2795.5 1534.5 3142.33 1191.1 3423.5 767.5 3423.5 343.897 3423.5 0.499836 3142.33 0.499836 2795.5Z" stroke="#7030A0" stroke-width="9.16667" stroke-linejoin="round" stroke-miterlimit="10" fill="#F8C39A" fill-rule="evenodd" fill-opacity="0.501961"/><path d="M1275.5 1354C1275.5 966.02 1730.6 651.5 2292 651.5 2853.4 651.5 3308.5 966.02 3308.5 1354 3308.5 1741.98 2853.4 2056.5 2292 2056.5 1730.6 2056.5 1275.5 1741.98 1275.5 1354Z" stroke="#02488C" stroke-width="9.16667" stroke-linejoin="round" stroke-miterlimit="10" fill="#0365C0" fill-rule="evenodd" fill-opacity="0.101961"/><text font-family="Arial Nova Light,Arial Nova Light_MSFontService,sans-serif" font-weight="300" font-size="130" transform="matrix(1 0 0 1 498.138 2384)">OID</text><path d="M2125.5 910.5C2125.5 808.327 2208.33 725.5 2310.5 725.5 2412.67 725.5 2495.5 808.327 2495.5 910.5 2495.5 1012.67 2412.67 1095.5 2310.5 1095.5 2208.33 1095.5 2125.5 1012.67 2125.5 910.5Z" stroke="#02488C" stroke-width="9.16667" stroke-linejoin="round" stroke-miterlimit="10" fill="#0365C0" fill-rule="evenodd" fill-opacity="0.329412"/><path d="M1958.58 1418.23 1984.18 1428.86 2133.86 1068.4 2185.06 1089.66 2035.38 1450.12 2060.98 1460.75 1988.52 1490.69Z" stroke="#02488C" stroke-width="9.16667" stroke-miterlimit="8" fill="#0365C0" fill-rule="evenodd"/><path d="M2569.78 1467 2596.08 1458.25 2483.85 1120.99 2536.45 1103.48 2648.68 1440.75 2674.98 1431.99 2639.89 1502.1Z" stroke="#02488C" stroke-width="9.16667" stroke-miterlimit="8" fill="#0365C0" fill-rule="evenodd"/><text font-family="Arial Nova Light,Arial Nova Light_MSFontService,sans-serif" font-weight="300" font-size="130" transform="matrix(1 0 0 1 1847.71 1227)">A</text><text font-family="Arial Nova Light,Arial Nova Light_MSFontService,sans-serif" font-weight="300" font-size="130" transform="matrix(1 0 0 1 2734.73 1264)">B</text><path d="M1718.5 1686.5C1718.5 1584.33 1801.33 1501.5 1903.5 1501.5 2005.67 1501.5 2088.5 1584.33 2088.5 1686.5 2088.5 1788.67 2005.67 1871.5 1903.5 1871.5 1801.33 1871.5 1718.5 1788.67 1718.5 1686.5Z" stroke="#6E5F11" stroke-width="9.16667" stroke-linejoin="round" stroke-miterlimit="10" fill="#92D050" fill-rule="evenodd" fill-opacity="0.329412"/><text font-family="Arial Nova Light,Arial Nova Light_MSFontService,sans-serif" font-weight="300" font-size="156" transform="matrix(1 0 0 1 3298.64 783)">odkazované objekty</text><path d="M425.5 2425.5C425.5 2323.33 508.103 2240.5 610 2240.5 711.896 2240.5 794.5 2323.33 794.5 2425.5 794.5 2527.67 711.896 2610.5 610 2610.5 508.103 2610.5 425.5 2527.67 425.5 2425.5Z" stroke="#02488C" stroke-width="9.16667" stroke-linejoin="round" stroke-miterlimit="10" fill="#0365C0" fill-rule="evenodd" fill-opacity="0.329412"/><path d="M305.23 2746.59 330.831 2757.22 396.765 2598.44 447.965 2619.7 382.031 2778.48 407.631 2789.11 335.17 2819.05Z" stroke="#02488C" stroke-width="9.16667" stroke-miterlimit="8" fill="#0365C0" fill-rule="evenodd"/><path d="M890.075 2653.34 907.154 2631.51 774.487 2527.73 808.645 2484.06 941.312 2587.84 958.391 2566.01 967.899 2643.83Z" stroke="#02488C" stroke-width="9.16667" stroke-miterlimit="8" fill="#0365C0" fill-rule="evenodd"/><path d="M979.5 2684.5C979.5 2582.33 1062.33 2499.5 1164.5 2499.5 1266.67 2499.5 1349.5 2582.33 1349.5 2684.5 1349.5 2786.67 1266.67 2869.5 1164.5 2869.5 1062.33 2869.5 979.5 2786.67 979.5 2684.5Z" stroke="#02488C" stroke-width="9.16667" stroke-linejoin="round" stroke-miterlimit="10" fill="#0365C0" fill-rule="evenodd" fill-opacity="0.329412"/><rect x="1127.5" y="3128.5" width="185" height="221" stroke="#000000" stroke-width="4.58333" stroke-miterlimit="8" fill="#002060" fill-opacity="0.109804"/><text font-family="Arial Nova Light,Arial Nova Light_MSFontService,sans-serif" font-weight="300" font-size="130" transform="matrix(1 0 0 1 1182.44 3260)">…</text><path d="M875.931 2966.03 901.531 2976.66 951.157 2857.15 1002.36 2878.42 952.731 2997.92 978.331 3008.55 905.869 3038.49Z" stroke="#02488C" stroke-width="9.16667" stroke-miterlimit="8" fill="#0365C0" fill-rule="evenodd"/><path d="M1040.16 3064.42 1067.61 3068.32 1090.13 2909.64 1145.02 2917.43 1122.5 3076.11 1149.94 3080.01 1087.26 3127.11Z" stroke="#02488C" stroke-width="9.16667" stroke-miterlimit="8" fill="#0365C0" fill-rule="evenodd"/><path d="M1368.69 3074.74 1394.99 3065.99 1338.1 2895.04 1390.71 2877.54 1447.59 3048.48 1473.89 3039.73 1438.8 3109.84Z" stroke="#02488C" stroke-width="9.16667" stroke-miterlimit="8" fill="#0365C0" fill-rule="evenodd"/><text font-family="Arial Nova Light,Arial Nova Light_MSFontService,sans-serif" font-weight="300" font-size="130" transform="matrix(1 0 0 1 480.206 2964)">jméno</text><text font-family="Arial Nova Light,Arial Nova Light_MSFontService,sans-serif" font-weight="300" font-size="87" transform="matrix(1 0 0 1 820.519 2996)">1</text><text font-family="Arial Nova Light,Arial Nova Light_MSFontService,sans-serif" font-weight="300" font-size="130" transform="matrix(1 0 0 1 665.004 3223)">jméno</text><text font-family="Arial Nova Light,Arial Nova Light_MSFontService,sans-serif" font-weight="300" font-size="87" transform="matrix(1 0 0 1 1005.32 3255)">2</text><text font-family="Arial Nova Light,Arial Nova Light_MSFontService,sans-serif" font-weight="300" font-size="130" transform="matrix(1 0 0 1 1330.27 3260)">jméno</text><text font-family="Arial Nova Light,Arial Nova Light_MSFontService,sans-serif" font-weight="300" font-size="87" transform="matrix(1 0 0 1 1670.59 3292)">n</text><text font-family="Arial Nova Light,Arial Nova Light_MSFontService,sans-serif" font-weight="300" font-size="130" transform="matrix(1 0 0 1 147.571 2706)">C</text><text font-family="Arial Nova Light,Arial Nova Light_MSFontService,sans-serif" font-weight="300" font-size="130" transform="matrix(1 0 0 1 665.004 2743)">D</text><path d="M92.5 3017C92.5 2915.1 175.327 2832.5 277.5 2832.5 379.673 2832.5 462.5 2915.1 462.5 3017 462.5 3118.9 379.673 3201.5 277.5 3201.5 175.327 3201.5 92.5 3118.9 92.5 3017Z" stroke="#6E5F11" stroke-width="9.16667" stroke-linejoin="round" stroke-miterlimit="10" fill="#92D050" fill-rule="evenodd" fill-opacity="0.329412"/><text font-family="Arial Nova Light,Arial Nova Light_MSFontService,sans-serif" font-weight="300" font-size="156" transform="matrix(1 0 0 1 3641.58 1653)">odkaz</text><text font-family="Arial Nova Light,Arial Nova Light_MSFontService,sans-serif" font-weight="300" font-size="156" transform="matrix(1 0 0 1 1321.58 1411)">vlastník</text><text font-family="Arial Nova Light,Arial Nova Light_MSFontService,sans-serif" font-weight="300" font-size="156" transform="matrix(1 0 0 1 950.825 2446)">člen</text><text fill="#A6500C" font-family="Arial Nova Light,Arial Nova Light_MSFontService,sans-serif" font-weight="300" font-size="156" transform="matrix(1 0 0 1 572.503 2002)">objekt</text><path d="M847.771 2266.62 855.214 2293.32 2498.8 1835.2 2513.68 1888.6 870.099 2346.72 877.542 2373.43 809.254 2334.91Z" stroke="#02488C" stroke-width="9.16667" stroke-miterlimit="8" fill="#0365C0" fill-rule="evenodd"/><path d="M2531.5 1723.5C2531.5 1621.33 2614.33 1538.5 2716.5 1538.5 2818.67 1538.5 2901.5 1621.33 2901.5 1723.5 2901.5 1825.67 2818.67 1908.5 2716.5 1908.5 2614.33 1908.5 2531.5 1825.67 2531.5 1723.5Z" stroke="#02488C" stroke-width="9.16667" stroke-linejoin="round" stroke-miterlimit="10" fill="#0365C0" fill-rule="evenodd" fill-opacity="0.329412"/><rect x="2716.5" y="2499.5" width="912" height="191" stroke="#7030A0" stroke-width="9.16667" stroke-linejoin="round" stroke-miterlimit="10" fill="#7030A0" fill-opacity="0.211765"/><text font-family="Arial Nova Light,Arial Nova Light_MSFontService,sans-serif" font-weight="300" font-size="130" transform="matrix(1 0 0 1 3065.72 2643)">B.</text><text font-family="Arial Nova Light,Arial Nova Light_MSFontService,sans-serif" font-weight="300" font-size="130" transform="matrix(1 0 0 1 3185.46 2643)">C</text></g></svg>