<svg width="4066" height="2558" xmlns="http://www.w3.org/2000/svg" xmlns:xlink="http://www.w3.org/1999/xlink" xml:space="preserve" overflow="hidden"><defs><clipPath id="clip0"><rect x="166" y="720" width="4066" height="2558"/></clipPath></defs><g clip-path="url(#clip0)" transform="translate(-166 -720)"><rect x="166" y="720" width="4066" height="2481" fill="#FFFFFF"/><rect x="246" y="1933" width="1594" height="220" fill="#FFFFFF"/><text font-family="Arial Nova Light,Arial Nova Light_MSFontService,sans-serif" font-weight="300" font-size="91" transform="matrix(1 0 0 1 292.707 2045)">1. člen je jedinou prostou strukturou = </text><text font-family="Arial Nova Light,Arial Nova Light_MSFontService,sans-serif" font-weight="300" font-size="91" transform="matrix(1 0 0 1 292.707 2154)">vnoření hierarchie struktur</text><rect x="325.5" y="940.5" width="957" height="882" stroke="#0070C0" stroke-width="9.16667" stroke-miterlimit="8" fill="#CCFFFF"/><text font-family="Arial,Arial_MSFontService,sans-serif" font-weight="400" font-size="91" transform="matrix(1 0 0 1 325.49 1029)">…</text><text font-family="Arial,Arial_MSFontService,sans-serif" font-weight="400" font-size="91" transform="matrix(1 0 0 1 350.698 1138)">vlastnost</text><text font-family="Arial,Arial_MSFontService,sans-serif" font-weight="400" font-size="61" transform="matrix(1 0 0 1 711.635 1164)">k</text><text font-family="Arial,Arial_MSFontService,sans-serif" font-weight="400" font-size="91" transform="matrix(1 0 0 1 742 1138)">: Člen</text><text font-family="Arial,Arial_MSFontService,sans-serif" font-weight="400" font-size="91" transform="matrix(1 0 0 1 325.49 1248)">…</text><rect x="325.5" y="1822.5" width="957" height="111" stroke="#0070C0" stroke-width="9.16667" stroke-miterlimit="8" fill="#FFFFFF"/><rect x="325.5" y="775.5" width="957" height="165" stroke="#0070C0" stroke-width="9.16667" stroke-miterlimit="8" fill="#FFFFFF"/><text font-family="Arial,Arial_MSFontService,sans-serif" font-weight="400" font-size="91" transform="matrix(1 0 0 1 325.49 864)">Vlastník</text><rect x="405.5" y="1216.5" width="797" height="110" stroke="#0070C0" stroke-width="9.16667" stroke-miterlimit="8" fill="#FFFFFF"/><text font-family="Arial,Arial_MSFontService,sans-serif" font-weight="400" font-size="91" transform="matrix(1 0 0 1 430.414 1305)">vnitřní struktura</text><rect x="405.5" y="1326.5" width="797" height="166" stroke="#0070C0" stroke-width="9.16667" stroke-miterlimit="8" fill="#FFFFFF"/><rect x="405.5" y="1492.5" width="797" height="110" stroke="#0070C0" stroke-width="9.16667" stroke-miterlimit="8" fill="#FFFFFF"/><rect x="325.5" y="2374.5" width="718" height="441" stroke="#C00000" stroke-width="9.16667" stroke-miterlimit="8" fill="#00FFFF"/><text font-family="Arial,Arial_MSFontService,sans-serif" font-weight="400" font-size="91" transform="matrix(1 0 0 1 325.49 2463)">…</text><text font-family="Arial,Arial_MSFontService,sans-serif" font-weight="400" font-size="91" transform="matrix(1 0 0 1 350.699 2572)">vlastnost</text><text font-family="Arial,Arial_MSFontService,sans-serif" font-weight="400" font-size="61" transform="matrix(1 0 0 1 711.636 2598)">k</text><text font-family="Arial,Arial_MSFontService,sans-serif" font-weight="400" font-size="91" transform="matrix(1 0 0 1 742.001 2572)">:</text><text font-family="Arial,Arial_MSFontService,sans-serif" font-weight="400" font-size="91" transform="matrix(1 0 0 1 350.699 2682)">Člen</text><text font-family="Arial,Arial_MSFontService,sans-serif" font-weight="400" font-size="91" transform="matrix(1 0 0 1 325.49 2791)">…</text><rect x="325.5" y="2815.5" width="718" height="110" stroke="#C00000" stroke-width="9.16667" stroke-miterlimit="8" fill="#FFFFFF"/><rect x="325.5" y="2208.5" width="718" height="166" stroke="#C00000" stroke-width="9.16667" stroke-miterlimit="8" fill="#FFFFFF"/><text font-family="Arial,Arial_MSFontService,sans-serif" font-weight="400" font-size="91" transform="matrix(1 0 0 1 325.49 2297)">Vlastník</text><rect x="1202.5" y="2374.5" width="798" height="110" stroke="#C00000" stroke-width="9.16667" stroke-miterlimit="8" fill="#FF7C80"/><text font-family="Arial,Arial_MSFontService,sans-serif" font-weight="400" font-size="91" transform="matrix(1 0 0 1 1227.58 2463)">objekt</text><rect x="1202.5" y="2484.5" width="798" height="166" stroke="#C00000" stroke-width="9.16667" stroke-miterlimit="8" fill="#FF7C80"/><rect x="1202.5" y="2650.5" width="798" height="110" stroke="#C00000" stroke-width="9.16667" stroke-miterlimit="8" fill="#FF7C80"/><path d="M2.60395-3.77179 234.136 156.072 228.928 163.616-2.60395 3.77179ZM222.165 129.073 239.017 165.012 199.438 161.992C196.915 161.799 195.025 159.597 195.217 157.073 195.41 154.549 197.612 152.659 200.136 152.852L231.88 155.274 227.382 161.79 213.865 132.965C212.79 130.673 213.777 127.944 216.069 126.869 218.361 125.795 221.09 126.781 222.165 129.073Z" transform="matrix(1 0 0 -1 963.5 2594.5)"/><rect x="325" y="2980" width="1515" height="221" fill="#FFFFFF"/><text font-family="Arial Nova Light,Arial Nova Light_MSFontService,sans-serif" font-weight="300" font-size="91" transform="matrix(1 0 0 1 372.424 3093)">3. člen je jediným objektem = </text><text font-family="Arial Nova Light,Arial Nova Light_MSFontService,sans-serif" font-weight="300" font-size="91" transform="matrix(1 0 0 1 372.424 3202)">vytváření vztahu typu 1:1</text><rect x="1920" y="2980" width="1833" height="221" fill="#FFFFFF"/><text font-family="Arial Nova Light,Arial Nova Light_MSFontService,sans-serif" font-weight="300" font-size="91" transform="matrix(1 0 0 1 1966.75 3093)">4. členové jsou v kolekci objektů = vytváření </text><text font-family="Arial Nova Light,Arial Nova Light_MSFontService,sans-serif" font-weight="300" font-size="91" transform="matrix(1 0 0 1 1966.75 3202)">vztahu typu 1:N</text><rect x="2079.5" y="2374.5" width="797" height="441" stroke="#C00000" stroke-width="9.16667" stroke-miterlimit="8" fill="#33CCCC"/><text font-family="Arial,Arial_MSFontService,sans-serif" font-weight="400" font-size="91" transform="matrix(1 0 0 1 2079.25 2463)">…</text><text font-family="Arial,Arial_MSFontService,sans-serif" font-weight="400" font-size="91" transform="matrix(1 0 0 1 2104.46 2572)">vlastnost</text><text font-family="Arial,Arial_MSFontService,sans-serif" font-weight="400" font-size="61" transform="matrix(1 0 0 1 2465.4 2598)">k</text><text font-family="Arial,Arial_MSFontService,sans-serif" font-weight="400" font-size="91" transform="matrix(1 0 0 1 2495.76 2572)">:</text><text font-family="Arial,Arial_MSFontService,sans-serif" font-weight="400" font-size="91" transform="matrix(1 0 0 1 2104.46 2682)">Členové</text><text font-family="Arial,Arial_MSFontService,sans-serif" font-weight="400" font-size="91" transform="matrix(1 0 0 1 2079.25 2791)">…</text><rect x="2079.5" y="2815.5" width="797" height="110" stroke="#C00000" stroke-width="9.16667" stroke-miterlimit="8" fill="#FFFFFF"/><rect x="2079.5" y="2208.5" width="797" height="166" stroke="#C00000" stroke-width="9.16667" stroke-miterlimit="8" fill="#FFFFFF"/><text font-family="Arial,Arial_MSFontService,sans-serif" font-weight="400" font-size="91" transform="matrix(1 0 0 1 2079.25 2297)">Vlastník</text><rect x="3036.5" y="2374.5" width="797" height="110" stroke="#C00000" stroke-width="9.16667" stroke-miterlimit="8" fill="#FF7C80"/><text font-family="Arial,Arial_MSFontService,sans-serif" font-weight="400" font-size="91" transform="matrix(1 0 0 1 3061.06 2463)">objekt</text><rect x="3036.5" y="2484.5" width="797" height="166" stroke="#C00000" stroke-width="9.16667" stroke-miterlimit="8" fill="#FF7C80"/><rect x="3036.5" y="2650.5" width="797" height="110" stroke="#C00000" stroke-width="9.16667" stroke-miterlimit="8" fill="#FF7C80"/><rect x="3142.5" y="2447.5" width="797" height="111" stroke="#C00000" stroke-width="9.16667" stroke-miterlimit="8" fill="#FF7C80"/><text font-family="Arial,Arial_MSFontService,sans-serif" font-weight="400" font-size="91" transform="matrix(1 0 0 1 3167.35 2536)">objekt</text><rect x="3142.5" y="2558.5" width="797" height="165" stroke="#C00000" stroke-width="9.16667" stroke-miterlimit="8" fill="#FF7C80"/><rect x="3142.5" y="2723.5" width="797" height="110" stroke="#C00000" stroke-width="9.16667" stroke-miterlimit="8" fill="#FF7C80"/><rect x="3248.5" y="2521.5" width="798" height="110" stroke="#C00000" stroke-width="9.16667" stroke-miterlimit="8" fill="#FF7C80"/><text font-family="Arial,Arial_MSFontService,sans-serif" font-weight="400" font-size="91" transform="matrix(1 0 0 1 3273.64 2610)">objekt</text><rect x="3248.5" y="2631.5" width="798" height="166" stroke="#C00000" stroke-width="9.16667" stroke-miterlimit="8" fill="#FF7C80"/><rect x="3248.5" y="2797.5" width="798" height="110" stroke="#C00000" stroke-width="9.16667" stroke-miterlimit="8" fill="#FF7C80"/><rect x="3355.5" y="2594.5" width="797" height="111" stroke="#C00000" stroke-width="9.16667" stroke-miterlimit="8" fill="#FF7C80"/><text font-family="Arial,Arial_MSFontService,sans-serif" font-weight="400" font-size="91" transform="matrix(1 0 0 1 3379.93 2683)">objekt</text><rect x="3355.5" y="2705.5" width="797" height="165" stroke="#C00000" stroke-width="9.16667" stroke-miterlimit="8" fill="#FF7C80"/><rect x="3355.5" y="2870.5" width="797" height="110" stroke="#C00000" stroke-width="9.16667" stroke-miterlimit="8" fill="#FF7C80"/><path d="M2.22074-4.00939 393.284 212.595 388.842 220.613-2.22074 4.00939ZM378.716 186.901 399.018 221.01 359.334 221.894C356.803 221.95 354.706 219.944 354.65 217.413 354.594 214.883 356.6 212.785 359.13 212.729L390.959 212.021 387.123 218.947 370.839 191.59C369.544 189.415 370.258 186.602 372.433 185.307 374.608 184.012 377.421 184.726 378.716 186.901Z" transform="matrix(1 0 0 -1 2637.5 2650.5)"/><path d="M1.50081-4.33065 471.926 158.698 468.925 167.359-1.50081 4.33065ZM453.173 135.882 479.02 166.007 440.074 173.678C437.591 174.167 435.181 172.55 434.691 170.067 434.202 167.583 435.819 165.173 438.303 164.684L469.539 158.531 466.947 166.013 446.216 141.851C444.567 139.93 444.789 137.036 446.71 135.388 448.631 133.74 451.524 133.961 453.173 135.882Z" transform="matrix(1 0 0 -1 2637.5 2650.5)"/><path d="M0.785613-4.5155 629.847 104.929 628.276 113.96-0.785613 4.5155ZM607.67 85.422 638.021 111.004 600.813 124.831C598.441 125.713 595.802 124.504 594.92 122.132 594.039 119.759 595.247 117.121 597.62 116.239L627.463 105.148 626.105 112.949 601.762 92.4311C599.827 90.7998 599.58 87.9083 601.211 85.9728 602.843 84.0372 605.734 83.7907 607.67 85.422Z" transform="matrix(1 0 0 -1 2637.5 2650.5)"/><path d="M2.30375e-06-4.58333 708.925-4.58298 708.925 4.58369-2.30375e-06 4.58333ZM683.734-20.0003 718.021 0.000360097 683.734 20.001C681.548 21.2764 678.741 20.5379 677.466 18.3514 676.19 16.1649 676.929 13.3585 679.115 12.083L706.615-3.95863 706.615 3.95934 679.115-12.0823C676.929-13.3578 676.19-16.1642 677.466-18.3507 678.741-20.5372 681.548-21.2758 683.734-20.0003Z" transform="matrix(1 0 0 -1 2637.5 2650.5)"/><rect x="1920" y="1933" width="2152" height="220" fill="#FFFFFF"/><text font-family="Arial Nova Light,Arial Nova Light_MSFontService,sans-serif" font-weight="300" font-size="91" transform="matrix(1 0 0 1 1966.75 2045)">2. členové jsou v kolekci prostých struktur = </text><text font-family="Arial Nova Light,Arial Nova Light_MSFontService,sans-serif" font-weight="300" font-size="91" transform="matrix(1 0 0 1 1966.75 2154)">vytváření hierarchie struktur s</text><text font-family="Arial Nova Light,Arial Nova Light_MSFontService,sans-serif" font-weight="300" font-size="91" transform="matrix(1 0 0 1 3144.1 2154)">vnořenými kolekcemi</text><rect x="2079.5" y="940.5" width="1595" height="882" stroke="#0070C0" stroke-width="9.16667" stroke-miterlimit="8" fill="#00CCFF"/><text font-family="Arial,Arial_MSFontService,sans-serif" font-weight="400" font-size="91" transform="matrix(1 0 0 1 2079.25 1029)">…</text><text font-family="Arial,Arial_MSFontService,sans-serif" font-weight="400" font-size="91" transform="matrix(1 0 0 1 2104.46 1138)">vlastnost</text><text font-family="Arial,Arial_MSFontService,sans-serif" font-weight="400" font-size="61" transform="matrix(1 0 0 1 2465.4 1164)">k</text><text font-family="Arial,Arial_MSFontService,sans-serif" font-weight="400" font-size="91" transform="matrix(1 0 0 1 2495.76 1138)">: Členové</text><rect x="2079.5" y="1822.5" width="1595" height="111" stroke="#0070C0" stroke-width="9.16667" stroke-miterlimit="8" fill="#FFFFFF"/><rect x="2079.5" y="775.5" width="1595" height="165" stroke="#0070C0" stroke-width="9.16667" stroke-miterlimit="8" fill="#FFFFFF"/><text font-family="Arial,Arial_MSFontService,sans-serif" font-weight="400" font-size="91" transform="matrix(1 0 0 1 2079.25 864)">Vlastník</text><rect x="2478.5" y="1161.5" width="797" height="103" stroke="#0070C0" stroke-width="9.16667" stroke-miterlimit="8" fill="#FFFFFF"/><text font-family="Arial,Arial_MSFontService,sans-serif" font-weight="400" font-size="91" transform="matrix(1 0 0 1 2503.04 1250)">vnitřní struktura</text><rect x="2478.5" y="1264.5" width="797" height="156" stroke="#0070C0" stroke-width="9.16667" stroke-miterlimit="8" fill="#FFFFFF"/><rect x="2478.5" y="1420.5" width="797" height="103" stroke="#0070C0" stroke-width="9.16667" stroke-miterlimit="8" fill="#FFFFFF"/><rect x="2584.5" y="1230.5" width="797" height="103" stroke="#0070C0" stroke-width="9.16667" stroke-miterlimit="8" fill="#FFFFFF"/><text font-family="Arial,Arial_MSFontService,sans-serif" font-weight="400" font-size="91" transform="matrix(1 0 0 1 2609.33 1319)">vnitřní struktura</text><rect x="2584.5" y="1333.5" width="797" height="156" stroke="#0070C0" stroke-width="9.16667" stroke-miterlimit="8" fill="#FFFFFF"/><rect x="2584.5" y="1489.5" width="797" height="103" stroke="#0070C0" stroke-width="9.16667" stroke-miterlimit="8" fill="#FFFFFF"/><rect x="2690.5" y="1299.5" width="798" height="103" stroke="#0070C0" stroke-width="9.16667" stroke-miterlimit="8" fill="#FFFFFF"/><text font-family="Arial,Arial_MSFontService,sans-serif" font-weight="400" font-size="91" transform="matrix(1 0 0 1 2715.62 1388)">vnitřní struktura</text><rect x="2690.5" y="1402.5" width="798" height="156" stroke="#0070C0" stroke-width="9.16667" stroke-miterlimit="8" fill="#FFFFFF"/><rect x="2690.5" y="1558.5" width="798" height="103" stroke="#0070C0" stroke-width="9.16667" stroke-miterlimit="8" fill="#FFFFFF"/><rect x="2797.5" y="1368.5" width="797" height="103" stroke="#0070C0" stroke-width="9.16667" stroke-miterlimit="8" fill="#FFFFFF"/><text font-family="Arial,Arial_MSFontService,sans-serif" font-weight="400" font-size="91" transform="matrix(1 0 0 1 2821.91 1457)">vnitřní struktura</text><rect x="2797.5" y="1471.5" width="797" height="156" stroke="#0070C0" stroke-width="9.16667" stroke-miterlimit="8" fill="#FFFFFF"/><rect x="2797.5" y="1627.5" width="797" height="103" stroke="#0070C0" stroke-width="9.16667" stroke-miterlimit="8" fill="#FFFFFF"/></g></svg>