<?xml version="1.0" encoding="UTF-8" standalone="no"?>
<!-- Created with Inkscape (http://www.inkscape.org/) -->

<svg
   width="100"
   height="40"
   viewBox="0 0 2324.1529 929.6611"
   version="1.1"
   id="svg5"
   sodipodi:docname="fit-logo-inv.svg"
   inkscape:version="1.1.2 (0a00cf5339, 2022-02-04)"
   xmlns:inkscape="http://www.inkscape.org/namespaces/inkscape"
   xmlns:sodipodi="http://sodipodi.sourceforge.net/DTD/sodipodi-0.dtd"
   xmlns="http://www.w3.org/2000/svg"
   xmlns:svg="http://www.w3.org/2000/svg">
  <sodipodi:namedview
     id="namedview7"
     pagecolor="#ffffff"
     bordercolor="#666666"
     borderopacity="1.0"
     inkscape:pageshadow="2"
     inkscape:pageopacity="0.0"
     inkscape:pagecheckerboard="0"
     inkscape:document-units="mm"
     showgrid="false"
     units="px"
     inkscape:zoom="5.6568543"
     inkscape:cx="73.981047"
     inkscape:cy="7.6897862"
     inkscape:window-width="1920"
     inkscape:window-height="990"
     inkscape:window-x="0"
     inkscape:window-y="28"
     inkscape:window-maximized="1"
     inkscape:current-layer="layer1" />
  <defs
     id="defs2" />
  <g
     inkscape:label="Vrstva 1"
     inkscape:groupmode="layer"
     id="layer1">
    <path
       style="fill:#ffffff;stroke-width:6.98128"
       d="M 935.84586,464.8318 V 0.00123 h 17.43159 17.43159 V 464.8318 929.66236 h -17.43159 -17.43159 z m 62.75372,0.0361 V 27.960732 h 648.50862 648.5086 l -1.796,435.123378 -1.7959,435.12339 -646.7126,1.78367 -646.71272,1.78369 V 464.86781 Z m 263.39772,131.22119 1.9238,-106.40047 95.6934,-1.94358 95.6932,-1.94367 2.1075,-36.69712 2.1076,-36.69721 h -97.9813 -97.9815 v -69.89922 -69.89937 h 104.5896 104.5898 v -38.4446 -38.44471 h -149.9119 -149.9118 v 255.4661 255.46609 l 43.5791,-2.08098 43.5789,-2.08109 1.9236,-106.40037 z m 399.0034,-145.23734 v -255.1326 h -41.8359 -41.8358 v 255.1326 255.13258 h 41.8358 41.8359 z m 327.7142,38.44459 v -216.6879 h 73.2128 73.2127 v -38.44458 -38.44471 h -188.2613 -188.2613 v 38.44471 38.44458 h 73.2126 73.2128 v 216.6879 216.68799 h 41.8359 41.8358 z M 440.78815,506.77114 V 244.64873 H 297.84893 154.9098 v -52.42454 -52.42444 h 142.93913 142.93922 v 52.42444 52.42454 h 170.82977 170.82976 v 48.92948 48.9296 h -94.66707 -94.66697 l -20.38161,20.43204 -20.38162,20.43215 v 192.76088 192.76078 h -55.78108 -55.78118 z"
       id="path1192" />
  </g>
</svg>
