<?xml version="1.0" encoding="UTF-8" standalone="no"?>
<svg
   style="font-style:normal;font-weight:normal;font-size:12px;font-family:Dialog;color-interpolation:auto;fill:#000000;fill-opacity:1;stroke:#000000;stroke-width:1;stroke-linecap:square;stroke-linejoin:miter;stroke-miterlimit:10;stroke-dasharray:none;stroke-dashoffset:0;stroke-opacity:1;color-rendering:auto;image-rendering:auto;shape-rendering:auto;text-rendering:auto"
   width="527"
   height="361.25"
   version="1.1"
   id="svg435"
   sodipodi:docname="etl.svg"
   inkscape:version="1.2.2 (b0a8486541, 2022-12-01)"
   xmlns:inkscape="http://www.inkscape.org/namespaces/inkscape"
   xmlns:sodipodi="http://sodipodi.sourceforge.net/DTD/sodipodi-0.dtd"
   xmlns="http://www.w3.org/2000/svg"
   xmlns:svg="http://www.w3.org/2000/svg">
  <sodipodi:namedview
     id="namedview437"
     pagecolor="#ffffff"
     bordercolor="#666666"
     borderopacity="1.0"
     inkscape:showpageshadow="2"
     inkscape:pageopacity="0.0"
     inkscape:pagecheckerboard="0"
     inkscape:deskcolor="#d1d1d1"
     showgrid="false"
     inkscape:zoom="1.7481481"
     inkscape:cx="324.34322"
     inkscape:cy="193.06144"
     inkscape:window-width="2560"
     inkscape:window-height="1383"
     inkscape:window-x="0"
     inkscape:window-y="0"
     inkscape:window-maximized="1"
     inkscape:current-layer="svg435" />
  <!--Generated by the Batik Graphics2D SVG Generator-->
  <defs
     id="genericDefs" />
  <g
     style="fill:#0000ff;stroke:#0000ff;stroke-linecap:butt;stroke-linejoin:round"
     id="g29"
     transform="translate(-96.375,-127.5)">
    <path
       style="stroke:none"
       d="m 108.875,154.5625 v 0 c 0,-10.1827 29.2694,-18.4375 65.375,-18.4375 36.1057,0 65.375,8.2548 65.375,18.4375 0,10.1828 -29.2693,18.4375 -65.375,18.4375 -36.1056,0 -65.375,-8.2547 -65.375,-18.4375 z"
       id="path27" />
  </g>
  <g
     style="stroke-linecap:butt;stroke-linejoin:round"
     id="g33"
     transform="translate(-96.375,-127.5)">
    <path
       style="fill:none"
       d="m 108.875,154.5625 v 0 c 0,-10.1827 29.2694,-18.4375 65.375,-18.4375 36.1057,0 65.375,8.2548 65.375,18.4375 0,10.1828 -29.2693,18.4375 -65.375,18.4375 -36.1056,0 -65.375,-8.2547 -65.375,-18.4375 z"
       id="path31" />
  </g>
  <g
     style="fill:#ffffff;fill-opacity:0;stroke:#ffffff;stroke-width:0.25;stroke-linecap:butt;stroke-linejoin:round;stroke-opacity:0"
     id="g37"
     transform="translate(-96.375,-127.5)">
    <path
       style="stroke:none"
       d="m 141.375,140.875 h 75.25 v 31.5 h -75.25 z"
       id="path35" />
  </g>
  <g
     style="fill:#ffffff;stroke:#ffffff;stroke-width:0.25;stroke-linecap:butt;stroke-linejoin:round"
     id="g41"
     transform="translate(-94.69145,-129.0489)">
    <path
       style="stroke:none"
       d="m 156.5938,163.2598 -3.5781,-4.8281 -1.2813,1.0625 v 3.7656 h -1.7656 v -14.5 h 1.7656 v 9.0625 l 4.6406,-5.125 h 2.0625 l -4.2968,4.5313 4.5156,6.0312 z m 3.375,0 v -14.5 h 1.7656 v 14.5 z m 4.4434,0 v -10.5625 h 1.75 v 10.5625 z m 0,-12.8125 v -1.6875 h 1.75 v 1.6875 z m 5.8027,7.9063 q 0,1.8125 0.75,2.7969 0.75,0.9843 2.1875,0.9843 1.1406,0 1.8281,-0.4531 0.7031,-0.4687 0.9375,-1.1719 l 1.5469,0.4375 q -0.9531,2.5157 -4.3125,2.5157 -2.3438,0 -3.5781,-1.3907 -1.2188,-1.4062 -1.2188,-4.1718 0,-2.6094 1.2188,-4 1.2343,-1.4063 3.5156,-1.4063 4.6562,0 4.6562,5.625 v 0.2344 z m 5.7187,-1.3594 q -0.1562,-1.6719 -0.8593,-2.4375 -0.7032,-0.7656 -2.0157,-0.7656 -1.2812,0 -2.0312,0.8594 -0.7344,0.8593 -0.7969,2.3437 z m 10.7637,6.2656 v -6.7031 q 0,-1.0469 -0.2187,-1.6094 -0.2032,-0.5781 -0.6563,-0.8281 -0.4375,-0.2656 -1.3125,-0.2656 -1.2656,0 -2,0.875 -0.7344,0.8594 -0.7344,2.4062 v 6.125 h -1.75 v -8.3125 q 0,-1.8437 -0.0625,-2.25 h 1.6563 q 0.0156,0.0469 0.0156,0.2657 0.0156,0.2031 0.0313,0.4843 0.0156,0.2813 0.0312,1.0469 h 0.0313 q 0.6093,-1.0937 1.4062,-1.5469 0.7969,-0.4531 1.9688,-0.4531 1.75,0 2.5468,0.875 0.8125,0.8594 0.8125,2.8438 v 7.0468 z m 8.4668,-0.0781 q -0.8594,0.2344 -1.7656,0.2344 -2.1094,0 -2.1094,-2.3906 v -7.0469 h -1.2344 v -1.2813 h 1.2969 l 0.5156,-2.375 h 1.1719 v 2.375 h 1.9531 v 1.2813 h -1.9531 v 6.6562 q 0,0.7657 0.25,1.0782 0.25,0.3125 0.8594,0.3125 0.3594,0 1.0156,-0.1407 z"
       id="path39" />
  </g>
  <g
     style="fill:#ffffff;fill-opacity:0;stroke:#ffffff;stroke-width:0.25;stroke-linecap:butt;stroke-linejoin:round;stroke-opacity:0"
     id="g45"
     transform="translate(-96.375,-127.5)">
    <path
       style="fill:none"
       d="m 141.375,140.875 h 75.25 v 31.5 h -75.25 z"
       id="path43" />
  </g>
  <g
     style="fill:#0000ff;stroke:#0000ff;stroke-linecap:butt;stroke-linejoin:round"
     id="g49"
     transform="translate(-96.375,-127.5)">
    <path
       style="stroke:none"
       d="m 488.75,146.4375 v 0 C 488.75,136.2548 518.0194,128 554.125,128 c 36.1056,0 65.375,8.2548 65.375,18.4375 0,10.1828 -29.2694,18.4375 -65.375,18.4375 -36.1056,0 -65.375,-8.2547 -65.375,-18.4375 z"
       id="path47" />
  </g>
  <g
     style="stroke-linecap:butt;stroke-linejoin:round"
     id="g53"
     transform="translate(-96.375,-127.5)">
    <path
       style="fill:none"
       d="m 488.75,146.4375 v 0 C 488.75,136.2548 518.0194,128 554.125,128 c 36.1056,0 65.375,8.2548 65.375,18.4375 0,10.1828 -29.2694,18.4375 -65.375,18.4375 -36.1056,0 -65.375,-8.2547 -65.375,-18.4375 z"
       id="path51" />
  </g>
  <g
     style="fill:#ffffff;fill-opacity:0;stroke:#ffffff;stroke-width:0.25;stroke-linecap:butt;stroke-linejoin:round;stroke-opacity:0"
     id="g57"
     transform="translate(-96.375,-127.5)">
    <path
       style="stroke:none"
       d="m 521.25,132.75 h 75.25 v 31.5 h -75.25 z"
       id="path55" />
  </g>
  <g
     style="fill:#ffffff;stroke:#ffffff;stroke-width:0.25;stroke-linecap:butt;stroke-linejoin:round"
     id="g61"
     transform="translate(-94.69145,-129.04885)">
    <path
       style="stroke:none"
       d="m 536.4688,155.1348 -3.5782,-4.8281 -1.2812,1.0625 v 3.7656 h -1.7656 v -14.5 h 1.7656 v 9.0625 l 4.6406,-5.125 h 2.0625 l -4.2969,4.5313 4.5156,6.0312 z m 3.375,0 v -14.5 h 1.7656 v 14.5 z m 4.4433,0 v -10.5625 h 1.75 v 10.5625 z m 0,-12.8125 v -1.6875 h 1.75 v 1.6875 z m 5.8027,7.9063 q 0,1.8125 0.75,2.7968 0.75,0.9844 2.1875,0.9844 1.1407,0 1.8282,-0.4531 0.7031,-0.4688 0.9375,-1.1719 l 1.5468,0.4375 q -0.9531,2.5156 -4.3125,2.5156 -2.3437,0 -3.5781,-1.3906 -1.2187,-1.4062 -1.2187,-4.1719 0,-2.6093 1.2187,-4 1.2344,-1.4062 3.5156,-1.4062 4.6563,0 4.6563,5.625 v 0.2344 z m 5.7188,-1.3594 q -0.1563,-1.6719 -0.8594,-2.4375 -0.7031,-0.7656 -2.0156,-0.7656 -1.2813,0 -2.0313,0.8593 -0.7343,0.8594 -0.7968,2.3438 z m 10.7637,6.2656 v -6.7031 q 0,-1.0469 -0.2188,-1.6094 -0.2031,-0.5781 -0.6562,-0.8281 -0.4375,-0.2656 -1.3125,-0.2656 -1.2657,0 -2,0.875 -0.7344,0.8593 -0.7344,2.4062 v 6.125 h -1.75 v -8.3125 q 0,-1.8437 -0.0625,-2.25 h 1.6562 q 0.0157,0.0469 0.0157,0.2656 0.0156,0.2032 0.0312,0.4844 0.0156,0.2813 0.0313,1.0469 h 0.0312 q 0.6094,-1.0938 1.4063,-1.5469 0.7968,-0.4531 1.9687,-0.4531 1.75,0 2.5469,0.875 0.8125,0.8594 0.8125,2.8437 v 7.0469 z m 8.4668,-0.0781 q -0.8594,0.2344 -1.7657,0.2344 -2.1093,0 -2.1093,-2.3907 v -7.0468 h -1.2344 v -1.2813 h 1.2969 l 0.5156,-2.375 h 1.1719 v 2.375 h 1.9531 v 1.2813 h -1.9531 v 6.6562 q 0,0.7656 0.25,1.0781 0.25,0.3125 0.8593,0.3125 0.3594,0 1.0157,-0.1406 z"
       id="path59" />
  </g>
  <g
     style="fill:#ffffff;fill-opacity:0;stroke:#ffffff;stroke-width:0.25;stroke-linecap:butt;stroke-linejoin:round;stroke-opacity:0"
     id="g65"
     transform="translate(-96.375,-127.5)">
    <path
       style="fill:none"
       d="m 521.25,132.75 h 75.25 v 31.5 h -75.25 z"
       id="path63" />
  </g>
  <g
     style="fill:#1f497d;stroke:#1f497d;stroke-linecap:butt;stroke-linejoin:round"
     id="g69"
     transform="translate(-96.375,-127.5)">
    <path
       style="stroke:none"
       d="m 295.5,304.125 v 0 c 0,-5.937 33.9424,-10.75 75.8125,-10.75 v 0 c 41.8701,0 75.8125,4.813 75.8125,10.75 0,5.9371 -33.9424,10.75 -75.8125,10.75 -41.8701,0 -75.8125,-4.8129 -75.8125,-10.75 z"
       id="path67" />
  </g>
  <g
     style="stroke-linecap:butt;stroke-linejoin:round"
     id="g73"
     transform="translate(-96.375,-127.5)">
    <path
       style="fill:none"
       d="m 295.5,304.125 v 0 c 0,-5.937 33.9424,-10.75 75.8125,-10.75 v 0 c 41.8701,0 75.8125,4.813 75.8125,10.75 0,5.9371 -33.9424,10.75 -75.8125,10.75 -41.8701,0 -75.8125,-4.8129 -75.8125,-10.75 z"
       id="path71" />
  </g>
  <g
     style="fill:#1f497d;stroke:#1f497d;stroke-width:0.25;stroke-linecap:butt;stroke-linejoin:round"
     id="g77"
     transform="translate(-96.375,-127.5)">
    <path
       style="stroke:none"
       d="m 294,249 h 152 v 55.5 H 294 Z"
       id="path75" />
  </g>
  <g
     style="fill:#ffffff;fill-opacity:0;stroke:#ffffff;stroke-width:0.25;stroke-linecap:butt;stroke-linejoin:round;stroke-opacity:0"
     id="g81"
     transform="translate(-96.375,-127.5)">
    <path
       style="fill:none"
       d="m 294,249 h 152 v 55.5 H 294 Z"
       id="path79" />
  </g>
  <g
     style="fill:#1f497d;stroke:#1f497d;stroke-linecap:butt;stroke-linejoin:round"
     id="g85"
     transform="translate(-96.375,-127.5)">
    <path
       style="stroke:none"
       d="m 296.125,248.125 v 0 c 0,-4.4873 33.8025,-8.125 75.5,-8.125 v 0 c 41.6975,0 75.5,3.6377 75.5,8.125 0,4.4873 -33.8025,8.125 -75.5,8.125 -41.6975,0 -75.5,-3.6377 -75.5,-8.125 z"
       id="path83" />
  </g>
  <g
     style="stroke-linecap:butt;stroke-linejoin:round"
     id="g89"
     transform="translate(-96.375,-127.5)">
    <path
       style="fill:none"
       d="m 296.125,248.125 v 0 c 0,-4.4873 33.8025,-8.125 75.5,-8.125 v 0 c 41.6975,0 75.5,3.6377 75.5,8.125 0,4.4873 -33.8025,8.125 -75.5,8.125 -41.6975,0 -75.5,-3.6377 -75.5,-8.125 z"
       id="path87" />
  </g>
  <g
     style="fill:#ffffff;fill-opacity:0;stroke:#ffffff;stroke-linecap:butt;stroke-linejoin:round;stroke-opacity:0"
     id="g93"
     transform="translate(-96.375,-127.5)">
    <path
       style="stroke:none"
       d="m 447,251.25 v 51.125"
       id="path91" />
  </g>
  <g
     style="stroke-linecap:butt;stroke-linejoin:round"
     id="g97"
     transform="translate(-96.375,-127.5)">
    <path
       style="fill:none"
       d="m 447,251.25 v 51.125"
       id="path95" />
  </g>
  <g
     style="fill:#ffffff;fill-opacity:0;stroke:#ffffff;stroke-linecap:butt;stroke-linejoin:round;stroke-opacity:0"
     id="g101"
     transform="translate(-96.375,-127.5)">
    <path
       style="stroke:none"
       d="m 294.75,253 v 51.25"
       id="path99" />
  </g>
  <g
     style="stroke-linecap:butt;stroke-linejoin:round"
     id="g105"
     transform="translate(-96.375,-127.5)">
    <path
       style="fill:none"
       d="m 294.75,253 v 51.25"
       id="path103" />
  </g>
  <g
     style="fill:#ffffff;fill-opacity:0;stroke:#ffffff;stroke-width:0.25;stroke-linecap:butt;stroke-linejoin:round;stroke-opacity:0"
     id="g109"
     transform="translate(-96.375,-127.5)">
    <path
       style="stroke:none"
       d="M 303.25,269.5 H 439.375 V 301 H 303.25 Z"
       id="path107" />
  </g>
  <g
     style="fill:#ffffff;stroke:#ffffff;stroke-width:0.25;stroke-linecap:butt;stroke-linejoin:round"
     id="g113"
     transform="translate(-92.2354,-127.5)">
    <path
       style="stroke:none"
       d="m 318.5156,290.1817 q -0.4844,1.0156 -1.2968,1.4688 -0.7969,0.4375 -1.9844,0.4375 -2.0156,0 -2.9532,-1.3438 -0.9374,-1.3594 -0.9374,-4.0937 0,-5.5313 3.8906,-5.5313 1.1875,0 1.9844,0.4375 0.8124,0.4375 1.2968,1.4063 h 0.0156 l -0.0156,-1.1875 v -4.3907 h 1.7656 v 12.3282 q 0,1.6406 0.0469,2.1718 h -1.6719 q -0.0312,-0.1562 -0.0624,-0.7187 -0.0313,-0.5781 -0.0313,-0.9844 z m -5.3281,-3.5937 q 0,2.2187 0.5781,3.1875 0.5938,0.9531 1.9063,0.9531 1.5,0 2.1719,-1.0313 0.6718,-1.0468 0.6718,-3.2187 0,-2.1094 -0.6718,-3.0781 -0.6719,-0.9844 -2.1407,-0.9844 -1.3281,0 -1.9219,0.9844 -0.5937,0.9843 -0.5937,3.1875 z m 12.4824,5.5 q -1.5937,0 -2.4062,-0.8438 -0.7969,-0.8437 -0.7969,-2.3125 0,-1.6406 1.0781,-2.5156 1.0938,-0.875 3.4844,-0.9375 l 2.375,-0.0469 v -0.5625 q 0,-1.2969 -0.5469,-1.8437 -0.5469,-0.5625 -1.7187,-0.5625 -1.1719,0 -1.7188,0.4062 -0.5312,0.3906 -0.6406,1.2656 l -1.8438,-0.1562 q 0.4532,-2.8594 4.25,-2.8594 1.9844,0 2.9844,0.9219 1.0156,0.9062 1.0156,2.6406 v 4.5469 q 0,0.7812 0.2032,1.1875 0.2031,0.3906 0.7812,0.3906 0.25,0 0.5781,-0.0781 v 1.0937 q -0.6718,0.1563 -1.3593,0.1563 -0.9688,0 -1.4219,-0.5 -0.4375,-0.5156 -0.5,-1.6094 h -0.0625 q -0.6719,1.2031 -1.5625,1.7188 -0.8906,0.5 -2.1719,0.5 z m 0.3906,-1.3282 q 0.9688,0 1.7188,-0.4375 0.7656,-0.4375 1.1875,-1.2031 0.4375,-0.7656 0.4375,-1.5781 v -0.875 l -1.9219,0.0469 q -1.2344,0.0156 -1.875,0.25 -0.6406,0.2343 -0.9844,0.7187 -0.3437,0.4844 -0.3437,1.2813 0,0.8593 0.4531,1.3281 0.4688,0.4687 1.3281,0.4687 z m 12.0918,1.0469 q -0.8593,0.2344 -1.7656,0.2344 -2.1094,0 -2.1094,-2.3906 v -7.0469 h -1.2343 v -1.2813 h 1.2968 l 0.5157,-2.375 h 1.1718 v 2.375 h 1.9532 v 1.2813 h -1.9532 v 6.6562 q 0,0.7657 0.25,1.0782 0.25,0.3125 0.8594,0.3125 0.3594,0 1.0156,-0.1407 z m 10.4317,-5.2187 q 0,2.7812 -1.2188,4.1406 -1.2187,1.3594 -3.5468,1.3594 -2.3125,0 -3.5,-1.4063 -1.1719,-1.4219 -1.1719,-4.0937 0,-5.4688 4.7344,-5.4688 2.4218,0 3.5625,1.3438 1.1406,1.3281 1.1406,4.125 z m -1.8438,0 q 0,-2.1875 -0.6562,-3.1719 -0.6406,-1 -2.1719,-1 -1.5469,0 -2.2344,1.0156 -0.6875,1.0156 -0.6875,3.1563 0,2.0937 0.6719,3.1406 0.6875,1.0469 2.1406,1.0469 1.5782,0 2.25,-1.0157 0.6875,-1.0156 0.6875,-3.1718 z m 8.67,5.2968 h -2.0782 l -3.8437,-10.5625 h 1.875 l 2.3281,6.875 q 0.125,0.3907 0.6719,2.3125 l 0.3437,-1.1406 0.3907,-1.1562 2.3906,-6.8907 h 1.875 z m 5.875,4.1563 q -0.7188,0 -1.2032,-0.1094 v -1.3281 q 0.375,0.0625 0.8125,0.0625 1.6407,0 2.6094,-2.4063 l 0.1563,-0.4218 -4.1875,-10.5157 h 1.875 l 2.2343,5.8282 q 0.0469,0.1406 0.1094,0.3437 0.0781,0.1875 0.4375,1.2656 0.375,1.0782 0.4063,1.2032 l 0.6875,-1.9219 2.3125,-6.7188 h 1.8593 l -4.0625,10.5625 q -0.6562,1.6875 -1.2343,2.5157 -0.5625,0.8281 -1.25,1.2343 -0.6875,0.4063 -1.5625,0.4063 z m 1.6093,-15.8906 v -0.1875 l 2.125,-2.8125 h 2.0157 v 0.2968 l -3.2188,2.7032 z m 21.3692,8.8125 q 0,1.5 -1.1407,2.3125 -1.125,0.8125 -3.1562,0.8125 -1.9688,0 -3.0469,-0.6563 -1.0625,-0.6562 -1.375,-2.0312 l 1.5469,-0.2969 q 0.2187,0.8437 0.9219,1.25 0.7031,0.3906 1.9531,0.3906 1.3437,0 1.9531,-0.4062 0.625,-0.4219 0.625,-1.2344 0,-0.625 -0.4375,-1.0156 -0.4219,-0.3907 -1.375,-0.6407 l -1.25,-0.3437 q -1.5156,-0.3906 -2.1562,-0.7656 -0.6407,-0.375 -1,-0.9063 -0.3594,-0.5469 -0.3594,-1.3281 0,-1.4375 1.0156,-2.1875 1.0313,-0.7656 3.0156,-0.7656 1.75,0 2.7657,0.625 1.0312,0.6093 1.3125,1.9687 l -1.5782,0.1875 q -0.1562,-0.7031 -0.7968,-1.0781 -0.6407,-0.375 -1.7032,-0.375 -1.2031,0 -1.7656,0.3594 -0.5625,0.3593 -0.5625,1.0937 0,0.4531 0.2344,0.75 0.2344,0.2813 0.6875,0.5 0.4687,0.2031 1.9375,0.5625 1.3906,0.3438 2,0.6406 0.625,0.2969 0.9844,0.6719 0.3593,0.3594 0.5468,0.8281 0.2032,0.4688 0.2032,1.0782 z m 8.6875,2.9218 -3.5782,-4.8281 -1.2812,1.0625 v 3.7656 h -1.7656 v -14.5 h 1.7656 v 9.0625 l 4.6406,-5.125 h 2.0625 l -4.2969,4.5313 4.5157,6.0312 z m 3.375,0 v -14.5 h 1.7656 v 14.5 z m 7.1465,0.2032 q -1.5938,0 -2.4063,-0.8438 -0.7969,-0.8437 -0.7969,-2.3125 0,-1.6406 1.0782,-2.5156 1.0937,-0.875 3.4843,-0.9375 l 2.375,-0.0469 v -0.5625 q 0,-1.2969 -0.5468,-1.8437 -0.5469,-0.5625 -1.7188,-0.5625 -1.1719,0 -1.7187,0.4062 -0.5313,0.3906 -0.6407,1.2656 l -1.8437,-0.1562 q 0.4531,-2.8594 4.25,-2.8594 1.9844,0 2.9844,0.9219 1.0156,0.9062 1.0156,2.6406 v 4.5469 q 0,0.7812 0.2031,1.1875 0.2031,0.3906 0.7813,0.3906 0.25,0 0.5781,-0.0781 v 1.0937 q -0.6719,0.1563 -1.3594,0.1563 -0.9687,0 -1.4219,-0.5 -0.4375,-0.5156 -0.5,-1.6094 h -0.0625 q -0.6718,1.2031 -1.5625,1.7188 -0.8906,0.5 -2.1718,0.5 z m 0.3906,-1.3282 q 0.9687,0 1.7187,-0.4375 0.7657,-0.4375 1.1875,-1.2031 0.4375,-0.7656 0.4375,-1.5781 v -0.875 l -1.9218,0.0469 q -1.2344,0.0156 -1.875,0.25 -0.6407,0.2343 -0.9844,0.7187 -0.3438,0.4844 -0.3438,1.2813 0,0.8593 0.4532,1.3281 0.4687,0.4687 1.3281,0.4687 z m 14.7012,-0.5781 q -0.4844,1.0156 -1.2969,1.4688 -0.7969,0.4375 -1.9844,0.4375 -2.0156,0 -2.9531,-1.3438 -0.9375,-1.3594 -0.9375,-4.0937 0,-5.5313 3.8906,-5.5313 1.1875,0 1.9844,0.4375 0.8125,0.4375 1.2969,1.4063 h 0.0156 l -0.0156,-1.1875 v -4.3907 h 1.7656 v 12.3282 q 0,1.6406 0.0469,2.1718 h -1.6719 q -0.0313,-0.1562 -0.0625,-0.7187 -0.0313,-0.5781 -0.0313,-0.9844 z m -5.3282,-3.5937 q 0,2.2187 0.5782,3.1875 0.5937,0.9531 1.9062,0.9531 1.5,0 2.1719,-1.0313 0.6719,-1.0468 0.6719,-3.2187 0,-2.1094 -0.6719,-3.0781 -0.6719,-0.9844 -2.1406,-0.9844 -1.3282,0 -1.9219,0.9844 -0.5938,0.9843 -0.5938,3.1875 z"
       id="path111" />
  </g>
  <g
     style="fill:#ffffff;fill-opacity:0;stroke:#ffffff;stroke-width:0.25;stroke-linecap:butt;stroke-linejoin:round;stroke-opacity:0"
     id="g117"
     transform="translate(-96.375,-127.5)">
    <path
       style="fill:none"
       d="M 303.25,269.5 H 439.375 V 301 H 303.25 Z"
       id="path115" />
  </g>
  <g
     style="fill:#ffffff;fill-opacity:0;stroke:#ffffff;stroke-width:2;stroke-linecap:butt;stroke-linejoin:round;stroke-opacity:0"
     id="g121"
     transform="translate(-96.375,-127.5)">
    <path
       style="stroke:none"
       d="m 232.375,166.25 40.25,11.5"
       id="path119" />
  </g>
  <g
     style="stroke-width:2;stroke-linecap:butt;stroke-linejoin:round"
     id="g127"
     transform="translate(-96.375,-127.5)">
    <path
       style="fill:none"
       d="m 232.375,166.25 40.25,11.5"
       id="path123" />
    <path
       style="fill:none"
       d="m 265.2848,172.7278 7.3402,5.0222 -8.8855,0.3863"
       id="path125" />
  </g>
  <g
     transform="matrix(-1,0,0,1,870.75,-127.5)"
     style="fill:#ffffff;fill-opacity:0;stroke:#ffffff;stroke-width:2;stroke-linecap:butt;stroke-linejoin:round;stroke-opacity:0"
     id="g131">
    <path
       style="stroke:none"
       d="M 464.625,157 502.5,177.75"
       id="path129" />
  </g>
  <g
     style="stroke-width:2;stroke-linecap:butt;stroke-linejoin:round"
     transform="matrix(-1,0,0,1,870.75,-127.5)"
     id="g137">
    <path
       style="fill:none"
       d="M 464.625,157 502.5,177.75"
       id="path133" />
    <path
       style="fill:none"
       d="m 496.4516,171.2294 6.0484,6.5206 -8.7511,-1.5874"
       id="path135" />
  </g>
  <g
     transform="matrix(1,0,0,-1,-96.375,659.875)"
     style="fill:#ffffff;fill-opacity:0;stroke:#ffffff;stroke-width:2;stroke-linecap:butt;stroke-linejoin:round;stroke-opacity:0"
     id="g141">
    <path
       style="stroke:none"
       d="M 147.375,378.875 269.25,408.5"
       id="path139" />
  </g>
  <g
     style="stroke-width:2;stroke-linecap:butt;stroke-linejoin:round"
     transform="matrix(1,0,0,-1,-96.375,659.875)"
     id="g147">
    <path
       style="fill:none"
       d="M 147.375,378.875 269.25,408.5"
       id="path143" />
    <path
       style="fill:none"
       d="m 261.7155,403.7741 7.5345,4.7259 -8.8631,0.74"
       id="path145" />
  </g>
  <g
     transform="rotate(180,474.875,330.5625)"
     style="fill:#ffffff;fill-opacity:0;stroke:#ffffff;stroke-width:2;stroke-linecap:butt;stroke-linejoin:round;stroke-opacity:0"
     id="g151">
    <path
       style="stroke:none"
       d="M 468,378.875 578.1251,409.75"
       id="path149" />
  </g>
  <g
     style="stroke-width:2;stroke-linecap:butt;stroke-linejoin:round"
     transform="rotate(180,474.875,330.5625)"
     id="g157">
    <path
       style="fill:none"
       d="M 468,378.875 578.1251,409.75"
       id="path153" />
    <path
       style="fill:none"
       d="m 570.7601,404.7642 7.365,4.9858 -8.8835,0.4304"
       id="path155" />
  </g>
  <g
     transform="matrix(1,0,0,-1,-96.375,525.5)"
     style="fill:#ffffff;fill-opacity:0;stroke:#ffffff;stroke-width:2;stroke-linecap:butt;stroke-linejoin:round;stroke-opacity:0"
     id="g161">
    <path
       style="stroke:none"
       d="m 364.5,313.375 0.125,26.25"
       id="path159" />
  </g>
  <g
     style="stroke-width:2;stroke-linecap:butt;stroke-linejoin:round"
     transform="matrix(1,0,0,-1,-96.375,525.5001)"
     id="g167">
    <path
       style="fill:none"
       d="m 364.5,313.375 0.125,26.25"
       id="path163" />
    <path
       style="fill:none"
       d="m 367.3973,331.1742 -2.7723,8.4508 -2.8526,-8.424"
       id="path165" />
  </g>
  <g
     style="fill:#c0504d;stroke:#c0504d;stroke-linecap:butt;stroke-linejoin:round"
     id="g171"
     transform="translate(-96.375,-127.5)">
    <path
       style="stroke:none"
       d="m 97.375,476.3125 v 0 c 0,-5.6264 19.8114,-10.1875 44.25,-10.1875 24.4386,0 44.25,4.5611 44.25,10.1875 0,5.6264 -19.8114,10.1875 -44.25,10.1875 -24.4386,0 -44.25,-4.5611 -44.25,-10.1875 z"
       id="path169" />
  </g>
  <g
     style="stroke-linecap:butt;stroke-linejoin:round"
     id="g175"
     transform="translate(-96.375,-127.5)">
    <path
       style="fill:none"
       d="m 97.375,476.3125 v 0 c 0,-5.6264 19.8114,-10.1875 44.25,-10.1875 24.4386,0 44.25,4.5611 44.25,10.1875 0,5.6264 -19.8114,10.1875 -44.25,10.1875 -24.4386,0 -44.25,-4.5611 -44.25,-10.1875 z"
       id="path173" />
  </g>
  <g
     style="fill:#c0504d;stroke:#c0504d;stroke-width:0.25;stroke-linecap:butt;stroke-linejoin:round"
     id="g179"
     transform="translate(-96.375,-127.5)">
    <path
       style="stroke:none"
       d="m 98.25,419.5 h 89.375 v 58 H 98.25 Z"
       id="path177" />
  </g>
  <g
     style="fill:#ffffff;fill-opacity:0;stroke:#ffffff;stroke-width:0.25;stroke-linecap:butt;stroke-linejoin:round;stroke-opacity:0"
     id="g183"
     transform="translate(-96.375,-127.5)">
    <path
       style="fill:none"
       d="m 98.25,419.5 h 89.375 v 58 H 98.25 Z"
       id="path181" />
  </g>
  <g
     style="fill:#c0504d;stroke:#c0504d;stroke-linecap:butt;stroke-linejoin:round"
     id="g187"
     transform="translate(-96.375,-127.5)">
    <path
       style="stroke:none"
       d="m 96.875,418.0625 v 0 c 0,-5.4883 19.9513,-9.9375 44.5625,-9.9375 24.6112,0 44.5625,4.4492 44.5625,9.9375 0,5.4883 -19.9513,9.9375 -44.5625,9.9375 -24.6112,0 -44.5625,-4.4492 -44.5625,-9.9375 z"
       id="path185" />
  </g>
  <g
     style="stroke-linecap:butt;stroke-linejoin:round"
     id="g191"
     transform="translate(-96.375,-127.5)">
    <path
       style="fill:none"
       d="m 96.875,418.0625 v 0 c 0,-5.4883 19.9513,-9.9375 44.5625,-9.9375 24.6112,0 44.5625,4.4492 44.5625,9.9375 0,5.4883 -19.9513,9.9375 -44.5625,9.9375 -24.6112,0 -44.5625,-4.4492 -44.5625,-9.9375 z"
       id="path189" />
  </g>
  <g
     style="fill:#ffffff;fill-opacity:0;stroke:#ffffff;stroke-width:0.25;stroke-linecap:butt;stroke-linejoin:round;stroke-opacity:0"
     id="g195"
     transform="translate(-96.375,-127.5)">
    <path
       style="stroke:none"
       d="m 106,437.375 h 78.75 v 31.5 H 106 Z"
       id="path193" />
  </g>
  <g
     style="fill:#ffffff;stroke:#ffffff;stroke-width:0.25;stroke-linecap:butt;stroke-linejoin:round"
     id="g199"
     transform="translate(-88.09375,-127.5)">
    <path
       style="stroke:none"
       d="m 114.0625,459.7598 v -1.3437 l 5.9063,-7.8594 h -5.5781 v -1.3594 h 7.6562 v 1.3282 l -5.9219,7.875 h 6.125 v 1.3593 z m 17.2032,-1.7031 q -0.4844,1.0156 -1.2969,1.4688 -0.7969,0.4375 -1.9844,0.4375 -2.0156,0 -2.9531,-1.3438 -0.9375,-1.3594 -0.9375,-4.0937 0,-5.5313 3.8906,-5.5313 1.1875,0 1.9844,0.4375 0.8125,0.4375 1.2969,1.4063 h 0.0156 l -0.0156,-1.1875 v -4.3907 h 1.7656 v 12.3282 q 0,1.6406 0.0469,2.1718 h -1.6719 q -0.0313,-0.1562 -0.0625,-0.7187 -0.0313,-0.5781 -0.0313,-0.9844 z m -5.3282,-3.5937 q 0,2.2187 0.5782,3.1875 0.5937,0.9531 1.9062,0.9531 1.5,0 2.1719,-1.0313 0.6719,-1.0468 0.6719,-3.2187 0,-2.1094 -0.6719,-3.0781 -0.6719,-0.9844 -2.1406,-0.9844 -1.3282,0 -1.9219,0.9844 -0.5938,0.9843 -0.5938,3.1875 z m 9.8262,5.2968 v -8.1093 q 0,-1.1094 -0.0625,-2.4532 h 1.6563 q 0.0781,1.7969 0.0781,2.1563 h 0.0469 q 0.4218,-1.3594 0.9687,-1.8594 0.5469,-0.5 1.5313,-0.5 0.3593,0 0.7187,0.0938 v 1.625 q -0.3437,-0.1094 -0.9375,-0.1094 -1.0937,0 -1.6719,0.9531 -0.5781,0.9375 -0.5781,2.6875 v 5.5156 z m 15.5508,-5.2968 q 0,2.7812 -1.2188,4.1406 -1.2187,1.3594 -3.5468,1.3594 -2.3125,0 -3.5,-1.4063 -1.1719,-1.4219 -1.1719,-4.0937 0,-5.4688 4.7344,-5.4688 2.4218,0 3.5625,1.3438 1.1406,1.3281 1.1406,4.125 z m -1.8438,0 q 0,-2.1875 -0.6562,-3.1719 -0.6406,-1 -2.1719,-1 -1.5469,0 -2.2344,1.0156 -0.6875,1.0156 -0.6875,3.1563 0,2.0937 0.6719,3.1406 0.6875,1.0469 2.1406,1.0469 1.5782,0 2.25,-1.0157 0.6875,-1.0156 0.6875,-3.1718 z m 5.7793,6.6093 q 0,1.4844 -0.5937,2.1563 -0.5781,0.6875 -1.75,0.6875 -0.75,0 -1.2344,-0.0938 v -1.3593 l 0.6094,0.0625 q 0.6719,0 0.9375,-0.3594 0.2812,-0.3438 0.2812,-1.3594 v -11.6094 h 1.75 z m -1.75,-14.125 v -1.6875 h 1.75 v 1.6875 z"
       id="path197" />
  </g>
  <g
     style="fill:#ffffff;fill-opacity:0;stroke:#ffffff;stroke-width:0.25;stroke-linecap:butt;stroke-linejoin:round;stroke-opacity:0"
     id="g203"
     transform="translate(-96.375,-127.5)">
    <path
       style="fill:none"
       d="m 106,437.375 h 78.75 v 31.5 H 106 Z"
       id="path201" />
  </g>
  <g
     transform="matrix(-1,0,0,1,279.125,-127.5)"
     style="fill:#ffffff;fill-opacity:0;stroke:#ffffff;stroke-linecap:butt;stroke-linejoin:round;stroke-opacity:0"
     id="g207">
    <path
       style="stroke:none"
       d="m 187.5,421.875 0.5,54.75"
       id="path205" />
  </g>
  <g
     style="stroke-linecap:butt;stroke-linejoin:round"
     transform="matrix(-1,0,0,1,279.125,-127.5)"
     id="g211">
    <path
       style="fill:none"
       d="m 187.5,421.875 0.5,54.75"
       id="path209" />
  </g>
  <g
     style="fill:#ffffff;fill-opacity:0;stroke:#ffffff;stroke-linecap:butt;stroke-linejoin:round;stroke-opacity:0"
     id="g215"
     transform="translate(-96.375,-127.5)">
    <path
       style="stroke:none"
       d="M 97.125,420.375 V 474"
       id="path213" />
  </g>
  <g
     style="stroke-linecap:butt;stroke-linejoin:round"
     id="g219"
     transform="translate(-96.375,-127.5)">
    <path
       style="fill:none"
       d="M 97.125,420.375 V 474"
       id="path217" />
  </g>
  <g
     style="fill:#4f81bd;stroke:#4f81bd;stroke-linecap:butt;stroke-linejoin:round"
     id="g223"
     transform="translate(-96.375,-127.5)">
    <path
       style="stroke:none"
       d="m 319.75,477.9376 v 0 c 0,-5.6265 19.8114,-10.1876 44.25,-10.1876 24.4386,0 44.25,4.5611 44.25,10.1876 0,5.6264 -19.8114,10.1875 -44.25,10.1875 -24.4386,0 -44.25,-4.5611 -44.25,-10.1875 z"
       id="path221" />
  </g>
  <g
     style="stroke-linecap:butt;stroke-linejoin:round"
     id="g227"
     transform="translate(-96.375,-127.5)">
    <path
       style="fill:none"
       d="m 319.75,477.9376 v 0 c 0,-5.6265 19.8114,-10.1876 44.25,-10.1876 24.4386,0 44.25,4.5611 44.25,10.1876 0,5.6264 -19.8114,10.1875 -44.25,10.1875 -24.4386,0 -44.25,-4.5611 -44.25,-10.1875 z"
       id="path225" />
  </g>
  <g
     style="fill:#4f81bd;stroke:#4f81bd;stroke-width:0.25;stroke-linecap:butt;stroke-linejoin:round"
     id="g231"
     transform="translate(-96.375,-127.5)">
    <path
       style="stroke:none"
       d="M 320.625,421.125 H 410 v 58 h -89.375 z"
       id="path229" />
  </g>
  <g
     style="fill:#ffffff;fill-opacity:0;stroke:#ffffff;stroke-width:0.25;stroke-linecap:butt;stroke-linejoin:round;stroke-opacity:0"
     id="g235"
     transform="translate(-96.375,-127.5)">
    <path
       style="fill:none"
       d="M 320.625,421.125 H 410 v 58 h -89.375 z"
       id="path233" />
  </g>
  <g
     style="fill:#4f81bd;stroke:#4f81bd;stroke-linecap:butt;stroke-linejoin:round"
     id="g239"
     transform="translate(-96.375,-127.5)">
    <path
       style="stroke:none"
       d="m 319.25,419.6875 v 0 c 0,-5.4883 19.9513,-9.9375 44.5625,-9.9375 24.6112,0 44.5625,4.4492 44.5625,9.9375 0,5.4884 -19.9513,9.9375 -44.5625,9.9375 -24.6112,0 -44.5625,-4.4491 -44.5625,-9.9375 z"
       id="path237" />
  </g>
  <g
     style="stroke-linecap:butt;stroke-linejoin:round"
     id="g243"
     transform="translate(-96.375,-127.5)">
    <path
       style="fill:none"
       d="m 319.25,419.6875 v 0 c 0,-5.4883 19.9513,-9.9375 44.5625,-9.9375 24.6112,0 44.5625,4.4492 44.5625,9.9375 0,5.4884 -19.9513,9.9375 -44.5625,9.9375 -24.6112,0 -44.5625,-4.4491 -44.5625,-9.9375 z"
       id="path241" />
  </g>
  <g
     style="fill:#ffffff;fill-opacity:0;stroke:#ffffff;stroke-width:0.25;stroke-linecap:butt;stroke-linejoin:round;stroke-opacity:0"
     id="g247"
     transform="translate(-96.375,-127.5)">
    <path
       style="stroke:none"
       d="m 328.375,439 h 78.75 v 31.5 h -78.75 z"
       id="path245" />
  </g>
  <g
     style="fill:#ffffff;stroke:#ffffff;stroke-width:0.25;stroke-linecap:butt;stroke-linejoin:round"
     id="g251"
     transform="translate(-88.09375,-127.5)">
    <path
       style="stroke:none"
       d="m 336.4375,461.3848 v -1.3437 l 5.9063,-7.8594 h -5.5782 v -1.3594 h 7.6563 v 1.3282 l -5.9219,7.875 h 6.125 v 1.3593 z m 17.2031,-1.7031 q -0.4844,1.0156 -1.2968,1.4688 -0.7969,0.4375 -1.9844,0.4375 -2.0156,0 -2.9532,-1.3438 -0.9374,-1.3594 -0.9374,-4.0937 0,-5.5313 3.8906,-5.5313 1.1875,0 1.9844,0.4375 0.8124,0.4375 1.2968,1.4063 h 0.0156 l -0.0156,-1.1875 v -4.3907 h 1.7656 v 12.3282 q 0,1.6406 0.0469,2.1718 h -1.6719 q -0.0312,-0.1562 -0.0624,-0.7187 -0.0313,-0.5781 -0.0313,-0.9844 z m -5.3281,-3.5937 q 0,2.2187 0.5781,3.1875 0.5938,0.9531 1.9063,0.9531 1.5,0 2.1719,-1.0313 0.6718,-1.0468 0.6718,-3.2187 0,-2.1094 -0.6718,-3.0781 -0.6719,-0.9844 -2.1407,-0.9844 -1.3281,0 -1.9219,0.9844 -0.5937,0.9843 -0.5937,3.1875 z m 9.8262,5.2968 v -8.1093 q 0,-1.1094 -0.0625,-2.4532 h 1.6562 q 0.0781,1.7969 0.0781,2.1563 h 0.0469 q 0.4219,-1.3594 0.9688,-1.8594 0.5468,-0.5 1.5312,-0.5 0.3594,0 0.7188,0.0938 v 1.625 q -0.3438,-0.1094 -0.9375,-0.1094 -1.0938,0 -1.6719,0.9531 -0.5781,0.9375 -0.5781,2.6875 v 5.5156 z m 15.5508,-5.2968 q 0,2.7812 -1.2188,4.1406 -1.2187,1.3594 -3.5469,1.3594 -2.3125,0 -3.5,-1.4063 -1.1718,-1.4219 -1.1718,-4.0937 0,-5.4688 4.7343,-5.4688 2.4219,0 3.5625,1.3438 1.1407,1.3281 1.1407,4.125 z m -1.8438,0 q 0,-2.1875 -0.6562,-3.1719 -0.6407,-1 -2.1719,-1 -1.5469,0 -2.2344,1.0156 -0.6875,1.0156 -0.6875,3.1563 0,2.0937 0.6719,3.1406 0.6875,1.0469 2.1406,1.0469 1.5781,0 2.25,-1.0157 0.6875,-1.0156 0.6875,-3.1718 z m 5.7793,6.6093 q 0,1.4844 -0.5938,2.1563 -0.5781,0.6875 -1.75,0.6875 -0.75,0 -1.2343,-0.0938 v -1.3593 l 0.6093,0.0625 q 0.6719,0 0.9376,-0.3594 0.2812,-0.3438 0.2812,-1.3594 v -11.6094 h 1.75 z m -1.75,-14.125 v -1.6875 h 1.75 v 1.6875 z"
       id="path249" />
  </g>
  <g
     style="fill:#ffffff;fill-opacity:0;stroke:#ffffff;stroke-width:0.25;stroke-linecap:butt;stroke-linejoin:round;stroke-opacity:0"
     id="g255"
     transform="translate(-96.375,-127.5)">
    <path
       style="fill:none"
       d="m 328.375,439 h 78.75 v 31.5 h -78.75 z"
       id="path253" />
  </g>
  <g
     transform="matrix(-1,0,0,1,723.875,-127.5)"
     style="fill:#ffffff;fill-opacity:0;stroke:#ffffff;stroke-linecap:butt;stroke-linejoin:round;stroke-opacity:0"
     id="g259">
    <path
       style="stroke:none"
       d="m 409.875,423.5 0.5,54.75"
       id="path257" />
  </g>
  <g
     style="stroke-linecap:butt;stroke-linejoin:round"
     transform="matrix(-1,0,0,1,723.8751,-127.5)"
     id="g263">
    <path
       style="fill:none"
       d="m 409.875,423.5 0.5,54.75"
       id="path261" />
  </g>
  <g
     style="fill:#ffffff;fill-opacity:0;stroke:#ffffff;stroke-linecap:butt;stroke-linejoin:round;stroke-opacity:0"
     id="g267"
     transform="translate(-96.375,-127.5)">
    <path
       style="stroke:none"
       d="m 319.5,422 v 53.625"
       id="path265" />
  </g>
  <g
     style="stroke-linecap:butt;stroke-linejoin:round"
     id="g271"
     transform="translate(-96.375,-127.5)">
    <path
       style="fill:none"
       d="m 319.5,422 v 53.625"
       id="path269" />
  </g>
  <g
     style="fill:#800080;stroke:#800080;stroke-linecap:butt;stroke-linejoin:round"
     id="g275"
     transform="translate(-96.375,-127.5)">
    <path
       style="stroke:none"
       d="m 532.25,478.0625 v 0 c 0,-5.6264 19.8114,-10.1875 44.25,-10.1875 24.4386,0 44.25,4.5611 44.25,10.1875 0,5.6264 -19.8114,10.1875 -44.25,10.1875 -24.4386,0 -44.25,-4.5611 -44.25,-10.1875 z"
       id="path273" />
  </g>
  <g
     style="stroke-linecap:butt;stroke-linejoin:round"
     id="g279"
     transform="translate(-96.375,-127.5)">
    <path
       style="fill:none"
       d="m 532.25,478.0625 v 0 c 0,-5.6264 19.8114,-10.1875 44.25,-10.1875 24.4386,0 44.25,4.5611 44.25,10.1875 0,5.6264 -19.8114,10.1875 -44.25,10.1875 -24.4386,0 -44.25,-4.5611 -44.25,-10.1875 z"
       id="path277" />
  </g>
  <g
     style="fill:#800080;stroke:#800080;stroke-width:0.25;stroke-linecap:butt;stroke-linejoin:round"
     id="g283"
     transform="translate(-96.375,-127.5)">
    <path
       style="stroke:none"
       d="m 533.125,421.25 h 89.3751 v 58 H 533.125 Z"
       id="path281" />
  </g>
  <g
     style="fill:#ffffff;fill-opacity:0;stroke:#ffffff;stroke-width:0.25;stroke-linecap:butt;stroke-linejoin:round;stroke-opacity:0"
     id="g287"
     transform="translate(-96.375,-127.5)">
    <path
       style="fill:none"
       d="m 533.125,421.25 h 89.3751 v 58 H 533.125 Z"
       id="path285" />
  </g>
  <g
     style="fill:#800080;stroke:#800080;stroke-linecap:butt;stroke-linejoin:round"
     id="g291"
     transform="translate(-96.375,-127.5)">
    <path
       style="stroke:none"
       d="m 531.75,419.8125 v 0 c 0,-5.4883 19.9513,-9.9375 44.5625,-9.9375 24.6112,0 44.5626,4.4492 44.5626,9.9375 0,5.4883 -19.9514,9.9375 -44.5626,9.9375 -24.6112,0 -44.5625,-4.4492 -44.5625,-9.9375 z"
       id="path289" />
  </g>
  <g
     style="stroke-linecap:butt;stroke-linejoin:round"
     id="g295"
     transform="translate(-96.375,-127.5)">
    <path
       style="fill:none"
       d="m 531.75,419.8125 v 0 c 0,-5.4883 19.9513,-9.9375 44.5625,-9.9375 24.6112,0 44.5626,4.4492 44.5626,9.9375 0,5.4883 -19.9514,9.9375 -44.5626,9.9375 -24.6112,0 -44.5625,-4.4492 -44.5625,-9.9375 z"
       id="path293" />
  </g>
  <g
     style="fill:#ffffff;fill-opacity:0;stroke:#ffffff;stroke-width:0.25;stroke-linecap:butt;stroke-linejoin:round;stroke-opacity:0"
     id="g299"
     transform="translate(-96.375,-127.5)">
    <path
       style="stroke:none"
       d="m 540.875,439.125 h 78.75 v 31.5 h -78.75 z"
       id="path297" />
  </g>
  <g
     style="fill:#ffffff;stroke:#ffffff;stroke-width:0.25;stroke-linecap:butt;stroke-linejoin:round"
     id="g303"
     transform="translate(-88.0937,-127.5)">
    <path
       style="stroke:none"
       d="m 548.9375,461.5098 v -1.3437 l 5.9063,-7.8594 h -5.5782 v -1.3594 h 7.6563 v 1.3282 L 551,460.1505 h 6.125 v 1.3593 z m 17.2031,-1.7031 q -0.4844,1.0156 -1.2968,1.4688 -0.7969,0.4375 -1.9844,0.4375 -2.0156,0 -2.9532,-1.3438 -0.9374,-1.3594 -0.9374,-4.0937 0,-5.5313 3.8906,-5.5313 1.1875,0 1.9844,0.4375 0.8124,0.4375 1.2968,1.4063 h 0.0156 l -0.0156,-1.1875 v -4.3907 h 1.7656 v 12.3282 q 0,1.6406 0.0469,2.1718 h -1.6719 q -0.0312,-0.1562 -0.0624,-0.7187 -0.0313,-0.5781 -0.0313,-0.9844 z m -5.3281,-3.5937 q 0,2.2187 0.5781,3.1875 0.5938,0.9531 1.9063,0.9531 1.5,0 2.1719,-1.0313 0.6718,-1.0468 0.6718,-3.2187 0,-2.1094 -0.6718,-3.0781 -0.6719,-0.9844 -2.1407,-0.9844 -1.3281,0 -1.9219,0.9844 -0.5937,0.9843 -0.5937,3.1875 z m 9.8262,5.2968 v -8.1093 q 0,-1.1094 -0.0625,-2.4532 h 1.6562 q 0.0781,1.7969 0.0781,2.1563 h 0.0469 q 0.4219,-1.3594 0.9688,-1.8594 0.5468,-0.5 1.5312,-0.5 0.3594,0 0.7188,0.0938 v 1.625 q -0.3438,-0.1094 -0.9375,-0.1094 -1.0938,0 -1.6719,0.9531 -0.5781,0.9375 -0.5781,2.6875 v 5.5156 z m 15.5508,-5.2968 q 0,2.7812 -1.2188,4.1406 -1.2187,1.3594 -3.5469,1.3594 -2.3125,0 -3.5,-1.4063 -1.1718,-1.4219 -1.1718,-4.0937 0,-5.4688 4.7343,-5.4688 2.4219,0 3.5625,1.3438 1.1407,1.3281 1.1407,4.125 z m -1.8438,0 q 0,-2.1875 -0.6562,-3.1719 -0.6407,-1 -2.1719,-1 -1.5469,0 -2.2344,1.0156 -0.6875,1.0156 -0.6875,3.1563 0,2.0937 0.6719,3.1406 0.6875,1.0469 2.1406,1.0469 1.5781,0 2.25,-1.0157 0.6875,-1.0156 0.6875,-3.1718 z m 5.7793,6.6093 q 0,1.4844 -0.5938,2.1563 -0.5781,0.6875 -1.75,0.6875 -0.75,0 -1.2343,-0.0938 v -1.3593 l 0.6093,0.0625 q 0.6719,0 0.9376,-0.3594 0.2812,-0.3438 0.2812,-1.3594 v -11.6094 h 1.75 z m -1.75,-14.125 v -1.6875 h 1.75 v 1.6875 z"
       id="path301" />
  </g>
  <g
     style="fill:#ffffff;fill-opacity:0;stroke:#ffffff;stroke-width:0.25;stroke-linecap:butt;stroke-linejoin:round;stroke-opacity:0"
     id="g307"
     transform="translate(-96.375,-127.5)">
    <path
       style="fill:none"
       d="m 540.875,439.125 h 78.75 v 31.5 h -78.75 z"
       id="path305" />
  </g>
  <g
     transform="matrix(-1,0,0,1,1148.875,-127.5)"
     style="fill:#ffffff;fill-opacity:0;stroke:#ffffff;stroke-linecap:butt;stroke-linejoin:round;stroke-opacity:0"
     id="g311">
    <path
       style="stroke:none"
       d="m 622.3751,423.625 0.5,54.75"
       id="path309" />
  </g>
  <g
     style="stroke-linecap:butt;stroke-linejoin:round"
     transform="matrix(-1,0,0,1,1148.8751,-127.5)"
     id="g315">
    <path
       style="fill:none"
       d="m 622.3751,423.625 0.5,54.75"
       id="path313" />
  </g>
  <g
     style="fill:#ffffff;fill-opacity:0;stroke:#ffffff;stroke-linecap:butt;stroke-linejoin:round;stroke-opacity:0"
     id="g319"
     transform="translate(-96.375,-127.5)">
    <path
       style="stroke:none"
       d="M 532,422.125 V 475.75"
       id="path317" />
  </g>
  <g
     style="stroke-linecap:butt;stroke-linejoin:round"
     id="g323"
     transform="translate(-96.375,-127.5)">
    <path
       style="fill:none"
       d="M 532,422.125 V 475.75"
       id="path321" />
  </g>
  <g
     style="fill:#eeece1;stroke:#eeece1;stroke-width:2;stroke-linecap:butt;stroke-linejoin:round"
     id="g327"
     transform="translate(-96.375,-127.5)">
    <path
       style="stroke:none"
       d="m 235.4648,189.8105 35.9532,-3.475 -25.6027,-5.6136 40.8308,-0.8074 -11.3551,-6.8978 39.492,1.9833 4.6229,-7.1316 32.1397,4.4718 19.8958,-6.2797 19.8957,6.2797 32.1398,-4.4718 4.6229,7.1316 39.492,-1.9833 -11.3551,6.8978 40.8307,0.8074 -25.6027,5.6136 35.9532,3.475 -35.9532,3.4751 25.6027,5.6136 -40.8307,0.8074 11.3551,6.8978 -39.492,-1.9833 -4.6229,7.1316 -32.1398,-4.4718 -19.8957,6.2796 -19.8958,-6.2796 -32.1397,4.4718 -4.6229,-7.1316 -39.492,1.9833 11.3551,-6.8978 -40.8308,-0.8074 25.6027,-5.6136 z"
       id="path325" />
  </g>
  <g
     style="stroke-width:2;stroke-linecap:butt;stroke-linejoin:round"
     id="g331"
     transform="translate(-96.375,-127.5)">
    <path
       style="fill:none"
       d="m 235.4648,189.8105 35.9532,-3.475 -25.6027,-5.6136 40.8308,-0.8074 -11.3551,-6.8978 39.492,1.9833 4.6229,-7.1316 32.1397,4.4718 19.8958,-6.2797 19.8957,6.2797 32.1398,-4.4718 4.6229,7.1316 39.492,-1.9833 -11.3551,6.8978 40.8307,0.8074 -25.6027,5.6136 35.9532,3.475 -35.9532,3.4751 25.6027,5.6136 -40.8307,0.8074 11.3551,6.8978 -39.492,-1.9833 -4.6229,7.1316 -32.1398,-4.4718 -19.8957,6.2796 -19.8958,-6.2796 -32.1397,4.4718 -4.6229,-7.1316 -39.492,1.9833 11.3551,-6.8978 -40.8308,-0.8074 25.6027,-5.6136 z"
       id="path329" />
  </g>
  <g
     style="fill:#ffffff;fill-opacity:0;stroke:#ffffff;stroke-width:0.25;stroke-linecap:butt;stroke-linejoin:round;stroke-opacity:0"
     id="g335"
     transform="translate(-96.375,-127.5)">
    <path
       style="stroke:none"
       d="m 279.8326,174.5605 h 183.0839 v 55.75 H 279.8326 Z"
       id="path333" />
  </g>
  <g
     style="stroke-width:0.25;stroke-linecap:butt;stroke-linejoin:round"
     id="g339"
     transform="translate(-87.4879,-129.3458)">
    <path
       style="stroke:none"
       d="m 295.0982,195.2422 q -0.4844,1.0157 -1.2969,1.4688 -0.7968,0.4375 -1.9843,0.4375 -2.0157,0 -2.9532,-1.3438 -0.9375,-1.3593 -0.9375,-4.0937 0,-5.5313 3.8907,-5.5313 1.1875,0 1.9843,0.4375 0.8125,0.4375 1.2969,1.4063 h 0.0156 l -0.0156,-1.1875 v -4.3906 h 1.7656 v 12.3281 q 0,1.6406 0.0469,2.1719 h -1.6719 q -0.0312,-0.1563 -0.0625,-0.7188 -0.0312,-0.5781 -0.0312,-0.9844 z m -5.3281,-3.5937 q 0,2.2187 0.5781,3.1875 0.5938,0.9531 1.9063,0.9531 1.5,0 2.1718,-1.0312 0.6719,-1.0469 0.6719,-3.2188 0,-2.1094 -0.6719,-3.0781 -0.6718,-0.9844 -2.1406,-0.9844 -1.3281,0 -1.9219,0.9844 -0.5937,0.9844 -0.5937,3.1875 z m 18.7168,0 q 0,2.7812 -1.2188,4.1406 -1.2187,1.3594 -3.5468,1.3594 -2.3125,0 -3.5,-1.4063 -1.1719,-1.4218 -1.1719,-4.0937 0,-5.4688 4.7344,-5.4688 2.4218,0 3.5625,1.3438 1.1406,1.3281 1.1406,4.125 z m -1.8438,0 q 0,-2.1875 -0.6562,-3.1719 -0.6406,-1 -2.1719,-1 -1.5469,0 -2.2344,1.0156 -0.6875,1.0157 -0.6875,3.1563 0,2.0937 0.6719,3.1406 0.6875,1.0469 2.1406,1.0469 1.5782,0 2.25,-1.0156 0.6875,-1.0157 0.6875,-3.1719 z m 8.0918,5.2187 q -0.8594,0.2344 -1.7656,0.2344 -2.1094,0 -2.1094,-2.3906 v -7.0469 h -1.2344 v -1.2812 h 1.2969 l 0.5156,-2.375 h 1.1719 v 2.375 h 1.9531 v 1.2812 h -1.9531 v 6.6563 q 0,0.7656 0.25,1.0781 0.25,0.3125 0.8594,0.3125 0.3594,0 1.0156,-0.1406 z m 4.1973,0.2813 q -1.5938,0 -2.4063,-0.8438 -0.7968,-0.8437 -0.7968,-2.3125 0,-1.6406 1.0781,-2.5156 1.0937,-0.875 3.4844,-0.9375 l 2.375,-0.0469 v -0.5625 q 0,-1.2968 -0.5469,-1.8437 -0.5469,-0.5625 -1.7188,-0.5625 -1.1718,0 -1.7187,0.4062 -0.5313,0.3907 -0.6406,1.2657 l -1.8438,-0.1563 q 0.4531,-2.8594 4.25,-2.8594 1.9844,0 2.9844,0.9219 1.0156,0.9063 1.0156,2.6406 v 4.5469 q 0,0.7813 0.2031,1.1875 0.2032,0.3906 0.7813,0.3906 0.25,0 0.5781,-0.0781 v 1.0938 q -0.6719,0.1562 -1.3594,0.1562 -0.9687,0 -1.4218,-0.5 -0.4375,-0.5156 -0.5,-1.6094 h -0.0625 q -0.6719,1.2032 -1.5625,1.7188 -0.8907,0.5 -2.1719,0.5 z m 0.3906,-1.3281 q 0.9688,0 1.7188,-0.4375 0.7656,-0.4375 1.1875,-1.2032 0.4375,-0.7656 0.4375,-1.5781 v -0.875 l -1.9219,0.0469 q -1.2344,0.0156 -1.875,0.25 -0.6406,0.2344 -0.9844,0.7187 -0.3437,0.4844 -0.3437,1.2813 0,0.8594 0.4531,1.3281 0.4687,0.4688 1.3281,0.4688 z m 7.4981,1.125 v -1.3438 l 5.9062,-7.8594 h -5.5781 v -1.3593 h 7.6562 v 1.3281 l -5.9218,7.875 h 6.125 v 1.3594 z m 11.0468,4.1562 q -0.7187,0 -1.2031,-0.1094 v -1.3281 q 0.375,0.0625 0.8125,0.0625 1.6406,0 2.6094,-2.4062 l 0.1562,-0.4219 -4.1875,-10.5156 h 1.875 l 2.2344,5.8281 q 0.0469,0.1406 0.1094,0.3437 0.0781,0.1875 0.4375,1.2657 0.375,1.0781 0.4062,1.2031 l 0.6875,-1.9219 2.3125,-6.7187 h 1.8594 l -4.0625,10.5625 q -0.6562,1.6875 -1.2344,2.5156 -0.5625,0.8281 -1.25,1.2344 -0.6875,0.4062 -1.5625,0.4062 z m 17.7442,-3.9531 q -1.5938,0 -2.4063,-0.8438 -0.7968,-0.8437 -0.7968,-2.3125 0,-1.6406 1.0781,-2.5156 1.0937,-0.875 3.4844,-0.9375 l 2.375,-0.0469 v -0.5625 q 0,-1.2968 -0.5469,-1.8437 -0.5469,-0.5625 -1.7188,-0.5625 -1.1718,0 -1.7187,0.4062 -0.5313,0.3907 -0.6406,1.2657 l -1.8438,-0.1563 q 0.4531,-2.8594 4.25,-2.8594 1.9844,0 2.9844,0.9219 1.0156,0.9063 1.0156,2.6406 v 4.5469 q 0,0.7813 0.2031,1.1875 0.2032,0.3906 0.7813,0.3906 0.25,0 0.5781,-0.0781 v 1.0938 q -0.6719,0.1562 -1.3594,0.1562 -0.9687,0 -1.4218,-0.5 -0.4375,-0.5156 -0.5,-1.6094 h -0.0625 q -0.6719,1.2032 -1.5625,1.7188 -0.8907,0.5 -2.1719,0.5 z m 0.3906,-1.3281 q 0.9688,0 1.7188,-0.4375 0.7656,-0.4375 1.1875,-1.2032 0.4375,-0.7656 0.4375,-1.5781 v -0.875 l -1.9219,0.0469 q -1.2344,0.0156 -1.875,0.25 -0.6406,0.2344 -0.9844,0.7187 -0.3437,0.4844 -0.3437,1.2813 0,0.8594 0.4531,1.3281 0.4687,0.4688 1.3281,0.4688 z m 16.2891,1.3281 q -1.5938,0 -2.4063,-0.8438 -0.7969,-0.8437 -0.7969,-2.3125 0,-1.6406 1.0782,-2.5156 1.0937,-0.875 3.4843,-0.9375 l 2.375,-0.0469 v -0.5625 q 0,-1.2968 -0.5468,-1.8437 -0.5469,-0.5625 -1.7188,-0.5625 -1.1719,0 -1.7187,0.4062 -0.5313,0.3907 -0.6407,1.2657 l -1.8437,-0.1563 q 0.4531,-2.8594 4.25,-2.8594 1.9844,0 2.9844,0.9219 1.0156,0.9063 1.0156,2.6406 v 4.5469 q 0,0.7813 0.2031,1.1875 0.2031,0.3906 0.7813,0.3906 0.25,0 0.5781,-0.0781 v 1.0938 q -0.6719,0.1562 -1.3594,0.1562 -0.9687,0 -1.4219,-0.5 -0.4375,-0.5156 -0.5,-1.6094 h -0.0625 q -0.6718,1.2032 -1.5625,1.7188 -0.8906,0.5 -2.1718,0.5 z m 0.3906,-1.3281 q 0.9687,0 1.7187,-0.4375 0.7657,-0.4375 1.1875,-1.2032 0.4375,-0.7656 0.4375,-1.5781 v -0.875 l -1.9218,0.0469 q -1.2344,0.0156 -1.875,0.25 -0.6407,0.2344 -0.9844,0.7187 -0.3438,0.4844 -0.3438,1.2813 0,0.8594 0.4532,1.3281 0.4687,0.4688 1.3281,0.4688 z m 14.748,1.125 v -6.7032 q 0,-1.0468 -0.2187,-1.6093 -0.2031,-0.5782 -0.6563,-0.8282 -0.4375,-0.2656 -1.3125,-0.2656 -1.2656,0 -2,0.875 -0.7343,0.8594 -0.7343,2.4063 v 6.125 h -1.75 v -8.3125 q 0,-1.8438 -0.0625,-2.25 h 1.6562 q 0.0156,0.0468 0.0156,0.2656 0.0157,0.2031 0.0313,0.4844 0.0156,0.2812 0.0312,1.0468 h 0.0313 q 0.6094,-1.0937 1.4062,-1.5468 0.7969,-0.4532 1.9688,-0.4532 1.75,0 2.5469,0.875 0.8125,0.8594 0.8125,2.8438 v 7.0469 z m 7.1075,0.2031 q -1.5938,0 -2.4063,-0.8438 -0.7969,-0.8437 -0.7969,-2.3125 0,-1.6406 1.0782,-2.5156 1.0937,-0.875 3.4843,-0.9375 l 2.375,-0.0469 v -0.5625 q 0,-1.2968 -0.5468,-1.8437 -0.5469,-0.5625 -1.7188,-0.5625 -1.1719,0 -1.7187,0.4062 -0.5313,0.3907 -0.6407,1.2657 l -1.8437,-0.1563 q 0.4531,-2.8594 4.25,-2.8594 1.9844,0 2.9844,0.9219 1.0156,0.9063 1.0156,2.6406 v 4.5469 q 0,0.7813 0.2031,1.1875 0.2031,0.3906 0.7813,0.3906 0.25,0 0.5781,-0.0781 v 1.0938 q -0.6719,0.1562 -1.3594,0.1562 -0.9687,0 -1.4219,-0.5 -0.4375,-0.5156 -0.5,-1.6094 h -0.0625 q -0.6718,1.2032 -1.5625,1.7188 -0.8906,0.5 -2.1718,0.5 z m 0.3906,-1.3281 q 0.9687,0 1.7187,-0.4375 0.7657,-0.4375 1.1875,-1.2032 0.4375,-0.7656 0.4375,-1.5781 v -0.875 l -1.9218,0.0469 q -1.2344,0.0156 -1.875,0.25 -0.6407,0.2344 -0.9844,0.7187 -0.3438,0.4844 -0.3438,1.2813 0,0.8594 0.4532,1.3281 0.4687,0.4688 1.3281,0.4688 z m 8.0293,1.125 v -14.5 h 1.7656 v 14.5 z m 4.959,4.1562 q -0.7188,0 -1.2032,-0.1094 v -1.3281 q 0.375,0.0625 0.8125,0.0625 1.6407,0 2.6094,-2.4062 l 0.1563,-0.4219 -4.1875,-10.5156 h 1.875 l 2.2343,5.8281 q 0.0469,0.1406 0.1094,0.3437 0.0781,0.1875 0.4375,1.2657 0.375,1.0781 0.4063,1.2031 l 0.6875,-1.9219 2.3125,-6.7187 h 1.8593 l -4.0625,10.5625 q -0.6562,1.6875 -1.2343,2.5156 -0.5625,0.8281 -1.25,1.2344 -0.6875,0.4062 -1.5625,0.4062 z m 1.6093,-15.8906 v -0.1875 l 2.125,-2.8125 h 2.0157 v 0.2969 l -3.2188,2.7031 z m 7.3438,11.7344 v -1.3438 l 5.9062,-7.8594 h -5.5781 v -1.3593 h 7.6563 v 1.3281 l -5.9219,7.875 h 6.125 v 1.3594 z m 13.2344,0.2031 q -1.5938,0 -2.4063,-0.8438 -0.7969,-0.8437 -0.7969,-2.3125 0,-1.6406 1.0782,-2.5156 1.0937,-0.875 3.4843,-0.9375 l 2.375,-0.0469 v -0.5625 q 0,-1.2968 -0.5468,-1.8437 -0.5469,-0.5625 -1.7188,-0.5625 -1.1719,0 -1.7187,0.4062 -0.5313,0.3907 -0.6407,1.2657 l -1.8437,-0.1563 q 0.4531,-2.8594 4.25,-2.8594 1.9844,0 2.9844,0.9219 1.0156,0.9063 1.0156,2.6406 v 4.5469 q 0,0.7813 0.2031,1.1875 0.2031,0.3906 0.7813,0.3906 0.25,0 0.5781,-0.0781 v 1.0938 q -0.6719,0.1562 -1.3594,0.1562 -0.9687,0 -1.4219,-0.5 -0.4375,-0.5156 -0.5,-1.6094 h -0.0625 q -0.6718,1.2032 -1.5625,1.7188 -0.8906,0.5 -2.1718,0.5 z m 0.3906,-1.3281 q 0.9687,0 1.7187,-0.4375 0.7657,-0.4375 1.1875,-1.2032 0.4375,-0.7656 0.4375,-1.5781 v -0.875 l -1.9218,0.0469 q -1.2344,0.0156 -1.875,0.25 -0.6407,0.2344 -0.9844,0.7187 -0.3438,0.4844 -0.3438,1.2813 0,0.8594 0.4532,1.3281 0.4687,0.4688 1.3281,0.4688 z"
       id="path337" />
  </g>
  <g
     style="fill:#ffffff;fill-opacity:0;stroke:#ffffff;stroke-width:0.25;stroke-linecap:butt;stroke-linejoin:round;stroke-opacity:0"
     id="g343"
     transform="translate(-96.375,-127.5)">
    <path
       style="fill:none"
       d="m 279.8326,174.5605 h 183.0839 v 55.75 H 279.8326 Z"
       id="path341" />
  </g>
  <g
     style="fill:#eeece1;stroke:#eeece1;stroke-width:2;stroke-linecap:butt;stroke-linejoin:round"
     id="g347"
     transform="translate(-96.375,-127.5)">
    <path
       style="stroke:none"
       d="m 235.2501,366.125 33.6293,-3.475 -23.9478,-5.6136 38.1915,-0.8075 -10.6211,-6.8977 36.9394,1.9833 4.324,-7.1316 30.0624,4.4718 18.6098,-6.2797 18.6097,6.2797 30.0623,-4.4718 4.3241,7.1316 36.9394,-1.9833 -10.6211,6.8977 38.1915,0.8075 -23.9478,5.6136 33.6293,3.475 -33.6293,3.4751 23.9478,5.6136 -38.1915,0.8074 10.6211,6.8978 -36.9394,-1.9833 -4.3241,7.1316 -30.0623,-4.4718 -18.6097,6.2796 -18.6098,-6.2796 -30.0624,4.4718 -4.324,-7.1316 -36.9394,1.9833 10.6211,-6.8978 -38.1915,-0.8074 23.9478,-5.6136 z"
       id="path345" />
  </g>
  <g
     style="stroke-width:2;stroke-linecap:butt;stroke-linejoin:round"
     id="g351"
     transform="translate(-96.375,-127.5)">
    <path
       style="fill:none"
       d="m 235.2501,366.125 33.6293,-3.475 -23.9478,-5.6136 38.1915,-0.8075 -10.6211,-6.8977 36.9394,1.9833 4.324,-7.1316 30.0624,4.4718 18.6098,-6.2797 18.6097,6.2797 30.0623,-4.4718 4.3241,7.1316 36.9394,-1.9833 -10.6211,6.8977 38.1915,0.8075 -23.9478,5.6136 33.6293,3.475 -33.6293,3.4751 23.9478,5.6136 -38.1915,0.8074 10.6211,6.8978 -36.9394,-1.9833 -4.3241,7.1316 -30.0623,-4.4718 -18.6097,6.2796 -18.6098,-6.2796 -30.0624,4.4718 -4.324,-7.1316 -36.9394,1.9833 10.6211,-6.8978 -38.1915,-0.8074 23.9478,-5.6136 z"
       id="path349" />
  </g>
  <g
     style="fill:#ffffff;fill-opacity:0;stroke:#ffffff;stroke-width:0.25;stroke-linecap:butt;stroke-linejoin:round;stroke-opacity:0"
     id="g355"
     transform="translate(-96.375,-127.5)">
    <path
       style="stroke:none"
       d="m 337.3751,343.75 h 57 V 385 h -57 z"
       id="path353" />
  </g>
  <g
     style="stroke-width:0.25;stroke-linecap:butt;stroke-linejoin:round"
     id="g359"
     transform="translate(-104.9209,-125.38095)">
    <path
       style="stroke:none"
       d="m 346.9219,373.6388 v -19.2657 h 14.6094 v 2.1407 h -12 v 6.1718 h 11.1875 v 2.1094 h -11.1875 v 6.7031 h 12.5625 v 2.1407 z m 26.2227,-17.125 v 17.125 h -2.5938 v -17.125 h -6.625 v -2.1407 h 15.8438 v 2.1407 z m 9.5566,17.125 v -19.2657 h 2.6094 v 17.125 h 9.7344 v 2.1407 z"
       id="path357" />
  </g>
  <g
     style="fill:#ffffff;fill-opacity:0;stroke:#ffffff;stroke-width:0.25;stroke-linecap:butt;stroke-linejoin:round;stroke-opacity:0"
     id="g363"
     transform="translate(-96.375,-127.5)">
    <path
       style="fill:none"
       d="m 337.3751,343.75 h 57 V 385 h -57 z"
       id="path361" />
  </g>
  <g
     style="fill:#ffffff;fill-opacity:0;stroke:#ffffff;stroke-width:2;stroke-linecap:butt;stroke-linejoin:round;stroke-opacity:0"
     id="g367"
     transform="translate(-96.375,-127.5)">
    <path
       style="stroke:none"
       d="M 369.25,213.375 V 239.75"
       id="path365" />
  </g>
  <g
     style="stroke-width:2;stroke-linecap:butt;stroke-linejoin:round"
     id="g373"
     transform="translate(-96.375,-127.5)">
    <path
       style="fill:none"
       d="M 369.25,213.375 V 239.75"
       id="path369" />
    <path
       style="fill:none"
       d="m 372.0625,231.3125 -2.8125,8.4375 -2.8125,-8.4375"
       id="path371" />
  </g>
  <g
     transform="matrix(1,0,0,-1,-96.375,676)"
     style="fill:#ffffff;fill-opacity:0;stroke:#ffffff;stroke-width:2;stroke-linecap:butt;stroke-linejoin:round;stroke-opacity:0"
     id="g377">
    <path
       style="stroke:none"
       d="m 365,388.625 0.125,26.25"
       id="path375" />
  </g>
  <g
     style="stroke-width:2;stroke-linecap:butt;stroke-linejoin:round"
     transform="matrix(1,0,0,-1,-96.375,676.0001)"
     id="g383">
    <path
       style="fill:none"
       d="m 365,388.625 0.125,26.25"
       id="path379" />
    <path
       style="fill:none"
       d="m 367.8973,406.4242 -2.7723,8.4508 -2.8526,-8.424"
       id="path381" />
  </g>
  <g
     style="fill:#1f497d;stroke:#1f497d;stroke-linecap:butt;stroke-linejoin:round"
     id="g387"
     transform="translate(-96.375,-127.5)">
    <path
       style="stroke:none"
       d="m 125.375,244.625 h 119 v 65 h -119 z"
       id="path385" />
  </g>
  <g
     style="stroke-linecap:butt;stroke-linejoin:round"
     id="g391"
     transform="translate(-96.375,-127.5)">
    <path
       style="fill:none"
       d="m 125.375,244.625 h 119 v 65 h -119 z"
       id="path389" />
  </g>
  <g
     style="fill:#ffffff;fill-opacity:0;stroke:#ffffff;stroke-width:0.25;stroke-linecap:butt;stroke-linejoin:round;stroke-opacity:0"
     id="g395"
     transform="translate(-96.375,-127.5)">
    <path
       style="stroke:none"
       d="m 136,261.5 h 95.4228 v 31.5553 H 136 Z"
       id="path393" />
  </g>
  <g
     style="fill:#ffffff;stroke:#ffffff;stroke-width:0.25;stroke-linecap:butt;stroke-linejoin:round"
     id="g399"
     transform="translate(-96.375,-127.5)">
    <path
       style="stroke:none"
       d="m 150.75,283.8848 v -6.7031 q 0,-1.5313 -0.4219,-2.1094 -0.4219,-0.5938 -1.5156,-0.5938 -1.125,0 -1.7813,0.8594 -0.6406,0.8594 -0.6406,2.4219 v 6.125 h -1.75 v -8.3125 q 0,-1.8438 -0.0625,-2.25 h 1.6563 q 0.0156,0.0469 0.0156,0.2656 0.0156,0.2031 0.0312,0.4844 0.0157,0.2812 0.0313,1.0469 h 0.0313 q 0.5624,-1.125 1.2968,-1.5625 0.7344,-0.4375 1.7969,-0.4375 1.2031,0 1.8906,0.4843 0.7031,0.4688 0.9688,1.5157 h 0.0312 q 0.5469,-1.0625 1.3281,-1.5313 0.7813,-0.4687 1.875,-0.4687 1.6094,0 2.3282,0.875 0.7344,0.8593 0.7344,2.8437 v 7.0469 h -1.7344 v -6.7031 q 0,-1.5313 -0.4219,-2.1094 -0.4219,-0.5938 -1.5156,-0.5938 -1.1563,0 -1.7969,0.8594 -0.6406,0.8438 -0.6406,2.4219 v 6.125 z m 11.8633,-4.9063 q 0,1.8125 0.75,2.7969 0.75,0.9844 2.1875,0.9844 1.1406,0 1.8281,-0.4531 0.7031,-0.4688 0.9375,-1.1719 l 1.5469,0.4375 q -0.9531,2.5156 -4.3125,2.5156 -2.3438,0 -3.5781,-1.3906 -1.2188,-1.4063 -1.2188,-4.1719 0,-2.6094 1.2188,-4 1.2343,-1.4062 3.5156,-1.4062 4.6562,0 4.6562,5.625 v 0.2343 z m 5.7187,-1.3593 q -0.1562,-1.6719 -0.8593,-2.4375 -0.7032,-0.7657 -2.0157,-0.7657 -1.2812,0 -2.0312,0.8594 -0.7344,0.8594 -0.7969,2.3438 z m 8.1075,6.1875 q -0.8594,0.2343 -1.7657,0.2343 -2.1093,0 -2.1093,-2.3906 v -7.0469 h -1.2344 v -1.2812 h 1.2969 l 0.5156,-2.375 h 1.1719 v 2.375 h 1.9531 v 1.2812 h -1.9531 v 6.6563 q 0,0.7656 0.25,1.0781 0.25,0.3125 0.8593,0.3125 0.3594,0 1.0157,-0.1406 z m 4.1972,0.2812 q -1.5937,0 -2.4062,-0.8437 -0.7969,-0.8438 -0.7969,-2.3125 0,-1.6407 1.0781,-2.5157 1.0938,-0.875 3.4844,-0.9375 l 2.375,-0.0468 v -0.5625 q 0,-1.2969 -0.5469,-1.8438 -0.5469,-0.5625 -1.7187,-0.5625 -1.1719,0 -1.7188,0.4063 -0.5312,0.3906 -0.6406,1.2656 l -1.8438,-0.1563 q 0.4532,-2.8593 4.25,-2.8593 1.9844,0 2.9844,0.9218 1.0156,0.9063 1.0156,2.6407 v 4.5468 q 0,0.7813 0.2032,1.1875 0.2031,0.3907 0.7812,0.3907 0.25,0 0.5781,-0.0782 v 1.0938 q -0.6718,0.1562 -1.3593,0.1562 -0.9688,0 -1.4219,-0.5 -0.4375,-0.5156 -0.5,-1.6093 h -0.0625 q -0.6719,1.2031 -1.5625,1.7187 -0.8906,0.5 -2.1719,0.5 z m 0.3906,-1.3281 q 0.9688,0 1.7188,-0.4375 0.7656,-0.4375 1.1875,-1.2031 0.4375,-0.7657 0.4375,-1.5782 v -0.875 l -1.9219,0.0469 q -1.2344,0.0156 -1.875,0.25 -0.6406,0.2344 -0.9844,0.7188 -0.3437,0.4843 -0.3437,1.2812 0,0.8594 0.4531,1.3281 0.4688,0.4688 1.3281,0.4688 z m 14.7012,-0.5781 q -0.4844,1.0156 -1.2969,1.4687 -0.7968,0.4375 -1.9843,0.4375 -2.0157,0 -2.9532,-1.3437 -0.9375,-1.3594 -0.9375,-4.0938 0,-5.5312 3.8907,-5.5312 1.1875,0 1.9843,0.4375 0.8125,0.4375 1.2969,1.4062 h 0.0156 l -0.0156,-1.1875 v -4.3906 h 1.7656 v 12.3281 q 0,1.6406 0.0469,2.1719 h -1.6719 q -0.0312,-0.1563 -0.0625,-0.7188 -0.0312,-0.5781 -0.0312,-0.9843 z m -5.3281,-3.5938 q 0,2.2188 0.5781,3.1875 0.5938,0.9531 1.9063,0.9531 1.5,0 2.1718,-1.0312 0.6719,-1.0469 0.6719,-3.2188 0,-2.1093 -0.6719,-3.0781 -0.6718,-0.9844 -2.1406,-0.9844 -1.3281,0 -1.9219,0.9844 -0.5937,0.9844 -0.5937,3.1875 z m 12.4824,5.5 q -1.5937,0 -2.4062,-0.8437 -0.7969,-0.8438 -0.7969,-2.3125 0,-1.6407 1.0781,-2.5157 1.0938,-0.875 3.4844,-0.9375 l 2.375,-0.0468 v -0.5625 q 0,-1.2969 -0.5469,-1.8438 -0.5469,-0.5625 -1.7187,-0.5625 -1.1719,0 -1.7188,0.4063 -0.5312,0.3906 -0.6406,1.2656 l -1.8438,-0.1563 q 0.4532,-2.8593 4.25,-2.8593 1.9844,0 2.9844,0.9218 1.0156,0.9063 1.0156,2.6407 v 4.5468 q 0,0.7813 0.2032,1.1875 0.2031,0.3907 0.7812,0.3907 0.25,0 0.5781,-0.0782 v 1.0938 q -0.6718,0.1562 -1.3593,0.1562 -0.9688,0 -1.4219,-0.5 -0.4375,-0.5156 -0.5,-1.6093 h -0.0625 q -0.6719,1.2031 -1.5625,1.7187 -0.8906,0.5 -2.1719,0.5 z m 0.3906,-1.3281 q 0.9688,0 1.7188,-0.4375 0.7656,-0.4375 1.1875,-1.2031 0.4375,-0.7657 0.4375,-1.5782 v -0.875 l -1.9219,0.0469 q -1.2344,0.0156 -1.875,0.25 -0.6406,0.2344 -0.9844,0.7188 -0.3437,0.4843 -0.3437,1.2812 0,0.8594 0.4531,1.3281 0.4688,0.4688 1.3281,0.4688 z m 12.0918,1.0469 q -0.8593,0.2343 -1.7656,0.2343 -2.1094,0 -2.1094,-2.3906 v -7.0469 h -1.2343 v -1.2812 h 1.2968 l 0.5157,-2.375 h 1.1718 v 2.375 h 1.9532 v 1.2812 h -1.9532 v 6.6563 q 0,0.7656 0.25,1.0781 0.25,0.3125 0.8594,0.3125 0.3594,0 1.0156,-0.1406 z m 4.1973,0.2812 q -1.5937,0 -2.4063,-0.8437 -0.7968,-0.8438 -0.7968,-2.3125 0,-1.6407 1.0781,-2.5157 1.0937,-0.875 3.4844,-0.9375 l 2.375,-0.0468 v -0.5625 q 0,-1.2969 -0.5469,-1.8438 -0.5469,-0.5625 -1.7188,-0.5625 -1.1718,0 -1.7187,0.4063 -0.5313,0.3906 -0.6406,1.2656 l -1.8438,-0.1563 q 0.4531,-2.8593 4.25,-2.8593 1.9844,0 2.9844,0.9218 1.0156,0.9063 1.0156,2.6407 v 4.5468 q 0,0.7813 0.2031,1.1875 0.2032,0.3907 0.7813,0.3907 0.25,0 0.5781,-0.0782 v 1.0938 q -0.6718,0.1562 -1.3594,0.1562 -0.9687,0 -1.4218,-0.5 -0.4375,-0.5156 -0.5,-1.6093 h -0.0625 q -0.6719,1.2031 -1.5625,1.7187 -0.8906,0.5 -2.1719,0.5 z m 0.3906,-1.3281 q 0.9688,0 1.7188,-0.4375 0.7656,-0.4375 1.1875,-1.2031 0.4375,-0.7657 0.4375,-1.5782 v -0.875 l -1.9219,0.0469 q -1.2344,0.0156 -1.875,0.25 -0.6406,0.2344 -0.9844,0.7188 -0.3437,0.4843 -0.3437,1.2812 0,0.8594 0.4531,1.3281 0.4688,0.4688 1.3281,0.4688 z"
       id="path397" />
  </g>
  <g
     style="fill:#ffffff;fill-opacity:0;stroke:#ffffff;stroke-width:0.25;stroke-linecap:butt;stroke-linejoin:round;stroke-opacity:0"
     id="g403"
     transform="translate(-96.375,-127.5)">
    <path
       style="fill:none"
       d="m 136,261.5 h 95.4228 v 31.5553 H 136 Z"
       id="path401" />
  </g>
  <g
     style="fill:#ffffff;fill-opacity:0;stroke:#ffffff;stroke-width:6.75;stroke-linecap:butt;stroke-linejoin:round;stroke-opacity:0"
     id="g407"
     transform="translate(-96.375,-127.5)">
    <path
       style="stroke:none"
       d="m 244.875,280.125 h 48"
       id="path405" />
  </g>
  <g
     style="stroke-width:6.75;stroke-linecap:butt;stroke-linejoin:round"
     id="g419"
     transform="translate(-96.375,-127.5)">
    <path
       style="fill:none"
       d="m 244.875,280.125 h 48"
       id="path409" />
    <path
       style="stroke:none"
       d="M 255,275.0625 244.875,280.125 255,285.1875 Z"
       id="path411" />
    <path
       style="fill:none"
       d="M 255,275.0625 244.875,280.125 255,285.1875 Z"
       id="path413" />
    <path
       style="stroke:none"
       d="m 282.75,275.0625 10.125,5.0625 -10.125,5.0625 z"
       id="path415" />
    <path
       style="fill:none"
       d="m 282.75,275.0625 10.125,5.0625 -10.125,5.0625 z"
       id="path417" />
  </g>
</svg>
