<?xml version="1.0" encoding="UTF-8" standalone="no"?>
<svg
   style="font-style:normal;font-weight:normal;font-size:12px;font-family:Dialog;color-interpolation:auto;fill:#000000;fill-opacity:1;stroke:#000000;stroke-width:1;stroke-linecap:square;stroke-linejoin:miter;stroke-miterlimit:10;stroke-dasharray:none;stroke-dashoffset:0;stroke-opacity:1;color-rendering:auto;image-rendering:auto;shape-rendering:auto;text-rendering:auto"
   width="685.6192"
   viewBox="0 65.875039 685.32232 407.17516"
   height="407.92664"
   version="1.1"
   id="svg383"
   sodipodi:docname="fig_101.svg"
   inkscape:version="1.2.2 (b0a8486541, 2022-12-01)"
   xmlns:inkscape="http://www.inkscape.org/namespaces/inkscape"
   xmlns:sodipodi="http://sodipodi.sourceforge.net/DTD/sodipodi-0.dtd"
   xmlns="http://www.w3.org/2000/svg"
   xmlns:svg="http://www.w3.org/2000/svg">
  <sodipodi:namedview
     id="namedview385"
     pagecolor="#ffffff"
     bordercolor="#666666"
     borderopacity="1.0"
     inkscape:showpageshadow="2"
     inkscape:pageopacity="0.0"
     inkscape:pagecheckerboard="0"
     inkscape:deskcolor="#d1d1d1"
     showgrid="false"
     inkscape:zoom="1.9873684"
     inkscape:cx="335.87129"
     inkscape:cy="240.26748"
     inkscape:window-width="2560"
     inkscape:window-height="1383"
     inkscape:window-x="1920"
     inkscape:window-y="0"
     inkscape:window-maximized="1"
     inkscape:current-layer="svg383" />
  <!--Generated by the Batik Graphics2D SVG Generator-->
  <defs
     id="genericDefs" />
  <g
     style="fill:#ccecff;stroke:#ccecff;stroke-width:0.795755;stroke-linecap:butt;stroke-linejoin:round"
     id="g5"
     transform="matrix(1,0,0,0.88830745,-13.75,35.893671)">
    <path
       style="stroke:none;stroke-width:0.795755"
       d="M 19.75,321 H 132 v 94.5646 H 19.75 Z"
       id="path3" />
  </g>
  <text
     x="13.25"
     xml:space="preserve"
     y="341.54916"
     style="font-size:18px;font-family:SansSerif;stroke:none;stroke-width:0.75;stroke-linecap:butt;stroke-linejoin:round"
     id="text7">branch_key</text>
  <text
     x="13.25"
     xml:space="preserve"
     y="366.06189"
     style="font-style:normal;font-variant:normal;font-weight:normal;font-stretch:normal;font-size:18px;font-family:SansSerif;-inkscape-font-specification:'SansSerif, Normal';font-variant-ligatures:normal;font-variant-caps:normal;font-variant-numeric:normal;font-variant-east-asian:normal;stroke:none;stroke-width:0.75;stroke-linecap:butt;stroke-linejoin:round"
     id="text9"><tspan
       sodipodi:role="line"
       id="tspan2150"
       x="13.25"
       y="366.06189">branch_name</tspan></text>
  <text
     x="13.25"
     xml:space="preserve"
     y="389.6456"
     style="font-style:normal;font-variant:normal;font-weight:normal;font-stretch:normal;font-size:18px;font-family:SansSerif;-inkscape-font-specification:'SansSerif, Normal';font-variant-ligatures:normal;font-variant-caps:normal;font-variant-numeric:normal;font-variant-east-asian:normal;stroke:none;stroke-width:0.75;stroke-linecap:butt;stroke-linejoin:round"
     id="text13"><tspan
       sodipodi:role="line"
       id="tspan2152"
       x="13.25"
       y="389.6456">branch_type</tspan></text>
  <g
     style="fill:#ffffff;fill-opacity:0;stroke:#ffffff;stroke-width:0.75;stroke-linecap:butt;stroke-linejoin:round;stroke-opacity:0"
     id="g21"
     transform="translate(-13.75,0.04036064)">
    <path
       style="fill:none"
       d="M 19.75,321 H 132 v 94.5646 H 19.75 Z"
       id="path19" />
  </g>
  <g
     style="fill:#008000;stroke:#008000;stroke-width:0.714476;stroke-linecap:butt;stroke-linejoin:round"
     id="g25"
     transform="matrix(1,0,0,1.1019121,-13.75,-11.373799)">
    <path
       style="stroke:none;stroke-width:0.714476"
       d="M 14.125,112 H 161.3035 V 250.1865 H 14.125 Z"
       id="path23" />
  </g>
  <g
     style="font-size:18px;font-family:SansSerif;fill:#ffffff;stroke:#ffffff;stroke-width:0.75;stroke-linecap:butt;stroke-linejoin:round"
     id="g39"
     transform="translate(-13.75,0.04036064)">
    <text
       x="21.375"
       xml:space="preserve"
       y="132.5088"
       style="stroke:none"
       id="text27">time_key</text>
    <text
       x="21.375"
       xml:space="preserve"
       y="157.0215"
       style="stroke:none"
       id="text29">day</text>
    <text
       x="21.375"
       xml:space="preserve"
       y="181.53419"
       style="stroke:none"
       id="text31">day_of_the_week</text>
    <text
       x="21.375"
       xml:space="preserve"
       y="206.04691"
       style="stroke:none"
       id="text33">month</text>
    <text
       x="21.375"
       xml:space="preserve"
       y="230.5596"
       style="stroke:none"
       id="text35">quarter</text>
    <text
       x="21.375"
       xml:space="preserve"
       y="255.0723"
       style="stroke:none"
       id="text37">year</text>
  </g>
  <g
     style="fill:#ffffff;fill-opacity:0;stroke:#ffffff;stroke-width:0.75;stroke-linecap:butt;stroke-linejoin:round;stroke-opacity:0"
     id="g43"
     transform="translate(-13.75,0.04036064)">
    <path
       style="fill:none"
       d="M 14.125,112 H 161.3035 V 250.1865 H 14.125 Z"
       id="path41" />
  </g>
  <g
     style="fill:#ff99cc;stroke:#ff99cc;stroke-width:0.75;stroke-linecap:butt;stroke-linejoin:round"
     id="g47"
     transform="translate(-13.75,0.04036064)">
    <path
       style="stroke:none"
       d="m 25.375,440.875 h 96 v 32 h -96 z"
       id="path45" />
  </g>
  <g
     style="font-size:20px;font-family:SansSerif;stroke-width:0.75;stroke-linecap:butt;stroke-linejoin:round"
     id="g51"
     transform="translate(-13.75,0.04036064)">
    <text
       x="32.625"
       xml:space="preserve"
       y="463.25989"
       style="stroke:none"
       id="text49">Míry</text>
  </g>
  <g
     style="fill:#ffffff;fill-opacity:0;stroke:#ffffff;stroke-width:0.75;stroke-linecap:butt;stroke-linejoin:round;stroke-opacity:0"
     id="g55"
     transform="translate(-13.75,0.04036064)">
    <path
       style="fill:none"
       d="m 25.375,440.875 h 96 v 32 h -96 z"
       id="path53" />
  </g>
  <g
     style="fill:#ffcc99;stroke:#ffcc99;stroke-width:0.713817;stroke-linecap:butt;stroke-linejoin:round"
     id="g59"
     transform="matrix(1,0,0,1.1039487,-13.75,-15.733853)">
    <path
       style="stroke:none;stroke-width:0.713817"
       d="M 428,151.75 H 541.5 V 267.875 H 428 Z"
       id="path57" />
  </g>
  <text
     x="421.5"
     xml:space="preserve"
     y="172.29916"
     style="font-size:18px;font-family:SansSerif;stroke:none;stroke-width:0.75;stroke-linecap:butt;stroke-linejoin:round"
     id="text61">item_key</text>
  <text
     x="421.5"
     xml:space="preserve"
     y="196.81186"
     style="font-size:18px;font-family:SansSerif;stroke:none;stroke-width:0.75;stroke-linecap:butt;stroke-linejoin:round"
     id="text63">item_name</text>
  <text
     x="421.5"
     xml:space="preserve"
     y="221.32455"
     style="font-size:18px;font-family:SansSerif;stroke:none;stroke-width:0.75;stroke-linecap:butt;stroke-linejoin:round"
     id="text65">brand</text>
  <text
     x="421.5"
     xml:space="preserve"
     y="245.83727"
     style="font-size:18px;font-family:SansSerif;stroke:none;stroke-width:0.75;stroke-linecap:butt;stroke-linejoin:round"
     id="text67">type</text>
  <text
     x="421.5"
     xml:space="preserve"
     y="270.34998"
     style="font-style:normal;font-variant:normal;font-weight:normal;font-stretch:normal;font-size:18px;font-family:SansSerif;-inkscape-font-specification:'SansSerif, Normal';font-variant-ligatures:normal;font-variant-caps:normal;font-variant-numeric:normal;font-variant-east-asian:normal;stroke:none;stroke-width:0.75;stroke-linecap:butt;stroke-linejoin:round"
     id="text69"><tspan
       sodipodi:role="line"
       id="tspan2143"
       x="421.5"
       y="270.34998">supplier_key</tspan></text>
  <g
     style="fill:#ffffff;fill-opacity:0;stroke:#ffffff;stroke-width:0.75;stroke-linecap:butt;stroke-linejoin:round;stroke-opacity:0"
     id="g77"
     transform="translate(-13.75,0.04036064)">
    <path
       style="fill:none"
       d="M 428,151.75 H 541.5 V 267.875 H 428 Z"
       id="path75" />
  </g>
  <g
     style="stroke-width:1.5;stroke-linecap:butt;stroke-linejoin:round"
     transform="matrix(-1,0,0,1,277.875,0.04036064)"
     id="g81">
    <path
       style="fill:none"
       d="M 73.375,344.5 218.25,440.875"
       id="path79" />
  </g>
  <g
     style="stroke-width:1.5;stroke-linecap:butt;stroke-linejoin:round"
     transform="matrix(-1,0,0,1,277.875,0.04036064)"
     id="g85">
    <path
       style="fill:none"
       d="M 73.375,378.5 218.25,440.875"
       id="path83" />
  </g>
  <g
     style="stroke-width:1.5;stroke-linecap:butt;stroke-linejoin:round"
     transform="matrix(-1,0,0,1,277.875,0.04036064)"
     id="g89">
    <path
       style="fill:none"
       d="M 73.375,412.5 218.25,440.875"
       id="path87" />
  </g>
  <g
     style="fill:#ccecff;stroke:#ccecff;stroke-width:0.75;stroke-linecap:butt;stroke-linejoin:round"
     id="g93"
     transform="translate(-13.75,0.04036064)">
    <path
       style="stroke:none"
       d="m 36.75,298.2293 c 0,-2.6119 2.1174,-4.7293 4.7293,-4.7293 h 69.9165 c 2.6119,0 4.7292,2.1174 4.7292,4.7293 v 18.9165 c 0,2.6119 -2.1173,4.7292 -4.7292,4.7292 H 41.4793 c -2.6119,0 -4.7293,-2.1173 -4.7293,-4.7292 z"
       id="path91" />
  </g>
  <g
     style="font-size:18px;font-family:SansSerif;stroke-width:0.75;stroke-linecap:butt;stroke-linejoin:round"
     id="g97"
     transform="translate(-13.75,0.04036064)">
    <text
       x="45.425301"
       xml:space="preserve"
       y="313.9278"
       style="stroke:none"
       id="text95">Odvětví</text>
  </g>
  <g
     style="fill:#ffffff;fill-opacity:0;stroke:#ffffff;stroke-width:0.75;stroke-linecap:butt;stroke-linejoin:round;stroke-opacity:0"
     id="g101"
     transform="translate(-13.75,0.04036064)">
    <path
       style="fill:none"
       d="m 36.75,298.2293 c 0,-2.6119 2.1174,-4.7293 4.7293,-4.7293 h 69.9165 c 2.6119,0 4.7292,2.1174 4.7292,4.7293 v 18.9165 c 0,2.6119 -2.1173,4.7292 -4.7292,4.7292 H 41.4793 c -2.6119,0 -4.7293,-2.1173 -4.7293,-4.7292 z"
       id="path99" />
  </g>
  <g
     style="fill:#008000;stroke:#008000;stroke-width:0.75;stroke-linecap:butt;stroke-linejoin:round"
     id="g105"
     transform="translate(-13.75,0.04036064)">
    <path
       style="stroke:none"
       d="m 49.625,82.9168 c 0,-3.1297 2.5371,-5.6668 5.6668,-5.6668 h 62.4165 c 3.1296,0 5.6667,2.5371 5.6667,5.6668 v 22.6664 c 0,3.1297 -2.5371,5.6668 -5.6667,5.6668 H 55.2918 c -3.1297,0 -5.6668,-2.5371 -5.6668,-5.6668 z"
       id="path103" />
  </g>
  <g
     style="font-size:18px;font-family:SansSerif;fill:#ffffff;stroke:#ffffff;stroke-width:0.75;stroke-linecap:butt;stroke-linejoin:round"
     id="g109"
     transform="translate(-13.75,0.04036064)">
    <text
       x="70.495201"
       xml:space="preserve"
       y="100.4902"
       style="stroke:none"
       id="text107">Čas</text>
  </g>
  <g
     style="fill:#ffffff;fill-opacity:0;stroke:#ffffff;stroke-width:0.75;stroke-linecap:butt;stroke-linejoin:round;stroke-opacity:0"
     id="g113"
     transform="translate(-13.75,0.04036064)">
    <path
       style="fill:none"
       d="m 49.625,82.9168 c 0,-3.1297 2.5371,-5.6668 5.6668,-5.6668 h 62.4165 c 3.1296,0 5.6667,2.5371 5.6667,5.6668 v 22.6664 c 0,3.1297 -2.5371,5.6668 -5.6667,5.6668 H 55.2918 c -3.1297,0 -5.6668,-2.5371 -5.6668,-5.6668 z"
       id="path111" />
  </g>
  <g
     id="g2160"
     transform="translate(-8.5503214)">
    <g
       style="fill:#ffcc99;stroke:#ffcc99;stroke-width:0.703341;stroke-linecap:butt;stroke-linejoin:round"
       id="g117"
       transform="matrix(1.1370791,0,0,1,-80.864328,0.04036064)">
      <path
         style="stroke:none;stroke-width:0.703341"
         d="m 460.25,128.9793 c 0,-2.6119 2.1174,-4.7293 4.7293,-4.7293 h 52.9165 c 2.6119,0 4.7293,2.1174 4.7293,4.7293 v 18.9165 c 0,2.6119 -2.1174,4.7292 -4.7293,4.7292 h -52.9165 c -2.6119,0 -4.7293,-2.1173 -4.7293,-4.7292 z"
         id="path115" />
    </g>
    <g
       style="font-size:18px;font-family:SansSerif;stroke-width:0.75;stroke-linecap:butt;stroke-linejoin:round"
       id="g121"
       transform="translate(-13.75,0.04036064)">
      <text
         x="459.41901"
         xml:space="preserve"
         y="144.6777"
         style="stroke:none"
         id="text119">Položka</text>
    </g>
    <g
       style="fill:#ffffff;fill-opacity:0;stroke:#ffffff;stroke-width:0.75;stroke-linecap:butt;stroke-linejoin:round;stroke-opacity:0"
       id="g125"
       transform="translate(-13.75,0.04036064)">
      <path
         style="fill:none"
         d="m 460.25,128.9793 c 0,-2.6119 2.1174,-4.7293 4.7293,-4.7293 h 52.9165 c 2.6119,0 4.7293,2.1174 4.7293,4.7293 v 18.9165 c 0,2.6119 -2.1174,4.7292 -4.7293,4.7292 h -52.9165 c -2.6119,0 -4.7293,-2.1173 -4.7293,-4.7292 z"
         id="path123" />
    </g>
  </g>
  <g
     style="fill:#cc0000;stroke:#cc0000;stroke-width:0.711732;stroke-linecap:butt;stroke-linejoin:round"
     id="g129"
     transform="matrix(1,0,0,1.1104269,-13.75,-41.521569)">
    <path
       style="stroke:none;stroke-width:0.711732"
       d="M 422.375,376.375 H 530.6251 V 449.25 H 422.375 Z"
       id="path127" />
  </g>
  <g
     style="font-size:18px;font-family:SansSerif;fill:#ffffff;stroke:#ffffff;stroke-width:0.75;stroke-linecap:butt;stroke-linejoin:round"
     id="g137"
     transform="translate(-13.75,0.04036064)">
    <text
       x="429.625"
       xml:space="preserve"
       y="396.88391"
       style="stroke:none"
       id="text131">location_key</text>
    <text
       x="429.625"
       xml:space="preserve"
       y="421.39651"
       style="stroke:none"
       id="text133">street</text>
    <text
       x="429.625"
       xml:space="preserve"
       y="445.90921"
       style="stroke:none"
       id="text135">city_key</text>
  </g>
  <g
     style="fill:#ffffff;fill-opacity:0;stroke:#ffffff;stroke-width:0.75;stroke-linecap:butt;stroke-linejoin:round;stroke-opacity:0"
     id="g141"
     transform="translate(-13.75,0.04036064)">
    <path
       style="fill:none"
       d="M 422.375,376.375 H 530.6251 V 449.25 H 422.375 Z"
       id="path139" />
  </g>
  <g
     id="g2168"
     transform="translate(-4.5266408)">
    <g
       style="fill:#cc0000;stroke:#cc0000;stroke-width:0.75;stroke-linecap:butt;stroke-linejoin:round"
       id="g145"
       transform="translate(-13.75,0.04036064)">
      <path
         style="stroke:none"
         d="m 439.375,354.0835 c 0,-2.6004 2.1081,-4.7085 4.7085,-4.7085 h 71.0831 c 2.6004,0 4.7085,2.1081 4.7085,4.7085 v 18.8331 c 0,2.6004 -2.1081,4.7084 -4.7085,4.7084 h -71.0831 c -2.6004,0 -4.7085,-2.108 -4.7085,-4.7084 z"
         id="path143" />
    </g>
    <g
       style="font-size:18px;font-family:SansSerif;fill:#ffffff;stroke:#ffffff;stroke-width:0.75;stroke-linecap:butt;stroke-linejoin:round"
       id="g149"
       transform="translate(-13.75,0.04036064)">
      <text
         x="443.61621"
         xml:space="preserve"
         y="369.7403"
         style="stroke:none"
         id="text147">Umístění</text>
    </g>
    <g
       style="fill:#ffffff;fill-opacity:0;stroke:#ffffff;stroke-width:0.75;stroke-linecap:butt;stroke-linejoin:round;stroke-opacity:0"
       id="g153"
       transform="translate(-13.75,0.04036064)">
      <path
         style="fill:none"
         d="m 439.375,354.0835 c 0,-2.6004 2.1081,-4.7085 4.7085,-4.7085 h 71.0831 c 2.6004,0 4.7085,2.1081 4.7085,4.7085 v 18.8331 c 0,2.6004 -2.1081,4.7084 -4.7085,4.7084 h -71.0831 c -2.6004,0 -4.7085,-2.108 -4.7085,-4.7084 z"
         id="path151" />
    </g>
  </g>
  <g
     style="stroke-width:4.5;stroke-linecap:butt;stroke-linejoin:round;stroke-dasharray:4.5, 4.5"
     transform="rotate(180,182.90175,194.78563)"
     id="g161">
    <path
       style="fill:none"
       d="M 161.3035,181.0933 218.25,208.4376"
       id="path155" />
    <path
       style="stroke:none"
       d="m 211.314,199.4912 6.936,8.9464 -11.3186,0.1809 z"
       id="path157" />
    <path
       style="fill:none"
       d="m 211.314,199.4912 6.936,8.9464 -11.3186,0.1809 z"
       id="path159" />
  </g>
  <g
     style="stroke-width:4.5;stroke-linecap:butt;stroke-linejoin:round;stroke-dasharray:4.5, 4.5"
     transform="matrix(-1,0,0,1,336.5,0.04036064)"
     id="g169">
    <path
       style="fill:none"
       d="m 132,276.4376 86.25,91.8447"
       id="path163" />
    <path
       style="stroke:none"
       d="m 215.0092,357.4361 3.2408,10.8462 -10.6215,-3.9151 z"
       id="path165" />
    <path
       style="fill:none"
       d="m 215.0092,357.4361 3.2408,10.8462 -10.6215,-3.9151 z"
       id="path167" />
  </g>
  <g
     style="fill:#ffffff;fill-opacity:0;stroke:#ffffff;stroke-width:0.25;stroke-linecap:butt;stroke-linejoin:round;stroke-opacity:0"
     id="g173"
     transform="translate(-13.75,0.04036064)">
    <path
       style="stroke:none"
       d="m 221.295,116.9121 h 155.7148 v 55.7896 H 221.295 Z"
       id="path171" />
  </g>
  <g
     style="font-size:20px;font-family:SansSerif;stroke-width:0.25;stroke-linecap:butt;stroke-linejoin:round"
     id="g179"
     transform="translate(-13.75,0.04036064)">
    <text
       x="232.4483"
       xml:space="preserve"
       y="139.29691"
       style="stroke:none"
       id="text175">Relace faktů o </text>
    <text
       x="269.13281"
       xml:space="preserve"
       y="162.295"
       style="stroke:none"
       id="text177">prodeji</text>
  </g>
  <g
     style="fill:#ffffff;fill-opacity:0;stroke:#ffffff;stroke-width:0.25;stroke-linecap:butt;stroke-linejoin:round;stroke-opacity:0"
     id="g183"
     transform="translate(-13.75,0.04036064)">
    <path
       style="fill:none"
       d="m 221.295,116.9121 h 155.7148 v 55.7896 H 221.295 Z"
       id="path181" />
  </g>
  <g
     style="fill:#4f81bd;stroke:#4f81bd;stroke-width:0.75;stroke-linecap:butt;stroke-linejoin:round"
     id="g187"
     transform="translate(-13.75,0.04036064)">
    <path
       style="stroke:none"
       d="m 218.25,401.0626 c 0,-3.1412 2.5464,-5.6876 5.6876,-5.6876 h 133.3748 c 3.1412,0 5.6876,2.5464 5.6876,5.6876 v 22.7497 c 0,3.1413 -2.5464,5.6877 -5.6876,5.6877 H 223.9376 c -3.1412,0 -5.6876,-2.5464 -5.6876,-5.6877 z"
       id="path185" />
  </g>
  <g
     style="font-size:18px;font-family:SansSerif;fill:#ffffff;stroke:#ffffff;stroke-width:0.75;stroke-linecap:butt;stroke-linejoin:round"
     id="g191"
     transform="translate(-13.75,0.04036064)">
    <text
       x="249.1011"
       xml:space="preserve"
       y="418.6777"
       style="stroke:none"
       id="text189">Avg_sales</text>
  </g>
  <g
     style="fill:#ffffff;fill-opacity:0;stroke:#ffffff;stroke-width:0.75;stroke-linecap:butt;stroke-linejoin:round;stroke-opacity:0"
     id="g195"
     transform="translate(-13.75,0.04036064)">
    <path
       style="fill:none"
       d="m 218.25,401.0626 c 0,-3.1412 2.5464,-5.6876 5.6876,-5.6876 h 133.3748 c 3.1412,0 5.6876,2.5464 5.6876,5.6876 v 22.7497 c 0,3.1413 -2.5464,5.6877 -5.6876,5.6877 H 223.9376 c -3.1412,0 -5.6876,-2.5464 -5.6876,-5.6877 z"
       id="path193" />
  </g>
  <g
     style="fill:#4f81bd;stroke:#4f81bd;stroke-width:0.75;stroke-linecap:butt;stroke-linejoin:round"
     id="g199"
     transform="translate(-13.75,0.04036064)">
    <path
       style="stroke:none"
       d="m 218.25,367.0626 c 0,-3.1412 2.5464,-5.6876 5.6876,-5.6876 h 133.3748 c 3.1412,0 5.6876,2.5464 5.6876,5.6876 v 22.7498 c 0,3.1412 -2.5464,5.6876 -5.6876,5.6876 H 223.9376 c -3.1412,0 -5.6876,-2.5464 -5.6876,-5.6876 z"
       id="path197" />
  </g>
  <g
     style="font-size:18px;font-family:SansSerif;fill:#ffffff;stroke:#ffffff;stroke-width:0.75;stroke-linecap:butt;stroke-linejoin:round"
     id="g203"
     transform="translate(-13.75,0.04036064)">
    <text
       x="245.5986"
       xml:space="preserve"
       y="384.6777"
       style="stroke:none"
       id="text201">Euros_sold</text>
  </g>
  <g
     style="fill:#ffffff;fill-opacity:0;stroke:#ffffff;stroke-width:0.75;stroke-linecap:butt;stroke-linejoin:round;stroke-opacity:0"
     id="g207"
     transform="translate(-13.75,0.04036064)">
    <path
       style="fill:none"
       d="m 218.25,367.0626 c 0,-3.1412 2.5464,-5.6876 5.6876,-5.6876 h 133.3748 c 3.1412,0 5.6876,2.5464 5.6876,5.6876 v 22.7498 c 0,3.1412 -2.5464,5.6876 -5.6876,5.6876 H 223.9376 c -3.1412,0 -5.6876,-2.5464 -5.6876,-5.6876 z"
       id="path205" />
  </g>
  <g
     style="fill:#4f81bd;stroke:#4f81bd;stroke-width:0.75;stroke-linecap:butt;stroke-linejoin:round"
     id="g211"
     transform="translate(-13.75,0.04036064)">
    <path
       style="stroke:none"
       d="m 218.25,333.0626 c 0,-3.1412 2.5464,-5.6876 5.6876,-5.6876 h 133.3748 c 3.1412,0 5.6876,2.5464 5.6876,5.6876 v 22.7498 c 0,3.1412 -2.5464,5.6876 -5.6876,5.6876 H 223.9376 c -3.1412,0 -5.6876,-2.5464 -5.6876,-5.6876 z"
       id="path209" />
  </g>
  <g
     style="font-size:18px;font-family:SansSerif;fill:#ffffff;stroke:#ffffff;stroke-width:0.75;stroke-linecap:butt;stroke-linejoin:round"
     id="g215"
     transform="translate(-13.75,0.04036064)">
    <text
       x="253.10451"
       xml:space="preserve"
       y="350.6777"
       style="stroke:none"
       id="text213">Unit_sold</text>
  </g>
  <g
     style="fill:#ffffff;fill-opacity:0;stroke:#ffffff;stroke-width:0.75;stroke-linecap:butt;stroke-linejoin:round;stroke-opacity:0"
     id="g219"
     transform="translate(-13.75,0.04036064)">
    <path
       style="fill:none"
       d="m 218.25,333.0626 c 0,-3.1412 2.5464,-5.6876 5.6876,-5.6876 h 133.3748 c 3.1412,0 5.6876,2.5464 5.6876,5.6876 v 22.7498 c 0,3.1412 -2.5464,5.6876 -5.6876,5.6876 H 223.9376 c -3.1412,0 -5.6876,-2.5464 -5.6876,-5.6876 z"
       id="path217" />
  </g>
  <g
     style="fill:#4f81bd;stroke:#4f81bd;stroke-width:0.75;stroke-linecap:butt;stroke-linejoin:round"
     id="g223"
     transform="translate(-13.75,0.04036064)">
    <path
       style="stroke:none"
       d="m 218.25,299.0626 c 0,-3.1412 2.5464,-5.6876 5.6876,-5.6876 h 133.3748 c 3.1412,0 5.6876,2.5464 5.6876,5.6876 v 22.7498 c 0,3.1412 -2.5464,5.6876 -5.6876,5.6876 H 223.9376 c -3.1412,0 -5.6876,-2.5464 -5.6876,-5.6876 z"
       id="path221" />
  </g>
  <g
     style="font-size:18px;font-family:SansSerif;fill:#ffffff;stroke:#ffffff;stroke-width:0.75;stroke-linecap:butt;stroke-linejoin:round"
     id="g227"
     transform="translate(-13.75,0.04036064)">
    <text
       x="237.5874"
       xml:space="preserve"
       y="316.6778"
       style="stroke:none"
       id="text225">Location_key</text>
  </g>
  <g
     style="fill:#ffffff;fill-opacity:0;stroke:#ffffff;stroke-width:0.75;stroke-linecap:butt;stroke-linejoin:round;stroke-opacity:0"
     id="g231"
     transform="translate(-13.75,0.04036064)">
    <path
       style="fill:none"
       d="m 218.25,299.0626 c 0,-3.1412 2.5464,-5.6876 5.6876,-5.6876 h 133.3748 c 3.1412,0 5.6876,2.5464 5.6876,5.6876 v 22.7498 c 0,3.1412 -2.5464,5.6876 -5.6876,5.6876 H 223.9376 c -3.1412,0 -5.6876,-2.5464 -5.6876,-5.6876 z"
       id="path229" />
  </g>
  <g
     style="fill:#4f81bd;stroke:#4f81bd;stroke-width:0.75;stroke-linecap:butt;stroke-linejoin:round"
     id="g235"
     transform="translate(-13.75,0.04036064)">
    <path
       style="stroke:none"
       d="m 218.25,265.0626 c 0,-3.1412 2.5464,-5.6876 5.6876,-5.6876 h 133.3748 c 3.1412,0 5.6876,2.5464 5.6876,5.6876 v 22.7498 c 0,3.1412 -2.5464,5.6876 -5.6876,5.6876 H 223.9376 c -3.1412,0 -5.6876,-2.5464 -5.6876,-5.6876 z"
       id="path233" />
  </g>
  <g
     style="font-size:18px;font-family:SansSerif;fill:#ffffff;stroke:#ffffff;stroke-width:0.75;stroke-linecap:butt;stroke-linejoin:round"
     id="g239"
     transform="translate(-13.75,0.04036064)">
    <text
       x="243.0981"
       xml:space="preserve"
       y="282.6778"
       style="stroke:none"
       id="text237">Branch_key</text>
  </g>
  <g
     style="fill:#ffffff;fill-opacity:0;stroke:#ffffff;stroke-width:0.75;stroke-linecap:butt;stroke-linejoin:round;stroke-opacity:0"
     id="g243"
     transform="translate(-13.75,0.04036064)">
    <path
       style="fill:none"
       d="m 218.25,265.0626 c 0,-3.1412 2.5464,-5.6876 5.6876,-5.6876 h 133.3748 c 3.1412,0 5.6876,2.5464 5.6876,5.6876 v 22.7498 c 0,3.1412 -2.5464,5.6876 -5.6876,5.6876 H 223.9376 c -3.1412,0 -5.6876,-2.5464 -5.6876,-5.6876 z"
       id="path241" />
  </g>
  <g
     style="fill:#4f81bd;stroke:#4f81bd;stroke-width:0.75;stroke-linecap:butt;stroke-linejoin:round"
     id="g247"
     transform="translate(-13.75,0.04036064)">
    <path
       style="stroke:none"
       d="m 218.25,231.0626 c 0,-3.1411 2.5464,-5.6876 5.6876,-5.6876 h 133.3748 c 3.1412,0 5.6876,2.5465 5.6876,5.6876 v 22.7498 c 0,3.1412 -2.5464,5.6876 -5.6876,5.6876 H 223.9376 c -3.1412,0 -5.6876,-2.5464 -5.6876,-5.6876 z"
       id="path245" />
  </g>
  <g
     style="font-size:18px;font-family:SansSerif;fill:#ffffff;stroke:#ffffff;stroke-width:0.75;stroke-linecap:butt;stroke-linejoin:round"
     id="g251"
     transform="translate(-13.75,0.04036064)">
    <text
       x="254.11079"
       xml:space="preserve"
       y="248.6778"
       style="stroke:none"
       id="text249">Item_key</text>
  </g>
  <g
     style="fill:#ffffff;fill-opacity:0;stroke:#ffffff;stroke-width:0.75;stroke-linecap:butt;stroke-linejoin:round;stroke-opacity:0"
     id="g255"
     transform="translate(-13.75,0.04036064)">
    <path
       style="fill:none"
       d="m 218.25,231.0626 c 0,-3.1411 2.5464,-5.6876 5.6876,-5.6876 h 133.3748 c 3.1412,0 5.6876,2.5465 5.6876,5.6876 v 22.7498 c 0,3.1412 -2.5464,5.6876 -5.6876,5.6876 H 223.9376 c -3.1412,0 -5.6876,-2.5464 -5.6876,-5.6876 z"
       id="path253" />
  </g>
  <g
     style="fill:#4f81bd;stroke:#4f81bd;stroke-width:0.75;stroke-linecap:butt;stroke-linejoin:round"
     id="g259"
     transform="translate(-13.75,0.04036064)">
    <path
       style="stroke:none"
       d="m 218.25,197.0627 c 0,-3.1412 2.5464,-5.6877 5.6876,-5.6877 h 133.3748 c 3.1412,0 5.6876,2.5465 5.6876,5.6877 v 22.7497 c 0,3.1412 -2.5464,5.6876 -5.6876,5.6876 H 223.9376 c -3.1412,0 -5.6876,-2.5464 -5.6876,-5.6876 z"
       id="path257" />
  </g>
  <g
     style="font-size:18px;font-family:SansSerif;fill:#ffffff;stroke:#ffffff;stroke-width:0.75;stroke-linecap:butt;stroke-linejoin:round"
     id="g263"
     transform="translate(-13.75,0.04036064)">
    <text
       x="251.6147"
       xml:space="preserve"
       y="214.6778"
       style="stroke:none"
       id="text261">Time_key</text>
  </g>
  <g
     style="fill:#ffffff;fill-opacity:0;stroke:#ffffff;stroke-width:0.75;stroke-linecap:butt;stroke-linejoin:round;stroke-opacity:0"
     id="g267"
     transform="translate(-13.75,0.04036064)">
    <path
       style="fill:none"
       d="m 218.25,197.0627 c 0,-3.1412 2.5464,-5.6877 5.6876,-5.6877 h 133.3748 c 3.1412,0 5.6876,2.5465 5.6876,5.6877 v 22.7497 c 0,3.1412 -2.5464,5.6876 -5.6876,5.6876 H 223.9376 c -3.1412,0 -5.6876,-2.5464 -5.6876,-5.6876 z"
       id="path265" />
  </g>
  <g
     style="stroke-width:4.5;stroke-linecap:butt;stroke-linejoin:round;stroke-dasharray:4.5, 4.5"
     id="g275"
     transform="translate(-13.75,0.04036064)">
    <path
       style="fill:none"
       d="m 363,310.5 59.375,102.375"
       id="path269" />
    <path
       style="stroke:none"
       d="m 421.6746,401.5766 0.7004,11.2984 -9.459,-6.2186 z"
       id="path271" />
    <path
       style="fill:none"
       d="m 421.6746,401.5766 0.7004,11.2984 -9.459,-6.2186 z"
       id="path273" />
  </g>
  <g
     style="stroke-width:4.5;stroke-linecap:butt;stroke-linejoin:round;stroke-dasharray:4.5, 4.5"
     transform="matrix(1,0,0,-1,-13.75,452.41536)"
     id="g283">
    <path
       style="fill:none"
       d="M 363,209.875 428,242.5"
       id="path277" />
    <path
       style="stroke:none"
       d="M 421.2219,233.4335 428,242.5 416.6799,242.4826 Z"
       id="path279" />
    <path
       style="fill:none"
       d="M 421.2219,233.4335 428,242.5 416.6799,242.4826 Z"
       id="path281" />
  </g>
  <g
     style="fill:#ffcc99;stroke:#ffcc99;stroke-width:0.75;stroke-linecap:butt;stroke-linejoin:round"
     id="g287"
     transform="translate(-13.75,0.04036064)">
    <path
       style="stroke:none"
       d="m 581.127,99.875 h 116.2492 v 50.9428 H 581.127 Z"
       id="path285" />
  </g>
  <g
     style="font-size:18px;font-family:SansSerif;stroke-width:0.75;stroke-linecap:butt;stroke-linejoin:round"
     id="g293"
     transform="translate(-13.75,0.04036064)">
    <text
       x="588.37701"
       xml:space="preserve"
       y="120.3839"
       style="stroke:none"
       id="text289">supplier_key</text>
    <text
       x="588.37701"
       xml:space="preserve"
       y="144.89661"
       style="stroke:none"
       id="text291">supplier_type</text>
  </g>
  <g
     style="fill:#ffffff;fill-opacity:0;stroke:#ffffff;stroke-width:0.75;stroke-linecap:butt;stroke-linejoin:round;stroke-opacity:0"
     id="g297"
     transform="translate(-13.75,0.04036064)">
    <path
       style="fill:none"
       d="m 581.127,99.875 h 116.2492 v 50.9428 H 581.127 Z"
       id="path295" />
  </g>
  <g
     style="fill:#cc0000;stroke:#cc0000;stroke-width:0.711039;stroke-linecap:butt;stroke-linejoin:round"
     id="g301"
     transform="matrix(1,0,0,1.1125919,-13.75,-33.554284)">
    <path
       style="stroke:none;stroke-width:0.711039"
       d="m 558.4473,298.3752 h 140.25 v 84.875 h -140.25 z"
       id="path299" />
  </g>
  <g
     style="font-size:16px;font-family:SansSerif;fill:#ffffff;stroke:#ffffff;stroke-width:0.75;stroke-linecap:butt;stroke-linejoin:round"
     id="g311"
     transform="translate(-13.75,0.04036064)">
    <text
       x="565.69733"
       xml:space="preserve"
       y="317.00809"
       style="stroke:none"
       id="text303">city_key</text>
    <text
       x="565.69733"
       xml:space="preserve"
       y="338.79709"
       style="stroke:none"
       id="text305">city</text>
    <text
       x="565.69733"
       xml:space="preserve"
       y="360.58621"
       style="stroke:none"
       id="text307">province_or_street</text>
    <text
       x="565.69733"
       xml:space="preserve"
       y="382.37521"
       style="stroke:none"
       id="text309">country</text>
  </g>
  <g
     style="fill:#ffffff;fill-opacity:0;stroke:#ffffff;stroke-width:0.75;stroke-linecap:butt;stroke-linejoin:round;stroke-opacity:0"
     id="g315"
     transform="translate(-13.75,0.04036064)">
    <path
       style="fill:none"
       d="m 558.4473,298.3752 h 140.25 v 84.875 h -140.25 z"
       id="path313" />
  </g>
  <g
     style="fill:#cc0000;stroke:#cc0000;stroke-width:0.75;stroke-linecap:butt;stroke-linejoin:round"
     id="g319"
     transform="translate(-13.75,0.04036064)">
    <path
       style="stroke:none"
       d="m 592.4473,270.042 c 0,-3.1297 2.5371,-5.6668 5.6667,-5.6668 h 51.0415 c 3.1297,0 5.6668,2.5371 5.6668,5.6668 v 22.6664 c 0,3.1297 -2.5371,5.6668 -5.6668,5.6668 H 598.114 c -3.1296,0 -5.6667,-2.5371 -5.6667,-5.6668 z"
       id="path317" />
  </g>
  <g
     style="font-size:18px;font-family:SansSerif;fill:#ffffff;stroke:#ffffff;stroke-width:0.75;stroke-linecap:butt;stroke-linejoin:round"
     id="g323"
     transform="translate(-13.75,0.04036064)">
    <text
       x="599.12653"
       xml:space="preserve"
       y="287.61539"
       style="stroke:none"
       id="text321">Město</text>
  </g>
  <g
     style="fill:#ffffff;fill-opacity:0;stroke:#ffffff;stroke-width:0.75;stroke-linecap:butt;stroke-linejoin:round;stroke-opacity:0"
     id="g327"
     transform="translate(-13.75,0.04036064)">
    <path
       style="fill:none"
       d="m 592.4473,270.042 c 0,-3.1297 2.5371,-5.6668 5.6667,-5.6668 h 51.0415 c 3.1297,0 5.6668,2.5371 5.6668,5.6668 v 22.6664 c 0,3.1297 -2.5371,5.6668 -5.6668,5.6668 H 598.114 c -3.1296,0 -5.6667,-2.5371 -5.6667,-5.6668 z"
       id="path325" />
  </g>
  <g
     style="stroke-width:4.5;stroke-linecap:butt;stroke-linejoin:round;stroke-dasharray:4.5, 4.5"
     transform="matrix(1,0,0,-1,-13.75,753.66566)"
     id="g335">
    <path
       style="fill:none"
       d="m 530.6251,340.8127 27.8222,71.9998"
       id="path329" />
    <path
       style="stroke:none"
       d="m 559.52,401.5434 -1.0727,11.2691 -8.3717,-7.6196 z"
       id="path331" />
    <path
       style="fill:none"
       d="m 559.52,401.5434 -1.0727,11.2691 -8.3717,-7.6196 z"
       id="path333" />
  </g>
  <g
     style="fill:#ffcc99;stroke:#ffcc99;stroke-width:0.710571;stroke-linecap:butt;stroke-linejoin:round"
     id="g339"
     transform="matrix(1.1140571,0,0,1,-85.391546,0.04036064)">
    <path
       style="stroke:none;stroke-width:0.710571"
       d="m 597.252,71.5418 c 0,-3.1297 2.5371,-5.6668 5.6668,-5.6668 h 68.0413 c 3.1297,0 5.6669,2.5371 5.6669,5.6668 v 22.6665 c 0,3.1296 -2.5372,5.6667 -5.6669,5.6667 h -68.0413 c -3.1297,0 -5.6668,-2.5371 -5.6668,-5.6667 z"
       id="path337" />
  </g>
  <g
     style="font-size:18px;font-family:SansSerif;stroke-width:0.75;stroke-linecap:butt;stroke-linejoin:round"
     id="g343"
     transform="translate(-13.75,0.04036064)">
    <text
       x="596.41309"
       xml:space="preserve"
       y="89.115303"
       style="stroke:none"
       id="text341">Dodavatel</text>
  </g>
  <g
     style="fill:#ffffff;fill-opacity:0;stroke:#ffffff;stroke-width:0.75;stroke-linecap:butt;stroke-linejoin:round;stroke-opacity:0"
     id="g347"
     transform="translate(-13.75,0.04036064)">
    <path
       style="fill:none"
       d="m 597.252,71.5418 c 0,-3.1297 2.5371,-5.6668 5.6668,-5.6668 h 68.0413 c 3.1297,0 5.6669,2.5371 5.6669,5.6668 v 22.6665 c 0,3.1296 -2.5372,5.6667 -5.6669,5.6667 h -68.0413 c -3.1297,0 -5.6668,-2.5371 -5.6668,-5.6667 z"
       id="path345" />
  </g>
  <g
     style="stroke-width:4.5;stroke-linecap:butt;stroke-linejoin:round;stroke-dasharray:4.5, 4.5"
     transform="matrix(1,0,0,-1,-13.75,335.19936)"
     id="g355">
    <path
       style="fill:none"
       d="m 541.5,125.3465 39.627,84.466"
       id="path349" />
    <path
       style="stroke:none"
       d="m 581.4097,198.496 -0.2827,11.3165 -8.8837,-7.0162 z"
       id="path351" />
    <path
       style="fill:none"
       d="m 581.4097,198.496 -0.2827,11.3165 -8.8837,-7.0162 z"
       id="path353" />
  </g>
</svg>
