<?xml version="1.0" encoding="UTF-8" standalone="no"?>
<svg
   style="font-style:normal;font-weight:normal;font-size:12px;font-family:Dialog;color-interpolation:auto;fill:#000000;fill-opacity:1;stroke:#000000;stroke-width:1;stroke-linecap:square;stroke-linejoin:miter;stroke-miterlimit:10;stroke-dasharray:none;stroke-dashoffset:0;stroke-opacity:1;color-rendering:auto;image-rendering:auto;shape-rendering:auto;text-rendering:auto"
   width="652.83282"
   viewBox="0 99.875039 652.57322 397.24351"
   height="398.03329"
   version="1.1"
   id="svg309"
   sodipodi:docname="fig_99.svg"
   inkscape:version="1.2.2 (b0a8486541, 2022-12-01)"
   xmlns:inkscape="http://www.inkscape.org/namespaces/inkscape"
   xmlns:sodipodi="http://sodipodi.sourceforge.net/DTD/sodipodi-0.dtd"
   xmlns="http://www.w3.org/2000/svg"
   xmlns:svg="http://www.w3.org/2000/svg">
  <sodipodi:namedview
     id="namedview311"
     pagecolor="#ffffff"
     bordercolor="#666666"
     borderopacity="1.0"
     inkscape:showpageshadow="2"
     inkscape:pageopacity="0.0"
     inkscape:pagecheckerboard="0"
     inkscape:deskcolor="#d1d1d1"
     showgrid="false"
     inkscape:zoom="1.5136254"
     inkscape:cx="288.38047"
     inkscape:cy="160.87204"
     inkscape:window-width="2560"
     inkscape:window-height="1383"
     inkscape:window-x="1920"
     inkscape:window-y="0"
     inkscape:window-maximized="1"
     inkscape:current-layer="svg309" />
  <!--Generated by the Batik Graphics2D SVG Generator-->
  <defs
     id="genericDefs" />
  <g
     style="fill:#4f81bd;stroke:#4f81bd;stroke-width:0.75;stroke-linecap:butt;stroke-linejoin:round"
     id="g5"
     transform="translate(-23.625,0.02520396)">
    <path
       style="stroke:none"
       d="m 277.625,422.9376 c 0,-3.1412 2.5465,-5.6876 5.6877,-5.6876 h 152.9997 c 3.1412,0 5.6876,2.5464 5.6876,5.6876 v 22.7498 c 0,3.1412 -2.5464,5.6876 -5.6876,5.6876 H 283.3127 c -3.1412,0 -5.6877,-2.5464 -5.6877,-5.6876 z"
       id="path3" />
  </g>
  <g
     style="font-size:18px;font-family:SansSerif;fill:#ffffff;stroke:#ffffff;stroke-width:0.75;stroke-linecap:butt;stroke-linejoin:round"
     id="g9"
     transform="translate(-23.625,0.02520396)">
    <text
       x="318.2886"
       xml:space="preserve"
       y="440.5528"
       style="stroke:none"
       id="text7">Avg_sales</text>
  </g>
  <g
     style="fill:#ffffff;fill-opacity:0;stroke:#ffffff;stroke-width:0.75;stroke-linecap:butt;stroke-linejoin:round;stroke-opacity:0"
     id="g13"
     transform="translate(-23.625,0.02520396)">
    <path
       style="fill:none"
       d="m 277.625,422.9376 c 0,-3.1412 2.5465,-5.6876 5.6877,-5.6876 h 152.9997 c 3.1412,0 5.6876,2.5464 5.6876,5.6876 v 22.7498 c 0,3.1412 -2.5464,5.6876 -5.6876,5.6876 H 283.3127 c -3.1412,0 -5.6877,-2.5464 -5.6877,-5.6876 z"
       id="path11" />
  </g>
  <g
     style="fill:#4f81bd;stroke:#4f81bd;stroke-width:0.75;stroke-linecap:butt;stroke-linejoin:round"
     id="g17"
     transform="translate(-23.625,0.02520396)">
    <path
       style="stroke:none"
       d="m 277.625,388.9376 c 0,-3.1412 2.5465,-5.6876 5.6877,-5.6876 h 152.9997 c 3.1412,0 5.6876,2.5464 5.6876,5.6876 v 22.7498 c 0,3.1412 -2.5464,5.6876 -5.6876,5.6876 H 283.3127 c -3.1412,0 -5.6877,-2.5464 -5.6877,-5.6876 z"
       id="path15" />
  </g>
  <g
     style="font-size:18px;font-family:SansSerif;fill:#ffffff;stroke:#ffffff;stroke-width:0.75;stroke-linecap:butt;stroke-linejoin:round"
     id="g21"
     transform="translate(-23.625,0.02520396)">
    <text
       x="314.78619"
       xml:space="preserve"
       y="406.5528"
       style="stroke:none"
       id="text19">Euros_sold</text>
  </g>
  <g
     style="fill:#ffffff;fill-opacity:0;stroke:#ffffff;stroke-width:0.75;stroke-linecap:butt;stroke-linejoin:round;stroke-opacity:0"
     id="g25"
     transform="translate(-23.625,0.02520396)">
    <path
       style="fill:none"
       d="m 277.625,388.9376 c 0,-3.1412 2.5465,-5.6876 5.6877,-5.6876 h 152.9997 c 3.1412,0 5.6876,2.5464 5.6876,5.6876 v 22.7498 c 0,3.1412 -2.5464,5.6876 -5.6876,5.6876 H 283.3127 c -3.1412,0 -5.6877,-2.5464 -5.6877,-5.6876 z"
       id="path23" />
  </g>
  <g
     style="fill:#4f81bd;stroke:#4f81bd;stroke-width:0.75;stroke-linecap:butt;stroke-linejoin:round"
     id="g29"
     transform="translate(-23.625,0.02520396)">
    <path
       style="stroke:none"
       d="m 277.625,354.9376 c 0,-3.1412 2.5465,-5.6876 5.6877,-5.6876 h 152.9997 c 3.1412,0 5.6876,2.5464 5.6876,5.6876 v 22.7498 c 0,3.1412 -2.5464,5.6876 -5.6876,5.6876 H 283.3127 c -3.1412,0 -5.6877,-2.5464 -5.6877,-5.6876 z"
       id="path27" />
  </g>
  <g
     style="font-size:18px;font-family:SansSerif;fill:#ffffff;stroke:#ffffff;stroke-width:0.75;stroke-linecap:butt;stroke-linejoin:round"
     id="g33"
     transform="translate(-23.625,0.02520396)">
    <text
       x="322.29199"
       xml:space="preserve"
       y="372.5528"
       style="stroke:none"
       id="text31">Unit_sold</text>
  </g>
  <g
     style="fill:#ffffff;fill-opacity:0;stroke:#ffffff;stroke-width:0.75;stroke-linecap:butt;stroke-linejoin:round;stroke-opacity:0"
     id="g37"
     transform="translate(-23.625,0.02520396)">
    <path
       style="fill:none"
       d="m 277.625,354.9376 c 0,-3.1412 2.5465,-5.6876 5.6877,-5.6876 h 152.9997 c 3.1412,0 5.6876,2.5464 5.6876,5.6876 v 22.7498 c 0,3.1412 -2.5464,5.6876 -5.6876,5.6876 H 283.3127 c -3.1412,0 -5.6877,-2.5464 -5.6877,-5.6876 z"
       id="path35" />
  </g>
  <g
     style="fill:#4f81bd;stroke:#4f81bd;stroke-width:0.75;stroke-linecap:butt;stroke-linejoin:round"
     id="g41"
     transform="translate(-23.625,0.02520396)">
    <path
       style="stroke:none"
       d="m 277.625,320.9376 c 0,-3.1412 2.5465,-5.6876 5.6877,-5.6876 h 152.9997 c 3.1412,0 5.6876,2.5464 5.6876,5.6876 v 22.7498 c 0,3.1412 -2.5464,5.6876 -5.6876,5.6876 H 283.3127 c -3.1412,0 -5.6877,-2.5464 -5.6877,-5.6876 z"
       id="path39" />
  </g>
  <g
     style="font-size:18px;font-family:SansSerif;fill:#ffffff;stroke:#ffffff;stroke-width:0.75;stroke-linecap:butt;stroke-linejoin:round"
     id="g45"
     transform="translate(-23.625,0.02520396)">
    <text
       x="306.7749"
       xml:space="preserve"
       y="338.5528"
       style="stroke:none"
       id="text43">Location_key</text>
  </g>
  <g
     style="fill:#ffffff;fill-opacity:0;stroke:#ffffff;stroke-width:0.75;stroke-linecap:butt;stroke-linejoin:round;stroke-opacity:0"
     id="g49"
     transform="translate(-23.625,0.02520396)">
    <path
       style="fill:none"
       d="m 277.625,320.9376 c 0,-3.1412 2.5465,-5.6876 5.6877,-5.6876 h 152.9997 c 3.1412,0 5.6876,2.5464 5.6876,5.6876 v 22.7498 c 0,3.1412 -2.5464,5.6876 -5.6876,5.6876 H 283.3127 c -3.1412,0 -5.6877,-2.5464 -5.6877,-5.6876 z"
       id="path47" />
  </g>
  <g
     style="fill:#ccecff;stroke:#ccecff;stroke-width:0.75;stroke-linecap:butt;stroke-linejoin:round"
     id="g53"
     transform="translate(-23.625,0.02520396)">
    <path
       style="stroke:none"
       d="M 31.1446,342.875 H 171.75 v 72.7538 H 31.1446 Z"
       id="path51" />
  </g>
  <g
     style="font-size:18px;font-family:SansSerif;stroke-width:0.75;stroke-linecap:butt;stroke-linejoin:round"
     id="g61"
     transform="translate(-23.625,0.02520396)">
    <text
       x="38.3946"
       xml:space="preserve"
       y="363.38391"
       style="stroke:none"
       id="text55">branch_key</text>
    <text
       x="38.3946"
       xml:space="preserve"
       y="387.89661"
       style="stroke:none"
       id="text57">branch_name</text>
    <text
       x="38.3946"
       xml:space="preserve"
       y="412.4093"
       style="stroke:none"
       id="text59">branch_type</text>
  </g>
  <g
     style="fill:#ffffff;fill-opacity:0;stroke:#ffffff;stroke-width:0.75;stroke-linecap:butt;stroke-linejoin:round;stroke-opacity:0"
     id="g65"
     transform="translate(-23.625,0.02520396)">
    <path
       style="fill:none"
       d="M 31.1446,342.875 H 171.75 v 72.7538 H 31.1446 Z"
       id="path63" />
  </g>
  <path
     style="fill:#008000;stroke:none;stroke-width:0.75;stroke-linecap:butt;stroke-linejoin:round"
     d="M 0.375,134.6502 H 147.5534 V 286.04486 H 0.375 Z"
     id="path67" />
  <g
     style="font-size:18px;font-family:SansSerif;fill:#ffffff;stroke:#ffffff;stroke-width:0.75;stroke-linecap:butt;stroke-linejoin:round"
     id="g83"
     transform="translate(-23.625,0.02520396)">
    <text
       x="31.25"
       xml:space="preserve"
       y="155.1339"
       style="stroke:none"
       id="text71">time_key</text>
    <text
       x="31.25"
       xml:space="preserve"
       y="179.64661"
       style="stroke:none"
       id="text73">day</text>
    <text
       x="31.25"
       xml:space="preserve"
       y="204.1593"
       style="stroke:none"
       id="text75">day_of_the_week</text>
    <text
       x="31.25"
       xml:space="preserve"
       y="228.672"
       style="stroke:none"
       id="text77">month</text>
    <text
       x="31.25"
       xml:space="preserve"
       y="253.1846"
       style="stroke:none"
       id="text79">quarter</text>
    <text
       x="31.25"
       xml:space="preserve"
       y="277.69739"
       style="stroke:none"
       id="text81">year</text>
  </g>
  <g
     style="fill:#ffffff;fill-opacity:0;stroke:#ffffff;stroke-width:0.75;stroke-linecap:butt;stroke-linejoin:round;stroke-opacity:0"
     id="g87"
     transform="translate(-23.625,0.02520396)">
    <path
       style="fill:none"
       d="M 24,134.625 H 171.1784 V 272.8116 H 24 Z"
       id="path85" />
  </g>
  <path
     style="fill:#cc0000;stroke:none;stroke-width:0.75;stroke-linecap:butt;stroke-linejoin:round"
     d="M 496.375,336.7752 H 652.1062 V 464.37765 H 496.375 Z"
     id="path89" />
  <g
     style="font-size:18px;font-family:SansSerif;fill:#ffffff;stroke:#ffffff;stroke-width:0.75;stroke-linecap:butt;stroke-linejoin:round"
     id="g103"
     transform="translate(-23.625,0.02520396)">
    <text
       x="527.25"
       xml:space="preserve"
       y="357.25879"
       style="stroke:none"
       id="text93">location_key</text>
    <text
       x="527.25"
       xml:space="preserve"
       y="381.77151"
       style="stroke:none"
       id="text95">street</text>
    <text
       x="527.25"
       xml:space="preserve"
       y="406.28421"
       style="stroke:none"
       id="text97">city</text>
    <text
       x="527.25"
       xml:space="preserve"
       y="430.79691"
       style="stroke:none"
       id="text99">province_or_street</text>
    <text
       x="527.25"
       xml:space="preserve"
       y="455.3096"
       style="stroke:none"
       id="text101">country</text>
  </g>
  <g
     style="fill:#ffffff;fill-opacity:0;stroke:#ffffff;stroke-width:0.75;stroke-linecap:butt;stroke-linejoin:round;stroke-opacity:0"
     id="g107"
     transform="translate(-23.625,0.02520396)">
    <path
       style="fill:none"
       d="M 520,336.75 H 675.7312 V 453.1256 H 520 Z"
       id="path105" />
  </g>
  <g
     style="fill:#ff99cc;stroke:#ff99cc;stroke-width:0.75;stroke-linecap:butt;stroke-linejoin:round"
     id="g111"
     transform="translate(-23.625,0.02520396)">
    <path
       style="stroke:none"
       d="m 162,465 h 96 v 32 h -96 z"
       id="path109" />
  </g>
  <g
     style="font-size:20px;font-family:SansSerif;stroke-width:0.75;stroke-linecap:butt;stroke-linejoin:round"
     id="g115"
     transform="translate(-23.625,0.02520396)">
    <text
       x="169.25"
       xml:space="preserve"
       y="487.3848"
       style="stroke:none"
       id="text113">Míry</text>
  </g>
  <g
     style="fill:#ffffff;fill-opacity:0;stroke:#ffffff;stroke-width:0.75;stroke-linecap:butt;stroke-linejoin:round;stroke-opacity:0"
     id="g119"
     transform="translate(-23.625,0.02520396)">
    <path
       style="fill:none"
       d="m 162,465 h 96 v 32 h -96 z"
       id="path117" />
  </g>
  <g
     style="fill:#ffcc99;stroke:#ffcc99;stroke-width:0.723751;stroke-linecap:butt;stroke-linejoin:round"
     id="g123"
     transform="matrix(1,0,0,1.0738515,-23.625,-11.89258)">
    <path
       style="stroke:none;stroke-width:0.723751"
       d="m 520.5,161.375 h 123 v 116.25 h -123 z"
       id="path121" />
  </g>
  <g
     style="font-size:18px;font-family:SansSerif;stroke-width:0.75;stroke-linecap:butt;stroke-linejoin:round"
     id="g135"
     transform="translate(-23.625,0.02520396)">
    <text
       x="527.75"
       xml:space="preserve"
       y="181.8839"
       style="stroke:none"
       id="text125">item_key</text>
    <text
       x="527.75"
       xml:space="preserve"
       y="206.39661"
       style="stroke:none"
       id="text127">item_name</text>
    <text
       x="527.75"
       xml:space="preserve"
       y="230.9093"
       style="stroke:none"
       id="text129">brand</text>
    <text
       x="527.75"
       xml:space="preserve"
       y="255.422"
       style="stroke:none"
       id="text131">type</text>
    <text
       x="527.75"
       xml:space="preserve"
       y="279.93469"
       style="stroke:none"
       id="text133">supplier_type</text>
  </g>
  <g
     style="fill:#ffffff;fill-opacity:0;stroke:#ffffff;stroke-width:0.75;stroke-linecap:butt;stroke-linejoin:round;stroke-opacity:0"
     id="g139"
     transform="translate(-23.625,0.02520396)">
    <path
       style="fill:none"
       d="m 520.5,161.375 h 123 v 116.25 h -123 z"
       id="path137" />
  </g>
  <g
     style="fill:#4f81bd;stroke:#4f81bd;stroke-width:0.75;stroke-linecap:butt;stroke-linejoin:round"
     id="g143"
     transform="translate(-23.625,0.02520396)">
    <path
       style="stroke:none"
       d="m 277.625,286.9376 c 0,-3.1412 2.5465,-5.6876 5.6877,-5.6876 h 152.9997 c 3.1412,0 5.6876,2.5464 5.6876,5.6876 v 22.7498 c 0,3.1412 -2.5464,5.6876 -5.6876,5.6876 H 283.3127 c -3.1412,0 -5.6877,-2.5464 -5.6877,-5.6876 z"
       id="path141" />
  </g>
  <g
     style="font-size:18px;font-family:SansSerif;fill:#ffffff;stroke:#ffffff;stroke-width:0.75;stroke-linecap:butt;stroke-linejoin:round"
     id="g147"
     transform="translate(-23.625,0.02520396)">
    <text
       x="312.28571"
       xml:space="preserve"
       y="304.5528"
       style="stroke:none"
       id="text145">Branch_key</text>
  </g>
  <g
     style="fill:#ffffff;fill-opacity:0;stroke:#ffffff;stroke-width:0.75;stroke-linecap:butt;stroke-linejoin:round;stroke-opacity:0"
     id="g151"
     transform="translate(-23.625,0.02520396)">
    <path
       style="fill:none"
       d="m 277.625,286.9376 c 0,-3.1412 2.5465,-5.6876 5.6877,-5.6876 h 152.9997 c 3.1412,0 5.6876,2.5464 5.6876,5.6876 v 22.7498 c 0,3.1412 -2.5464,5.6876 -5.6876,5.6876 H 283.3127 c -3.1412,0 -5.6877,-2.5464 -5.6877,-5.6876 z"
       id="path149" />
  </g>
  <g
     style="stroke-width:1.5;stroke-linecap:butt;stroke-linejoin:round"
     transform="matrix(-1,0,0,1,464,0.02520396)"
     id="g155">
    <path
       style="fill:none"
       d="M 210,366.375 277.625,465"
       id="path153" />
  </g>
  <g
     style="stroke-width:1.5;stroke-linecap:butt;stroke-linejoin:round"
     transform="matrix(-1,0,0,1,464,0.02520396)"
     id="g159">
    <path
       style="fill:none"
       d="M 210,400.375 277.625,465"
       id="path157" />
  </g>
  <g
     style="stroke-width:1.5;stroke-linecap:butt;stroke-linejoin:round"
     transform="matrix(-1,0,0,1,464,0.02520396)"
     id="g163">
    <path
       style="fill:none"
       d="M 210,434.375 277.625,465"
       id="path161" />
  </g>
  <g
     style="fill:#ccecff;stroke:#ccecff;stroke-width:0.75;stroke-linecap:butt;stroke-linejoin:round"
     id="g167"
     transform="translate(-23.625,0.02520396)">
    <path
       style="stroke:none"
       d="m 65.168,320.1043 c 0,-2.6119 2.1173,-4.7293 4.7292,-4.7293 h 69.9165 c 2.6119,0 4.7293,2.1174 4.7293,4.7293 v 18.9165 c 0,2.6118 -2.1174,4.7292 -4.7293,4.7292 H 69.8972 c -2.6119,0 -4.7292,-2.1174 -4.7292,-4.7292 z"
       id="path165" />
  </g>
  <g
     style="font-size:18px;font-family:SansSerif;stroke-width:0.75;stroke-linecap:butt;stroke-linejoin:round"
     id="g171"
     transform="translate(-23.625,0.02520396)">
    <text
       x="73.8433"
       xml:space="preserve"
       y="335.8028"
       style="stroke:none"
       id="text169">Odvětví</text>
  </g>
  <g
     style="fill:#ffffff;fill-opacity:0;stroke:#ffffff;stroke-width:0.75;stroke-linecap:butt;stroke-linejoin:round;stroke-opacity:0"
     id="g175"
     transform="translate(-23.625,0.02520396)">
    <path
       style="fill:none"
       d="m 65.168,320.1043 c 0,-2.6119 2.1173,-4.7293 4.7292,-4.7293 h 69.9165 c 2.6119,0 4.7293,2.1174 4.7293,4.7293 v 18.9165 c 0,2.6118 -2.1174,4.7292 -4.7293,4.7292 H 69.8972 c -2.6119,0 -4.7292,-2.1174 -4.7292,-4.7292 z"
       id="path173" />
  </g>
  <g
     style="fill:#008000;stroke:#008000;stroke-width:0.75;stroke-linecap:butt;stroke-linejoin:round"
     id="g179"
     transform="translate(-23.625,0.02520396)">
    <path
       style="stroke:none"
       d="m 59.5,105.5418 c 0,-3.1297 2.5371,-5.6668 5.6668,-5.6668 h 62.4164 c 3.1297,0 5.6668,2.5371 5.6668,5.6668 v 22.6665 c 0,3.1296 -2.5371,5.6667 -5.6668,5.6667 H 65.1668 c -3.1297,0 -5.6668,-2.5371 -5.6668,-5.6667 z"
       id="path177" />
  </g>
  <g
     style="font-size:18px;font-family:SansSerif;fill:#ffffff;stroke:#ffffff;stroke-width:0.75;stroke-linecap:butt;stroke-linejoin:round"
     id="g183"
     transform="translate(-23.625,0.02520396)">
    <text
       x="80.370102"
       xml:space="preserve"
       y="123.1153"
       style="stroke:none"
       id="text181">Čas</text>
  </g>
  <g
     style="fill:#ffffff;fill-opacity:0;stroke:#ffffff;stroke-width:0.75;stroke-linecap:butt;stroke-linejoin:round;stroke-opacity:0"
     id="g187"
     transform="translate(-23.625,0.02520396)">
    <path
       style="fill:none"
       d="m 59.5,105.5418 c 0,-3.1297 2.5371,-5.6668 5.6668,-5.6668 h 62.4164 c 3.1297,0 5.6668,2.5371 5.6668,5.6668 v 22.6665 c 0,3.1296 -2.5371,5.6667 -5.6668,5.6667 H 65.1668 c -3.1297,0 -5.6668,-2.5371 -5.6668,-5.6667 z"
       id="path185" />
  </g>
  <g
     style="fill:#ffcc99;stroke:#ffcc99;stroke-width:0.75;stroke-linecap:butt;stroke-linejoin:round"
     id="g191"
     transform="translate(-23.625,0.02520396)">
    <path
       style="stroke:none"
       d="m 552.75,138.6043 c 0,-2.6119 2.1174,-4.7293 4.7292,-4.7293 h 52.9166 c 2.6119,0 4.7293,2.1174 4.7293,4.7293 v 18.9165 c 0,2.6118 -2.1174,4.7292 -4.7293,4.7292 h -52.9166 c -2.6118,0 -4.7292,-2.1174 -4.7292,-4.7292 z"
       id="path189" />
  </g>
  <g
     style="font-size:18px;font-family:SansSerif;stroke-width:0.75;stroke-linecap:butt;stroke-linejoin:round"
     id="g195"
     transform="translate(-23.625,0.02520396)">
    <text
       x="551.91888"
       xml:space="preserve"
       y="154.3027"
       style="stroke:none"
       id="text193">Položka</text>
  </g>
  <g
     style="fill:#ffffff;fill-opacity:0;stroke:#ffffff;stroke-width:0.75;stroke-linecap:butt;stroke-linejoin:round;stroke-opacity:0"
     id="g199"
     transform="translate(-23.625,0.02520396)">
    <path
       style="fill:none"
       d="m 552.75,138.6043 c 0,-2.6119 2.1174,-4.7293 4.7292,-4.7293 h 52.9166 c 2.6119,0 4.7293,2.1174 4.7293,4.7293 v 18.9165 c 0,2.6118 -2.1174,4.7292 -4.7293,4.7292 h -52.9166 c -2.6118,0 -4.7292,-2.1174 -4.7292,-4.7292 z"
       id="path197" />
  </g>
  <g
     style="fill:#cc0000;stroke:#cc0000;stroke-width:0.75;stroke-linecap:butt;stroke-linejoin:round"
     id="g203"
     transform="translate(-23.625,0.02520396)">
    <path
       style="stroke:none"
       d="m 547.1251,314.4584 c 0,-2.6004 2.108,-4.7084 4.7084,-4.7084 h 86.9581 c 2.6004,0 4.7084,2.108 4.7084,4.7084 v 18.8332 c 0,2.6004 -2.108,4.7084 -4.7084,4.7084 h -86.9581 c -2.6004,0 -4.7084,-2.108 -4.7084,-4.7084 z"
       id="path201" />
  </g>
  <g
     style="font-size:18px;font-family:SansSerif;fill:#ffffff;stroke:#ffffff;stroke-width:0.75;stroke-linecap:butt;stroke-linejoin:round"
     id="g207"
     transform="translate(-23.625,0.02520396)">
    <text
       x="559.30371"
       xml:space="preserve"
       y="330.1152"
       style="stroke:none"
       id="text205">Umístění</text>
  </g>
  <g
     style="fill:#ffffff;fill-opacity:0;stroke:#ffffff;stroke-width:0.75;stroke-linecap:butt;stroke-linejoin:round;stroke-opacity:0"
     id="g211"
     transform="translate(-23.625,0.02520396)">
    <path
       style="fill:none"
       d="m 547.1251,314.4584 c 0,-2.6004 2.108,-4.7084 4.7084,-4.7084 h 86.9581 c 2.6004,0 4.7084,2.108 4.7084,4.7084 v 18.8332 c 0,2.6004 -2.108,4.7084 -4.7084,4.7084 h -86.9581 c -2.6004,0 -4.7084,-2.108 -4.7084,-4.7084 z"
       id="path209" />
  </g>
  <g
     style="stroke-width:4.5;stroke-linecap:butt;stroke-linejoin:round;stroke-dasharray:4.5, 4.5"
     id="g219"
     transform="translate(-23.625,0.02520396)">
    <path
       style="fill:none"
       d="m 442,332.3125 78,62.6253"
       id="path213" />
    <path
       style="stroke:none"
       d="M 515.2743,384.6513 520,394.9378 508.9354,392.5464 Z"
       id="path215" />
    <path
       style="fill:none"
       d="M 515.2743,384.6513 520,394.9378 508.9354,392.5464 Z"
       id="path217" />
  </g>
  <g
     style="stroke-width:4.5;stroke-linecap:butt;stroke-linejoin:round;stroke-dasharray:4.5, 4.5"
     transform="matrix(1,0,0,-1,-23.625,483.9002)"
     id="g227">
    <path
       style="fill:none"
       d="m 442,219.5 78.5,44.875"
       id="path221" />
    <path
       style="stroke:none"
       d="m 514.2224,254.9551 6.2776,9.4199 -11.3026,-0.6298 z"
       id="path223" />
    <path
       style="fill:none"
       d="m 514.2224,254.9551 6.2776,9.4199 -11.3026,-0.6298 z"
       id="path225" />
  </g>
  <g
     style="stroke-width:4.5;stroke-linecap:butt;stroke-linejoin:round;stroke-dasharray:4.5, 4.5"
     transform="rotate(180,212.5892,217.028)"
     id="g235">
    <path
       style="fill:none"
       d="M 171.1784,203.7184 277.625,230.3125"
       id="path229" />
    <path
       style="stroke:none"
       d="m 269.0291,222.9468 8.5959,7.3657 -11.0501,2.4574 z"
       id="path231" />
    <path
       style="fill:none"
       d="m 269.0291,222.9468 8.5959,7.3657 -11.0501,2.4574 z"
       id="path233" />
  </g>
  <g
     style="stroke-width:4.5;stroke-linecap:butt;stroke-linejoin:round;stroke-dasharray:4.5, 4.5"
     transform="matrix(-1,0,0,1,425.75,0.02520396)"
     id="g243">
    <path
       style="fill:none"
       d="m 171.75,298.3125 105.875,80.9394"
       id="path237" />
    <path
       style="stroke:none"
       d="m 272.6559,369.0807 4.9691,10.1712 -11.1183,-2.1274 z"
       id="path239" />
    <path
       style="fill:none"
       d="m 272.6559,369.0807 4.9691,10.1712 -11.1183,-2.1274 z"
       id="path241" />
  </g>
  <g
     style="fill:#ffffff;fill-opacity:0;stroke:#ffffff;stroke-width:0.25;stroke-linecap:butt;stroke-linejoin:round;stroke-opacity:0"
     id="g247"
     transform="translate(-23.625,0.02520396)">
    <path
       style="stroke:none"
       d="m 292,133.875 h 150 v 55.7896 H 292 Z"
       id="path245" />
  </g>
  <g
     style="font-size:20px;font-family:SansSerif;stroke-width:0.25;stroke-linecap:butt;stroke-linejoin:round"
     id="g253"
     transform="translate(-23.625,0.02520396)">
    <text
       x="300.2959"
       xml:space="preserve"
       y="156.2598"
       style="stroke:none"
       id="text249">Relace faktů o </text>
    <text
       x="336.9805"
       xml:space="preserve"
       y="179.2579"
       style="stroke:none"
       id="text251">prodeji</text>
  </g>
  <g
     style="fill:#ffffff;fill-opacity:0;stroke:#ffffff;stroke-width:0.25;stroke-linecap:butt;stroke-linejoin:round;stroke-opacity:0"
     id="g257"
     transform="translate(-23.625,0.02520396)">
    <path
       style="fill:none"
       d="m 292,133.875 h 150 v 55.7896 H 292 Z"
       id="path255" />
  </g>
  <g
     style="fill:#4f81bd;stroke:#4f81bd;stroke-width:0.75;stroke-linecap:butt;stroke-linejoin:round"
     id="g261"
     transform="translate(-23.625,0.02520396)">
    <path
       style="stroke:none"
       d="m 277.625,252.9376 c 0,-3.1412 2.5465,-5.6876 5.6877,-5.6876 h 152.9997 c 3.1412,0 5.6876,2.5464 5.6876,5.6876 v 22.7498 c 0,3.1412 -2.5464,5.6876 -5.6876,5.6876 H 283.3127 c -3.1412,0 -5.6877,-2.5464 -5.6877,-5.6876 z"
       id="path259" />
  </g>
  <g
     style="font-size:18px;font-family:SansSerif;fill:#ffffff;stroke:#ffffff;stroke-width:0.75;stroke-linecap:butt;stroke-linejoin:round"
     id="g265"
     transform="translate(-23.625,0.02520396)">
    <text
       x="323.2984"
       xml:space="preserve"
       y="270.5528"
       style="stroke:none"
       id="text263">Item_key</text>
  </g>
  <g
     style="fill:#ffffff;fill-opacity:0;stroke:#ffffff;stroke-width:0.75;stroke-linecap:butt;stroke-linejoin:round;stroke-opacity:0"
     id="g269"
     transform="translate(-23.625,0.02520396)">
    <path
       style="fill:none"
       d="m 277.625,252.9376 c 0,-3.1412 2.5465,-5.6876 5.6877,-5.6876 h 152.9997 c 3.1412,0 5.6876,2.5464 5.6876,5.6876 v 22.7498 c 0,3.1412 -2.5464,5.6876 -5.6876,5.6876 H 283.3127 c -3.1412,0 -5.6877,-2.5464 -5.6877,-5.6876 z"
       id="path267" />
  </g>
  <g
     style="fill:#4f81bd;stroke:#4f81bd;stroke-width:0.75;stroke-linecap:butt;stroke-linejoin:round"
     id="g273"
     transform="translate(-23.625,0.02520396)">
    <path
       style="stroke:none"
       d="m 277.625,218.9376 c 0,-3.1412 2.5465,-5.6876 5.6877,-5.6876 h 152.9997 c 3.1412,0 5.6876,2.5464 5.6876,5.6876 v 22.7498 c 0,3.1412 -2.5464,5.6876 -5.6876,5.6876 H 283.3127 c -3.1412,0 -5.6877,-2.5464 -5.6877,-5.6876 z"
       id="path271" />
  </g>
  <g
     style="font-size:18px;font-family:SansSerif;fill:#ffffff;stroke:#ffffff;stroke-width:0.75;stroke-linecap:butt;stroke-linejoin:round"
     id="g277"
     transform="translate(-23.625,0.02520396)">
    <text
       x="320.80231"
       xml:space="preserve"
       y="236.5527"
       style="stroke:none"
       id="text275">Time_key</text>
  </g>
  <g
     style="fill:#ffffff;fill-opacity:0;stroke:#ffffff;stroke-width:0.75;stroke-linecap:butt;stroke-linejoin:round;stroke-opacity:0"
     id="g281"
     transform="translate(-23.625,0.02520396)">
    <path
       style="fill:none"
       d="m 277.625,218.9376 c 0,-3.1412 2.5465,-5.6876 5.6877,-5.6876 h 152.9997 c 3.1412,0 5.6876,2.5464 5.6876,5.6876 v 22.7498 c 0,3.1412 -2.5464,5.6876 -5.6876,5.6876 H 283.3127 c -3.1412,0 -5.6877,-2.5464 -5.6877,-5.6876 z"
       id="path279" />
  </g>
</svg>
