<?xml version="1.0" encoding="UTF-8" standalone="no"?>
<svg
   style="font-style:normal;font-weight:normal;font-size:12px;font-family:Dialog;color-interpolation:auto;fill:#000000;fill-opacity:1;stroke:#000000;stroke-width:1;stroke-linecap:square;stroke-linejoin:miter;stroke-miterlimit:10;stroke-dasharray:none;stroke-dashoffset:0;stroke-opacity:1;color-rendering:auto;image-rendering:auto;shape-rendering:auto;text-rendering:auto"
   width="635.75006"
   viewBox="14.134803 219.00197 635.74029 272.75206"
   height="273.62912"
   version="1.1"
   id="svg189"
   sodipodi:docname="fig_103.svg"
   inkscape:version="1.2.2 (b0a8486541, 2022-12-01)"
   xmlns:inkscape="http://www.inkscape.org/namespaces/inkscape"
   xmlns:sodipodi="http://sodipodi.sourceforge.net/DTD/sodipodi-0.dtd"
   xmlns="http://www.w3.org/2000/svg"
   xmlns:svg="http://www.w3.org/2000/svg">
  <sodipodi:namedview
     id="namedview191"
     pagecolor="#ffffff"
     bordercolor="#666666"
     borderopacity="1.0"
     inkscape:showpageshadow="2"
     inkscape:pageopacity="0.0"
     inkscape:pagecheckerboard="0"
     inkscape:deskcolor="#d1d1d1"
     showgrid="false"
     inkscape:zoom="2.4450872"
     inkscape:cx="319.21152"
     inkscape:cy="138.44087"
     inkscape:window-width="2560"
     inkscape:window-height="1383"
     inkscape:window-x="1920"
     inkscape:window-y="0"
     inkscape:window-maximized="1"
     inkscape:current-layer="svg189" />
  <!--Generated by the Batik Graphics2D SVG Generator-->
  <defs
     id="genericDefs">
    <marker
       style="overflow:visible"
       id="Arrow2"
       refX="0"
       refY="0"
       orient="auto-start-reverse"
       inkscape:stockid="Arrow2"
       markerWidth="7.6999998"
       markerHeight="5.5999999"
       viewBox="0 0 7.7 5.6"
       inkscape:isstock="true"
       inkscape:collect="always"
       preserveAspectRatio="xMidYMid">
      <path
         transform="scale(0.7)"
         d="M -2,-4 9,0 -2,4 c 2,-2.33 2,-5.66 0,-8 z"
         style="fill:context-stroke;fill-rule:evenodd;stroke:none"
         id="arrow2L" />
    </marker>
    <marker
       style="overflow:visible"
       id="Arrow2-3"
       refX="0"
       refY="0"
       orient="auto-start-reverse"
       inkscape:stockid="Arrow2"
       markerWidth="7.6999998"
       markerHeight="5.5999999"
       viewBox="0 0 7.7 5.6"
       inkscape:isstock="true"
       inkscape:collect="always"
       preserveAspectRatio="xMidYMid">
      <path
         transform="scale(0.7)"
         d="M -2,-4 9,0 -2,4 c 2,-2.33 2,-5.66 0,-8 z"
         style="fill:context-stroke;fill-rule:evenodd;stroke:none"
         id="arrow2L-6" />
    </marker>
  </defs>
  <g
     style="fill:#ff0000;fill-opacity:0.3098;stroke:#ff0000;stroke-width:2;stroke-linecap:butt;stroke-linejoin:round;stroke-opacity:0.3098"
     id="g5"
     transform="translate(0.3750185,0.31454765)">
    <path
       style="stroke:none"
       d="m 394.0195,302.5391 c 0,-36.81 27.9219,-66.6504 62.3653,-66.6504 v 0 c 34.4433,0 62.3652,29.8404 62.3652,66.6504 0,36.81 -27.9219,66.6504 -62.3652,66.6504 -34.4434,0 -62.3653,-29.8404 -62.3653,-66.6504 z"
       id="path3" />
  </g>
  <g
     style="font-size:18px;font-family:Arial;fill:#ff0000;fill-opacity:0.3098;stroke:#ff0000;stroke-width:2;stroke-linecap:butt;stroke-linejoin:round;stroke-opacity:0.3098"
     id="g9"
     transform="translate(0.3750185,0.31454765)">
    <text
       x="453.88431"
       xml:space="preserve"
       y="308.7793"
       style="stroke:none"
       id="text7"> </text>
  </g>
  <g
     style="fill:#ff0000;stroke:#ff0000;stroke-width:2;stroke-linecap:butt;stroke-linejoin:round"
     id="g13"
     transform="translate(0.3750185,0.31454765)">
    <path
       style="fill:none"
       d="m 394.0195,302.5391 c 0,-36.81 27.9219,-66.6504 62.3653,-66.6504 v 0 c 34.4433,0 62.3652,29.8404 62.3652,66.6504 0,36.81 -27.9219,66.6504 -62.3652,66.6504 -34.4434,0 -62.3653,-29.8404 -62.3653,-66.6504 z"
       id="path11" />
  </g>
  <g
     style="fill:#ffbe7d;stroke:#ffbe7d;stroke-width:0.75;stroke-linecap:butt;stroke-linejoin:round"
     id="g17"
     transform="translate(0.3750185,0.31454765)">
    <path
       style="stroke:none"
       d="m 30.4997,292.6987 c -9.3034,0.7403 -16.3649,6.8001 -16.3649,14.032 -0.0084,5.0064 3.4342,9.6427 9.0179,12.1719 l -0.0924,-0.1613 c -3.1739,2.6052 -4.9371,6.0361 -4.9371,9.5951 0,7.7587 8.195,14.0463 18.3044,14.0463 0.7053,0 1.419,-0.0332 2.1327,-0.0996 l -0.1007,0.0949 c 5.7768,7.7776 16.5076,12.5799 28.1284,12.5799 5.8775,-0.005 11.6544,-1.2385 16.6923,-3.578 l -0.0504,0.019 c 5.2562,6.0694 14.0978,9.7138 23.5691,9.7138 12.4856,-0.005 23.5103,-6.3113 27.1292,-15.5316 l 0.0252,0.1234 c 3.8624,1.8507 8.3126,2.833 12.8635,2.833 13.3337,-0.005 24.182,-8.2665 24.2828,-18.5165 l -0.042,-0.0474 c 14.0054,-1.5423 24.4171,-10.772 24.4171,-21.6532 0,-4.8213 -2.0739,-9.5049 -5.886,-13.3297 l -0.0587,-0.01 c 1.1923,-2.1496 1.8136,-4.4606 1.8136,-6.8001 0,-7.7824 -6.7676,-14.6062 -16.5076,-16.6515 l 0.0756,-0.0332 c -1.7465,-7.4503 -10.2018,-12.8695 -20.0677,-12.8695 -5.9952,-0.005 -11.6796,2.0216 -15.5588,5.5284 l 0.0336,0.0237 c -3.4594,-3.5021 -8.85,-5.5521 -14.568,-5.5521 -6.944,-0.005 -13.3001,3.0228 -16.3985,7.8062 l 0.0672,0.2325 c -4.1899,-3.1794 -9.8323,-4.9542 -15.7099,-4.9542 -8.279,-0.005 -15.8863,3.5164 -19.7738,9.1491 l -0.0672,0.1139 c -4.3494,-1.9598 -9.295,-2.9896 -14.3329,-2.9896 -15.6596,0 -28.3467,9.7612 -28.3467,21.805 -0.0084,0.9823 0.0839,1.9646 0.2519,2.9374 z"
       id="path15" />
  </g>
  <g
     style="font-size:20px;font-family:SansSerif;fill:#984807;stroke:#984807;stroke-width:0.75;stroke-linecap:butt;stroke-linejoin:round"
     id="g23"
     transform="translate(0.3750185,22.808288)">
    <text
       x="58.1231"
       xml:space="preserve"
       y="280.98669"
       style="stroke:none"
       id="text19">produkční </text>
    <text
       x="65.3545"
       xml:space="preserve"
       y="303.98471"
       style="stroke:none"
       id="text21">prostředí</text>
  </g>
  <g
     style="stroke-width:0.75;stroke-linecap:butt;stroke-linejoin:round"
     id="g49"
     transform="translate(0.3750185,0.31454765)">
    <path
       style="fill:none"
       d="m 30.4997,292.6987 c -9.3034,0.7403 -16.3649,6.8001 -16.3649,14.032 -0.0084,5.0064 3.4342,9.6427 9.0179,12.1719 l -0.0924,-0.1613 c -3.1739,2.6052 -4.9371,6.0361 -4.9371,9.5951 0,7.7587 8.195,14.0463 18.3044,14.0463 0.7053,0 1.419,-0.0332 2.1327,-0.0996 l -0.1007,0.0949 c 5.7768,7.7776 16.5076,12.5799 28.1284,12.5799 5.8775,-0.005 11.6544,-1.2385 16.6923,-3.578 l -0.0504,0.019 c 5.2562,6.0694 14.0978,9.7138 23.5691,9.7138 12.4856,-0.005 23.5103,-6.3113 27.1292,-15.5316 l 0.0252,0.1234 c 3.8624,1.8507 8.3126,2.833 12.8635,2.833 13.3337,-0.005 24.182,-8.2665 24.2828,-18.5165 l -0.042,-0.0474 c 14.0054,-1.5423 24.4171,-10.772 24.4171,-21.6532 0,-4.8213 -2.0739,-9.5049 -5.886,-13.3297 l -0.0587,-0.01 c 1.1923,-2.1496 1.8136,-4.4606 1.8136,-6.8001 0,-7.7824 -6.7676,-14.6062 -16.5076,-16.6515 l 0.0756,-0.0332 c -1.7465,-7.4503 -10.2018,-12.8695 -20.0677,-12.8695 -5.9952,-0.005 -11.6796,2.0216 -15.5588,5.5284 l 0.0336,0.0237 c -3.4594,-3.5021 -8.85,-5.5521 -14.568,-5.5521 -6.944,-0.005 -13.3001,3.0228 -16.3985,7.8062 l 0.0672,0.2325 c -4.1899,-3.1794 -9.8323,-4.9542 -15.7099,-4.9542 -8.279,-0.005 -15.8863,3.5164 -19.7738,9.1491 l -0.0672,0.1139 c -4.3494,-1.9598 -9.295,-2.9896 -14.3329,-2.9896 -15.6596,0 -28.3467,9.7612 -28.3467,21.805 -0.0084,0.9823 0.0839,1.9646 0.2519,2.9374 z"
       id="path25" />
    <path
       style="fill:none"
       d="m 23.1527,318.9026 c 2.796,1.267 5.9783,1.9361 9.2194,1.9361 0.4702,-0.005 0.9488,-0.0142 1.419,-0.0427"
       id="path27" />
    <path
       style="fill:none"
       d="m 38.5603,342.2831 c 1.5954,-0.1424 3.1571,-0.4461 4.6517,-0.9017"
       id="path29" />
    <path
       style="fill:none"
       d="m 80.4255,347.2704 c 0.7389,1.4474 1.6793,2.833 2.8044,4.1285"
       id="path31" />
    <path
       style="fill:none"
       d="m 133.9282,345.5811 c 0.5794,-1.4758 0.9488,-2.9943 1.1167,-4.5271"
       id="path33" />
    <path
       style="fill:none"
       d="m 171.0997,330.021 c 0,-0.0522 0.008,-0.0996 0.008,-0.1518 0,-7.1418 -5.3066,-13.6525 -13.6528,-16.7797"
       id="path35" />
    <path
       style="fill:none"
       d="m 183.451,301.3305 c 2.6365,-1.7273 4.7104,-3.9007 6.0791,-6.3493"
       id="path37" />
    <path
       style="fill:none"
       d="m 175.2308,274.4955 c 0,-0.076 0.008,-0.1472 0.008,-0.2231 0,-0.9301 -0.1092,-1.8602 -0.3275,-2.776"
       id="path39" />
    <path
       style="fill:none"
       d="m 139.2852,264.1553 c -1.2679,1.1531 -2.3175,2.4391 -3.1067,3.8247"
       id="path41" />
    <path
       style="fill:none"
       d="m 108.3523,266.4331 c -0.6801,1.0487 -1.1839,2.1544 -1.5113,3.298"
       id="path43" />
    <path
       style="fill:none"
       d="m 78.3263,274.1728 c -1.6457,-1.2338 -3.4761,-2.3063 -5.4577,-3.1984"
       id="path45" />
    <path
       style="fill:none"
       d="m 30.4409,292.7272 c 0.2015,1.1389 0.5206,2.2635 0.9572,3.3644"
       id="path47" />
  </g>
  <g
     style="fill:#ffffff;fill-opacity:0;stroke:#ffffff;stroke-width:1.5;stroke-linecap:butt;stroke-linejoin:round;stroke-dasharray:3, 3;stroke-opacity:0"
     id="g55"
     transform="translate(0.3750185,0.31454765)">
    <path
       style="stroke:none"
       d="M 206.875,219.002 H 518.75 V 491.1269 H 206.875 Z"
       id="path51" />
    <text
       x="214.075"
       y="361.30469"
       style="font-size:18px;font-family:Arial;stroke:none"
       xml:space="preserve"
       id="text53"> </text>
  </g>
  <g
     style="stroke-width:1.5;stroke-linecap:butt;stroke-linejoin:round;stroke-dasharray:3, 3"
     id="g59"
     transform="translate(0.3750185,0.31454765)">
    <path
       style="fill:none"
       d="M 206.875,219.002 H 518.75 V 491.1269 H 206.875 Z"
       id="path57" />
  </g>
  <g
     style="fill:#ffffcc;stroke:#ffffcc;stroke-width:0.75;stroke-linecap:butt;stroke-linejoin:round"
     id="g65"
     transform="translate(0.3750185,0.31454765)">
    <path
       style="stroke:none"
       d="m 575.8747,384.0561 v -4.8212 h 5.9996 v -7.4195 -10.3858 -17.8027 H 561.25 540.6257 v 17.8027 10.3858 7.4195 h 5.9996 v 4.8212 H 535.75 v 16.3208 h 25.5 25.5 v -16.3208 z m -29.2494,0 v -4.8212 h 29.2494 v 4.8212 h -29.2494 m 0,-10.7563 V 349.562 h 29.2494 v 23.7378 h -29.2494 m 22.1236,15.2069 v -1.8549 h 14.6271 v 1.8549 h -14.6271"
       id="path61" />
    <text
       x="542.95001"
       y="364.11069"
       style="font-size:18px;font-family:Arial;stroke:none"
       xml:space="preserve"
       id="text63"> </text>
  </g>
  <g
     style="stroke-width:0.75;stroke-linecap:butt;stroke-linejoin:round"
     id="g73"
     transform="translate(0.3750185,0.31454765)">
    <path
       style="fill:none"
       d="m 575.8747,384.0561 v -4.8212 h 5.9996 v -7.4195 -10.3858 -17.8027 H 561.25 540.6257 v 17.8027 10.3858 7.4195 h 5.9996 v 4.8212 H 535.75 v 16.3208 h 25.5 25.5 v -16.3208 z"
       id="path67" />
    <path
       style="fill:none"
       d="m 546.6253,384.0561 v -4.8212 h 29.2494 v 4.8212 h -29.2494"
       id="path69" />
    <path
       style="fill:none"
       d="M 546.6253,373.2998 V 349.562 h 29.2494 v 23.7378 h -29.2494 m 22.1236,15.2069 v -1.8549 h 14.6271 v 1.8549 h -14.6271"
       id="path71" />
  </g>
  <g
     style="fill:#ffffcc;stroke:#ffffcc;stroke-width:0.75;stroke-linecap:butt;stroke-linejoin:round"
     id="g79"
     transform="translate(0.3750185,0.31454765)">
    <path
       style="stroke:none"
       d="m 598.6247,389.8061 v -4.8212 h 5.9996 v -7.4195 -10.3858 -17.8027 H 584 563.3757 v 17.8027 10.3858 7.4195 h 5.9996 v 4.8212 H 558.5 v 16.3208 h 25.5 25.5 v -16.3208 z m -29.2494,0 v -4.8212 h 29.2494 v 4.8212 h -29.2494 m 0,-10.7563 V 355.312 h 29.2494 v 23.7378 h -29.2494 m 22.1236,15.2069 v -1.8549 h 14.6271 v 1.8549 h -14.6271"
       id="path75" />
    <text
       x="565.70001"
       y="369.86069"
       style="font-size:18px;font-family:Arial;stroke:none"
       xml:space="preserve"
       id="text77"> </text>
  </g>
  <g
     style="stroke-width:0.75;stroke-linecap:butt;stroke-linejoin:round"
     id="g87"
     transform="translate(0.3750185,0.31454765)">
    <path
       style="fill:none"
       d="m 598.6247,389.8061 v -4.8212 h 5.9996 v -7.4195 -10.3858 -17.8027 H 584 563.3757 v 17.8027 10.3858 7.4195 h 5.9996 v 4.8212 H 558.5 v 16.3208 h 25.5 25.5 v -16.3208 z"
       id="path81" />
    <path
       style="fill:none"
       d="m 569.3753,389.8061 v -4.8212 h 29.2494 v 4.8212 h -29.2494"
       id="path83" />
    <path
       style="fill:none"
       d="M 569.3753,379.0498 V 355.312 h 29.2494 v 23.7378 h -29.2494 m 22.1236,15.2069 v -1.8549 h 14.6271 v 1.8549 h -14.6271"
       id="path85" />
  </g>
  <g
     style="fill:#ffffcc;stroke:#ffffcc;stroke-width:0.75;stroke-linecap:butt;stroke-linejoin:round"
     id="g93"
     transform="translate(0.3750185,0.31454765)">
    <path
       style="stroke:none"
       d="M 621.2498,395.4311 V 390.61 h 5.9995 v -7.4196 -10.3857 -17.8027 h -20.6242 -20.6244 v 17.8027 10.3857 7.4196 h 5.9996 v 4.8211 h -10.8752 v 16.3209 h 25.5 25.5 v -16.3209 z m -29.2495,0 V 390.61 h 29.2495 v 4.8211 h -29.2495 m 0,-10.7562 v -23.7378 h 29.2495 v 23.7378 h -29.2495 m 22.1236,15.2069 v -1.8549 h 14.6271 v 1.8549 h -14.6271"
       id="path89" />
    <text
       x="588.32501"
       y="375.48569"
       style="font-size:18px;font-family:Arial;stroke:none"
       xml:space="preserve"
       id="text91"> </text>
  </g>
  <g
     style="stroke-width:0.75;stroke-linecap:butt;stroke-linejoin:round"
     id="g101"
     transform="translate(0.3750185,0.31454765)">
    <path
       style="fill:none"
       d="M 621.2498,395.4311 V 390.61 h 5.9995 v -7.4196 -10.3857 -17.8027 h -20.6242 -20.6244 v 17.8027 10.3857 7.4196 h 5.9996 v 4.8211 h -10.8752 v 16.3209 h 25.5 25.5 v -16.3209 z"
       id="path95" />
    <path
       style="fill:none"
       d="M 592.0003,395.4311 V 390.61 h 29.2495 v 4.8211 h -29.2495"
       id="path97" />
    <path
       style="fill:none"
       d="m 592.0003,384.6749 v -23.7378 h 29.2495 v 23.7378 h -29.2495 m 22.1236,15.2069 v -1.8549 h 14.6271 v 1.8549 h -14.6271"
       id="path99" />
  </g>
  <g
     style="fill:#4f81bd;stroke:#4f81bd;stroke-width:0.75;stroke-linecap:butt;stroke-linejoin:round"
     id="g105"
     transform="translate(0.3750185,0.31454765)">
    <path
       style="stroke:none"
       d="m 535.75,309.6269 h 113.3751 v 28.25 H 535.75 Z"
       id="path103" />
  </g>
  <g
     style="font-size:18px;font-family:SansSerif;stroke-width:0.75;stroke-linecap:butt;stroke-linejoin:round"
     id="g109"
     transform="translate(0.3750185,0.31454765)">
    <text
       x="556.9165"
       xml:space="preserve"
       y="329.99219"
       style="stroke:none"
       id="text107">uživatelé</text>
  </g>
  <g
     style="stroke-width:0.75;stroke-linecap:butt;stroke-linejoin:round"
     id="g113"
     transform="translate(0.3750185,0.31454765)">
    <path
       style="fill:none"
       d="m 535.75,309.6269 h 113.3751 v 28.25 H 535.75 Z"
       id="path111" />
  </g>
  <g
     style="fill:#4f81bd;stroke:#4f81bd;stroke-width:0.75;stroke-linecap:butt;stroke-linejoin:round"
     id="g119"
     transform="translate(0.3750185,0.31454765)">
    <path
       style="stroke:none"
       d="m 331.625,376.2989 v 0 c 0,5.4797 16.1178,9.922 36,9.922 19.8823,0 36,-4.4423 36,-9.922 V 435.83 c 0,5.4798 -16.1177,9.922 -36,9.922 -19.8822,0 -36,-4.4422 -36,-9.922 z"
       id="path115" />
    <text
       x="365.12451"
       y="412.30469"
       style="font-size:18px;font-family:Arial;stroke:none"
       xml:space="preserve"
       id="text117"> </text>
  </g>
  <g
     style="stroke-width:0.75;stroke-linecap:butt;stroke-linejoin:round"
     id="g123"
     transform="translate(0.3750185,0.31454765)">
    <path
       style="fill:none"
       d="m 403.625,376.2989 c 0,5.4797 -16.1177,9.922 -36,9.922 -19.8822,0 -36,-4.4423 -36,-9.922 v 0 c 0,-5.4797 16.1178,-9.922 36,-9.922 19.8823,0 36,4.4423 36,9.922 V 435.83 c 0,5.4798 -16.1177,9.922 -36,9.922 -19.8822,0 -36,-4.4422 -36,-9.922 v -59.5311"
       id="path121" />
  </g>
  <g
     style="fill:#4f81bd;fill-opacity:0.5294;stroke:#4f81bd;stroke-width:2;stroke-linecap:butt;stroke-linejoin:round;stroke-opacity:0.5294"
     id="g127"
     transform="translate(0.3750185,0.31454765)">
    <path
       style="stroke:none"
       d="M 223.875,235.8887 H 394.0194 V 343.6269 H 223.875 Z"
       id="path125" />
  </g>
  <g
     style="font-size:18px;font-family:SansSerif;stroke-width:2;stroke-linecap:butt;stroke-linejoin:round"
     id="g137"
     transform="translate(0.3750185,0.31454765)">
    <text
       x="231.075"
       xml:space="preserve"
       y="249.6963"
       style="stroke:none"
       id="text129">Extrakce</text>
    <text
       x="231.075"
       xml:space="preserve"
       y="274.20901"
       style="stroke:none"
       id="text131">Transformace</text>
    <text
       x="231.075"
       xml:space="preserve"
       y="298.72159"
       style="stroke:none"
       id="text133">Zavedení (Loading)</text>
    <text
       x="231.075"
       y="338.875"
       style="font-size:32px;fill:#ff0000;stroke:none"
       xml:space="preserve"
       id="text135">ETL</text>
  </g>
  <g
     style="fill:#002060;stroke:#002060;stroke-width:2;stroke-linecap:butt;stroke-linejoin:round"
     id="g141"
     transform="translate(0.3750185,0.31454765)">
    <path
       style="fill:none"
       d="M 223.875,235.8887 H 394.0194 V 343.6269 H 223.875 Z"
       id="path139" />
  </g>
  <g
     style="fill:#ffffff;fill-opacity:0;stroke:#ffffff;stroke-width:0.25;stroke-linecap:butt;stroke-linejoin:round;stroke-opacity:0"
     id="g145"
     transform="translate(0.3750185,0.31454765)">
    <path
       style="stroke:none"
       d="m 303.3008,451.3769 h 123.5953 v 29.0813 H 303.3008 Z"
       id="path143" />
  </g>
  <g
     style="font-size:18px;font-family:SansSerif;stroke-width:0.25;stroke-linecap:butt;stroke-linejoin:round"
     id="g149"
     transform="translate(0.3750185,0.31454765)">
    <text
       x="310.50079"
       xml:space="preserve"
       y="471.86069"
       style="stroke:none"
       id="text147">datový sklad</text>
  </g>
  <g
     style="fill:#ffffff;fill-opacity:0;stroke:#ffffff;stroke-width:0.25;stroke-linecap:butt;stroke-linejoin:round;stroke-opacity:0"
     id="g153"
     transform="translate(0.3750185,0.31454765)">
    <path
       style="fill:none"
       d="m 303.3008,451.3769 h 123.5953 v 29.0813 H 303.3008 Z"
       id="path151" />
  </g>
  <g
     style="fill:#4f81bd;fill-opacity:0.5294;stroke:#4f81bd;stroke-width:2;stroke-linecap:butt;stroke-linejoin:round;stroke-opacity:0.5294"
     id="g157"
     transform="translate(0.3750185,0.31454765)">
    <path
       style="stroke:none"
       d="M 422.375,287.002 H 479 v 51 h -56.625 z"
       id="path155" />
  </g>
  <g
     style="font-size:18px;font-family:SansSerif;stroke-width:2;stroke-linecap:butt;stroke-linejoin:round"
     id="g161"
     transform="translate(-6.986569,0.31454765)">
    <text
       x="435.17581"
       xml:space="preserve"
       y="310.24219"
       style="stroke:none"
       id="text159">OLAP</text>
  </g>
  <g
     style="fill:#002060;stroke:#002060;stroke-width:2;stroke-linecap:butt;stroke-linejoin:round"
     id="g165"
     transform="translate(0.3750185,0.31454765)">
    <path
       style="fill:none"
       d="m 422.375,287.002 17,-17 H 496 v 51 l -17,17 h -56.625 z m 0,0 H 479 l 17,-17 m -17,17 v 51"
       id="path163" />
  </g>
  <g
     transform="matrix(1,0,0,-1,0.3750185,795.60825)"
     style="fill:#4f81bd;stroke:#4f81bd;stroke-width:2;stroke-linecap:butt;stroke-linejoin:round"
     id="g171">
    <path
       style="stroke:none"
       d="m 255.4389,440.2917 v -47.6125 c 0,-15.0699 12.2166,-27.2865 27.2865,-27.2865 h 19.4904 V 355.002 l 15.5922,15.5922 -15.5922,15.5923 v -10.3907 h -19.4904 c -9.3244,0 -16.8833,7.559 -16.8833,16.8834 v 47.6125 z"
       id="path167" />
    <text
       x="284.12299"
       y="403.88708"
       transform="matrix(-1,0,0,1,573.2469,0)"
       style="font-size:18px;font-family:Arial;stroke:none"
       xml:space="preserve"
       id="text169"> </text>
  </g>
  <g
     transform="matrix(1,0,0,-1,0.3750185,795.60825)"
     style="fill:#385d8a;stroke:#385d8a;stroke-width:2;stroke-linecap:butt;stroke-linejoin:round"
     id="g175">
    <path
       style="fill:none"
       d="m 255.4389,440.2917 v -47.6125 c 0,-15.0699 12.2166,-27.2865 27.2865,-27.2865 h 19.4904 V 355.002 l 15.5922,15.5922 -15.5922,15.5923 v -10.3907 h -19.4904 c -9.3244,0 -16.8833,7.559 -16.8833,16.8834 v 47.6125 z"
       id="path173" />
  </g>
  <g
     transform="matrix(0,-1,-1,0,855.09562,855.03515)"
     style="fill:#4f81bd;stroke:#4f81bd;stroke-width:2;stroke-linecap:butt;stroke-linejoin:round"
     id="g181">
    <path
       style="stroke:none"
       d="m 423.3606,424.2405 v -19.4843 c 0,-10.9019 8.8378,-19.7396 19.7397,-19.7396 h 28.3387 v -5.8953 l 11.2798,11.2798 -11.2798,11.2798 v -5.8953 h -28.3387 v 0 c -4.9544,0 -8.9706,4.0163 -8.9706,8.9706 v 19.4843 z"
       id="path177" />
    <text
       x="450.53922"
       y="407.92111"
       transform="matrix(-1,0,0,1,906.0793,0)"
       style="font-size:18px;font-family:Arial;stroke:none"
       xml:space="preserve"
       id="text179"> </text>
  </g>
  <g
     transform="matrix(0,-1,-1,0,855.09562,855.03515)"
     style="fill:#385d8a;stroke:#385d8a;stroke-width:2;stroke-linecap:butt;stroke-linejoin:round"
     id="g185">
    <path
       style="fill:none"
       d="m 423.3606,424.2405 v -19.4843 c 0,-10.9019 8.8378,-19.7396 19.7397,-19.7396 h 28.3387 v -5.8953 l 11.2798,11.2798 -11.2798,11.2798 v -5.8953 h -28.3387 v 0 c -4.9544,0 -8.9706,4.0163 -8.9706,8.9706 v 19.4843 z"
       id="path183" />
  </g>
  <path
     style="fill:none;fill-rule:evenodd;stroke:#000000;stroke-width:1.99997;stroke-linecap:butt;stroke-linejoin:miter;stroke-dasharray:none;stroke-opacity:1;marker-end:url(#Arrow2)"
     d="m 189.58597,296.68017 h 24.9476"
     id="path4087" />
  <path
     style="font-style:normal;font-weight:normal;font-size:12px;font-family:Dialog;color-interpolation:auto;fill:none;fill-opacity:1;fill-rule:evenodd;stroke:#000000;stroke-width:1.99997;stroke-linecap:butt;stroke-linejoin:miter;stroke-miterlimit:10;stroke-dasharray:none;stroke-dashoffset:0;stroke-opacity:1;marker-end:url(#Arrow2-3);color-rendering:auto;image-rendering:auto;shape-rendering:auto;text-rendering:auto"
     d="m 520.07869,300.36096 h 24.9476"
     id="path4087-7" />
</svg>
