<?xml version="1.0" encoding="UTF-8"?>
<svg viewBox="0 0 700 380" width="700" height="380"
     font-family="sans-serif" font-size="13" fill="#1f2937"
     xmlns="http://www.w3.org/2000/svg">
  <defs>
    <marker id="arr" markerWidth="10" markerHeight="7" refX="9" refY="3.5" orient="auto">
      <polygon points="0 0, 10 3.5, 0 7" fill="#4b5563"/>
    </marker>
    <marker id="arr2" markerWidth="10" markerHeight="7" refX="1" refY="3.5" orient="auto">
      <polygon points="10 0, 0 3.5, 10 7" fill="#4b5563"/>
    </marker>
  </defs>

  <!-- Nástroje pro definici procesů – nahoře -->
  <rect x="240" y="10" width="220" height="55" rx="8" fill="#f3e8ff" stroke="#9333ea" stroke-width="2"/>
  <text x="350" y="35" text-anchor="middle" font-weight="bold">Nástroje pro definici</text>
  <text x="350" y="53" text-anchor="middle">procesů</text>
  <text x="350" y="78" text-anchor="middle" font-size="11" fill="#6b7280">Rozhraní 1</text>

  <!-- WES – střed -->
  <rect x="175" y="110" width="350" height="145" rx="10" fill="#dbeafe" stroke="#3b82f6" stroke-width="2.5"/>
  <text x="350" y="133" text-anchor="middle" font-weight="bold" font-size="14">WES</text>
  <text x="350" y="151" text-anchor="middle" font-size="11" fill="#4b5563">(Workflow Enactment Service)</text>
  <!-- Workflow engine vrstvy -->
  <rect x="215" y="158" width="120" height="75" rx="6" fill="white" stroke="#3b82f6" stroke-width="1.5"/>
  <rect x="230" y="168" width="120" height="75" rx="6" fill="white" stroke="#3b82f6" stroke-width="1.5"/>
  <rect x="245" y="178" width="120" height="65" rx="6" fill="#bfdbfe" stroke="#3b82f6" stroke-width="1.5"/>
  <text x="305" y="212" text-anchor="middle" font-weight="bold" font-size="13">Workflow</text>
  <text x="305" y="230" text-anchor="middle" font-weight="bold" font-size="13">engine</text>

  <!-- Šipka Rozhraní 1 -->
  <line x1="350" y1="65" x2="350" y2="108" stroke="#4b5563" stroke-width="2" marker-end="url(#arr)"/>
  <line x1="350" y1="90" x2="350" y2="65" stroke="#4b5563" stroke-width="2" marker-end="url(#arr2)"/>

  <!-- Administrativní – vlevo -->
  <rect x="10" y="145" width="150" height="75" rx="8" fill="#dcfce7" stroke="#16a34a" stroke-width="2"/>
  <text x="85" y="175" text-anchor="middle" font-weight="bold">Administrativní</text>
  <text x="85" y="193" text-anchor="middle">a monitorovací</text>
  <text x="85" y="211" text-anchor="middle">nástroje</text>
  <text x="85" y="234" text-anchor="middle" font-size="11" fill="#6b7280">Rozhraní 5</text>

  <!-- Šipka Rozhraní 5 -->
  <line x1="160" y1="182" x2="173" y2="182" stroke="#4b5563" stroke-width="2" marker-end="url(#arr)"/>
  <line x1="173" y1="195" x2="160" y2="195" stroke="#4b5563" stroke-width="2" marker-end="url(#arr)"/>

  <!-- Další WES – vpravo -->
  <rect x="540" y="145" width="150" height="75" rx="8" fill="#fef9c3" stroke="#ca8a04" stroke-width="2"/>
  <text x="615" y="183" text-anchor="middle" font-weight="bold">Další WES</text>
  <text x="615" y="234" text-anchor="middle" font-size="11" fill="#6b7280">Rozhraní 4</text>

  <!-- Šipka Rozhraní 4 -->
  <line x1="527" y1="182" x2="538" y2="182" stroke="#4b5563" stroke-width="2" marker-end="url(#arr)"/>
  <line x1="538" y1="195" x2="527" y2="195" stroke="#4b5563" stroke-width="2" marker-end="url(#arr)"/>

  <!-- Klientské aplikace – dole vlevo -->
  <rect x="110" y="300" width="160" height="65" rx="8" fill="#fee2e2" stroke="#ef4444" stroke-width="2"/>
  <text x="190" y="325" text-anchor="middle" font-weight="bold">Klientská aplikace</text>
  <text x="190" y="343" text-anchor="middle">workflow</text>
  <text x="190" y="376" text-anchor="middle" font-size="11" fill="#6b7280">Rozhraní 2</text>

  <!-- Šipka Rozhraní 2 -->
  <line x1="250" y1="257" x2="230" y2="298" stroke="#4b5563" stroke-width="2" marker-end="url(#arr)"/>
  <line x1="220" y1="290" x2="240" y2="250" stroke="#4b5563" stroke-width="2" marker-end="url(#arr)"/>

  <!-- Vyvolaná aplikace – dole vpravo -->
  <rect x="430" y="300" width="160" height="65" rx="8" fill="#f3e8ff" stroke="#9333ea" stroke-width="2"/>
  <text x="510" y="325" text-anchor="middle" font-weight="bold">Vyvolaná</text>
  <text x="510" y="343" text-anchor="middle">aplikace</text>
  <text x="510" y="376" text-anchor="middle" font-size="11" fill="#6b7280">Rozhraní 3</text>

  <!-- Šipka Rozhraní 3 -->
  <line x1="420" y1="255" x2="470" y2="298" stroke="#4b5563" stroke-width="2" marker-end="url(#arr)"/>
  <line x1="475" y1="290" x2="425" y2="248" stroke="#4b5563" stroke-width="2" marker-end="url(#arr)"/>
</svg>
