<?xml version="1.0" encoding="UTF-8" standalone="no"?>
<!-- Created with Inkscape (http://www.inkscape.org/) -->

<svg
   xmlns:dc="http://purl.org/dc/elements/1.1/"
   xmlns:cc="http://creativecommons.org/ns#"
   xmlns:rdf="http://www.w3.org/1999/02/22-rdf-syntax-ns#"
   xmlns:svg="http://www.w3.org/2000/svg"
   xmlns="http://www.w3.org/2000/svg"
   xmlns:sodipodi="http://sodipodi.sourceforge.net/DTD/sodipodi-0.dtd"
   xmlns:inkscape="http://www.inkscape.org/namespaces/inkscape"
   version="1.1"
   id="svg2"
   xml:space="preserve"
   width="1151.6799"
   height="644.79999"
   viewBox="0 0 1151.6799 644.79999"
   sodipodi:docname="dom_navig.svg"
   inkscape:version="0.92.5 (2060ec1f9f, 2020-04-08)"><metadata
     id="metadata8"><rdf:RDF><cc:Work
         rdf:about=""><dc:format>image/svg+xml</dc:format><dc:type
           rdf:resource="http://purl.org/dc/dcmitype/StillImage" /><dc:title></dc:title></cc:Work></rdf:RDF></metadata><defs
     id="defs6"><clipPath
       clipPathUnits="userSpaceOnUse"
       id="clipPath18"><path
         d="M 0,1.8311e-4 H 1023.96 V 768.00018 H 0 Z"
         id="path16"
         inkscape:connector-curvature="0"
         style="clip-rule:evenodd" /></clipPath><clipPath
       clipPathUnits="userSpaceOnUse"
       id="clipPath28"><path
         d="M -6.5e-8,1.8311e-4 H 1023.96 V 768.00018 H -6.5e-8 Z"
         id="path26"
         inkscape:connector-curvature="0"
         style="clip-rule:evenodd" /></clipPath><clipPath
       clipPathUnits="userSpaceOnUse"
       id="clipPath38"><path
         d="M 0,2.4414e-4 H 1023.96 V 768.00024 H 0 Z"
         id="path36"
         inkscape:connector-curvature="0"
         style="clip-rule:evenodd" /></clipPath><clipPath
       clipPathUnits="userSpaceOnUse"
       id="clipPath48"><path
         d="M 1.5258e-5,0 H 1023.96 V 768 H 1.5258e-5 Z"
         id="path46"
         inkscape:connector-curvature="0"
         style="clip-rule:evenodd" /></clipPath><clipPath
       clipPathUnits="userSpaceOnUse"
       id="clipPath102"><path
         d="M 1.5258e-5,0 H 1023.96 V 768 H 1.5258e-5 Z"
         id="path100"
         inkscape:connector-curvature="0"
         style="clip-rule:evenodd" /></clipPath><clipPath
       clipPathUnits="userSpaceOnUse"
       id="clipPath118"><path
         d="M 1.5258e-5,0 H 1023.96 V 768 H 1.5258e-5 Z"
         id="path116"
         inkscape:connector-curvature="0"
         style="clip-rule:evenodd" /></clipPath><clipPath
       clipPathUnits="userSpaceOnUse"
       id="clipPath134"><path
         d="M 1.5258e-5,0 H 1023.96 V 768 H 1.5258e-5 Z"
         id="path132"
         inkscape:connector-curvature="0"
         style="clip-rule:evenodd" /></clipPath><clipPath
       clipPathUnits="userSpaceOnUse"
       id="clipPath150"><path
         d="M 1.5258e-5,0 H 1023.96 V 768 H 1.5258e-5 Z"
         id="path148"
         inkscape:connector-curvature="0"
         style="clip-rule:evenodd" /></clipPath><clipPath
       clipPathUnits="userSpaceOnUse"
       id="clipPath166"><path
         d="M 1.5258e-5,0 H 1023.96 V 768 H 1.5258e-5 Z"
         id="path164"
         inkscape:connector-curvature="0"
         style="clip-rule:evenodd" /></clipPath><clipPath
       clipPathUnits="userSpaceOnUse"
       id="clipPath182"><path
         d="M 1.5258e-5,0 H 1023.96 V 768 H 1.5258e-5 Z"
         id="path180"
         inkscape:connector-curvature="0"
         style="clip-rule:evenodd" /></clipPath><clipPath
       clipPathUnits="userSpaceOnUse"
       id="clipPath198"><path
         d="M 1.5258e-5,0 H 1023.96 V 768 H 1.5258e-5 Z"
         id="path196"
         inkscape:connector-curvature="0"
         style="clip-rule:evenodd" /></clipPath><clipPath
       clipPathUnits="userSpaceOnUse"
       id="clipPath226"><path
         d="M 1.5258e-5,0 H 1023.96 V 768 H 1.5258e-5 Z"
         id="path224"
         inkscape:connector-curvature="0"
         style="clip-rule:evenodd" /></clipPath><clipPath
       clipPathUnits="userSpaceOnUse"
       id="clipPath238"><path
         d="M 1.5258e-5,0 H 1023.96 V 768 H 1.5258e-5 Z"
         id="path236"
         inkscape:connector-curvature="0"
         style="clip-rule:evenodd" /></clipPath><clipPath
       clipPathUnits="userSpaceOnUse"
       id="clipPath250"><path
         d="M 1.5258e-5,0 H 1023.96 V 768 H 1.5258e-5 Z"
         id="path248"
         inkscape:connector-curvature="0"
         style="clip-rule:evenodd" /></clipPath><clipPath
       clipPathUnits="userSpaceOnUse"
       id="clipPath262"><path
         d="M 1.5258e-5,0 H 1023.96 V 768 H 1.5258e-5 Z"
         id="path260"
         inkscape:connector-curvature="0"
         style="clip-rule:evenodd" /></clipPath></defs><sodipodi:namedview
     pagecolor="#ffffff"
     bordercolor="#666666"
     borderopacity="1"
     objecttolerance="10"
     gridtolerance="10"
     guidetolerance="10"
     inkscape:pageopacity="0"
     inkscape:pageshadow="2"
     inkscape:window-width="1920"
     inkscape:window-height="1028"
     id="namedview4"
     showgrid="false"
     fit-margin-top="0"
     fit-margin-left="0"
     fit-margin-right="0"
     fit-margin-bottom="0"
     inkscape:zoom="0.65186406"
     inkscape:cx="536.08002"
     inkscape:cy="279.84012"
     inkscape:window-x="0"
     inkscape:window-y="0"
     inkscape:window-maximized="1"
     inkscape:current-layer="g10" /><g
     id="g10"
     inkscape:groupmode="layer"
     inkscape:label="p06_Vizualizace_serializace"
     transform="matrix(1.3333333,0,0,-1.3333333,-146.56,786.07998)"><path
       d="m 110.94,379.68 c 0,16.47 13.38,29.82 29.88,29.82 16.5,0 29.88,-13.35 29.88,-29.82 0,-16.47 -13.38,-29.82 -29.88,-29.82 -16.5,0 -29.88,13.35 -29.88,29.82 z"
       style="fill:#66ff66;fill-opacity:1;fill-rule:evenodd;stroke:none"
       id="path58"
       inkscape:connector-curvature="0" /><path
       d="m 110.94,379.68 c 0,16.47 13.38,29.82 29.88,29.82 16.5,0 29.88,-13.35 29.88,-29.82 0,-16.47 -13.38,-29.82 -29.88,-29.82 -16.5,0 -29.88,13.35 -29.88,29.82 z"
       style="fill:none;stroke:#000000;stroke-width:2.03999996;stroke-linecap:butt;stroke-linejoin:round;stroke-miterlimit:10;stroke-dasharray:none;stroke-opacity:1"
       id="path60"
       inkscape:connector-curvature="0" /><path
       d="m 332.82,354.06 c 0,16.5 13.38,29.88 29.88,29.88 16.5,0 29.88,-13.38 29.88,-29.88 0,-16.5 -13.38,-29.88 -29.88,-29.88 -16.5,0 -29.88,13.38 -29.88,29.88 z"
       style="fill:#ff0000;fill-opacity:1;fill-rule:evenodd;stroke:none"
       id="path62"
       inkscape:connector-curvature="0" /><path
       d="m 332.82,354.06 c 0,16.5 13.38,29.88 29.88,29.88 16.5,0 29.88,-13.38 29.88,-29.88 0,-16.5 -13.38,-29.88 -29.88,-29.88 -16.5,0 -29.88,13.38 -29.88,29.88 z"
       style="fill:none;stroke:#000000;stroke-width:2.03999996;stroke-linecap:butt;stroke-linejoin:round;stroke-miterlimit:10;stroke-dasharray:none;stroke-opacity:1"
       id="path64"
       inkscape:connector-curvature="0" /><path
       d="m 324.3,200.46 c 0,16.5 13.38,29.88 29.88,29.88 16.5,0 29.88,-13.38 29.88,-29.88 0,-16.5 -13.38,-29.88 -29.88,-29.88 -16.5,0 -29.88,13.38 -29.88,29.88 z"
       style="fill:#66ff66;fill-opacity:1;fill-rule:evenodd;stroke:none"
       id="path66"
       inkscape:connector-curvature="0" /><path
       d="m 324.3,200.46 c 0,16.5 13.38,29.88 29.88,29.88 16.5,0 29.88,-13.38 29.88,-29.88 0,-16.5 -13.38,-29.88 -29.88,-29.88 -16.5,0 -29.88,13.38 -29.88,29.88 z"
       style="fill:none;stroke:#000000;stroke-width:2.03999996;stroke-linecap:butt;stroke-linejoin:round;stroke-miterlimit:10;stroke-dasharray:none;stroke-opacity:1"
       id="path68"
       inkscape:connector-curvature="0" /><path
       d="m 563.22,388.2 c 0,16.47 13.38,29.82 29.88,29.82 16.5,0 29.88,-13.35 29.88,-29.82 0,-16.47 -13.38,-29.82 -29.88,-29.82 -16.5,0 -29.88,13.35 -29.88,29.82 z"
       style="fill:#66ff66;fill-opacity:1;fill-rule:evenodd;stroke:none"
       id="path70"
       inkscape:connector-curvature="0" /><path
       d="m 563.22,388.2 c 0,16.47 13.38,29.82 29.88,29.82 16.5,0 29.88,-13.35 29.88,-29.82 0,-16.47 -13.38,-29.82 -29.88,-29.82 -16.5,0 -29.88,13.35 -29.88,29.82 z"
       style="fill:none;stroke:#000000;stroke-width:2.03999996;stroke-linecap:butt;stroke-linejoin:round;stroke-miterlimit:10;stroke-dasharray:none;stroke-opacity:1"
       id="path72"
       inkscape:connector-curvature="0" /><path
       d="m 332.82,490.62 c 0,16.5 13.38,29.88 29.88,29.88 16.5,0 29.88,-13.38 29.88,-29.88 0,-16.5 -13.38,-29.88 -29.88,-29.88 -16.5,0 -29.88,13.38 -29.88,29.88 z"
       style="fill:#66ff66;fill-opacity:1;fill-rule:evenodd;stroke:none"
       id="path74"
       inkscape:connector-curvature="0" /><path
       d="m 332.82,490.62 c 0,16.5 13.38,29.88 29.88,29.88 16.5,0 29.88,-13.38 29.88,-29.88 0,-16.5 -13.38,-29.88 -29.88,-29.88 -16.5,0 -29.88,13.38 -29.88,29.88 z"
       style="fill:none;stroke:#000000;stroke-width:2.03999996;stroke-linecap:butt;stroke-linejoin:round;stroke-miterlimit:10;stroke-dasharray:none;stroke-opacity:1"
       id="path76"
       inkscape:connector-curvature="0" /><path
       d="m 563.22,243.18 c 0,16.5 13.38,29.88 29.88,29.88 16.5,0 29.88,-13.38 29.88,-29.88 0,-16.5 -13.38,-29.88 -29.88,-29.88 -16.5,0 -29.88,13.38 -29.88,29.88 z"
       style="fill:#66ff66;fill-opacity:1;fill-rule:evenodd;stroke:none"
       id="path78"
       inkscape:connector-curvature="0" /><path
       d="m 563.22,243.18 c 0,16.5 13.38,29.88 29.88,29.88 16.5,0 29.88,-13.38 29.88,-29.88 0,-16.5 -13.38,-29.88 -29.88,-29.88 -16.5,0 -29.88,13.38 -29.88,29.88 z"
       style="fill:none;stroke:#000000;stroke-width:2.03999996;stroke-linecap:butt;stroke-linejoin:round;stroke-miterlimit:10;stroke-dasharray:none;stroke-opacity:1"
       id="path80"
       inkscape:connector-curvature="0" /><path
       d="m 171.4,391.13 155.48,81.83 -1.4,2.65 L 170,393.79 Z m 155.55,78.48 5.87,8.17 -10.06,-0.21 z"
       style="fill:#990033;fill-opacity:1;fill-rule:nonzero;stroke:none"
       id="path82"
       inkscape:connector-curvature="0" /><path
       d="m 170.86,376.91 154.66,-16.25 -0.32,-2.99 -154.66,16.26 z m 153.48,-13.11 8.48,-5.42 -9.42,-3.53 z"
       style="fill:#990033;fill-opacity:1;fill-rule:nonzero;stroke:none"
       id="path84"
       inkscape:connector-curvature="0" /><path
       d="m 154.6,351.03 164.78,-131.87 -1.87,-2.34 -164.79,131.87 z m 165.48,-128.59 4.22,-9.14 -9.84,2.11 z"
       style="fill:#990033;fill-opacity:1;fill-rule:nonzero;stroke:none"
       id="path86"
       inkscape:connector-curvature="0" /><path
       d="m 392.8,356.9 163.22,24.45 -0.44,2.96 -163.22,-24.45 z m 162.19,21.26 8.23,5.78 -9.57,3.12 z"
       style="fill:#990033;fill-opacity:1;fill-rule:nonzero;stroke:none"
       id="path88"
       inkscape:connector-curvature="0" /><path
       d="m 393.25,342.56 163.93,-81.96 -1.34,-2.69 -163.93,81.97 z m 163.93,-78.61 6.04,-8.05 h -10.06 z"
       style="fill:#990033;fill-opacity:1;fill-rule:nonzero;stroke:none"
       id="path90"
       inkscape:connector-curvature="0" /><path
       d="m 153.66,550.5 h 255.96 v 38.28 H 153.66 Z"
       style="fill:#ffffff;fill-opacity:1;fill-rule:evenodd;stroke:none"
       id="path92"
       inkscape:connector-curvature="0" /><path
       d="m 153.66,550.5 h 255.96 v 38.28 H 153.66 Z"
       style="fill:none;stroke:#000000;stroke-width:1.55999994;stroke-linecap:butt;stroke-linejoin:miter;stroke-miterlimit:8;stroke-dasharray:none;stroke-opacity:1"
       id="path94"
       inkscape:connector-curvature="0" /><g
       id="g96"><g
         id="g98"
         clip-path="url(#clipPath102)"><text
           transform="matrix(1,0,0,-1,215.83,559.73)"
           style="font-variant:normal;font-weight:normal;font-size:25.55999947px;font-family:Tahoma;-inkscape-font-specification:Tahoma;writing-mode:lr-tb;fill:#000000;fill-opacity:1;fill-rule:nonzero;stroke:none"
           id="text106"><tspan
             x="0 14.13468 27.55368 36.8064 50.250961 64.513443 73.050484 90.098999 103.97808 118.11276"
             y="0"
             sodipodi:role="line"
             id="tspan104">parentNode</tspan></text>
</g></g><path
       d="M 716.82,277.38 H 972.9 v 38.28 H 716.82 Z"
       style="fill:#ffffff;fill-opacity:1;fill-rule:evenodd;stroke:none"
       id="path108"
       inkscape:connector-curvature="0" /><path
       d="M 716.82,277.38 H 972.9 v 38.28 H 716.82 Z"
       style="fill:none;stroke:#000000;stroke-width:1.55999994;stroke-linecap:butt;stroke-linejoin:miter;stroke-miterlimit:8;stroke-dasharray:none;stroke-opacity:1"
       id="path110"
       inkscape:connector-curvature="0" /><g
       id="g112"><g
         id="g114"
         clip-path="url(#clipPath118)"><text
           transform="matrix(1,0,0,-1,783.91,286.63)"
           style="font-variant:normal;font-weight:normal;font-size:25.58399963px;font-family:Tahoma;-inkscape-font-specification:Tahoma;writing-mode:lr-tb;fill:#000000;fill-opacity:1;fill-rule:nonzero;stroke:none"
           id="text122"><tspan
             x="0 11.794224 26.070095 31.928831 37.787567 51.93552 69.000046 82.892159 97.040115 110.4973"
             y="0"
             sodipodi:role="line"
             id="tspan120">childNodes</tspan></text>
</g></g><path
       d="M 716.82,192.06 H 972.9 v 38.28 H 716.82 Z"
       style="fill:#ffffff;fill-opacity:1;fill-rule:evenodd;stroke:none"
       id="path124"
       inkscape:connector-curvature="0" /><path
       d="M 716.82,192.06 H 972.9 v 38.28 H 716.82 Z"
       style="fill:none;stroke:#000000;stroke-width:1.55999994;stroke-linecap:butt;stroke-linejoin:miter;stroke-miterlimit:8;stroke-dasharray:none;stroke-opacity:1"
       id="path126"
       inkscape:connector-curvature="0" /><g
       id="g128"><g
         id="g130"
         clip-path="url(#clipPath134)"><text
           transform="matrix(1,0,0,-1,797.47,201.29)"
           style="font-variant:normal;font-weight:normal;font-size:25.58399963px;font-family:Tahoma;-inkscape-font-specification:Tahoma;writing-mode:lr-tb;fill:#000000;fill-opacity:1;fill-rule:nonzero;stroke:none"
           id="text138"><tspan
             x="0 5.858736 19.290337 30.7008 39.245857 54.621841 68.897713 74.756447 80.615181"
             y="0"
             sodipodi:role="line"
             id="tspan136">lastChild</tspan></text>
</g></g><path
       d="M 716.82,106.74 H 972.9 v 38.28 H 716.82 Z"
       style="fill:#ffffff;fill-opacity:1;fill-rule:evenodd;stroke:none"
       id="path140"
       inkscape:connector-curvature="0" /><path
       d="M 716.82,106.74 H 972.9 v 38.28 H 716.82 Z"
       style="fill:none;stroke:#000000;stroke-width:1.55999994;stroke-linecap:butt;stroke-linejoin:miter;stroke-miterlimit:8;stroke-dasharray:none;stroke-opacity:1"
       id="path142"
       inkscape:connector-curvature="0" /><g
       id="g144"><g
         id="g146"
         clip-path="url(#clipPath150)"><text
           transform="matrix(1,0,0,-1,783.19,115.92)"
           style="font-variant:normal;font-weight:normal;font-size:25.55999947px;font-family:Tahoma;-inkscape-font-specification:Tahoma;writing-mode:lr-tb;fill:#000000;fill-opacity:1;fill-rule:nonzero;stroke:none"
           id="text154"><tspan
             x="0 14.26248 27.707041 40.359241 48.896278 63.133202 68.986443 83.121117 88.974358 94.904282 109.16676"
             y="0"
             sodipodi:role="line"
             id="tspan152">nextSibling</tspan></text>
</g></g><path
       d="M 716.82,362.7 H 972.9 v 38.28 H 716.82 Z"
       style="fill:#ffffff;fill-opacity:1;fill-rule:evenodd;stroke:none"
       id="path156"
       inkscape:connector-curvature="0" /><path
       d="M 716.82,362.7 H 972.9 v 38.28 H 716.82 Z"
       style="fill:none;stroke:#000000;stroke-width:1.55999994;stroke-linecap:butt;stroke-linejoin:miter;stroke-miterlimit:8;stroke-dasharray:none;stroke-opacity:1"
       id="path158"
       inkscape:connector-curvature="0" /><g
       id="g160"><g
         id="g162"
         clip-path="url(#clipPath166)"><text
           transform="matrix(1,0,0,-1,795.55,371.98)"
           style="font-variant:normal;font-weight:normal;font-size:25.55999947px;font-family:Tahoma;-inkscape-font-specification:Tahoma;writing-mode:lr-tb;fill:#000000;fill-opacity:1;fill-rule:nonzero;stroke:none"
           id="text170"><tspan
             x="0 8.1280804 13.98132 23.2596 34.659359 43.1964 58.557961 72.820442 78.673683 84.526917"
             y="0"
             sodipodi:role="line"
             id="tspan168">firstChild</tspan></text>
</g></g><path
       d="M 716.82,541.86 H 972.9 v 38.4 H 716.82 Z"
       style="fill:#ffffff;fill-opacity:1;fill-rule:evenodd;stroke:none"
       id="path172"
       inkscape:connector-curvature="0" /><path
       d="M 716.82,541.86 H 972.9 v 38.4 H 716.82 Z"
       style="fill:none;stroke:#000000;stroke-width:1.55999994;stroke-linecap:butt;stroke-linejoin:miter;stroke-miterlimit:8;stroke-dasharray:none;stroke-opacity:1"
       id="path174"
       inkscape:connector-curvature="0" /><g
       id="g176"><g
         id="g178"
         clip-path="url(#clipPath182)"><text
           transform="matrix(1,0,0,-1,760.15,551.18)"
           style="font-variant:normal;font-weight:normal;font-size:25.55999947px;font-family:Tahoma;-inkscape-font-specification:Tahoma;writing-mode:lr-tb;fill:#000000;fill-opacity:1;fill-rule:nonzero;stroke:none"
           id="text186"><tspan
             x="0 14.13468 23.336281 36.780842 49.50972 55.414082 69.293159 83.555641 94.955399 109.269 115.12224 129.25693 135.16129 141.01453 155.27699"
             y="0"
             sodipodi:role="line"
             id="tspan184">previousSibling</tspan></text>
</g></g><path
       d="m 708.3,456.54 h 256.08 v 38.28 H 708.3 Z"
       style="fill:#ffffff;fill-opacity:1;fill-rule:evenodd;stroke:none"
       id="path188"
       inkscape:connector-curvature="0" /><path
       d="m 708.3,456.54 h 256.08 v 38.28 H 708.3 Z"
       style="fill:none;stroke:#000000;stroke-width:1.55999994;stroke-linecap:butt;stroke-linejoin:miter;stroke-miterlimit:8;stroke-dasharray:none;stroke-opacity:1"
       id="path190"
       inkscape:connector-curvature="0" /><g
       id="g192"><g
         id="g194"
         clip-path="url(#clipPath198)"><text
           transform="matrix(1,0,0,-1,765.53,465.84)"
           style="font-variant:normal;font-weight:normal;font-size:25.55999947px;font-family:Tahoma;-inkscape-font-specification:Tahoma;writing-mode:lr-tb;fill:#000000;fill-opacity:1;fill-rule:nonzero;stroke:none"
           id="text202"><tspan
             x="0 13.419 26.147881 34.684921 48.99852 62.417519 68.27076 82.609917 88.463158 96.616798 110.87928 122.3046 135.74916"
             y="0"
             sodipodi:role="line"
             id="tspan200">aktuální uzel</tspan></text>
</g></g><path
       d="m 272.59,546.57 -1.02,-1.17 1.17,-1.03 1.03,1.18 z m -2.05,-2.34 -1.03,-1.18 1.17,-1.03 1.03,1.18 z m -2.06,-2.35 -1.02,-1.18 1.17,-1.02 1.03,1.17 z m -2.05,-2.35 -1.03,-1.17 1.18,-1.03 1.02,1.17 z m -2.06,-2.35 -1.02,-1.17 1.17,-1.03 1.03,1.18 z m -2.05,-2.35 -1.03,-1.17 1.18,-1.03 1.02,1.18 z m -2.06,-2.34 -1.02,-1.18 1.17,-1.02 1.03,1.17 z m -2.05,-2.35 -1.03,-1.17 1.18,-1.03 1.02,1.17 z m -2.06,-2.35 -1.02,-1.17 1.17,-1.03 1.03,1.17 z m -2.05,-2.35 -1.03,-1.17 1.18,-1.03 1.02,1.18 z m -2.06,-2.34 -1.02,-1.18 1.17,-1.03 1.03,1.18 z m -2.05,-2.35 -1.03,-1.18 1.18,-1.02 1.02,1.17 z m -2.05,-2.35 -1.03,-1.17 1.17,-1.03 1.03,1.17 z m -2.06,-2.35 -1.03,-1.17 1.18,-1.03 1.02,1.18 z m -2.05,-2.35 -1.03,-1.17 1.17,-1.03 1.03,1.18 z m -2.06,-2.34 -1.03,-1.18 1.18,-1.02 1.02,1.17 z m -2.05,-2.35 -1.03,-1.17 1.17,-1.03 1.03,1.17 z m -2.06,-2.35 -1.03,-1.17 1.18,-1.03 1.02,1.17 z m -2.05,-2.35 -1.03,-1.17 1.17,-1.03 1.03,1.18 z m -2.06,-2.34 -1.03,-1.18 1.18,-1.03 1.03,1.18 z m -2.05,-2.35 -1.03,-1.18 1.17,-1.02 1.03,1.17 z m -2.06,-2.35 -1.03,-1.17 1.18,-1.03 1.03,1.17 z m -2.05,-2.35 -1.03,-1.17 1.17,-1.03 1.03,1.18 z m -2.06,-2.35 -1.03,-1.17 1.18,-1.03 1.03,1.18 z m -2.05,-2.34 -1.03,-1.18 1.17,-1.02 1.03,1.17 z m -2.06,-2.35 -1.02,-1.17 1.17,-1.03 1.03,1.17 z m -2.05,-2.35 -1.03,-1.17 1.17,-1.03 1.03,1.17 z m -2.06,-2.35 -1.02,-1.17 1.17,-1.03 1.03,1.18 z m -2.05,-2.34 -1.03,-1.18 1.17,-1.03 1.03,1.18 z m -2.06,-2.35 -1.02,-1.18 1.17,-1.02 1.03,1.17 z m -2.05,-2.35 -1.03,-1.17 1.17,-1.03 1.03,1.17 z m -2.06,-2.35 -1.02,-1.17 1.17,-1.03 1.03,1.18 z m -2.05,-2.35 -1.03,-1.17 1.18,-1.03 1.02,1.18 z m -2.06,-2.34 -1.02,-1.18 1.17,-1.02 1.03,1.17 z m -2.05,-2.35 -1.03,-1.17 1.18,-1.03 1.02,1.17 z m -2.06,-2.35 -1.02,-1.17 1.17,-1.03 1.03,1.17 z m -2.05,-2.35 -1.03,-1.17 1.18,-1.03 1.02,1.18 z m -2.06,-2.34 -1.02,-1.18 1.17,-1.03 1.03,1.18 z m -2.05,-2.35 -1.03,-1.18 1.18,-1.02 1.02,1.17 z m -2.06,-2.35 -1.02,-1.17 1.17,-1.03 1.03,1.17 z m -2.05,-2.35 -1.03,-1.17 1.18,-1.03 1.02,1.18 z m -2.05,-2.35 -1.03,-1.17 1.17,-1.03 1.03,1.18 z m -2.06,-2.34 -1.03,-1.18 1.18,-1.02 1.02,1.17 z m -2.05,-2.35 -1.03,-1.17 1.17,-1.03 1.03,1.17 z m -2.06,-2.35 -1.03,-1.17 1.18,-1.03 1.02,1.17 z m -2.05,-2.35 -1.03,-1.17 1.17,-1.03 1.03,1.18 z m -2.06,-2.34 -1.03,-1.18 1.18,-1.03 1.03,1.18 z m -2.05,-2.35 -1.03,-1.18 1.17,-1.02 1.03,1.17 z m -2.06,-2.35 -1.03,-1.17 1.18,-1.03 1.03,1.17 z m -2.05,-2.35 -1.03,-1.17 1.17,-1.03 1.03,1.18 z m -2.06,-2.35 -1.03,-1.17 1.18,-1.03 1.03,1.18 z m -2.05,-2.34 -1.03,-1.18 1.17,-1.02 1.03,1.17 z m -2.06,-2.35 -1.03,-1.17 1.18,-1.03 1.03,1.17 z m -2.05,-2.35 -1.03,-1.17 1.17,-1.03 1.03,1.17 z m -2.06,-2.35 -1.02,-1.17 1.17,-1.03 1.03,1.18 z m -2.05,-2.34 -1.03,-1.18 1.17,-1.03 1.03,1.18 z m -2.06,-2.35 -1.02,-1.18 1.17,-1.02 1.03,1.17 z m -2.17,0.89 -1.69,-6.49 6.21,2.54 z"
       style="fill:#000000;fill-opacity:1;fill-rule:nonzero;stroke:none"
       id="path204"
       inkscape:connector-curvature="0" /><path
       d="m 708.09,478.53 -1.5,-0.42 0.42,-1.5 1.5,0.42 z m -3,-0.85 -1.51,-0.42 0.43,-1.5 1.5,0.42 z m -3.01,-0.84 -1.5,-0.43 0.42,-1.5 1.51,0.43 z m -3,-0.85 -1.5,-0.42 0.42,-1.5 1.5,0.42 z m -3,-0.85 -1.5,-0.42 0.42,-1.5 1.5,0.42 z m -3.01,-0.84 -1.5,-0.43 0.43,-1.5 1.5,0.43 z m -3,-0.85 -1.5,-0.42 0.42,-1.5 1.5,0.42 z m -3,-0.85 -1.5,-0.42 0.42,-1.5 1.5,0.42 z m -3,-0.84 -1.51,-0.43 0.43,-1.5 1.5,0.42 z m -3.01,-0.85 -1.5,-0.42 0.42,-1.51 1.51,0.43 z m -3,-0.85 -1.5,-0.42 0.42,-1.5 1.5,0.42 z m -3,-0.84 -1.5,-0.43 0.42,-1.5 1.5,0.42 z m -3.01,-0.85 -1.5,-0.42 0.43,-1.51 1.5,0.43 z m -3,-0.85 -1.5,-0.42 0.42,-1.5 1.5,0.42 z m -3,-0.84 -1.5,-0.43 0.42,-1.5 1.5,0.42 z m -3,-0.85 -1.51,-0.42 0.43,-1.51 1.5,0.43 z m -3.01,-0.85 -1.5,-0.42 0.42,-1.5 1.51,0.42 z m -3,-0.85 -1.5,-0.42 0.42,-1.5 1.5,0.42 z m -3,-0.84 -1.5,-0.43 0.42,-1.5 1.5,0.43 z m -3.01,-0.85 -1.5,-0.42 0.43,-1.5 1.5,0.42 z m -3,-0.85 -1.5,-0.42 0.42,-1.5 1.5,0.42 z m -3,-0.84 -1.5,-0.43 0.42,-1.5 1.5,0.43 z m -3,-0.85 -1.51,-0.42 0.43,-1.5 1.5,0.42 z m -3.01,-0.85 -1.5,-0.42 0.42,-1.5 1.51,0.42 z m -3,-0.84 -1.5,-0.43 0.42,-1.5 1.5,0.43 z m -3,-0.85 -1.51,-0.42 0.43,-1.5 1.5,0.42 z m -3.01,-0.85 -1.5,-0.42 0.43,-1.5 1.5,0.42 z m -3,-0.84 -1.5,-0.43 0.42,-1.5 1.5,0.43 z m -3,-0.85 -1.5,-0.42 0.42,-1.51 1.5,0.43 z m -3.01,-0.85 -1.5,-0.42 0.43,-1.5 1.5,0.42 z m -3,-0.84 -1.5,-0.43 0.42,-1.5 1.51,0.42 z m -3,-0.85 -1.5,-0.42 0.42,-1.51 1.5,0.43 z m -3,-0.85 -1.51,-0.42 0.43,-1.5 1.5,0.42 z m -3.01,-0.84 -1.5,-0.43 0.43,-1.5 1.5,0.42 z m -3,-0.85 -1.5,-0.42 0.42,-1.51 1.5,0.43 z m -3,-0.85 -1.5,-0.42 0.42,-1.5 1.5,0.42 z m -3.01,-0.84 -1.5,-0.43 0.43,-1.5 1.5,0.42 z m -3,-0.85 -1.5,-0.43 0.42,-1.5 1.51,0.43 z m -3,-0.85 -1.5,-0.42 0.42,-1.5 1.5,0.42 z m -3,-0.85 -1.51,-0.42 0.43,-1.5 1.5,0.42 z m -3.01,-0.84 -1.5,-0.43 0.43,-1.5 1.5,0.43 z m -3,-0.85 -1.5,-0.42 0.42,-1.5 1.5,0.42 z m -3,-0.85 -1.5,-0.42 0.42,-1.5 1.5,0.42 z m -3.01,-0.84 -1.5,-0.43 0.43,-1.5 1.5,0.43 z m -3,-0.85 -1.5,-0.42 0.42,-1.5 1.51,0.42 z m -3,-0.85 -1.5,-0.42 0.42,-1.5 1.5,0.42 z m -3,-0.84 -1.51,-0.43 0.43,-1.5 1.5,0.43 z m -3.01,-0.85 -1.5,-0.42 0.43,-1.5 1.5,0.42 z m -3,-0.85 -1.5,-0.42 0.42,-1.5 1.5,0.42 z m -3,-0.84 -1.5,-0.43 0.42,-1.5 1.5,0.42 z m -3.01,-0.85 -1.5,-0.42 0.43,-1.51 1.5,0.43 z m -3,-0.85 -1.5,-0.42 0.42,-1.5 1.51,0.42 z m -3,-0.84 -1.5,-0.43 0.42,-1.5 1.5,0.42 z m -3,-0.85 -1.51,-0.42 0.43,-1.51 1.5,0.43 z m -3.01,-0.85 -1.5,-0.42 0.43,-1.5 1.5,0.42 z m -3,-0.84 -1.5,-0.43 0.42,-1.5 1.5,0.42 z m -3,-0.85 -1.5,-0.42 0.42,-1.51 1.5,0.43 z m -3.01,-0.85 -1.5,-0.42 0.43,-1.5 1.5,0.42 z m -3,-0.84 -1.5,-0.43 0.42,-1.5 1.51,0.42 z m -3,-0.85 -1.5,-0.43 0.42,-1.5 1.5,0.43 z m -3,-0.85 -1.51,-0.42 0.43,-1.5 1.5,0.42 z m -3.01,-0.85 -1.5,-0.42 0.42,-1.5 1.51,0.42 z m -3,-0.84 -1.5,-0.43 0.42,-1.5 1.5,0.43 z m -3,-0.85 -1.5,-0.42 0.42,-1.5 1.5,0.42 z m -3.01,-0.85 -1.5,-0.42 0.43,-1.5 1.5,0.42 z m -3,-0.84 -1.5,-0.43 0.42,-1.5 1.5,0.43 z m -3,-0.85 -1.5,-0.42 0.42,-1.5 1.5,0.42 z m -3,-0.85 -1.51,-0.42 0.43,-1.5 1.5,0.42 z m -3.01,-0.84 -1.5,-0.43 0.42,-1.5 1.51,0.43 z m -3,-0.85 -1.5,-0.42 0.42,-1.5 1.5,0.42 z m -3,-0.85 -1.5,-0.42 0.42,-1.5 1.5,0.42 z m -3.01,-0.84 -1.5,-0.43 0.43,-1.5 1.5,0.42 z m -3,-0.85 -1.5,-0.42 0.42,-1.51 1.5,0.43 z m -3,-0.85 -1.5,-0.42 0.42,-1.5 1.5,0.42 z m -3,-0.84 -1.51,-0.43 0.43,-1.5 1.5,0.42 z m -3.01,-0.85 -1.5,-0.42 0.42,-1.51 1.51,0.43 z m -3,-0.85 -1.5,-0.42 0.42,-1.5 1.5,0.42 z m -3,-0.84 -1.5,-0.43 0.42,-1.5 1.5,0.42 z m -3.01,-0.85 -1.5,-0.42 0.43,-1.51 1.5,0.43 z m -3,-0.85 -1.5,-0.42 0.42,-1.5 1.5,0.42 z m -3,-0.85 -1.5,-0.42 0.42,-1.5 1.5,0.42 z m -3,-0.84 -1.51,-0.43 0.43,-1.5 1.5,0.43 z m -3.01,-0.85 -1.5,-0.42 0.42,-1.5 1.51,0.42 z m -3,-0.85 -1.5,-0.42 0.42,-1.5 1.5,0.42 z m -3,-0.84 -1.5,-0.43 0.42,-1.5 1.5,0.43 z m -3.01,-0.85 -1.5,-0.42 0.43,-1.5 1.5,0.42 z m -3,-0.85 -1.5,-0.42 0.42,-1.5 1.5,0.42 z m -3,-0.84 -1.5,-0.43 0.42,-1.5 1.5,0.43 z m -3,-0.85 -1.51,-0.42 0.43,-1.5 1.5,0.42 z m -3.01,-0.85 -1.5,-0.42 0.42,-1.5 1.51,0.42 z m -3,-0.84 -1.5,-0.43 0.42,-1.5 1.5,0.43 z m -3,-0.85 -1.5,-0.42 0.42,-1.51 1.5,0.43 z m -3.01,-0.85 -1.5,-0.42 0.43,-1.5 1.5,0.42 z m -3,-0.84 -1.5,-0.43 0.42,-1.5 1.5,0.42 z m -3,-0.85 -1.5,-0.42 0.42,-1.51 1.5,0.43 z m -3,-0.85 -1.51,-0.42 0.43,-1.5 1.5,0.42 z m -3.01,-0.84 -1.5,-0.43 0.42,-1.5 1.51,0.42 z m -3,-0.85 -1.5,-0.42 0.42,-1.51 1.5,0.43 z m -3,-0.85 -1.5,-0.42 0.42,-1.5 1.5,0.42 z m -3.01,-0.84 -1.5,-0.43 0.43,-1.5 1.5,0.42 z m -3,-0.85 -1.5,-0.43 0.42,-1.5 1.5,0.43 z m -3,-0.85 -1.5,-0.42 0.42,-1.5 1.5,0.42 z m -3.01,-0.85 -1.5,-0.42 0.43,-1.5 1.5,0.42 z m -3,-0.84 -1.5,-0.43 0.42,-1.5 1.51,0.43 z m -3,-0.85 -1.5,-0.42 0.42,-1.5 1.5,0.42 z m -3,-0.85 -1.51,-0.42 0.43,-1.5 1.5,0.42 z m -3.01,-0.84 -1.5,-0.43 0.43,-1.5 1.5,0.43 z m -3,-0.85 -1.5,-0.42 0.42,-1.5 1.5,0.42 z m -3,-0.85 -1.5,-0.42 0.42,-1.5 1.5,0.42 z m -3.01,-0.84 -0.63,-0.18 0.42,-1.5 0.64,0.18 z m -0.27,2.23 -4.96,-4.52 6.59,-1.26 z"
       style="fill:#000000;fill-opacity:1;fill-rule:nonzero;stroke:none"
       id="path206"
       inkscape:connector-curvature="0" /><path
       d="m 716.68,555.35 -1.54,-0.29 0.29,-1.53 1.53,0.28 z m -3.07,-0.57 -1.53,-0.28 0.28,-1.54 1.53,0.29 z m -3.07,-0.56 -1.53,-0.29 0.28,-1.53 1.53,0.28 z m -3.07,-0.57 -1.53,-0.28 0.28,-1.54 1.54,0.29 z m -3.06,-0.56 -1.54,-0.29 0.28,-1.53 1.54,0.28 z m -3.07,-0.57 -1.54,-0.28 0.29,-1.54 1.53,0.29 z m -3.07,-0.57 -1.54,-0.28 0.29,-1.53 1.53,0.28 z m -3.07,-0.56 -1.53,-0.28 0.28,-1.54 1.53,0.28 z m -3.07,-0.57 -1.53,-0.28 0.28,-1.53 1.53,0.28 z m -3.07,-0.56 -1.53,-0.29 0.28,-1.53 1.54,0.28 z m -3.06,-0.57 -1.54,-0.28 0.28,-1.53 1.54,0.28 z m -3.07,-0.56 -1.54,-0.29 0.29,-1.53 1.53,0.28 z m -3.07,-0.57 -1.54,-0.28 0.29,-1.54 1.53,0.29 z m -3.07,-0.56 -1.53,-0.29 0.28,-1.53 1.53,0.28 z m -3.07,-0.57 -1.53,-0.28 0.28,-1.54 1.54,0.29 z m -3.07,-0.57 -1.53,-0.28 0.28,-1.53 1.54,0.28 z m -3.06,-0.56 -1.54,-0.28 0.28,-1.54 1.54,0.28 z m -3.07,-0.57 -1.54,-0.28 0.29,-1.53 1.53,0.28 z m -3.07,-0.56 -1.54,-0.28 0.29,-1.54 1.53,0.28 z m -3.07,-0.57 -1.53,-0.28 0.28,-1.53 1.53,0.28 z m -3.07,-0.56 -1.53,-0.29 0.28,-1.53 1.54,0.28 z m -3.07,-0.57 -1.53,-0.28 0.28,-1.54 1.54,0.29 z m -3.06,-0.56 -1.54,-0.29 0.28,-1.53 1.54,0.28 z m -3.07,-0.57 -1.54,-0.28 0.29,-1.54 1.53,0.29 z m -3.07,-0.57 -1.54,-0.28 0.29,-1.53 1.53,0.28 z m -3.07,-0.56 -1.53,-0.28 0.28,-1.54 1.53,0.29 z m -3.07,-0.57 -1.53,-0.28 0.28,-1.53 1.54,0.28 z m -3.07,-0.56 -1.53,-0.28 0.28,-1.54 1.54,0.28 z m -3.06,-0.57 -1.54,-0.28 0.28,-1.53 1.54,0.28 z m -3.07,-0.56 -1.54,-0.29 0.29,-1.53 1.53,0.28 z m -3.07,-0.57 -1.54,-0.28 0.29,-1.54 1.53,0.29 z m -3.07,-0.56 -1.53,-0.29 0.28,-1.53 1.53,0.28 z m -3.07,-0.57 -1.53,-0.28 0.28,-1.54 1.54,0.29 z m -3.07,-0.56 -1.53,-0.29 0.28,-1.53 1.54,0.28 z m -3.06,-0.57 -1.54,-0.28 0.28,-1.54 1.54,0.29 z m -3.07,-0.57 -1.54,-0.28 0.29,-1.53 1.53,0.28 z m -3.07,-0.56 -1.53,-0.28 0.28,-1.54 1.53,0.28 z m -3.07,-0.57 -1.53,-0.28 0.28,-1.53 1.53,0.28 z m -3.07,-0.56 -1.53,-0.29 0.28,-1.53 1.54,0.28 z m -3.07,-0.57 -1.53,-0.28 0.28,-1.53 1.54,0.28 z m -3.06,-0.56 -1.54,-0.29 0.28,-1.53 1.54,0.28 z m -3.07,-0.57 -1.54,-0.28 0.29,-1.54 1.53,0.29 z m -3.07,-0.56 -1.53,-0.29 0.28,-1.53 1.53,0.28 z m -3.07,-0.57 -1.53,-0.28 0.28,-1.54 1.53,0.29 z m -3.07,-0.57 -1.53,-0.28 0.28,-1.53 1.54,0.28 z m -3.07,-0.56 -1.53,-0.28 0.28,-1.54 1.54,0.28 z m -3.06,-0.57 -1.54,-0.28 0.28,-1.53 1.54,0.28 z m -3.07,-0.56 -1.54,-0.28 0.29,-1.54 1.53,0.28 z m -3.07,-0.57 -1.53,-0.28 0.28,-1.53 1.53,0.28 z m -3.07,-0.56 -1.53,-0.29 0.28,-1.53 1.53,0.28 z m -3.07,-0.57 -1.53,-0.28 0.28,-1.54 1.54,0.29 z m -3.07,-0.56 -1.53,-0.29 0.28,-1.53 1.54,0.28 z m -3.06,-0.57 -1.54,-0.28 0.28,-1.54 1.54,0.29 z m -3.07,-0.57 -1.54,-0.28 0.29,-1.53 1.53,0.28 z m -3.07,-0.56 -1.53,-0.28 0.28,-1.54 1.53,0.29 z m -3.07,-0.57 -1.53,-0.28 0.28,-1.53 1.53,0.28 z m -3.07,-0.56 -1.53,-0.28 0.28,-1.54 1.54,0.28 z m -3.07,-0.57 -1.53,-0.28 0.28,-1.53 1.54,0.28 z m -3.06,-0.56 -1.54,-0.29 0.29,-1.53 1.53,0.28 z m -3.07,-0.57 -1.54,-0.28 0.29,-1.54 1.53,0.29 z m -3.07,-0.56 -1.53,-0.29 0.28,-1.53 1.53,0.28 z m -3.07,-0.57 -1.53,-0.28 0.28,-1.54 1.53,0.29 z m -3.07,-0.56 -1.53,-0.29 0.28,-1.53 1.54,0.28 z m -3.07,-0.57 -1.53,-0.28 0.28,-1.54 1.54,0.29 z m -3.06,-0.57 -1.54,-0.28 0.29,-1.53 1.53,0.28 z m -3.07,-0.56 -1.54,-0.28 0.29,-1.54 1.53,0.28 z m -3.07,-0.57 -1.53,-0.28 0.28,-1.53 1.53,0.28 z m -3.07,-0.56 -1.53,-0.29 0.28,-1.53 1.53,0.28 z m -3.07,-0.57 -1.53,-0.28 0.28,-1.53 1.54,0.28 z m -3.06,-0.56 -1.54,-0.29 0.28,-1.53 1.54,0.28 z m -3.07,-0.57 -1.54,-0.28 0.29,-1.54 1.53,0.29 z m -3.07,-0.56 -1.54,-0.29 0.29,-1.53 1.53,0.28 z m -3.07,-0.57 -1.53,-0.28 0.28,-1.54 1.53,0.29 z m -3.07,-0.57 -1.53,-0.28 0.28,-1.53 1.53,0.28 z m -3.07,-0.56 -1.53,-0.28 0.28,-1.54 1.54,0.28 z m -3.06,-0.57 -1.54,-0.28 0.28,-1.53 1.54,0.28 z m -3.07,-0.56 -1.54,-0.28 0.29,-1.54 1.53,0.28 z m -3.07,-0.57 -1.54,-0.28 0.29,-1.53 1.53,0.28 z m -3.07,-0.56 -1.53,-0.29 0.28,-1.53 1.53,0.28 z m -3.07,-0.57 -1.53,-0.28 0.28,-1.54 1.53,0.29 z m -3.07,-0.56 -1.53,-0.29 0.28,-1.53 1.54,0.28 z m -3.06,-0.57 -1.54,-0.28 0.28,-1.54 1.54,0.29 z m -3.07,-0.57 -1.54,-0.28 0.29,-1.53 1.53,0.28 z m -3.07,-0.56 -1.54,-0.28 0.29,-1.54 1.53,0.29 z m -3.07,-0.57 -1.53,-0.28 0.28,-1.53 1.53,0.28 z m -3.07,-0.56 -1.53,-0.28 0.28,-1.54 1.53,0.28 z m -3.07,-0.57 -1.53,-0.28 0.28,-1.53 1.54,0.28 z m -3.06,-0.56 -1.54,-0.29 0.28,-1.53 1.54,0.28 z m -3.07,-0.57 -1.54,-0.28 0.29,-1.54 1.53,0.29 z m -3.07,-0.56 -1.54,-0.29 0.29,-1.53 1.53,0.28 z m -3.07,-0.57 -1.53,-0.28 0.28,-1.54 1.53,0.29 z m -3.07,-0.56 -1.53,-0.29 0.28,-1.53 1.53,0.28 z m -3.07,-0.57 -1.53,-0.28 0.28,-1.54 1.54,0.29 z m -3.06,-0.57 -1.54,-0.28 0.28,-1.53 1.54,0.28 z m -3.07,-0.56 -1.54,-0.28 0.29,-1.54 1.53,0.28 z m -3.07,-0.57 -1.54,-0.28 0.29,-1.53 1.53,0.28 z m -3.07,-0.56 -1.53,-0.29 0.28,-1.53 1.53,0.28 z m -3.07,-0.57 -1.53,-0.28 0.28,-1.53 1.53,0.28 z m -3.07,-0.56 -1.53,-0.29 0.28,-1.53 1.54,0.28 z m -3.06,-0.57 -1.54,-0.28 0.28,-1.54 1.54,0.29 z m -3.07,-0.56 -1.54,-0.29 0.29,-1.53 1.53,0.28 z m -3.07,-0.57 -1.54,-0.28 0.29,-1.54 1.53,0.29 z m -3.07,-0.57 -1.53,-0.28 0.28,-1.53 1.53,0.28 z m -3.07,-0.56 -1.53,-0.28 0.28,-1.54 1.53,0.28 z m -3.07,-0.57 -0.22,-0.04 0.29,-1.53 0.22,0.04 z m 0.37,2.33 -5.36,-4.04 6.44,-1.86 z"
       style="fill:#000000;fill-opacity:1;fill-rule:nonzero;stroke:none"
       id="path208"
       inkscape:connector-curvature="0" /><path
       d="m 716.68,374.65 -1.53,0.28 0.27,1.54 1.54,-0.28 z m -3.07,0.56 -1.53,0.28 0.27,1.53 1.54,-0.28 z m -3.07,0.56 -1.53,0.28 0.27,1.53 1.54,-0.28 z m -3.07,0.55 -1.53,0.28 0.27,1.54 1.54,-0.28 z m -3.07,0.56 -1.53,0.28 0.28,1.54 1.53,-0.28 z m -3.07,0.56 -1.53,0.28 0.28,1.53 1.53,-0.28 z m -3.07,0.56 -1.53,0.28 0.28,1.53 1.53,-0.28 z m -3.07,0.55 -1.53,0.28 0.28,1.54 1.53,-0.28 z m -3.07,0.56 -1.53,0.28 0.28,1.54 1.53,-0.28 z m -3.07,0.56 -1.53,0.28 0.28,1.53 1.53,-0.28 z m -3.07,0.56 -1.53,0.28 0.28,1.53 1.53,-0.28 z m -3.07,0.55 -1.53,0.28 0.28,1.54 1.53,-0.28 z m -3.07,0.56 -1.53,0.28 0.28,1.54 1.53,-0.28 z m -3.07,0.56 -1.53,0.28 0.28,1.53 1.53,-0.28 z m -3.07,0.56 -1.53,0.28 0.28,1.53 1.53,-0.28 z m -3.07,0.55 -1.53,0.28 0.28,1.54 1.53,-0.28 z m -3.07,0.56 -1.53,0.28 0.28,1.54 1.53,-0.28 z m -3.07,0.56 -1.53,0.28 0.28,1.53 1.53,-0.28 z m -3.07,0.56 -1.53,0.28 0.28,1.53 1.53,-0.28 z m -3.07,0.55 -1.53,0.28 0.28,1.54 1.53,-0.28 z m -3.07,0.56 -1.53,0.28 0.28,1.53 1.53,-0.27 z m -3.07,0.56 -1.53,0.28 0.28,1.53 1.53,-0.28 z m -3.06,0.56 -1.54,0.27 0.28,1.54 1.53,-0.28 z m -3.07,0.55 -1.54,0.28 0.28,1.54 1.53,-0.28 z m -3.07,0.56 -1.54,0.28 0.28,1.53 1.53,-0.27 z m -3.07,0.56 -1.54,0.28 0.28,1.53 1.53,-0.28 z m -3.07,0.56 -1.54,0.27 0.28,1.54 1.53,-0.28 z m -3.07,0.55 -1.54,0.28 0.28,1.54 1.53,-0.28 z m -3.07,0.56 -1.54,0.28 0.28,1.53 1.53,-0.27 z m -2.38,-1.82 -5.37,4.02 6.44,1.88 z"
       style="fill:#000000;fill-opacity:1;fill-rule:nonzero;stroke:none"
       id="path210"
       inkscape:connector-curvature="0" /><path
       d="m 716.36,297.99 -1.26,0.92 0.92,1.26 1.26,-0.92 z m -2.52,1.83 -1.26,0.92 0.91,1.26 1.27,-0.91 z m -2.52,1.84 -1.27,0.92 0.92,1.26 1.26,-0.92 z m -2.53,1.84 -1.26,0.91 0.92,1.27 1.26,-0.92 z m -2.52,1.83 -1.26,0.92 0.92,1.26 1.26,-0.92 z m -2.52,1.84 -1.26,0.92 0.91,1.26 1.26,-0.92 z m -2.53,1.83 -1.26,0.92 0.92,1.26 1.26,-0.92 z m -2.52,1.84 -1.26,0.92 0.92,1.26 1.26,-0.92 z m -2.52,1.83 -1.26,0.92 0.91,1.26 1.27,-0.91 z m -2.52,1.84 -1.27,0.92 0.92,1.26 1.26,-0.92 z m -2.53,1.84 -1.26,0.91 0.92,1.27 1.26,-0.92 z m -2.52,1.83 -1.26,0.92 0.92,1.26 1.26,-0.92 z m -2.52,1.84 -1.26,0.92 0.91,1.26 1.26,-0.92 z m -2.53,1.83 -1.26,0.92 0.92,1.26 1.26,-0.92 z m -2.52,1.84 -1.26,0.92 0.92,1.26 1.26,-0.92 z m -2.52,1.83 -1.26,0.92 0.91,1.26 1.27,-0.91 z m -2.52,1.84 -1.27,0.92 0.92,1.26 1.26,-0.92 z m -2.53,1.84 -1.26,0.91 0.92,1.26 1.26,-0.91 z m -2.52,1.83 -1.26,0.92 0.92,1.26 1.26,-0.92 z m -2.52,1.84 -1.26,0.91 0.91,1.27 1.26,-0.92 z m -2.53,1.83 -1.26,0.92 0.92,1.26 1.26,-0.92 z m -2.52,1.84 -1.26,0.92 0.92,1.26 1.26,-0.92 z m -2.52,1.83 -1.26,0.92 0.92,1.26 1.26,-0.91 z m -2.52,1.84 -1.27,0.92 0.92,1.26 1.26,-0.92 z m -2.53,1.84 -1.26,0.91 0.92,1.26 1.26,-0.91 z m -2.52,1.83 -1.26,0.92 0.92,1.26 1.26,-0.92 z m -2.52,1.84 -1.26,0.91 0.91,1.27 1.27,-0.92 z m -2.53,1.83 -1.26,0.92 0.92,1.26 1.26,-0.92 z m -2.52,1.84 -1.26,0.92 0.92,1.26 1.26,-0.92 z m -2.52,1.83 -1.26,0.92 0.92,1.26 1.26,-0.91 z m -2.52,1.84 -1.27,0.92 0.92,1.26 1.26,-0.92 z m -2.53,1.84 -1.26,0.91 0.92,1.26 1.26,-0.91 z m -2.52,1.83 -1.26,0.92 0.92,1.26 1.26,-0.92 z m -2.52,1.84 -1.26,0.91 0.91,1.27 1.27,-0.92 z m -2.53,1.83 -1.26,0.92 0.92,1.26 1.26,-0.92 z m -2.52,1.84 -1.26,0.92 0.92,1.26 1.26,-0.92 z m -1.99,-1.3 -3.09,5.96 6.62,-1.1 z"
       style="fill:#000000;fill-opacity:1;fill-rule:nonzero;stroke:none"
       id="path212"
       inkscape:connector-curvature="0" /><path
       d="m 716.5,299.33 -1.42,-0.65 0.64,-1.42 1.42,0.65 z m -2.84,-1.29 -1.42,-0.65 0.64,-1.42 1.42,0.65 z m -2.84,-1.3 -1.42,-0.64 0.64,-1.42 1.42,0.64 z m -2.84,-1.29 -1.42,-0.64 0.64,-1.42 1.42,0.64 z m -2.84,-1.29 -1.42,-0.65 0.65,-1.42 1.41,0.65 z m -2.84,-1.29 -1.42,-0.65 0.65,-1.42 1.42,0.65 z m -2.84,-1.3 -1.42,-0.64 0.65,-1.42 1.42,0.64 z m -2.84,-1.29 -1.42,-0.65 0.65,-1.41 1.42,0.64 z m -2.84,-1.29 -1.42,-0.65 0.65,-1.42 1.42,0.65 z m -2.84,-1.29 -1.42,-0.65 0.65,-1.42 1.42,0.65 z m -2.84,-1.3 -1.42,-0.64 0.65,-1.42 1.42,0.64 z m -2.84,-1.29 -1.42,-0.65 0.65,-1.42 1.42,0.65 z m -2.84,-1.29 -1.42,-0.65 0.65,-1.42 1.42,0.65 z m -2.84,-1.3 -1.42,-0.64 0.65,-1.42 1.42,0.65 z m -2.84,-1.29 -1.42,-0.64 0.65,-1.42 1.42,0.64 z m -2.84,-1.29 -1.42,-0.65 0.65,-1.42 1.42,0.65 z m -2.84,-1.29 -1.42,-0.65 0.65,-1.42 1.42,0.65 z m -2.84,-1.3 -1.42,-0.64 0.65,-1.42 1.42,0.64 z m -2.84,-1.29 -1.42,-0.64 0.65,-1.42 1.42,0.64 z m -2.84,-1.29 -1.42,-0.65 0.65,-1.42 1.42,0.65 z m -2.84,-1.29 -1.41,-0.65 0.64,-1.42 1.42,0.65 z m -2.83,-1.3 -1.42,-0.64 0.64,-1.42 1.42,0.64 z m -2.84,-1.29 -1.42,-0.65 0.64,-1.42 1.42,0.65 z m -2.84,-1.29 -1.42,-0.65 0.64,-1.42 1.42,0.65 z m -2.84,-1.29 -1.42,-0.65 0.64,-1.42 1.42,0.65 z m -2.84,-1.3 -1.42,-0.64 0.64,-1.42 1.42,0.64 z m -2.84,-1.29 -1.42,-0.65 0.64,-1.42 1.42,0.65 z m -2.84,-1.29 -1.42,-0.65 0.64,-1.42 1.42,0.65 z m -2.84,-1.3 -1.42,-0.64 0.64,-1.42 1.42,0.64 z m -2.84,-1.29 -1.42,-0.64 0.65,-1.42 1.41,0.64 z m -2.84,-1.29 -1.42,-0.65 0.65,-1.42 1.42,0.65 z m -2.84,-1.29 -1.26,-0.58 0.64,-1.42 1.27,0.58 z m -1.27,1.86 -4.22,-5.22 6.7,-0.24 z"
       style="fill:#000000;fill-opacity:1;fill-rule:nonzero;stroke:none"
       id="path214"
       inkscape:connector-curvature="0" /><path
       d="m 716.68,212.53 -1.53,0.28 0.27,1.54 1.54,-0.28 z m -3.07,0.56 -1.53,0.28 0.27,1.53 1.54,-0.28 z m -3.07,0.56 -1.53,0.28 0.27,1.53 1.54,-0.28 z m -3.07,0.55 -1.53,0.28 0.27,1.54 1.54,-0.28 z m -3.07,0.56 -1.53,0.28 0.28,1.54 1.53,-0.28 z m -3.07,0.56 -1.53,0.28 0.28,1.53 1.53,-0.28 z m -3.07,0.56 -1.53,0.28 0.28,1.53 1.53,-0.28 z m -3.07,0.55 -1.53,0.28 0.28,1.54 1.53,-0.28 z m -3.07,0.56 -1.53,0.28 0.28,1.54 1.53,-0.28 z m -3.07,0.56 -1.53,0.28 0.28,1.53 1.53,-0.28 z m -3.07,0.56 -1.53,0.28 0.28,1.53 1.53,-0.28 z m -3.07,0.55 -1.53,0.28 0.28,1.54 1.53,-0.28 z m -3.07,0.56 -1.53,0.28 0.28,1.54 1.53,-0.28 z m -3.07,0.56 -1.53,0.28 0.28,1.53 1.53,-0.28 z m -3.07,0.56 -1.53,0.28 0.28,1.53 1.53,-0.28 z m -3.07,0.55 -1.53,0.28 0.28,1.54 1.53,-0.28 z m -3.07,0.56 -1.53,0.28 0.28,1.54 1.53,-0.28 z m -3.07,0.56 -1.53,0.28 0.28,1.53 1.53,-0.28 z m -3.07,0.56 -1.53,0.28 0.28,1.53 1.53,-0.28 z m -3.07,0.55 -1.53,0.28 0.28,1.54 1.53,-0.28 z m -3.07,0.56 -1.53,0.28 0.28,1.53 1.53,-0.27 z m -3.07,0.56 -1.53,0.28 0.28,1.53 1.53,-0.28 z m -3.06,0.56 -1.54,0.27 0.28,1.54 1.53,-0.28 z m -3.07,0.55 -1.54,0.28 0.28,1.54 1.53,-0.28 z m -3.07,0.56 -1.54,0.28 0.28,1.53 1.53,-0.27 z m -3.07,0.56 -1.54,0.28 0.28,1.53 1.53,-0.28 z m -3.07,0.56 -1.54,0.27 0.28,1.54 1.53,-0.28 z m -3.07,0.55 -1.54,0.28 0.28,1.54 1.53,-0.28 z m -3.07,0.56 -1.54,0.28 0.28,1.53 1.53,-0.27 z m -2.38,-1.82 -5.37,4.02 6.44,1.88 z"
       style="fill:#000000;fill-opacity:1;fill-rule:nonzero;stroke:none"
       id="path216"
       inkscape:connector-curvature="0" /><path
       d="m 716.66,127.22 -1.52,0.31 0.31,1.53 1.53,-0.32 z m -3.05,0.62 -1.53,0.32 0.31,1.52 1.53,-0.31 z m -3.06,0.63 -1.53,0.31 0.32,1.53 1.52,-0.31 z m -3.06,0.63 -1.52,0.31 0.31,1.53 1.53,-0.31 z m -3.05,0.62 -1.53,0.32 0.31,1.53 1.53,-0.32 z m -3.06,0.63 -1.53,0.32 0.32,1.52 1.53,-0.31 z m -3.05,0.63 -1.53,0.31 0.31,1.53 1.53,-0.31 z m -3.06,0.63 -1.53,0.31 0.31,1.53 1.53,-0.32 z m -3.06,0.62 -1.53,0.32 0.32,1.52 1.53,-0.31 z m -3.05,0.63 -1.53,0.31 0.31,1.53 1.53,-0.31 z m -3.06,0.63 -1.53,0.31 0.32,1.53 1.52,-0.31 z m -3.06,0.62 -1.52,0.32 0.31,1.53 1.53,-0.32 z m -3.05,0.63 -1.53,0.32 0.31,1.52 1.53,-0.31 z m -3.06,0.63 -1.53,0.31 0.32,1.53 1.52,-0.31 z m -3.06,0.63 -1.52,0.31 0.31,1.53 1.53,-0.32 z m -3.05,0.62 -1.53,0.32 0.31,1.52 1.53,-0.31 z m -3.06,0.63 -1.53,0.31 0.32,1.53 1.53,-0.31 z m -3.05,0.63 -1.53,0.31 0.31,1.53 1.53,-0.31 z m -3.06,0.62 -1.53,0.32 0.31,1.53 1.53,-0.32 z m -3.06,0.63 -1.53,0.32 0.32,1.52 1.53,-0.31 z m -3.05,0.63 -1.53,0.31 0.31,1.53 1.53,-0.31 z m -3.06,0.63 -1.53,0.31 0.32,1.53 1.52,-0.32 z m -3.06,0.62 -1.52,0.32 0.31,1.52 1.53,-0.31 z m -3.05,0.63 -1.53,0.31 0.31,1.53 1.53,-0.31 z m -3.06,0.63 -1.53,0.31 0.32,1.53 1.53,-0.31 z m -3.05,0.62 -1.53,0.32 0.31,1.53 1.53,-0.32 z m -3.06,0.63 -1.53,0.32 0.31,1.52 1.53,-0.31 z m -3.06,0.63 -1.53,0.31 0.32,1.53 1.53,-0.31 z m -3.05,0.63 -1.53,0.31 0.31,1.53 1.53,-0.32 z m -3.06,0.62 -1.53,0.32 0.32,1.52 1.52,-0.31 z m -3.06,0.63 -1.52,0.31 0.31,1.53 1.53,-0.31 z m -3.05,0.63 -1.53,0.31 0.31,1.53 1.53,-0.31 z m -3.06,0.62 -1.53,0.32 0.32,1.53 1.52,-0.32 z m -3.06,0.63 -1.52,0.31 0.31,1.53 1.53,-0.31 z m -3.05,0.63 -1.53,0.31 0.31,1.53 1.53,-0.31 z m -3.06,0.63 -1.53,0.31 0.32,1.53 1.53,-0.32 z m -3.05,0.62 -1.53,0.32 0.31,1.52 1.53,-0.31 z m -3.06,0.63 -1.53,0.31 0.31,1.53 1.53,-0.31 z m -3.06,0.63 -1.53,0.31 0.32,1.53 1.53,-0.31 z m -3.05,0.62 -1.53,0.32 0.31,1.53 1.53,-0.32 z m -3.06,0.63 -1.53,0.31 0.32,1.53 1.52,-0.31 z m -3.06,0.63 -1.52,0.31 0.31,1.53 1.53,-0.31 z m -3.05,0.63 -1.53,0.31 0.31,1.53 1.53,-0.32 z m -3.06,0.62 -1.53,0.32 0.32,1.52 1.52,-0.31 z m -3.05,0.63 -1.53,0.31 0.31,1.53 1.53,-0.31 z m -3.06,0.63 -1.53,0.31 0.31,1.53 1.53,-0.31 z m -3.06,0.62 -1.53,0.32 0.32,1.53 1.53,-0.32 z m -3.05,0.63 -1.53,0.31 0.31,1.53 1.53,-0.31 z m -3.06,0.63 -1.53,0.31 0.32,1.53 1.52,-0.31 z m -3.06,0.63 -1.52,0.31 0.31,1.53 1.53,-0.32 z m -3.05,0.62 -1.53,0.32 0.31,1.52 1.53,-0.31 z m -3.06,0.63 -1.53,0.31 0.32,1.53 1.52,-0.31 z m -3.06,0.63 -1.52,0.31 0.31,1.53 1.53,-0.31 z m -3.05,0.62 -1.53,0.32 0.31,1.53 1.53,-0.32 z m -3.06,0.63 -1.53,0.31 0.32,1.53 1.53,-0.31 z m -3.05,0.63 -1.53,0.31 0.31,1.53 1.53,-0.31 z m -3.06,0.63 -1.53,0.31 0.31,1.53 1.53,-0.32 z m -3.06,0.62 -1.53,0.32 0.32,1.52 1.53,-0.31 z m -3.05,0.63 -1.53,0.31 0.31,1.53 1.53,-0.31 z m -3.06,0.63 -1.53,0.31 0.32,1.53 1.52,-0.31 z m -3.06,0.62 -1.52,0.32 0.31,1.53 1.53,-0.32 z m -3.05,0.63 -1.53,0.31 0.31,1.53 1.53,-0.31 z m -3.06,0.63 -1.53,0.31 0.32,1.53 1.53,-0.31 z m -3.05,0.63 -1.53,0.31 0.31,1.53 1.53,-0.32 z m -3.06,0.62 -1.53,0.32 0.31,1.52 1.53,-0.31 z m -3.06,0.63 -1.53,0.31 0.32,1.53 1.53,-0.31 z m -3.05,0.63 -1.53,0.31 0.31,1.53 1.53,-0.31 z m -3.06,0.62 -1.53,0.32 0.32,1.53 1.52,-0.32 z m -3.06,0.63 -1.52,0.31 0.31,1.53 1.53,-0.31 z m -3.05,0.63 -1.53,0.31 0.31,1.53 1.53,-0.31 z m -3.06,0.63 -1.53,0.31 0.32,1.53 1.52,-0.32 z m -3.06,0.62 -1.52,0.32 0.31,1.52 1.53,-0.31 z m -3.05,0.63 -1.53,0.31 0.31,1.53 1.53,-0.31 z m -3.06,0.63 -1.53,0.31 0.32,1.53 1.53,-0.31 z m -3.05,0.62 -1.53,0.32 0.31,1.53 1.53,-0.32 z m -3.06,0.63 -1.53,0.31 0.31,1.53 1.53,-0.31 z m -3.06,0.63 -1.52,0.31 0.31,1.53 1.53,-0.31 z m -3.05,0.63 -1.53,0.31 0.31,1.53 1.53,-0.32 z m -3.06,0.62 -1.53,0.32 0.32,1.52 1.52,-0.31 z m -3.06,0.63 -1.52,0.31 0.31,1.53 1.53,-0.31 z m -3.05,0.63 -1.53,0.31 0.31,1.53 1.53,-0.32 z m -3.06,0.62 -1.53,0.32 0.32,1.53 1.53,-0.32 z m -3.05,0.63 -1.53,0.31 0.31,1.53 1.53,-0.31 z m -3.06,0.63 -1.53,0.31 0.31,1.53 1.53,-0.31 z m -3.06,0.63 -1.53,0.31 0.32,1.53 1.53,-0.32 z m -3.05,0.62 -1.53,0.32 0.31,1.52 1.53,-0.31 z m -3.06,0.63 -1.53,0.31 0.32,1.53 1.52,-0.31 z m -3.06,0.63 -1.52,0.31 0.31,1.53 1.53,-0.32 z m -3.05,0.62 -1.53,0.32 0.31,1.53 1.53,-0.32 z m -3.06,0.63 -1.53,0.31 0.32,1.53 1.52,-0.31 z m -3.06,0.63 -1.52,0.31 0.31,1.53 1.53,-0.31 z m -3.05,0.63 -1.53,0.31 0.31,1.53 1.53,-0.32 z m -3.06,0.62 -1.53,0.32 0.32,1.52 1.53,-0.31 z m -3.05,0.63 -1.53,0.31 0.31,1.53 1.53,-0.31 z m -3.06,0.63 -1.53,0.31 0.31,1.53 1.53,-0.32 z m -3.06,0.62 -1.53,0.32 0.32,1.53 1.53,-0.32 z m -3.05,0.63 -1.53,0.31 0.31,1.53 1.53,-0.31 z m -3.06,0.63 -1.53,0.31 0.32,1.53 1.52,-0.31 z m -3.06,0.63 -1.52,0.31 0.31,1.53 1.53,-0.32 z m -3.05,0.62 -1.53,0.32 0.31,1.52 1.53,-0.31 z m -3.06,0.63 -1.53,0.31 0.32,1.53 1.52,-0.31 z m -3.06,0.63 -1.52,0.31 0.31,1.53 1.53,-0.32 z m -3.05,0.62 -1.53,0.32 0.31,1.53 1.53,-0.32 z m -3.06,0.63 -1.53,0.31 0.32,1.53 1.53,-0.31 z m -3.05,0.63 -1.53,0.31 0.31,1.53 1.53,-0.31 z m -3.06,0.63 -1.53,0.31 0.31,1.53 1.53,-0.32 z m -3.06,0.62 -1.53,0.32 0.32,1.52 1.53,-0.31 z m -3.05,0.63 -0.84,0.17 0.31,1.53 0.84,-0.17 z m -0.31,-2.2 -5.27,4.14 6.48,1.73 z"
       style="fill:#000000;fill-opacity:1;fill-rule:nonzero;stroke:none"
       id="path218"
       inkscape:connector-curvature="0" /></g></svg>