<?xml version="1.0" encoding="UTF-8" standalone="no"?>
<!-- Created with Inkscape (http://www.inkscape.org/) -->

<svg
   xmlns:dc="http://purl.org/dc/elements/1.1/"
   xmlns:cc="http://creativecommons.org/ns#"
   xmlns:rdf="http://www.w3.org/1999/02/22-rdf-syntax-ns#"
   xmlns:svg="http://www.w3.org/2000/svg"
   xmlns="http://www.w3.org/2000/svg"
   xmlns:sodipodi="http://sodipodi.sourceforge.net/DTD/sodipodi-0.dtd"
   xmlns:inkscape="http://www.inkscape.org/namespaces/inkscape"
   version="1.1"
   id="svg2"
   xml:space="preserve"
   width="1260.64"
   height="656.15997"
   viewBox="0 0 1260.64 656.15997"
   sodipodi:docname="xslt.svg"
   inkscape:version="0.92.5 (2060ec1f9f, 2020-04-08)"><metadata
     id="metadata8"><rdf:RDF><cc:Work
         rdf:about=""><dc:format>image/svg+xml</dc:format><dc:type
           rdf:resource="http://purl.org/dc/dcmitype/StillImage" /><dc:title></dc:title></cc:Work></rdf:RDF></metadata><defs
     id="defs6"><clipPath
       clipPathUnits="userSpaceOnUse"
       id="clipPath18"><path
         d="M 0,1.8311e-4 H 1023.96 V 768.00018 H 0 Z"
         id="path16"
         inkscape:connector-curvature="0"
         style="clip-rule:evenodd" /></clipPath><clipPath
       clipPathUnits="userSpaceOnUse"
       id="clipPath28"><path
         d="M -6.5e-8,1.8311e-4 H 1023.96 V 768.00018 H -6.5e-8 Z"
         id="path26"
         inkscape:connector-curvature="0"
         style="clip-rule:evenodd" /></clipPath><clipPath
       clipPathUnits="userSpaceOnUse"
       id="clipPath38"><path
         d="M 0,2.4414e-4 H 1023.96 V 768.00024 H 0 Z"
         id="path36"
         inkscape:connector-curvature="0"
         style="clip-rule:evenodd" /></clipPath><clipPath
       clipPathUnits="userSpaceOnUse"
       id="clipPath48"><path
         d="M 1.5258e-5,0 H 1023.96 V 768 H 1.5258e-5 Z"
         id="path46"
         inkscape:connector-curvature="0"
         style="clip-rule:evenodd" /></clipPath><clipPath
       clipPathUnits="userSpaceOnUse"
       id="clipPath64"><path
         d="M 1.5258e-5,0 H 1023.96 V 768 H 1.5258e-5 Z"
         id="path62"
         inkscape:connector-curvature="0"
         style="clip-rule:evenodd" /></clipPath><clipPath
       clipPathUnits="userSpaceOnUse"
       id="clipPath76"><path
         d="M 1.5258e-5,0 H 1023.96 V 768 H 1.5258e-5 Z"
         id="path74"
         inkscape:connector-curvature="0"
         style="clip-rule:evenodd" /></clipPath><clipPath
       clipPathUnits="userSpaceOnUse"
       id="clipPath92"><path
         d="M 1.5258e-5,0 H 1023.96 V 768 H 1.5258e-5 Z"
         id="path90"
         inkscape:connector-curvature="0"
         style="clip-rule:evenodd" /></clipPath><clipPath
       clipPathUnits="userSpaceOnUse"
       id="clipPath104"><path
         d="M 1.5258e-5,0 H 1023.96 V 768 H 1.5258e-5 Z"
         id="path102"
         inkscape:connector-curvature="0"
         style="clip-rule:evenodd" /></clipPath><clipPath
       clipPathUnits="userSpaceOnUse"
       id="clipPath120"><path
         d="M 1.5258e-5,0 H 1023.96 V 768 H 1.5258e-5 Z"
         id="path118"
         inkscape:connector-curvature="0"
         style="clip-rule:evenodd" /></clipPath><clipPath
       clipPathUnits="userSpaceOnUse"
       id="clipPath132"><path
         d="M 1.5258e-5,0 H 1023.96 V 768 H 1.5258e-5 Z"
         id="path130"
         inkscape:connector-curvature="0"
         style="clip-rule:evenodd" /></clipPath><clipPath
       clipPathUnits="userSpaceOnUse"
       id="clipPath144"><path
         d="M 1.5258e-5,0 H 1023.96 V 768 H 1.5258e-5 Z"
         id="path142"
         inkscape:connector-curvature="0"
         style="clip-rule:evenodd" /></clipPath><clipPath
       clipPathUnits="userSpaceOnUse"
       id="clipPath160"><path
         d="M 1.5258e-5,0 H 1023.96 V 768 H 1.5258e-5 Z"
         id="path158"
         inkscape:connector-curvature="0"
         style="clip-rule:evenodd" /></clipPath><clipPath
       clipPathUnits="userSpaceOnUse"
       id="clipPath172"><path
         d="M 1.5258e-5,0 H 1023.96 V 768 H 1.5258e-5 Z"
         id="path170"
         inkscape:connector-curvature="0"
         style="clip-rule:evenodd" /></clipPath><clipPath
       clipPathUnits="userSpaceOnUse"
       id="clipPath184"><path
         d="M 1.5258e-5,0 H 1023.96 V 768 H 1.5258e-5 Z"
         id="path182"
         inkscape:connector-curvature="0"
         style="clip-rule:evenodd" /></clipPath><clipPath
       clipPathUnits="userSpaceOnUse"
       id="clipPath196"><path
         d="M 1.5258e-5,0 H 1023.96 V 768 H 1.5258e-5 Z"
         id="path194"
         inkscape:connector-curvature="0"
         style="clip-rule:evenodd" /></clipPath><clipPath
       clipPathUnits="userSpaceOnUse"
       id="clipPath208"><path
         d="M 1.5258e-5,0 H 1023.96 V 768 H 1.5258e-5 Z"
         id="path206"
         inkscape:connector-curvature="0"
         style="clip-rule:evenodd" /></clipPath><clipPath
       clipPathUnits="userSpaceOnUse"
       id="clipPath220"><path
         d="M 1.5258e-5,0 H 1023.96 V 768 H 1.5258e-5 Z"
         id="path218"
         inkscape:connector-curvature="0"
         style="clip-rule:evenodd" /></clipPath><clipPath
       clipPathUnits="userSpaceOnUse"
       id="clipPath238"><path
         d="M 1.5258e-5,0 H 1023.96 V 768 H 1.5258e-5 Z"
         id="path236"
         inkscape:connector-curvature="0"
         style="clip-rule:evenodd" /></clipPath><clipPath
       clipPathUnits="userSpaceOnUse"
       id="clipPath250"><path
         d="M 1.5258e-5,0 H 1023.96 V 768 H 1.5258e-5 Z"
         id="path248"
         inkscape:connector-curvature="0"
         style="clip-rule:evenodd" /></clipPath><clipPath
       clipPathUnits="userSpaceOnUse"
       id="clipPath262"><path
         d="M 1.5258e-5,0 H 1023.96 V 768 H 1.5258e-5 Z"
         id="path260"
         inkscape:connector-curvature="0"
         style="clip-rule:evenodd" /></clipPath><clipPath
       clipPathUnits="userSpaceOnUse"
       id="clipPath274"><path
         d="M 1.5258e-5,0 H 1023.96 V 768 H 1.5258e-5 Z"
         id="path272"
         inkscape:connector-curvature="0"
         style="clip-rule:evenodd" /></clipPath></defs><sodipodi:namedview
     pagecolor="#ffffff"
     bordercolor="#666666"
     borderopacity="1"
     objecttolerance="10"
     gridtolerance="10"
     guidetolerance="10"
     inkscape:pageopacity="0"
     inkscape:pageshadow="2"
     inkscape:window-width="1920"
     inkscape:window-height="1028"
     id="namedview4"
     showgrid="false"
     fit-margin-top="0"
     fit-margin-left="0"
     fit-margin-right="0"
     fit-margin-bottom="0"
     inkscape:zoom="0.65186406"
     inkscape:cx="643.76002"
     inkscape:cy="381.44"
     inkscape:window-x="0"
     inkscape:window-y="0"
     inkscape:window-maximized="1"
     inkscape:current-layer="g10" /><g
     id="g10"
     inkscape:groupmode="layer"
     inkscape:label="p07_Pokrocila_vizualizace"
     transform="matrix(1.3333333,0,0,-1.3333333,-38.879999,786.71998)"><path
       d="m 361.86,220.92 c 0,44.7 62.72,80.94 140.1,80.94 77.38,0 140.1,-36.24 140.1,-80.94 0,-44.7 -62.72,-80.94 -140.1,-80.94 -77.38,0 -140.1,36.24 -140.1,80.94 z"
       style="fill:#3366ff;fill-opacity:1;fill-rule:evenodd;stroke:none"
       id="path54"
       inkscape:connector-curvature="0" /><path
       d="m 361.86,220.92 c 0,44.7 62.72,80.94 140.1,80.94 77.38,0 140.1,-36.24 140.1,-80.94 0,-44.7 -62.72,-80.94 -140.1,-80.94 -77.38,0 -140.1,36.24 -140.1,80.94 z"
       style="fill:none;stroke:#3e4247;stroke-width:3;stroke-linecap:butt;stroke-linejoin:round;stroke-miterlimit:10;stroke-dasharray:none;stroke-opacity:1"
       id="path56"
       inkscape:connector-curvature="0" /><g
       id="g58"><g
         id="g60"
         clip-path="url(#clipPath64)"><text
           transform="matrix(1,0,0,-1,429,234.41)"
           style="font-variant:normal;font-weight:300;font-size:24px;font-family:Arial;-inkscape-font-specification:ArialNova-Light;writing-mode:lr-tb;fill:#ffffff;fill-opacity:1;fill-rule:nonzero;stroke:none"
           id="text68"><tspan
             x="0 13.272 21.336 34.296001 46.776001 59.448002 70.751999 83.664001"
             y="0"
             sodipodi:role="line"
             id="tspan66">procesor</tspan></text>
</g></g><g
       id="g70"><g
         id="g72"
         clip-path="url(#clipPath76)"><text
           transform="matrix(1,0,0,-1,526.94,234.41)"
           style="font-variant:normal;font-weight:300;font-size:24px;font-family:Arial;-inkscape-font-specification:ArialNova-Light;writing-mode:lr-tb;fill:#ffffff;fill-opacity:1;fill-rule:nonzero;stroke:none"
           id="text80"><tspan
             x="0 14.64 29.280001 42"
             y="0"
             sodipodi:role="line"
             id="tspan78">XSLT</tspan></text>
</g></g><path
       d="M 30.66,139.98 H 259.98 V 301.86 H 30.66 Z"
       style="fill:#dcdde0;fill-opacity:1;fill-rule:evenodd;stroke:none"
       id="path82"
       inkscape:connector-curvature="0" /><path
       d="M 30.66,139.98 H 259.98 V 301.86 H 30.66 Z"
       style="fill:none;stroke:#3e4247;stroke-width:3;stroke-linecap:butt;stroke-linejoin:miter;stroke-miterlimit:8;stroke-dasharray:none;stroke-opacity:1"
       id="path84"
       inkscape:connector-curvature="0" /><g
       id="g86"><g
         id="g88"
         clip-path="url(#clipPath92)"><text
           transform="matrix(1,0,0,-1,47.832,274.9)"
           style="font-variant:normal;font-weight:300;font-size:24px;font-family:Arial;-inkscape-font-specification:ArialNova-Light;writing-mode:lr-tb;fill:#000000;fill-opacity:1;fill-rule:nonzero;stroke:#000000;stroke-width:0.68571001;stroke-linecap:butt;stroke-linejoin:miter;stroke-miterlimit:8;stroke-dasharray:none;stroke-opacity:1"
           id="text96"><tspan
             x="0 11.016 24.431999 32.495998 45.408001 50.327999 63.167999 74.615997 85.944 91.823997 105.24 118.152 129.936 142.896 162.26401 174.81599 187.752"
             y="0"
             sodipodi:role="line"
             id="tspan94">zdrojový dokument</tspan></text>
</g></g><g
       id="g98"><g
         id="g100"
         clip-path="url(#clipPath104)"><text
           transform="matrix(1,0,0,-1,66.672,217.3)"
           style="font-variant:normal;font-weight:300;font-size:24px;font-family:Arial;-inkscape-font-specification:ArialNova-Light;writing-mode:lr-tb;fill:#000000;fill-opacity:1;fill-rule:nonzero;stroke:none"
           id="text108"><tspan
             x="0 19.368 32.208 43.464001 48.240002 54.528 67.800003 79.031998 86.015999 92.304001 103.752 110.04 124.704 144.504"
             y="0"
             sodipodi:role="line"
             id="tspan106">musí být v XML</tspan></text>
</g></g><path
       d="m 378.06,426.54 h 229.32 v 162 H 378.06 Z"
       style="fill:#000080;fill-opacity:1;fill-rule:evenodd;stroke:none"
       id="path110"
       inkscape:connector-curvature="0" /><path
       d="m 378.06,426.54 h 229.32 v 162 H 378.06 Z"
       style="fill:none;stroke:#3e4247;stroke-width:3;stroke-linecap:butt;stroke-linejoin:miter;stroke-miterlimit:8;stroke-dasharray:none;stroke-opacity:1"
       id="path112"
       inkscape:connector-curvature="0" /><g
       id="g114"><g
         id="g116"
         clip-path="url(#clipPath120)"><text
           transform="matrix(1,0,0,-1,444.55,561.53)"
           style="font-variant:normal;font-weight:300;font-size:24px;font-family:Arial;-inkscape-font-specification:ArialNova-Light;writing-mode:lr-tb;fill:#ffffff;fill-opacity:1;fill-rule:nonzero;stroke:#ffffff;stroke-width:0.68571001;stroke-linecap:butt;stroke-linejoin:miter;stroke-miterlimit:8;stroke-dasharray:none;stroke-opacity:1"
           id="text124"><tspan
             x="0 11.376 18.431999 29.664 34.487999 40.368 55.104 69.839996 82.655998"
             y="0"
             sodipodi:role="line"
             id="tspan122">styl XSLT</tspan></text>
</g></g><g
       id="g126"><g
         id="g128"
         clip-path="url(#clipPath132)"><text
           transform="matrix(1,0,0,-1,395.11,503.93)"
           style="font-variant:normal;font-weight:300;font-size:24px;font-family:Arial;-inkscape-font-specification:ArialNova-Light;writing-mode:lr-tb;fill:#ffffff;fill-opacity:1;fill-rule:nonzero;stroke:none"
           id="text136"><tspan
             x="0 13.272 21.336 34.296001 47.495998 55.560001 68.232002 87.599998 93.816002 105.072 117.792 123.912 135.168 146.39999 159.24001 166.224 178.968 190.368 195.144"
             y="0"
             sodipodi:role="line"
             id="tspan134">program se syntaxí </tspan></text>
</g></g><g
       id="g138"><g
         id="g140"
         clip-path="url(#clipPath144)"><text
           transform="matrix(1,0,0,-1,387.07,475.13)"
           style="font-variant:normal;font-weight:300;font-size:24px;font-family:Arial;-inkscape-font-specification:ArialNova-Light;writing-mode:lr-tb;fill:#ffffff;fill-opacity:1;fill-rule:nonzero;stroke:none"
           id="text148"><tspan
             x="0 10.896 23.736 36.456001 48.936001 60.720001 73.632004 85.080002 97.751999 110.232 115.008 127.848 140.832 146.832 151.70399 164.448 175.34399 186.62399 198.408"
             y="0"
             sodipodi:role="line"
             id="tspan146">značkovacího jazyka</tspan></text>
</g></g><path
       d="M 743.82,99.42 H 973.14 V 320.34 H 743.82 Z"
       style="fill:#dcdde0;fill-opacity:1;fill-rule:evenodd;stroke:none"
       id="path150"
       inkscape:connector-curvature="0" /><path
       d="M 743.82,99.42 H 973.14 V 320.34 H 743.82 Z"
       style="fill:none;stroke:#3e4247;stroke-width:3;stroke-linecap:butt;stroke-linejoin:miter;stroke-miterlimit:8;stroke-dasharray:none;stroke-opacity:1"
       id="path152"
       inkscape:connector-curvature="0" /><g
       id="g154"><g
         id="g156"
         clip-path="url(#clipPath160)"><text
           transform="matrix(1,0,0,-1,761.54,293.35)"
           style="font-variant:normal;font-weight:300;font-size:24px;font-family:Arial;-inkscape-font-specification:ArialNova-Light;writing-mode:lr-tb;fill:#000000;fill-opacity:1;fill-rule:nonzero;stroke:#000000;stroke-width:0.68571001;stroke-linecap:butt;stroke-linejoin:miter;stroke-miterlimit:8;stroke-dasharray:none;stroke-opacity:1"
           id="text164"><tspan
             x="0 11.448 22.896 34.271999 41.327999 54.167999 67.367996 80.208 84.984001 90.888 104.304 117.36 129.144 141.98399 161.35201 174.024 186.864"
             y="0"
             sodipodi:role="line"
             id="tspan162">výstupní dokument</tspan></text>
</g></g><g
       id="g166"><g
         id="g168"
         clip-path="url(#clipPath172)"><text
           transform="matrix(1,0,0,-1,802.94,235.73)"
           style="font-variant:normal;font-weight:300;font-size:24px;font-family:Arial;-inkscape-font-specification:ArialNova-Light;writing-mode:lr-tb;fill:#000000;fill-opacity:1;fill-rule:nonzero;stroke:none"
           id="text176"><tspan
             x="0 19.368 32.208 43.104 55.776001 62.063999 75.335999 86.615997 93.599998 99.695999 111.144"
             y="0"
             sodipodi:role="line"
             id="tspan174">může být v </tspan></text>
</g></g><g
       id="g178"><g
         id="g180"
         clip-path="url(#clipPath184)"><text
           transform="matrix(1,0,0,-1,764.78,206.93)"
           style="font-variant:normal;font-weight:300;font-size:24px;font-family:Arial;-inkscape-font-specification:ArialNova-Light;writing-mode:lr-tb;fill:#000000;fill-opacity:1;fill-rule:nonzero;stroke:none"
           id="text188"><tspan
             x="0 4.776 9.552 22.896 35.807999 47.256001 60.167999 64.991997 77.832001 90.503998 109.872 115.872 120.744 133.48801 144.384 155.664 168.144 180.81599 187.48801"
             y="0"
             sodipodi:role="line"
             id="tspan186">libovolném jazyce, </tspan></text>
</g></g><g
       id="g190"><g
         id="g192"
         clip-path="url(#clipPath196)"><text
           transform="matrix(1,0,0,-1,810.38,178.13)"
           style="font-variant:normal;font-weight:300;font-size:24px;font-family:Arial;-inkscape-font-specification:ArialNova-Light;writing-mode:lr-tb;fill:#000000;fill-opacity:1;fill-rule:nonzero;stroke:none"
           id="text200"><tspan
             x="0 12.84 25.511999 30.455999 42.936001 55.608002 66.912003 73.896004 86.568001 91.487999 96.264"
             y="0"
             sodipodi:role="line"
             id="tspan198">nejčastěji </tspan></text>
</g></g><g
       id="g202"><g
         id="g204"
         clip-path="url(#clipPath208)"><text
           transform="matrix(1,0,0,-1,757.34,149.33)"
           style="font-variant:normal;font-weight:300;font-size:24px;font-family:Arial;-inkscape-font-specification:ArialNova-Light;writing-mode:lr-tb;fill:#000000;fill-opacity:1;fill-rule:nonzero;stroke:none"
           id="text212"><tspan
             x="0 10.896 23.736 36.456001 48.936001 60.720001 73.632004 85.080002 97.751999 110.232 115.008 134.37601 140.496 148.48801 163.15199 182.952 195.696 202.368"
             y="0"
             sodipodi:role="line"
             id="tspan210">značkovacím (XML, </tspan></text>
</g></g><g
       id="g214"><g
         id="g216"
         clip-path="url(#clipPath220)"><text
           transform="matrix(1,0,0,-1,823.22,120.53)"
           style="font-variant:normal;font-weight:300;font-size:24px;font-family:Arial;-inkscape-font-specification:ArialNova-Light;writing-mode:lr-tb;fill:#000000;fill-opacity:1;fill-rule:nonzero;stroke:none"
           id="text224"><tspan
             x="0 16.656 30 49.799999 62.543999"
             y="0"
             sodipodi:role="line"
             id="tspan222">HTML)</tspan></text>
</g></g><path
       d="m 259.98,222.48 h 98.91 v -3 h -98.91 z m 90.67,5.05 11.22,-6.55 -11.22,-6.55 c -0.72,-0.41 -1.64,-0.17 -2.06,0.54 -0.41,0.72 -0.17,1.64 0.54,2.06 l 9,5.25 v -2.6 l -9,5.25 c -0.71,0.42 -0.95,1.34 -0.54,2.06 0.42,0.71 1.34,0.95 2.06,0.54 z"
       style="fill:#000000;fill-opacity:1;fill-rule:nonzero;stroke:none"
       id="path226"
       inkscape:connector-curvature="0" /><path
       d="M 490.68,423.42 V 304.83 h -3 v 118.59 z m 5.05,-110.35 -6.55,-11.22 -6.55,11.22 c -0.41,0.72 -0.17,1.64 0.54,2.06 0.72,0.41 1.64,0.17 2.06,-0.54 l 5.25,-9 h -2.6 l 5.25,9 c 0.42,0.71 1.34,0.95 2.06,0.54 0.71,-0.42 0.95,-1.34 0.54,-2.06 z"
       style="fill:#000000;fill-opacity:1;fill-rule:nonzero;stroke:none"
       id="path228"
       inkscape:connector-curvature="0" /><path
       d="m 642.06,222.48 h 98.79 v -3 h -98.79 z m 90.55,5.05 11.22,-6.55 -11.22,-6.55 c -0.72,-0.41 -1.64,-0.17 -2.06,0.54 -0.41,0.72 -0.17,1.64 0.54,2.06 l 9,5.25 v -2.6 l -9,5.25 c -0.71,0.42 -0.95,1.34 -0.54,2.06 0.42,0.71 1.34,0.95 2.06,0.54 z"
       style="fill:#000000;fill-opacity:1;fill-rule:nonzero;stroke:none"
       id="path230"
       inkscape:connector-curvature="0" /></g></svg>