<?xml version="1.0" encoding="UTF-8" standalone="no"?>
<!-- Created with Inkscape (http://www.inkscape.org/) -->

<svg
   xmlns:dc="http://purl.org/dc/elements/1.1/"
   xmlns:cc="http://creativecommons.org/ns#"
   xmlns:rdf="http://www.w3.org/1999/02/22-rdf-syntax-ns#"
   xmlns:svg="http://www.w3.org/2000/svg"
   xmlns="http://www.w3.org/2000/svg"
   xmlns:sodipodi="http://sodipodi.sourceforge.net/DTD/sodipodi-0.dtd"
   xmlns:inkscape="http://www.inkscape.org/namespaces/inkscape"
   version="1.1"
   id="svg2"
   xml:space="preserve"
   width="3563.3"
   height="2197.8"
   viewBox="0 0 3563.3 2197.8"
   sodipodi:docname="graf_typu.svg"
   inkscape:version="0.92.5 (2060ec1f9f, 2020-04-08)"><metadata
     id="metadata8"><rdf:RDF><cc:Work
         rdf:about=""><dc:format>image/svg+xml</dc:format><dc:type
           rdf:resource="http://purl.org/dc/dcmitype/StillImage" /><dc:title></dc:title></cc:Work></rdf:RDF></metadata><defs
     id="defs6" /><sodipodi:namedview
     pagecolor="#ffffff"
     bordercolor="#666666"
     borderopacity="1"
     objecttolerance="10"
     gridtolerance="10"
     guidetolerance="10"
     inkscape:pageopacity="0"
     inkscape:pageshadow="2"
     inkscape:window-width="813"
     inkscape:window-height="480"
     id="namedview4"
     showgrid="false"
     inkscape:zoom="0.1073801"
     inkscape:cx="1781.65"
     inkscape:cy="1098.9"
     inkscape:window-x="0"
     inkscape:window-y="0"
     inkscape:window-maximized="0"
     inkscape:current-layer="g10" /><g
     id="g10"
     inkscape:groupmode="layer"
     inkscape:label="graf_typu"
     transform="matrix(1.3333333,0,0,1.3333333,0,8.6944999e-5)"><g
       id="g12"><path
         d="M 2.699,276.449 3.074,262.125 4.199,247.801 6.074,233.625 8.699,219.523 12,205.574 l 4.125,-13.722 4.727,-13.5 5.546,-13.278 6.153,-12.898 6.824,-12.602 7.5,-12.222 8.102,-11.778 8.699,-11.398 9.375,-10.875 9.824,-10.426 10.426,-9.824 10.875,-9.375 11.398,-8.699 11.778,-8.102 12.222,-7.5 12.602,-6.824 12.898,-6.153 13.278,-5.546 13.5,-4.727 L 205.574,12 219.523,8.699 233.625,6.074 247.801,4.199 262.125,3.074 276.449,2.699 h 2119.426 l 14.324,0.375 14.324,1.125 14.176,1.875 14.102,2.625 13.949,3.301 13.727,4.125 13.5,4.727 13.273,5.546 12.898,6.153 12.602,6.824 12.227,7.5 11.773,8.102 11.398,8.699 10.875,9.375 10.426,9.824 9.824,10.426 9.375,10.875 8.704,11.398 8.097,11.778 7.5,12.222 6.824,12.602 6.153,12.898 5.551,13.278 4.722,13.5 4.125,13.722 3.301,13.949 2.625,14.102 1.875,14.176 1.125,14.324 0.375,14.324 0.074,1095.301 h -0.074 l -0.375,14.324 -1.125,14.25 -1.875,14.25 -2.625,14.102 -3.301,13.949 -4.125,13.727 -4.722,13.5 -5.477,13.199 -6.227,12.972 -6.824,12.602 -7.5,12.227 -8.097,11.773 -8.704,11.398 -9.296,10.875 -9.903,10.426 -10.347,9.824 -10.954,9.301 -11.324,8.778 -11.847,8.097 -12.153,7.5 -12.597,6.824 -12.977,6.153 -13.199,5.472 -13.5,4.801 -13.801,4.051 -13.875,3.375 -14.102,2.625 -14.25,1.875 -14.25,1.125 -14.324,0.375 -2119.5,0.074 v -0.074 l -14.324,-0.375 -14.25,-1.125 -14.25,-1.875 -14.102,-2.625 -13.949,-3.301 -13.722,-4.125 -13.5,-4.722 -13.204,-5.477 -12.972,-6.227 -12.602,-6.824 -12.222,-7.5 -11.778,-8.097 -11.398,-8.704 -10.875,-9.296 -10.426,-9.903 -9.824,-10.347 -9.301,-10.954 -8.773,-11.324 -8.102,-11.847 -7.5,-12.153 -6.824,-12.597 -6.153,-12.977 -5.472,-13.199 -4.801,-13.5 -4.051,-13.801 -3.375,-13.875 -2.625,-14.102 -1.875,-14.25 -1.125,-14.25 -0.375,-14.324 z"
         style="fill:#0365c0;fill-opacity:0.05100002;fill-rule:evenodd;stroke:none"
         id="path14"
         inkscape:connector-curvature="0" /><g
         id="g16"><path
           d="M 2.699,276.449 3.074,262.125 4.199,247.801 6.074,233.625 8.699,219.523 12,205.574 l 4.125,-13.722 4.727,-13.5 5.546,-13.278 6.153,-12.898 6.824,-12.602 7.5,-12.222 8.102,-11.778 8.699,-11.398 9.375,-10.875 9.824,-10.426 10.426,-9.824 10.875,-9.375 11.398,-8.699 11.778,-8.102 12.222,-7.5 12.602,-6.824 12.898,-6.153 13.278,-5.546 13.5,-4.727 L 205.574,12 219.523,8.699 233.625,6.074 247.801,4.199 262.125,3.074 276.449,2.699 h 2119.426 l 14.324,0.375 14.324,1.125 14.176,1.875 14.102,2.625 13.949,3.301 13.727,4.125 13.5,4.727 13.273,5.546 12.898,6.153 12.602,6.824 12.227,7.5 11.773,8.102 11.398,8.699 10.875,9.375 10.426,9.824 9.824,10.426 9.375,10.875 8.704,11.398 8.097,11.778 7.5,12.222 6.824,12.602 6.153,12.898 5.551,13.278 4.722,13.5 4.125,13.722 3.301,13.949 2.625,14.102 1.875,14.176 1.125,14.324 0.375,14.324 0.074,1095.301 h -0.074 l -0.375,14.324 -1.125,14.25 -1.875,14.25 -2.625,14.102 -3.301,13.949 -4.125,13.727 -4.722,13.5 -5.477,13.199 -6.227,12.972 -6.824,12.602 -7.5,12.227 -8.097,11.773 -8.704,11.398 -9.296,10.875 -9.903,10.426 -10.347,9.824 -10.954,9.301 -11.324,8.778 -11.847,8.097 -12.153,7.5 -12.597,6.824 -12.977,6.153 -13.199,5.472 -13.5,4.801 -13.801,4.051 -13.875,3.375 -14.102,2.625 -14.25,1.875 -14.25,1.125 -14.324,0.375 -2119.5,0.074 v -0.074 l -14.324,-0.375 -14.25,-1.125 -14.25,-1.875 -14.102,-2.625 -13.949,-3.301 -13.722,-4.125 -13.5,-4.722 -13.204,-5.477 -12.972,-6.227 -12.602,-6.824 -12.222,-7.5 -11.778,-8.097 -11.398,-8.704 -10.875,-9.296 -10.426,-9.903 -9.824,-10.347 -9.301,-10.954 -8.773,-11.324 -8.102,-11.847 -7.5,-12.153 -6.824,-12.597 -6.153,-12.977 -5.472,-13.199 -4.801,-13.5 -4.051,-13.801 -3.375,-13.875 -2.625,-14.102 -1.875,-14.25 -1.125,-14.25 -0.375,-14.324 z"
           style="fill:none;stroke:#ffffff;stroke-width:2.1166501;stroke-linecap:butt;stroke-linejoin:round;stroke-miterlimit:4;stroke-dasharray:none;stroke-opacity:0.05100002"
           id="path18"
           inkscape:connector-curvature="0" /></g><g
         id="g20"><path
           d="M 2.699,276.449 3.074,262.125 4.199,247.801 6.074,233.625 8.699,219.523 12,205.574 l 4.125,-13.722 4.727,-13.5 5.546,-13.278 6.153,-12.898 6.824,-12.602 7.5,-12.222 8.102,-11.778 8.699,-11.398 9.375,-10.875 9.824,-10.426 10.426,-9.824 10.875,-9.375 11.398,-8.699 11.778,-8.102 12.222,-7.5 12.602,-6.824 12.898,-6.153 13.278,-5.546 13.5,-4.727 L 205.574,12 219.523,8.699 233.625,6.074 247.801,4.199 262.125,3.074 276.449,2.699 h 2119.426 l 14.324,0.375 14.324,1.125 14.176,1.875 14.102,2.625 13.949,3.301 13.727,4.125 13.5,4.727 13.273,5.546 12.898,6.153 12.602,6.824 12.227,7.5 11.773,8.102 11.398,8.699 10.875,9.375 10.426,9.824 9.824,10.426 9.375,10.875 8.704,11.398 8.097,11.778 7.5,12.222 6.824,12.602 6.153,12.898 5.551,13.278 4.722,13.5 4.125,13.722 3.301,13.949 2.625,14.102 1.875,14.176 1.125,14.324 0.375,14.324 0.074,1095.301 h -0.074 l -0.375,14.324 -1.125,14.25 -1.875,14.25 -2.625,14.102 -3.301,13.949 -4.125,13.727 -4.722,13.5 -5.477,13.199 -6.227,12.972 -6.824,12.602 -7.5,12.227 -8.097,11.773 -8.704,11.398 -9.296,10.875 -9.903,10.426 -10.347,9.824 -10.954,9.301 -11.324,8.778 -11.847,8.097 -12.153,7.5 -12.597,6.824 -12.977,6.153 -13.199,5.472 -13.5,4.801 -13.801,4.051 -13.875,3.375 -14.102,2.625 -14.25,1.875 -14.25,1.125 -14.324,0.375 -2119.5,0.074 v -0.074 l -14.324,-0.375 -14.25,-1.125 -14.25,-1.875 -14.102,-2.625 -13.949,-3.301 -13.722,-4.125 -13.5,-4.722 -13.204,-5.477 -12.972,-6.227 -12.602,-6.824 -12.222,-7.5 -11.778,-8.097 -11.398,-8.704 -10.875,-9.296 -10.426,-9.903 -9.824,-10.347 -9.301,-10.954 -8.773,-11.324 -8.102,-11.847 -7.5,-12.153 -6.824,-12.597 -6.153,-12.977 -5.472,-13.199 -4.801,-13.5 -4.051,-13.801 -3.375,-13.875 -2.625,-14.102 -1.875,-14.25 -1.125,-14.25 -0.375,-14.324 z"
           style="fill:none;stroke:#024a8e;stroke-width:5.32499981;stroke-linecap:butt;stroke-linejoin:round;stroke-miterlimit:4;stroke-dasharray:none;stroke-opacity:1"
           id="path22"
           inkscape:connector-curvature="0" /></g><path
         d="m 1901.625,1026.824 0.148,-5.551 0.454,-5.625 0.75,-5.472 0.972,-5.551 1.278,-5.398 1.648,-5.329 1.801,-5.324 2.176,-5.097 2.398,-5.102 2.699,-4.875 2.852,-4.727 3.222,-4.648 3.375,-4.426 3.602,-4.273 3.824,-4.051 4.051,-3.824 4.273,-3.602 4.426,-3.375 4.653,-3.222 4.722,-2.852 4.875,-2.699 5.102,-2.403 5.097,-2.171 5.329,-1.801 5.324,-1.653 5.398,-1.273 5.551,-0.977 5.477,-0.75 5.625,-0.449 5.546,-0.148 5.551,0.148 5.625,0.449 5.477,0.75 5.551,0.977 5.398,1.273 5.324,1.653 5.324,1.801 5.102,2.171 5.102,2.403 4.875,2.699 4.722,2.852 4.653,3.222 4.421,3.375 4.278,3.602 4.051,3.824 3.824,4.051 3.597,4.273 3.375,4.426 3.227,4.648 2.852,4.727 2.699,4.875 2.398,5.102 2.176,5.097 1.801,5.324 1.648,5.329 1.278,5.398 0.972,5.551 0.75,5.472 0.449,5.625 0.153,5.551 h -0.074 l -0.153,5.551 -0.449,5.625 -0.676,5.477 -1.051,5.546 -1.273,5.403 -1.648,5.324 -1.801,5.25 -2.176,5.176 -2.398,5.023 -2.625,4.949 -2.926,4.727 -3.153,4.648 -3.449,4.426 -3.597,4.199 -3.829,4.051 -4.046,3.824 -4.278,3.676 -4.426,3.375 -4.574,3.153 -4.722,2.921 -4.954,2.704 -5.023,2.398 -5.176,2.102 -5.25,1.875 -5.324,1.574 -5.477,1.347 -5.472,0.977 -5.477,0.75 -5.625,0.449 -5.551,0.153 v -0.079 l -5.546,-0.148 -5.625,-0.449 -5.477,-0.676 -5.551,-1.051 -5.398,-1.273 -5.324,-1.653 -5.25,-1.796 -5.176,-2.176 -5.028,-2.403 -4.949,-2.625 -4.722,-2.921 -4.653,-3.153 -4.426,-3.449 -4.199,-3.602 -4.051,-3.824 -3.824,-4.051 -3.676,-4.273 -3.375,-4.426 -3.148,-4.574 -2.926,-4.727 -2.699,-4.949 -2.398,-5.023 -2.102,-5.176 -1.875,-5.25 -1.574,-5.324 -1.352,-5.477 -0.972,-5.472 -0.75,-5.477 -0.454,-5.625 z"
         style="fill:#0365c0;fill-opacity:0.32900002;fill-rule:evenodd;stroke:none"
         id="path24"
         inkscape:connector-curvature="0" /><g
         id="g26"><path
           d="m 1901.625,1026.824 0.148,-5.551 0.454,-5.625 0.75,-5.472 0.972,-5.551 1.278,-5.398 1.648,-5.329 1.801,-5.324 2.176,-5.097 2.398,-5.102 2.699,-4.875 2.852,-4.727 3.222,-4.648 3.375,-4.426 3.602,-4.273 3.824,-4.051 4.051,-3.824 4.273,-3.602 4.426,-3.375 4.653,-3.222 4.722,-2.852 4.875,-2.699 5.102,-2.403 5.097,-2.171 5.329,-1.801 5.324,-1.653 5.398,-1.273 5.551,-0.977 5.477,-0.75 5.625,-0.449 5.546,-0.148 5.551,0.148 5.625,0.449 5.477,0.75 5.551,0.977 5.398,1.273 5.324,1.653 5.324,1.801 5.102,2.171 5.102,2.403 4.875,2.699 4.722,2.852 4.653,3.222 4.421,3.375 4.278,3.602 4.051,3.824 3.824,4.051 3.597,4.273 3.375,4.426 3.227,4.648 2.852,4.727 2.699,4.875 2.398,5.102 2.176,5.097 1.801,5.324 1.648,5.329 1.278,5.398 0.972,5.551 0.75,5.472 0.449,5.625 0.153,5.551 h -0.074 l -0.153,5.551 -0.449,5.625 -0.676,5.477 -1.051,5.546 -1.273,5.403 -1.648,5.324 -1.801,5.25 -2.176,5.176 -2.398,5.023 -2.625,4.949 -2.926,4.727 -3.153,4.648 -3.449,4.426 -3.597,4.199 -3.829,4.051 -4.046,3.824 -4.278,3.676 -4.426,3.375 -4.574,3.153 -4.722,2.921 -4.954,2.704 -5.023,2.398 -5.176,2.102 -5.25,1.875 -5.324,1.574 -5.477,1.347 -5.472,0.977 -5.477,0.75 -5.625,0.449 -5.551,0.153 v -0.079 l -5.546,-0.148 -5.625,-0.449 -5.477,-0.676 -5.551,-1.051 -5.398,-1.273 -5.324,-1.653 -5.25,-1.796 -5.176,-2.176 -5.028,-2.403 -4.949,-2.625 -4.722,-2.921 -4.653,-3.153 -4.426,-3.449 -4.199,-3.602 -4.051,-3.824 -3.824,-4.051 -3.676,-4.273 -3.375,-4.426 -3.148,-4.574 -2.926,-4.727 -2.699,-4.949 -2.398,-5.023 -2.102,-5.176 -1.875,-5.25 -1.574,-5.324 -1.352,-5.477 -0.972,-5.472 -0.75,-5.477 -0.454,-5.625 z"
           style="fill:none;stroke:#ffffff;stroke-width:2.1166501;stroke-linecap:butt;stroke-linejoin:round;stroke-miterlimit:4;stroke-dasharray:none;stroke-opacity:0.32900002"
           id="path28"
           inkscape:connector-curvature="0" /></g><g
         id="g30"><path
           d="m 1901.625,1026.824 0.148,-5.551 0.454,-5.625 0.75,-5.472 0.972,-5.551 1.278,-5.398 1.648,-5.329 1.801,-5.324 2.176,-5.097 2.398,-5.102 2.699,-4.875 2.852,-4.727 3.222,-4.648 3.375,-4.426 3.602,-4.273 3.824,-4.051 4.051,-3.824 4.273,-3.602 4.426,-3.375 4.653,-3.222 4.722,-2.852 4.875,-2.699 5.102,-2.403 5.097,-2.171 5.329,-1.801 5.324,-1.653 5.398,-1.273 5.551,-0.977 5.477,-0.75 5.625,-0.449 5.546,-0.148 5.551,0.148 5.625,0.449 5.477,0.75 5.551,0.977 5.398,1.273 5.324,1.653 5.324,1.801 5.102,2.171 5.102,2.403 4.875,2.699 4.722,2.852 4.653,3.222 4.421,3.375 4.278,3.602 4.051,3.824 3.824,4.051 3.597,4.273 3.375,4.426 3.227,4.648 2.852,4.727 2.699,4.875 2.398,5.102 2.176,5.097 1.801,5.324 1.648,5.329 1.278,5.398 0.972,5.551 0.75,5.472 0.449,5.625 0.153,5.551 h -0.074 l -0.153,5.551 -0.449,5.625 -0.676,5.477 -1.051,5.546 -1.273,5.403 -1.648,5.324 -1.801,5.25 -2.176,5.176 -2.398,5.023 -2.625,4.949 -2.926,4.727 -3.153,4.648 -3.449,4.426 -3.597,4.199 -3.829,4.051 -4.046,3.824 -4.278,3.676 -4.426,3.375 -4.574,3.153 -4.722,2.921 -4.954,2.704 -5.023,2.398 -5.176,2.102 -5.25,1.875 -5.324,1.574 -5.477,1.347 -5.472,0.977 -5.477,0.75 -5.625,0.449 -5.551,0.153 v -0.079 l -5.546,-0.148 -5.625,-0.449 -5.477,-0.676 -5.551,-1.051 -5.398,-1.273 -5.324,-1.653 -5.25,-1.796 -5.176,-2.176 -5.028,-2.403 -4.949,-2.625 -4.722,-2.921 -4.653,-3.153 -4.426,-3.449 -4.199,-3.602 -4.051,-3.824 -3.824,-4.051 -3.676,-4.273 -3.375,-4.426 -3.148,-4.574 -2.926,-4.727 -2.699,-4.949 -2.398,-5.023 -2.102,-5.176 -1.875,-5.25 -1.574,-5.324 -1.352,-5.477 -0.972,-5.472 -0.75,-5.477 -0.454,-5.625 z"
           style="fill:none;stroke:#024a8e;stroke-width:5.32499981;stroke-linecap:butt;stroke-linejoin:round;stroke-miterlimit:4;stroke-dasharray:none;stroke-opacity:1"
           id="path32"
           inkscape:connector-curvature="0" /></g><g
         id="g34"><path
           d="m 1832.625,1212.227 14.699,6.148 38.102,-91.648 29.472,12.296 -38.023,91.579 14.852,6.148 -41.926,17.324 z"
           style="fill:#0365c0;fill-opacity:1;fill-rule:evenodd;stroke:#024a8e;stroke-width:5.32499981;stroke-linecap:butt;stroke-linejoin:round;stroke-miterlimit:4;stroke-dasharray:none;stroke-opacity:1"
           id="path36"
           inkscape:connector-curvature="0" /></g><g
         id="g38"><path
           d="m 2170.125,1158.523 9.824,-12.597 -76.5,-59.926 19.653,-25.125 76.574,59.852 9.898,-12.602 5.477,44.926 z"
           style="fill:#0365c0;fill-opacity:1;fill-rule:evenodd;stroke:#024a8e;stroke-width:5.32499981;stroke-linecap:butt;stroke-linejoin:round;stroke-miterlimit:4;stroke-dasharray:none;stroke-opacity:1"
           id="path40"
           inkscape:connector-curvature="0" /></g><path
         d="m 1432.273,600.074 0.153,-5.551 0.449,-5.625 0.75,-5.472 0.977,-5.551 1.273,-5.398 1.648,-5.329 1.801,-5.324 2.176,-5.097 2.398,-5.102 2.704,-4.875 2.847,-4.727 3.227,-4.648 3.375,-4.426 3.597,-4.273 3.829,-4.051 4.046,-3.824 4.278,-3.602 4.426,-3.375 4.648,-3.222 4.727,-2.852 4.875,-2.699 5.097,-2.403 5.102,-2.171 5.324,-1.801 5.324,-1.653 5.403,-1.273 5.546,-0.977 5.477,-0.75 5.625,-0.449 5.551,-0.148 5.551,0.148 5.625,0.449 5.472,0.75 5.551,0.977 5.398,1.273 5.329,1.653 5.324,1.801 5.097,2.171 5.102,2.403 4.875,2.699 4.727,2.852 4.648,3.222 4.426,3.375 4.273,3.602 4.051,3.824 3.824,4.051 3.602,4.273 3.375,4.426 3.222,4.648 2.852,4.727 2.699,4.875 2.403,5.102 2.171,5.097 1.801,5.324 1.653,5.329 1.273,5.398 0.977,5.551 0.75,5.472 0.449,5.625 0.148,5.551 h -0.074 l -0.148,5.551 -0.454,5.625 -0.671,5.477 -1.051,5.546 -1.278,5.403 -1.648,5.324 -1.801,5.25 -2.176,5.176 -2.398,5.023 -2.625,4.949 -2.926,4.727 -3.148,4.648 -3.449,4.426 -3.602,4.199 -3.824,4.051 -4.051,3.824 -4.273,3.676 -4.426,3.375 -4.574,3.153 -4.727,2.921 -4.949,2.704 -5.028,2.398 -5.171,2.102 -5.25,1.875 -5.329,1.574 -5.472,1.347 -5.477,0.977 -5.472,0.75 -5.625,0.449 -5.551,0.153 v -0.079 l -5.551,-0.148 -5.625,-0.449 -5.477,-0.676 -5.546,-1.051 -5.403,-1.273 -5.324,-1.653 -5.25,-1.796 -5.176,-2.176 -5.023,-2.403 -4.949,-2.625 -4.727,-2.921 -4.648,-3.153 -4.426,-3.449 -4.199,-3.602 -4.051,-3.824 -3.824,-4.051 -3.676,-4.273 -3.375,-4.426 -3.153,-4.574 -2.921,-4.727 -2.704,-4.949 -2.398,-5.023 -2.102,-5.176 -1.875,-5.25 -1.574,-5.324 -1.347,-5.477 -0.977,-5.472 -0.75,-5.477 -0.449,-5.625 z"
         style="fill:#ff0000;fill-opacity:0.32900002;fill-rule:evenodd;stroke:none"
         id="path42"
         inkscape:connector-curvature="0" /><g
         id="g44"><path
           d="m 1432.273,600.074 0.153,-5.551 0.449,-5.625 0.75,-5.472 0.977,-5.551 1.273,-5.398 1.648,-5.329 1.801,-5.324 2.176,-5.097 2.398,-5.102 2.704,-4.875 2.847,-4.727 3.227,-4.648 3.375,-4.426 3.597,-4.273 3.829,-4.051 4.046,-3.824 4.278,-3.602 4.426,-3.375 4.648,-3.222 4.727,-2.852 4.875,-2.699 5.097,-2.403 5.102,-2.171 5.324,-1.801 5.324,-1.653 5.403,-1.273 5.546,-0.977 5.477,-0.75 5.625,-0.449 5.551,-0.148 5.551,0.148 5.625,0.449 5.472,0.75 5.551,0.977 5.398,1.273 5.329,1.653 5.324,1.801 5.097,2.171 5.102,2.403 4.875,2.699 4.727,2.852 4.648,3.222 4.426,3.375 4.273,3.602 4.051,3.824 3.824,4.051 3.602,4.273 3.375,4.426 3.222,4.648 2.852,4.727 2.699,4.875 2.403,5.102 2.171,5.097 1.801,5.324 1.653,5.329 1.273,5.398 0.977,5.551 0.75,5.472 0.449,5.625 0.148,5.551 h -0.074 l -0.148,5.551 -0.454,5.625 -0.671,5.477 -1.051,5.546 -1.278,5.403 -1.648,5.324 -1.801,5.25 -2.176,5.176 -2.398,5.023 -2.625,4.949 -2.926,4.727 -3.148,4.648 -3.449,4.426 -3.602,4.199 -3.824,4.051 -4.051,3.824 -4.273,3.676 -4.426,3.375 -4.574,3.153 -4.727,2.921 -4.949,2.704 -5.028,2.398 -5.171,2.102 -5.25,1.875 -5.329,1.574 -5.472,1.347 -5.477,0.977 -5.472,0.75 -5.625,0.449 -5.551,0.153 v -0.079 l -5.551,-0.148 -5.625,-0.449 -5.477,-0.676 -5.546,-1.051 -5.403,-1.273 -5.324,-1.653 -5.25,-1.796 -5.176,-2.176 -5.023,-2.403 -4.949,-2.625 -4.727,-2.921 -4.648,-3.153 -4.426,-3.449 -4.199,-3.602 -4.051,-3.824 -3.824,-4.051 -3.676,-4.273 -3.375,-4.426 -3.153,-4.574 -2.921,-4.727 -2.704,-4.949 -2.398,-5.023 -2.102,-5.176 -1.875,-5.25 -1.574,-5.324 -1.347,-5.477 -0.977,-5.472 -0.75,-5.477 -0.449,-5.625 z"
           style="fill:none;stroke:#ffffff;stroke-width:2.1166501;stroke-linecap:butt;stroke-linejoin:round;stroke-miterlimit:4;stroke-dasharray:none;stroke-opacity:0.32900002"
           id="path46"
           inkscape:connector-curvature="0" /></g><g
         id="g48"><path
           d="m 1432.273,600.074 0.153,-5.551 0.449,-5.625 0.75,-5.472 0.977,-5.551 1.273,-5.398 1.648,-5.329 1.801,-5.324 2.176,-5.097 2.398,-5.102 2.704,-4.875 2.847,-4.727 3.227,-4.648 3.375,-4.426 3.597,-4.273 3.829,-4.051 4.046,-3.824 4.278,-3.602 4.426,-3.375 4.648,-3.222 4.727,-2.852 4.875,-2.699 5.097,-2.403 5.102,-2.171 5.324,-1.801 5.324,-1.653 5.403,-1.273 5.546,-0.977 5.477,-0.75 5.625,-0.449 5.551,-0.148 5.551,0.148 5.625,0.449 5.472,0.75 5.551,0.977 5.398,1.273 5.329,1.653 5.324,1.801 5.097,2.171 5.102,2.403 4.875,2.699 4.727,2.852 4.648,3.222 4.426,3.375 4.273,3.602 4.051,3.824 3.824,4.051 3.602,4.273 3.375,4.426 3.222,4.648 2.852,4.727 2.699,4.875 2.403,5.102 2.171,5.097 1.801,5.324 1.653,5.329 1.273,5.398 0.977,5.551 0.75,5.472 0.449,5.625 0.148,5.551 h -0.074 l -0.148,5.551 -0.454,5.625 -0.671,5.477 -1.051,5.546 -1.278,5.403 -1.648,5.324 -1.801,5.25 -2.176,5.176 -2.398,5.023 -2.625,4.949 -2.926,4.727 -3.148,4.648 -3.449,4.426 -3.602,4.199 -3.824,4.051 -4.051,3.824 -4.273,3.676 -4.426,3.375 -4.574,3.153 -4.727,2.921 -4.949,2.704 -5.028,2.398 -5.171,2.102 -5.25,1.875 -5.329,1.574 -5.472,1.347 -5.477,0.977 -5.472,0.75 -5.625,0.449 -5.551,0.153 v -0.079 l -5.551,-0.148 -5.625,-0.449 -5.477,-0.676 -5.546,-1.051 -5.403,-1.273 -5.324,-1.653 -5.25,-1.796 -5.176,-2.176 -5.023,-2.403 -4.949,-2.625 -4.727,-2.921 -4.648,-3.153 -4.426,-3.449 -4.199,-3.602 -4.051,-3.824 -3.824,-4.051 -3.676,-4.273 -3.375,-4.426 -3.153,-4.574 -2.921,-4.727 -2.704,-4.949 -2.398,-5.023 -2.102,-5.176 -1.875,-5.25 -1.574,-5.324 -1.347,-5.477 -0.977,-5.472 -0.75,-5.477 -0.449,-5.625 z"
           style="fill:none;stroke:#c00000;stroke-width:5.32499981;stroke-linecap:butt;stroke-linejoin:round;stroke-miterlimit:4;stroke-dasharray:none;stroke-opacity:1"
           id="path50"
           inkscape:connector-curvature="0" /></g><path
         d="m 524.102,908.625 4.5,15.375 904.347,-265.875 9,30.676 -904.347,265.801 4.574,15.449 -39.75,-21.75 z"
         style="fill:#ff0000;fill-opacity:0.32900002;fill-rule:evenodd;stroke:none"
         id="path52"
         inkscape:connector-curvature="0" /><g
         id="g54"><path
           d="m 524.102,908.625 4.5,15.375 904.347,-265.875 9,30.676 -904.347,265.801 4.574,15.449 -39.75,-21.75 z"
           style="fill:none;stroke:#ffffff;stroke-width:2.1166501;stroke-linecap:butt;stroke-linejoin:round;stroke-miterlimit:4;stroke-dasharray:none;stroke-opacity:0.32900002"
           id="path56"
           inkscape:connector-curvature="0" /></g><g
         id="g58"><path
           d="m 524.102,908.625 4.5,15.375 904.347,-265.875 9,30.676 -904.347,265.801 4.574,15.449 -39.75,-21.75 z"
           style="fill:none;stroke:#c00000;stroke-width:5.32499981;stroke-linecap:butt;stroke-linejoin:round;stroke-miterlimit:4;stroke-dasharray:none;stroke-opacity:1"
           id="path60"
           inkscape:connector-curvature="0" /></g><path
         d="m 1225.574,853.5 9.375,12.898 231.074,-168 18.75,25.875 -231,168 9.375,12.977 -44.699,-7.051 z"
         style="fill:#ff0000;fill-opacity:0.32900002;fill-rule:evenodd;stroke:none"
         id="path62"
         inkscape:connector-curvature="0" /><g
         id="g64"><path
           d="m 1225.574,853.5 9.375,12.898 231.074,-168 18.75,25.875 -231,168 9.375,12.977 -44.699,-7.051 z"
           style="fill:none;stroke:#ffffff;stroke-width:2.1166501;stroke-linecap:butt;stroke-linejoin:round;stroke-miterlimit:4;stroke-dasharray:none;stroke-opacity:0.32900002"
           id="path66"
           inkscape:connector-curvature="0" /></g><g
         id="g68"><path
           d="m 1225.574,853.5 9.375,12.898 231.074,-168 18.75,25.875 -231,168 9.375,12.977 -44.699,-7.051 z"
           style="fill:none;stroke:#c00000;stroke-width:5.32499981;stroke-linecap:butt;stroke-linejoin:round;stroke-miterlimit:4;stroke-dasharray:none;stroke-opacity:1"
           id="path70"
           inkscape:connector-curvature="0" /></g><path
         d="m 1921.648,921 10.727,-11.852 -254.773,-230.773 21.449,-23.699 254.773,230.773 10.801,-11.847 2.25,45.222 z"
         style="fill:#ff0000;fill-opacity:0.32900002;fill-rule:evenodd;stroke:none"
         id="path72"
         inkscape:connector-curvature="0" /><g
         id="g74"><path
           d="m 1921.648,921 10.727,-11.852 -254.773,-230.773 21.449,-23.699 254.773,230.773 10.801,-11.847 2.25,45.222 z"
           style="fill:none;stroke:#ffffff;stroke-width:2.1166501;stroke-linecap:butt;stroke-linejoin:round;stroke-miterlimit:4;stroke-dasharray:none;stroke-opacity:0.32900002"
           id="path76"
           inkscape:connector-curvature="0" /></g><g
         id="g78"><path
           d="m 1921.648,921 10.727,-11.852 -254.773,-230.773 21.449,-23.699 254.773,230.773 10.801,-11.847 2.25,45.222 z"
           style="fill:none;stroke:#c00000;stroke-width:5.32499981;stroke-linecap:butt;stroke-linejoin:round;stroke-miterlimit:4;stroke-dasharray:none;stroke-opacity:1"
           id="path80"
           inkscape:connector-curvature="0" /></g><text
         transform="translate(845.475,773.55)"
         style="font-variant:normal;font-weight:normal;font-size:63.52500153px;font-family:Arimo;-inkscape-font-specification:Arimo;writing-mode:lr-tb;fill:#000000;fill-opacity:1;fill-rule:nonzero;stroke:none"
         id="text88"><tspan
           x="0"
           y="0"
           id="tspan82">1</tspan><tspan
           x="512.02502"
           y="64.049973"
           id="tspan84">2</tspan><tspan
           x="874.72504"
           y="42.674953"
           id="tspan86">n</tspan></text>
<path
         d="m 1197.523,152.023 0.153,-5.546 0.449,-5.625 0.75,-5.477 0.977,-5.551 1.273,-5.398 1.648,-5.324 1.801,-5.329 2.176,-5.097 2.398,-5.102 2.704,-4.875 2.847,-4.722 3.227,-4.653 3.375,-4.426 3.597,-4.273 3.829,-4.051 4.046,-3.824 4.278,-3.602 4.426,-3.375 4.648,-3.222 4.727,-2.852 4.875,-2.699 5.097,-2.398 5.102,-2.176 5.324,-1.801 5.324,-1.648 5.403,-1.278 5.546,-0.972 5.477,-0.75 5.625,-0.454 5.551,-0.148 5.551,0.148 5.625,0.454 5.472,0.75 5.551,0.972 5.398,1.278 5.329,1.648 5.324,1.801 5.097,2.176 5.102,2.398 4.875,2.699 4.727,2.852 4.648,3.222 4.426,3.375 4.273,3.602 4.051,3.824 3.824,4.051 3.602,4.273 3.375,4.426 3.222,4.653 2.852,4.722 2.699,4.875 2.403,5.102 2.171,5.097 1.801,5.329 1.653,5.324 1.273,5.398 0.977,5.551 0.75,5.477 0.449,5.625 0.148,5.546 h -0.074 l -0.148,5.551 -0.454,5.625 -0.671,5.477 -1.051,5.551 -1.278,5.398 -1.648,5.324 -1.801,5.25 -2.176,5.176 -2.398,5.023 -2.625,4.954 -2.926,4.722 -3.148,4.653 -3.449,4.421 -3.602,4.204 -3.824,4.046 -4.051,3.829 -4.273,3.671 -4.426,3.375 -4.574,3.153 -4.727,2.926 -4.949,2.699 -5.028,2.398 -5.171,2.102 -5.25,1.875 -5.329,1.574 -5.472,1.352 -5.477,0.972 -5.472,0.75 -5.625,0.449 -5.551,0.153 v -0.074 l -5.551,-0.153 L 1293,258 l -5.477,-0.676 -5.546,-1.051 -5.403,-1.273 -5.324,-1.648 -5.25,-1.801 -5.176,-2.176 -5.023,-2.398 -4.949,-2.625 -4.727,-2.926 -4.648,-3.153 -4.426,-3.449 -4.199,-3.597 -4.051,-3.829 -3.824,-4.046 -3.676,-4.278 -3.375,-4.426 -3.153,-4.574 -2.921,-4.722 -2.704,-4.954 -2.398,-5.023 -2.102,-5.176 -1.875,-5.25 -1.574,-5.324 -1.347,-5.477 -0.977,-5.472 -0.75,-5.477 -0.449,-5.625 z"
         style="fill:#0365c0;fill-opacity:0.32900002;fill-rule:evenodd;stroke:none"
         id="path90"
         inkscape:connector-curvature="0" /><g
         id="g92"><path
           d="m 1197.523,152.023 0.153,-5.546 0.449,-5.625 0.75,-5.477 0.977,-5.551 1.273,-5.398 1.648,-5.324 1.801,-5.329 2.176,-5.097 2.398,-5.102 2.704,-4.875 2.847,-4.722 3.227,-4.653 3.375,-4.426 3.597,-4.273 3.829,-4.051 4.046,-3.824 4.278,-3.602 4.426,-3.375 4.648,-3.222 4.727,-2.852 4.875,-2.699 5.097,-2.398 5.102,-2.176 5.324,-1.801 5.324,-1.648 5.403,-1.278 5.546,-0.972 5.477,-0.75 5.625,-0.454 5.551,-0.148 5.551,0.148 5.625,0.454 5.472,0.75 5.551,0.972 5.398,1.278 5.329,1.648 5.324,1.801 5.097,2.176 5.102,2.398 4.875,2.699 4.727,2.852 4.648,3.222 4.426,3.375 4.273,3.602 4.051,3.824 3.824,4.051 3.602,4.273 3.375,4.426 3.222,4.653 2.852,4.722 2.699,4.875 2.403,5.102 2.171,5.097 1.801,5.329 1.653,5.324 1.273,5.398 0.977,5.551 0.75,5.477 0.449,5.625 0.148,5.546 h -0.074 l -0.148,5.551 -0.454,5.625 -0.671,5.477 -1.051,5.551 -1.278,5.398 -1.648,5.324 -1.801,5.25 -2.176,5.176 -2.398,5.023 -2.625,4.954 -2.926,4.722 -3.148,4.653 -3.449,4.421 -3.602,4.204 -3.824,4.046 -4.051,3.829 -4.273,3.671 -4.426,3.375 -4.574,3.153 -4.727,2.926 -4.949,2.699 -5.028,2.398 -5.171,2.102 -5.25,1.875 -5.329,1.574 -5.472,1.352 -5.477,0.972 -5.472,0.75 -5.625,0.449 -5.551,0.153 v -0.074 l -5.551,-0.153 L 1293,258 l -5.477,-0.676 -5.546,-1.051 -5.403,-1.273 -5.324,-1.648 -5.25,-1.801 -5.176,-2.176 -5.023,-2.398 -4.949,-2.625 -4.727,-2.926 -4.648,-3.153 -4.426,-3.449 -4.199,-3.597 -4.051,-3.829 -3.824,-4.046 -3.676,-4.278 -3.375,-4.426 -3.153,-4.574 -2.921,-4.722 -2.704,-4.954 -2.398,-5.023 -2.102,-5.176 -1.875,-5.25 -1.574,-5.324 -1.347,-5.477 -0.977,-5.472 -0.75,-5.477 -0.449,-5.625 z"
           style="fill:none;stroke:#ffffff;stroke-width:2.1166501;stroke-linecap:butt;stroke-linejoin:round;stroke-miterlimit:4;stroke-dasharray:none;stroke-opacity:0.32900002"
           id="path94"
           inkscape:connector-curvature="0" /></g><g
         id="g96"><path
           d="m 1197.523,152.023 0.153,-5.546 0.449,-5.625 0.75,-5.477 0.977,-5.551 1.273,-5.398 1.648,-5.324 1.801,-5.329 2.176,-5.097 2.398,-5.102 2.704,-4.875 2.847,-4.722 3.227,-4.653 3.375,-4.426 3.597,-4.273 3.829,-4.051 4.046,-3.824 4.278,-3.602 4.426,-3.375 4.648,-3.222 4.727,-2.852 4.875,-2.699 5.097,-2.398 5.102,-2.176 5.324,-1.801 5.324,-1.648 5.403,-1.278 5.546,-0.972 5.477,-0.75 5.625,-0.454 5.551,-0.148 5.551,0.148 5.625,0.454 5.472,0.75 5.551,0.972 5.398,1.278 5.329,1.648 5.324,1.801 5.097,2.176 5.102,2.398 4.875,2.699 4.727,2.852 4.648,3.222 4.426,3.375 4.273,3.602 4.051,3.824 3.824,4.051 3.602,4.273 3.375,4.426 3.222,4.653 2.852,4.722 2.699,4.875 2.403,5.102 2.171,5.097 1.801,5.329 1.653,5.324 1.273,5.398 0.977,5.551 0.75,5.477 0.449,5.625 0.148,5.546 h -0.074 l -0.148,5.551 -0.454,5.625 -0.671,5.477 -1.051,5.551 -1.278,5.398 -1.648,5.324 -1.801,5.25 -2.176,5.176 -2.398,5.023 -2.625,4.954 -2.926,4.722 -3.148,4.653 -3.449,4.421 -3.602,4.204 -3.824,4.046 -4.051,3.829 -4.273,3.671 -4.426,3.375 -4.574,3.153 -4.727,2.926 -4.949,2.699 -5.028,2.398 -5.171,2.102 -5.25,1.875 -5.329,1.574 -5.472,1.352 -5.477,0.972 -5.472,0.75 -5.625,0.449 -5.551,0.153 v -0.074 l -5.551,-0.153 L 1293,258 l -5.477,-0.676 -5.546,-1.051 -5.403,-1.273 -5.324,-1.648 -5.25,-1.801 -5.176,-2.176 -5.023,-2.398 -4.949,-2.625 -4.727,-2.926 -4.648,-3.153 -4.426,-3.449 -4.199,-3.597 -4.051,-3.829 -3.824,-4.046 -3.676,-4.278 -3.375,-4.426 -3.153,-4.574 -2.921,-4.722 -2.704,-4.954 -2.398,-5.023 -2.102,-5.176 -1.875,-5.25 -1.574,-5.324 -1.347,-5.477 -0.977,-5.472 -0.75,-5.477 -0.449,-5.625 z"
           style="fill:none;stroke:#024a8e;stroke-width:5.32499981;stroke-linecap:butt;stroke-linejoin:round;stroke-miterlimit:4;stroke-dasharray:none;stroke-opacity:1"
           id="path98"
           inkscape:connector-curvature="0" /></g><g
         id="g100"><path
           d="m 1101.523,445.5 14.778,6.148 86.398,-208.125 29.477,12.301 -86.403,208.051 14.852,6.148 -41.852,17.329 z"
           style="fill:#0365c0;fill-opacity:1;fill-rule:evenodd;stroke:#024a8e;stroke-width:5.32499981;stroke-linecap:butt;stroke-linejoin:round;stroke-miterlimit:4;stroke-dasharray:none;stroke-opacity:1"
           id="path102"
           inkscape:connector-curvature="0" /></g><g
         id="g104"><path
           d="m 1454.398,473.625 15.153,-5.023 -64.801,-194.704 30.301,-10.046 64.801,194.699 15.222,-5.102 -20.25,40.5 z"
           style="fill:#0365c0;fill-opacity:1;fill-rule:evenodd;stroke:#024a8e;stroke-width:5.32499981;stroke-linecap:butt;stroke-linejoin:round;stroke-miterlimit:4;stroke-dasharray:none;stroke-opacity:1"
           id="path106"
           inkscape:connector-curvature="0" /></g><text
         transform="translate(1037.475,325.5)"
         style="font-variant:normal;font-weight:normal;font-size:63.52500153px;font-family:Arimo;-inkscape-font-specification:Arimo;writing-mode:lr-tb;fill:#000000;fill-opacity:1;fill-rule:nonzero;stroke:none"
         id="text112"><tspan
           x="0"
           y="0"
           id="tspan108">A</tspan><tspan
           x="512.09998"
           y="21.375019"
           id="tspan110">B</tspan></text>
<path
         d="m 962.852,600.074 0.148,-5.551 0.449,-5.625 0.75,-5.472 0.977,-5.551 1.273,-5.398 1.653,-5.329 1.796,-5.324 2.176,-5.097 2.403,-5.102 2.699,-4.875 2.847,-4.727 3.227,-4.648 3.375,-4.426 3.602,-4.273 3.824,-4.051 4.051,-3.824 4.273,-3.602 4.426,-3.375 4.648,-3.222 4.727,-2.852 4.875,-2.699 5.097,-2.403 5.102,-2.171 5.324,-1.801 5.324,-1.653 5.403,-1.273 5.551,-0.977 5.472,-0.75 5.625,-0.449 5.551,-0.148 5.551,0.148 5.625,0.449 5.472,0.75 5.551,0.977 5.403,1.273 5.324,1.653 5.324,1.801 5.102,2.171 5.097,2.403 4.875,2.699 4.727,2.852 4.648,3.222 4.426,3.375 4.273,3.602 4.051,3.824 3.824,4.051 3.602,4.273 3.375,4.426 3.227,4.648 2.847,4.727 2.699,4.875 2.403,5.102 2.176,5.097 1.796,5.324 1.653,5.329 1.273,5.398 0.977,5.551 0.75,5.472 0.449,5.625 0.148,5.551 h -0.074 l -0.148,5.551 -0.449,5.625 -0.676,5.477 -1.051,5.546 -1.273,5.403 -1.653,5.324 -1.801,5.25 -2.171,5.176 -2.403,5.023 -2.625,4.949 -2.926,4.727 -3.148,4.648 -3.449,4.426 -3.602,4.199 -3.824,4.051 -4.051,3.824 -4.273,3.676 -4.426,3.375 -4.574,3.153 -4.727,2.921 -4.949,2.704 -5.023,2.398 -5.176,2.102 -5.25,1.875 -5.324,1.574 -5.477,1.347 -5.477,0.977 -5.472,0.75 -5.625,0.449 -5.551,0.153 v -0.079 l -5.551,-0.148 -5.625,-0.449 -5.472,-0.676 -5.551,-1.051 -5.403,-1.273 -5.324,-1.653 -5.25,-1.796 -5.176,-2.176 -5.023,-2.403 -4.949,-2.625 -4.727,-2.921 -4.648,-3.153 -4.426,-3.449 -4.199,-3.602 -4.051,-3.824 -3.824,-4.051 -3.676,-4.273 -3.375,-4.426 -3.148,-4.574 -2.926,-4.727 -2.699,-4.949 -2.403,-5.023 -2.097,-5.176 -1.875,-5.25 -1.579,-5.324 -1.347,-5.477 -0.977,-5.472 -0.75,-5.477 -0.449,-5.625 z"
         style="fill:#92d050;fill-opacity:0.32900002;fill-rule:evenodd;stroke:none"
         id="path114"
         inkscape:connector-curvature="0" /><g
         id="g116"><path
           d="m 962.852,600.074 0.148,-5.551 0.449,-5.625 0.75,-5.472 0.977,-5.551 1.273,-5.398 1.653,-5.329 1.796,-5.324 2.176,-5.097 2.403,-5.102 2.699,-4.875 2.847,-4.727 3.227,-4.648 3.375,-4.426 3.602,-4.273 3.824,-4.051 4.051,-3.824 4.273,-3.602 4.426,-3.375 4.648,-3.222 4.727,-2.852 4.875,-2.699 5.097,-2.403 5.102,-2.171 5.324,-1.801 5.324,-1.653 5.403,-1.273 5.551,-0.977 5.472,-0.75 5.625,-0.449 5.551,-0.148 5.551,0.148 5.625,0.449 5.472,0.75 5.551,0.977 5.403,1.273 5.324,1.653 5.324,1.801 5.102,2.171 5.097,2.403 4.875,2.699 4.727,2.852 4.648,3.222 4.426,3.375 4.273,3.602 4.051,3.824 3.824,4.051 3.602,4.273 3.375,4.426 3.227,4.648 2.847,4.727 2.699,4.875 2.403,5.102 2.176,5.097 1.796,5.324 1.653,5.329 1.273,5.398 0.977,5.551 0.75,5.472 0.449,5.625 0.148,5.551 h -0.074 l -0.148,5.551 -0.449,5.625 -0.676,5.477 -1.051,5.546 -1.273,5.403 -1.653,5.324 -1.801,5.25 -2.171,5.176 -2.403,5.023 -2.625,4.949 -2.926,4.727 -3.148,4.648 -3.449,4.426 -3.602,4.199 -3.824,4.051 -4.051,3.824 -4.273,3.676 -4.426,3.375 -4.574,3.153 -4.727,2.921 -4.949,2.704 -5.023,2.398 -5.176,2.102 -5.25,1.875 -5.324,1.574 -5.477,1.347 -5.477,0.977 -5.472,0.75 -5.625,0.449 -5.551,0.153 v -0.079 l -5.551,-0.148 -5.625,-0.449 -5.472,-0.676 -5.551,-1.051 -5.403,-1.273 -5.324,-1.653 -5.25,-1.796 -5.176,-2.176 -5.023,-2.403 -4.949,-2.625 -4.727,-2.921 -4.648,-3.153 -4.426,-3.449 -4.199,-3.602 -4.051,-3.824 -3.824,-4.051 -3.676,-4.273 -3.375,-4.426 -3.148,-4.574 -2.926,-4.727 -2.699,-4.949 -2.403,-5.023 -2.097,-5.176 -1.875,-5.25 -1.579,-5.324 -1.347,-5.477 -0.977,-5.472 -0.75,-5.477 -0.449,-5.625 z"
           style="fill:none;stroke:#ffffff;stroke-width:2.1166501;stroke-linecap:butt;stroke-linejoin:round;stroke-miterlimit:4;stroke-dasharray:none;stroke-opacity:0.32900002"
           id="path118"
           inkscape:connector-curvature="0" /></g><g
         id="g120"><path
           d="m 962.852,600.074 0.148,-5.551 0.449,-5.625 0.75,-5.472 0.977,-5.551 1.273,-5.398 1.653,-5.329 1.796,-5.324 2.176,-5.097 2.403,-5.102 2.699,-4.875 2.847,-4.727 3.227,-4.648 3.375,-4.426 3.602,-4.273 3.824,-4.051 4.051,-3.824 4.273,-3.602 4.426,-3.375 4.648,-3.222 4.727,-2.852 4.875,-2.699 5.097,-2.403 5.102,-2.171 5.324,-1.801 5.324,-1.653 5.403,-1.273 5.551,-0.977 5.472,-0.75 5.625,-0.449 5.551,-0.148 5.551,0.148 5.625,0.449 5.472,0.75 5.551,0.977 5.403,1.273 5.324,1.653 5.324,1.801 5.102,2.171 5.097,2.403 4.875,2.699 4.727,2.852 4.648,3.222 4.426,3.375 4.273,3.602 4.051,3.824 3.824,4.051 3.602,4.273 3.375,4.426 3.227,4.648 2.847,4.727 2.699,4.875 2.403,5.102 2.176,5.097 1.796,5.324 1.653,5.329 1.273,5.398 0.977,5.551 0.75,5.472 0.449,5.625 0.148,5.551 h -0.074 l -0.148,5.551 -0.449,5.625 -0.676,5.477 -1.051,5.546 -1.273,5.403 -1.653,5.324 -1.801,5.25 -2.171,5.176 -2.403,5.023 -2.625,4.949 -2.926,4.727 -3.148,4.648 -3.449,4.426 -3.602,4.199 -3.824,4.051 -4.051,3.824 -4.273,3.676 -4.426,3.375 -4.574,3.153 -4.727,2.921 -4.949,2.704 -5.023,2.398 -5.176,2.102 -5.25,1.875 -5.324,1.574 -5.477,1.347 -5.477,0.977 -5.472,0.75 -5.625,0.449 -5.551,0.153 v -0.079 l -5.551,-0.148 -5.625,-0.449 -5.472,-0.676 -5.551,-1.051 -5.403,-1.273 -5.324,-1.653 -5.25,-1.796 -5.176,-2.176 -5.023,-2.403 -4.949,-2.625 -4.727,-2.921 -4.648,-3.153 -4.426,-3.449 -4.199,-3.602 -4.051,-3.824 -3.824,-4.051 -3.676,-4.273 -3.375,-4.426 -3.148,-4.574 -2.926,-4.727 -2.699,-4.949 -2.403,-5.023 -2.097,-5.176 -1.875,-5.25 -1.579,-5.324 -1.347,-5.477 -0.977,-5.472 -0.75,-5.477 -0.449,-5.625 z"
           style="fill:none;stroke:#6e5e12;stroke-width:5.32499981;stroke-linecap:butt;stroke-linejoin:round;stroke-miterlimit:4;stroke-dasharray:none;stroke-opacity:1"
           id="path122"
           inkscape:connector-curvature="0" /></g><path
         d="m 2221.648,1176.148 0.153,-5.546 0.449,-5.625 0.75,-5.477 0.977,-5.551 1.273,-5.398 1.648,-5.324 1.801,-5.329 2.176,-5.097 2.398,-5.102 2.704,-4.875 2.847,-4.722 3.227,-4.653 3.375,-4.426 3.597,-4.273 3.829,-4.051 4.046,-3.824 4.278,-3.602 4.426,-3.375 4.648,-3.222 4.727,-2.852 4.875,-2.699 5.097,-2.398 5.102,-2.176 5.324,-1.801 5.324,-1.648 5.403,-1.278 5.546,-0.972 5.477,-0.75 5.625,-0.454 5.551,-0.148 5.551,0.148 5.625,0.454 5.472,0.75 5.551,0.972 5.398,1.278 5.329,1.648 5.324,1.801 5.097,2.176 5.102,2.398 4.875,2.699 4.727,2.852 4.648,3.222 4.426,3.375 4.273,3.602 4.051,3.824 3.824,4.051 3.602,4.273 3.375,4.426 3.222,4.653 2.852,4.722 2.699,4.875 2.403,5.102 2.171,5.097 1.801,5.329 1.653,5.324 1.273,5.398 0.977,5.551 0.75,5.477 0.449,5.625 0.148,5.546 h -0.074 l -0.148,5.551 -0.454,5.625 -0.671,5.477 -1.051,5.551 -1.278,5.398 -1.648,5.324 -1.801,5.25 -2.176,5.176 -2.398,5.023 -2.625,4.954 -2.926,4.722 -3.148,4.653 -3.449,4.421 -3.602,4.204 -3.824,4.046 -4.051,3.829 -4.273,3.671 -4.426,3.375 -4.574,3.153 -4.727,2.926 -4.949,2.699 -5.028,2.398 -5.171,2.102 -5.25,1.875 -5.329,1.574 -5.472,1.352 -5.477,0.972 -5.472,0.75 -5.625,0.449 -5.551,0.153 v -0.074 l -5.551,-0.153 -5.625,-0.449 -5.477,-0.676 -5.546,-1.051 -5.403,-1.273 -5.324,-1.648 -5.25,-1.801 -5.176,-2.176 -5.023,-2.398 -4.949,-2.625 -4.727,-2.926 -4.648,-3.153 -4.426,-3.449 -4.199,-3.597 -4.051,-3.829 -3.824,-4.046 -3.676,-4.278 -3.375,-4.426 -3.153,-4.574 -2.921,-4.722 -2.704,-4.954 -2.398,-5.023 -2.102,-5.176 -1.875,-5.25 -1.574,-5.324 -1.347,-5.477 -0.977,-5.472 -0.75,-5.477 -0.449,-5.625 z"
         style="fill:#0365c0;fill-opacity:0.32900002;fill-rule:evenodd;stroke:none"
         id="path124"
         inkscape:connector-curvature="0" /><g
         id="g126"><path
           d="m 2221.648,1176.148 0.153,-5.546 0.449,-5.625 0.75,-5.477 0.977,-5.551 1.273,-5.398 1.648,-5.324 1.801,-5.329 2.176,-5.097 2.398,-5.102 2.704,-4.875 2.847,-4.722 3.227,-4.653 3.375,-4.426 3.597,-4.273 3.829,-4.051 4.046,-3.824 4.278,-3.602 4.426,-3.375 4.648,-3.222 4.727,-2.852 4.875,-2.699 5.097,-2.398 5.102,-2.176 5.324,-1.801 5.324,-1.648 5.403,-1.278 5.546,-0.972 5.477,-0.75 5.625,-0.454 5.551,-0.148 5.551,0.148 5.625,0.454 5.472,0.75 5.551,0.972 5.398,1.278 5.329,1.648 5.324,1.801 5.097,2.176 5.102,2.398 4.875,2.699 4.727,2.852 4.648,3.222 4.426,3.375 4.273,3.602 4.051,3.824 3.824,4.051 3.602,4.273 3.375,4.426 3.222,4.653 2.852,4.722 2.699,4.875 2.403,5.102 2.171,5.097 1.801,5.329 1.653,5.324 1.273,5.398 0.977,5.551 0.75,5.477 0.449,5.625 0.148,5.546 h -0.074 l -0.148,5.551 -0.454,5.625 -0.671,5.477 -1.051,5.551 -1.278,5.398 -1.648,5.324 -1.801,5.25 -2.176,5.176 -2.398,5.023 -2.625,4.954 -2.926,4.722 -3.148,4.653 -3.449,4.421 -3.602,4.204 -3.824,4.046 -4.051,3.829 -4.273,3.671 -4.426,3.375 -4.574,3.153 -4.727,2.926 -4.949,2.699 -5.028,2.398 -5.171,2.102 -5.25,1.875 -5.329,1.574 -5.472,1.352 -5.477,0.972 -5.472,0.75 -5.625,0.449 -5.551,0.153 v -0.074 l -5.551,-0.153 -5.625,-0.449 -5.477,-0.676 -5.546,-1.051 -5.403,-1.273 -5.324,-1.648 -5.25,-1.801 -5.176,-2.176 -5.023,-2.398 -4.949,-2.625 -4.727,-2.926 -4.648,-3.153 -4.426,-3.449 -4.199,-3.597 -4.051,-3.829 -3.824,-4.046 -3.676,-4.278 -3.375,-4.426 -3.153,-4.574 -2.921,-4.722 -2.704,-4.954 -2.398,-5.023 -2.102,-5.176 -1.875,-5.25 -1.574,-5.324 -1.347,-5.477 -0.977,-5.472 -0.75,-5.477 -0.449,-5.625 z"
           style="fill:none;stroke:#ffffff;stroke-width:2.1166501;stroke-linecap:butt;stroke-linejoin:round;stroke-miterlimit:4;stroke-dasharray:none;stroke-opacity:0.32900002"
           id="path128"
           inkscape:connector-curvature="0" /></g><g
         id="g130"><path
           d="m 2221.648,1176.148 0.153,-5.546 0.449,-5.625 0.75,-5.477 0.977,-5.551 1.273,-5.398 1.648,-5.324 1.801,-5.329 2.176,-5.097 2.398,-5.102 2.704,-4.875 2.847,-4.722 3.227,-4.653 3.375,-4.426 3.597,-4.273 3.829,-4.051 4.046,-3.824 4.278,-3.602 4.426,-3.375 4.648,-3.222 4.727,-2.852 4.875,-2.699 5.097,-2.398 5.102,-2.176 5.324,-1.801 5.324,-1.648 5.403,-1.278 5.546,-0.972 5.477,-0.75 5.625,-0.454 5.551,-0.148 5.551,0.148 5.625,0.454 5.472,0.75 5.551,0.972 5.398,1.278 5.329,1.648 5.324,1.801 5.097,2.176 5.102,2.398 4.875,2.699 4.727,2.852 4.648,3.222 4.426,3.375 4.273,3.602 4.051,3.824 3.824,4.051 3.602,4.273 3.375,4.426 3.222,4.653 2.852,4.722 2.699,4.875 2.403,5.102 2.171,5.097 1.801,5.329 1.653,5.324 1.273,5.398 0.977,5.551 0.75,5.477 0.449,5.625 0.148,5.546 h -0.074 l -0.148,5.551 -0.454,5.625 -0.671,5.477 -1.051,5.551 -1.278,5.398 -1.648,5.324 -1.801,5.25 -2.176,5.176 -2.398,5.023 -2.625,4.954 -2.926,4.722 -3.148,4.653 -3.449,4.421 -3.602,4.204 -3.824,4.046 -4.051,3.829 -4.273,3.671 -4.426,3.375 -4.574,3.153 -4.727,2.926 -4.949,2.699 -5.028,2.398 -5.171,2.102 -5.25,1.875 -5.329,1.574 -5.472,1.352 -5.477,0.972 -5.472,0.75 -5.625,0.449 -5.551,0.153 v -0.074 l -5.551,-0.153 -5.625,-0.449 -5.477,-0.676 -5.546,-1.051 -5.403,-1.273 -5.324,-1.648 -5.25,-1.801 -5.176,-2.176 -5.023,-2.398 -4.949,-2.625 -4.727,-2.926 -4.648,-3.153 -4.426,-3.449 -4.199,-3.597 -4.051,-3.829 -3.824,-4.046 -3.676,-4.278 -3.375,-4.426 -3.153,-4.574 -2.921,-4.722 -2.704,-4.954 -2.398,-5.023 -2.102,-5.176 -1.875,-5.25 -1.574,-5.324 -1.347,-5.477 -0.977,-5.472 -0.75,-5.477 -0.449,-5.625 z"
           style="fill:none;stroke:#024a8e;stroke-width:5.32499981;stroke-linecap:butt;stroke-linejoin:round;stroke-miterlimit:4;stroke-dasharray:none;stroke-opacity:1"
           id="path132"
           inkscape:connector-curvature="0" /></g><path
         d="m 2360.25,1560.148 h -53.324 V 1432.199 H 2413.5 v 127.949 z"
         style="fill:#002060;fill-opacity:0.11000001;fill-rule:evenodd;stroke:none"
         id="path134"
         inkscape:connector-curvature="0" /><g
         id="g136"><path
           d="m 2360.25,1560.148 h -53.324 V 1432.199 H 2413.5 v 127.949 z"
           style="fill:none;stroke:#ffffff;stroke-width:2.1166501;stroke-linecap:butt;stroke-linejoin:round;stroke-miterlimit:4;stroke-dasharray:none;stroke-opacity:0.11000001"
           id="path138"
           inkscape:connector-curvature="0" /></g><g
         id="g140"><path
           d="m 2360.25,1560.148 h -53.324 V 1432.199 H 2413.5 v 127.949 z"
           style="fill:none;stroke:#000000;stroke-width:2.625;stroke-linecap:butt;stroke-linejoin:miter;stroke-miterlimit:4;stroke-dasharray:none;stroke-opacity:1"
           id="path142"
           inkscape:connector-curvature="0" /></g><text
         transform="translate(2338.95,1498.95)"
         style="font-variant:normal;font-weight:normal;font-size:63.52500153px;font-family:Arimo;-inkscape-font-specification:Arimo;writing-mode:lr-tb;fill:#000000;fill-opacity:1;fill-rule:nonzero;stroke:none"
         id="text146"><tspan
           x="0"
           y="0"
           id="tspan144">…</tspan></text>
<g
         id="g148"><path
           d="m 2162.102,1339.051 14.773,6.148 28.648,-69 29.477,12.227 -28.648,69 14.847,6.148 -41.847,17.324 z"
           style="fill:#0365c0;fill-opacity:1;fill-rule:evenodd;stroke:#024a8e;stroke-width:5.32499981;stroke-linecap:butt;stroke-linejoin:round;stroke-miterlimit:4;stroke-dasharray:none;stroke-opacity:1"
           id="path150"
           inkscape:connector-curvature="0" /></g><g
         id="g152"><path
           d="m 2256.898,1395.676 15.75,2.25 13.051,-91.574 31.653,4.5 -13.051,91.574 15.898,2.25 -36.222,27.222 z"
           style="fill:#0365c0;fill-opacity:1;fill-rule:evenodd;stroke:#024a8e;stroke-width:5.32499981;stroke-linecap:butt;stroke-linejoin:round;stroke-miterlimit:4;stroke-dasharray:none;stroke-opacity:1"
           id="path154"
           inkscape:connector-curvature="0" /></g><g
         id="g156"><path
           d="m 2446.5,1401.676 15.148,-5.028 -32.773,-98.625 30.301,-10.125 32.847,98.625 15.227,-5.023 -20.324,40.5 z"
           style="fill:#0365c0;fill-opacity:1;fill-rule:evenodd;stroke:#024a8e;stroke-width:5.32499981;stroke-linecap:butt;stroke-linejoin:round;stroke-miterlimit:4;stroke-dasharray:none;stroke-opacity:1"
           id="path158"
           inkscape:connector-curvature="0" /></g><text
         transform="translate(1933.575,1328.25)"
         style="font-variant:normal;font-weight:normal;font-size:63.52500153px;font-family:Arimo;-inkscape-font-specification:Arimo;writing-mode:lr-tb;fill:#000000;fill-opacity:1;fill-rule:nonzero;stroke:none"
         id="text162"><tspan
           x="0 14.10255 67.018875 102.33878 137.65868"
           y="0"
           sodipodi:role="line"
           id="tspan160">jméno</tspan></text>
<text
         transform="translate(2106.3,1344.15)"
         style="font-variant:normal;font-weight:normal;font-size:36.82500076px;font-family:Arimo;-inkscape-font-specification:Arimo;writing-mode:lr-tb;fill:#000000;fill-opacity:1;fill-rule:nonzero;stroke:none"
         id="text166"><tspan
           x="0"
           y="0"
           id="tspan164">1</tspan></text>
<text
         transform="translate(2040.225,1477.65)"
         style="font-variant:normal;font-weight:normal;font-size:63.52500153px;font-family:Arimo;-inkscape-font-specification:Arimo;writing-mode:lr-tb;fill:#000000;fill-opacity:1;fill-rule:nonzero;stroke:none"
         id="text170"><tspan
           x="0 14.10255 67.018875 102.33878 137.65868"
           y="0"
           sodipodi:role="line"
           id="tspan168">jméno</tspan></text>
<text
         transform="translate(2212.95,1493.55)"
         style="font-variant:normal;font-weight:normal;font-size:36.82500076px;font-family:Arimo;-inkscape-font-specification:Arimo;writing-mode:lr-tb;fill:#000000;fill-opacity:1;fill-rule:nonzero;stroke:none"
         id="text174"><tspan
           x="0"
           y="0"
           id="tspan172">2</tspan></text>
<text
         transform="translate(2424.3,1498.95)"
         style="font-variant:normal;font-weight:normal;font-size:63.52500153px;font-family:Arimo;-inkscape-font-specification:Arimo;writing-mode:lr-tb;fill:#000000;fill-opacity:1;fill-rule:nonzero;stroke:none"
         id="text178"><tspan
           x="0 14.10255 67.018875 102.33878 137.65868"
           y="0"
           sodipodi:role="line"
           id="tspan176">jméno</tspan></text>
<text
         transform="translate(2597.025,1514.85)"
         style="font-variant:normal;font-weight:normal;font-size:36.82500076px;font-family:Arimo;-inkscape-font-specification:Arimo;writing-mode:lr-tb;fill:#000000;fill-opacity:1;fill-rule:nonzero;stroke:none"
         id="text182"><tspan
           x="0"
           y="0"
           id="tspan180">n</tspan></text>
<text
         transform="translate(1741.575,1178.925)"
         style="font-variant:normal;font-weight:normal;font-size:63.52500153px;font-family:Arimo;-inkscape-font-specification:Arimo;writing-mode:lr-tb;fill:#000000;fill-opacity:1;fill-rule:nonzero;stroke:none"
         id="text188"><tspan
           x="0"
           y="0"
           id="tspan184">C</tspan><tspan
           x="298.65002"
           y="21.375019"
           id="tspan186">D</tspan></text>
<path
         d="m 1709.625,1368.148 0.148,-5.546 0.454,-5.625 0.75,-5.477 0.972,-5.551 1.278,-5.398 1.648,-5.324 1.801,-5.329 2.176,-5.097 2.398,-5.102 2.699,-4.875 2.852,-4.722 3.222,-4.653 3.375,-4.426 3.602,-4.273 3.824,-4.051 4.051,-3.824 4.273,-3.602 4.426,-3.375 4.653,-3.222 4.722,-2.852 4.875,-2.699 5.102,-2.398 5.097,-2.176 5.329,-1.801 5.324,-1.648 5.398,-1.278 5.551,-0.972 5.477,-0.75 5.625,-0.454 5.546,-0.148 5.551,0.148 5.625,0.454 5.477,0.75 5.551,0.972 5.398,1.278 5.324,1.648 5.324,1.801 5.102,2.176 5.102,2.398 4.875,2.699 4.722,2.852 4.653,3.222 4.421,3.375 4.278,3.602 4.051,3.824 3.824,4.051 3.597,4.273 3.375,4.426 3.227,4.653 2.852,4.722 2.699,4.875 2.398,5.102 2.176,5.097 1.801,5.329 1.648,5.324 1.278,5.398 0.972,5.551 0.75,5.477 0.449,5.625 0.153,5.546 h -0.074 l -0.153,5.551 -0.449,5.625 -0.676,5.477 -1.051,5.551 -1.273,5.398 -1.648,5.324 -1.801,5.25 -2.176,5.176 -2.398,5.023 -2.625,4.954 -2.926,4.722 -3.153,4.653 -3.449,4.421 -3.597,4.204 -3.829,4.046 -4.046,3.829 -4.278,3.671 -4.426,3.375 -4.574,3.153 -4.722,2.926 -4.954,2.699 -5.023,2.398 -5.176,2.102 -5.25,1.875 -5.324,1.574 -5.477,1.352 -5.472,0.972 -5.477,0.75 -5.625,0.449 -5.551,0.153 v -0.074 l -5.546,-0.153 -5.625,-0.449 -5.477,-0.676 -5.551,-1.051 -5.398,-1.273 -5.324,-1.648 -5.25,-1.801 -5.176,-2.176 -5.028,-2.398 -4.949,-2.625 -4.722,-2.926 -4.653,-3.153 -4.426,-3.449 -4.199,-3.597 -4.051,-3.829 -3.824,-4.046 -3.676,-4.278 -3.375,-4.426 -3.148,-4.574 -2.926,-4.722 -2.699,-4.954 -2.398,-5.023 -2.102,-5.176 -1.875,-5.25 -1.574,-5.324 -1.352,-5.477 -0.972,-5.472 -0.75,-5.477 -0.454,-5.625 z"
         style="fill:#92d050;fill-opacity:0.32900002;fill-rule:evenodd;stroke:none"
         id="path190"
         inkscape:connector-curvature="0" /><g
         id="g192"><path
           d="m 1709.625,1368.148 0.148,-5.546 0.454,-5.625 0.75,-5.477 0.972,-5.551 1.278,-5.398 1.648,-5.324 1.801,-5.329 2.176,-5.097 2.398,-5.102 2.699,-4.875 2.852,-4.722 3.222,-4.653 3.375,-4.426 3.602,-4.273 3.824,-4.051 4.051,-3.824 4.273,-3.602 4.426,-3.375 4.653,-3.222 4.722,-2.852 4.875,-2.699 5.102,-2.398 5.097,-2.176 5.329,-1.801 5.324,-1.648 5.398,-1.278 5.551,-0.972 5.477,-0.75 5.625,-0.454 5.546,-0.148 5.551,0.148 5.625,0.454 5.477,0.75 5.551,0.972 5.398,1.278 5.324,1.648 5.324,1.801 5.102,2.176 5.102,2.398 4.875,2.699 4.722,2.852 4.653,3.222 4.421,3.375 4.278,3.602 4.051,3.824 3.824,4.051 3.597,4.273 3.375,4.426 3.227,4.653 2.852,4.722 2.699,4.875 2.398,5.102 2.176,5.097 1.801,5.329 1.648,5.324 1.278,5.398 0.972,5.551 0.75,5.477 0.449,5.625 0.153,5.546 h -0.074 l -0.153,5.551 -0.449,5.625 -0.676,5.477 -1.051,5.551 -1.273,5.398 -1.648,5.324 -1.801,5.25 -2.176,5.176 -2.398,5.023 -2.625,4.954 -2.926,4.722 -3.153,4.653 -3.449,4.421 -3.597,4.204 -3.829,4.046 -4.046,3.829 -4.278,3.671 -4.426,3.375 -4.574,3.153 -4.722,2.926 -4.954,2.699 -5.023,2.398 -5.176,2.102 -5.25,1.875 -5.324,1.574 -5.477,1.352 -5.472,0.972 -5.477,0.75 -5.625,0.449 -5.551,0.153 v -0.074 l -5.546,-0.153 -5.625,-0.449 -5.477,-0.676 -5.551,-1.051 -5.398,-1.273 -5.324,-1.648 -5.25,-1.801 -5.176,-2.176 -5.028,-2.398 -4.949,-2.625 -4.722,-2.926 -4.653,-3.153 -4.426,-3.449 -4.199,-3.597 -4.051,-3.829 -3.824,-4.046 -3.676,-4.278 -3.375,-4.426 -3.148,-4.574 -2.926,-4.722 -2.699,-4.954 -2.398,-5.023 -2.102,-5.176 -1.875,-5.25 -1.574,-5.324 -1.352,-5.477 -0.972,-5.472 -0.75,-5.477 -0.454,-5.625 z"
           style="fill:none;stroke:#ffffff;stroke-width:2.1166501;stroke-linecap:butt;stroke-linejoin:round;stroke-miterlimit:4;stroke-dasharray:none;stroke-opacity:0.32900002"
           id="path194"
           inkscape:connector-curvature="0" /></g><g
         id="g196"><path
           d="m 1709.625,1368.148 0.148,-5.546 0.454,-5.625 0.75,-5.477 0.972,-5.551 1.278,-5.398 1.648,-5.324 1.801,-5.329 2.176,-5.097 2.398,-5.102 2.699,-4.875 2.852,-4.722 3.222,-4.653 3.375,-4.426 3.602,-4.273 3.824,-4.051 4.051,-3.824 4.273,-3.602 4.426,-3.375 4.653,-3.222 4.722,-2.852 4.875,-2.699 5.102,-2.398 5.097,-2.176 5.329,-1.801 5.324,-1.648 5.398,-1.278 5.551,-0.972 5.477,-0.75 5.625,-0.454 5.546,-0.148 5.551,0.148 5.625,0.454 5.477,0.75 5.551,0.972 5.398,1.278 5.324,1.648 5.324,1.801 5.102,2.176 5.102,2.398 4.875,2.699 4.722,2.852 4.653,3.222 4.421,3.375 4.278,3.602 4.051,3.824 3.824,4.051 3.597,4.273 3.375,4.426 3.227,4.653 2.852,4.722 2.699,4.875 2.398,5.102 2.176,5.097 1.801,5.329 1.648,5.324 1.278,5.398 0.972,5.551 0.75,5.477 0.449,5.625 0.153,5.546 h -0.074 l -0.153,5.551 -0.449,5.625 -0.676,5.477 -1.051,5.551 -1.273,5.398 -1.648,5.324 -1.801,5.25 -2.176,5.176 -2.398,5.023 -2.625,4.954 -2.926,4.722 -3.153,4.653 -3.449,4.421 -3.597,4.204 -3.829,4.046 -4.046,3.829 -4.278,3.671 -4.426,3.375 -4.574,3.153 -4.722,2.926 -4.954,2.699 -5.023,2.398 -5.176,2.102 -5.25,1.875 -5.324,1.574 -5.477,1.352 -5.472,0.972 -5.477,0.75 -5.625,0.449 -5.551,0.153 v -0.074 l -5.546,-0.153 -5.625,-0.449 -5.477,-0.676 -5.551,-1.051 -5.398,-1.273 -5.324,-1.648 -5.25,-1.801 -5.176,-2.176 -5.028,-2.398 -4.949,-2.625 -4.722,-2.926 -4.653,-3.153 -4.426,-3.449 -4.199,-3.597 -4.051,-3.829 -3.824,-4.046 -3.676,-4.278 -3.375,-4.426 -3.148,-4.574 -2.926,-4.722 -2.699,-4.954 -2.398,-5.023 -2.102,-5.176 -1.875,-5.25 -1.574,-5.324 -1.352,-5.477 -0.972,-5.472 -0.75,-5.477 -0.454,-5.625 z"
           style="fill:none;stroke:#6e5e12;stroke-width:5.32499981;stroke-linecap:butt;stroke-linejoin:round;stroke-miterlimit:4;stroke-dasharray:none;stroke-opacity:1"
           id="path198"
           inkscape:connector-curvature="0" /></g><path
         d="m 1592.176,877.426 h -53.324 V 749.477 h 106.574 v 127.949 z"
         style="fill:#002060;fill-opacity:0.11000001;fill-rule:evenodd;stroke:none"
         id="path200"
         inkscape:connector-curvature="0" /><g
         id="g202"><path
           d="m 1592.176,877.426 h -53.324 V 749.477 h 106.574 v 127.949 z"
           style="fill:none;stroke:#ffffff;stroke-width:2.1166501;stroke-linecap:butt;stroke-linejoin:round;stroke-miterlimit:4;stroke-dasharray:none;stroke-opacity:0.11000001"
           id="path204"
           inkscape:connector-curvature="0" /></g><g
         id="g206"><path
           d="m 1592.176,877.426 h -53.324 V 749.477 h 106.574 v 127.949 z"
           style="fill:none;stroke:#000000;stroke-width:2.625;stroke-linecap:butt;stroke-linejoin:miter;stroke-miterlimit:4;stroke-dasharray:none;stroke-opacity:1"
           id="path208"
           inkscape:connector-curvature="0" /></g><text
         transform="translate(1570.875,816.225)"
         style="font-variant:normal;font-weight:normal;font-size:63.52500153px;font-family:Arimo;-inkscape-font-specification:Arimo;writing-mode:lr-tb;fill:#000000;fill-opacity:1;fill-rule:nonzero;stroke:none"
         id="text214"><tspan
           x="0"
           y="0"
           id="tspan210">…</tspan><tspan
           x="84.374985 116.13748 151.45738 186.77728"
           y="-655.35004"
           sodipodi:role="line"
           id="tspan212">zano</tspan></text>
<text
         transform="translate(1792.9722,160.87499)"
         style="font-variant:normal;font-weight:normal;font-size:63.52500153px;font-family:Arimo;-inkscape-font-specification:Arimo;writing-mode:lr-tb;fill:#000000;fill-opacity:1;fill-rule:nonzero;stroke:none"
         id="text218"><tspan
           x="0"
           y="0"
           id="tspan216">ř</tspan></text>
<text
         transform="translate(1814.126,160.87499)"
         style="font-variant:normal;font-weight:normal;font-size:63.52500153px;font-family:Arimo;-inkscape-font-specification:Arimo;writing-mode:lr-tb;fill:#000000;fill-opacity:1;fill-rule:nonzero;stroke:none"
         id="text222"><tspan
           x="0 35.319901 70.639801 105.9597 123.55612 158.87602 194.19592 211.79234 247.11224 278.87476 314.19464 331.79108 363.55359 381.14999 402.30383 437.62372 469.38623 486.98264 522.30255 543.45636"
           y="0"
           sodipodi:role="line"
           id="tspan220">ená datová struktura</tspan></text>
<path
         d="m 216.074,1026.824 0.153,-5.551 0.449,-5.625 0.75,-5.472 0.972,-5.551 1.278,-5.398 1.648,-5.329 1.801,-5.324 2.176,-5.097 2.398,-5.102 2.699,-4.875 2.852,-4.727 3.227,-4.648 3.375,-4.426 3.597,-4.273 3.824,-4.051 4.051,-3.824 4.278,-3.602 4.421,-3.375 4.653,-3.222 4.722,-2.852 4.875,-2.699 5.102,-2.403 5.102,-2.171 5.324,-1.801 5.324,-1.653 5.398,-1.273 5.551,-0.977 5.477,-0.75 5.625,-0.449 5.551,-0.148 5.546,0.148 5.625,0.449 5.477,0.75 5.551,0.977 5.398,1.273 5.324,1.653 5.329,1.801 5.097,2.171 5.102,2.403 4.875,2.699 4.722,2.852 4.653,3.222 4.426,3.375 4.273,3.602 4.051,3.824 3.824,4.051 3.602,4.273 3.375,4.426 3.222,4.648 2.852,4.727 2.699,4.875 2.398,5.102 2.176,5.097 1.801,5.324 1.648,5.329 1.278,5.398 0.972,5.551 0.75,5.472 0.454,5.625 0.148,5.551 h -0.074 l -0.153,5.551 -0.449,5.625 -0.676,5.477 -1.046,5.546 -1.278,5.403 -1.648,5.324 -1.801,5.25 -2.176,5.176 -2.398,5.023 -2.625,4.949 -2.926,4.727 -3.148,4.648 -3.454,4.426 -3.597,4.199 -3.824,4.051 -4.051,3.824 -4.278,3.676 -4.421,3.375 -4.579,3.153 -4.722,2.921 -4.949,2.704 -5.028,2.398 -5.176,2.102 -5.25,1.875 -5.324,1.574 -5.472,1.347 -5.477,0.977 -5.477,0.75 -5.625,0.449 -5.546,0.153 v -0.079 l -5.551,-0.148 -5.625,-0.449 -5.477,-0.676 -5.551,-1.051 -5.398,-1.273 -5.324,-1.653 -5.25,-1.796 -5.176,-2.176 -5.023,-2.403 -4.954,-2.625 -4.722,-2.921 -4.653,-3.153 -4.421,-3.449 -4.204,-3.602 -4.046,-3.824 -3.829,-4.051 -3.671,-4.273 -3.375,-4.426 -3.153,-4.574 -2.926,-4.727 -2.699,-4.949 -2.398,-5.023 -2.102,-5.176 -1.875,-5.25 -1.574,-5.324 -1.352,-5.477 -0.972,-5.472 -0.75,-5.477 -0.449,-5.625 z"
         style="fill:#0365c0;fill-opacity:0.32900002;fill-rule:evenodd;stroke:none"
         id="path224"
         inkscape:connector-curvature="0" /><g
         id="g226"><path
           d="m 216.074,1026.824 0.153,-5.551 0.449,-5.625 0.75,-5.472 0.972,-5.551 1.278,-5.398 1.648,-5.329 1.801,-5.324 2.176,-5.097 2.398,-5.102 2.699,-4.875 2.852,-4.727 3.227,-4.648 3.375,-4.426 3.597,-4.273 3.824,-4.051 4.051,-3.824 4.278,-3.602 4.421,-3.375 4.653,-3.222 4.722,-2.852 4.875,-2.699 5.102,-2.403 5.102,-2.171 5.324,-1.801 5.324,-1.653 5.398,-1.273 5.551,-0.977 5.477,-0.75 5.625,-0.449 5.551,-0.148 5.546,0.148 5.625,0.449 5.477,0.75 5.551,0.977 5.398,1.273 5.324,1.653 5.329,1.801 5.097,2.171 5.102,2.403 4.875,2.699 4.722,2.852 4.653,3.222 4.426,3.375 4.273,3.602 4.051,3.824 3.824,4.051 3.602,4.273 3.375,4.426 3.222,4.648 2.852,4.727 2.699,4.875 2.398,5.102 2.176,5.097 1.801,5.324 1.648,5.329 1.278,5.398 0.972,5.551 0.75,5.472 0.454,5.625 0.148,5.551 h -0.074 l -0.153,5.551 -0.449,5.625 -0.676,5.477 -1.046,5.546 -1.278,5.403 -1.648,5.324 -1.801,5.25 -2.176,5.176 -2.398,5.023 -2.625,4.949 -2.926,4.727 -3.148,4.648 -3.454,4.426 -3.597,4.199 -3.824,4.051 -4.051,3.824 -4.278,3.676 -4.421,3.375 -4.579,3.153 -4.722,2.921 -4.949,2.704 -5.028,2.398 -5.176,2.102 -5.25,1.875 -5.324,1.574 -5.472,1.347 -5.477,0.977 -5.477,0.75 -5.625,0.449 -5.546,0.153 v -0.079 l -5.551,-0.148 -5.625,-0.449 -5.477,-0.676 -5.551,-1.051 -5.398,-1.273 -5.324,-1.653 -5.25,-1.796 -5.176,-2.176 -5.023,-2.403 -4.954,-2.625 -4.722,-2.921 -4.653,-3.153 -4.421,-3.449 -4.204,-3.602 -4.046,-3.824 -3.829,-4.051 -3.671,-4.273 -3.375,-4.426 -3.153,-4.574 -2.926,-4.727 -2.699,-4.949 -2.398,-5.023 -2.102,-5.176 -1.875,-5.25 -1.574,-5.324 -1.352,-5.477 -0.972,-5.472 -0.75,-5.477 -0.449,-5.625 z"
           style="fill:none;stroke:#ffffff;stroke-width:2.1166501;stroke-linecap:butt;stroke-linejoin:round;stroke-miterlimit:4;stroke-dasharray:none;stroke-opacity:0.32900002"
           id="path228"
           inkscape:connector-curvature="0" /></g><g
         id="g230"><path
           d="m 216.074,1026.824 0.153,-5.551 0.449,-5.625 0.75,-5.472 0.972,-5.551 1.278,-5.398 1.648,-5.329 1.801,-5.324 2.176,-5.097 2.398,-5.102 2.699,-4.875 2.852,-4.727 3.227,-4.648 3.375,-4.426 3.597,-4.273 3.824,-4.051 4.051,-3.824 4.278,-3.602 4.421,-3.375 4.653,-3.222 4.722,-2.852 4.875,-2.699 5.102,-2.403 5.102,-2.171 5.324,-1.801 5.324,-1.653 5.398,-1.273 5.551,-0.977 5.477,-0.75 5.625,-0.449 5.551,-0.148 5.546,0.148 5.625,0.449 5.477,0.75 5.551,0.977 5.398,1.273 5.324,1.653 5.329,1.801 5.097,2.171 5.102,2.403 4.875,2.699 4.722,2.852 4.653,3.222 4.426,3.375 4.273,3.602 4.051,3.824 3.824,4.051 3.602,4.273 3.375,4.426 3.222,4.648 2.852,4.727 2.699,4.875 2.398,5.102 2.176,5.097 1.801,5.324 1.648,5.329 1.278,5.398 0.972,5.551 0.75,5.472 0.454,5.625 0.148,5.551 h -0.074 l -0.153,5.551 -0.449,5.625 -0.676,5.477 -1.046,5.546 -1.278,5.403 -1.648,5.324 -1.801,5.25 -2.176,5.176 -2.398,5.023 -2.625,4.949 -2.926,4.727 -3.148,4.648 -3.454,4.426 -3.597,4.199 -3.824,4.051 -4.051,3.824 -4.278,3.676 -4.421,3.375 -4.579,3.153 -4.722,2.921 -4.949,2.704 -5.028,2.398 -5.176,2.102 -5.25,1.875 -5.324,1.574 -5.472,1.347 -5.477,0.977 -5.477,0.75 -5.625,0.449 -5.546,0.153 v -0.079 l -5.551,-0.148 -5.625,-0.449 -5.477,-0.676 -5.551,-1.051 -5.398,-1.273 -5.324,-1.653 -5.25,-1.796 -5.176,-2.176 -5.023,-2.403 -4.954,-2.625 -4.722,-2.921 -4.653,-3.153 -4.421,-3.449 -4.204,-3.602 -4.046,-3.824 -3.829,-4.051 -3.671,-4.273 -3.375,-4.426 -3.153,-4.574 -2.926,-4.727 -2.699,-4.949 -2.398,-5.023 -2.102,-5.176 -1.875,-5.25 -1.574,-5.324 -1.352,-5.477 -0.972,-5.472 -0.75,-5.477 -0.449,-5.625 z"
           style="fill:none;stroke:#024a8e;stroke-width:5.32499981;stroke-linecap:butt;stroke-linejoin:round;stroke-miterlimit:4;stroke-dasharray:none;stroke-opacity:1"
           id="path232"
           inkscape:connector-curvature="0" /></g><g
         id="g234"><path
           d="m 147.148,1212.227 14.704,6.148 38.097,-91.648 29.477,12.296 -38.028,91.579 14.852,6.148 -41.926,17.324 z"
           style="fill:#0365c0;fill-opacity:1;fill-rule:evenodd;stroke:#024a8e;stroke-width:5.32499981;stroke-linecap:butt;stroke-linejoin:round;stroke-miterlimit:4;stroke-dasharray:none;stroke-opacity:1"
           id="path236"
           inkscape:connector-curvature="0" /></g><g
         id="g238"><path
           d="m 484.648,1158.523 9.829,-12.597 -76.5,-59.926 19.648,-25.125 76.574,59.852 9.903,-12.602 5.472,44.926 z"
           style="fill:#0365c0;fill-opacity:1;fill-rule:evenodd;stroke:#024a8e;stroke-width:5.32499981;stroke-linecap:butt;stroke-linejoin:round;stroke-miterlimit:4;stroke-dasharray:none;stroke-opacity:1"
           id="path240"
           inkscape:connector-curvature="0" /></g><path
         d="m 536.176,1176.148 0.148,-5.546 0.449,-5.625 0.75,-5.477 0.977,-5.551 1.273,-5.398 1.653,-5.324 1.801,-5.329 2.171,-5.097 2.403,-5.102 2.699,-4.875 2.852,-4.722 3.222,-4.653 3.375,-4.426 3.602,-4.273 3.824,-4.051 4.051,-3.824 4.273,-3.602 4.426,-3.375 4.648,-3.222 4.727,-2.852 4.875,-2.699 5.102,-2.398 5.097,-2.176 5.324,-1.801 5.329,-1.648 5.398,-1.278 5.551,-0.972 5.472,-0.75 5.625,-0.454 5.551,-0.148 5.551,0.148 5.625,0.454 5.477,0.75 5.546,0.972 5.403,1.278 5.324,1.648 5.324,1.801 5.102,2.176 5.097,2.398 4.875,2.699 4.727,2.852 4.648,3.222 4.426,3.375 4.278,3.602 4.046,3.824 3.829,4.051 3.597,4.273 3.375,4.426 3.227,4.653 2.847,4.722 2.704,4.875 2.398,5.102 2.176,5.097 1.801,5.329 1.648,5.324 1.273,5.398 0.977,5.551 0.75,5.477 0.449,5.625 0.153,5.546 h -0.079 l -0.148,5.551 -0.449,5.625 -0.676,5.477 -1.051,5.551 -1.273,5.398 -1.653,5.324 -1.796,5.25 -2.176,5.176 -2.403,5.023 -2.625,4.954 -2.921,4.722 -3.153,4.653 -3.449,4.421 -3.602,4.204 -3.824,4.046 -4.051,3.829 -4.273,3.671 -4.426,3.375 -4.574,3.153 -4.727,2.926 -4.949,2.699 -5.023,2.398 -5.176,2.102 -5.25,1.875 -5.324,1.574 -5.477,1.352 -5.472,0.972 -5.477,0.75 -5.625,0.449 -5.551,0.153 v -0.074 l -5.551,-0.153 -5.625,-0.449 -5.472,-0.676 -5.551,-1.051 -5.398,-1.273 -5.329,-1.648 -5.25,-1.801 -5.171,-2.176 -5.028,-2.398 -4.949,-2.625 -4.727,-2.926 -4.648,-3.153 -4.426,-3.449 -4.199,-3.597 -4.051,-3.829 -3.824,-4.046 -3.676,-4.278 -3.375,-4.426 -3.148,-4.574 -2.926,-4.722 -2.699,-4.954 -2.403,-5.023 -2.097,-5.176 -1.875,-5.25 -1.574,-5.324 -1.352,-5.477 -0.977,-5.472 -0.75,-5.477 -0.449,-5.625 z"
         style="fill:#0365c0;fill-opacity:0.32900002;fill-rule:evenodd;stroke:none"
         id="path242"
         inkscape:connector-curvature="0" /><g
         id="g244"><path
           d="m 536.176,1176.148 0.148,-5.546 0.449,-5.625 0.75,-5.477 0.977,-5.551 1.273,-5.398 1.653,-5.324 1.801,-5.329 2.171,-5.097 2.403,-5.102 2.699,-4.875 2.852,-4.722 3.222,-4.653 3.375,-4.426 3.602,-4.273 3.824,-4.051 4.051,-3.824 4.273,-3.602 4.426,-3.375 4.648,-3.222 4.727,-2.852 4.875,-2.699 5.102,-2.398 5.097,-2.176 5.324,-1.801 5.329,-1.648 5.398,-1.278 5.551,-0.972 5.472,-0.75 5.625,-0.454 5.551,-0.148 5.551,0.148 5.625,0.454 5.477,0.75 5.546,0.972 5.403,1.278 5.324,1.648 5.324,1.801 5.102,2.176 5.097,2.398 4.875,2.699 4.727,2.852 4.648,3.222 4.426,3.375 4.278,3.602 4.046,3.824 3.829,4.051 3.597,4.273 3.375,4.426 3.227,4.653 2.847,4.722 2.704,4.875 2.398,5.102 2.176,5.097 1.801,5.329 1.648,5.324 1.273,5.398 0.977,5.551 0.75,5.477 0.449,5.625 0.153,5.546 h -0.079 l -0.148,5.551 -0.449,5.625 -0.676,5.477 -1.051,5.551 -1.273,5.398 -1.653,5.324 -1.796,5.25 -2.176,5.176 -2.403,5.023 -2.625,4.954 -2.921,4.722 -3.153,4.653 -3.449,4.421 -3.602,4.204 -3.824,4.046 -4.051,3.829 -4.273,3.671 -4.426,3.375 -4.574,3.153 -4.727,2.926 -4.949,2.699 -5.023,2.398 -5.176,2.102 -5.25,1.875 -5.324,1.574 -5.477,1.352 -5.472,0.972 -5.477,0.75 -5.625,0.449 -5.551,0.153 v -0.074 l -5.551,-0.153 -5.625,-0.449 -5.472,-0.676 -5.551,-1.051 -5.398,-1.273 -5.329,-1.648 -5.25,-1.801 -5.171,-2.176 -5.028,-2.398 -4.949,-2.625 -4.727,-2.926 -4.648,-3.153 -4.426,-3.449 -4.199,-3.597 -4.051,-3.829 -3.824,-4.046 -3.676,-4.278 -3.375,-4.426 -3.148,-4.574 -2.926,-4.722 -2.699,-4.954 -2.403,-5.023 -2.097,-5.176 -1.875,-5.25 -1.574,-5.324 -1.352,-5.477 -0.977,-5.472 -0.75,-5.477 -0.449,-5.625 z"
           style="fill:none;stroke:#ffffff;stroke-width:2.1166501;stroke-linecap:butt;stroke-linejoin:round;stroke-miterlimit:4;stroke-dasharray:none;stroke-opacity:0.32900002"
           id="path246"
           inkscape:connector-curvature="0" /></g><g
         id="g248"><path
           d="m 536.176,1176.148 0.148,-5.546 0.449,-5.625 0.75,-5.477 0.977,-5.551 1.273,-5.398 1.653,-5.324 1.801,-5.329 2.171,-5.097 2.403,-5.102 2.699,-4.875 2.852,-4.722 3.222,-4.653 3.375,-4.426 3.602,-4.273 3.824,-4.051 4.051,-3.824 4.273,-3.602 4.426,-3.375 4.648,-3.222 4.727,-2.852 4.875,-2.699 5.102,-2.398 5.097,-2.176 5.324,-1.801 5.329,-1.648 5.398,-1.278 5.551,-0.972 5.472,-0.75 5.625,-0.454 5.551,-0.148 5.551,0.148 5.625,0.454 5.477,0.75 5.546,0.972 5.403,1.278 5.324,1.648 5.324,1.801 5.102,2.176 5.097,2.398 4.875,2.699 4.727,2.852 4.648,3.222 4.426,3.375 4.278,3.602 4.046,3.824 3.829,4.051 3.597,4.273 3.375,4.426 3.227,4.653 2.847,4.722 2.704,4.875 2.398,5.102 2.176,5.097 1.801,5.329 1.648,5.324 1.273,5.398 0.977,5.551 0.75,5.477 0.449,5.625 0.153,5.546 h -0.079 l -0.148,5.551 -0.449,5.625 -0.676,5.477 -1.051,5.551 -1.273,5.398 -1.653,5.324 -1.796,5.25 -2.176,5.176 -2.403,5.023 -2.625,4.954 -2.921,4.722 -3.153,4.653 -3.449,4.421 -3.602,4.204 -3.824,4.046 -4.051,3.829 -4.273,3.671 -4.426,3.375 -4.574,3.153 -4.727,2.926 -4.949,2.699 -5.023,2.398 -5.176,2.102 -5.25,1.875 -5.324,1.574 -5.477,1.352 -5.472,0.972 -5.477,0.75 -5.625,0.449 -5.551,0.153 v -0.074 l -5.551,-0.153 -5.625,-0.449 -5.472,-0.676 -5.551,-1.051 -5.398,-1.273 -5.329,-1.648 -5.25,-1.801 -5.171,-2.176 -5.028,-2.398 -4.949,-2.625 -4.727,-2.926 -4.648,-3.153 -4.426,-3.449 -4.199,-3.597 -4.051,-3.829 -3.824,-4.046 -3.676,-4.278 -3.375,-4.426 -3.148,-4.574 -2.926,-4.722 -2.699,-4.954 -2.403,-5.023 -2.097,-5.176 -1.875,-5.25 -1.574,-5.324 -1.352,-5.477 -0.977,-5.472 -0.75,-5.477 -0.449,-5.625 z"
           style="fill:none;stroke:#024a8e;stroke-width:5.32499981;stroke-linecap:butt;stroke-linejoin:round;stroke-miterlimit:4;stroke-dasharray:none;stroke-opacity:1"
           id="path250"
           inkscape:connector-curvature="0" /></g><path
         d="m 674.773,1560.148 h -53.324 v -127.949 h 106.574 v 127.949 z"
         style="fill:#002060;fill-opacity:0.11000001;fill-rule:evenodd;stroke:none"
         id="path252"
         inkscape:connector-curvature="0" /><g
         id="g254"><path
           d="m 674.773,1560.148 h -53.324 v -127.949 h 106.574 v 127.949 z"
           style="fill:none;stroke:#ffffff;stroke-width:2.1166501;stroke-linecap:butt;stroke-linejoin:round;stroke-miterlimit:4;stroke-dasharray:none;stroke-opacity:0.11000001"
           id="path256"
           inkscape:connector-curvature="0" /></g><g
         id="g258"><path
           d="m 674.773,1560.148 h -53.324 v -127.949 h 106.574 v 127.949 z"
           style="fill:none;stroke:#000000;stroke-width:2.625;stroke-linecap:butt;stroke-linejoin:miter;stroke-miterlimit:4;stroke-dasharray:none;stroke-opacity:1"
           id="path260"
           inkscape:connector-curvature="0" /></g><text
         transform="translate(653.475,1498.95)"
         style="font-variant:normal;font-weight:normal;font-size:63.52500153px;font-family:Arimo;-inkscape-font-specification:Arimo;writing-mode:lr-tb;fill:#000000;fill-opacity:1;fill-rule:nonzero;stroke:none"
         id="text264"><tspan
           x="0"
           y="0"
           id="tspan262">…</tspan></text>
<g
         id="g266"><path
           d="m 476.551,1339.051 14.773,6.148 28.653,-69 29.472,12.227 -28.648,69 14.847,6.148 -41.847,17.324 z"
           style="fill:#0365c0;fill-opacity:1;fill-rule:evenodd;stroke:#024a8e;stroke-width:5.32499981;stroke-linecap:butt;stroke-linejoin:round;stroke-miterlimit:4;stroke-dasharray:none;stroke-opacity:1"
           id="path268"
           inkscape:connector-curvature="0" /></g><g
         id="g270"><path
           d="m 571.352,1395.676 15.75,2.25 13.046,-91.574 31.653,4.5 -13.051,91.574 15.898,2.25 -36.222,27.222 z"
           style="fill:#0365c0;fill-opacity:1;fill-rule:evenodd;stroke:#024a8e;stroke-width:5.32499981;stroke-linecap:butt;stroke-linejoin:round;stroke-miterlimit:4;stroke-dasharray:none;stroke-opacity:1"
           id="path272"
           inkscape:connector-curvature="0" /></g><g
         id="g274"><path
           d="m 760.949,1401.676 15.153,-5.028 -32.778,-98.625 30.301,-10.125 32.852,98.625 15.222,-5.023 -20.324,40.5 z"
           style="fill:#0365c0;fill-opacity:1;fill-rule:evenodd;stroke:#024a8e;stroke-width:5.32499981;stroke-linecap:butt;stroke-linejoin:round;stroke-miterlimit:4;stroke-dasharray:none;stroke-opacity:1"
           id="path276"
           inkscape:connector-curvature="0" /></g><text
         transform="translate(248.025,1328.25)"
         style="font-variant:normal;font-weight:normal;font-size:63.52500153px;font-family:Arimo;-inkscape-font-specification:Arimo;writing-mode:lr-tb;fill:#000000;fill-opacity:1;fill-rule:nonzero;stroke:none"
         id="text280"><tspan
           x="0 14.10255 67.018875 102.33878 137.65868"
           y="0"
           sodipodi:role="line"
           id="tspan278">jméno</tspan></text>
<text
         transform="translate(420.75,1344.15)"
         style="font-variant:normal;font-weight:normal;font-size:36.82500076px;font-family:Arimo;-inkscape-font-specification:Arimo;writing-mode:lr-tb;fill:#000000;fill-opacity:1;fill-rule:nonzero;stroke:none"
         id="text284"><tspan
           x="0"
           y="0"
           id="tspan282">1</tspan></text>
<text
         transform="translate(354.75,1477.65)"
         style="font-variant:normal;font-weight:normal;font-size:63.52500153px;font-family:Arimo;-inkscape-font-specification:Arimo;writing-mode:lr-tb;fill:#000000;fill-opacity:1;fill-rule:nonzero;stroke:none"
         id="text288"><tspan
           x="0 14.10255 67.018875 102.33878 137.65868"
           y="0"
           sodipodi:role="line"
           id="tspan286">jméno</tspan></text>
<text
         transform="translate(527.475,1493.55)"
         style="font-variant:normal;font-weight:normal;font-size:36.82500076px;font-family:Arimo;-inkscape-font-specification:Arimo;writing-mode:lr-tb;fill:#000000;fill-opacity:1;fill-rule:nonzero;stroke:none"
         id="text292"><tspan
           x="0"
           y="0"
           id="tspan290">2</tspan></text>
<text
         transform="translate(738.75,1498.95)"
         style="font-variant:normal;font-weight:normal;font-size:63.52500153px;font-family:Arimo;-inkscape-font-specification:Arimo;writing-mode:lr-tb;fill:#000000;fill-opacity:1;fill-rule:nonzero;stroke:none"
         id="text296"><tspan
           x="0 14.10255 67.018875 102.33878 137.65868"
           y="0"
           sodipodi:role="line"
           id="tspan294">jméno</tspan></text>
<text
         transform="translate(911.475,1514.85)"
         style="font-variant:normal;font-weight:normal;font-size:36.82500076px;font-family:Arimo;-inkscape-font-specification:Arimo;writing-mode:lr-tb;fill:#000000;fill-opacity:1;fill-rule:nonzero;stroke:none"
         id="text300"><tspan
           x="0"
           y="0"
           id="tspan298">n</tspan></text>
<text
         transform="translate(56.025,1178.925)"
         style="font-variant:normal;font-weight:normal;font-size:63.52500153px;font-family:Arimo;-inkscape-font-specification:Arimo;writing-mode:lr-tb;fill:#000000;fill-opacity:1;fill-rule:nonzero;stroke:none"
         id="text306"><tspan
           x="0"
           y="0"
           id="tspan302">C</tspan><tspan
           x="298.72498"
           y="21.375019"
           id="tspan304">D</tspan></text>
<path
         d="m 24.074,1368.148 0.153,-5.546 0.449,-5.625 0.75,-5.477 0.972,-5.551 1.278,-5.398 1.648,-5.324 1.801,-5.329 2.176,-5.097 2.398,-5.102 2.699,-4.875 2.852,-4.722 3.227,-4.653 3.375,-4.426 3.597,-4.273 3.824,-4.051 4.051,-3.824 4.278,-3.602 4.421,-3.375 4.653,-3.222 4.722,-2.852 4.875,-2.699 5.102,-2.398 5.102,-2.176 5.324,-1.801 5.324,-1.648 5.398,-1.278 5.551,-0.972 5.477,-0.75 5.625,-0.454 5.551,-0.148 5.546,0.148 5.625,0.454 5.477,0.75 5.551,0.972 5.398,1.278 5.324,1.648 5.329,1.801 5.097,2.176 5.102,2.398 4.875,2.699 4.722,2.852 4.653,3.222 4.426,3.375 4.273,3.602 4.051,3.824 3.824,4.051 3.602,4.273 3.375,4.426 3.222,4.653 2.852,4.722 2.699,4.875 2.398,5.102 2.176,5.097 1.801,5.329 1.648,5.324 1.278,5.398 0.972,5.551 0.75,5.477 0.454,5.625 0.148,5.546 h -0.074 l -0.153,5.551 -0.449,5.625 -0.676,5.477 -1.046,5.551 -1.278,5.398 -1.648,5.324 -1.801,5.25 -2.176,5.176 -2.398,5.023 -2.625,4.954 -2.926,4.722 -3.148,4.653 -3.454,4.421 -3.597,4.204 -3.824,4.046 -4.051,3.829 -4.278,3.671 -4.421,3.375 -4.579,3.153 -4.722,2.926 -4.949,2.699 -5.028,2.398 -5.176,2.102 -5.25,1.875 -5.324,1.574 -5.472,1.352 -5.477,0.972 -5.477,0.75 -5.625,0.449 -5.546,0.153 v -0.074 l -5.551,-0.153 -5.625,-0.449 -5.477,-0.676 -5.551,-1.051 -5.398,-1.273 -5.324,-1.648 -5.25,-1.801 -5.176,-2.176 -5.023,-2.398 -4.954,-2.625 -4.722,-2.926 -4.653,-3.153 -4.421,-3.449 -4.204,-3.597 -4.046,-3.829 -3.829,-4.046 -3.671,-4.278 -3.375,-4.426 -3.153,-4.574 -2.926,-4.722 -2.699,-4.954 -2.398,-5.023 -2.102,-5.176 -1.875,-5.25 -1.574,-5.324 -1.352,-5.477 -0.972,-5.472 -0.75,-5.477 -0.449,-5.625 z"
         style="fill:#92d050;fill-opacity:0.32900002;fill-rule:evenodd;stroke:none"
         id="path308"
         inkscape:connector-curvature="0" /><g
         id="g310"><path
           d="m 24.074,1368.148 0.153,-5.546 0.449,-5.625 0.75,-5.477 0.972,-5.551 1.278,-5.398 1.648,-5.324 1.801,-5.329 2.176,-5.097 2.398,-5.102 2.699,-4.875 2.852,-4.722 3.227,-4.653 3.375,-4.426 3.597,-4.273 3.824,-4.051 4.051,-3.824 4.278,-3.602 4.421,-3.375 4.653,-3.222 4.722,-2.852 4.875,-2.699 5.102,-2.398 5.102,-2.176 5.324,-1.801 5.324,-1.648 5.398,-1.278 5.551,-0.972 5.477,-0.75 5.625,-0.454 5.551,-0.148 5.546,0.148 5.625,0.454 5.477,0.75 5.551,0.972 5.398,1.278 5.324,1.648 5.329,1.801 5.097,2.176 5.102,2.398 4.875,2.699 4.722,2.852 4.653,3.222 4.426,3.375 4.273,3.602 4.051,3.824 3.824,4.051 3.602,4.273 3.375,4.426 3.222,4.653 2.852,4.722 2.699,4.875 2.398,5.102 2.176,5.097 1.801,5.329 1.648,5.324 1.278,5.398 0.972,5.551 0.75,5.477 0.454,5.625 0.148,5.546 h -0.074 l -0.153,5.551 -0.449,5.625 -0.676,5.477 -1.046,5.551 -1.278,5.398 -1.648,5.324 -1.801,5.25 -2.176,5.176 -2.398,5.023 -2.625,4.954 -2.926,4.722 -3.148,4.653 -3.454,4.421 -3.597,4.204 -3.824,4.046 -4.051,3.829 -4.278,3.671 -4.421,3.375 -4.579,3.153 -4.722,2.926 -4.949,2.699 -5.028,2.398 -5.176,2.102 -5.25,1.875 -5.324,1.574 -5.472,1.352 -5.477,0.972 -5.477,0.75 -5.625,0.449 -5.546,0.153 v -0.074 l -5.551,-0.153 -5.625,-0.449 -5.477,-0.676 -5.551,-1.051 -5.398,-1.273 -5.324,-1.648 -5.25,-1.801 -5.176,-2.176 -5.023,-2.398 -4.954,-2.625 -4.722,-2.926 -4.653,-3.153 -4.421,-3.449 -4.204,-3.597 -4.046,-3.829 -3.829,-4.046 -3.671,-4.278 -3.375,-4.426 -3.153,-4.574 -2.926,-4.722 -2.699,-4.954 -2.398,-5.023 -2.102,-5.176 -1.875,-5.25 -1.574,-5.324 -1.352,-5.477 -0.972,-5.472 -0.75,-5.477 -0.449,-5.625 z"
           style="fill:none;stroke:#ffffff;stroke-width:2.1166501;stroke-linecap:butt;stroke-linejoin:round;stroke-miterlimit:4;stroke-dasharray:none;stroke-opacity:0.32900002"
           id="path312"
           inkscape:connector-curvature="0" /></g><g
         id="g314"><path
           d="m 24.074,1368.148 0.153,-5.546 0.449,-5.625 0.75,-5.477 0.972,-5.551 1.278,-5.398 1.648,-5.324 1.801,-5.329 2.176,-5.097 2.398,-5.102 2.699,-4.875 2.852,-4.722 3.227,-4.653 3.375,-4.426 3.597,-4.273 3.824,-4.051 4.051,-3.824 4.278,-3.602 4.421,-3.375 4.653,-3.222 4.722,-2.852 4.875,-2.699 5.102,-2.398 5.102,-2.176 5.324,-1.801 5.324,-1.648 5.398,-1.278 5.551,-0.972 5.477,-0.75 5.625,-0.454 5.551,-0.148 5.546,0.148 5.625,0.454 5.477,0.75 5.551,0.972 5.398,1.278 5.324,1.648 5.329,1.801 5.097,2.176 5.102,2.398 4.875,2.699 4.722,2.852 4.653,3.222 4.426,3.375 4.273,3.602 4.051,3.824 3.824,4.051 3.602,4.273 3.375,4.426 3.222,4.653 2.852,4.722 2.699,4.875 2.398,5.102 2.176,5.097 1.801,5.329 1.648,5.324 1.278,5.398 0.972,5.551 0.75,5.477 0.454,5.625 0.148,5.546 h -0.074 l -0.153,5.551 -0.449,5.625 -0.676,5.477 -1.046,5.551 -1.278,5.398 -1.648,5.324 -1.801,5.25 -2.176,5.176 -2.398,5.023 -2.625,4.954 -2.926,4.722 -3.148,4.653 -3.454,4.421 -3.597,4.204 -3.824,4.046 -4.051,3.829 -4.278,3.671 -4.421,3.375 -4.579,3.153 -4.722,2.926 -4.949,2.699 -5.028,2.398 -5.176,2.102 -5.25,1.875 -5.324,1.574 -5.472,1.352 -5.477,0.972 -5.477,0.75 -5.625,0.449 -5.546,0.153 v -0.074 l -5.551,-0.153 -5.625,-0.449 -5.477,-0.676 -5.551,-1.051 -5.398,-1.273 -5.324,-1.648 -5.25,-1.801 -5.176,-2.176 -5.023,-2.398 -4.954,-2.625 -4.722,-2.926 -4.653,-3.153 -4.421,-3.449 -4.204,-3.597 -4.046,-3.829 -3.829,-4.046 -3.671,-4.278 -3.375,-4.426 -3.153,-4.574 -2.926,-4.722 -2.699,-4.954 -2.398,-5.023 -2.102,-5.176 -1.875,-5.25 -1.574,-5.324 -1.352,-5.477 -0.972,-5.472 -0.75,-5.477 -0.449,-5.625 z"
           style="fill:none;stroke:#6e5e12;stroke-width:5.32499981;stroke-linecap:butt;stroke-linejoin:round;stroke-miterlimit:4;stroke-dasharray:none;stroke-opacity:1"
           id="path316"
           inkscape:connector-curvature="0" /></g><path
         d="m 1048.199,984.148 0.153,-5.546 0.449,-5.625 0.75,-5.477 0.972,-5.551 1.278,-5.398 1.648,-5.324 1.801,-5.329 2.176,-5.097 2.398,-5.102 2.699,-4.875 2.852,-4.722 3.227,-4.653 3.375,-4.426 3.597,-4.273 3.824,-4.051 4.051,-3.824 4.278,-3.602 4.421,-3.375 4.653,-3.222 4.722,-2.852 4.875,-2.699 5.102,-2.398 5.102,-2.176 5.324,-1.801 5.324,-1.648 5.398,-1.278 5.551,-0.972 5.477,-0.75 5.625,-0.454 5.551,-0.148 5.546,0.148 5.625,0.454 5.477,0.75 5.551,0.972 5.398,1.278 5.324,1.648 5.329,1.801 5.097,2.176 5.102,2.398 4.875,2.699 4.722,2.852 4.653,3.222 4.426,3.375 4.273,3.602 4.051,3.824 3.824,4.051 3.602,4.273 3.375,4.426 3.222,4.653 2.852,4.722 2.699,4.875 2.398,5.102 2.176,5.097 1.801,5.329 1.648,5.324 1.278,5.398 0.972,5.551 0.75,5.477 0.454,5.625 0.148,5.546 h -0.074 l -0.153,5.551 -0.449,5.625 -0.676,5.477 -1.046,5.551 -1.278,5.398 -1.648,5.324 -1.801,5.25 -2.176,5.176 -2.398,5.023 -2.625,4.954 -2.926,4.722 -3.148,4.653 -3.454,4.421 -3.597,4.204 -3.824,4.046 -4.051,3.829 -4.278,3.671 -4.421,3.375 -4.579,3.153 -4.722,2.926 -4.949,2.699 -5.028,2.398 -5.176,2.102 -5.25,1.875 -5.324,1.574 -5.472,1.352 -5.477,0.972 -5.477,0.75 -5.625,0.449 -5.546,0.153 v -0.074 l -5.551,-0.153 -5.625,-0.449 -5.477,-0.676 -5.551,-1.051 -5.398,-1.273 -5.324,-1.648 -5.25,-1.801 -5.176,-2.176 -5.023,-2.398 -4.954,-2.625 -4.722,-2.926 -4.653,-3.153 -4.421,-3.449 -4.204,-3.597 -4.046,-3.829 -3.829,-4.046 -3.671,-4.278 -3.375,-4.426 -3.153,-4.574 -2.926,-4.722 -2.699,-4.954 -2.398,-5.023 -2.102,-5.176 -1.875,-5.25 -1.574,-5.324 -1.352,-5.477 -0.972,-5.472 -0.75,-5.477 -0.449,-5.625 z"
         style="fill:#0365c0;fill-opacity:0.32900002;fill-rule:evenodd;stroke:none"
         id="path318"
         inkscape:connector-curvature="0" /><g
         id="g320"><path
           d="m 1048.199,984.148 0.153,-5.546 0.449,-5.625 0.75,-5.477 0.972,-5.551 1.278,-5.398 1.648,-5.324 1.801,-5.329 2.176,-5.097 2.398,-5.102 2.699,-4.875 2.852,-4.722 3.227,-4.653 3.375,-4.426 3.597,-4.273 3.824,-4.051 4.051,-3.824 4.278,-3.602 4.421,-3.375 4.653,-3.222 4.722,-2.852 4.875,-2.699 5.102,-2.398 5.102,-2.176 5.324,-1.801 5.324,-1.648 5.398,-1.278 5.551,-0.972 5.477,-0.75 5.625,-0.454 5.551,-0.148 5.546,0.148 5.625,0.454 5.477,0.75 5.551,0.972 5.398,1.278 5.324,1.648 5.329,1.801 5.097,2.176 5.102,2.398 4.875,2.699 4.722,2.852 4.653,3.222 4.426,3.375 4.273,3.602 4.051,3.824 3.824,4.051 3.602,4.273 3.375,4.426 3.222,4.653 2.852,4.722 2.699,4.875 2.398,5.102 2.176,5.097 1.801,5.329 1.648,5.324 1.278,5.398 0.972,5.551 0.75,5.477 0.454,5.625 0.148,5.546 h -0.074 l -0.153,5.551 -0.449,5.625 -0.676,5.477 -1.046,5.551 -1.278,5.398 -1.648,5.324 -1.801,5.25 -2.176,5.176 -2.398,5.023 -2.625,4.954 -2.926,4.722 -3.148,4.653 -3.454,4.421 -3.597,4.204 -3.824,4.046 -4.051,3.829 -4.278,3.671 -4.421,3.375 -4.579,3.153 -4.722,2.926 -4.949,2.699 -5.028,2.398 -5.176,2.102 -5.25,1.875 -5.324,1.574 -5.472,1.352 -5.477,0.972 -5.477,0.75 -5.625,0.449 -5.546,0.153 v -0.074 l -5.551,-0.153 -5.625,-0.449 -5.477,-0.676 -5.551,-1.051 -5.398,-1.273 -5.324,-1.648 -5.25,-1.801 -5.176,-2.176 -5.023,-2.398 -4.954,-2.625 -4.722,-2.926 -4.653,-3.153 -4.421,-3.449 -4.204,-3.597 -4.046,-3.829 -3.829,-4.046 -3.671,-4.278 -3.375,-4.426 -3.153,-4.574 -2.926,-4.722 -2.699,-4.954 -2.398,-5.023 -2.102,-5.176 -1.875,-5.25 -1.574,-5.324 -1.352,-5.477 -0.972,-5.472 -0.75,-5.477 -0.449,-5.625 z"
           style="fill:none;stroke:#ffffff;stroke-width:2.1166501;stroke-linecap:butt;stroke-linejoin:round;stroke-miterlimit:4;stroke-dasharray:none;stroke-opacity:0.32900002"
           id="path322"
           inkscape:connector-curvature="0" /></g><g
         id="g324"><path
           d="m 1048.199,984.148 0.153,-5.546 0.449,-5.625 0.75,-5.477 0.972,-5.551 1.278,-5.398 1.648,-5.324 1.801,-5.329 2.176,-5.097 2.398,-5.102 2.699,-4.875 2.852,-4.722 3.227,-4.653 3.375,-4.426 3.597,-4.273 3.824,-4.051 4.051,-3.824 4.278,-3.602 4.421,-3.375 4.653,-3.222 4.722,-2.852 4.875,-2.699 5.102,-2.398 5.102,-2.176 5.324,-1.801 5.324,-1.648 5.398,-1.278 5.551,-0.972 5.477,-0.75 5.625,-0.454 5.551,-0.148 5.546,0.148 5.625,0.454 5.477,0.75 5.551,0.972 5.398,1.278 5.324,1.648 5.329,1.801 5.097,2.176 5.102,2.398 4.875,2.699 4.722,2.852 4.653,3.222 4.426,3.375 4.273,3.602 4.051,3.824 3.824,4.051 3.602,4.273 3.375,4.426 3.222,4.653 2.852,4.722 2.699,4.875 2.398,5.102 2.176,5.097 1.801,5.329 1.648,5.324 1.278,5.398 0.972,5.551 0.75,5.477 0.454,5.625 0.148,5.546 h -0.074 l -0.153,5.551 -0.449,5.625 -0.676,5.477 -1.046,5.551 -1.278,5.398 -1.648,5.324 -1.801,5.25 -2.176,5.176 -2.398,5.023 -2.625,4.954 -2.926,4.722 -3.148,4.653 -3.454,4.421 -3.597,4.204 -3.824,4.046 -4.051,3.829 -4.278,3.671 -4.421,3.375 -4.579,3.153 -4.722,2.926 -4.949,2.699 -5.028,2.398 -5.176,2.102 -5.25,1.875 -5.324,1.574 -5.472,1.352 -5.477,0.972 -5.477,0.75 -5.625,0.449 -5.546,0.153 v -0.074 l -5.551,-0.153 -5.625,-0.449 -5.477,-0.676 -5.551,-1.051 -5.398,-1.273 -5.324,-1.648 -5.25,-1.801 -5.176,-2.176 -5.023,-2.398 -4.954,-2.625 -4.722,-2.926 -4.653,-3.153 -4.421,-3.449 -4.204,-3.597 -4.046,-3.829 -3.829,-4.046 -3.671,-4.278 -3.375,-4.426 -3.153,-4.574 -2.926,-4.722 -2.699,-4.954 -2.398,-5.023 -2.102,-5.176 -1.875,-5.25 -1.574,-5.324 -1.352,-5.477 -0.972,-5.472 -0.75,-5.477 -0.449,-5.625 z"
           style="fill:none;stroke:#024a8e;stroke-width:5.32499981;stroke-linecap:butt;stroke-linejoin:round;stroke-miterlimit:4;stroke-dasharray:none;stroke-opacity:1"
           id="path326"
           inkscape:connector-curvature="0" /></g><g
         id="g328"><path
           d="m 979.199,1169.551 14.699,6.148 38.102,-91.648 29.477,12.301 -38.028,91.574 14.852,6.148 -41.926,17.324 z"
           style="fill:#0365c0;fill-opacity:1;fill-rule:evenodd;stroke:#024a8e;stroke-width:5.32499981;stroke-linecap:butt;stroke-linejoin:round;stroke-miterlimit:4;stroke-dasharray:none;stroke-opacity:1"
           id="path330"
           inkscape:connector-curvature="0" /></g><g
         id="g332"><path
           d="m 1316.699,1115.852 9.824,-12.602 -76.5,-59.926 19.653,-25.125 76.574,59.852 9.898,-12.602 5.477,44.926 z"
           style="fill:#0365c0;fill-opacity:1;fill-rule:evenodd;stroke:#024a8e;stroke-width:5.32499981;stroke-linecap:butt;stroke-linejoin:round;stroke-miterlimit:4;stroke-dasharray:none;stroke-opacity:1"
           id="path334"
           inkscape:connector-curvature="0" /></g><path
         d="m 1368.227,1133.477 0.148,-5.551 0.449,-5.625 0.75,-5.477 0.977,-5.551 1.273,-5.398 1.653,-5.324 1.796,-5.324 2.176,-5.102 2.403,-5.102 2.699,-4.875 2.847,-4.722 3.227,-4.653 3.375,-4.421 3.602,-4.278 3.824,-4.051 4.051,-3.824 4.273,-3.597 4.426,-3.375 4.648,-3.227 4.727,-2.852 4.875,-2.699 5.097,-2.398 5.102,-2.176 5.324,-1.801 5.324,-1.648 5.403,-1.278 5.551,-0.972 5.472,-0.75 5.625,-0.449 5.551,-0.153 5.551,0.153 5.625,0.449 5.472,0.75 5.551,0.972 5.403,1.278 5.324,1.648 5.324,1.801 5.102,2.176 5.097,2.398 4.875,2.699 4.727,2.852 4.648,3.227 4.426,3.375 4.273,3.597 4.051,3.824 3.824,4.051 3.602,4.278 3.375,4.421 3.227,4.653 2.847,4.722 2.699,4.875 2.403,5.102 2.176,5.102 1.796,5.324 1.653,5.324 1.273,5.398 0.977,5.551 0.75,5.477 0.449,5.625 0.148,5.551 h -0.074 l -0.148,5.546 -0.449,5.625 -0.676,5.477 -1.051,5.551 -1.273,5.398 -1.653,5.324 -1.801,5.25 -2.171,5.176 -2.403,5.028 -2.625,4.949 -2.926,4.722 -3.148,4.653 -3.449,4.426 -3.602,4.199 -3.824,4.051 -4.051,3.824 -4.273,3.676 -4.426,3.375 -4.574,3.148 -4.727,2.926 -4.949,2.699 -5.023,2.398 -5.176,2.102 -5.25,1.875 -5.324,1.574 -5.477,1.352 -5.477,0.972 -5.472,0.75 -5.625,0.454 -5.551,0.148 v -0.074 l -5.551,-0.153 -5.625,-0.449 -5.472,-0.676 -5.551,-1.046 -5.403,-1.278 -5.324,-1.648 -5.25,-1.801 -5.176,-2.176 -5.023,-2.398 -4.949,-2.625 -4.727,-2.926 -4.648,-3.148 -4.426,-3.454 -4.199,-3.597 -4.051,-3.824 -3.824,-4.051 -3.676,-4.278 -3.375,-4.421 -3.148,-4.579 -2.926,-4.722 -2.699,-4.949 -2.403,-5.028 -2.097,-5.176 -1.875,-5.25 -1.579,-5.324 -1.347,-5.472 -0.977,-5.477 -0.75,-5.477 -0.449,-5.625 z"
         style="fill:#0365c0;fill-opacity:0.32900002;fill-rule:evenodd;stroke:none"
         id="path336"
         inkscape:connector-curvature="0" /><g
         id="g338"><path
           d="m 1368.227,1133.477 0.148,-5.551 0.449,-5.625 0.75,-5.477 0.977,-5.551 1.273,-5.398 1.653,-5.324 1.796,-5.324 2.176,-5.102 2.403,-5.102 2.699,-4.875 2.847,-4.722 3.227,-4.653 3.375,-4.421 3.602,-4.278 3.824,-4.051 4.051,-3.824 4.273,-3.597 4.426,-3.375 4.648,-3.227 4.727,-2.852 4.875,-2.699 5.097,-2.398 5.102,-2.176 5.324,-1.801 5.324,-1.648 5.403,-1.278 5.551,-0.972 5.472,-0.75 5.625,-0.449 5.551,-0.153 5.551,0.153 5.625,0.449 5.472,0.75 5.551,0.972 5.403,1.278 5.324,1.648 5.324,1.801 5.102,2.176 5.097,2.398 4.875,2.699 4.727,2.852 4.648,3.227 4.426,3.375 4.273,3.597 4.051,3.824 3.824,4.051 3.602,4.278 3.375,4.421 3.227,4.653 2.847,4.722 2.699,4.875 2.403,5.102 2.176,5.102 1.796,5.324 1.653,5.324 1.273,5.398 0.977,5.551 0.75,5.477 0.449,5.625 0.148,5.551 h -0.074 l -0.148,5.546 -0.449,5.625 -0.676,5.477 -1.051,5.551 -1.273,5.398 -1.653,5.324 -1.801,5.25 -2.171,5.176 -2.403,5.028 -2.625,4.949 -2.926,4.722 -3.148,4.653 -3.449,4.426 -3.602,4.199 -3.824,4.051 -4.051,3.824 -4.273,3.676 -4.426,3.375 -4.574,3.148 -4.727,2.926 -4.949,2.699 -5.023,2.398 -5.176,2.102 -5.25,1.875 -5.324,1.574 -5.477,1.352 -5.477,0.972 -5.472,0.75 -5.625,0.454 -5.551,0.148 v -0.074 l -5.551,-0.153 -5.625,-0.449 -5.472,-0.676 -5.551,-1.046 -5.403,-1.278 -5.324,-1.648 -5.25,-1.801 -5.176,-2.176 -5.023,-2.398 -4.949,-2.625 -4.727,-2.926 -4.648,-3.148 -4.426,-3.454 -4.199,-3.597 -4.051,-3.824 -3.824,-4.051 -3.676,-4.278 -3.375,-4.421 -3.148,-4.579 -2.926,-4.722 -2.699,-4.949 -2.403,-5.028 -2.097,-5.176 -1.875,-5.25 -1.579,-5.324 -1.347,-5.472 -0.977,-5.477 -0.75,-5.477 -0.449,-5.625 z"
           style="fill:none;stroke:#ffffff;stroke-width:2.1166501;stroke-linecap:butt;stroke-linejoin:round;stroke-miterlimit:4;stroke-dasharray:none;stroke-opacity:0.32900002"
           id="path340"
           inkscape:connector-curvature="0" /></g><g
         id="g342"><path
           d="m 1368.227,1133.477 0.148,-5.551 0.449,-5.625 0.75,-5.477 0.977,-5.551 1.273,-5.398 1.653,-5.324 1.796,-5.324 2.176,-5.102 2.403,-5.102 2.699,-4.875 2.847,-4.722 3.227,-4.653 3.375,-4.421 3.602,-4.278 3.824,-4.051 4.051,-3.824 4.273,-3.597 4.426,-3.375 4.648,-3.227 4.727,-2.852 4.875,-2.699 5.097,-2.398 5.102,-2.176 5.324,-1.801 5.324,-1.648 5.403,-1.278 5.551,-0.972 5.472,-0.75 5.625,-0.449 5.551,-0.153 5.551,0.153 5.625,0.449 5.472,0.75 5.551,0.972 5.403,1.278 5.324,1.648 5.324,1.801 5.102,2.176 5.097,2.398 4.875,2.699 4.727,2.852 4.648,3.227 4.426,3.375 4.273,3.597 4.051,3.824 3.824,4.051 3.602,4.278 3.375,4.421 3.227,4.653 2.847,4.722 2.699,4.875 2.403,5.102 2.176,5.102 1.796,5.324 1.653,5.324 1.273,5.398 0.977,5.551 0.75,5.477 0.449,5.625 0.148,5.551 h -0.074 l -0.148,5.546 -0.449,5.625 -0.676,5.477 -1.051,5.551 -1.273,5.398 -1.653,5.324 -1.801,5.25 -2.171,5.176 -2.403,5.028 -2.625,4.949 -2.926,4.722 -3.148,4.653 -3.449,4.426 -3.602,4.199 -3.824,4.051 -4.051,3.824 -4.273,3.676 -4.426,3.375 -4.574,3.148 -4.727,2.926 -4.949,2.699 -5.023,2.398 -5.176,2.102 -5.25,1.875 -5.324,1.574 -5.477,1.352 -5.477,0.972 -5.472,0.75 -5.625,0.454 -5.551,0.148 v -0.074 l -5.551,-0.153 -5.625,-0.449 -5.472,-0.676 -5.551,-1.046 -5.403,-1.278 -5.324,-1.648 -5.25,-1.801 -5.176,-2.176 -5.023,-2.398 -4.949,-2.625 -4.727,-2.926 -4.648,-3.148 -4.426,-3.454 -4.199,-3.597 -4.051,-3.824 -3.824,-4.051 -3.676,-4.278 -3.375,-4.421 -3.148,-4.579 -2.926,-4.722 -2.699,-4.949 -2.403,-5.028 -2.097,-5.176 -1.875,-5.25 -1.579,-5.324 -1.347,-5.472 -0.977,-5.477 -0.75,-5.477 -0.449,-5.625 z"
           style="fill:none;stroke:#024a8e;stroke-width:5.32499981;stroke-linecap:butt;stroke-linejoin:round;stroke-miterlimit:4;stroke-dasharray:none;stroke-opacity:1"
           id="path344"
           inkscape:connector-curvature="0" /></g><path
         d="M 1506.824,1517.477 H 1453.5 v -127.954 h 106.574 v 127.954 z"
         style="fill:#002060;fill-opacity:0.11000001;fill-rule:evenodd;stroke:none"
         id="path346"
         inkscape:connector-curvature="0" /><g
         id="g348"><path
           d="M 1506.824,1517.477 H 1453.5 v -127.954 h 106.574 v 127.954 z"
           style="fill:none;stroke:#ffffff;stroke-width:2.1166501;stroke-linecap:butt;stroke-linejoin:round;stroke-miterlimit:4;stroke-dasharray:none;stroke-opacity:0.11000001"
           id="path350"
           inkscape:connector-curvature="0" /></g><g
         id="g352"><path
           d="M 1506.824,1517.477 H 1453.5 v -127.954 h 106.574 v 127.954 z"
           style="fill:none;stroke:#000000;stroke-width:2.625;stroke-linecap:butt;stroke-linejoin:miter;stroke-miterlimit:4;stroke-dasharray:none;stroke-opacity:1"
           id="path354"
           inkscape:connector-curvature="0" /></g><text
         transform="translate(1485.525,1456.275)"
         style="font-variant:normal;font-weight:normal;font-size:63.52500153px;font-family:Arimo;-inkscape-font-specification:Arimo;writing-mode:lr-tb;fill:#000000;fill-opacity:1;fill-rule:nonzero;stroke:none"
         id="text358"><tspan
           x="0"
           y="0"
           id="tspan356">…</tspan></text>
<g
         id="g360"><path
           d="m 1308.676,1296.375 14.773,6.148 28.653,-69 29.472,12.227 -28.648,69 14.847,6.148 -41.847,17.329 z"
           style="fill:#0365c0;fill-opacity:1;fill-rule:evenodd;stroke:#024a8e;stroke-width:5.32499981;stroke-linecap:butt;stroke-linejoin:round;stroke-miterlimit:4;stroke-dasharray:none;stroke-opacity:1"
           id="path362"
           inkscape:connector-curvature="0" /></g><g
         id="g364"><path
           d="m 1403.477,1353 15.75,2.25 13.046,-91.574 31.653,4.5 -13.051,91.574 15.898,2.25 -36.222,27.227 z"
           style="fill:#0365c0;fill-opacity:1;fill-rule:evenodd;stroke:#024a8e;stroke-width:5.32499981;stroke-linecap:butt;stroke-linejoin:round;stroke-miterlimit:4;stroke-dasharray:none;stroke-opacity:1"
           id="path366"
           inkscape:connector-curvature="0" /></g><g
         id="g368"><path
           d="m 1593,1359 15.148,-5.023 -32.773,-98.625 30.301,-10.125 32.847,98.625 15.227,-5.028 -20.324,40.5 z"
           style="fill:#0365c0;fill-opacity:1;fill-rule:evenodd;stroke:#024a8e;stroke-width:5.32499981;stroke-linecap:butt;stroke-linejoin:round;stroke-miterlimit:4;stroke-dasharray:none;stroke-opacity:1"
           id="path370"
           inkscape:connector-curvature="0" /></g><text
         transform="translate(1080.15,1285.65)"
         style="font-variant:normal;font-weight:normal;font-size:63.52500153px;font-family:Arimo;-inkscape-font-specification:Arimo;writing-mode:lr-tb;fill:#000000;fill-opacity:1;fill-rule:nonzero;stroke:none"
         id="text374"><tspan
           x="0 14.10255 67.018875 102.33878 137.65868"
           y="0"
           sodipodi:role="line"
           id="tspan372">jméno</tspan></text>
<text
         transform="translate(1252.875,1301.55)"
         style="font-variant:normal;font-weight:normal;font-size:36.82500076px;font-family:Arimo;-inkscape-font-specification:Arimo;writing-mode:lr-tb;fill:#000000;fill-opacity:1;fill-rule:nonzero;stroke:none"
         id="text378"><tspan
           x="0"
           y="0"
           id="tspan376">1</tspan></text>
<text
         transform="translate(1186.8,1434.975)"
         style="font-variant:normal;font-weight:normal;font-size:63.52500153px;font-family:Arimo;-inkscape-font-specification:Arimo;writing-mode:lr-tb;fill:#000000;fill-opacity:1;fill-rule:nonzero;stroke:none"
         id="text382"><tspan
           x="0 14.10255 67.018875 102.33878 137.65868"
           y="0"
           sodipodi:role="line"
           id="tspan380">jméno</tspan></text>
<text
         transform="translate(1359.525,1450.875)"
         style="font-variant:normal;font-weight:normal;font-size:36.82500076px;font-family:Arimo;-inkscape-font-specification:Arimo;writing-mode:lr-tb;fill:#000000;fill-opacity:1;fill-rule:nonzero;stroke:none"
         id="text386"><tspan
           x="0"
           y="0"
           id="tspan384">2</tspan></text>
<text
         transform="translate(1570.875,1456.275)"
         style="font-variant:normal;font-weight:normal;font-size:63.52500153px;font-family:Arimo;-inkscape-font-specification:Arimo;writing-mode:lr-tb;fill:#000000;fill-opacity:1;fill-rule:nonzero;stroke:none"
         id="text390"><tspan
           x="0 14.10255 67.018875 102.33878 137.65868"
           y="0"
           sodipodi:role="line"
           id="tspan388">jméno</tspan></text>
<text
         transform="translate(1743.6,1472.175)"
         style="font-variant:normal;font-weight:normal;font-size:36.82500076px;font-family:Arimo;-inkscape-font-specification:Arimo;writing-mode:lr-tb;fill:#000000;fill-opacity:1;fill-rule:nonzero;stroke:none"
         id="text394"><tspan
           x="0"
           y="0"
           id="tspan392">n</tspan></text>
<text
         transform="translate(888.15,1136.25)"
         style="font-variant:normal;font-weight:normal;font-size:63.52500153px;font-family:Arimo;-inkscape-font-specification:Arimo;writing-mode:lr-tb;fill:#000000;fill-opacity:1;fill-rule:nonzero;stroke:none"
         id="text400"><tspan
           x="0"
           y="0"
           id="tspan396">C</tspan><tspan
           x="298.65002"
           y="21.375019"
           id="tspan398">D</tspan></text>
<path
         d="m 856.199,1325.551 0.153,-5.551 0.449,-5.625 0.75,-5.477 0.972,-5.546 1.278,-5.403 1.648,-5.324 1.801,-5.324 2.176,-5.102 2.398,-5.097 2.699,-4.875 2.852,-4.727 3.227,-4.648 3.375,-4.426 3.597,-4.278 3.824,-4.046 4.051,-3.829 4.278,-3.597 4.421,-3.375 4.653,-3.227 4.722,-2.847 4.875,-2.704 5.102,-2.398 5.102,-2.176 5.324,-1.801 5.324,-1.648 5.398,-1.273 5.551,-0.977 5.477,-0.75 5.625,-0.449 5.551,-0.153 5.546,0.153 5.625,0.449 5.477,0.75 5.551,0.977 5.398,1.273 5.324,1.648 5.329,1.801 5.097,2.176 5.102,2.398 4.875,2.704 4.722,2.847 4.653,3.227 4.426,3.375 4.273,3.597 4.051,3.829 3.824,4.046 3.602,4.278 3.375,4.426 3.222,4.648 2.852,4.727 2.699,4.875 2.398,5.097 2.176,5.102 1.801,5.324 1.648,5.324 1.278,5.403 0.972,5.546 0.75,5.477 0.454,5.625 0.148,5.551 h -0.074 l -0.153,5.551 -0.449,5.625 -0.676,5.472 -1.046,5.551 -1.278,5.398 -1.648,5.329 -1.801,5.25 -2.176,5.171 -2.398,5.028 -2.625,4.949 -2.926,4.727 -3.148,4.648 -3.454,4.426 -3.597,4.199 -3.824,4.051 -4.051,3.824 -4.278,3.676 -4.421,3.375 -4.579,3.148 -4.722,2.926 -4.949,2.699 -5.028,2.403 -5.176,2.097 -5.25,1.875 -5.324,1.574 -5.472,1.352 -5.477,0.977 -5.477,0.75 -5.625,0.449 -5.546,0.148 v -0.074 l -5.551,-0.148 -5.625,-0.454 -5.477,-0.671 -5.551,-1.051 -5.398,-1.278 -5.324,-1.648 -5.25,-1.801 -5.176,-2.176 -5.023,-2.398 -4.954,-2.625 -4.722,-2.926 -4.653,-3.148 -4.421,-3.449 -4.204,-3.602 -4.046,-3.824 -3.829,-4.051 -3.671,-4.273 -3.375,-4.426 -3.153,-4.574 -2.926,-4.727 -2.699,-4.949 -2.398,-5.028 -2.102,-5.171 -1.875,-5.25 -1.574,-5.329 -1.352,-5.472 -0.972,-5.477 -0.75,-5.472 -0.449,-5.625 z"
         style="fill:#92d050;fill-opacity:0.32900002;fill-rule:evenodd;stroke:none"
         id="path402"
         inkscape:connector-curvature="0" /><g
         id="g404"><path
           d="m 856.199,1325.551 0.153,-5.551 0.449,-5.625 0.75,-5.477 0.972,-5.546 1.278,-5.403 1.648,-5.324 1.801,-5.324 2.176,-5.102 2.398,-5.097 2.699,-4.875 2.852,-4.727 3.227,-4.648 3.375,-4.426 3.597,-4.278 3.824,-4.046 4.051,-3.829 4.278,-3.597 4.421,-3.375 4.653,-3.227 4.722,-2.847 4.875,-2.704 5.102,-2.398 5.102,-2.176 5.324,-1.801 5.324,-1.648 5.398,-1.273 5.551,-0.977 5.477,-0.75 5.625,-0.449 5.551,-0.153 5.546,0.153 5.625,0.449 5.477,0.75 5.551,0.977 5.398,1.273 5.324,1.648 5.329,1.801 5.097,2.176 5.102,2.398 4.875,2.704 4.722,2.847 4.653,3.227 4.426,3.375 4.273,3.597 4.051,3.829 3.824,4.046 3.602,4.278 3.375,4.426 3.222,4.648 2.852,4.727 2.699,4.875 2.398,5.097 2.176,5.102 1.801,5.324 1.648,5.324 1.278,5.403 0.972,5.546 0.75,5.477 0.454,5.625 0.148,5.551 h -0.074 l -0.153,5.551 -0.449,5.625 -0.676,5.472 -1.046,5.551 -1.278,5.398 -1.648,5.329 -1.801,5.25 -2.176,5.171 -2.398,5.028 -2.625,4.949 -2.926,4.727 -3.148,4.648 -3.454,4.426 -3.597,4.199 -3.824,4.051 -4.051,3.824 -4.278,3.676 -4.421,3.375 -4.579,3.148 -4.722,2.926 -4.949,2.699 -5.028,2.403 -5.176,2.097 -5.25,1.875 -5.324,1.574 -5.472,1.352 -5.477,0.977 -5.477,0.75 -5.625,0.449 -5.546,0.148 v -0.074 l -5.551,-0.148 -5.625,-0.454 -5.477,-0.671 -5.551,-1.051 -5.398,-1.278 -5.324,-1.648 -5.25,-1.801 -5.176,-2.176 -5.023,-2.398 -4.954,-2.625 -4.722,-2.926 -4.653,-3.148 -4.421,-3.449 -4.204,-3.602 -4.046,-3.824 -3.829,-4.051 -3.671,-4.273 -3.375,-4.426 -3.153,-4.574 -2.926,-4.727 -2.699,-4.949 -2.398,-5.028 -2.102,-5.171 -1.875,-5.25 -1.574,-5.329 -1.352,-5.472 -0.972,-5.477 -0.75,-5.472 -0.449,-5.625 z"
           style="fill:none;stroke:#ffffff;stroke-width:2.1166501;stroke-linecap:butt;stroke-linejoin:round;stroke-miterlimit:4;stroke-dasharray:none;stroke-opacity:0.32900002"
           id="path406"
           inkscape:connector-curvature="0" /></g><g
         id="g408"><path
           d="m 856.199,1325.551 0.153,-5.551 0.449,-5.625 0.75,-5.477 0.972,-5.546 1.278,-5.403 1.648,-5.324 1.801,-5.324 2.176,-5.102 2.398,-5.097 2.699,-4.875 2.852,-4.727 3.227,-4.648 3.375,-4.426 3.597,-4.278 3.824,-4.046 4.051,-3.829 4.278,-3.597 4.421,-3.375 4.653,-3.227 4.722,-2.847 4.875,-2.704 5.102,-2.398 5.102,-2.176 5.324,-1.801 5.324,-1.648 5.398,-1.273 5.551,-0.977 5.477,-0.75 5.625,-0.449 5.551,-0.153 5.546,0.153 5.625,0.449 5.477,0.75 5.551,0.977 5.398,1.273 5.324,1.648 5.329,1.801 5.097,2.176 5.102,2.398 4.875,2.704 4.722,2.847 4.653,3.227 4.426,3.375 4.273,3.597 4.051,3.829 3.824,4.046 3.602,4.278 3.375,4.426 3.222,4.648 2.852,4.727 2.699,4.875 2.398,5.097 2.176,5.102 1.801,5.324 1.648,5.324 1.278,5.403 0.972,5.546 0.75,5.477 0.454,5.625 0.148,5.551 h -0.074 l -0.153,5.551 -0.449,5.625 -0.676,5.472 -1.046,5.551 -1.278,5.398 -1.648,5.329 -1.801,5.25 -2.176,5.171 -2.398,5.028 -2.625,4.949 -2.926,4.727 -3.148,4.648 -3.454,4.426 -3.597,4.199 -3.824,4.051 -4.051,3.824 -4.278,3.676 -4.421,3.375 -4.579,3.148 -4.722,2.926 -4.949,2.699 -5.028,2.403 -5.176,2.097 -5.25,1.875 -5.324,1.574 -5.472,1.352 -5.477,0.977 -5.477,0.75 -5.625,0.449 -5.546,0.148 v -0.074 l -5.551,-0.148 -5.625,-0.454 -5.477,-0.671 -5.551,-1.051 -5.398,-1.278 -5.324,-1.648 -5.25,-1.801 -5.176,-2.176 -5.023,-2.398 -4.954,-2.625 -4.722,-2.926 -4.653,-3.148 -4.421,-3.449 -4.204,-3.602 -4.046,-3.824 -3.829,-4.051 -3.671,-4.273 -3.375,-4.426 -3.153,-4.574 -2.926,-4.727 -2.699,-4.949 -2.398,-5.028 -2.102,-5.171 -1.875,-5.25 -1.574,-5.329 -1.352,-5.472 -0.972,-5.477 -0.75,-5.472 -0.449,-5.625 z"
           style="fill:none;stroke:#6e5e12;stroke-width:5.32499981;stroke-linecap:butt;stroke-linejoin:round;stroke-miterlimit:4;stroke-dasharray:none;stroke-opacity:1"
           id="path410"
           inkscape:connector-curvature="0" /></g></g></g></svg>