<svg width="3235" height="1046" xmlns="http://www.w3.org/2000/svg" xmlns:xlink="http://www.w3.org/1999/xlink" overflow="hidden"><defs><filter id="fx0" x="-10%" y="-10%" width="120%" height="120%" filterUnits="userSpaceOnUse" primitiveUnits="userSpaceOnUse"><feComponentTransfer color-interpolation-filters="sRGB"><feFuncR type="discrete" tableValues="0 0"/><feFuncG type="discrete" tableValues="0 0"/><feFuncB type="discrete" tableValues="0 0"/><feFuncA type="linear" slope="0.4" intercept="0"/></feComponentTransfer><feGaussianBlur stdDeviation="6.11111 6.11111"/></filter><filter id="fx1" x="-10%" y="-10%" width="120%" height="120%" filterUnits="userSpaceOnUse" primitiveUnits="userSpaceOnUse"><feComponentTransfer color-interpolation-filters="sRGB"><feFuncR type="discrete" tableValues="0 0"/><feFuncG type="discrete" tableValues="0 0"/><feFuncB type="discrete" tableValues="0 0"/><feFuncA type="linear" slope="0.4" intercept="0"/></feComponentTransfer><feGaussianBlur stdDeviation="6.11111 6.11111"/></filter><filter id="fx2" x="-10%" y="-10%" width="120%" height="120%" filterUnits="userSpaceOnUse" primitiveUnits="userSpaceOnUse"><feComponentTransfer color-interpolation-filters="sRGB"><feFuncR type="discrete" tableValues="0 0"/><feFuncG type="discrete" tableValues="0 0"/><feFuncB type="discrete" tableValues="0 0"/><feFuncA type="linear" slope="0.4" intercept="0"/></feComponentTransfer><feGaussianBlur stdDeviation="6.11111 6.11111"/></filter><filter id="fx3" x="-10%" y="-10%" width="120%" height="120%" filterUnits="userSpaceOnUse" primitiveUnits="userSpaceOnUse"><feComponentTransfer color-interpolation-filters="sRGB"><feFuncR type="discrete" tableValues="0 0"/><feFuncG type="discrete" tableValues="0 0"/><feFuncB type="discrete" tableValues="0 0"/><feFuncA type="linear" slope="0.4" intercept="0"/></feComponentTransfer><feGaussianBlur stdDeviation="6.11111 6.11111"/></filter><filter id="fx4" x="-10%" y="-10%" width="120%" height="120%" filterUnits="userSpaceOnUse" primitiveUnits="userSpaceOnUse"><feComponentTransfer color-interpolation-filters="sRGB"><feFuncR type="discrete" tableValues="0 0"/><feFuncG type="discrete" tableValues="0 0"/><feFuncB type="discrete" tableValues="0 0"/><feFuncA type="linear" slope="0.4" intercept="0"/></feComponentTransfer><feGaussianBlur stdDeviation="6.11111 6.11111"/></filter><filter id="fx5" x="-10%" y="-10%" width="120%" height="120%" filterUnits="userSpaceOnUse" primitiveUnits="userSpaceOnUse"><feComponentTransfer color-interpolation-filters="sRGB"><feFuncR type="discrete" tableValues="0 0"/><feFuncG type="discrete" tableValues="0 0"/><feFuncB type="discrete" tableValues="0 0"/><feFuncA type="linear" slope="0.4" intercept="0"/></feComponentTransfer><feGaussianBlur stdDeviation="6.11111 6.11111"/></filter><filter id="fx6" x="-10%" y="-10%" width="120%" height="120%" filterUnits="userSpaceOnUse" primitiveUnits="userSpaceOnUse"><feComponentTransfer color-interpolation-filters="sRGB"><feFuncR type="discrete" tableValues="0 0"/><feFuncG type="discrete" tableValues="0 0"/><feFuncB type="discrete" tableValues="0 0"/><feFuncA type="linear" slope="0.4" intercept="0"/></feComponentTransfer><feGaussianBlur stdDeviation="6.11111 6.11111"/></filter><clipPath id="clip7"><rect x="698" y="1029" width="3235" height="1046"/></clipPath><clipPath id="clip8"><path d="M2262 1612.5C2060.14 1612.5 1896.5 1708.53 1896.5 1827 1896.5 1945.47 2060.14 2041.5 2262 2041.5 2463.86 2041.5 2627.5 1945.47 2627.5 1827 2627.5 1708.53 2463.86 1612.5 2262 1612.5ZM698 1029 3933 1029 3933 2075 698 2075Z" fill-rule="evenodd" clip-rule="evenodd"/></clipPath><clipPath id="clip9"><rect x="-16" y="-16" width="261" height="172"/></clipPath><clipPath id="clip10"><rect x="0" y="0" width="780" height="478"/></clipPath><clipPath id="clip11"><path d="M1816.5 1056.5 1816.5 1355.5 2750.5 1355.5 2750.5 1056.5ZM698 1029 3933 1029 3933 2075 698 2075Z" fill-rule="evenodd" clip-rule="evenodd"/></clipPath><clipPath id="clip12"><rect x="-16" y="-16" width="320" height="134"/></clipPath><clipPath id="clip13"><rect x="0" y="0" width="983" height="348"/></clipPath><clipPath id="clip14"><rect x="15" y="15" width="137" height="82"/></clipPath><clipPath id="clip15"><rect x="0" y="0" width="581" height="423"/></clipPath><clipPath id="clip16"><path d="M711.5 1678.5 711.5 1977.5 1505.5 1977.5 1505.5 1678.5ZM698 1029 3933 1029 3933 2075 698 2075Z" fill-rule="evenodd" clip-rule="evenodd"/></clipPath><clipPath id="clip17"><rect x="-16" y="-16" width="278" height="134"/></clipPath><clipPath id="clip18"><rect x="0" y="0" width="843" height="348"/></clipPath><clipPath id="clip19"><rect x="15" y="15" width="168" height="93"/></clipPath><clipPath id="clip20"><rect x="0" y="0" width="683" height="423"/></clipPath><clipPath id="clip21"><path d="M3080.5 1678.5 3080.5 1977.5 3899.5 1977.5 3899.5 1678.5ZM698 1029 3933 1029 3933 2075 698 2075Z" fill-rule="evenodd" clip-rule="evenodd"/></clipPath><clipPath id="clip22"><rect x="-16" y="-16" width="285" height="134"/></clipPath><clipPath id="clip23"><rect x="0" y="0" width="868" height="348"/></clipPath><clipPath id="clip24"><rect x="15" y="11" width="192" height="97"/></clipPath><clipPath id="clip25"><rect x="0" y="0" width="768" height="423"/></clipPath></defs><g clip-path="url(#clip7)" transform="translate(-698 -1029)"><path d="M2605.51 1829.92 3077.07 1830.9 3077.05 1840.06 2605.49 1839.08ZM3038.09 1808.48 3086.5 1835.5 3037.98 1862.32C3035.76 1863.55 3032.97 1862.74 3031.75 1860.53 3030.53 1858.31 3031.33 1855.52 3033.54 1854.3L3074.84 1831.47 3074.82 1839.48 3033.62 1816.48C3031.41 1815.25 3030.62 1812.45 3031.85 1810.24 3033.09 1808.03 3035.88 1807.24 3038.09 1808.48Z" fill="#3E4247"/><g clip-path="url(#clip8)"><g clip-path="url(#clip9)" filter="url(#fx0)" transform="translate(1882 1598)"><g clip-path="url(#clip10)"><path d="M24.2227 238.723C24.2227 120.258 187.863 24.2228 389.723 24.2228 591.583 24.2228 755.223 120.258 755.223 238.723 755.223 357.188 591.583 453.223 389.723 453.223 187.863 453.223 24.2227 357.188 24.2227 238.723Z" stroke="#3E4247" stroke-width="9" stroke-linejoin="round" stroke-miterlimit="10" fill="#DCDDE0" fill-rule="evenodd"/></g></g></g><path d="M1896.5 1827C1896.5 1708.53 2060.14 1612.5 2262 1612.5 2463.86 1612.5 2627.5 1708.53 2627.5 1827 2627.5 1945.47 2463.86 2041.5 2262 2041.5 2060.14 2041.5 1896.5 1945.47 1896.5 1827Z" stroke="#3E4247" stroke-width="9.16667" stroke-linejoin="round" stroke-miterlimit="10" fill="#DCDDE0" fill-rule="evenodd"/><text fill="#292C30" font-family="Arial,Arial_MSFontService,sans-serif" font-weight="400" font-size="183" transform="matrix(1 0 0 1 1903.15 1887)">procesy</text><g clip-path="url(#clip11)"><g clip-path="url(#clip12)" filter="url(#fx1)" transform="translate(1802 1042)"><g clip-path="url(#clip13)"><rect x="24.2225" y="24.2225" width="934" height="299" stroke="#3E4247" stroke-width="9" stroke-miterlimit="8" fill="#DCDDE0"/></g></g><g clip-path="url(#clip14)" filter="url(#fx2)" transform="translate(2002 1028)"><g clip-path="url(#clip15)"><path d="M41.1035-87.2109C37.0527-87.2109 33.4487-86.5854 30.2915-85.3345 27.1343-84.0835 24.677-82.3113 22.9197-80.0178 21.1624-77.7244 20.2837-75.0288 20.2837-71.9311 20.2837-68.6548 21.0134-65.9592 22.4729-63.8445 23.9324-61.7297 26.4343-59.9426 29.9788-58.4832 33.5232-57.0237 38.5122-55.728 44.9458-54.5962 52.9878-53.1069 59.4363-51.2007 64.2913-48.8774 69.1462-46.5542 72.7056-43.6055 74.9692-40.0312 77.2329-36.457 78.3647-32.019 78.3647-26.7173 78.3647-21.1772 76.8904-16.218 73.9416-11.8396 70.9929-7.46118 66.8677-4.021 61.5659-1.51904 56.2642 0.98291 50.2178 2.23389 43.4268 2.23389 33.1807 2.23389 24.96-0.0595704 18.7646-4.64648 12.5693-9.2334 8.57812-16.0542 6.79102-25.1089L18.1392-26.896C20.8794-13.9692 29.2788-7.50586 43.3374-7.50586 48.103-7.50586 52.2283-8.26538 55.7131-9.78442 59.198-11.3035 61.8787-13.4182 63.7551-16.1287 65.6316-18.8391 66.5698-21.9219 66.5698-25.377 66.5698-29.1299 65.6465-32.168 63.7998-34.4912 61.9531-36.8144 59.064-38.6909 55.1323-40.1206 51.2007-41.5503 45.7798-42.8906 38.8696-44.1416 28.8618-45.8691 21.4006-48.8625 16.4861-53.1218 11.5715-57.3811 9.11426-63.2637 9.11426-70.7695 9.11426-75.7734 10.4248-80.2561 13.0459-84.2175 15.667-88.1789 19.3901-91.2915 24.2153-93.5552 29.0405-95.8188 34.6699-96.9507 41.1035-96.9507 50.2773-96.9507 57.7981-94.9997 63.6658-91.0979 69.5334-87.196 73.4204-81.4624 75.3267-73.897L64.0679-72.2886C62.9956-77.0542 60.4788-80.7327 56.5173-83.324 52.5559-85.9153 47.418-87.2109 41.1035-87.2109ZM132.008-94.8061 132.008-85.4238 114.137-85.4238 114.137-23.2324C114.137-19.1816 114.48-16.1287 115.165-14.0735 115.85-12.0183 116.922-10.6482 118.381-9.96313 119.841-9.27808 121.881-8.93555 124.502-8.93555 127.183-8.93555 129.864-9.32275 132.544-10.0972L134.153-0.178711C129.089 0.655273 125.217 1.07227 122.536 1.07227 116.937 1.07227 112.707 0.208496 109.848-1.51904 106.989-3.24658 105.067-5.88257 104.085-9.427 103.102-12.9714 102.61-17.9009 102.61-24.2153L102.61-85.4238 89.0282-85.4238 89.0282-94.8061 102.61-94.8061 102.61-117.502 114.137-125.723 114.137-94.8061ZM225.231 0 213.347 0C211.739-3.8125 210.726-8.57812 210.309-14.2969L210.041-14.3862C205.752-8.78662 200.912-4.6167 195.521-1.87646 190.129 0.863769 183.711 2.23389 176.264 2.23389 170.486 2.23389 165.423 1.11694 161.074-1.11694 156.725-3.35083 153.36-6.46338 150.977-10.4546 148.594-14.4458 147.403-19.0029 147.403-24.126 147.403-29.6064 148.564-34.2678 150.888-38.1101 153.211-41.9524 156.934-45.1394 162.057-47.6711 167.18-50.2029 173.941-52.0942 182.341-53.3452 194.791-55.1919 203.846-57.1875 209.505-59.332L209.505-62.8169C209.505-68.7143 208.849-73.4055 207.539-76.8904 206.228-80.3752 203.86-82.9665 200.435-84.6643 197.01-86.3621 192.14-87.2109 185.826-87.2109 172.124-87.2109 163.904-81.0156 161.163-68.625L149.815-70.2334C151.722-78.9902 155.772-85.6323 161.968-90.1597 168.163-94.687 176.354-96.9507 186.54-96.9507 194.404-96.9507 200.852-95.9082 205.886-93.8232 210.919-91.7383 214.702-88.3577 217.234-83.6814 219.766-79.0051 221.032-72.7651 221.032-64.9614L221.032-29.3979C221.032-21.2368 221.314-15.2351 221.88-11.3928 222.446-7.55054 223.563-3.75293 225.231 0ZM181.268-43.3374C173.405-41.8481 167.776-39.5845 164.38-36.5464 160.985-33.5083 159.287-29.3682 159.287-24.126 159.287-18.8242 161.029-14.6692 164.514-11.6609 167.999-8.65259 172.899-7.14844 179.213-7.14844 181.536-7.14844 184.202-7.59521 187.211-8.48877 190.219-9.38232 193.078-10.6333 195.789-12.2417 198.499-13.8501 200.659-15.6372 202.267-17.603 204.352-20.1645 205.871-22.3835 206.824-24.26 207.777-26.1365 208.462-28.6533 208.879-31.8105 209.296-34.9678 209.505-39.4951 209.505-45.3926L209.505-50.3071C207.896-49.5327 204.68-48.5349 199.854-47.3137 195.029-46.0925 188.834-44.7671 181.268-43.3374ZM308.882-94.8061 320.766-94.8061 283.595 0 273.408 0 236.236-94.8061 248.12-94.8061 278.501-13.7607Z" fill="#292C30" transform="matrix(1 0 0 1 129.597 253)"/></g></g></g><rect x="1816.5" y="1056.5" width="934" height="299" stroke="#3E4247" stroke-width="9.16667" stroke-miterlimit="8" fill="#DCDDE0"/><text fill="#292C30" font-family="Arial Nova Light,Arial Nova Light_MSFontService,sans-serif" font-weight="300" font-size="183" transform="matrix(1 0 0 1 2121.87 1271)">stav</text><g clip-path="url(#clip16)"><g clip-path="url(#clip17)" filter="url(#fx3)" transform="translate(697 1664)"><g clip-path="url(#clip18)"><rect x="24.2228" y="24.2228" width="794" height="299" stroke="#3E4247" stroke-width="9" stroke-miterlimit="8" fill="#DCDDE0"/></g></g><g clip-path="url(#clip19)" filter="url(#fx4)" transform="translate(776 1637)"><g clip-path="url(#clip20)"><path d="M73.9863-94.8061 85.8706-94.8061 48.6987 0 38.5122 0 1.34033-94.8061 13.2246-94.8061 43.6055-13.7607ZM128.187-87.2109C124.136-87.2109 120.532-86.5854 117.375-85.3345 114.218-84.0835 111.76-82.3113 110.003-80.0178 108.246-77.7244 107.367-75.0288 107.367-71.9311 107.367-68.6548 108.097-65.9592 109.556-63.8445 111.016-61.7297 113.518-59.9426 117.062-58.4832 120.607-57.0237 125.596-55.728 132.029-54.5962 140.071-53.1069 146.52-51.2007 151.375-48.8774 156.23-46.5542 159.789-43.6055 162.053-40.0312 164.316-36.457 165.448-32.019 165.448-26.7173 165.448-21.1772 163.974-16.218 161.025-11.8396 158.076-7.46118 153.951-4.021 148.649-1.51904 143.347 0.98291 137.301 2.23389 130.51 2.23389 120.264 2.23389 112.043-0.0595704 105.848-4.64648 99.6527-9.2334 95.6615-16.0542 93.8743-25.1089L105.222-26.896C107.963-13.9692 116.362-7.50586 130.421-7.50586 135.186-7.50586 139.312-8.26538 142.796-9.78442 146.281-11.3035 148.962-13.4182 150.838-16.1287 152.715-18.8391 153.653-21.9219 153.653-25.377 153.653-29.1299 152.73-32.168 150.883-34.4912 149.036-36.8144 146.147-38.6909 142.216-40.1206 138.284-41.5503 132.863-42.8906 125.953-44.1416 115.945-45.8691 108.484-48.8625 103.569-53.1218 98.6549-57.3811 96.1976-63.2637 96.1976-70.7695 96.1976-75.7734 97.5081-80.2561 100.129-84.2175 102.75-88.1789 106.473-91.2915 111.299-93.5552 116.124-95.8188 121.753-96.9507 128.187-96.9507 137.361-96.9507 144.881-94.9997 150.749-91.0979 156.617-87.196 160.504-81.4624 162.41-73.897L151.151-72.2886C150.079-77.0542 147.562-80.7327 143.601-83.324 139.639-85.9153 134.501-87.2109 128.187-87.2109ZM219.091-94.8061 219.091-85.4238 201.22-85.4238 201.22-23.2324C201.22-19.1816 201.563-16.1287 202.248-14.0735 202.933-12.0183 204.005-10.6482 205.465-9.96313 206.924-9.27808 208.964-8.93555 211.586-8.93555 214.266-8.93555 216.947-9.32275 219.628-10.0972L221.236-0.178711C216.173 0.655273 212.3 1.07227 209.62 1.07227 204.02 1.07227 199.791 0.208496 196.931-1.51904 194.072-3.24658 192.151-5.88257 191.168-9.427 190.185-12.9714 189.694-17.9009 189.694-24.2153L189.694-85.4238 176.111-85.4238 176.111-94.8061 189.694-94.8061 189.694-117.502 201.22-125.723 201.22-94.8061ZM271.211-7.86328C280.206-7.86328 287.191-10.7822 292.165-16.6201 297.139-22.458 299.626-30.8574 299.626-41.8184L299.626-94.8061 311.153-94.8061 311.153 0 300.341 0 300.341-15.1904C297.065-9.65039 292.79-5.36133 287.518-2.32324 282.246 0.714844 276.453 2.23389 270.139 2.23389 259.714 2.23389 251.717-0.580811 246.147-6.2102 240.577-11.8396 237.792-19.7476 237.792-29.9341L237.792-94.8061 249.319-94.8061 249.319-31.4531C249.319-23.8877 251.151-18.0647 254.814-13.9841 258.478-9.90356 263.944-7.86328 271.211-7.86328ZM347.43-13.9395 347.072-13.9395 347.072 36.2783 335.545 36.2783 335.545-94.8061 346.357-94.8061 346.357-79.2583 346.804-79.3476C351.034-85.6025 355.814-90.1001 361.146-92.8403 366.477-95.5806 372.449-96.9507 379.062-96.9507 386.984-96.9507 393.85-94.8508 399.658-90.6511 405.466-86.4514 409.904-80.6582 412.972-73.2715 416.04-65.8848 417.574-57.5449 417.574-48.2519 417.574-38.1846 415.995-29.3533 412.838-21.7581 409.681-14.1628 405.138-8.26538 399.211-4.06567 393.284 0.134033 386.299 2.23389 378.257 2.23389 371.407 2.23389 365.509 0.968017 360.565-1.56372 355.621-4.09546 351.242-8.2207 347.43-13.9395ZM377.364-87.2109C370.692-87.2109 365.048-85.4387 360.431-81.8943 355.814-78.3498 352.344-73.4651 350.021-67.24 347.698-61.0149 346.536-53.8813 346.536-45.8394 346.536-37.8569 347.802-30.9766 350.334-25.1982 352.865-19.4199 356.41-15.0266 360.967-12.0183 365.524-9.01001 370.841-7.50586 376.917-7.50586 382.755-7.50586 387.848-9.15894 392.197-12.4651 396.545-15.7712 399.881-20.4773 402.205-26.5833 404.528-32.6892 405.689-39.8525 405.689-48.0732 405.689-55.8769 404.528-62.7424 402.205-68.6697 399.881-74.5969 396.575-79.1689 392.286-82.3857 387.997-85.6025 383.023-87.2109 377.364-87.2109Z" fill="#292C30" transform="matrix(1 0 0 1 129.642 252)"/></g></g></g><rect x="711.5" y="1678.5" width="794" height="299" stroke="#3E4247" stroke-width="9.16667" stroke-miterlimit="8" fill="#DCDDE0"/><text fill="#292C30" font-family="Arial Nova Light,Arial Nova Light_MSFontService,sans-serif" font-weight="300" font-size="183" transform="matrix(1 0 0 1 895.919 1880)">vstup</text><g clip-path="url(#clip21)"><g clip-path="url(#clip22)" filter="url(#fx5)" transform="translate(3066 1664)"><g clip-path="url(#clip23)"><rect x="24.2227" y="24.2228" width="819" height="299" stroke="#3E4247" stroke-width="9" stroke-miterlimit="8" fill="#DCDDE0"/></g></g><g clip-path="url(#clip24)" filter="url(#fx6)" transform="translate(3115 1637)"><g clip-path="url(#clip25)"><path d="M73.9863-94.8061 85.8706-94.8061 48.6987 0 38.5122 0 1.34033-94.8061 13.2246-94.8061 43.6055-13.7607ZM130.242-13.1353 130.599-13.1353C132.387-19.2114 135.305-27.7895 139.356-38.8696L159.997-94.8061 171.346-94.8061 130.599 13.8501C128.217 20.1645 125.804 25.094 123.362 28.6384 120.919 32.1829 118.253 34.6997 115.364 36.189 112.475 37.6782 109.035 38.4228 105.044 38.4228 101.112 38.4228 97.2996 37.9463 93.6063 36.9932L96.0189 27.2534C97.0911 27.6108 98.3272 27.8789 99.7271 28.0576 101.127 28.2363 102.393 28.3257 103.525 28.3257 106.563 28.3257 109.035 27.8193 110.941 26.8066 112.847 25.7939 114.53 24.0664 115.99 21.624 117.449 19.1816 119.043 15.6372 120.77 10.9907L124.523 0.536133 88.8704-94.8061 101.112-94.8061 121.396-39.5845C124.672-30.5894 127.621-21.7729 130.242-13.1353ZM123.451-107.227 137.122-130.995 152.76-130.995 132.655-107.227ZM213.551-87.2109C209.501-87.2109 205.897-86.5854 202.739-85.3345 199.582-84.0835 197.125-82.3113 195.368-80.0178 193.61-77.7244 192.732-75.0288 192.732-71.9311 192.732-68.6548 193.461-65.9592 194.921-63.8445 196.38-61.7297 198.882-59.9426 202.427-58.4832 205.971-57.0237 210.96-55.728 217.394-54.5962 225.436-53.1069 231.884-51.2007 236.739-48.8774 241.594-46.5542 245.153-43.6055 247.417-40.0312 249.681-36.457 250.813-32.019 250.813-26.7173 250.813-21.1772 249.338-16.218 246.39-11.8396 243.441-7.46118 239.316-4.021 234.014-1.51904 228.712 0.98291 222.666 2.23389 215.875 2.23389 205.629 2.23389 197.408-0.0595704 191.213-4.64648 185.017-9.2334 181.026-16.0542 179.239-25.1089L190.587-26.896C193.327-13.9692 201.727-7.50586 215.785-7.50586 220.551-7.50586 224.676-8.26538 228.161-9.78442 231.646-11.3035 234.327-13.4182 236.203-16.1287 238.079-18.8391 239.018-21.9219 239.018-25.377 239.018-29.1299 238.094-32.168 236.248-34.4912 234.401-36.8144 231.512-38.6909 227.58-40.1206 223.649-41.5503 218.228-42.8906 211.318-44.1416 201.31-45.8691 193.849-48.8625 188.934-53.1218 184.019-57.3811 181.562-63.2637 181.562-70.7695 181.562-75.7734 182.873-80.2561 185.494-84.2175 188.115-88.1789 191.838-91.2915 196.663-93.5552 201.488-95.8188 207.118-96.9507 213.551-96.9507 222.725-96.9507 230.246-94.9997 236.114-91.0979 241.981-87.196 245.868-81.4624 247.775-73.897L236.516-72.2886C235.443-77.0542 232.927-80.7327 228.965-83.324 225.004-85.9153 219.866-87.2109 213.551-87.2109ZM304.456-94.8061 304.456-85.4238 286.585-85.4238 286.585-23.2324C286.585-19.1816 286.927-16.1287 287.613-14.0735 288.298-12.0183 289.37-10.6482 290.829-9.96313 292.289-9.27808 294.329-8.93555 296.95-8.93555 299.631-8.93555 302.312-9.32275 304.992-10.0972L306.601-0.178711C301.537 0.655273 297.665 1.07227 294.984 1.07227 289.385 1.07227 285.155 0.208496 282.296-1.51904 279.437-3.24658 277.515-5.88257 276.532-9.427 275.55-12.9714 275.058-17.9009 275.058-24.2153L275.058-85.4238 261.476-85.4238 261.476-94.8061 275.058-94.8061 275.058-117.502 286.585-125.723 286.585-94.8061ZM356.576-7.86328C365.571-7.86328 372.555-10.7822 377.53-16.6201 382.504-22.458 384.991-30.8574 384.991-41.8184L384.991-94.8061 396.518-94.8061 396.518 0 385.706 0 385.706-15.1904C382.429-9.65039 378.155-5.36133 372.883-2.32324 367.611 0.714844 361.818 2.23389 355.503 2.23389 345.079 2.23389 337.081-0.580811 331.511-6.2102 325.942-11.8396 323.157-19.7476 323.157-29.9341L323.157-94.8061 334.684-94.8061 334.684-31.4531C334.684-23.8877 336.515-18.0647 340.179-13.9841 343.843-9.90356 349.308-7.86328 356.576-7.86328ZM432.794-13.9395 432.437-13.9395 432.437 36.2783 420.91 36.2783 420.91-94.8061 431.722-94.8061 431.722-79.2583 432.169-79.3476C436.398-85.6025 441.179-90.1001 446.51-92.8403 451.842-95.5806 457.814-96.9507 464.426-96.9507 472.349-96.9507 479.214-94.8508 485.023-90.6511 490.831-86.4514 495.269-80.6582 498.336-73.2715 501.404-65.8848 502.938-57.5449 502.938-48.2519 502.938-38.1846 501.36-29.3533 498.202-21.7581 495.045-14.1628 490.503-8.26538 484.576-4.06567 478.648 0.134033 471.664 2.23389 463.622 2.23389 456.771 2.23389 450.874 0.968017 445.93-1.56372 440.985-4.09546 436.607-8.2207 432.794-13.9395ZM462.728-87.2109C456.056-87.2109 450.412-85.4387 445.795-81.8943 441.179-78.3498 437.709-73.4651 435.386-67.24 433.062-61.0149 431.901-53.8813 431.901-45.8394 431.901-37.8569 433.167-30.9766 435.698-25.1982 438.23-19.4199 441.774-15.0266 446.332-12.0183 450.889-9.01001 456.205-7.50586 462.282-7.50586 468.119-7.50586 473.213-9.15894 477.561-12.4651 481.91-15.7712 485.246-20.4773 487.569-26.5833 489.892-32.6892 491.054-39.8525 491.054-48.0732 491.054-55.8769 489.892-62.7424 487.569-68.6697 485.246-74.5969 481.94-79.1689 477.651-82.3857 473.362-85.6025 468.388-87.2109 462.728-87.2109Z" fill="#292C30" transform="matrix(1 0 0 1 129.438 252)"/></g></g></g><rect x="3080.5" y="1678.5" width="819" height="299" stroke="#3E4247" stroke-width="9.16667" stroke-miterlimit="8" fill="#DCDDE0"/><text fill="#292C30" font-family="Arial Nova Light,Arial Nova Light_MSFontService,sans-serif" font-weight="300" font-size="183" transform="matrix(1 0 0 1 3234.72 1880)">výstup</text><path d="M1713.08 1170.48 1716.04 1810.04C1716.05 1812.57 1714.01 1814.63 1711.48 1814.65 1708.95 1814.66 1706.88 1812.61 1706.87 1810.08L1703.92 1170.52C1703.9 1167.99 1705.95 1165.93 1708.48 1165.92 1711.01 1165.91 1713.07 1167.95 1713.08 1170.48ZM1738.2 1770.91 1711.5 1819.5 1684.35 1771.16C1683.11 1768.95 1683.9 1766.16 1686.1 1764.92 1688.31 1763.68 1691.11 1764.46 1692.35 1766.67L1715.45 1807.81 1707.44 1807.85 1730.17 1766.5C1731.38 1764.28 1734.17 1763.47 1736.39 1764.69 1738.61 1765.91 1739.42 1768.69 1738.2 1770.91Z" fill="#3E4247"/><path d="M1708.5 1170.5 1813.5 1170.5" stroke="#3E4247" stroke-width="9.16667" stroke-linejoin="round" stroke-miterlimit="10" fill="none" fill-rule="evenodd"/><path d="M2864.5 1174.08 2762.94 1174.08 2762.94 1164.92 2864.5 1164.92ZM2801.97 1196.42 2753.5 1169.5 2801.97 1142.58C2804.18 1141.35 2806.97 1142.14 2808.2 1144.36 2809.43 1146.57 2808.63 1149.36 2806.42 1150.59L2765.17 1173.51 2765.17 1165.49 2806.42 1188.41C2808.63 1189.64 2809.43 1192.43 2808.2 1194.64 2806.97 1196.85 2804.18 1197.65 2801.97 1196.42Z" fill="#3E4247"/><path d="M2864.5 1169.5 2864.5 1834.5" stroke="#3E4247" stroke-width="9.16667" stroke-linecap="round" stroke-linejoin="round" stroke-miterlimit="10" fill="none" fill-rule="evenodd"/><path d="M1500.5 1808.92 1888.06 1808.92 1888.06 1818.08 1500.5 1818.08ZM1849.03 1786.58 1897.5 1813.5 1849.03 1840.42C1846.82 1841.65 1844.03 1840.86 1842.8 1838.64 1841.57 1836.43 1842.37 1833.64 1844.58 1832.41L1885.83 1809.49 1885.83 1817.51 1844.58 1794.59C1842.37 1793.36 1841.57 1790.57 1842.8 1788.36 1844.03 1786.15 1846.82 1785.35 1849.03 1786.58Z" fill="#3E4247"/></g></svg>