<?xml version="1.0" encoding="UTF-8" standalone="no"?>
<svg
   xmlns:dc="http://purl.org/dc/elements/1.1/"
   xmlns:cc="http://creativecommons.org/ns#"
   xmlns:rdf="http://www.w3.org/1999/02/22-rdf-syntax-ns#"
   xmlns:svg="http://www.w3.org/2000/svg"
   xmlns="http://www.w3.org/2000/svg"
   xmlns:sodipodi="http://sodipodi.sourceforge.net/DTD/sodipodi-0.dtd"
   xmlns:inkscape="http://www.inkscape.org/namespaces/inkscape"
   width="4006"
   height="2283"
   overflow="hidden"
   version="1.1"
   id="svg97"
   sodipodi:docname="izomorfismus.svg"
   inkscape:version="0.92.5 (2060ec1f9f, 2020-04-08)">
  <metadata
     id="metadata101">
    <rdf:RDF>
      <cc:Work
         rdf:about="">
        <dc:format>image/svg+xml</dc:format>
        <dc:type
           rdf:resource="http://purl.org/dc/dcmitype/StillImage" />
      </cc:Work>
    </rdf:RDF>
  </metadata>
  <sodipodi:namedview
     pagecolor="#ffffff"
     bordercolor="#666666"
     borderopacity="1"
     objecttolerance="10"
     gridtolerance="10"
     guidetolerance="10"
     inkscape:pageopacity="0"
     inkscape:pageshadow="2"
     inkscape:window-width="2560"
     inkscape:window-height="1376"
     id="namedview99"
     showgrid="false"
     inkscape:zoom="0.41349102"
     inkscape:cx="1838.5466"
     inkscape:cy="1141.5"
     inkscape:window-x="0"
     inkscape:window-y="0"
     inkscape:window-maximized="1"
     inkscape:current-layer="svg97" />
  <defs
     id="defs5">
    <clipPath
       id="clip0">
      <rect
         x="344"
         y="806"
         width="4006"
         height="2283"
         id="rect2" />
    </clipPath>
  </defs>
  <rect
     style="fill:#ffffff;stroke:#000000;stroke-width:3.4375;stroke-miterlimit:8"
     id="rect7"
     stroke-miterlimit="8"
     height="2271"
     width="1731"
     y="10.5"
     x="1.5" />
  <text
     style="font-style:italic;font-weight:700;font-size:110px;font-family:'Arial Nova Light', 'Arial Nova Light_MSFontService', sans-serif"
     id="text11"
     font-size="110"
     font-weight="700"
     font-style="italic"
     x="64.240852"
     y="140">podsystém fyzického systému <tspan
   style="font-size:110px"
   id="tspan9"
   y="272"
   x="495.34882"
   font-size="110">(abstrakce)</tspan>
</text>
  <rect
     style="fill:#ffffff;stroke:#000000;stroke-width:3.4375;stroke-miterlimit:8"
     id="rect13"
     stroke-miterlimit="8"
     height="2271"
     width="1731"
     y="10.5"
     x="2273.5" />
  <text
     style="font-style:italic;font-variant:normal;font-weight:bold;font-stretch:normal;font-size:110px;font-family:'Arial Nova Light', 'Arial Nova Light_MSFontService', sans-serif;-inkscape-font-specification:'Arial Nova Light, Arial Nova Light_MSFontService, sans-serif, Bold Italic';font-variant-ligatures:normal;font-variant-caps:normal;font-variant-numeric:normal;font-feature-settings:normal;text-align:start;writing-mode:lr-tb;text-anchor:start"
     id="text19"
     font-size="110"
     font-weight="700"
     font-style="italic"
     x="2434.9702"
     y="140">
    <tspan
       sodipodi:role="line"
       id="tspan954"
       x="2434.9702"
       y="140">model – informační systém</tspan>
  </text>
  <rect
     style="fill:#ff0000;fill-opacity:0.4;stroke:#ff0000;stroke-width:9.16666985;stroke-miterlimit:8"
     id="rect21"
     stroke-miterlimit="8"
     height="304"
     width="776"
     y="983.5"
     x="81.5" />
  <text
     style="font-style:italic;font-weight:400;font-size:110px;font-family:Arial, Arial_MSFontService, sans-serif"
     id="text25"
     font-size="110"
     font-weight="400"
     font-style="italic"
     x="90.012001"
     y="1096">transformační <tspan
   style="font-size:110px"
   id="tspan23"
   y="1228"
   x="90.012001"
   font-size="110">funkce</tspan>
</text>
  <path
     style="fill:#ff0000;fill-opacity:0.4;fill-rule:evenodd;stroke:#ff0000;stroke-width:9.16666985;stroke-linejoin:round;stroke-miterlimit:10"
     inkscape:connector-curvature="0"
     id="path27"
     stroke-miterlimit="10"
     d="m 326.5,619 c 0,-59.92 48.353,-108.5 108,-108.5 59.647,0 108,48.58 108,108.5 0,59.92 -48.353,108.5 -108,108.5 -59.647,0 -108,-48.58 -108,-108.5 z" />
  <path
     style="fill:#ff0000;fill-opacity:0.4;fill-rule:evenodd;stroke:#ff0000;stroke-width:9.16666985;stroke-linejoin:round;stroke-miterlimit:10"
     inkscape:connector-curvature="0"
     id="path29"
     stroke-miterlimit="10"
     d="m 542.5,443 c 0,-59.92 48.353,-108.5 108,-108.5 59.65,0 108,48.58 108,108.5 0,59.92 -48.35,108.5 -108,108.5 -59.647,0 -108,-48.58 -108,-108.5 z" />
  <path
     style="fill:#ff0000;fill-opacity:0.4;fill-rule:evenodd;stroke:#ff0000;stroke-width:9.16666985;stroke-linejoin:round;stroke-miterlimit:10"
     inkscape:connector-curvature="0"
     id="path31"
     stroke-miterlimit="10"
     d="m 975.5,767.5 c 0,-59.65 48.35,-108 108,-108 59.65,0 108,48.35 108,108 0,59.65 -48.35,108 -108,108 -59.65,0 -108,-48.35 -108,-108 z" />
  <path
     style="fill:#ff0000;fill-opacity:0.4;fill-rule:evenodd;stroke:#ff0000;stroke-width:9.16666985;stroke-linejoin:round;stroke-miterlimit:10"
     inkscape:connector-curvature="0"
     id="path33"
     stroke-miterlimit="10"
     d="m 651.5,1957.5 c 0,-59.65 48.35,-108 108,-108 59.65,0 108,48.35 108,108 0,59.65 -48.35,108 -108,108 -59.65,0 -108,-48.35 -108,-108 z" />
  <path
     inkscape:connector-curvature="0"
     id="path35"
     d="M 448.78473,732.39066 434.2428,960.52 l 3.4305,0.219 14.54197,-228.12966 z M 422.5275,955.181 434.5002,983.5 449.97176,956.93 Z" />
  <path
     inkscape:connector-curvature="0"
     id="path37"
     d="M 649.83348,551.07951 546.44,960.859 549.773,961.7 653.16652,551.92049 Z M 535.896,953.472 542.5,983.5 562.56,960.2 Z" />
  <path
     inkscape:connector-curvature="0"
     id="path39"
     d="M 1082.7152,873.97091 877.103,979.506 l 1.57,3.058 205.6118,-105.53491 z M 875.687,966.7096 857.5,991.5 l 30.744,-0.325 z" />
  <path
     inkscape:connector-curvature="0"
     id="path41"
     d="m 452.007,1286.67 296.983,541.91 -3.01,1.65 -296.987,-541.9 z m 305.333,532.11 1.16,30.72 -25.27,-17.51 z" />
  <rect
     style="fill:#00b0f0;fill-opacity:0.50980392;stroke:#000000;stroke-width:9.16666985;stroke-miterlimit:8"
     id="rect43"
     stroke-miterlimit="8"
     height="304"
     width="801"
     y="983.5"
     x="2446.5" />
  <text
     style="font-style:italic;font-weight:400;font-size:110px;font-family:Arial, Arial_MSFontService, sans-serif"
     id="text47"
     font-size="110"
     font-weight="400"
     font-style="italic"
     x="2455.4199"
     y="1096">transformační <tspan
   style="font-size:110px"
   id="tspan45"
   y="1228"
   x="2455.4199"
   font-size="110">funkce</tspan>
</text>
  <path
     style="fill:#00b0f0;fill-opacity:0.4;fill-rule:evenodd;stroke:#002060;stroke-width:9.16666985;stroke-linejoin:round;stroke-miterlimit:10"
     inkscape:connector-curvature="0"
     id="path49"
     stroke-miterlimit="10"
     d="m 2706.5,619 c 0,-59.92 48.35,-108.5 108,-108.5 59.65,0 108,48.58 108,108.5 0,59.92 -48.35,108.5 -108,108.5 -59.65,0 -108,-48.58 -108,-108.5 z" />
  <path
     style="fill:#00b0f0;fill-opacity:0.4;fill-rule:evenodd;stroke:#002060;stroke-width:9.16666985;stroke-linejoin:round;stroke-miterlimit:10"
     inkscape:connector-curvature="0"
     id="path51"
     stroke-miterlimit="10"
     d="m 2922.5,443 c 0,-59.92 48.58,-108.5 108.5,-108.5 59.92,0 108.5,48.58 108.5,108.5 0,59.92 -48.58,108.5 -108.5,108.5 -59.92,0 -108.5,-48.58 -108.5,-108.5 z" />
  <path
     style="fill:#00b0f0;fill-opacity:0.4;fill-rule:evenodd;stroke:#002060;stroke-width:9.16666985;stroke-linejoin:round;stroke-miterlimit:10"
     inkscape:connector-curvature="0"
     id="path53"
     stroke-miterlimit="10"
     d="m 3355.5,767.5 c 0,-59.65 48.58,-108 108.5,-108 59.92,0 108.5,48.35 108.5,108 0,59.65 -48.58,108 -108.5,108 -59.92,0 -108.5,-48.35 -108.5,-108 z" />
  <path
     style="fill:#00b0f0;fill-opacity:0.4;fill-rule:evenodd;stroke:#002060;stroke-width:9.16666985;stroke-linejoin:round;stroke-miterlimit:10"
     inkscape:connector-curvature="0"
     id="path55"
     stroke-miterlimit="10"
     d="m 3031.5,1957.5 c 0,-59.65 48.35,-108 108,-108 59.65,0 108,48.35 108,108 0,59.65 -48.35,108 -108,108 -59.65,0 -108,-48.35 -108,-108 z" />
  <path
     inkscape:connector-curvature="0"
     id="path57"
     d="m 2814.7813,732.49315 -0.9088,228.08385 3.4375,0.013 0.9087,-228.08315 z M 2801.8596,955.945 2815.5,983.5 l 13.8594,-27.445 z" />
  <path
     inkscape:connector-curvature="0"
     id="path59"
     d="M 3029.8335,551.07951 2926.44,960.859 l 3.333,0.841 103.3935,-409.77951 z M 2915.896,953.472 l 6.604,30.028 20.06,-23.3 z" />
  <path
     inkscape:connector-curvature="0"
     id="path61"
     d="m 3462.7314,873.9627 -195.5024,97.7513 1.537,3.0746 195.5026,-97.7513 z M 3265.948,958.9032 3247.5,983.5 h 30.746 z" />
  <path
     inkscape:connector-curvature="0"
     id="path63"
     d="m 2855.03,1286.72 275.61,541.58 -3.06,1.56 -275.61,-541.58 z m 284.25,532.03 0.22,30.75 -24.73,-18.27 z" />
  <rect
     style="fill:#92d050;stroke:#00b050;stroke-width:9.16666985;stroke-miterlimit:8"
     id="rect65"
     stroke-miterlimit="8"
     height="481"
     width="691"
     y="1323.5"
     x="3259.5" />
  <path
     inkscape:connector-curvature="0"
     id="path73"
     d="m 876.58,1952.92 h 9.17 v 9.16 h -9.17 z m 18.34,0 h 9.16 v 9.16 h -9.16 z m 18.33,0 h 9.17 v 9.16 h -9.17 z m 18.33,0 h 9.17 v 9.16 h -9.17 z m 18.34,0 h 9.16 v 9.16 h -9.16 z m 18.33,0 h 9.17 v 9.16 h -9.17 z m 18.33,0 h 9.17 v 9.16 h -9.17 z m 18.34,0 h 9.16 v 9.16 h -9.16 z m 18.33,0 h 9.17 v 9.16 h -9.17 z m 18.33,0 h 9.17 v 9.16 h -9.17 z m 18.34,0 h 9.16 v 9.16 h -9.16 z m 18.33,0 h 9.17 v 9.16 h -9.17 z m 18.33,0 h 9.17 v 9.16 h -9.17 z m 18.34,0 h 9.16 v 9.16 h -9.16 z m 18.33,0 h 9.17 v 9.16 h -9.17 z m 18.33,0 h 9.17 v 9.16 h -9.17 z m 18.34,0 h 9.16 v 9.16 h -9.16 z m 18.33,0 h 9.17 v 9.16 h -9.17 z m 18.33,0 h 9.17 v 9.16 h -9.17 z m 18.34,0 h 9.16 v 9.16 h -9.16 z m 18.33,0 h 9.17 v 9.16 h -9.17 z m 18.33,0 h 9.17 v 9.16 h -9.17 z m 18.34,0 h 9.16 v 9.16 h -9.16 z m 18.33,0 h 9.17 v 9.16 h -9.17 z m 18.33,0 h 9.17 v 9.16 h -9.17 z m 18.34,0 h 9.16 v 9.16 h -9.16 z m 18.33,0 h 9.17 v 9.16 h -9.17 z m 18.33,0 h 9.17 v 9.16 h -9.17 z m 18.34,0 h 9.16 v 9.16 h -9.16 z m 18.33,0 h 9.17 v 9.16 h -9.17 z m 18.33,0 h 9.17 v 9.16 h -9.17 z m 18.34,0 h 9.16 v 9.16 h -9.16 z m 18.33,0 h 9.17 v 9.16 h -9.17 z m 18.33,0 h 9.17 v 9.16 h -9.17 z m 18.34,0 h 9.16 v 9.16 h -9.16 z m 18.33,0 h 9.17 v 9.16 h -9.17 z m 18.33,0 h 9.17 v 9.16 h -9.17 z m 18.34,0 h 9.16 v 9.16 h -9.16 z m 18.33,0 h 9.17 v 9.16 h -9.17 z m 18.33,0 h 9.17 v 9.16 h -9.17 z m 18.34,0 h 9.16 v 9.16 h -9.16 z m 18.33,0 h 9.17 v 9.16 h -9.17 z m 18.33,0 h 9.17 v 9.16 h -9.17 z m 18.34,0 h 9.16 v 9.16 h -9.16 z m 18.33,0 h 9.17 v 9.16 h -9.17 z m 18.33,0 h 9.17 v 9.16 h -9.17 z m 18.34,0 h 9.16 v 9.16 h -9.16 z m 18.33,0 h 9.17 v 9.16 h -9.17 z m 18.33,0 h 9.17 v 9.16 h -9.17 z m 18.34,0 h 9.16 v 9.16 h -9.16 z m 18.33,0 h 9.17 v 9.16 h -9.17 z m 18.33,0 h 9.17 v 9.16 h -9.17 z m 18.34,0 h 9.16 v 9.16 h -9.16 z m 18.33,0 h 9.17 v 9.16 h -9.17 z m 18.33,0 h 9.17 v 9.16 h -9.17 z m 18.34,0 h 9.16 v 9.16 h -9.16 z m 18.33,0 h 9.17 v 9.16 h -9.17 z m 18.33,0 h 9.17 v 9.16 h -9.17 z m 18.34,0 h 9.16 v 9.16 h -9.16 z m 18.33,0 h 9.17 v 9.16 h -9.17 z m 18.33,0 h 9.17 v 9.16 h -9.17 z m 18.34,0 h 9.16 v 9.16 h -9.16 z m 18.33,0 h 9.17 v 9.16 h -9.17 z m 18.33,0 h 9.17 v 9.16 h -9.17 z m 18.34,0 h 9.16 v 9.16 h -9.16 z m 18.33,0 h 9.17 v 9.16 h -9.17 z m 18.33,0 h 9.17 v 9.16 h -9.17 z m 18.34,0 h 9.16 v 9.16 h -9.16 z m 18.33,0 h 9.17 v 9.16 h -9.17 z m 18.33,0 h 9.17 v 9.16 h -9.17 z m 18.34,0 h 9.16 v 9.16 h -9.16 z m 18.33,0 h 9.17 v 9.16 h -9.17 z m 18.33,0 h 9.17 v 9.16 h -9.17 z m 18.34,0 h 9.16 v 9.16 h -9.16 z m 18.33,0 h 9.17 v 9.16 h -9.17 z m 18.33,0 h 9.17 v 9.16 h -9.17 z m 18.34,0 h 9.16 v 9.16 h -9.16 z m 18.33,0 h 9.17 v 9.16 h -9.17 z m 18.33,0 h 9.17 v 9.16 h -9.17 z m 18.34,0 h 9.16 v 9.16 h -9.16 z m 18.33,0 h 9.17 v 9.16 h -9.17 z m 18.33,0 h 9.17 v 9.16 h -9.17 z m 18.34,0 h 9.16 v 9.16 h -9.16 z m 18.33,0 h 9.17 v 9.16 h -9.17 z m 18.33,0 h 9.17 v 9.16 h -9.17 z m 18.34,0 h 9.16 v 9.16 h -9.16 z m 18.33,0 h 9.17 v 9.16 h -9.17 z m 18.33,0 h 9.17 v 9.16 h -9.17 z m 18.34,0 h 9.16 v 9.16 h -9.16 z m 18.33,0 h 9.17 v 9.16 h -9.17 z m 18.33,0 h 9.17 v 9.16 h -9.17 z m 18.34,0 h 9.16 v 9.16 h -9.16 z m 18.33,0 h 9.17 v 9.16 h -9.17 z m 18.33,0 h 9.17 v 9.16 h -9.17 z m 18.34,0 h 9.16 v 9.16 h -9.16 z m 18.33,0 h 9.17 v 9.16 h -9.17 z m 18.33,0 h 9.17 v 9.16 h -9.17 z m 18.34,0 h 9.16 v 9.16 h -9.16 z m 18.33,0 h 9.17 v 9.16 h -9.17 z m 18.33,0 h 9.17 v 9.16 h -9.17 z m 18.34,0 h 9.16 v 9.16 h -9.16 z m 18.33,0 h 9.17 v 9.16 h -9.17 z m 18.33,0 h 9.17 v 9.16 h -9.17 z m 18.34,0 h 9.16 v 9.16 h -9.16 z m 18.33,0 h 9.17 v 9.16 h -9.17 z m 18.33,0 h 9.17 v 9.16 h -9.17 z m 18.34,0 h 9.16 v 9.16 h -9.16 z m 18.33,0 h 9.17 v 9.16 h -9.17 z m 18.33,0 h 9.17 v 9.16 h -9.17 z m 18.34,0 h 9.16 v 9.16 h -9.16 z m 18.33,0 h 9.17 v 9.16 h -9.17 z m 18.33,0 h 9.17 v 9.16 h -9.17 z m 18.34,0 h 9.16 v 9.16 h -9.16 z m 18.33,0 h 9.17 v 9.16 h -9.17 z m 18.33,0 h 9.17 v 9.16 h -9.17 z m 18.34,0 h 9.16 v 9.16 h -9.16 z m 18.33,0 h 9.17 v 9.16 h -9.17 z m -2101.48,24.58 -34.29,-20 34.29,-20 c 2.18,-1.28 4.99,-0.54 6.26,1.65 1.28,2.19 0.54,4.99 -1.65,6.27 l -27.5,16.04 v -7.92 l 27.5,16.04 c 2.19,1.28 2.93,4.08 1.65,6.27 -1.27,2.19 -4.08,2.93 -6.26,1.65 z m 2094.46,-40 34.29,20 -34.29,20 c -2.18,1.28 -4.99,0.54 -6.26,-1.65 -1.28,-2.18 -0.54,-4.99 1.65,-6.27 l 27.5,-16.04 v 7.92 l -27.5,-16.04 c -2.19,-1.28 -2.93,-4.08 -1.65,-6.27 1.27,-2.19 4.08,-2.93 6.26,-1.65 z" />
  <path
     inkscape:connector-curvature="0"
     id="path75"
     d="m 866.58,1134.92 h 9.17 v 9.16 h -9.17 z m 18.34,0 h 9.16 v 9.16 h -9.16 z m 18.33,0 h 9.17 v 9.16 h -9.17 z m 18.33,0 h 9.17 v 9.16 h -9.17 z m 18.34,0 h 9.16 v 9.16 h -9.16 z m 18.33,0 h 9.17 v 9.16 h -9.17 z m 18.33,0 h 9.17 v 9.16 h -9.17 z m 18.34,0 h 9.16 v 9.16 h -9.16 z m 18.33,0 h 9.17 v 9.16 h -9.17 z m 18.33,0 h 9.17 v 9.16 h -9.17 z m 18.34,0 h 9.16 v 9.16 h -9.16 z m 18.33,0 h 9.17 v 9.16 h -9.17 z m 18.33,0 h 9.17 v 9.16 h -9.17 z m 18.34,0 h 9.16 v 9.16 h -9.16 z m 18.33,0 h 9.17 v 9.16 h -9.17 z m 18.33,0 h 9.17 v 9.16 h -9.17 z m 18.34,0 h 9.16 v 9.16 h -9.16 z m 18.33,0 h 9.17 v 9.16 h -9.17 z m 18.33,0 h 9.17 v 9.16 h -9.17 z m 18.34,0 h 9.16 v 9.16 h -9.16 z m 18.33,0 h 9.17 v 9.16 h -9.17 z m 18.33,0 h 9.17 v 9.16 h -9.17 z m 18.34,0 h 9.16 v 9.16 h -9.16 z m 18.33,0 h 9.17 v 9.16 h -9.17 z m 18.33,0 h 9.17 v 9.16 h -9.17 z m 18.34,0 h 9.16 v 9.16 h -9.16 z m 18.33,0 h 9.17 v 9.16 h -9.17 z m 18.33,0 h 9.17 v 9.16 h -9.17 z m 18.34,0 h 9.16 v 9.16 h -9.16 z m 18.33,0 h 9.17 v 9.16 h -9.17 z m 18.33,0 h 9.17 v 9.16 h -9.17 z m 18.34,0 h 9.16 v 9.16 h -9.16 z m 18.33,0 h 9.17 v 9.16 h -9.17 z m 18.33,0 h 9.17 v 9.16 h -9.17 z m 18.34,0 h 9.16 v 9.16 h -9.16 z m 18.33,0 h 9.17 v 9.16 h -9.17 z m 18.33,0 h 9.17 v 9.16 h -9.17 z m 18.34,0 h 9.16 v 9.16 h -9.16 z m 18.33,0 h 9.17 v 9.16 h -9.17 z m 18.33,0 h 9.17 v 9.16 h -9.17 z m 18.34,0 h 9.16 v 9.16 h -9.16 z m 18.33,0 h 9.17 v 9.16 h -9.17 z m 18.33,0 h 9.17 v 9.16 h -9.17 z m 18.34,0 h 9.16 v 9.16 h -9.16 z m 18.33,0 h 9.17 v 9.16 h -9.17 z m 18.33,0 h 9.17 v 9.16 h -9.17 z m 18.34,0 h 9.16 v 9.16 h -9.16 z m 18.33,0 h 9.17 v 9.16 h -9.17 z m 18.33,0 h 9.17 v 9.16 h -9.17 z m 18.34,0 h 9.16 v 9.16 h -9.16 z m 18.33,0 h 9.17 v 9.16 h -9.17 z m 18.33,0 h 9.17 v 9.16 h -9.17 z m 18.34,0 h 9.16 v 9.16 h -9.16 z m 18.33,0 h 9.17 v 9.16 h -9.17 z m 18.33,0 h 9.17 v 9.16 h -9.17 z m 18.34,0 h 9.16 v 9.16 h -9.16 z m 18.33,0 h 9.17 v 9.16 h -9.17 z m 18.33,0 h 9.17 v 9.16 h -9.17 z m 18.34,0 h 9.16 v 9.16 h -9.16 z m 18.33,0 h 9.17 v 9.16 h -9.17 z m 18.33,0 h 9.17 v 9.16 h -9.17 z m 18.34,0 h 9.16 v 9.16 h -9.16 z m 18.33,0 h 9.17 v 9.16 h -9.17 z m 18.33,0 h 9.17 v 9.16 h -9.17 z m 18.34,0 h 9.16 v 9.16 h -9.16 z m 18.33,0 h 9.17 v 9.16 h -9.17 z m 18.33,0 h 9.17 v 9.16 h -9.17 z m 18.34,0 h 9.16 v 9.16 h -9.16 z m 18.33,0 h 9.17 v 9.16 h -9.17 z m 18.33,0 h 9.17 v 9.16 h -9.17 z m 18.34,0 h 9.16 v 9.16 h -9.16 z m 18.33,0 h 9.17 v 9.16 h -9.17 z m 18.33,0 h 9.17 v 9.16 h -9.17 z m 18.34,0 h 9.16 v 9.16 h -9.16 z m 18.33,0 h 9.17 v 9.16 h -9.17 z m 18.33,0 h 9.17 v 9.16 h -9.17 z m 18.34,0 h 9.16 v 9.16 h -9.16 z m 18.33,0 h 9.17 v 9.16 h -9.17 z m 18.33,0 h 9.17 v 9.16 h -9.17 z m 18.34,0 h 9.16 v 9.16 h -9.16 z m 18.33,0 h 9.17 v 9.16 h -9.17 z m 18.33,0 h 9.17 v 9.16 h -9.17 z m 18.34,0 h 9.16 v 9.16 h -9.16 z m 18.33,0 h 9.17 v 9.16 h -9.17 z m 18.33,0 h 9.17 v 9.16 h -9.17 z m 18.34,0 h 9.16 v 9.16 h -9.16 z m -1533.15,24.58 -34.29,-20 34.29,-20 c 2.18,-1.28 4.99,-0.54 6.26,1.65 1.28,2.19 0.54,4.99 -1.65,6.27 l -27.5,16.04 v -7.92 l 27.5,16.04 c 2.19,1.28 2.93,4.08 1.65,6.27 -1.27,2.19 -4.08,2.93 -6.26,1.65 z m 1520.46,-40 34.29,20 -34.29,20 c -2.18,1.28 -4.99,0.54 -6.26,-1.65 -1.28,-2.18 -0.54,-4.99 1.65,-6.27 l 27.5,-16.04 v 7.92 l -27.5,-16.04 c -2.19,-1.28 -2.93,-4.08 -1.65,-6.27 1.27,-2.19 4.08,-2.93 6.26,-1.65 z" />
  <path
     inkscape:connector-curvature="0"
     id="path77"
     d="m 1200.58,762.92 h 9.17 v 9.16 h -9.17 z m 18.34,0 h 9.16 v 9.16 h -9.16 z m 18.33,0 h 9.17 v 9.16 h -9.17 z m 18.33,0 h 9.17 v 9.16 h -9.17 z m 18.34,0 h 9.16 v 9.16 h -9.16 z m 18.33,0 h 9.17 v 9.16 h -9.17 z m 18.33,0 h 9.17 v 9.16 h -9.17 z m 18.34,0 h 9.16 v 9.16 h -9.16 z m 18.33,0 h 9.17 v 9.16 h -9.17 z m 18.33,0 h 9.17 v 9.16 h -9.17 z m 18.34,0 h 9.16 v 9.16 h -9.16 z m 18.33,0 h 9.17 v 9.16 h -9.17 z m 18.33,0 h 9.17 v 9.16 h -9.17 z m 18.34,0 h 9.16 v 9.16 h -9.16 z m 18.33,0 h 9.17 v 9.16 h -9.17 z m 18.33,0 h 9.17 v 9.16 h -9.17 z m 18.34,0 h 9.16 v 9.16 h -9.16 z m 18.33,0 h 9.17 v 9.16 h -9.17 z m 18.33,0 h 9.17 v 9.16 h -9.17 z m 18.34,0 h 9.16 v 9.16 h -9.16 z m 18.33,0 h 9.17 v 9.16 h -9.17 z m 18.33,0 h 9.17 v 9.16 h -9.17 z m 18.34,0 h 9.16 v 9.16 h -9.16 z m 18.33,0 h 9.17 v 9.16 h -9.17 z m 18.33,0 h 9.17 v 9.16 h -9.17 z m 18.34,0 h 9.16 v 9.16 h -9.16 z m 18.33,0 h 9.17 v 9.16 h -9.17 z m 18.33,0 h 9.17 v 9.16 h -9.17 z m 18.34,0 h 9.16 v 9.16 h -9.16 z m 18.33,0 h 9.17 v 9.16 h -9.17 z m 18.33,0 h 9.17 v 9.16 h -9.17 z m 18.34,0 h 9.16 v 9.16 h -9.16 z m 18.33,0 h 9.17 v 9.16 h -9.17 z m 18.33,0 h 9.17 v 9.16 h -9.17 z m 18.34,0 h 9.16 v 9.16 h -9.16 z m 18.33,0 h 9.17 v 9.16 h -9.17 z m 18.33,0 h 9.17 v 9.16 h -9.17 z m 18.34,0 h 9.16 v 9.16 h -9.16 z m 18.33,0 h 9.17 v 9.16 h -9.17 z m 18.33,0 h 9.17 v 9.16 h -9.17 z m 18.34,0 h 9.16 v 9.16 h -9.16 z m 18.33,0 h 9.17 v 9.16 h -9.17 z m 18.33,0 h 9.17 v 9.16 h -9.17 z m 18.34,0 h 9.16 v 9.16 h -9.16 z m 18.33,0 h 9.17 v 9.16 h -9.17 z m 18.33,0 h 9.17 v 9.16 h -9.17 z m 18.34,0 h 9.16 v 9.16 h -9.16 z m 18.33,0 h 9.17 v 9.16 h -9.17 z m 18.33,0 h 9.17 v 9.16 h -9.17 z m 18.34,0 h 9.16 v 9.16 h -9.16 z m 18.33,0 h 9.17 v 9.16 h -9.17 z m 18.33,0 h 9.17 v 9.16 h -9.17 z m 18.34,0 h 9.16 v 9.16 h -9.16 z m 18.33,0 h 9.17 v 9.16 h -9.17 z m 18.33,0 h 9.17 v 9.16 h -9.17 z m 18.34,0 h 9.16 v 9.16 h -9.16 z m 18.33,0 h 9.17 v 9.16 h -9.17 z m 18.33,0 h 9.17 v 9.16 h -9.17 z m 18.34,0 h 9.16 v 9.16 h -9.16 z m 18.33,0 h 9.17 v 9.16 h -9.17 z m 18.33,0 h 9.17 v 9.16 h -9.17 z m 18.34,0 h 9.16 v 9.16 h -9.16 z m 18.33,0 h 9.17 v 9.16 h -9.17 z m 18.33,0 h 9.17 v 9.16 h -9.17 z m 18.34,0 h 9.16 v 9.16 h -9.16 z m 18.33,0 h 9.17 v 9.16 h -9.17 z m 18.33,0 h 9.17 v 9.16 h -9.17 z m 18.34,0 h 9.16 v 9.16 h -9.16 z m 18.33,0 h 9.17 v 9.16 h -9.17 z m 18.33,0 h 9.17 v 9.16 h -9.17 z m 18.34,0 h 9.16 v 9.16 h -9.16 z m 18.33,0 h 9.17 v 9.16 h -9.17 z m 18.33,0 h 9.17 v 9.16 h -9.17 z m 18.34,0 h 9.16 v 9.16 h -9.16 z m 18.33,0 h 9.17 v 9.16 h -9.17 z m 18.33,0 h 9.17 v 9.16 h -9.17 z m 18.34,0 h 9.16 v 9.16 h -9.16 z m 18.33,0 h 9.17 v 9.16 h -9.17 z m 18.33,0 h 9.17 v 9.16 h -9.17 z m 18.34,0 h 9.16 v 9.16 h -9.16 z m 18.33,0 h 9.17 v 9.16 h -9.17 z m 18.33,0 h 9.17 v 9.16 h -9.17 z m 18.34,0 h 9.16 v 9.16 h -9.16 z m 18.33,0 h 9.17 v 9.16 h -9.17 z m 18.33,0 h 9.17 v 9.16 h -9.17 z m 18.34,0 h 9.16 v 9.16 h -9.16 z m 18.33,0 h 9.17 v 9.16 h -9.17 z m 18.33,0 h 9.17 v 9.16 h -9.17 z m 18.34,0 h 9.16 v 9.16 h -9.16 z m 18.33,0 h 9.17 v 9.16 h -9.17 z m 18.33,0 h 9.17 v 9.16 h -9.17 z m 18.34,0 h 9.16 v 9.16 h -9.16 z m 18.33,0 h 9.17 v 9.16 h -9.17 z m 18.33,0 h 9.17 v 9.16 h -9.17 z m 18.34,0 h 9.16 v 9.16 h -9.16 z m 18.33,0 h 9.17 v 9.16 h -9.17 z m 18.33,0 h 9.17 v 9.16 h -9.17 z m 18.34,0 h 9.16 v 9.16 h -9.16 z m 18.33,0 h 9.17 v 9.16 h -9.17 z m 18.33,0 h 9.17 v 9.16 h -9.17 z m 18.34,0 h 9.16 v 9.16 h -9.16 z m 18.33,0 h 9.17 v 9.16 h -9.17 z m 18.33,0 h 9.17 v 9.16 h -9.17 z m 18.34,0 h 9.16 v 9.16 h -9.16 z m 18.33,0 h 9.17 v 9.16 h -9.17 z m 18.33,0 h 9.17 v 9.16 h -9.17 z m 18.34,0 h 9.16 v 9.16 h -9.16 z m 18.33,0 h 9.17 v 9.16 h -9.17 z m 18.33,0 h 9.17 v 9.16 h -9.17 z m 18.34,0 h 9.16 v 9.16 h -9.16 z m 18.33,0 h 9.17 v 9.16 h -9.17 z m 18.33,0 h 9.17 v 9.16 h -9.17 z m 18.34,0 h 9.16 v 9.16 h -9.16 z m 18.33,0 h 9.17 v 9.16 h -9.17 z m 18.33,0 h 9.17 v 9.16 h -9.17 z m 18.34,0 h 9.16 v 9.16 h -9.16 z m 18.33,0 h 9.17 v 9.16 h -9.17 z m 18.33,0 h 0.87 v 9.16 h -0.87 z m -2119.81,24.58 -34.29,-20 34.29,-20 c 2.18,-1.28 4.99,-0.54 6.26,1.65 1.28,2.19 0.54,4.99 -1.65,6.27 l -27.5,16.04 v -7.92 l 27.5,16.04 c 2.19,1.28 2.93,4.08 1.65,6.27 -1.27,2.19 -4.08,2.93 -6.26,1.65 z m 2095.46,-40 34.29,20 -34.29,20 c -2.18,1.28 -4.99,0.54 -6.26,-1.65 -1.28,-2.19 -0.54,-4.99 1.65,-6.27 l 27.5,-16.04 v 7.92 l -27.5,-16.04 c -2.19,-1.28 -2.93,-4.08 -1.65,-6.27 1.27,-2.19 4.08,-2.93 6.26,-1.65 z" />
  <path
     inkscape:connector-curvature="0"
     id="path79"
     d="m 767.58,437.92 h 9.17 v 9.16 h -9.17 z m 18.34,0 h 9.16 v 9.16 h -9.16 z m 18.33,0 h 9.17 v 9.16 h -9.17 z m 18.33,0 h 9.17 v 9.16 h -9.17 z m 18.34,0 h 9.16 v 9.16 h -9.16 z m 18.33,0 h 9.17 v 9.16 h -9.17 z m 18.33,0 h 9.17 v 9.16 h -9.17 z m 18.34,0 h 9.16 v 9.16 h -9.16 z m 18.33,0 h 9.17 v 9.16 h -9.17 z m 18.33,0 h 9.17 v 9.16 h -9.17 z m 18.34,0 h 9.16 v 9.16 h -9.16 z m 18.33,0 h 9.17 v 9.16 h -9.17 z m 18.33,0 h 9.17 v 9.16 h -9.17 z m 18.34,0 h 9.16 v 9.16 h -9.16 z m 18.33,0 h 9.17 v 9.16 h -9.17 z m 18.33,0 h 9.17 v 9.16 h -9.17 z m 18.34,0 h 9.16 v 9.16 h -9.16 z m 18.33,0 h 9.17 v 9.16 h -9.17 z m 18.33,0 h 9.17 v 9.16 h -9.17 z m 18.34,0 h 9.16 v 9.16 h -9.16 z m 18.33,0 h 9.17 v 9.16 h -9.17 z m 18.33,0 h 9.17 v 9.16 h -9.17 z m 18.34,0 h 9.16 v 9.16 h -9.16 z m 18.33,0 h 9.17 v 9.16 h -9.17 z m 18.33,0 h 9.17 v 9.16 h -9.17 z m 18.34,0 h 9.16 v 9.16 h -9.16 z m 18.33,0 h 9.17 v 9.16 h -9.17 z m 18.33,0 h 9.17 v 9.16 h -9.17 z m 18.34,0 h 9.16 v 9.16 h -9.16 z m 18.33,0 h 9.17 v 9.16 h -9.17 z m 18.33,0 h 9.17 v 9.16 h -9.17 z m 18.34,0 h 9.16 v 9.16 h -9.16 z m 18.33,0 h 9.17 v 9.16 h -9.17 z m 18.33,0 h 9.17 v 9.16 h -9.17 z m 18.34,0 h 9.16 v 9.16 h -9.16 z m 18.33,0 h 9.17 v 9.16 h -9.17 z m 18.33,0 h 9.17 v 9.16 h -9.17 z m 18.34,0 h 9.16 v 9.16 h -9.16 z m 18.33,0 h 9.17 v 9.16 h -9.17 z m 18.33,0 h 9.17 v 9.16 h -9.17 z m 18.34,0 h 9.16 v 9.16 h -9.16 z m 18.33,0 h 9.17 v 9.16 h -9.17 z m 18.33,0 h 9.17 v 9.16 h -9.17 z m 18.34,0 h 9.16 v 9.16 h -9.16 z m 18.33,0 h 9.17 v 9.16 h -9.17 z m 18.33,0 h 9.17 v 9.16 h -9.17 z m 18.34,0 h 9.16 v 9.16 h -9.16 z m 18.33,0 h 9.17 v 9.16 h -9.17 z m 18.33,0 h 9.17 v 9.16 h -9.17 z m 18.34,0 h 9.16 v 9.16 h -9.16 z m 18.33,0 h 9.17 v 9.16 h -9.17 z m 18.33,0 h 9.17 v 9.16 h -9.17 z m 18.34,0 h 9.16 v 9.16 h -9.16 z m 18.33,0 h 9.17 v 9.16 h -9.17 z m 18.33,0 h 9.17 v 9.16 h -9.17 z m 18.34,0 h 9.16 v 9.16 h -9.16 z m 18.33,0 h 9.17 v 9.16 h -9.17 z m 18.33,0 h 9.17 v 9.16 h -9.17 z m 18.34,0 h 9.16 v 9.16 h -9.16 z m 18.33,0 h 9.17 v 9.16 h -9.17 z m 18.33,0 h 9.17 v 9.16 h -9.17 z m 18.34,0 h 9.16 v 9.16 h -9.16 z m 18.33,0 h 9.17 v 9.16 h -9.17 z m 18.33,0 h 9.17 v 9.16 h -9.17 z m 18.34,0 h 9.16 v 9.16 h -9.16 z m 18.33,0 h 9.17 v 9.16 h -9.17 z m 18.33,0 h 9.17 v 9.16 h -9.17 z m 18.34,0 h 9.16 v 9.16 h -9.16 z m 18.33,0 h 9.17 v 9.16 h -9.17 z m 18.33,0 h 9.17 v 9.16 h -9.17 z m 18.34,0 h 9.16 v 9.16 h -9.16 z m 18.33,0 h 9.17 v 9.16 h -9.17 z m 18.33,0 h 9.17 v 9.16 h -9.17 z m 18.34,0 h 9.16 v 9.16 h -9.16 z m 18.33,0 h 9.17 v 9.16 h -9.17 z m 18.33,0 h 9.17 v 9.16 h -9.17 z m 18.34,0 h 9.16 v 9.16 h -9.16 z m 18.33,0 h 9.17 v 9.16 h -9.17 z m 18.33,0 h 9.17 v 9.16 h -9.17 z m 18.34,0 h 9.16 v 9.16 h -9.16 z m 18.33,0 h 9.17 v 9.16 h -9.17 z m 18.33,0 h 9.17 v 9.16 h -9.17 z m 18.34,0 h 9.16 v 9.16 h -9.16 z m 18.33,0 h 9.17 v 9.16 h -9.17 z m 18.33,0 h 9.17 v 9.16 h -9.17 z m 18.34,0 h 9.16 v 9.16 h -9.16 z m 18.33,0 h 9.17 v 9.16 h -9.17 z m 18.33,0 h 9.17 v 9.16 h -9.17 z m 18.34,0 h 9.16 v 9.16 h -9.16 z m 18.33,0 h 9.17 v 9.16 h -9.17 z m 18.33,0 h 9.17 v 9.16 h -9.17 z m 18.34,0 h 9.16 v 9.16 h -9.16 z m 18.33,0 h 9.17 v 9.16 h -9.17 z m 18.33,0 h 9.17 v 9.16 h -9.17 z m 18.34,0 h 9.16 v 9.16 h -9.16 z m 18.33,0 h 9.17 v 9.16 h -9.17 z m 18.33,0 h 9.17 v 9.16 h -9.17 z m 18.34,0 h 9.16 v 9.16 h -9.16 z m 18.33,0 h 9.17 v 9.16 h -9.17 z m 18.33,0 h 9.17 v 9.16 h -9.17 z m 18.34,0 h 9.16 v 9.16 h -9.16 z m 18.33,0 h 9.17 v 9.16 h -9.17 z m 18.33,0 h 9.17 v 9.16 h -9.17 z m 18.34,0 h 9.16 v 9.16 h -9.16 z m 18.33,0 h 9.17 v 9.16 h -9.17 z m 18.33,0 h 9.17 v 9.16 h -9.17 z m 18.34,0 h 9.16 v 9.16 h -9.16 z m 18.33,0 h 9.17 v 9.16 h -9.17 z m 18.33,0 h 9.17 v 9.16 h -9.17 z m 18.34,0 h 9.16 v 9.16 h -9.16 z m 18.33,0 h 9.17 v 9.16 h -9.17 z m 18.33,0 h 9.17 v 9.16 h -9.17 z m 18.34,0 h 9.16 v 9.16 h -9.16 z m 18.33,0 h 9.17 v 9.16 h -9.17 z m 18.33,0 h 9.17 v 9.16 h -9.17 z m 18.34,0 h 9.16 v 9.16 h -9.16 z m 18.33,0 h 9.17 v 9.16 h -9.17 z m 18.33,0 h 0.87 v 9.16 h -0.87 z m -2119.81,24.58 -34.29,-20 34.29,-20 c 2.18,-1.28 4.99,-0.54 6.26,1.65 1.28,2.19 0.54,4.99 -1.65,6.27 l -27.5,16.04 v -7.92 l 27.5,16.04 c 2.19,1.28 2.93,4.08 1.65,6.27 -1.27,2.19 -4.08,2.93 -6.26,1.65 z m 2095.46,-40 34.29,20 -34.29,20 c -2.18,1.28 -4.99,0.54 -6.26,-1.65 -1.28,-2.19 -0.54,-4.99 1.65,-6.27 l 27.5,-16.04 v 7.92 l -27.5,-16.04 c -2.19,-1.28 -2.93,-4.08 -1.65,-6.27 1.27,-2.19 4.08,-2.93 6.26,-1.65 z" />
  <rect
     style="fill:#92d050;stroke:#00b050;stroke-width:9.16666985;stroke-miterlimit:8"
     id="rect81"
     stroke-miterlimit="8"
     height="327"
     width="432"
     y="1403.5"
     x="44.5" />
  <text
     style="font-weight:700;font-size:110px;font-family:'Arial Nova Light', 'Arial Nova Light_MSFontService', sans-serif;fill:#7030a0"
     id="text85"
     font-size="110"
     font-weight="700"
     x="99.897003"
     y="1515">fyzické <tspan
   style="font-size:110px"
   id="tspan83"
   y="1647"
   x="116.5116"
   font-size="110">zdroje</tspan>
</text>
  <path
     inkscape:connector-curvature="0"
     id="path87"
     d="m 551.582,616.92 h 9.167 v 9.16 h -9.167 z m 18.334,0 h 9.166 v 9.16 h -9.166 z m 18.333,0 h 9.167 v 9.16 h -9.167 z m 18.333,0 h 9.167 v 9.16 h -9.167 z m 18.334,0 h 9.166 v 9.16 h -9.166 z m 18.333,0 h 9.167 v 9.16 h -9.167 z m 18.331,0 h 9.17 v 9.16 h -9.17 z m 18.34,0 h 9.16 v 9.16 h -9.16 z m 18.33,0 h 9.17 v 9.16 h -9.17 z m 18.33,0 h 9.17 v 9.16 h -9.17 z m 18.34,0 h 9.16 v 9.16 h -9.16 z m 18.33,0 h 9.17 v 9.16 h -9.17 z m 18.33,0 h 9.17 v 9.16 h -9.17 z m 18.34,0 h 9.16 v 9.16 h -9.16 z m 18.33,0 h 9.17 v 9.16 h -9.17 z m 18.33,0 h 9.17 v 9.16 h -9.17 z m 18.34,0 h 9.16 v 9.16 h -9.16 z m 18.33,0 h 9.17 v 9.16 h -9.17 z m 18.33,0 h 9.17 v 9.16 h -9.17 z m 18.34,0 h 9.16 v 9.16 h -9.16 z m 18.33,0 h 9.17 v 9.16 h -9.17 z m 18.33,0 h 9.17 v 9.16 h -9.17 z m 18.34,0 h 9.16 v 9.16 h -9.16 z m 18.33,0 h 9.17 v 9.16 h -9.17 z m 18.33,0 h 9.17 v 9.16 h -9.17 z m 18.34,0 h 9.16 v 9.16 h -9.16 z m 18.33,0 h 9.17 v 9.16 h -9.17 z m 18.33,0 h 9.17 v 9.16 h -9.17 z m 18.34,0 h 9.16 v 9.16 h -9.16 z m 18.33,0 h 9.17 v 9.16 h -9.17 z m 18.33,0 h 9.17 v 9.16 h -9.17 z m 18.34,0 h 9.16 v 9.16 h -9.16 z m 18.33,0 h 9.17 v 9.16 h -9.17 z m 18.33,0 h 9.17 v 9.16 h -9.17 z m 18.34,0 h 9.16 v 9.16 h -9.16 z m 18.33,0 h 9.17 v 9.16 h -9.17 z m 18.33,0 h 9.17 v 9.16 h -9.17 z m 18.34,0 h 9.16 v 9.16 h -9.16 z m 18.33,0 h 9.17 v 9.16 h -9.17 z m 18.33,0 h 9.17 v 9.16 h -9.17 z m 18.34,0 h 9.16 v 9.16 h -9.16 z m 18.33,0 h 9.17 v 9.16 h -9.17 z m 18.33,0 h 9.17 v 9.16 h -9.17 z m 18.34,0 h 9.16 v 9.16 h -9.16 z m 18.33,0 h 9.17 v 9.16 h -9.17 z m 18.33,0 h 9.17 v 9.16 h -9.17 z m 18.34,0 h 9.16 v 9.16 h -9.16 z m 18.33,0 h 9.17 v 9.16 h -9.17 z m 18.33,0 h 9.17 v 9.16 h -9.17 z m 18.34,0 h 9.16 v 9.16 h -9.16 z m 18.33,0 h 9.17 v 9.16 h -9.17 z m 18.33,0 h 9.17 v 9.16 h -9.17 z m 18.34,0 h 9.16 v 9.16 h -9.16 z m 18.33,0 h 9.17 v 9.16 h -9.17 z m 18.33,0 h 9.17 v 9.16 h -9.17 z m 18.34,0 h 9.16 v 9.16 h -9.16 z m 18.33,0 h 9.17 v 9.16 h -9.17 z m 18.33,0 h 9.17 v 9.16 h -9.17 z m 18.34,0 h 9.16 v 9.16 h -9.16 z m 18.33,0 h 9.17 v 9.16 h -9.17 z m 18.33,0 h 9.17 v 9.16 h -9.17 z m 18.34,0 h 9.16 v 9.16 h -9.16 z m 18.33,0 h 9.17 v 9.16 h -9.17 z m 18.33,0 h 9.17 v 9.16 h -9.17 z m 18.34,0 h 9.16 v 9.16 h -9.16 z m 18.33,0 h 9.17 v 9.16 h -9.17 z m 18.33,0 h 9.17 v 9.16 h -9.17 z m 18.34,0 h 9.16 v 9.16 h -9.16 z m 18.33,0 h 9.17 v 9.16 h -9.17 z m 18.33,0 h 9.17 v 9.16 h -9.17 z m 18.34,0 h 9.16 v 9.16 h -9.16 z m 18.33,0 h 9.17 v 9.16 h -9.17 z m 18.33,0 h 9.17 v 9.16 h -9.17 z m 18.34,0 h 9.16 v 9.16 h -9.16 z m 18.33,0 h 9.17 v 9.16 h -9.17 z m 18.33,0 h 9.17 v 9.16 h -9.17 z m 18.34,0 h 9.16 v 9.16 h -9.16 z m 18.33,0 h 9.17 v 9.16 h -9.17 z m 18.33,0 h 9.17 v 9.16 h -9.17 z m 18.34,0 h 9.16 v 9.16 h -9.16 z m 18.33,0 h 9.17 v 9.16 h -9.17 z m 18.33,0 h 9.17 v 9.16 h -9.17 z m 18.34,0 h 9.16 v 9.16 h -9.16 z m 18.33,0 h 9.17 v 9.16 h -9.17 z m 18.33,0 h 9.17 v 9.16 h -9.17 z m 18.34,0 h 9.16 v 9.16 h -9.16 z m 18.33,0 h 9.17 v 9.16 h -9.17 z m 18.33,0 h 9.17 v 9.16 h -9.17 z m 18.34,0 h 9.16 v 9.16 h -9.16 z m 18.33,0 h 9.17 v 9.16 h -9.17 z m 18.33,0 h 9.17 v 9.16 h -9.17 z m 18.34,0 h 9.16 v 9.16 h -9.16 z m 18.33,0 h 9.17 v 9.16 h -9.17 z m 18.33,0 h 9.17 v 9.16 h -9.17 z m 18.34,0 h 9.16 v 9.16 h -9.16 z m 18.33,0 h 9.17 v 9.16 h -9.17 z m 18.33,0 h 9.17 v 9.16 h -9.17 z m 18.34,0 h 9.16 v 9.16 h -9.16 z m 18.33,0 h 9.17 v 9.16 h -9.17 z m 18.33,0 h 9.17 v 9.16 h -9.17 z m 18.34,0 h 9.16 v 9.16 h -9.16 z m 18.33,0 h 9.17 v 9.16 h -9.17 z m 18.33,0 h 9.17 v 9.16 h -9.17 z m 18.34,0 h 9.16 v 9.16 h -9.16 z m 18.33,0 h 9.17 v 9.16 h -9.17 z m 18.33,0 h 9.17 v 9.16 h -9.17 z m 18.34,0 h 9.16 v 9.16 h -9.16 z m 18.33,0 h 9.17 v 9.16 h -9.17 z m 18.33,0 h 9.17 v 9.16 h -9.17 z m 18.34,0 h 9.16 v 9.16 h -9.16 z m 18.33,0 h 9.17 v 9.16 h -9.17 z m 18.33,0 h 9.17 v 9.16 h -9.17 z m 18.34,0 h 9.16 v 9.16 h -9.16 z m 18.33,0 h 9.17 v 9.16 h -9.17 z m 18.33,0 h 9.17 v 9.16 h -9.17 z m 18.34,0 h 9.16 v 9.16 h -9.16 z m 18.33,0 h 9.17 v 9.16 h -9.17 z m 18.33,0 h 0.87 v 9.16 h -0.87 z m -2119.814,24.58 -34.287,-20 34.287,-20 c 2.186,-1.28 4.993,-0.54 6.268,1.65 1.276,2.19 0.537,4.99 -1.65,6.27 l -27.5,16.04 v -7.92 l 27.5,16.04 c 2.187,1.28 2.926,4.08 1.65,6.27 -1.275,2.19 -4.082,2.93 -6.268,1.65 z m 2095.464,-40 34.29,20 -34.29,20 c -2.18,1.28 -4.99,0.54 -6.26,-1.65 -1.28,-2.18 -0.54,-4.99 1.65,-6.27 l 27.5,-16.04 v 7.92 l -27.5,-16.04 c -2.19,-1.28 -2.93,-4.08 -1.65,-6.27 1.27,-2.19 4.08,-2.93 6.26,-1.65 z" />
  <path
     style="fill:#00882b;fill-rule:evenodd;stroke:#7030a0;stroke-width:9.16666985;stroke-linejoin:round;stroke-miterlimit:10"
     inkscape:connector-curvature="0"
     id="path89"
     stroke-miterlimit="10"
     d="m 1411.5,1527.5 240,-240 v 120 h 740 v -120 l 240,240 -240,240 v -120 h -740 v 120 z" />
  <text
     style="font-style:normal;font-variant:normal;font-weight:normal;font-stretch:normal;font-size:92.15812683px;font-family:Arial;-inkscape-font-specification:'Arial, Normal';font-variant-ligatures:normal;font-variant-caps:normal;font-variant-numeric:normal;font-feature-settings:normal;text-align:start;writing-mode:lr-tb;text-anchor:start;fill:#ffffff;stroke-width:0.99999994"
     id="text93"
     font-size="110"
     font-weight="300"
     x="1677.5858"
     y="1556.3434">
    <tspan
       sodipodi:role="line"
       id="tspan966"
       x="1677.5858"
       y="1556.3434"
       style="stroke-width:0.99999994">izomorfismus φ</tspan>
  </text>
  <text
     xml:space="preserve"
     style="font-style:normal;font-variant:normal;font-weight:normal;font-stretch:normal;font-size:96px;line-height:125%;font-family:Arial;-inkscape-font-specification:'Arial, Normal';font-variant-ligatures:normal;font-variant-caps:normal;font-variant-numeric:normal;font-feature-settings:normal;text-align:start;letter-spacing:0px;word-spacing:0px;writing-mode:lr-tb;text-anchor:start;fill:#000000;fill-opacity:1;stroke:none;stroke-width:1px;stroke-linecap:butt;stroke-linejoin:miter;stroke-opacity:1"
     x="3284.231"
     y="1438.9672"
     id="text970"><tspan
       sodipodi:role="line"
       id="tspan978"
       x="3284.231"
       y="1438.9672">Konceptuální</tspan><tspan
       sodipodi:role="line"
       id="tspan980"
       x="3284.231"
       y="1558.9672">zdroje,</tspan><tspan
       sodipodi:role="line"
       id="tspan982"
       x="3284.231"
       y="1678.9672">informace</tspan></text>
  <flowRoot
     xml:space="preserve"
     id="flowRoot984"
     style="fill:black;stroke:none;stroke-opacity:1;stroke-width:1px;stroke-linejoin:miter;stroke-linecap:butt;fill-opacity:1;font-family:Arial;font-style:normal;font-weight:normal;font-size:21.33333333px;line-height:125%;letter-spacing:0px;word-spacing:0px;-inkscape-font-specification:Arial;font-stretch:normal;font-variant:normal"><flowRegion
       id="flowRegion986"><rect
         id="rect988"
         width="43.53178"
         height="96.737289"
         x="3789.6833"
         y="1613.0942" /></flowRegion><flowPara
       id="flowPara990"></flowPara></flowRoot></svg>
