<?xml version="1.0" encoding="UTF-8" standalone="no"?>
<!-- Created with Inkscape (http://www.inkscape.org/) -->

<svg
   xmlns:dc="http://purl.org/dc/elements/1.1/"
   xmlns:cc="http://creativecommons.org/ns#"
   xmlns:rdf="http://www.w3.org/1999/02/22-rdf-syntax-ns#"
   xmlns:svg="http://www.w3.org/2000/svg"
   xmlns="http://www.w3.org/2000/svg"
   xmlns:sodipodi="http://sodipodi.sourceforge.net/DTD/sodipodi-0.dtd"
   xmlns:inkscape="http://www.inkscape.org/namespaces/inkscape"
   version="1.1"
   id="svg2"
   xml:space="preserve"
   width="287.2222"
   height="287.2222"
   viewBox="0 0 287.2222 287.2222"
   sodipodi:docname="type_simple.svg"
   inkscape:version="0.92.5 (2060ec1f9f, 2020-04-08)"><metadata
     id="metadata8"><rdf:RDF><cc:Work
         rdf:about=""><dc:format>image/svg+xml</dc:format><dc:type
           rdf:resource="http://purl.org/dc/dcmitype/StillImage" /><dc:title /></cc:Work></rdf:RDF></metadata><defs
     id="defs6" /><sodipodi:namedview
     pagecolor="#ffffff"
     bordercolor="#666666"
     borderopacity="1"
     objecttolerance="10"
     gridtolerance="10"
     guidetolerance="10"
     inkscape:pageopacity="0"
     inkscape:pageshadow="2"
     inkscape:window-width="1920"
     inkscape:window-height="1028"
     id="namedview4"
     showgrid="false"
     inkscape:zoom="0.82166351"
     inkscape:cx="-124.74693"
     inkscape:cy="143.6111"
     inkscape:window-x="0"
     inkscape:window-y="0"
     inkscape:window-maximized="1"
     inkscape:current-layer="g10" /><g
     id="g10"
     inkscape:groupmode="layer"
     inkscape:label="type_simple"
     transform="matrix(1.3333333,0,0,1.3333333,0,9.1805547e-6)"><g
       id="g12"
       style="stroke:#000000;stroke-opacity:1"><path
         d="m 1.059,107.707 0.148,-5.547 0.453,-5.625 0.75,-5.476 0.973,-5.551 1.277,-5.399 1.649,-5.324 1.8,-5.328 2.176,-5.098 2.399,-5.101 2.699,-4.875 2.851,-4.723 3.223,-4.652 3.375,-4.426 3.602,-4.273 3.824,-4.051 4.051,-3.824 4.273,-3.602 4.426,-3.375 4.652,-3.223 4.723,-2.851 4.875,-2.699 5.101,-2.399 5.098,-2.176 5.328,-1.8 5.324,-1.649 5.399,-1.277 5.551,-0.973 5.476,-0.75 5.625,-0.453 5.547,-0.148 5.551,0.148 5.625,0.453 5.476,0.75 5.551,0.973 5.399,1.277 5.324,1.649 5.324,1.8 5.102,2.176 5.101,2.399 4.875,2.699 4.723,2.851 4.652,3.223 4.422,3.375 4.277,3.602 4.051,3.824 3.824,4.051 3.598,4.273 3.375,4.426 3.227,4.652 2.851,4.723 2.699,4.875 2.399,5.101 2.176,5.098 1.8,5.328 1.649,5.324 1.277,5.399 0.973,5.551 0.75,5.476 0.449,5.625 0.152,5.547 h -0.074 l -0.152,5.551 -0.449,5.625 -0.676,5.476 -1.051,5.551 -1.273,5.399 -1.649,5.324 -1.801,5.25 -2.175,5.176 -2.399,5.023 -2.625,4.953 -2.926,4.723 -3.152,4.652 -3.449,4.422 -3.598,4.203 -3.828,4.047 -4.047,3.828 -4.277,3.672 -4.426,3.375 -4.574,3.152 -4.723,2.926 -4.953,2.699 -5.023,2.399 -5.176,2.101 -5.25,1.875 -5.324,1.575 -5.477,1.351 -5.473,0.973 -5.476,0.75 -5.625,0.449 -5.551,0.152 v -0.074 l -5.547,-0.152 -5.625,-0.449 -5.476,-0.676 -5.551,-1.051 -5.399,-1.273 -5.324,-1.649 -5.25,-1.801 -5.176,-2.175 -5.027,-2.399 -4.949,-2.625 -4.723,-2.926 -4.652,-3.152 -4.426,-3.449 -4.199,-3.598 -4.051,-3.828 -3.824,-4.047 -3.676,-4.277 -3.375,-4.426 -3.148,-4.574 -2.926,-4.723 -2.699,-4.953 -2.399,-5.023 -2.101,-5.176 -1.875,-5.25 -1.575,-5.324 -1.351,-5.477 -0.973,-5.473 -0.75,-5.476 -0.453,-5.625 z"
         style="fill:#92d050;fill-opacity:0.32900002;fill-rule:evenodd;stroke:#000000;stroke-opacity:1"
         id="path14"
         inkscape:connector-curvature="0" /><g
         id="g16"
         style="stroke:#000000;stroke-opacity:1"><path
           d="m 1.059,107.707 0.148,-5.547 0.453,-5.625 0.75,-5.476 0.973,-5.551 1.277,-5.399 1.649,-5.324 1.8,-5.328 2.176,-5.098 2.399,-5.101 2.699,-4.875 2.851,-4.723 3.223,-4.652 3.375,-4.426 3.602,-4.273 3.824,-4.051 4.051,-3.824 4.273,-3.602 4.426,-3.375 4.652,-3.223 4.723,-2.851 4.875,-2.699 5.101,-2.399 5.098,-2.176 5.328,-1.8 5.324,-1.649 5.399,-1.277 5.551,-0.973 5.476,-0.75 5.625,-0.453 5.547,-0.148 5.551,0.148 5.625,0.453 5.476,0.75 5.551,0.973 5.399,1.277 5.324,1.649 5.324,1.8 5.102,2.176 5.101,2.399 4.875,2.699 4.723,2.851 4.652,3.223 4.422,3.375 4.277,3.602 4.051,3.824 3.824,4.051 3.598,4.273 3.375,4.426 3.227,4.652 2.851,4.723 2.699,4.875 2.399,5.101 2.176,5.098 1.8,5.328 1.649,5.324 1.277,5.399 0.973,5.551 0.75,5.476 0.449,5.625 0.152,5.547 h -0.074 l -0.152,5.551 -0.449,5.625 -0.676,5.476 -1.051,5.551 -1.273,5.399 -1.649,5.324 -1.801,5.25 -2.175,5.176 -2.399,5.023 -2.625,4.953 -2.926,4.723 -3.152,4.652 -3.449,4.422 -3.598,4.203 -3.828,4.047 -4.047,3.828 -4.277,3.672 -4.426,3.375 -4.574,3.152 -4.723,2.926 -4.953,2.699 -5.023,2.399 -5.176,2.101 -5.25,1.875 -5.324,1.575 -5.477,1.351 -5.473,0.973 -5.476,0.75 -5.625,0.449 -5.551,0.152 v -0.074 l -5.547,-0.152 -5.625,-0.449 -5.476,-0.676 -5.551,-1.051 -5.399,-1.273 -5.324,-1.649 -5.25,-1.801 -5.176,-2.175 -5.027,-2.399 -4.949,-2.625 -4.723,-2.926 -4.652,-3.152 -4.426,-3.449 -4.199,-3.598 -4.051,-3.828 -3.824,-4.047 -3.676,-4.277 -3.375,-4.426 -3.148,-4.574 -2.926,-4.723 -2.699,-4.953 -2.399,-5.023 -2.101,-5.176 -1.875,-5.25 -1.575,-5.324 -1.351,-5.477 -0.973,-5.473 -0.75,-5.476 -0.453,-5.625 z"
           style="fill:none;stroke:#000000;stroke-width:2.1166501;stroke-linecap:butt;stroke-linejoin:round;stroke-miterlimit:4;stroke-dasharray:none;stroke-opacity:1"
           id="path18"
           inkscape:connector-curvature="0" /></g></g></g></svg>