<?xml version="1.0" encoding="UTF-8" standalone="no"?>
<!-- Created with Inkscape (http://www.inkscape.org/) -->

<svg
   xmlns:dc="http://purl.org/dc/elements/1.1/"
   xmlns:cc="http://creativecommons.org/ns#"
   xmlns:rdf="http://www.w3.org/1999/02/22-rdf-syntax-ns#"
   xmlns:svg="http://www.w3.org/2000/svg"
   xmlns="http://www.w3.org/2000/svg"
   xmlns:sodipodi="http://sodipodi.sourceforge.net/DTD/sodipodi-0.dtd"
   xmlns:inkscape="http://www.inkscape.org/namespaces/inkscape"
   version="1.1"
   id="svg2"
   xml:space="preserve"
   width="3139.7004"
   height="1586.6001"
   viewBox="0 0 3139.7004 1586.6001"
   sodipodi:docname="type_collection.svg"
   inkscape:version="0.92.5 (2060ec1f9f, 2020-04-08)"><metadata
     id="metadata8"><rdf:RDF><cc:Work
         rdf:about=""><dc:format>image/svg+xml</dc:format><dc:type
           rdf:resource="http://purl.org/dc/dcmitype/StillImage" /><dc:title></dc:title></cc:Work></rdf:RDF></metadata><defs
     id="defs6" /><sodipodi:namedview
     pagecolor="#ffffff"
     bordercolor="#666666"
     borderopacity="1"
     objecttolerance="10"
     gridtolerance="10"
     guidetolerance="10"
     inkscape:pageopacity="0"
     inkscape:pageshadow="2"
     inkscape:window-width="1920"
     inkscape:window-height="1028"
     id="namedview4"
     showgrid="false"
     inkscape:zoom="0.38466676"
     inkscape:cx="1569.8502"
     inkscape:cy="793.30005"
     inkscape:window-x="0"
     inkscape:window-y="0"
     inkscape:window-maximized="1"
     inkscape:current-layer="g10" /><g
     id="g10"
     inkscape:groupmode="layer"
     inkscape:label="type_collection"
     transform="matrix(1.3333333,0,0,1.3333333,0,4.2331669e-5)"><g
       id="g12"><g
         id="g14"><path
           d="M 792.977,1188.898 H 320.102 V 0.977 h 945.75 v 1187.921 z"
           style="fill:#ffffff;fill-opacity:1;fill-rule:evenodd;stroke:#000000;stroke-width:1.95000005;stroke-linecap:butt;stroke-linejoin:miter;stroke-miterlimit:4;stroke-dasharray:none;stroke-opacity:1"
           id="path16"
           inkscape:connector-curvature="0" /></g><g
         id="g18"><path
           d="M 714.148,465.227 H 398.926 V 362.551 h 630.449 v 102.676 z"
           style="fill:#ffffff;fill-opacity:1;fill-rule:evenodd;stroke:#000000;stroke-width:1.95000005;stroke-linecap:butt;stroke-linejoin:miter;stroke-miterlimit:4;stroke-dasharray:none;stroke-opacity:1"
           id="path20"
           inkscape:connector-curvature="0" /></g><text
         transform="translate(398.92456,415.19984)"
         style="font-variant:normal;font-weight:normal;font-size:52.64999771px;font-family:Arimo;-inkscape-font-specification:Arimo;writing-mode:lr-tb;fill:#000000;fill-opacity:1;fill-rule:nonzero;stroke:none"
         id="text26"><tspan
           x="0 18.6381 53.702999 71.235451 100.50884 115.0929 129.67694 144.261 158.84505 188.11844 217.39185 231.97589 246.55994 272.88495 302.15833 331.43173 346.01578 378.18494 407.45834 451.3158 480.58917 492.2775 506.86154"
           y="0"
           sodipodi:role="line"
           id="tspan22">&quot;Prof. Ing. Jan Vomel, </tspan><tspan
           x="0 38.013298 73.078194 99.403198 113.98724"
           y="63.150146"
           sodipodi:role="line"
           id="tspan24">CSc.&quot;</tspan></text>
<g
         id="g28"><path
           d="M 714.148,565.125 H 398.926 v -99.227 h 630.449 v 99.227 z"
           style="fill:#ffffff;fill-opacity:1;fill-rule:evenodd;stroke:#000000;stroke-width:1.95000005;stroke-linecap:butt;stroke-linejoin:miter;stroke-miterlimit:4;stroke-dasharray:none;stroke-opacity:1"
           id="path30"
           inkscape:connector-curvature="0" /></g><text
         transform="translate(398.92456,518.55006)"
         style="font-variant:normal;font-weight:normal;font-size:52.64999771px;font-family:Arimo;-inkscape-font-specification:Arimo;writing-mode:lr-tb;fill:#000000;fill-opacity:1;fill-rule:nonzero;stroke:none"
         id="text34"><tspan
           x="0 18.6381 44.963097 74.236496 103.5099"
           y="0"
           sodipodi:role="line"
           id="tspan32">&quot;Jan&quot;</tspan></text>
<g
         id="g36"><path
           d="M 714.148,671.852 H 398.926 V 569.176 h 630.449 v 102.676 z"
           style="fill:#ffffff;fill-opacity:1;fill-rule:evenodd;stroke:#000000;stroke-width:1.95000005;stroke-linecap:butt;stroke-linejoin:miter;stroke-miterlimit:4;stroke-dasharray:none;stroke-opacity:1"
           id="path38"
           inkscape:connector-curvature="0" /></g><text
         transform="translate(398.92456,621.82484)"
         style="font-variant:normal;font-weight:normal;font-size:52.64999771px;font-family:Arimo;-inkscape-font-specification:Arimo;writing-mode:lr-tb;fill:#000000;fill-opacity:1;fill-rule:nonzero;stroke:none"
         id="text42"><tspan
           x="0 18.6381 50.807247 80.08065 123.9381 153.21149 164.8998"
           y="0"
           sodipodi:role="line"
           id="tspan40">&quot;Vomel&quot;</tspan></text>
<g
         id="g44"><path
           d="M 717.301,773.25 H 402.074 V 670.574 h 630.449 V 773.25 Z"
           style="fill:#ffffff;fill-opacity:1;fill-rule:evenodd;stroke:#000000;stroke-width:1.95000005;stroke-linecap:butt;stroke-linejoin:miter;stroke-miterlimit:4;stroke-dasharray:none;stroke-opacity:1"
           id="path46"
           inkscape:connector-curvature="0" /></g><text
         transform="translate(402.07471,723.22499)"
         style="font-variant:normal;font-weight:normal;font-size:52.64999771px;font-family:Arimo;-inkscape-font-specification:Arimo;writing-mode:lr-tb;fill:#000000;fill-opacity:1;fill-rule:nonzero;stroke:none"
         id="text50"><tspan
           x="0 29.273399 58.546799 73.130844 87.714897 116.9883 131.57234 146.15639 175.42979 204.70319 233.97659"
           y="0"
           sodipodi:role="line"
           id="tspan48">24. 5. 1954</tspan></text>
<g
         id="g52"><path
           d="M 792.977,324.602 H 477.75 V 221.926 h 630.449 v 102.676 z"
           style="fill:#ffffff;fill-opacity:1;fill-rule:evenodd;stroke:#000000;stroke-width:1.95000005;stroke-linecap:butt;stroke-linejoin:miter;stroke-miterlimit:4;stroke-dasharray:none;stroke-opacity:1"
           id="path54"
           inkscape:connector-curvature="0" /></g><text
         transform="translate(477.75,274.57484)"
         style="font-variant:normal;font-weight:normal;font-size:52.64999771px;font-family:Arimo;-inkscape-font-specification:Arimo;writing-mode:lr-tb;fill:#000000;fill-opacity:1;fill-rule:nonzero;stroke:none"
         id="text58"><tspan
           x="0 18.6381 56.651398 68.339699 80.028 109.3014 138.5748 153.15884 185.32799 214.60139 258.45883 287.73224 299.42053 328.69394 355.01895 384.29233"
           y="0"
           sodipodi:role="line"
           id="tspan56">&quot;Hilda Vomelová&quot;</tspan></text>
<g
         id="g60"><path
           d="M 792.977,424.5 H 477.75 v -99.227 h 630.449 V 424.5 Z"
           style="fill:#ffffff;fill-opacity:1;fill-rule:evenodd;stroke:#000000;stroke-width:1.95000005;stroke-linecap:butt;stroke-linejoin:miter;stroke-miterlimit:4;stroke-dasharray:none;stroke-opacity:1"
           id="path62"
           inkscape:connector-curvature="0" /></g><text
         transform="translate(477.75,377.92506)"
         style="font-variant:normal;font-weight:normal;font-size:52.64999771px;font-family:Arimo;-inkscape-font-specification:Arimo;writing-mode:lr-tb;fill:#000000;fill-opacity:1;fill-rule:nonzero;stroke:none"
         id="text66"><tspan
           x="0 18.6381 56.651398 68.339699 80.028 109.3014 138.5748"
           y="0"
           sodipodi:role="line"
           id="tspan64">&quot;Hilda&quot;</tspan></text>
<g
         id="g68"><path
           d="M 792.977,531.227 H 477.75 V 428.551 h 630.449 v 102.676 z"
           style="fill:#ffffff;fill-opacity:1;fill-rule:evenodd;stroke:#000000;stroke-width:1.95000005;stroke-linecap:butt;stroke-linejoin:miter;stroke-miterlimit:4;stroke-dasharray:none;stroke-opacity:1"
           id="path70"
           inkscape:connector-curvature="0" /></g><text
         transform="translate(477.75,481.19984)"
         style="font-variant:normal;font-weight:normal;font-size:52.64999771px;font-family:Arimo;-inkscape-font-specification:Arimo;writing-mode:lr-tb;fill:#000000;fill-opacity:1;fill-rule:nonzero;stroke:none"
         id="text74"><tspan
           x="0 18.6381 50.807247 80.08065 123.9381 153.21149 164.8998 194.17319 220.49818 249.77159"
           y="0"
           sodipodi:role="line"
           id="tspan72">&quot;Vomelová&quot;</tspan></text>
<g
         id="g76"><path
           d="M 792.977,635.176 H 477.75 V 532.5 h 630.449 v 102.676 z"
           style="fill:#ffffff;fill-opacity:1;fill-rule:evenodd;stroke:#000000;stroke-width:1.95000005;stroke-linecap:butt;stroke-linejoin:miter;stroke-miterlimit:4;stroke-dasharray:none;stroke-opacity:1"
           id="path78"
           inkscape:connector-curvature="0" /></g><text
         transform="translate(477.75,585.14992)"
         style="font-variant:normal;font-weight:normal;font-size:52.64999771px;font-family:Arimo;-inkscape-font-specification:Arimo;writing-mode:lr-tb;fill:#000000;fill-opacity:1;fill-rule:nonzero;stroke:none"
         id="text82"><tspan
           x="0 29.273399 43.857449 73.130844 102.40424 116.9883 131.57234 160.84575 190.11914 219.39255"
           y="0"
           sodipodi:role="line"
           id="tspan80">2.10. 1956</tspan></text>
<g
         id="g84"><path
           d="M 871.801,169.648 H 556.574 V 66.977 h 630.449 v 102.671 z"
           style="fill:#ffffff;fill-opacity:1;fill-rule:evenodd;stroke:#000000;stroke-width:1.95000005;stroke-linecap:butt;stroke-linejoin:miter;stroke-miterlimit:4;stroke-dasharray:none;stroke-opacity:1"
           id="path86"
           inkscape:connector-curvature="0" /></g><text
         transform="translate(556.57471,119.62515)"
         style="font-variant:normal;font-weight:normal;font-size:52.64999771px;font-family:Arimo;-inkscape-font-specification:Arimo;writing-mode:lr-tb;fill:#000000;fill-opacity:1;fill-rule:nonzero;stroke:none"
         id="text90"><tspan
           x="0 18.6381 44.963097"
           y="0"
           sodipodi:role="line"
           id="tspan88">&quot;Ji</tspan></text>
<text
         transform="translate(613.2261,119.62515)"
         style="font-variant:normal;font-weight:normal;font-size:52.64999771px;font-family:Arimo;-inkscape-font-specification:Arimo;writing-mode:lr-tb;fill:#000000;fill-opacity:1;fill-rule:nonzero;stroke:none"
         id="text94"><tspan
           x="0"
           y="0"
           id="tspan92">ř</tspan></text>
<text
         transform="translate(630.75855,119.62515)"
         style="font-variant:normal;font-weight:normal;font-size:52.64999771px;font-family:Arimo;-inkscape-font-specification:Arimo;writing-mode:lr-tb;fill:#000000;fill-opacity:1;fill-rule:nonzero;stroke:none"
         id="text98"><tspan
           x="0 14.584049 29.168098 67.181396 96.454796 122.77979 152.05319 178.37819"
           y="0"
           sodipodi:role="line"
           id="tspan96">í Novák&quot;</tspan></text>
<g
         id="g100"><path
           d="M 871.801,269.551 H 556.574 v -99.227 h 630.449 v 99.227 z"
           style="fill:#ffffff;fill-opacity:1;fill-rule:evenodd;stroke:#000000;stroke-width:1.95000005;stroke-linecap:butt;stroke-linejoin:miter;stroke-miterlimit:4;stroke-dasharray:none;stroke-opacity:1"
           id="path102"
           inkscape:connector-curvature="0" /></g><text
         transform="translate(556.57471,222.97499)"
         style="font-variant:normal;font-weight:normal;font-size:52.64999771px;font-family:Arimo;-inkscape-font-specification:Arimo;writing-mode:lr-tb;fill:#000000;fill-opacity:1;fill-rule:nonzero;stroke:none"
         id="text106"><tspan
           x="0 18.6381 44.963097"
           y="0"
           sodipodi:role="line"
           id="tspan104">&quot;Ji</tspan></text>
<text
         transform="translate(613.2261,222.97499)"
         style="font-variant:normal;font-weight:normal;font-size:52.64999771px;font-family:Arimo;-inkscape-font-specification:Arimo;writing-mode:lr-tb;fill:#000000;fill-opacity:1;fill-rule:nonzero;stroke:none"
         id="text110"><tspan
           x="0"
           y="0"
           id="tspan108">ř</tspan></text>
<text
         transform="translate(630.75855,222.97499)"
         style="font-variant:normal;font-weight:normal;font-size:52.64999771px;font-family:Arimo;-inkscape-font-specification:Arimo;writing-mode:lr-tb;fill:#000000;fill-opacity:1;fill-rule:nonzero;stroke:none"
         id="text114"><tspan
           x="0 14.584049"
           y="0"
           sodipodi:role="line"
           id="tspan112">í&quot;</tspan></text>
<g
         id="g116"><path
           d="M 871.801,376.273 H 556.574 V 273.602 h 630.449 v 102.671 z"
           style="fill:#ffffff;fill-opacity:1;fill-rule:evenodd;stroke:#000000;stroke-width:1.95000005;stroke-linecap:butt;stroke-linejoin:miter;stroke-miterlimit:4;stroke-dasharray:none;stroke-opacity:1"
           id="path118"
           inkscape:connector-curvature="0" /></g><text
         transform="translate(556.57471,326.25014)"
         style="font-variant:normal;font-weight:normal;font-size:52.64999771px;font-family:Arimo;-inkscape-font-specification:Arimo;writing-mode:lr-tb;fill:#000000;fill-opacity:1;fill-rule:nonzero;stroke:none"
         id="text122"><tspan
           x="0 18.6381 56.651398 85.924797 112.24979 141.52319 167.84819"
           y="0"
           sodipodi:role="line"
           id="tspan120">&quot;Novák&quot;</tspan></text>
<g
         id="g124"><path
           d="M 871.801,479.852 H 556.574 V 377.176 h 630.449 v 102.676 z"
           style="fill:#ffffff;fill-opacity:1;fill-rule:evenodd;stroke:#000000;stroke-width:1.95000005;stroke-linecap:butt;stroke-linejoin:miter;stroke-miterlimit:4;stroke-dasharray:none;stroke-opacity:1"
           id="path126"
           inkscape:connector-curvature="0" /></g><text
         transform="translate(556.57471,429.82484)"
         style="font-variant:normal;font-weight:normal;font-size:52.64999771px;font-family:Arimo;-inkscape-font-specification:Arimo;writing-mode:lr-tb;fill:#000000;fill-opacity:1;fill-rule:nonzero;stroke:none"
         id="text130"><tspan
           x="0 29.273399 58.546799 73.130844 102.40424 116.9883 146.26169 175.5351 204.80849"
           y="0"
           sodipodi:role="line"
           id="tspan128">23.8.1968</tspan></text>
<text
         transform="translate(18.75,805.65033)"
         style="font-variant:normal;font-weight:normal;font-size:752.625px;font-family:Arimo;-inkscape-font-specification:Arimo;writing-mode:lr-tb;fill:#7030a0;fill-opacity:1;fill-rule:nonzero;stroke:none"
         id="text134"><tspan
           x="0 1300.536"
           y="0"
           sodipodi:role="line"
           id="tspan132">{}</tspan></text>
<path
         d="m 1941.602,129.074 0.148,-5.551 0.449,-5.625 0.75,-5.472 0.977,-5.551 1.273,-5.398 1.653,-5.329 1.796,-5.324 2.176,-5.097 2.403,-5.102 2.699,-4.875 2.847,-4.727 3.227,-4.648 3.375,-4.426 3.602,-4.273 3.824,-4.051 4.051,-3.824 4.273,-3.602 4.426,-3.375 4.648,-3.222 4.727,-2.852 4.875,-2.699 5.097,-2.403 5.102,-2.171 5.324,-1.801 5.324,-1.653 5.403,-1.273 5.551,-0.977 5.472,-0.75 5.625,-0.449 5.551,-0.148 5.551,0.148 5.625,0.449 5.472,0.75 5.551,0.977 5.403,1.273 5.324,1.653 5.324,1.801 5.102,2.171 5.097,2.403 4.875,2.699 4.727,2.852 4.648,3.222 4.426,3.375 4.273,3.602 4.051,3.824 3.824,4.051 3.602,4.273 3.375,4.426 3.227,4.648 2.847,4.727 2.699,4.875 2.403,5.102 2.176,5.097 1.796,5.324 1.653,5.329 1.273,5.398 0.977,5.551 0.75,5.472 0.449,5.625 0.148,5.551 h -0.074 l -0.148,5.551 -0.449,5.625 -0.676,5.477 -1.051,5.546 -1.273,5.403 -1.653,5.324 -1.801,5.25 -2.171,5.176 -2.403,5.023 -2.625,4.949 -2.926,4.727 -3.148,4.648 -3.449,4.426 -3.602,4.199 -3.824,4.051 -4.051,3.824 -4.273,3.676 -4.426,3.375 -4.574,3.153 -4.727,2.921 -4.949,2.704 -5.023,2.398 -5.176,2.102 -5.25,1.875 -5.324,1.574 -5.477,1.347 -5.477,0.977 -5.472,0.75 -5.625,0.449 -5.551,0.153 v -0.079 l -5.551,-0.148 -5.625,-0.449 -5.472,-0.676 -5.551,-1.051 -5.403,-1.273 -5.324,-1.653 -5.25,-1.796 -5.176,-2.176 -5.023,-2.403 -4.949,-2.625 -4.727,-2.921 -4.648,-3.153 -4.426,-3.449 -4.199,-3.602 -4.051,-3.824 -3.824,-4.051 -3.676,-4.273 -3.375,-4.426 -3.148,-4.574 -2.926,-4.727 -2.699,-4.949 -2.403,-5.023 -2.097,-5.176 -1.875,-5.25 -1.579,-5.324 -1.347,-5.477 -0.977,-5.472 -0.75,-5.477 -0.449,-5.625 z"
         style="fill:#ff0000;fill-opacity:0.32900002;fill-rule:evenodd;stroke:none"
         id="path136"
         inkscape:connector-curvature="0" /><g
         id="g138"><path
           d="m 1941.602,129.074 0.148,-5.551 0.449,-5.625 0.75,-5.472 0.977,-5.551 1.273,-5.398 1.653,-5.329 1.796,-5.324 2.176,-5.097 2.403,-5.102 2.699,-4.875 2.847,-4.727 3.227,-4.648 3.375,-4.426 3.602,-4.273 3.824,-4.051 4.051,-3.824 4.273,-3.602 4.426,-3.375 4.648,-3.222 4.727,-2.852 4.875,-2.699 5.097,-2.403 5.102,-2.171 5.324,-1.801 5.324,-1.653 5.403,-1.273 5.551,-0.977 5.472,-0.75 5.625,-0.449 5.551,-0.148 5.551,0.148 5.625,0.449 5.472,0.75 5.551,0.977 5.403,1.273 5.324,1.653 5.324,1.801 5.102,2.171 5.097,2.403 4.875,2.699 4.727,2.852 4.648,3.222 4.426,3.375 4.273,3.602 4.051,3.824 3.824,4.051 3.602,4.273 3.375,4.426 3.227,4.648 2.847,4.727 2.699,4.875 2.403,5.102 2.176,5.097 1.796,5.324 1.653,5.329 1.273,5.398 0.977,5.551 0.75,5.472 0.449,5.625 0.148,5.551 h -0.074 l -0.148,5.551 -0.449,5.625 -0.676,5.477 -1.051,5.546 -1.273,5.403 -1.653,5.324 -1.801,5.25 -2.171,5.176 -2.403,5.023 -2.625,4.949 -2.926,4.727 -3.148,4.648 -3.449,4.426 -3.602,4.199 -3.824,4.051 -4.051,3.824 -4.273,3.676 -4.426,3.375 -4.574,3.153 -4.727,2.921 -4.949,2.704 -5.023,2.398 -5.176,2.102 -5.25,1.875 -5.324,1.574 -5.477,1.347 -5.477,0.977 -5.472,0.75 -5.625,0.449 -5.551,0.153 v -0.079 l -5.551,-0.148 -5.625,-0.449 -5.472,-0.676 -5.551,-1.051 -5.403,-1.273 -5.324,-1.653 -5.25,-1.796 -5.176,-2.176 -5.023,-2.403 -4.949,-2.625 -4.727,-2.921 -4.648,-3.153 -4.426,-3.449 -4.199,-3.602 -4.051,-3.824 -3.824,-4.051 -3.676,-4.273 -3.375,-4.426 -3.148,-4.574 -2.926,-4.727 -2.699,-4.949 -2.403,-5.023 -2.097,-5.176 -1.875,-5.25 -1.579,-5.324 -1.347,-5.477 -0.977,-5.472 -0.75,-5.477 -0.449,-5.625 z"
           style="fill:none;stroke:#ffffff;stroke-width:2.1166501;stroke-linecap:butt;stroke-linejoin:round;stroke-miterlimit:4;stroke-dasharray:none;stroke-opacity:0.32900002"
           id="path140"
           inkscape:connector-curvature="0" /></g><g
         id="g142"><path
           d="m 1941.602,129.074 0.148,-5.551 0.449,-5.625 0.75,-5.472 0.977,-5.551 1.273,-5.398 1.653,-5.329 1.796,-5.324 2.176,-5.097 2.403,-5.102 2.699,-4.875 2.847,-4.727 3.227,-4.648 3.375,-4.426 3.602,-4.273 3.824,-4.051 4.051,-3.824 4.273,-3.602 4.426,-3.375 4.648,-3.222 4.727,-2.852 4.875,-2.699 5.097,-2.403 5.102,-2.171 5.324,-1.801 5.324,-1.653 5.403,-1.273 5.551,-0.977 5.472,-0.75 5.625,-0.449 5.551,-0.148 5.551,0.148 5.625,0.449 5.472,0.75 5.551,0.977 5.403,1.273 5.324,1.653 5.324,1.801 5.102,2.171 5.097,2.403 4.875,2.699 4.727,2.852 4.648,3.222 4.426,3.375 4.273,3.602 4.051,3.824 3.824,4.051 3.602,4.273 3.375,4.426 3.227,4.648 2.847,4.727 2.699,4.875 2.403,5.102 2.176,5.097 1.796,5.324 1.653,5.329 1.273,5.398 0.977,5.551 0.75,5.472 0.449,5.625 0.148,5.551 h -0.074 l -0.148,5.551 -0.449,5.625 -0.676,5.477 -1.051,5.546 -1.273,5.403 -1.653,5.324 -1.801,5.25 -2.171,5.176 -2.403,5.023 -2.625,4.949 -2.926,4.727 -3.148,4.648 -3.449,4.426 -3.602,4.199 -3.824,4.051 -4.051,3.824 -4.273,3.676 -4.426,3.375 -4.574,3.153 -4.727,2.921 -4.949,2.704 -5.023,2.398 -5.176,2.102 -5.25,1.875 -5.324,1.574 -5.477,1.347 -5.477,0.977 -5.472,0.75 -5.625,0.449 -5.551,0.153 v -0.079 l -5.551,-0.148 -5.625,-0.449 -5.472,-0.676 -5.551,-1.051 -5.403,-1.273 -5.324,-1.653 -5.25,-1.796 -5.176,-2.176 -5.023,-2.403 -4.949,-2.625 -4.727,-2.921 -4.648,-3.153 -4.426,-3.449 -4.199,-3.602 -4.051,-3.824 -3.824,-4.051 -3.676,-4.273 -3.375,-4.426 -3.148,-4.574 -2.926,-4.727 -2.699,-4.949 -2.403,-5.023 -2.097,-5.176 -1.875,-5.25 -1.579,-5.324 -1.347,-5.477 -0.977,-5.472 -0.75,-5.477 -0.449,-5.625 z"
           style="fill:none;stroke:#c00000;stroke-width:5.32499981;stroke-linecap:butt;stroke-linejoin:round;stroke-miterlimit:4;stroke-dasharray:none;stroke-opacity:1"
           id="path144"
           inkscape:connector-curvature="0" /></g><path
         d="m 2186.926,939.75 h -53.324 V 811.801 h 106.574 V 939.75 Z"
         style="fill:#002060;fill-opacity:0.11000001;fill-rule:evenodd;stroke:none"
         id="path146"
         inkscape:connector-curvature="0" /><g
         id="g148"><path
           d="m 2186.926,939.75 h -53.324 V 811.801 h 106.574 V 939.75 Z"
           style="fill:none;stroke:#ffffff;stroke-width:2.1166501;stroke-linecap:butt;stroke-linejoin:round;stroke-miterlimit:4;stroke-dasharray:none;stroke-opacity:0.11000001"
           id="path150"
           inkscape:connector-curvature="0" /></g><g
         id="g152"><path
           d="m 2186.926,939.75 h -53.324 V 811.801 h 106.574 V 939.75 Z"
           style="fill:none;stroke:#000000;stroke-width:2.625;stroke-linecap:butt;stroke-linejoin:miter;stroke-miterlimit:4;stroke-dasharray:none;stroke-opacity:1"
           id="path154"
           inkscape:connector-curvature="0" /></g><text
         transform="translate(2165.625,890.32489)"
         style="font-variant:normal;font-weight:normal;font-size:75.30000305px;font-family:Arimo;-inkscape-font-specification:Arimo;writing-mode:lr-tb;fill:#000000;fill-opacity:1;fill-rule:nonzero;stroke:none"
         id="text158"><tspan
           x="0"
           y="0"
           id="tspan156">…</tspan></text>
<path
         d="m 1719.227,683.926 14.773,6.148 191.477,-461.097 29.472,12.222 -191.472,461.176 14.847,6.148 -41.847,17.25 z"
         style="fill:#ff0000;fill-opacity:0.32900002;fill-rule:evenodd;stroke:none"
         id="path160"
         inkscape:connector-curvature="0" /><g
         id="g162"><path
           d="m 1719.227,683.926 14.773,6.148 191.477,-461.097 29.472,12.222 -191.472,461.176 14.847,6.148 -41.847,17.25 z"
           style="fill:none;stroke:#ffffff;stroke-width:2.1166501;stroke-linecap:butt;stroke-linejoin:round;stroke-miterlimit:4;stroke-dasharray:none;stroke-opacity:0.32900002"
           id="path164"
           inkscape:connector-curvature="0" /></g><g
         id="g166"><path
           d="m 1719.227,683.926 14.773,6.148 191.477,-461.097 29.472,12.222 -191.472,461.176 14.847,6.148 -41.847,17.25 z"
           style="fill:none;stroke:#c00000;stroke-width:5.32499981;stroke-linecap:butt;stroke-linejoin:round;stroke-miterlimit:4;stroke-dasharray:none;stroke-opacity:1"
           id="path168"
           inkscape:connector-curvature="0" /></g><path
         d="m 1920.676,709.426 15.75,2.25 65.097,-458.25 31.653,4.5 -65.102,458.176 15.903,2.324 -36.227,27.148 z"
         style="fill:#ff0000;fill-opacity:0.32900002;fill-rule:evenodd;stroke:none"
         id="path170"
         inkscape:connector-curvature="0" /><g
         id="g172"><path
           d="m 1920.676,709.426 15.75,2.25 65.097,-458.25 31.653,4.5 -65.102,458.176 15.903,2.324 -36.227,27.148 z"
           style="fill:none;stroke:#ffffff;stroke-width:2.1166501;stroke-linecap:butt;stroke-linejoin:round;stroke-miterlimit:4;stroke-dasharray:none;stroke-opacity:0.32900002"
           id="path174"
           inkscape:connector-curvature="0" /></g><g
         id="g176"><path
           d="m 1920.676,709.426 15.75,2.25 65.097,-458.25 31.653,4.5 -65.102,458.176 15.903,2.324 -36.227,27.148 z"
           style="fill:none;stroke:#c00000;stroke-width:5.32499981;stroke-linecap:butt;stroke-linejoin:round;stroke-miterlimit:4;stroke-dasharray:none;stroke-opacity:1"
           id="path178"
           inkscape:connector-curvature="0" /></g><path
         d="m 2291.324,729.602 15.153,-5.028 -157.727,-473.699 30.301,-10.125 157.722,473.699 15.227,-5.023 -20.25,40.5 z"
         style="fill:#ff0000;fill-opacity:0.32900002;fill-rule:evenodd;stroke:none"
         id="path180"
         inkscape:connector-curvature="0" /><g
         id="g182"><path
           d="m 2291.324,729.602 15.153,-5.028 -157.727,-473.699 30.301,-10.125 157.722,473.699 15.227,-5.023 -20.25,40.5 z"
           style="fill:none;stroke:#ffffff;stroke-width:2.1166501;stroke-linecap:butt;stroke-linejoin:round;stroke-miterlimit:4;stroke-dasharray:none;stroke-opacity:0.32900002"
           id="path184"
           inkscape:connector-curvature="0" /></g><g
         id="g186"><path
           d="m 2291.324,729.602 15.153,-5.028 -157.727,-473.699 30.301,-10.125 157.722,473.699 15.227,-5.023 -20.25,40.5 z"
           style="fill:none;stroke:#c00000;stroke-width:5.32499981;stroke-linecap:butt;stroke-linejoin:round;stroke-miterlimit:4;stroke-dasharray:none;stroke-opacity:1"
           id="path188"
           inkscape:connector-curvature="0" /></g><text
         transform="translate(1738.875,399.59999)"
         style="font-variant:normal;font-weight:normal;font-size:75.30000305px;font-family:Arimo;-inkscape-font-specification:Arimo;writing-mode:lr-tb;fill:#000000;fill-opacity:1;fill-rule:nonzero;stroke:none"
         id="text196"><tspan
           x="0"
           y="0"
           id="tspan190">1</tspan><tspan
           x="170.69968"
           y="106.72488"
           id="tspan192">2</tspan><tspan
           x="405.375"
           y="128.02515"
           id="tspan194">n</tspan></text>
</g></g></svg>