<?xml version="1.0" encoding="UTF-8" standalone="no"?>
<!-- Created with Inkscape (http://www.inkscape.org/) -->

<svg
   xmlns:dc="http://purl.org/dc/elements/1.1/"
   xmlns:cc="http://creativecommons.org/ns#"
   xmlns:rdf="http://www.w3.org/1999/02/22-rdf-syntax-ns#"
   xmlns:svg="http://www.w3.org/2000/svg"
   xmlns="http://www.w3.org/2000/svg"
   xmlns:sodipodi="http://sodipodi.sourceforge.net/DTD/sodipodi-0.dtd"
   xmlns:inkscape="http://www.inkscape.org/namespaces/inkscape"
   version="1.1"
   id="svg2"
   xml:space="preserve"
   width="2218.0999"
   height="1831.0999"
   viewBox="0 0 2218.0999 1831.0999"
   sodipodi:docname="er_diagram.svg"
   inkscape:version="0.92.5 (2060ec1f9f, 2020-04-08)"><metadata
     id="metadata8"><rdf:RDF><cc:Work
         rdf:about=""><dc:format>image/svg+xml</dc:format><dc:type
           rdf:resource="http://purl.org/dc/dcmitype/StillImage" /><dc:title></dc:title></cc:Work></rdf:RDF></metadata><defs
     id="defs6" /><sodipodi:namedview
     pagecolor="#ffffff"
     bordercolor="#666666"
     borderopacity="1"
     objecttolerance="10"
     gridtolerance="10"
     guidetolerance="10"
     inkscape:pageopacity="0"
     inkscape:pageshadow="2"
     inkscape:window-width="1920"
     inkscape:window-height="1028"
     id="namedview4"
     showgrid="false"
     inkscape:zoom="0.12888429"
     inkscape:cx="1109.0499"
     inkscape:cy="915.54993"
     inkscape:window-x="0"
     inkscape:window-y="0"
     inkscape:window-maximized="1"
     inkscape:current-layer="g10" /><g
     id="g10"
     inkscape:groupmode="layer"
     inkscape:label="er_diagram"
     transform="matrix(1.3333333,0,0,1.3333333,0,1.1110832e-5)"><g
       id="g12"><g
         id="g14"><path
           d="m 1187.324,219.676 h -101.551 v -67.653 h 203.102 v 67.653 z"
           style="fill:#ccffff;fill-opacity:1;fill-rule:evenodd;stroke:#000000;stroke-width:7.94999981;stroke-linecap:butt;stroke-linejoin:miter;stroke-miterlimit:4;stroke-dasharray:none;stroke-opacity:1"
           id="path16"
           inkscape:connector-curvature="0" /></g><text
         transform="translate(1136.55,199.5)"
         style="font-variant:normal;font-weight:bold;font-size:33.90000153px;font-family:'Courier New';-inkscape-font-specification:CourierNewPS-BoldMT;writing-mode:lr-tb;fill:#000000;fill-opacity:1;fill-rule:nonzero;stroke:none"
         id="text20"><tspan
           x="0 20.34 40.68 61.02 81.360001"
           y="0"
           sodipodi:role="line"
           id="tspan18">sklad</tspan></text>
<g
         id="g22"><path
           d="m 1394.852,287.477 h 160.796 l 1.954,0.074 1.875,0.074 1.949,0.227 1.875,0.296 1.875,0.375 1.875,0.528 1.801,0.523 1.796,0.676 1.801,0.676 1.727,0.824 1.648,0.824 1.574,0.977 1.579,0.972 1.5,1.125 1.421,1.125 1.352,1.204 1.273,1.273 1.278,1.352 1.125,1.347 1.051,1.426 0.972,1.5 0.903,1.5 0.824,1.574 0.676,1.574 0.671,1.653 0.528,1.648 0.449,1.653 0.301,1.722 0.222,1.653 0.153,1.722 0.074,1.727 -0.074,1.722 -0.153,1.727 -0.222,1.648 -0.301,1.727 -0.449,1.648 -0.528,1.653 -0.671,1.648 -0.676,1.574 -0.824,1.579 -0.903,1.5 -0.972,1.5 -1.051,1.421 -1.125,1.352 -1.278,1.352 -1.273,1.273 -1.352,1.199 -1.421,1.125 -1.5,1.125 -1.579,0.977 -1.574,0.972 -1.648,0.829 -1.727,0.824 -1.801,0.676 -1.796,0.671 -1.801,0.528 -1.875,0.523 -1.875,0.375 -1.875,0.301 -1.949,0.227 -1.875,0.074 -1.954,0.074 -160.796,0.074 v -0.074 l -1.954,-0.074 -1.875,-0.074 -1.949,-0.227 -1.875,-0.301 -1.875,-0.375 -1.875,-0.523 -1.801,-0.528 -1.796,-0.671 -1.801,-0.676 -1.727,-0.824 -1.648,-0.829 -1.574,-0.972 -1.579,-0.977 -1.5,-1.125 -1.421,-1.125 -1.352,-1.199 -1.273,-1.273 -1.278,-1.352 -1.125,-1.352 -1.051,-1.421 -0.972,-1.5 -0.903,-1.5 -0.824,-1.579 -0.676,-1.574 -0.671,-1.648 -0.528,-1.653 -0.449,-1.648 -0.301,-1.727 -0.222,-1.648 -0.153,-1.727 -0.074,-1.722 0.074,-1.727 0.153,-1.722 0.222,-1.653 0.301,-1.722 0.449,-1.653 0.528,-1.648 0.671,-1.653 0.676,-1.574 0.824,-1.574 0.903,-1.5 0.972,-1.5 1.051,-1.426 1.125,-1.347 1.278,-1.352 1.273,-1.273 1.352,-1.204 1.421,-1.125 1.5,-1.125 1.579,-0.972 1.574,-0.977 1.648,-0.824 1.727,-0.824 1.801,-0.676 1.796,-0.676 1.801,-0.523 1.875,-0.528 1.875,-0.375 1.875,-0.296 1.949,-0.227 1.875,-0.074 z"
           style="fill:#ff9900;fill-opacity:1;fill-rule:evenodd;stroke:#000000;stroke-width:3.9749999;stroke-linecap:butt;stroke-linejoin:miter;stroke-miterlimit:4;stroke-dasharray:none;stroke-opacity:1"
           id="path24"
           inkscape:connector-curvature="0" /></g><text
         transform="translate(1393.875,331.2)"
         style="font-variant:normal;font-weight:bold;font-size:30.14999962px;font-family:'Courier New';-inkscape-font-specification:CourierNewPS-BoldMT;writing-mode:lr-tb;fill:#000000;fill-opacity:1;fill-rule:nonzero;stroke:none"
         id="text28"><tspan
           x="0 18.09 36.18 54.27 72.360001 90.449997 108.54 126.63 144.72"
           y="0"
           sodipodi:role="line"
           id="tspan26">id_skladu</tspan></text>
<g
         id="g30"><path
           d="m 892.273,16.574 h 183.676 l 2.176,0.074 2.25,0.079 2.176,0.222 2.176,0.301 2.171,0.375 2.102,0.523 2.102,0.528 2.023,0.676 2.023,0.671 1.954,0.829 1.875,0.824 1.875,0.972 1.796,0.977 1.653,1.125 1.648,1.125 1.574,1.199 1.5,1.278 1.352,1.347 1.352,1.352 1.199,1.426 1.125,1.5 1.051,1.5 0.898,1.574 0.824,1.574 0.676,1.648 0.602,1.653 0.523,1.648 0.375,1.727 0.301,1.648 0.148,1.727 0.074,1.722 -0.074,1.727 -0.148,1.727 -0.301,1.648 -0.375,1.727 -0.523,1.648 -0.602,1.648 -0.676,1.653 -0.824,1.574 -0.898,1.574 -1.051,1.5 -1.125,1.5 -1.199,1.426 -1.352,1.352 -1.352,1.347 -1.5,1.278 -1.574,1.199 -1.648,1.125 -1.653,1.125 -1.796,0.972 -1.875,0.977 -1.875,0.824 -1.954,0.824 -4.046,1.352 -2.102,0.523 -2.102,0.528 -2.171,0.375 -2.176,0.301 -2.176,0.222 -2.25,0.074 -2.176,0.079 -183.676,0.074 v -0.074 l -2.171,-0.079 -2.25,-0.074 -2.176,-0.222 -2.176,-0.301 -2.176,-0.375 -2.097,-0.528 -2.102,-0.523 -2.023,-0.676 -2.028,-0.676 -1.949,-0.824 -1.875,-0.824 -1.875,-0.977 -1.801,-0.972 -1.648,-1.125 -1.653,-1.125 -1.574,-1.199 -1.5,-1.278 -2.699,-2.699 -1.199,-1.426 -1.125,-1.5 -1.051,-1.5 -0.898,-1.574 -0.829,-1.574 -0.671,-1.653 -0.602,-1.648 -0.523,-1.648 -0.375,-1.727 -0.301,-1.648 -0.153,-1.727 -0.074,-1.727 0.074,-1.722 0.153,-1.727 0.301,-1.648 0.375,-1.727 0.523,-1.648 0.602,-1.653 0.671,-1.648 0.829,-1.574 0.898,-1.574 1.051,-1.5 1.125,-1.5 1.199,-1.426 2.699,-2.699 1.5,-1.278 1.574,-1.199 1.653,-1.125 1.648,-1.125 1.801,-0.977 1.875,-0.972 1.875,-0.824 1.949,-0.829 2.028,-0.671 2.023,-0.676 2.102,-0.528 2.097,-0.523 2.176,-0.375 2.176,-0.301 2.176,-0.222 2.25,-0.079 z"
           style="fill:#ffff99;fill-opacity:1;fill-rule:evenodd;stroke:#000000;stroke-width:3.9749999;stroke-linecap:butt;stroke-linejoin:miter;stroke-miterlimit:4;stroke-dasharray:none;stroke-opacity:1"
           id="path32"
           inkscape:connector-curvature="0" /></g><text
         transform="translate(884.625,60.3)"
         style="font-variant:normal;font-weight:bold;font-size:30.14999962px;font-family:'Courier New';-inkscape-font-specification:CourierNewPS-BoldMT;writing-mode:lr-tb;fill:#000000;fill-opacity:1;fill-rule:nonzero;stroke:none"
         id="text36"><tspan
           x="0 18.09 36.18 54.27 72.360001 90.449997 108.54 126.63 144.72 162.81 180.89999"
           y="0"
           sodipodi:role="line"
           id="tspan34">k_dispozici</tspan></text>
<g
         id="g38"><path
           d="m 835.352,287.477 h 229.722 l 2.778,0.074 2.699,0.074 2.773,0.227 2.699,0.296 2.704,0.375 2.625,0.528 2.625,0.523 2.546,0.676 2.551,0.676 2.403,0.824 2.398,0.824 2.324,0.977 2.176,0.972 2.176,1.125 2.023,1.125 1.949,1.204 1.875,1.273 1.727,1.352 1.648,1.347 1.5,1.426 1.426,1.5 1.278,1.5 1.125,1.574 1.046,1.574 0.903,1.653 0.75,1.648 0.597,1.653 0.528,1.722 0.301,1.653 0.222,1.722 0.074,1.727 -0.074,1.722 -0.222,1.727 -0.301,1.648 -0.528,1.727 -0.597,1.648 -0.75,1.653 -0.903,1.648 -1.046,1.574 -1.125,1.579 -1.278,1.5 -1.426,1.5 -1.5,1.421 -1.648,1.352 -1.727,1.352 -1.875,1.273 -1.949,1.199 -2.023,1.125 -2.176,1.125 -2.176,0.977 -2.324,0.972 -2.398,0.829 -2.403,0.824 -2.551,0.676 -2.546,0.671 -2.625,0.528 -2.625,0.523 -2.704,0.375 -2.699,0.301 -2.773,0.227 -2.699,0.074 -2.778,0.074 -229.722,0.074 v -0.074 l -2.778,-0.074 -2.699,-0.074 -2.773,-0.227 -2.704,-0.301 -2.699,-0.375 -2.625,-0.523 -2.625,-0.528 -2.551,-0.671 -2.546,-0.676 -2.403,-0.824 -2.398,-0.829 -2.324,-0.972 -2.176,-0.977 -2.176,-1.125 -2.023,-1.125 -1.954,-1.199 -1.875,-1.273 -1.722,-1.352 -1.653,-1.352 -1.5,-1.421 -1.421,-1.5 -1.278,-1.5 -1.125,-1.579 -1.051,-1.574 -0.898,-1.648 -0.75,-1.653 -0.602,-1.648 -0.523,-1.727 -0.301,-1.648 -0.222,-1.727 -0.079,-1.722 0.079,-1.727 0.222,-1.722 0.301,-1.653 0.523,-1.722 0.602,-1.653 0.75,-1.648 0.898,-1.653 1.051,-1.574 1.125,-1.574 1.278,-1.5 1.421,-1.5 1.5,-1.426 1.653,-1.347 1.722,-1.352 1.875,-1.273 1.954,-1.204 2.023,-1.125 2.176,-1.125 2.176,-0.972 2.324,-0.977 2.398,-0.824 2.403,-0.824 2.546,-0.676 2.551,-0.676 2.625,-0.523 2.625,-0.528 2.699,-0.375 2.704,-0.296 2.773,-0.227 2.699,-0.074 z"
           style="fill:#ffff99;fill-opacity:1;fill-rule:evenodd;stroke:#000000;stroke-width:3.9749999;stroke-linecap:butt;stroke-linejoin:miter;stroke-miterlimit:4;stroke-dasharray:none;stroke-opacity:1"
           id="path40"
           inkscape:connector-curvature="0" /></g><text
         transform="translate(823.575,331.2)"
         style="font-variant:normal;font-weight:bold;font-size:30.14999962px;font-family:'Courier New';-inkscape-font-specification:CourierNewPS-BoldMT;writing-mode:lr-tb;fill:#000000;fill-opacity:1;fill-rule:nonzero;stroke:none"
         id="text44"><tspan
           x="0 18.09 36.18 54.27 72.360001 90.449997 108.54 126.63 144.72 162.81 180.89999 198.99001 217.08 235.17"
           y="0"
           sodipodi:role="line"
           id="tspan42">cena_pripadova</tspan></text>
<g
         id="g46"><path
           d="m 1405.648,152.023 h 206.778 l 2.472,0.079 2.477,0.074 2.477,0.222 2.398,0.301 2.477,0.375 2.324,0.528 2.398,0.523 2.324,0.676 2.25,0.676 2.176,0.824 2.102,0.824 2.097,0.977 2.028,0.972 3.75,2.25 1.722,1.199 1.653,1.278 1.574,1.347 1.5,1.352 1.352,1.426 1.273,1.5 1.125,1.5 1.051,1.574 0.898,1.574 0.824,1.653 0.676,1.648 0.602,1.648 0.375,1.727 0.375,1.648 0.148,1.727 0.074,1.727 -0.074,1.722 -0.148,1.727 -0.375,1.648 -0.375,1.727 -0.602,1.648 -0.676,1.653 -0.824,1.648 -0.898,1.574 -1.051,1.574 -1.125,1.5 -1.273,1.5 -1.352,1.426 -1.5,1.352 -1.574,1.347 -1.653,1.278 -1.722,1.199 -3.75,2.25 -2.028,0.977 -2.097,0.972 -2.102,0.824 -2.176,0.829 -2.25,0.671 -2.324,0.676 -2.398,0.528 -2.324,0.523 -2.477,0.375 -2.398,0.301 -2.477,0.222 -2.477,0.079 -2.472,0.074 -206.778,0.074 v -0.074 l -2.472,-0.074 -2.477,-0.079 -2.472,-0.222 -2.403,-0.301 -2.472,-0.375 -2.329,-0.523 -2.398,-0.528 -2.324,-0.676 -2.25,-0.671 -2.176,-0.829 -2.102,-0.824 -2.097,-0.972 -2.028,-0.977 -3.75,-2.25 -1.722,-1.199 -1.653,-1.278 -1.574,-1.347 -1.5,-1.352 -1.347,-1.426 -1.278,-1.5 -1.125,-1.5 -1.051,-1.574 -0.898,-1.574 -0.824,-1.648 -0.676,-1.653 -0.602,-1.648 -0.375,-1.727 -0.375,-1.648 -0.148,-1.727 -0.074,-1.722 0.074,-1.727 0.148,-1.727 0.375,-1.648 0.375,-1.727 0.602,-1.648 0.676,-1.648 0.824,-1.653 0.898,-1.574 1.051,-1.574 1.125,-1.5 1.278,-1.5 1.347,-1.426 1.5,-1.352 1.574,-1.347 1.653,-1.278 1.722,-1.199 3.75,-2.25 2.028,-0.972 2.097,-0.977 2.102,-0.824 2.176,-0.824 2.25,-0.676 2.324,-0.676 2.398,-0.523 2.329,-0.528 2.472,-0.375 2.403,-0.301 2.472,-0.222 2.477,-0.074 z"
           style="fill:#ffff99;fill-opacity:1;fill-rule:evenodd;stroke:#000000;stroke-width:3.9749999;stroke-linecap:butt;stroke-linejoin:miter;stroke-miterlimit:4;stroke-dasharray:none;stroke-opacity:1"
           id="path48"
           inkscape:connector-curvature="0" /></g><text
         transform="translate(1391.475,195.75)"
         style="font-variant:normal;font-weight:bold;font-size:30.14999962px;font-family:'Courier New';-inkscape-font-specification:CourierNewPS-BoldMT;writing-mode:lr-tb;fill:#000000;fill-opacity:1;fill-rule:nonzero;stroke:none"
         id="text52"><tspan
           x="0 18.09 36.18 54.27 72.360001 90.449997 108.54 126.63 144.72 162.81 180.89999 198.99001 217.08"
           y="0"
           sodipodi:role="line"
           id="tspan50">datum_pridani</tspan></text>
<g
         id="g54"><path
           d="m 1355.477,2.023 h 137.847 l 1.653,0.079 1.648,0.074 1.648,0.222 1.653,0.301 1.574,0.375 1.574,0.528 1.574,0.523 1.579,0.676 1.5,0.676 1.421,0.824 1.426,0.824 1.426,0.977 1.273,0.972 1.278,1.125 1.273,1.125 1.125,1.199 1.125,1.278 1.051,1.347 0.977,1.352 0.898,1.426 1.648,3 0.676,1.574 0.602,1.574 0.523,1.653 0.449,1.648 0.375,1.648 0.301,1.727 0.227,1.648 0.148,3.454 -0.074,1.722 -0.074,1.727 -0.227,1.648 -0.301,1.727 -0.375,1.648 -0.449,1.653 -0.523,1.648 -0.602,1.574 -0.676,1.574 -1.648,3 -0.898,1.426 -0.977,1.352 -1.051,1.347 -1.125,1.278 -1.125,1.199 -1.273,1.125 -1.278,1.125 -1.273,0.977 -1.426,0.972 -1.426,0.824 -1.421,0.829 -1.5,0.671 -1.579,0.676 -1.574,0.528 -1.574,0.523 -1.574,0.375 -1.653,0.301 -1.648,0.222 -1.648,0.079 -1.653,0.074 -137.847,0.074 v -0.074 l -1.653,-0.074 -1.648,-0.079 -1.653,-0.222 -1.648,-0.301 -1.574,-0.375 -1.574,-0.523 -1.579,-0.528 -1.574,-0.676 -1.5,-0.671 -1.426,-0.829 -1.421,-0.824 -1.426,-0.972 -1.278,-0.977 -2.546,-2.25 -1.125,-1.199 -1.125,-1.278 -1.051,-1.347 -0.977,-1.352 -0.898,-1.426 -0.824,-1.5 -0.829,-1.5 -0.671,-1.574 -0.602,-1.574 -0.523,-1.648 -0.454,-1.653 -0.375,-1.648 -0.296,-1.727 -0.227,-1.648 -0.074,-1.727 -0.074,-1.722 0.148,-3.454 0.227,-1.648 0.296,-1.727 0.375,-1.648 0.454,-1.648 0.523,-1.653 0.602,-1.574 0.671,-1.574 0.829,-1.5 0.824,-1.5 0.898,-1.426 0.977,-1.352 1.051,-1.347 1.125,-1.278 1.125,-1.199 2.546,-2.25 1.278,-0.972 1.426,-0.977 1.421,-0.824 1.426,-0.824 1.5,-0.676 1.574,-0.676 1.579,-0.523 1.574,-0.528 1.574,-0.375 1.648,-0.301 1.653,-0.222 1.648,-0.074 z"
           style="fill:#ffff99;fill-opacity:1;fill-rule:evenodd;stroke:#000000;stroke-width:3.9749999;stroke-linecap:butt;stroke-linejoin:miter;stroke-miterlimit:4;stroke-dasharray:none;stroke-opacity:1"
           id="path56"
           inkscape:connector-curvature="0" /></g><text
         transform="translate(1388.25,45.75)"
         style="font-variant:normal;font-weight:bold;font-size:30.14999962px;font-family:'Courier New';-inkscape-font-specification:CourierNewPS-BoldMT;writing-mode:lr-tb;fill:#000000;fill-opacity:1;fill-rule:nonzero;stroke:none"
         id="text60"><tspan
           x="0 18.09 36.18 54.27"
           y="0"
           sodipodi:role="line"
           id="tspan58">cena</tspan></text>
<g
         id="g62"><path
           d="m 984.148,84.301 0.227,33.824"
           style="fill:none;stroke:#000000;stroke-width:1.95000005;stroke-linecap:butt;stroke-linejoin:round;stroke-miterlimit:4;stroke-dasharray:none;stroke-opacity:1"
           id="path64"
           inkscape:connector-curvature="0" /></g><g
         id="g66"><path
           d="m 1119.602,118.125 0.296,33.898"
           style="fill:none;stroke:#000000;stroke-width:1.95000005;stroke-linecap:butt;stroke-linejoin:round;stroke-miterlimit:4;stroke-dasharray:none;stroke-opacity:1"
           id="path68"
           inkscape:connector-curvature="0" /></g><g
         id="g70"><path
           d="m 984.148,118.125 135.454,0.227"
           style="fill:none;stroke:#000000;stroke-width:1.95000005;stroke-linecap:butt;stroke-linejoin:round;stroke-miterlimit:4;stroke-dasharray:none;stroke-opacity:1"
           id="path72"
           inkscape:connector-curvature="0" /></g><g
         id="g74"><path
           d="m 1255.125,118.125 0.227,33.898"
           style="fill:none;stroke:#000000;stroke-width:1.95000005;stroke-linecap:butt;stroke-linejoin:round;stroke-miterlimit:4;stroke-dasharray:none;stroke-opacity:1"
           id="path76"
           inkscape:connector-curvature="0" /></g><g
         id="g78"><path
           d="m 1255.125,118.125 169.273,0.227"
           style="fill:none;stroke:#000000;stroke-width:1.95000005;stroke-linecap:butt;stroke-linejoin:round;stroke-miterlimit:4;stroke-dasharray:none;stroke-opacity:1"
           id="path80"
           inkscape:connector-curvature="0" /></g><g
         id="g82"><path
           d="m 1424.398,118.125 0.301,-33.824"
           style="fill:none;stroke:#000000;stroke-width:1.95000005;stroke-linecap:butt;stroke-linejoin:round;stroke-miterlimit:4;stroke-dasharray:none;stroke-opacity:1"
           id="path84"
           inkscape:connector-curvature="0" /></g><g
         id="g86"><path
           d="m 1288.949,185.852 67.727,0.222"
           style="fill:none;stroke:#000000;stroke-width:1.95000005;stroke-linecap:butt;stroke-linejoin:round;stroke-miterlimit:4;stroke-dasharray:none;stroke-opacity:1"
           id="path88"
           inkscape:connector-curvature="0" /></g><g
         id="g90"><path
           d="m 1255.125,219.75 0.227,33.824"
           style="fill:none;stroke:#000000;stroke-width:1.95000005;stroke-linecap:butt;stroke-linejoin:round;stroke-miterlimit:4;stroke-dasharray:none;stroke-opacity:1"
           id="path92"
           inkscape:connector-curvature="0" /></g><g
         id="g94"><path
           d="m 1492.199,253.574 0.227,33.903"
           style="fill:none;stroke:#000000;stroke-width:1.95000005;stroke-linecap:butt;stroke-linejoin:round;stroke-miterlimit:4;stroke-dasharray:none;stroke-opacity:1"
           id="path96"
           inkscape:connector-curvature="0" /></g><g
         id="g98"><path
           d="m 1255.125,253.574 237.074,0.227"
           style="fill:none;stroke:#000000;stroke-width:1.95000005;stroke-linecap:butt;stroke-linejoin:round;stroke-miterlimit:4;stroke-dasharray:none;stroke-opacity:1"
           id="path100"
           inkscape:connector-curvature="0" /></g><g
         id="g102"><path
           d="m 950.324,253.574 0.227,33.903"
           style="fill:none;stroke:#000000;stroke-width:1.95000005;stroke-linecap:butt;stroke-linejoin:round;stroke-miterlimit:4;stroke-dasharray:none;stroke-opacity:1"
           id="path104"
           inkscape:connector-curvature="0" /></g><g
         id="g106"><path
           d="m 1119.602,219.75 0.296,33.824"
           style="fill:none;stroke:#000000;stroke-width:1.95000005;stroke-linecap:butt;stroke-linejoin:round;stroke-miterlimit:4;stroke-dasharray:none;stroke-opacity:1"
           id="path108"
           inkscape:connector-curvature="0" /></g><g
         id="g110"><path
           d="m 950.324,253.574 169.278,0.227"
           style="fill:none;stroke:#000000;stroke-width:1.95000005;stroke-linecap:butt;stroke-linejoin:round;stroke-miterlimit:4;stroke-dasharray:none;stroke-opacity:1"
           id="path112"
           inkscape:connector-curvature="0" /></g><g
         id="g114"><path
           d="M 476.102,219.676 H 340.648 v -67.653 h 270.829 v 67.653 z"
           style="fill:#00ff00;fill-opacity:1;fill-rule:evenodd;stroke:#000000;stroke-width:3.9749999;stroke-linecap:butt;stroke-linejoin:miter;stroke-miterlimit:4;stroke-dasharray:none;stroke-opacity:1"
           id="path116"
           inkscape:connector-curvature="0" /></g><text
         transform="translate(374.55,199.5)"
         style="font-variant:normal;font-weight:bold;font-size:33.90000153px;font-family:'Courier New';-inkscape-font-specification:CourierNewPS-BoldMT;writing-mode:lr-tb;fill:#000000;fill-opacity:1;fill-rule:nonzero;stroke:none"
         id="text120"><tspan
           x="0 20.34 40.68 61.02 81.360001 101.7 122.04 142.38 162.72 183.06"
           y="0"
           sodipodi:role="line"
           id="tspan118">podskupiny</tspan></text>
<g
         id="g122"><path
           d="m 51,152.023 h 206.773 l 2.477,0.079 2.477,0.074 2.472,0.222 2.403,0.301 2.472,0.375 2.324,0.528 2.403,0.523 2.324,0.676 2.25,0.676 2.176,0.824 2.097,0.824 2.102,0.977 2.023,0.972 3.75,2.25 1.727,1.199 1.648,1.278 1.579,1.347 1.5,1.352 1.347,1.426 1.278,1.5 1.125,1.5 1.046,1.574 0.903,1.574 0.824,1.653 0.676,1.648 0.597,1.648 0.375,1.727 0.375,1.648 0.153,1.727 0.074,1.727 -0.074,1.722 -0.153,1.727 -0.375,1.648 -0.375,1.727 -0.597,1.648 -0.676,1.653 -0.824,1.648 -0.903,1.574 -1.046,1.574 -1.125,1.5 -1.278,1.5 -1.347,1.426 -1.5,1.352 -1.579,1.347 -1.648,1.278 -1.727,1.199 -3.75,2.25 -2.023,0.977 -2.102,0.972 -2.097,0.824 -2.176,0.829 -2.25,0.671 -2.324,0.676 -2.403,0.528 -2.324,0.523 -2.472,0.375 -2.403,0.301 -2.472,0.222 -2.477,0.079 -2.477,0.074 L 51,219.75 v -0.074 l -2.477,-0.074 -2.472,-0.079 -2.477,-0.222 -2.398,-0.301 -2.477,-0.375 -2.324,-0.523 -2.398,-0.528 -2.329,-0.676 -2.25,-0.671 -2.171,-0.829 -2.102,-0.824 -2.102,-0.972 -2.023,-0.977 -3.75,-2.25 -1.727,-1.199 -1.648,-1.278 -1.574,-1.347 -1.5,-1.352 -1.352,-1.426 -1.273,-1.5 -1.125,-1.5 L 6,199.199 5.102,197.625 4.273,195.977 3.602,194.324 3,192.676 2.625,190.949 2.25,189.301 2.102,187.574 2.023,185.852 2.102,184.125 2.25,182.398 2.625,180.75 3,179.023 3.602,177.375 4.273,175.727 5.102,174.074 6,172.5 l 1.051,-1.574 1.125,-1.5 1.273,-1.5 1.352,-1.426 1.5,-1.352 1.574,-1.347 1.648,-1.278 1.727,-1.199 3.75,-2.25 2.023,-0.972 2.102,-0.977 2.102,-0.824 2.171,-0.824 2.25,-0.676 2.329,-0.676 2.398,-0.523 2.324,-0.528 2.477,-0.375 2.398,-0.301 2.477,-0.222 2.472,-0.074 z"
           style="fill:#ff9900;fill-opacity:1;fill-rule:evenodd;stroke:#000000;stroke-width:3.9749999;stroke-linecap:butt;stroke-linejoin:miter;stroke-miterlimit:4;stroke-dasharray:none;stroke-opacity:1"
           id="path124"
           inkscape:connector-curvature="0" /></g><text
         transform="translate(36.825,195.75)"
         style="font-variant:normal;font-weight:bold;font-size:30.14999962px;font-family:'Courier New';-inkscape-font-specification:CourierNewPS-BoldMT;writing-mode:lr-tb;fill:#000000;fill-opacity:1;fill-rule:nonzero;stroke:none"
         id="text128"><tspan
           x="0 18.09 36.18 54.27 72.360001 90.449997 108.54 126.63 144.72 162.81 180.89999 198.99001 217.08"
           y="0"
           sodipodi:role="line"
           id="tspan126">id_podskupiny</tspan></text>
<g
         id="g130"><path
           d="m 384.227,16.574 h 183.671 l 2.176,0.074 2.25,0.079 2.176,0.222 2.176,0.301 2.176,0.375 2.097,0.523 2.102,0.528 2.023,0.676 2.028,0.671 1.949,0.829 1.875,0.824 1.875,0.972 1.801,0.977 3.296,2.25 1.579,1.199 1.5,1.278 2.699,2.699 1.199,1.426 1.125,1.5 1.051,1.5 0.898,1.574 0.824,1.574 0.676,1.648 0.602,1.653 0.523,1.648 0.375,1.727 0.301,1.648 0.148,1.727 0.079,1.722 -0.079,1.727 -0.148,1.727 -0.301,1.648 -0.375,1.727 -0.523,1.648 -0.602,1.648 -0.676,1.653 -0.824,1.574 -0.898,1.574 -1.051,1.5 -1.125,1.5 -1.199,1.426 -2.699,2.699 -1.5,1.278 -1.579,1.199 -3.296,2.25 -1.801,0.972 -1.875,0.977 -1.875,0.824 -1.949,0.824 -2.028,0.676 -2.023,0.676 -2.102,0.523 -2.097,0.528 -2.176,0.375 -2.176,0.301 -2.176,0.222 -2.25,0.074 -2.176,0.079 -183.671,0.074 v -0.074 l -2.176,-0.079 -2.25,-0.074 -2.176,-0.222 -2.176,-0.301 -2.176,-0.375 -2.097,-0.528 -2.102,-0.523 -2.023,-0.676 -2.028,-0.676 -1.949,-0.824 -1.875,-0.824 -1.875,-0.977 -1.801,-0.972 -3.296,-2.25 -1.579,-1.199 -1.5,-1.278 -2.699,-2.699 -1.199,-1.426 -1.125,-1.5 -1.051,-1.5 -0.898,-1.574 -0.824,-1.574 -0.676,-1.653 -0.602,-1.648 -0.523,-1.648 -0.375,-1.727 -0.301,-1.648 -0.148,-1.727 -0.079,-1.727 0.079,-1.722 0.148,-1.727 0.301,-1.648 0.375,-1.727 0.523,-1.648 0.602,-1.653 0.676,-1.648 0.824,-1.574 0.898,-1.574 1.051,-1.5 1.125,-1.5 1.199,-1.426 2.699,-2.699 1.5,-1.278 1.579,-1.199 3.296,-2.25 1.801,-0.977 1.875,-0.972 1.875,-0.824 1.949,-0.829 2.028,-0.671 2.023,-0.676 2.102,-0.528 2.097,-0.523 2.176,-0.375 2.176,-0.301 2.176,-0.222 2.25,-0.079 z"
           style="fill:#ffff99;fill-opacity:1;fill-rule:evenodd;stroke:#000000;stroke-width:3.9749999;stroke-linecap:butt;stroke-linejoin:miter;stroke-miterlimit:4;stroke-dasharray:none;stroke-opacity:1"
           id="path132"
           inkscape:connector-curvature="0" /></g><text
         transform="translate(385.65,60.3)"
         style="font-variant:normal;font-weight:bold;font-size:30.14999962px;font-family:'Courier New';-inkscape-font-specification:CourierNewPS-BoldMT;writing-mode:lr-tb;fill:#000000;fill-opacity:1;fill-rule:nonzero;stroke:none"
         id="text136"><tspan
           x="0 18.09 36.18 54.27 72.360001 90.449997 108.54 126.63 144.72 162.81"
           y="0"
           sodipodi:role="line"
           id="tspan134">podskupina</tspan></text>
<g
         id="g138"><path
           d="m 476.176,84.301 v 67.722"
           style="fill:none;stroke:#000000;stroke-width:1.95000005;stroke-linecap:butt;stroke-linejoin:round;stroke-miterlimit:4;stroke-dasharray:none;stroke-opacity:1"
           id="path140"
           inkscape:connector-curvature="0" /></g><g
         id="g142"><path
           d="m 306.824,185.852 33.903,0.222"
           style="fill:none;stroke:#000000;stroke-width:1.95000005;stroke-linecap:butt;stroke-linejoin:round;stroke-miterlimit:4;stroke-dasharray:none;stroke-opacity:1"
           id="path144"
           inkscape:connector-curvature="0" /></g><g
         id="g146"><path
           d="M 340.727,355.125 466.5,287.398 592.352,355.125 466.5,422.852 Z"
           style="fill:#ff99cc;fill-opacity:1;fill-rule:evenodd;stroke:#000000;stroke-width:3.9749999;stroke-linecap:butt;stroke-linejoin:miter;stroke-miterlimit:4;stroke-dasharray:none;stroke-opacity:1"
           id="path148"
           inkscape:connector-curvature="0" /></g><text
         transform="translate(357.675,365.85)"
         style="font-variant:normal;font-weight:bold;font-size:33.90000153px;font-family:'Courier New';-inkscape-font-specification:CourierNewPS-BoldMT;writing-mode:lr-tb;fill:#000000;fill-opacity:1;fill-rule:nonzero;stroke:none"
         id="text152"><tspan
           x="0 20.34 40.68 61.02 81.360001 101.7 122.04 142.38 162.72 183.06"
           y="0"
           sodipodi:role="line"
           id="tspan150">druh_zbozi</tspan></text>
<g
         id="g154"><path
           d="m 45.602,795.523 h 183.671 l 2.176,0.079 2.25,0.074 2.176,0.222 2.176,0.301 2.176,0.375 2.097,0.528 2.102,0.523 2.023,0.676 2.028,0.676 1.949,0.824 1.875,0.824 1.875,0.977 1.801,0.972 3.296,2.25 1.579,1.199 1.5,1.278 2.699,2.699 1.199,1.426 1.125,1.5 1.051,1.5 0.898,1.574 0.824,1.574 0.676,1.653 0.602,1.648 0.523,1.648 0.375,1.727 0.301,1.648 0.148,1.727 0.079,1.727 -0.079,1.722 -0.148,1.727 -0.301,1.648 -0.375,1.727 -0.523,1.648 -0.602,1.653 -0.676,1.648 -0.824,1.574 -0.898,1.574 -1.051,1.5 -1.125,1.5 -1.199,1.426 -2.699,2.699 -1.5,1.278 -1.579,1.199 -3.296,2.25 -1.801,0.977 -1.875,0.972 -1.875,0.824 -1.949,0.829 -2.028,0.671 -2.023,0.676 -2.102,0.528 -2.097,0.523 -2.176,0.375 -2.176,0.301 -2.176,0.222 -2.25,0.079 -2.176,0.074 -183.671,0.074 v -0.074 l -2.176,-0.074 -2.25,-0.079 -2.176,-0.222 -2.176,-0.301 -2.176,-0.375 -2.097,-0.523 -2.102,-0.528 -2.023,-0.676 -2.028,-0.671 -1.949,-0.829 -1.875,-0.824 -1.875,-0.972 -1.801,-0.977 -3.296,-2.25 -1.579,-1.199 -1.5,-1.278 -2.699,-2.699 -1.199,-1.426 -1.125,-1.5 -1.051,-1.5 -0.898,-1.574 -0.824,-1.574 -0.676,-1.648 -0.602,-1.653 -0.523,-1.648 -0.375,-1.727 -0.301,-1.648 -0.148,-1.727 -0.079,-1.722 0.079,-1.727 0.148,-1.727 0.301,-1.648 0.375,-1.727 0.523,-1.648 0.602,-1.648 0.676,-1.653 0.824,-1.574 0.898,-1.574 1.051,-1.5 1.125,-1.5 1.199,-1.426 2.699,-2.699 1.5,-1.278 1.579,-1.199 3.296,-2.25 1.801,-0.972 1.875,-0.977 1.875,-0.824 1.949,-0.824 2.028,-0.676 2.023,-0.676 2.102,-0.523 2.097,-0.528 2.176,-0.375 2.176,-0.301 2.176,-0.222 2.25,-0.074 z"
           style="fill:#ff9900;fill-opacity:1;fill-rule:evenodd;stroke:#000000;stroke-width:3.9749999;stroke-linecap:butt;stroke-linejoin:miter;stroke-miterlimit:4;stroke-dasharray:none;stroke-opacity:1"
           id="path156"
           inkscape:connector-curvature="0" /></g><text
         transform="translate(65.1,839.25)"
         style="font-variant:normal;font-weight:bold;font-size:30.14999962px;font-family:'Courier New';-inkscape-font-specification:CourierNewPS-BoldMT;writing-mode:lr-tb;fill:#000000;fill-opacity:1;fill-rule:nonzero;stroke:none"
         id="text160"><tspan
           x="0 18.09 36.18 54.27 72.360001 90.449997 108.54 126.63"
           y="0"
           sodipodi:role="line"
           id="tspan158">id_zbozi</tspan></text>
<g
         id="g162"><path
           d="m 45.602,693.898 h 183.671 l 2.176,0.079 2.25,0.074 2.176,0.222 2.176,0.301 2.176,0.375 2.097,0.528 2.102,0.523 2.023,0.676 2.028,0.676 1.949,0.824 1.875,0.824 1.875,0.977 1.801,0.972 3.296,2.25 1.579,1.199 1.5,1.278 2.699,2.699 1.199,1.426 1.125,1.5 1.051,1.5 0.898,1.574 0.824,1.574 0.676,1.653 0.602,1.648 0.523,1.648 0.375,1.727 0.301,1.648 0.148,1.727 0.079,1.727 -0.079,1.722 -0.148,1.727 -0.301,1.648 -0.375,1.727 -0.523,1.648 -0.602,1.653 -0.676,1.648 -0.824,1.574 -0.898,1.574 -1.051,1.5 -1.125,1.5 -1.199,1.426 -2.699,2.699 -1.5,1.278 -1.579,1.199 -3.296,2.25 -1.801,0.977 -1.875,0.972 -1.875,0.824 -1.949,0.829 -2.028,0.671 -2.023,0.676 -2.102,0.528 -2.097,0.523 -2.176,0.375 -2.176,0.301 -2.176,0.222 -2.25,0.079 -2.176,0.074 -183.671,0.074 v -0.074 l -2.176,-0.074 -2.25,-0.079 -2.176,-0.222 -2.176,-0.301 -2.176,-0.375 -2.097,-0.523 -2.102,-0.528 -2.023,-0.676 -2.028,-0.671 -1.949,-0.829 -1.875,-0.824 -1.875,-0.972 -1.801,-0.977 -3.296,-2.25 -1.579,-1.199 -1.5,-1.278 -2.699,-2.699 -1.199,-1.426 -1.125,-1.5 -1.051,-1.5 L 5.551,741.074 4.727,739.5 4.051,737.852 3.449,736.199 2.926,734.551 2.551,732.824 2.25,731.176 2.102,729.449 2.023,727.727 2.102,726 l 0.148,-1.727 0.301,-1.648 0.375,-1.727 0.523,-1.648 0.602,-1.648 0.676,-1.653 0.824,-1.574 0.898,-1.574 1.051,-1.5 1.125,-1.5 1.199,-1.426 2.699,-2.699 1.5,-1.278 1.579,-1.199 3.296,-2.25 1.801,-0.972 1.875,-0.977 1.875,-0.824 1.949,-0.824 2.028,-0.676 2.023,-0.676 2.102,-0.523 2.097,-0.528 2.176,-0.375 2.176,-0.301 2.176,-0.222 2.25,-0.074 z"
           style="fill:#ffff99;fill-opacity:1;fill-rule:evenodd;stroke:#000000;stroke-width:3.9749999;stroke-linecap:butt;stroke-linejoin:miter;stroke-miterlimit:4;stroke-dasharray:none;stroke-opacity:1"
           id="path164"
           inkscape:connector-curvature="0" /></g><text
         transform="translate(92.25,737.625)"
         style="font-variant:normal;font-weight:bold;font-size:30.14999962px;font-family:'Courier New';-inkscape-font-specification:CourierNewPS-BoldMT;writing-mode:lr-tb;fill:#000000;fill-opacity:1;fill-rule:nonzero;stroke:none"
         id="text168"><tspan
           x="0 18.09 36.18 54.27 72.360001"
           y="0"
           sodipodi:role="line"
           id="tspan166">popis</tspan></text>
<g
         id="g170"><path
           d="m 45.602,592.273 h 183.671 l 2.176,0.079 2.25,0.074 2.176,0.222 2.176,0.301 2.176,0.375 2.097,0.528 2.102,0.523 2.023,0.676 2.028,0.676 1.949,0.824 1.875,0.824 1.875,0.977 1.801,0.972 3.296,2.25 1.579,1.199 1.5,1.278 2.699,2.699 1.199,1.426 1.125,1.5 1.051,1.5 0.898,1.574 0.824,1.574 0.676,1.653 0.602,1.648 0.523,1.648 0.375,1.727 0.301,1.648 0.148,1.727 0.079,1.727 -0.079,1.722 -0.148,1.727 -0.301,1.648 -0.375,1.727 -0.523,1.648 -0.602,1.653 -0.676,1.648 -0.824,1.574 -0.898,1.574 -1.051,1.5 -1.125,1.5 -1.199,1.426 -2.699,2.699 -1.5,1.278 -1.579,1.199 -3.296,2.25 -1.801,0.977 -1.875,0.972 -1.875,0.824 -1.949,0.829 -2.028,0.671 -2.023,0.676 -2.102,0.528 -2.097,0.523 -2.176,0.375 -2.176,0.301 -2.176,0.222 -2.25,0.079 -2.176,0.074 L 45.602,660 v -0.074 l -2.176,-0.074 -2.25,-0.079 -2.176,-0.222 -2.176,-0.301 -2.176,-0.375 -2.097,-0.523 -2.102,-0.528 -2.023,-0.676 -2.028,-0.671 -1.949,-0.829 -1.875,-0.824 -1.875,-0.972 -1.801,-0.977 -3.296,-2.25 -1.579,-1.199 -1.5,-1.278 -2.699,-2.699 -1.199,-1.426 -1.125,-1.5 -1.051,-1.5 -0.898,-1.574 -0.824,-1.574 -0.676,-1.648 -0.602,-1.653 -0.523,-1.648 -0.375,-1.727 -0.301,-1.648 -0.148,-1.727 -0.079,-1.722 0.079,-1.727 0.148,-1.727 0.301,-1.648 0.375,-1.727 0.523,-1.648 0.602,-1.648 0.676,-1.653 0.824,-1.574 0.898,-1.574 1.051,-1.5 1.125,-1.5 1.199,-1.426 2.699,-2.699 1.5,-1.278 1.579,-1.199 3.296,-2.25 1.801,-0.972 1.875,-0.977 1.875,-0.824 1.949,-0.824 2.028,-0.676 2.023,-0.676 2.102,-0.523 2.097,-0.528 2.176,-0.375 2.176,-0.301 2.176,-0.222 2.25,-0.074 z"
           style="fill:#ffff99;fill-opacity:1;fill-rule:evenodd;stroke:#000000;stroke-width:3.9749999;stroke-linecap:butt;stroke-linejoin:miter;stroke-miterlimit:4;stroke-dasharray:none;stroke-opacity:1"
           id="path172"
           inkscape:connector-curvature="0" /></g><text
         transform="translate(110.325,636)"
         style="font-variant:normal;font-weight:bold;font-size:30.14999962px;font-family:'Courier New';-inkscape-font-specification:CourierNewPS-BoldMT;writing-mode:lr-tb;fill:#000000;fill-opacity:1;fill-rule:nonzero;stroke:none"
         id="text176"><tspan
           x="0 18.09 36.18"
           y="0"
           sodipodi:role="line"
           id="tspan174">rok</tspan></text>
<g
         id="g178"><path
           d="m 45.602,490.727 h 183.671 l 2.176,0.074 2.25,0.074 2.176,0.227 2.176,0.296 2.176,0.375 2.097,0.528 2.102,0.523 2.023,0.676 2.028,0.676 1.949,0.824 1.875,0.824 1.875,0.977 1.801,0.972 3.296,2.25 1.579,1.204 1.5,1.273 1.347,1.352 1.352,1.347 1.199,1.426 1.125,1.5 1.051,1.5 0.898,1.574 0.824,1.574 0.676,1.653 0.602,1.648 0.523,1.653 0.375,1.722 0.301,1.653 0.148,1.722 0.079,1.727 -0.079,1.722 -0.148,1.727 -0.301,1.648 -0.375,1.727 -0.523,1.648 -0.602,1.653 -0.676,1.648 -0.824,1.574 -0.898,1.579 -1.051,1.5 -1.125,1.5 -1.199,1.421 -1.352,1.352 -1.347,1.352 -1.5,1.273 -1.579,1.199 -3.296,2.25 -1.801,0.977 -1.875,0.972 -1.875,0.829 -1.949,0.824 -2.028,0.676 -2.023,0.671 -2.102,0.528 -2.097,0.523 -2.176,0.375 -2.176,0.301 -2.176,0.227 -2.25,0.074 -2.176,0.074 -183.671,0.074 v -0.074 l -2.176,-0.074 -2.25,-0.074 L 39,558 l -2.176,-0.301 -2.176,-0.375 -2.097,-0.523 -2.102,-0.528 -2.023,-0.671 -2.028,-0.676 -1.949,-0.824 -1.875,-0.829 -1.875,-0.972 -1.801,-0.977 -3.296,-2.25 -1.579,-1.199 -1.5,-1.273 -1.347,-1.352 -1.352,-1.352 -1.199,-1.421 -1.125,-1.5 -1.051,-1.5 L 5.551,537.898 4.727,536.324 4.051,534.676 3.449,533.023 2.926,531.375 2.551,529.648 2.25,528 l -0.148,-1.727 -0.079,-1.722 0.079,-1.727 0.148,-1.722 0.301,-1.653 0.375,-1.722 0.523,-1.653 0.602,-1.648 0.676,-1.653 0.824,-1.574 0.898,-1.574 1.051,-1.5 1.125,-1.5 1.199,-1.426 1.352,-1.347 1.347,-1.352 1.5,-1.273 1.579,-1.204 3.296,-2.25 1.801,-0.972 1.875,-0.977 1.875,-0.824 1.949,-0.824 2.028,-0.676 2.023,-0.676 2.102,-0.523 2.097,-0.528 2.176,-0.375 2.176,-0.296 2.176,-0.227 2.25,-0.074 z"
           style="fill:#ffff99;fill-opacity:1;fill-rule:evenodd;stroke:#000000;stroke-width:3.9749999;stroke-linecap:butt;stroke-linejoin:miter;stroke-miterlimit:4;stroke-dasharray:none;stroke-opacity:1"
           id="path180"
           inkscape:connector-curvature="0" /></g><text
         transform="translate(110.325,534.45)"
         style="font-variant:normal;font-weight:bold;font-size:30.14999962px;font-family:'Courier New';-inkscape-font-specification:CourierNewPS-BoldMT;writing-mode:lr-tb;fill:#000000;fill-opacity:1;fill-rule:nonzero;stroke:none"
         id="text184"><tspan
           x="0 18.09 36.18"
           y="0"
           sodipodi:role="line"
           id="tspan182">typ</tspan></text>
<g
         id="g186"><path
           d="m 45.602,389.102 h 183.671 l 2.176,0.074 2.25,0.074 2.176,0.227 2.176,0.296 2.176,0.375 2.097,0.528 2.102,0.523 2.023,0.676 2.028,0.676 1.949,0.824 1.875,0.824 1.875,0.977 1.801,0.972 3.296,2.25 1.579,1.204 1.5,1.273 1.347,1.352 1.352,1.347 1.199,1.426 1.125,1.5 1.051,1.5 0.898,1.574 0.824,1.574 0.676,1.653 0.602,1.648 0.523,1.653 0.375,1.722 0.301,1.653 0.148,1.722 0.079,1.727 -0.079,1.722 -0.148,1.727 -0.301,1.648 -0.375,1.727 -0.523,1.648 -0.602,1.653 -0.676,1.648 -0.824,1.574 -0.898,1.579 -1.051,1.5 -1.125,1.5 -1.199,1.421 -1.352,1.352 -1.347,1.352 -1.5,1.273 -1.579,1.199 -3.296,2.25 -1.801,0.977 -1.875,0.972 -1.875,0.829 -1.949,0.824 -2.028,0.676 -2.023,0.671 -2.102,0.528 -2.097,0.523 -2.176,0.375 -2.176,0.301 -2.176,0.227 -2.25,0.074 -2.176,0.074 -183.671,0.074 v -0.074 l -2.176,-0.074 -2.25,-0.074 -2.176,-0.227 -2.176,-0.301 -2.176,-0.375 -2.097,-0.523 -2.102,-0.528 -2.023,-0.671 -2.028,-0.676 -1.949,-0.824 -1.875,-0.829 -1.875,-0.972 -1.801,-0.977 -3.296,-2.25 -1.579,-1.199 -1.5,-1.273 -1.347,-1.352 -1.352,-1.352 -1.199,-1.421 -1.125,-1.5 -1.051,-1.5 -0.898,-1.579 -0.824,-1.574 -0.676,-1.648 -0.602,-1.653 -0.523,-1.648 -0.375,-1.727 -0.301,-1.648 -0.148,-1.727 -0.079,-1.722 0.079,-1.727 0.148,-1.722 0.301,-1.653 0.375,-1.722 0.523,-1.653 0.602,-1.648 0.676,-1.653 0.824,-1.574 L 6.449,408 7.5,406.5 8.625,405 l 1.199,-1.426 1.352,-1.347 1.347,-1.352 1.5,-1.273 1.579,-1.204 3.296,-2.25 1.801,-0.972 1.875,-0.977 1.875,-0.824 1.949,-0.824 2.028,-0.676 2.023,-0.676 2.102,-0.523 2.097,-0.528 2.176,-0.375 2.176,-0.296 2.176,-0.227 2.25,-0.074 z"
           style="fill:#ffff99;fill-opacity:1;fill-rule:evenodd;stroke:#000000;stroke-width:3.9749999;stroke-linecap:butt;stroke-linejoin:miter;stroke-miterlimit:4;stroke-dasharray:none;stroke-opacity:1"
           id="path188"
           inkscape:connector-curvature="0" /></g><text
         transform="translate(92.25,432.825)"
         style="font-variant:normal;font-weight:bold;font-size:30.14999962px;font-family:'Courier New';-inkscape-font-specification:CourierNewPS-BoldMT;writing-mode:lr-tb;fill:#000000;fill-opacity:1;fill-rule:nonzero;stroke:none"
         id="text192"><tspan
           x="0 18.09 36.18 54.27 72.360001"
           y="0"
           sodipodi:role="line"
           id="tspan190">jmeno</tspan></text>
<g
         id="g194"><path
           d="M 442.273,727.648 H 374.551 V 524.551 h 135.375 v 203.097 z"
           style="fill:#00ff00;fill-opacity:1;fill-rule:evenodd;stroke:#000000;stroke-width:3.9749999;stroke-linecap:butt;stroke-linejoin:miter;stroke-miterlimit:4;stroke-dasharray:none;stroke-opacity:1"
           id="path196"
           inkscape:connector-curvature="0" /></g><text
         transform="translate(391.5,572.025)"
         style="font-variant:normal;font-weight:bold;font-size:33.90000153px;font-family:'Courier New';-inkscape-font-specification:CourierNewPS-BoldMT;writing-mode:lr-tb;fill:#000000;fill-opacity:1;fill-rule:nonzero;stroke:none"
         id="text200"><tspan
           x="0 20.34 40.68 61.02 81.360001"
           y="0"
           sodipodi:role="line"
           id="tspan198">zbozi</tspan></text>
<g
         id="g202"><path
           d="m 273,422.926 h 67.727"
           style="fill:none;stroke:#000000;stroke-width:1.95000005;stroke-linecap:butt;stroke-linejoin:round;stroke-miterlimit:4;stroke-dasharray:none;stroke-opacity:1"
           id="path204"
           inkscape:connector-curvature="0" /></g><g
         id="g206"><path
           d="m 273,829.352 67.727,0.222"
           style="fill:none;stroke:#000000;stroke-width:1.95000005;stroke-linecap:butt;stroke-linejoin:round;stroke-miterlimit:4;stroke-dasharray:none;stroke-opacity:1"
           id="path208"
           inkscape:connector-curvature="0" /></g><g
         id="g210"><path
           d="m 340.727,422.926 0.222,135.449"
           style="fill:none;stroke:#000000;stroke-width:1.95000005;stroke-linecap:butt;stroke-linejoin:round;stroke-miterlimit:4;stroke-dasharray:none;stroke-opacity:1"
           id="path212"
           inkscape:connector-curvature="0" /></g><g
         id="g214"><path
           d="m 340.727,829.352 0.222,-135.454"
           style="fill:none;stroke:#000000;stroke-width:1.95000005;stroke-linecap:butt;stroke-linejoin:round;stroke-miterlimit:4;stroke-dasharray:none;stroke-opacity:1"
           id="path216"
           inkscape:connector-curvature="0" /></g><g
         id="g218"><path
           d="m 273,727.727 h 33.824"
           style="fill:none;stroke:#000000;stroke-width:1.95000005;stroke-linecap:butt;stroke-linejoin:round;stroke-miterlimit:4;stroke-dasharray:none;stroke-opacity:1"
           id="path220"
           inkscape:connector-curvature="0" /></g><g
         id="g222"><path
           d="m 273,524.551 h 33.824"
           style="fill:none;stroke:#000000;stroke-width:1.95000005;stroke-linecap:butt;stroke-linejoin:round;stroke-miterlimit:4;stroke-dasharray:none;stroke-opacity:1"
           id="path224"
           inkscape:connector-curvature="0" /></g><g
         id="g226"><path
           d="M 273,626.102 H 374.551"
           style="fill:none;stroke:#000000;stroke-width:1.95000005;stroke-linecap:butt;stroke-linejoin:round;stroke-miterlimit:4;stroke-dasharray:none;stroke-opacity:1"
           id="path228"
           inkscape:connector-curvature="0" /></g><g
         id="g230"><path
           d="m 340.727,558.375 33.824,0.227"
           style="fill:none;stroke:#000000;stroke-width:1.95000005;stroke-linecap:butt;stroke-linejoin:round;stroke-miterlimit:4;stroke-dasharray:none;stroke-opacity:1"
           id="path232"
           inkscape:connector-curvature="0" /></g><g
         id="g234"><path
           d="m 340.727,693.898 33.824,0.227"
           style="fill:none;stroke:#000000;stroke-width:1.95000005;stroke-linecap:butt;stroke-linejoin:round;stroke-miterlimit:4;stroke-dasharray:none;stroke-opacity:1"
           id="path236"
           inkscape:connector-curvature="0" /></g><g
         id="g238"><path
           d="M 374.551,592.273 306.824,592.5"
           style="fill:none;stroke:#000000;stroke-width:1.95000005;stroke-linecap:butt;stroke-linejoin:round;stroke-miterlimit:4;stroke-dasharray:none;stroke-opacity:1"
           id="path240"
           inkscape:connector-curvature="0" /></g><g
         id="g242"><path
           d="M 374.551,660 H 306.824"
           style="fill:none;stroke:#000000;stroke-width:1.95000005;stroke-linecap:butt;stroke-linejoin:round;stroke-miterlimit:4;stroke-dasharray:none;stroke-opacity:1"
           id="path244"
           inkscape:connector-curvature="0" /></g><g
         id="g246"><path
           d="m 306.824,524.551 v 67.722"
           style="fill:none;stroke:#000000;stroke-width:1.95000005;stroke-linecap:butt;stroke-linejoin:round;stroke-miterlimit:4;stroke-dasharray:none;stroke-opacity:1"
           id="path248"
           inkscape:connector-curvature="0" /></g><g
         id="g250"><path
           d="M 306.824,727.727 V 660"
           style="fill:none;stroke:#000000;stroke-width:1.95000005;stroke-linecap:butt;stroke-linejoin:round;stroke-miterlimit:4;stroke-dasharray:none;stroke-opacity:1"
           id="path252"
           inkscape:connector-curvature="0" /></g><g
         id="g254"><path
           d="M 476.176,422.926 V 524.551"
           style="fill:none;stroke:#000000;stroke-width:1.95000005;stroke-linecap:butt;stroke-linejoin:round;stroke-miterlimit:4;stroke-dasharray:none;stroke-opacity:1"
           id="path256"
           inkscape:connector-curvature="0" /></g><g
         id="g258"><path
           d="M 476.176,287.477 V 219.75"
           style="fill:none;stroke:#000000;stroke-width:1.95000005;stroke-linecap:butt;stroke-linejoin:round;stroke-miterlimit:4;stroke-dasharray:none;stroke-opacity:1"
           id="path260"
           inkscape:connector-curvature="0" /></g><text
         transform="translate(415.2,490.65)"
         style="font-variant:normal;font-weight:bold;font-size:33.90000153px;font-family:'Courier New';-inkscape-font-specification:CourierNewPS-BoldMT;writing-mode:lr-tb;fill:#000000;fill-opacity:1;fill-rule:nonzero;stroke:none"
         id="text266"><tspan
           x="0"
           y="0"
           id="tspan262">M</tspan><tspan
           x="0"
           y="-203.175"
           id="tspan264">N</tspan></text>
<g
         id="g268"><path
           d="m 1029.301,422.926 167.773,-67.727 167.778,67.727 -167.778,67.722 z"
           style="fill:#ff99cc;fill-opacity:1;fill-rule:evenodd;stroke:#000000;stroke-width:3.9749999;stroke-linecap:butt;stroke-linejoin:miter;stroke-miterlimit:4;stroke-dasharray:none;stroke-opacity:1"
           id="path270"
           inkscape:connector-curvature="0" /></g><text
         transform="translate(1096.05,433.575)"
         style="font-variant:normal;font-weight:bold;font-size:33.90000153px;font-family:'Courier New';-inkscape-font-specification:CourierNewPS-BoldMT;writing-mode:lr-tb;fill:#000000;fill-opacity:1;fill-rule:nonzero;stroke:none"
         id="text274"><tspan
           x="0 20.34 40.68 61.02 81.360001 101.7 122.04 142.38"
           y="0"
           sodipodi:role="line"
           id="tspan272">na sklad</tspan></text>
<text
         transform="translate(1258.77,433.575)"
         style="font-variant:normal;font-weight:bold;font-size:33.90000153px;font-family:'Courier New';-inkscape-font-specification:CourierNewPS-BoldMT;writing-mode:lr-tb;fill:#000000;fill-opacity:1;fill-rule:nonzero;stroke:none"
         id="text278"><tspan
           x="0"
           y="0"
           id="tspan276">ě</tspan></text>
<g
         id="g280"><path
           d="M 1187.398,219.75 V 355.199"
           style="fill:none;stroke:#000000;stroke-width:5.32499981;stroke-linecap:butt;stroke-linejoin:round;stroke-miterlimit:4;stroke-dasharray:none;stroke-opacity:1"
           id="path282"
           inkscape:connector-curvature="0" /></g><g
         id="g284"><path
           d="m 510,626.102 h 67.801"
           style="fill:none;stroke:#000000;stroke-width:1.95000005;stroke-linecap:butt;stroke-linejoin:round;stroke-miterlimit:4;stroke-dasharray:none;stroke-opacity:1"
           id="path286"
           inkscape:connector-curvature="0" /></g><g
         id="g288"><path
           d="M 1018.051,422.926 H 577.801"
           style="fill:none;stroke:#000000;stroke-width:1.95000005;stroke-linecap:butt;stroke-linejoin:round;stroke-miterlimit:4;stroke-dasharray:none;stroke-opacity:1"
           id="path290"
           inkscape:connector-curvature="0" /></g><g
         id="g292"><path
           d="M 577.801,422.926 V 626.102"
           style="fill:none;stroke:#000000;stroke-width:1.95000005;stroke-linecap:butt;stroke-linejoin:round;stroke-miterlimit:4;stroke-dasharray:none;stroke-opacity:1"
           id="path294"
           inkscape:connector-curvature="0" /></g><text
         transform="translate(543.9,592.275)"
         style="font-variant:normal;font-weight:bold;font-size:33.90000153px;font-family:'Courier New';-inkscape-font-specification:CourierNewPS-BoldMT;writing-mode:lr-tb;fill:#000000;fill-opacity:1;fill-rule:nonzero;stroke:none"
         id="text300"><tspan
           x="0"
           y="0"
           id="tspan296">1</tspan><tspan
           x="684.15002"
           y="-270.97501"
           id="tspan298">M</tspan></text>
<g
         id="g302"><path
           d="M 442.273,1066.352 H 340.727 v -67.653 h 203.097 v 67.653 z"
           style="fill:#ccffff;fill-opacity:1;fill-rule:evenodd;stroke:#000000;stroke-width:7.94999981;stroke-linecap:butt;stroke-linejoin:miter;stroke-miterlimit:4;stroke-dasharray:none;stroke-opacity:1"
           id="path304"
           inkscape:connector-curvature="0" /></g><text
         transform="translate(371.175,1046.175)"
         style="font-variant:normal;font-weight:bold;font-size:33.90000153px;font-family:'Courier New';-inkscape-font-specification:CourierNewPS-BoldMT;writing-mode:lr-tb;fill:#000000;fill-opacity:1;fill-rule:nonzero;stroke:none"
         id="text308"><tspan
           x="0 20.34 40.68 61.02 81.360001 101.7 122.04"
           y="0"
           sodipodi:role="line"
           id="tspan306">polozky</tspan></text>
<g
         id="g310"><path
           d="m 45.602,897.074 h 183.671 l 2.176,0.074 2.25,0.079 2.176,0.222 2.176,0.301 2.176,0.375 2.097,0.523 2.102,0.528 2.023,0.676 2.028,0.671 1.949,0.829 1.875,0.824 1.875,0.972 1.801,0.977 3.296,2.25 1.579,1.199 1.5,1.278 2.699,2.699 1.199,1.426 1.125,1.5 1.051,1.5 0.898,1.574 0.824,1.574 0.676,1.648 0.602,1.653 0.523,1.648 0.375,1.727 0.301,1.648 0.148,1.727 0.079,1.722 -0.079,1.727 -0.148,1.727 -0.301,1.648 -0.375,1.727 -0.523,1.648 -0.602,1.648 -0.676,1.653 -0.824,1.574 -0.898,1.574 -1.051,1.5 -1.125,1.5 -1.199,1.426 -2.699,2.699 -1.5,1.278 -1.579,1.199 -3.296,2.25 -1.801,0.972 -1.875,0.977 -1.875,0.824 -1.949,0.824 -2.028,0.676 -2.023,0.676 -2.102,0.523 -2.097,0.528 -2.176,0.375 -2.176,0.301 -2.176,0.222 -2.25,0.074 -2.176,0.079 -183.671,0.074 v -0.074 l -2.176,-0.079 -2.25,-0.074 -2.176,-0.222 -2.176,-0.301 -2.176,-0.375 -2.097,-0.528 -2.102,-0.523 -2.023,-0.676 -2.028,-0.676 -1.949,-0.824 -1.875,-0.824 -1.875,-0.977 -1.801,-0.972 -3.296,-2.25 -1.579,-1.199 -1.5,-1.278 -2.699,-2.699 -1.199,-1.426 -1.125,-1.5 -1.051,-1.5 L 5.551,944.25 4.727,942.676 4.051,941.023 3.449,939.375 2.926,937.727 2.551,936 2.25,934.352 l -0.148,-1.727 -0.079,-1.727 0.079,-1.722 0.148,-1.727 0.301,-1.648 0.375,-1.727 0.523,-1.648 0.602,-1.653 0.676,-1.648 0.824,-1.574 0.898,-1.574 1.051,-1.5 1.125,-1.5 1.199,-1.426 2.699,-2.699 1.5,-1.278 1.579,-1.199 3.296,-2.25 1.801,-0.977 1.875,-0.972 1.875,-0.824 1.949,-0.829 2.028,-0.671 2.023,-0.676 2.102,-0.528 2.097,-0.523 2.176,-0.375 2.176,-0.301 2.176,-0.222 2.25,-0.079 z"
           style="fill:#ffff99;fill-opacity:1;fill-rule:evenodd;stroke:#000000;stroke-width:3.9749999;stroke-linecap:butt;stroke-linejoin:miter;stroke-miterlimit:4;stroke-dasharray:none;stroke-opacity:1"
           id="path312"
           inkscape:connector-curvature="0" /></g><text
         transform="translate(92.25,940.8)"
         style="font-variant:normal;font-weight:bold;font-size:30.14999962px;font-family:'Courier New';-inkscape-font-specification:CourierNewPS-BoldMT;writing-mode:lr-tb;fill:#000000;fill-opacity:1;fill-rule:nonzero;stroke:none"
         id="text316"><tspan
           x="0 18.09 36.18 54.27 72.360001"
           y="0"
           sodipodi:role="line"
           id="tspan314">datum</tspan></text>
<g
         id="g318"><path
           d="m 45.602,998.699 h 183.671 l 2.176,0.074 2.25,0.079 2.176,0.222 2.176,0.301 2.176,0.375 2.097,0.523 2.102,0.528 2.023,0.676 2.028,0.671 1.949,0.829 1.875,0.824 1.875,0.972 1.801,0.977 3.296,2.25 1.579,1.199 1.5,1.278 2.699,2.699 1.199,1.426 1.125,1.5 1.051,1.5 0.898,1.574 0.824,1.574 0.676,1.648 0.602,1.653 0.523,1.648 0.375,1.727 0.301,1.648 0.148,1.727 0.079,1.722 -0.079,1.727 -0.148,1.727 -0.301,1.648 -0.375,1.727 -0.523,1.648 -0.602,1.648 -0.676,1.653 -0.824,1.574 -0.898,1.574 -1.051,1.5 -1.125,1.5 -1.199,1.426 -2.699,2.699 -1.5,1.278 -1.579,1.199 -3.296,2.25 -1.801,0.972 -1.875,0.977 -1.875,0.824 -1.949,0.824 -2.028,0.676 -2.023,0.676 -2.102,0.523 -2.097,0.528 -2.176,0.375 -2.176,0.301 -2.176,0.222 -2.25,0.074 -2.176,0.079 -183.671,0.074 v -0.074 l -2.176,-0.079 -2.25,-0.074 -2.176,-0.222 -2.176,-0.301 -2.176,-0.375 -2.097,-0.528 -2.102,-0.523 -2.023,-0.676 -2.028,-0.676 -1.949,-0.824 -1.875,-0.824 -1.875,-0.977 -1.801,-0.972 -3.296,-2.25 -1.579,-1.199 -1.5,-1.278 -2.699,-2.699 -1.199,-1.426 -1.125,-1.5 -1.051,-1.5 -0.898,-1.574 -0.824,-1.574 -0.676,-1.653 -0.602,-1.648 -0.523,-1.648 -0.375,-1.727 -0.301,-1.648 -0.148,-1.727 -0.079,-1.727 0.079,-1.722 0.148,-1.727 0.301,-1.648 0.375,-1.727 0.523,-1.648 0.602,-1.653 0.676,-1.648 0.824,-1.574 0.898,-1.574 1.051,-1.5 1.125,-1.5 1.199,-1.426 2.699,-2.699 1.5,-1.278 1.579,-1.199 3.296,-2.25 1.801,-0.977 1.875,-0.972 1.875,-0.824 1.949,-0.829 2.028,-0.671 2.023,-0.676 2.102,-0.528 2.097,-0.523 2.176,-0.375 2.176,-0.301 2.176,-0.222 2.25,-0.079 z"
           style="fill:#ffff99;fill-opacity:1;fill-rule:evenodd;stroke:#000000;stroke-width:3.9749999;stroke-linecap:butt;stroke-linejoin:miter;stroke-miterlimit:4;stroke-dasharray:none;stroke-opacity:1"
           id="path320"
           inkscape:connector-curvature="0" /></g><text
         transform="translate(65.1,1042.425)"
         style="font-variant:normal;font-weight:bold;font-size:30.14999962px;font-family:'Courier New';-inkscape-font-specification:CourierNewPS-BoldMT;writing-mode:lr-tb;fill:#000000;fill-opacity:1;fill-rule:nonzero;stroke:none"
         id="text324"><tspan
           x="0 18.09 36.18 54.27 72.360001 90.449997 108.54 126.63"
           y="0"
           sodipodi:role="line"
           id="tspan322">mnozstvi</tspan></text>
<g
         id="g326"><path
           d="m 655.199,998.699 h 183.676 l 2.176,0.074 2.25,0.079 2.176,0.222 2.171,0.301 2.176,0.375 2.102,0.523 2.097,0.528 2.028,0.676 2.023,0.671 1.949,0.829 1.875,0.824 1.875,0.972 1.801,0.977 1.653,1.125 1.648,1.125 1.574,1.199 1.5,1.278 1.352,1.347 1.347,1.352 1.204,1.426 1.125,1.5 1.046,1.5 0.903,1.574 0.824,1.574 0.676,1.648 0.597,1.653 0.528,1.648 0.375,1.727 0.301,1.648 0.148,1.727 0.074,1.722 -0.074,1.727 -0.148,1.727 -0.301,1.648 -0.375,1.727 -0.528,1.648 -0.597,1.648 -0.676,1.653 -0.824,1.574 -0.903,1.574 -1.046,1.5 -1.125,1.5 -1.204,1.426 -1.347,1.352 -1.352,1.347 -1.5,1.278 -1.574,1.199 -1.648,1.125 -1.653,1.125 -1.801,0.972 -1.875,0.977 -1.875,0.824 -1.949,0.824 -2.023,0.676 -2.028,0.676 -2.097,0.523 -2.102,0.528 -2.176,0.375 -2.171,0.301 -2.176,0.222 -2.25,0.074 -2.176,0.079 -183.676,0.074 v -0.074 l -2.176,-0.079 -2.25,-0.074 -2.171,-0.222 -2.176,-0.301 -2.176,-0.375 -2.102,-0.528 -2.097,-0.523 -2.028,-0.676 -2.023,-0.676 -1.949,-0.824 -1.875,-0.824 -1.875,-0.977 -1.801,-0.972 -1.648,-1.125 -1.653,-1.125 -1.574,-1.199 -1.5,-1.278 -1.352,-1.347 -1.347,-1.352 -1.199,-1.426 -1.125,-1.5 -1.051,-1.5 -0.903,-1.574 -0.824,-1.574 -0.676,-1.653 -0.597,-1.648 -0.528,-1.648 -0.375,-1.727 -0.296,-1.648 -0.153,-1.727 -0.074,-1.727 0.074,-1.722 0.153,-1.727 0.296,-1.648 0.375,-1.727 0.528,-1.648 0.597,-1.653 0.676,-1.648 0.824,-1.574 0.903,-1.574 1.051,-1.5 1.125,-1.5 1.199,-1.426 1.347,-1.352 1.352,-1.347 1.5,-1.278 1.574,-1.199 1.653,-1.125 1.648,-1.125 1.801,-0.977 1.875,-0.972 1.875,-0.824 1.949,-0.829 2.023,-0.671 2.028,-0.676 2.097,-0.528 2.102,-0.523 2.176,-0.375 2.176,-0.301 2.171,-0.222 2.25,-0.079 z"
           style="fill:#ff9900;fill-opacity:1;fill-rule:evenodd;stroke:#000000;stroke-width:3.9749999;stroke-linecap:butt;stroke-linejoin:miter;stroke-miterlimit:4;stroke-dasharray:none;stroke-opacity:1"
           id="path328"
           inkscape:connector-curvature="0" /></g><text
         transform="translate(656.625,1042.425)"
         style="font-variant:normal;font-weight:bold;font-size:30.14999962px;font-family:'Courier New';-inkscape-font-specification:CourierNewPS-BoldMT;writing-mode:lr-tb;fill:#000000;fill-opacity:1;fill-rule:nonzero;stroke:none"
         id="text332"><tspan
           x="0 18.09 36.18 54.27 72.360001 90.449997 108.54 126.63 144.72 162.81"
           y="0"
           sodipodi:role="line"
           id="tspan330">id_polozky</tspan></text>
<g
         id="g334"><path
           d="m 45.602,1100.324 h 183.671 l 2.176,0.074 2.25,0.079 2.176,0.222 2.176,0.301 2.176,0.375 2.097,0.523 2.102,0.528 2.023,0.676 2.028,0.671 1.949,0.829 1.875,0.824 1.875,0.972 1.801,0.977 3.296,2.25 1.579,1.199 1.5,1.278 2.699,2.699 1.199,1.426 1.125,1.5 1.051,1.5 0.898,1.574 0.824,1.574 0.676,1.648 0.602,1.653 0.523,1.648 0.375,1.727 0.301,1.648 0.148,1.727 0.079,1.722 -0.079,1.727 -0.148,1.727 -0.301,1.648 -0.375,1.727 -0.523,1.648 -0.602,1.648 -0.676,1.653 -0.824,1.574 -0.898,1.574 -1.051,1.5 -1.125,1.5 -1.199,1.426 -2.699,2.699 -1.5,1.278 -1.579,1.199 -3.296,2.25 -1.801,0.972 -1.875,0.977 -1.875,0.824 -1.949,0.824 -2.028,0.676 -2.023,0.676 -2.102,0.523 -2.097,0.528 -2.176,0.375 -2.176,0.301 -2.176,0.222 -2.25,0.074 -2.176,0.079 -183.671,0.074 v -0.074 l -2.176,-0.079 -2.25,-0.074 -2.176,-0.222 -2.176,-0.301 -2.176,-0.375 -2.097,-0.528 -2.102,-0.523 -2.023,-0.676 -2.028,-0.676 -1.949,-0.824 -1.875,-0.824 -1.875,-0.977 -1.801,-0.972 -3.296,-2.25 -1.579,-1.199 -1.5,-1.278 -2.699,-2.699 -1.199,-1.426 -1.125,-1.5 -1.051,-1.5 -0.898,-1.574 -0.824,-1.574 -0.676,-1.653 -0.602,-1.648 -0.523,-1.648 -0.375,-1.727 -0.301,-1.648 -0.148,-1.727 -0.079,-1.727 0.079,-1.722 0.148,-1.727 0.301,-1.648 0.375,-1.727 0.523,-1.648 0.602,-1.653 0.676,-1.648 0.824,-1.574 0.898,-1.574 1.051,-1.5 1.125,-1.5 1.199,-1.426 2.699,-2.699 1.5,-1.278 1.579,-1.199 3.296,-2.25 1.801,-0.977 1.875,-0.972 1.875,-0.824 1.949,-0.829 2.028,-0.671 2.023,-0.676 2.102,-0.528 2.097,-0.523 2.176,-0.375 2.176,-0.301 2.176,-0.222 2.25,-0.079 z"
           style="fill:#ffff99;fill-opacity:1;fill-rule:evenodd;stroke:#000000;stroke-width:3.9749999;stroke-linecap:butt;stroke-linejoin:miter;stroke-miterlimit:4;stroke-dasharray:none;stroke-opacity:1"
           id="path336"
           inkscape:connector-curvature="0" /></g><text
         transform="translate(101.325,1144.05)"
         style="font-variant:normal;font-weight:bold;font-size:30.14999962px;font-family:'Courier New';-inkscape-font-specification:CourierNewPS-BoldMT;writing-mode:lr-tb;fill:#000000;fill-opacity:1;fill-rule:nonzero;stroke:none"
         id="text340"><tspan
           x="0 18.09 36.18 54.27"
           y="0"
           sodipodi:role="line"
           id="tspan338">cena</tspan></text>
<g
         id="g342"><path
           d="m 273,1134.148 67.727,-67.722"
           style="fill:none;stroke:#000000;stroke-width:1.95000005;stroke-linecap:butt;stroke-linejoin:round;stroke-miterlimit:4;stroke-dasharray:none;stroke-opacity:1"
           id="path344"
           inkscape:connector-curvature="0" /></g><g
         id="g346"><path
           d="m 273,930.898 67.727,67.801"
           style="fill:none;stroke:#000000;stroke-width:1.95000005;stroke-linecap:butt;stroke-linejoin:round;stroke-miterlimit:4;stroke-dasharray:none;stroke-opacity:1"
           id="path348"
           inkscape:connector-curvature="0" /></g><g
         id="g350"><path
           d="m 273,1032.523 h 67.727"
           style="fill:none;stroke:#000000;stroke-width:1.95000005;stroke-linecap:butt;stroke-linejoin:round;stroke-miterlimit:4;stroke-dasharray:none;stroke-opacity:1"
           id="path352"
           inkscape:connector-curvature="0" /></g><g
         id="g354"><path
           d="m 543.898,1032.523 67.727,0.227"
           style="fill:none;stroke:#000000;stroke-width:1.95000005;stroke-linecap:butt;stroke-linejoin:round;stroke-miterlimit:4;stroke-dasharray:none;stroke-opacity:1"
           id="path356"
           inkscape:connector-curvature="0" /></g><g
         id="g358"><path
           d="M 318.074,897 485.852,829.273 653.625,897 485.852,964.727 Z"
           style="fill:#ff99cc;fill-opacity:1;fill-rule:evenodd;stroke:#000000;stroke-width:3.9749999;stroke-linecap:butt;stroke-linejoin:miter;stroke-miterlimit:4;stroke-dasharray:none;stroke-opacity:1"
           id="path360"
           inkscape:connector-curvature="0" /></g><text
         transform="translate(374.625,907.725)"
         style="font-variant:normal;font-weight:bold;font-size:33.90000153px;font-family:'Courier New';-inkscape-font-specification:CourierNewPS-BoldMT;writing-mode:lr-tb;fill:#000000;fill-opacity:1;fill-rule:nonzero;stroke:none"
         id="text364"><tspan
           x="0 20.34 40.68 61.02 81.360001 101.7 122.04 142.38 162.72 183.06"
           y="0"
           sodipodi:role="line"
           id="tspan362">prodává se</tspan></text>
<g
         id="g366"><path
           d="M 476.176,727.727 V 829.352"
           style="fill:none;stroke:#000000;stroke-width:1.95000005;stroke-linecap:butt;stroke-linejoin:round;stroke-miterlimit:4;stroke-dasharray:none;stroke-opacity:1"
           id="path368"
           inkscape:connector-curvature="0" /></g><g
         id="g370"><path
           d="m 476.176,964.801 v 33.898"
           style="fill:none;stroke:#000000;stroke-width:1.95000005;stroke-linecap:butt;stroke-linejoin:round;stroke-miterlimit:4;stroke-dasharray:none;stroke-opacity:1"
           id="path372"
           inkscape:connector-curvature="0" /></g><text
         transform="translate(347.475,964.8)"
         style="font-variant:normal;font-weight:bold;font-size:33.90000153px;font-family:'Courier New';-inkscape-font-specification:CourierNewPS-BoldMT;writing-mode:lr-tb;fill:#000000;fill-opacity:1;fill-rule:nonzero;stroke:none"
         id="text378"><tspan
           x="0"
           y="0"
           id="tspan374">N</tspan><tspan
           x="60.899994"
           y="-169.34999"
           id="tspan376">1</tspan></text>
<g
         id="g380"><path
           d="M 492.75,1264.5 442.273,1066.426"
           style="fill:none;stroke:#000000;stroke-width:5.32499981;stroke-linecap:butt;stroke-linejoin:round;stroke-miterlimit:4;stroke-dasharray:none;stroke-opacity:1"
           id="path382"
           inkscape:connector-curvature="0" /></g><text
         transform="translate(482.925,1134.15)"
         style="font-variant:normal;font-weight:bold;font-size:33.90000153px;font-family:'Courier New';-inkscape-font-specification:CourierNewPS-BoldMT;writing-mode:lr-tb;fill:#000000;fill-opacity:1;fill-rule:nonzero;stroke:none"
         id="text386"><tspan
           x="0"
           y="0"
           id="tspan384">N</tspan></text>
<g
         id="g388"><path
           d="m 1221.227,693.824 h -101.551 v -67.648 h 203.097 v 67.648 z"
           style="fill:#00ff00;fill-opacity:1;fill-rule:evenodd;stroke:#000000;stroke-width:3.9749999;stroke-linecap:butt;stroke-linejoin:miter;stroke-miterlimit:4;stroke-dasharray:none;stroke-opacity:1"
           id="path390"
           inkscape:connector-curvature="0" /></g><text
         transform="translate(1150.125,673.65)"
         style="font-variant:normal;font-weight:bold;font-size:33.90000153px;font-family:'Courier New';-inkscape-font-specification:CourierNewPS-BoldMT;writing-mode:lr-tb;fill:#000000;fill-opacity:1;fill-rule:nonzero;stroke:none"
         id="text394"><tspan
           x="0 20.34 40.68 61.02 81.360001 101.7 122.04"
           y="0"
           sodipodi:role="line"
           id="tspan392">vyrobna</tspan></text>
<g
         id="g396"><path
           d="m 1405.648,456.824 h 206.778 l 2.472,0.074 2.477,0.079 2.477,0.222 2.398,0.301 2.477,0.375 2.324,0.523 2.398,0.528 2.324,0.676 2.25,0.671 2.176,0.829 2.102,0.824 2.097,0.972 2.028,0.977 3.75,2.25 1.722,1.199 1.653,1.278 1.574,1.347 1.5,1.352 1.352,1.426 1.273,1.5 1.125,1.5 1.051,1.574 0.898,1.574 0.824,1.648 0.676,1.653 0.602,1.648 0.375,1.727 0.375,1.648 0.148,1.727 0.074,1.722 -0.074,1.727 -0.148,1.727 -0.375,1.648 -0.375,1.727 -0.602,1.648 -0.676,1.648 -0.824,1.653 -0.898,1.574 -1.051,1.574 -1.125,1.5 -1.273,1.5 -1.352,1.426 -1.5,1.352 -1.574,1.347 -1.653,1.278 -1.722,1.199 -3.75,2.25 -2.028,0.972 -2.097,0.977 -2.102,0.824 -2.176,0.824 -2.25,0.676 -2.324,0.676 -2.398,0.523 -2.324,0.528 -2.477,0.375 -2.398,0.301 -2.477,0.222 -2.477,0.074 -2.472,0.079 -206.778,0.074 v -0.074 l -2.472,-0.079 -2.477,-0.074 -2.472,-0.222 -2.403,-0.301 -2.472,-0.375 -2.329,-0.528 -2.398,-0.523 -2.324,-0.676 -2.25,-0.676 -2.176,-0.824 -2.102,-0.824 -2.097,-0.977 -2.028,-0.972 -3.75,-2.25 -1.722,-1.199 -1.653,-1.278 -1.574,-1.347 -1.5,-1.352 -1.347,-1.426 -1.278,-1.5 -1.125,-1.5 -1.051,-1.574 -0.898,-1.574 -0.824,-1.653 -0.676,-1.648 -0.602,-1.648 -0.375,-1.727 -0.375,-1.648 -0.148,-1.727 -0.074,-1.727 0.074,-1.722 0.148,-1.727 0.375,-1.648 0.375,-1.727 0.602,-1.648 0.676,-1.653 0.824,-1.648 0.898,-1.574 1.051,-1.574 1.125,-1.5 1.278,-1.5 1.347,-1.426 1.5,-1.352 1.574,-1.347 1.653,-1.278 1.722,-1.199 3.75,-2.25 2.028,-0.977 2.097,-0.972 2.102,-0.824 2.176,-0.829 2.25,-0.671 2.324,-0.676 2.398,-0.528 2.329,-0.523 2.472,-0.375 2.403,-0.301 2.472,-0.222 2.477,-0.079 z"
           style="fill:#ff9900;fill-opacity:1;fill-rule:evenodd;stroke:#000000;stroke-width:3.9749999;stroke-linecap:butt;stroke-linejoin:miter;stroke-miterlimit:4;stroke-dasharray:none;stroke-opacity:1"
           id="path398"
           inkscape:connector-curvature="0" /></g><text
         transform="translate(1418.625,500.55)"
         style="font-variant:normal;font-weight:bold;font-size:30.14999962px;font-family:'Courier New';-inkscape-font-specification:CourierNewPS-BoldMT;writing-mode:lr-tb;fill:#000000;fill-opacity:1;fill-rule:nonzero;stroke:none"
         id="text402"><tspan
           x="0 18.09 36.18 54.27 72.360001 90.449997 108.54 126.63 144.72 162.81"
           y="0"
           sodipodi:role="line"
           id="tspan400">id_vyrobny</tspan></text>
<g
         id="g404"><path
           d="m 1405.648,558.449 h 206.778 l 2.472,0.074 2.477,0.079 2.477,0.222 2.398,0.301 2.477,0.375 2.324,0.523 2.398,0.528 2.324,0.676 2.25,0.671 2.176,0.829 2.102,0.824 2.097,0.972 2.028,0.977 3.75,2.25 1.722,1.199 1.653,1.278 1.574,1.347 1.5,1.352 1.352,1.426 1.273,1.5 1.125,1.5 1.051,1.574 0.898,1.574 0.824,1.648 0.676,1.653 0.602,1.648 0.375,1.727 0.375,1.648 0.148,1.727 0.074,1.722 -0.074,1.727 -0.148,1.727 -0.375,1.648 -0.375,1.727 -0.602,1.648 -0.676,1.648 -0.824,1.653 -0.898,1.574 -1.051,1.574 -1.125,1.5 -1.273,1.5 -1.352,1.426 -1.5,1.352 -1.574,1.347 -1.653,1.278 -1.722,1.199 -3.75,2.25 -2.028,0.972 -2.097,0.977 -2.102,0.824 -2.176,0.824 -2.25,0.676 -2.324,0.676 -2.398,0.523 -2.324,0.528 -2.477,0.375 -2.398,0.301 -2.477,0.222 -2.477,0.074 -2.472,0.079 -206.778,0.074 v -0.074 l -2.472,-0.079 -2.477,-0.074 -2.472,-0.222 -2.403,-0.301 -2.472,-0.375 -2.329,-0.528 -2.398,-0.523 -2.324,-0.676 -2.25,-0.676 -2.176,-0.824 -2.102,-0.824 -2.097,-0.977 -2.028,-0.972 -3.75,-2.25 -1.722,-1.199 -1.653,-1.278 -1.574,-1.347 -1.5,-1.352 -1.347,-1.426 -1.278,-1.5 -1.125,-1.5 -1.051,-1.574 -0.898,-1.574 -0.824,-1.653 -0.676,-1.648 -0.602,-1.648 -0.375,-1.727 -0.375,-1.648 -0.148,-1.727 -0.074,-1.727 0.074,-1.722 0.148,-1.727 0.375,-1.648 0.375,-1.727 0.602,-1.648 0.676,-1.653 0.824,-1.648 0.898,-1.574 1.051,-1.574 1.125,-1.5 1.278,-1.5 1.347,-1.426 1.5,-1.352 1.574,-1.347 1.653,-1.278 1.722,-1.199 3.75,-2.25 2.028,-0.977 2.097,-0.972 2.102,-0.824 2.176,-0.829 2.25,-0.671 2.324,-0.676 2.398,-0.528 2.329,-0.523 2.472,-0.375 2.403,-0.301 2.472,-0.222 2.477,-0.079 z"
           style="fill:#ffff99;fill-opacity:1;fill-rule:evenodd;stroke:#000000;stroke-width:3.9749999;stroke-linecap:butt;stroke-linejoin:miter;stroke-miterlimit:4;stroke-dasharray:none;stroke-opacity:1"
           id="path406"
           inkscape:connector-curvature="0" /></g><text
         transform="translate(1391.475,602.175)"
         style="font-variant:normal;font-weight:bold;font-size:30.14999962px;font-family:'Courier New';-inkscape-font-specification:CourierNewPS-BoldMT;writing-mode:lr-tb;fill:#000000;fill-opacity:1;fill-rule:nonzero;stroke:none"
         id="text410"><tspan
           x="0 18.09 36.18 54.27 72.360001 90.449997 108.54 126.63 144.72 162.81 180.89999 198.99001 217.08"
           y="0"
           sodipodi:role="line"
           id="tspan408">jmeno_vyrobny</tspan></text>
<g
         id="g412"><path
           d="m 1491,795.523 h 137.852 l 1.648,0.079 1.648,0.074 1.653,0.222 1.648,0.301 1.574,0.375 1.579,0.528 1.574,0.523 1.574,0.676 1.5,0.676 2.852,1.648 1.421,0.977 1.278,0.972 1.273,1.125 1.278,1.125 1.125,1.199 1.125,1.278 1.046,1.347 0.977,1.352 0.898,1.426 0.829,1.5 0.824,1.5 0.676,1.574 0.597,1.574 0.528,1.653 0.449,1.648 0.375,1.648 0.301,1.727 0.222,1.648 0.074,1.727 0.079,1.727 -0.079,1.722 -0.074,1.727 -0.222,1.648 -0.301,1.727 -0.375,1.648 -0.449,1.653 -0.528,1.648 -0.597,1.574 -0.676,1.574 -0.824,1.5 -0.829,1.5 -0.898,1.426 -0.977,1.352 -1.046,1.347 -1.125,1.278 -1.125,1.199 -1.278,1.125 -1.273,1.125 -1.278,0.977 -1.421,0.972 -1.426,0.824 -1.426,0.829 -1.5,0.671 -1.574,0.676 -1.574,0.528 -1.579,0.523 -1.574,0.375 -1.648,0.301 -1.653,0.222 -1.648,0.079 -1.648,0.074 L 1491,863.25 v -0.074 l -1.648,-0.074 -1.653,-0.079 -1.648,-0.222 -1.653,-0.301 -1.574,-0.375 -1.574,-0.523 -1.574,-0.528 -1.574,-0.676 -1.5,-0.671 -1.426,-0.829 -1.426,-0.824 -1.426,-0.972 -1.273,-0.977 -1.278,-1.125 -1.273,-1.125 -1.125,-1.199 -1.125,-1.278 -1.051,-1.347 -0.972,-1.352 -0.903,-1.426 -1.648,-3 -0.676,-1.574 -0.602,-1.574 -0.523,-1.648 -0.449,-1.653 -0.375,-1.648 -0.301,-1.727 -0.227,-1.648 -0.074,-1.727 -0.074,-1.722 0.148,-3.454 0.227,-1.648 0.301,-1.727 0.375,-1.648 0.449,-1.648 0.523,-1.653 0.602,-1.574 0.676,-1.574 1.648,-3 0.903,-1.426 0.972,-1.352 1.051,-1.347 1.125,-1.278 1.125,-1.199 1.273,-1.125 1.278,-1.125 1.273,-0.972 1.426,-0.977 2.852,-1.648 1.5,-0.676 1.574,-0.676 1.574,-0.523 1.574,-0.528 1.574,-0.375 1.653,-0.301 1.648,-0.222 1.653,-0.074 z"
           style="fill:#ffff99;fill-opacity:1;fill-rule:evenodd;stroke:#000000;stroke-width:3.9749999;stroke-linecap:butt;stroke-linejoin:miter;stroke-miterlimit:4;stroke-dasharray:none;stroke-opacity:1"
           id="path414"
           inkscape:connector-curvature="0" /></g><text
         transform="translate(1496.625,839.25)"
         style="font-variant:normal;font-weight:bold;font-size:30.14999962px;font-family:'Courier New';-inkscape-font-specification:CourierNewPS-BoldMT;writing-mode:lr-tb;fill:#000000;fill-opacity:1;fill-rule:nonzero;stroke:none"
         id="text418"><tspan
           x="0 18.09 36.18 54.27 72.360001 90.449997 108.54"
           y="0"
           sodipodi:role="line"
           id="tspan416">telefon</tspan></text>
<g
         id="g420"><path
           d="m 1491,693.898 h 137.852 l 1.648,0.079 1.648,0.074 1.653,0.222 1.648,0.301 1.574,0.375 1.579,0.528 1.574,0.523 1.574,0.676 1.5,0.676 2.852,1.648 1.421,0.977 1.278,0.972 1.273,1.125 1.278,1.125 1.125,1.199 1.125,1.278 1.046,1.347 0.977,1.352 0.898,1.426 0.829,1.5 0.824,1.5 0.676,1.574 0.597,1.574 0.528,1.653 0.449,1.648 0.375,1.648 0.301,1.727 0.222,1.648 0.074,1.727 0.079,1.727 -0.079,1.722 -0.074,1.727 -0.222,1.648 -0.301,1.727 -0.375,1.648 -0.449,1.653 -0.528,1.648 -0.597,1.574 -0.676,1.574 -0.824,1.5 -0.829,1.5 -0.898,1.426 -0.977,1.352 -1.046,1.347 -1.125,1.278 -1.125,1.199 -1.278,1.125 -1.273,1.125 -1.278,0.977 -1.421,0.972 -1.426,0.824 -1.426,0.829 -1.5,0.671 -1.574,0.676 -1.574,0.528 -1.579,0.523 -1.574,0.375 -1.648,0.301 -1.653,0.222 -1.648,0.079 -1.648,0.074 -137.852,0.074 v -0.074 l -1.648,-0.074 -1.653,-0.079 -1.648,-0.222 -1.653,-0.301 -1.574,-0.375 -1.574,-0.523 -1.574,-0.528 -1.574,-0.676 -1.5,-0.671 -1.426,-0.829 -1.426,-0.824 -1.426,-0.972 -1.273,-0.977 -1.278,-1.125 -1.273,-1.125 -1.125,-1.199 -1.125,-1.278 -1.051,-1.347 -0.972,-1.352 -0.903,-1.426 -1.648,-3 -0.676,-1.574 -0.602,-1.574 -0.523,-1.648 -0.449,-1.653 -0.375,-1.648 -0.301,-1.727 -0.227,-1.648 -0.074,-1.727 -0.074,-1.722 0.148,-3.454 0.227,-1.648 0.301,-1.727 0.375,-1.648 0.449,-1.648 0.523,-1.653 0.602,-1.574 0.676,-1.574 1.648,-3 0.903,-1.426 0.972,-1.352 1.051,-1.347 1.125,-1.278 1.125,-1.199 1.273,-1.125 1.278,-1.125 1.273,-0.972 1.426,-0.977 2.852,-1.648 1.5,-0.676 1.574,-0.676 1.574,-0.523 1.574,-0.528 1.574,-0.375 1.653,-0.301 1.648,-0.222 1.653,-0.074 z"
           style="fill:#ffff99;fill-opacity:1;fill-rule:evenodd;stroke:#000000;stroke-width:3.9749999;stroke-linecap:butt;stroke-linejoin:miter;stroke-miterlimit:4;stroke-dasharray:none;stroke-opacity:1"
           id="path422"
           inkscape:connector-curvature="0" /></g><text
         transform="translate(1532.85,737.625)"
         style="font-variant:normal;font-weight:bold;font-size:30.14999962px;font-family:'Courier New';-inkscape-font-specification:CourierNewPS-BoldMT;writing-mode:lr-tb;fill:#000000;fill-opacity:1;fill-rule:nonzero;stroke:none"
         id="text426"><tspan
           x="0 18.09 36.18"
           y="0"
           sodipodi:role="line"
           id="tspan424">fax</tspan></text>
<g
         id="g428"><path
           d="m 1491,897.074 h 137.852 l 1.648,0.074 1.648,0.079 1.653,0.222 1.648,0.301 1.574,0.375 1.579,0.523 1.574,0.528 1.574,0.676 1.5,0.671 1.426,0.829 1.426,0.824 1.421,0.972 1.278,0.977 1.273,1.125 1.278,1.125 1.125,1.199 1.125,1.278 1.046,1.347 0.977,1.352 0.898,1.426 0.829,1.5 0.824,1.5 0.676,1.574 0.597,1.574 0.528,1.648 0.449,1.653 0.375,1.648 0.301,1.727 0.222,1.648 0.074,1.727 0.079,1.722 -0.079,1.727 -0.074,1.727 -0.222,1.648 -0.301,1.727 -0.375,1.648 -0.449,1.648 -0.528,1.653 -0.597,1.574 -0.676,1.574 -0.824,1.5 -0.829,1.5 -0.898,1.426 -0.977,1.352 -1.046,1.347 -1.125,1.278 -1.125,1.199 -1.278,1.125 -1.273,1.125 -1.278,0.972 -1.421,0.977 -2.852,1.648 -1.5,0.676 -1.574,0.676 -1.574,0.523 -1.579,0.528 -1.574,0.375 -1.648,0.301 -1.653,0.222 -1.648,0.074 -1.648,0.079 -137.852,0.074 v -0.074 l -1.648,-0.079 -1.653,-0.074 -1.648,-0.222 -1.653,-0.301 -1.574,-0.375 -1.574,-0.528 -1.574,-0.523 -1.574,-0.676 -1.5,-0.676 -2.852,-1.648 -1.426,-0.977 -1.273,-0.972 -1.278,-1.125 -1.273,-1.125 -1.125,-1.199 -1.125,-1.278 -1.051,-1.347 -0.972,-1.352 -0.903,-1.426 -1.648,-3 -0.676,-1.574 -0.602,-1.574 -0.523,-1.653 -0.449,-1.648 -0.375,-1.648 -0.301,-1.727 -0.227,-1.648 -0.148,-3.454 0.074,-1.722 0.074,-1.727 0.227,-1.648 0.301,-1.727 0.375,-1.648 0.449,-1.653 0.523,-1.648 0.602,-1.574 0.676,-1.574 1.648,-3 0.903,-1.426 0.972,-1.352 1.051,-1.347 1.125,-1.278 1.125,-1.199 1.273,-1.125 1.278,-1.125 1.273,-0.977 1.426,-0.972 1.426,-0.824 1.426,-0.829 1.5,-0.671 1.574,-0.676 1.574,-0.528 1.574,-0.523 1.574,-0.375 1.653,-0.301 1.648,-0.222 1.653,-0.079 z"
           style="fill:#ffff99;fill-opacity:1;fill-rule:evenodd;stroke:#000000;stroke-width:3.9749999;stroke-linecap:butt;stroke-linejoin:miter;stroke-miterlimit:4;stroke-dasharray:none;stroke-opacity:1"
           id="path430"
           inkscape:connector-curvature="0" /></g><text
         transform="translate(1514.7,940.8)"
         style="font-variant:normal;font-weight:bold;font-size:30.14999962px;font-family:'Courier New';-inkscape-font-specification:CourierNewPS-BoldMT;writing-mode:lr-tb;fill:#000000;fill-opacity:1;fill-rule:nonzero;stroke:none"
         id="text434"><tspan
           x="0 18.09 36.18 54.27 72.360001"
           y="0"
           sodipodi:role="line"
           id="tspan432">popis</tspan></text>
<g
         id="g436"><path
           d="M 1356.676,490.648 1153.5,626.102"
           style="fill:none;stroke:#000000;stroke-width:1.95000005;stroke-linecap:butt;stroke-linejoin:round;stroke-miterlimit:4;stroke-dasharray:none;stroke-opacity:1"
           id="path438"
           inkscape:connector-curvature="0" /></g><g
         id="g440"><path
           d="m 1356.676,592.273 -33.824,33.829"
           style="fill:none;stroke:#000000;stroke-width:1.95000005;stroke-linecap:butt;stroke-linejoin:round;stroke-miterlimit:4;stroke-dasharray:none;stroke-opacity:1"
           id="path442"
           inkscape:connector-curvature="0" /></g><g
         id="g444"><path
           d="M 1458.301,727.727 1322.852,660"
           style="fill:none;stroke:#000000;stroke-width:1.95000005;stroke-linecap:butt;stroke-linejoin:round;stroke-miterlimit:4;stroke-dasharray:none;stroke-opacity:1"
           id="path446"
           inkscape:connector-curvature="0" /></g><g
         id="g448"><path
           d="M 1458.301,829.352 1322.852,693.898"
           style="fill:none;stroke:#000000;stroke-width:1.95000005;stroke-linecap:butt;stroke-linejoin:round;stroke-miterlimit:4;stroke-dasharray:none;stroke-opacity:1"
           id="path450"
           inkscape:connector-curvature="0" /></g><g
         id="g452"><path
           d="m 1458.301,930.898 -169.352,-237"
           style="fill:none;stroke:#000000;stroke-width:1.95000005;stroke-linecap:butt;stroke-linejoin:round;stroke-miterlimit:4;stroke-dasharray:none;stroke-opacity:1"
           id="path454"
           inkscape:connector-curvature="0" /></g><g
         id="g456"><path
           d="m 690.602,659.926 167.773,-67.727 167.773,67.727 -167.773,67.722 z"
           style="fill:#ff99cc;fill-opacity:1;fill-rule:evenodd;stroke:#000000;stroke-width:3.9749999;stroke-linecap:butt;stroke-linejoin:miter;stroke-miterlimit:4;stroke-dasharray:none;stroke-opacity:1"
           id="path458"
           inkscape:connector-curvature="0" /></g><text
         transform="translate(787.8,670.65)"
         style="font-variant:normal;font-weight:bold;font-size:33.90000153px;font-family:'Courier New';-inkscape-font-specification:CourierNewPS-BoldMT;writing-mode:lr-tb;fill:#000000;fill-opacity:1;fill-rule:nonzero;stroke:none"
         id="text462"><tspan
           x="0 20.34 40.68 61.02 81.360001 101.7"
           y="0"
           sodipodi:role="line"
           id="tspan460">vyrábí</tspan></text>
<g
         id="g464"><path
           d="M 510,660 H 679.352"
           style="fill:none;stroke:#000000;stroke-width:1.95000005;stroke-linecap:butt;stroke-linejoin:round;stroke-miterlimit:4;stroke-dasharray:none;stroke-opacity:1"
           id="path466"
           inkscape:connector-curvature="0" /></g><g
         id="g468"><path
           d="m 1018.051,660 h 101.551"
           style="fill:none;stroke:#000000;stroke-width:1.95000005;stroke-linecap:butt;stroke-linejoin:round;stroke-miterlimit:4;stroke-dasharray:none;stroke-opacity:1"
           id="path470"
           inkscape:connector-curvature="0" /></g><text
         transform="translate(550.725,693.9)"
         style="font-variant:normal;font-weight:bold;font-size:33.90000153px;font-family:'Courier New';-inkscape-font-specification:CourierNewPS-BoldMT;writing-mode:lr-tb;fill:#000000;fill-opacity:1;fill-rule:nonzero;stroke:none"
         id="text474"><tspan
           x="0 501.14999"
           y="0"
           sodipodi:role="line"
           id="tspan472">M1</tspan></text>
<g
         id="g476"><path
           d="m 995.398,863.176 167.778,-67.727 167.773,67.727 -167.773,67.722 z"
           style="fill:#ff99cc;fill-opacity:1;fill-rule:evenodd;stroke:#000000;stroke-width:3.9749999;stroke-linecap:butt;stroke-linejoin:miter;stroke-miterlimit:4;stroke-dasharray:none;stroke-opacity:1"
           id="path478"
           inkscape:connector-curvature="0" /></g><text
         transform="translate(1031.625,873.825)"
         style="font-variant:normal;font-weight:bold;font-size:33.90000153px;font-family:'Courier New';-inkscape-font-specification:CourierNewPS-BoldMT;writing-mode:lr-tb;fill:#000000;fill-opacity:1;fill-rule:nonzero;stroke:none"
         id="text482"><tspan
           x="0 20.34 40.68 61.02 81.360001 101.7 122.04 142.38 162.72 183.06 203.39999 223.74001"
           y="0"
           sodipodi:role="line"
           id="tspan480">nachází se v</tspan></text>
<g
         id="g484"><path
           d="m 1153.5,1269.523 h -101.551 v -67.648 h 203.102 v 67.648 z"
           style="fill:#00ff00;fill-opacity:1;fill-rule:evenodd;stroke:#000000;stroke-width:3.9749999;stroke-linecap:butt;stroke-linejoin:miter;stroke-miterlimit:4;stroke-dasharray:none;stroke-opacity:1"
           id="path486"
           inkscape:connector-curvature="0" /></g><text
         transform="translate(1082.4,1249.35)"
         style="font-variant:normal;font-weight:bold;font-size:33.90000153px;font-family:'Courier New';-inkscape-font-specification:CourierNewPS-BoldMT;writing-mode:lr-tb;fill:#000000;fill-opacity:1;fill-rule:nonzero;stroke:none"
         id="text490"><tspan
           x="0 20.34 40.68 61.02 81.360001 101.7 122.04"
           y="0"
           sodipodi:role="line"
           id="tspan488">oblasti</tspan></text>
<g
         id="g492"><path
           d="M 1187.398,693.898 1153.5,795.449"
           style="fill:none;stroke:#000000;stroke-width:1.95000005;stroke-linecap:butt;stroke-linejoin:round;stroke-miterlimit:4;stroke-dasharray:none;stroke-opacity:1"
           id="path494"
           inkscape:connector-curvature="0" /></g><g
         id="g496"><path
           d="m 1153.5,930.898 v 270.977"
           style="fill:none;stroke:#000000;stroke-width:1.95000005;stroke-linecap:butt;stroke-linejoin:round;stroke-miterlimit:4;stroke-dasharray:none;stroke-opacity:1"
           id="path498"
           inkscape:connector-curvature="0" /></g><text
         transform="translate(1153.5,1201.875)"
         style="font-variant:normal;font-weight:bold;font-size:33.90000153px;font-family:'Courier New';-inkscape-font-specification:CourierNewPS-BoldMT;writing-mode:lr-tb;fill:#000000;fill-opacity:1;fill-rule:nonzero;stroke:none"
         id="text504"><tspan
           x="0"
           y="0"
           id="tspan500">1</tspan><tspan
           x="40.649998"
           y="-440.25"
           id="tspan502">M</tspan></text>
<g
         id="g506"><path
           d="m 1377.227,1100.324 h 229.722 l 2.778,0.074 2.699,0.079 2.773,0.222 2.699,0.301 2.704,0.375 2.625,0.523 2.625,0.528 2.546,0.676 2.551,0.671 2.403,0.829 2.398,0.824 2.324,0.972 2.176,0.977 2.176,1.125 2.023,1.125 1.949,1.199 1.875,1.278 1.727,1.347 1.648,1.352 1.5,1.426 1.426,1.5 1.278,1.5 1.125,1.574 1.046,1.574 0.903,1.648 0.75,1.653 0.597,1.648 0.528,1.727 0.301,1.648 0.222,1.727 0.074,1.722 -0.074,1.727 -0.222,1.727 -0.301,1.648 -0.528,1.727 -0.597,1.648 -0.75,1.648 -0.903,1.653 -1.046,1.574 -1.125,1.574 -1.278,1.5 -1.426,1.5 -1.5,1.426 -1.648,1.352 -1.727,1.347 -1.875,1.278 -1.949,1.199 -2.023,1.125 -2.176,1.125 -2.176,0.972 -2.324,0.977 -2.398,0.824 -2.403,0.824 -2.551,0.676 -2.546,0.676 -2.625,0.523 -2.625,0.528 -2.704,0.375 -2.699,0.301 -2.773,0.222 -2.699,0.074 -2.778,0.079 -229.722,0.074 v -0.074 l -2.778,-0.079 -2.699,-0.074 -2.773,-0.222 -2.704,-0.301 -2.699,-0.375 -2.625,-0.528 -2.625,-0.523 -2.551,-0.676 -2.546,-0.676 -2.403,-0.824 -2.398,-0.824 -2.324,-0.977 -2.176,-0.972 -2.176,-1.125 -2.023,-1.125 -1.954,-1.199 -1.875,-1.278 -1.722,-1.347 -1.653,-1.352 -1.5,-1.426 -1.421,-1.5 -1.278,-1.5 -1.125,-1.574 -1.051,-1.574 -0.898,-1.653 -0.75,-1.648 -0.602,-1.648 -0.523,-1.727 -0.301,-1.648 -0.222,-1.727 -0.079,-1.727 0.079,-1.722 0.222,-1.727 0.301,-1.648 0.523,-1.727 0.602,-1.648 0.75,-1.653 0.898,-1.648 1.051,-1.574 1.125,-1.574 1.278,-1.5 1.421,-1.5 1.5,-1.426 1.653,-1.352 1.722,-1.347 1.875,-1.278 1.954,-1.199 2.023,-1.125 2.176,-1.125 2.176,-0.977 2.324,-0.972 2.398,-0.824 2.403,-0.829 2.546,-0.671 2.551,-0.676 2.625,-0.528 2.625,-0.523 2.699,-0.375 2.704,-0.301 2.773,-0.222 2.699,-0.079 z"
           style="fill:#ffff99;fill-opacity:1;fill-rule:evenodd;stroke:#000000;stroke-width:3.9749999;stroke-linecap:butt;stroke-linejoin:miter;stroke-miterlimit:4;stroke-dasharray:none;stroke-opacity:1"
           id="path508"
           inkscape:connector-curvature="0" /></g><text
         transform="translate(1374.525,1144.05)"
         style="font-variant:normal;font-weight:bold;font-size:30.14999962px;font-family:'Courier New';-inkscape-font-specification:CourierNewPS-BoldMT;writing-mode:lr-tb;fill:#000000;fill-opacity:1;fill-rule:nonzero;stroke:none"
         id="text512"><tspan
           x="0 18.09 36.18 54.27 72.360001 90.449997 108.54 126.63 144.72 162.81 180.89999 198.99001 217.08"
           y="0"
           sodipodi:role="line"
           id="tspan510">jmeno_oblasti</tspan></text>
<g
         id="g514"><path
           d="m 717.523,1201.875 h 160.801 l 1.949,0.074 1.875,0.074 1.954,0.227 1.875,0.301 1.875,0.375 1.875,0.523 1.796,0.528 1.801,0.671 1.801,0.676 1.727,0.824 1.648,0.829 1.574,0.972 1.574,0.977 1.5,1.125 1.426,1.125 1.352,1.199 1.273,1.273 1.278,1.352 1.125,1.352 1.046,1.421 0.977,1.5 0.898,1.5 0.829,1.579 0.671,1.574 0.676,1.648 0.528,1.653 0.449,1.648 0.301,1.727 0.222,1.648 0.153,1.727 0.074,1.722 -0.074,1.727 -0.153,1.722 -0.222,1.653 -0.301,1.722 -0.449,1.653 -0.528,1.648 -0.676,1.653 -0.671,1.574 -0.829,1.574 -0.898,1.5 -0.977,1.5 -1.046,1.426 -1.125,1.347 -1.278,1.352 -1.273,1.273 -1.352,1.204 -1.426,1.125 -1.5,1.125 -1.574,0.972 -1.574,0.977 -1.648,0.824 -1.727,0.824 -3.602,1.352 -1.796,0.523 -1.875,0.528 -1.875,0.375 -1.875,0.296 -1.954,0.227 -1.875,0.074 -1.949,0.074 -160.801,0.079 v -0.079 l -1.949,-0.074 -1.875,-0.074 -1.949,-0.227 -1.875,-0.296 -1.875,-0.375 -1.875,-0.528 -1.801,-0.523 -1.801,-0.676 -1.796,-0.676 -1.727,-0.824 -1.648,-0.824 -1.579,-0.977 -1.574,-0.972 -1.5,-1.125 -1.426,-1.125 -1.347,-1.204 -1.278,-1.273 -1.273,-1.352 -1.125,-1.347 -1.051,-1.426 -0.972,-1.5 -0.903,-1.5 -0.824,-1.574 -0.676,-1.574 -0.676,-1.653 -0.523,-1.648 -0.449,-1.653 -0.301,-1.722 -0.227,-1.653 -0.148,-1.722 -0.074,-1.727 0.074,-1.722 0.148,-1.727 0.227,-1.648 0.301,-1.727 0.449,-1.648 0.523,-1.653 0.676,-1.648 0.676,-1.574 0.824,-1.579 0.903,-1.5 0.972,-1.5 1.051,-1.421 1.125,-1.352 1.273,-1.352 1.278,-1.273 1.347,-1.199 1.426,-1.125 1.5,-1.125 1.574,-0.977 1.579,-0.972 1.648,-0.829 1.727,-0.824 1.796,-0.676 1.801,-0.671 1.801,-0.528 1.875,-0.523 1.875,-0.375 1.875,-0.301 1.949,-0.227 1.875,-0.074 z"
           style="fill:#ff9900;fill-opacity:1;fill-rule:evenodd;stroke:#000000;stroke-width:3.9749999;stroke-linecap:butt;stroke-linejoin:miter;stroke-miterlimit:4;stroke-dasharray:none;stroke-opacity:1"
           id="path516"
           inkscape:connector-curvature="0" /></g><text
         transform="translate(707.475,1245.6)"
         style="font-variant:normal;font-weight:bold;font-size:30.14999962px;font-family:'Courier New';-inkscape-font-specification:CourierNewPS-BoldMT;writing-mode:lr-tb;fill:#000000;fill-opacity:1;fill-rule:nonzero;stroke:none"
         id="text520"><tspan
           x="0 18.09 36.18 54.27 72.360001 90.449997 108.54 126.63 144.72 162.81"
           y="0"
           sodipodi:role="line"
           id="tspan518">id_oblasti</tspan></text>
<g
         id="g522"><path
           d="m 1491,1201.875 h 137.852 l 3.296,0.148 1.653,0.227 1.648,0.301 1.574,0.375 1.579,0.523 1.574,0.528 1.574,0.671 1.5,0.676 1.426,0.824 1.426,0.829 1.421,0.972 1.278,0.977 1.273,1.125 1.278,1.125 1.125,1.199 1.125,1.273 1.046,1.352 0.977,1.352 0.898,1.421 0.829,1.5 0.824,1.5 0.676,1.579 0.597,1.574 0.528,1.648 0.449,1.653 0.375,1.648 0.301,1.727 0.222,1.648 0.074,1.727 0.079,1.722 -0.079,1.727 -0.074,1.722 -0.222,1.653 -0.301,1.722 -0.375,1.653 -0.449,1.648 -0.528,1.653 -0.597,1.574 -0.676,1.574 -0.824,1.5 -0.829,1.5 -0.898,1.426 -0.977,1.347 -1.046,1.352 -1.125,1.273 -1.125,1.204 -1.278,1.125 -1.273,1.125 -1.278,0.972 -1.421,0.977 -2.852,1.648 -1.5,0.676 -1.574,0.676 -1.574,0.523 -1.579,0.528 -1.574,0.375 -1.648,0.296 -1.653,0.227 -3.296,0.148 -137.852,0.079 v -0.079 l -1.648,-0.074 -1.653,-0.074 -1.648,-0.227 -1.653,-0.296 -1.574,-0.375 -1.574,-0.528 -1.574,-0.523 -1.574,-0.676 -1.5,-0.676 -2.852,-1.648 -1.426,-0.977 -1.273,-0.972 -1.278,-1.125 -1.273,-1.125 -1.125,-1.204 -1.125,-1.273 -1.051,-1.352 -0.972,-1.347 -0.903,-1.426 -1.648,-3 -0.676,-1.574 -0.602,-1.574 -0.523,-1.653 -0.449,-1.648 -0.375,-1.653 -0.301,-1.722 -0.227,-1.653 -0.074,-1.722 -0.074,-1.727 0.074,-1.722 0.074,-1.727 0.227,-1.648 0.301,-1.727 0.375,-1.648 0.449,-1.653 0.523,-1.648 0.602,-1.574 0.676,-1.579 1.648,-3 0.903,-1.421 0.972,-1.352 1.051,-1.352 1.125,-1.273 1.125,-1.199 1.273,-1.125 1.278,-1.125 1.273,-0.977 1.426,-0.972 1.426,-0.829 1.426,-0.824 1.5,-0.676 1.574,-0.671 1.574,-0.528 1.574,-0.523 1.574,-0.375 1.653,-0.301 1.648,-0.227 1.653,-0.074 z"
           style="fill:#ffff99;fill-opacity:1;fill-rule:evenodd;stroke:#000000;stroke-width:3.9749999;stroke-linecap:butt;stroke-linejoin:miter;stroke-miterlimit:4;stroke-dasharray:none;stroke-opacity:1"
           id="path524"
           inkscape:connector-curvature="0" /></g><text
         transform="translate(1514.7,1245.6)"
         style="font-variant:normal;font-weight:bold;font-size:30.14999962px;font-family:'Courier New';-inkscape-font-specification:CourierNewPS-BoldMT;writing-mode:lr-tb;fill:#000000;fill-opacity:1;fill-rule:nonzero;stroke:none"
         id="text528"><tspan
           x="0 18.09 36.18 54.27 72.360001"
           y="0"
           sodipodi:role="line"
           id="tspan526">popis</tspan></text>
<g
         id="g530"><path
           d="m 1491,1303.5 h 137.852 l 3.296,0.148 1.653,0.227 1.648,0.301 1.574,0.375 1.579,0.523 1.574,0.528 1.574,0.671 1.5,0.676 1.426,0.824 1.426,0.829 1.421,0.972 1.278,0.977 1.273,1.125 1.278,1.125 1.125,1.199 1.125,1.273 1.046,1.352 0.977,1.352 0.898,1.421 0.829,1.5 0.824,1.5 0.676,1.579 0.597,1.574 0.528,1.648 0.449,1.653 0.375,1.648 0.301,1.727 0.222,1.648 0.074,1.727 0.079,1.722 -0.079,1.727 -0.074,1.722 -0.222,1.653 -0.301,1.722 -0.375,1.653 -0.449,1.648 -0.528,1.653 -0.597,1.574 -0.676,1.574 -0.824,1.5 -0.829,1.5 -0.898,1.426 -0.977,1.347 -1.046,1.352 -1.125,1.273 -1.125,1.204 -1.278,1.125 -1.273,1.125 -1.278,0.972 -1.421,0.977 -2.852,1.648 -1.5,0.676 -1.574,0.676 -1.574,0.523 -1.579,0.528 -1.574,0.375 -1.648,0.296 -1.653,0.227 -3.296,0.148 -137.852,0.079 v -0.079 l -1.648,-0.074 -1.653,-0.074 -1.648,-0.227 -1.653,-0.296 -1.574,-0.375 -1.574,-0.528 -1.574,-0.523 -1.574,-0.676 -1.5,-0.676 -2.852,-1.648 -1.426,-0.977 -1.273,-0.972 -1.278,-1.125 -1.273,-1.125 -1.125,-1.204 -1.125,-1.273 -1.051,-1.352 -0.972,-1.347 -0.903,-1.426 -1.648,-3 -0.676,-1.574 -0.602,-1.574 -0.523,-1.653 -0.449,-1.648 -0.375,-1.653 -0.301,-1.722 -0.227,-1.653 -0.074,-1.722 -0.074,-1.727 0.074,-1.722 0.074,-1.727 0.227,-1.648 0.301,-1.727 0.375,-1.648 0.449,-1.653 0.523,-1.648 0.602,-1.574 0.676,-1.579 1.648,-3 0.903,-1.421 0.972,-1.352 1.051,-1.352 1.125,-1.273 1.125,-1.199 1.273,-1.125 1.278,-1.125 1.273,-0.977 1.426,-0.972 1.426,-0.829 1.426,-0.824 1.5,-0.676 1.574,-0.671 1.574,-0.528 1.574,-0.523 1.574,-0.375 1.653,-0.301 1.648,-0.227 1.653,-0.074 z"
           style="fill:#ffff99;fill-opacity:1;fill-rule:evenodd;stroke:#000000;stroke-width:3.9749999;stroke-linecap:butt;stroke-linejoin:miter;stroke-miterlimit:4;stroke-dasharray:none;stroke-opacity:1"
           id="path532"
           inkscape:connector-curvature="0" /></g><text
         transform="translate(1523.775,1347.225)"
         style="font-variant:normal;font-weight:bold;font-size:30.14999962px;font-family:'Courier New';-inkscape-font-specification:CourierNewPS-BoldMT;writing-mode:lr-tb;fill:#000000;fill-opacity:1;fill-rule:nonzero;stroke:none"
         id="text536"><tspan
           x="0 18.09 36.18 54.27"
           y="0"
           sodipodi:role="line"
           id="tspan534">mapa</tspan></text>
<g
         id="g538"><path
           d="m 916.426,1235.699 h 135.449"
           style="fill:none;stroke:#000000;stroke-width:1.95000005;stroke-linecap:butt;stroke-linejoin:round;stroke-miterlimit:4;stroke-dasharray:none;stroke-opacity:1"
           id="path540"
           inkscape:connector-curvature="0" /></g><g
         id="g542"><path
           d="m 1322.852,1134.148 -67.727,67.727"
           style="fill:none;stroke:#000000;stroke-width:1.95000005;stroke-linecap:butt;stroke-linejoin:round;stroke-miterlimit:4;stroke-dasharray:none;stroke-opacity:1"
           id="path544"
           inkscape:connector-curvature="0" /></g><g
         id="g546"><path
           d="M 1458.301,1235.699 H 1255.125"
           style="fill:none;stroke:#000000;stroke-width:1.95000005;stroke-linecap:butt;stroke-linejoin:round;stroke-miterlimit:4;stroke-dasharray:none;stroke-opacity:1"
           id="path548"
           inkscape:connector-curvature="0" /></g><g
         id="g550"><path
           d="m 1458.301,1337.324 -203.176,-67.722"
           style="fill:none;stroke:#000000;stroke-width:1.95000005;stroke-linecap:butt;stroke-linejoin:round;stroke-miterlimit:4;stroke-dasharray:none;stroke-opacity:1"
           id="path552"
           inkscape:connector-curvature="0" /></g><g
         id="g554"><path
           d="m 481.727,1264.574 h 43.347 l 0.528,0.074 0.523,0.079 0.523,0.222 0.528,0.301 0.449,0.375 1.051,1.051 0.449,0.676 0.449,0.671 0.449,0.829 0.454,0.824 0.449,0.972 0.449,0.977 0.75,2.25 0.375,1.199 0.375,1.278 0.301,1.347 0.301,1.352 0.296,1.426 0.301,1.5 0.227,1.5 0.222,1.574 0.153,1.574 0.222,1.648 0.153,1.653 0.074,1.648 0.074,1.727 0.074,1.648 0.079,1.727 v 3.449 l -0.079,1.727 -0.074,1.648 -0.074,1.727 -0.074,1.648 -0.153,1.648 -0.222,1.653 -0.153,1.574 -0.222,1.574 -0.227,1.5 -0.301,1.5 -0.296,1.426 -0.301,1.352 -0.301,1.347 -0.375,1.278 -0.375,1.199 -0.75,2.25 -0.449,0.972 -0.449,0.977 -0.454,0.824 -0.449,0.824 -0.898,1.352 -0.528,0.523 -0.523,0.528 -0.449,0.375 -0.528,0.301 -0.523,0.222 -0.523,0.074 -0.528,0.079 -43.347,0.074 v -0.074 l -0.528,-0.079 -0.523,-0.074 -0.528,-0.222 -0.523,-0.301 -0.449,-0.375 -1.051,-1.051 -0.898,-1.352 -0.454,-0.824 -0.449,-0.824 -0.449,-0.977 -0.449,-0.972 -0.75,-2.25 -0.375,-1.199 -0.375,-1.278 -0.301,-1.347 -0.301,-1.352 -0.301,-1.426 -0.296,-1.5 -0.227,-1.5 -0.227,-1.574 -0.148,-1.574 -0.227,-1.653 -0.148,-1.648 -0.074,-1.648 -0.074,-1.727 -0.079,-1.648 -0.074,-1.727 v -3.449 l 0.074,-1.727 0.079,-1.648 0.074,-1.727 0.074,-1.648 0.148,-1.653 0.227,-1.648 0.148,-1.574 0.227,-1.574 0.227,-1.5 0.296,-1.5 0.301,-1.426 0.301,-1.352 0.301,-1.347 0.375,-1.278 0.375,-1.199 0.75,-2.25 0.449,-0.977 0.449,-0.972 0.449,-0.824 0.454,-0.829 0.449,-0.671 0.449,-0.676 0.523,-0.528 0.528,-0.523 0.449,-0.375 0.523,-0.301 0.528,-0.222 0.523,-0.079 z"
           style="fill:#ffff99;fill-opacity:1;fill-rule:evenodd;stroke:#000000;stroke-width:3.9749999;stroke-linecap:butt;stroke-linejoin:miter;stroke-miterlimit:4;stroke-dasharray:none;stroke-opacity:1"
           id="path556"
           inkscape:connector-curvature="0" /></g><text
         transform="translate(498.525,1308.3)"
         style="font-variant:normal;font-weight:bold;font-size:30.14999962px;font-family:'Courier New';-inkscape-font-specification:CourierNewPS-BoldMT;writing-mode:lr-tb;fill:#000000;fill-opacity:1;fill-rule:nonzero;stroke:none"
         id="text560"><tspan
           x="0"
           y="0"
           id="tspan558">1</tspan></text>
</g></g></svg>