<svg width="3663" height="2014" xmlns="http://www.w3.org/2000/svg" xmlns:xlink="http://www.w3.org/1999/xlink" overflow="hidden"><defs><clipPath id="clip0"><rect x="453" y="862" width="3663" height="2014"/></clipPath></defs><g clip-path="url(#clip0)" transform="translate(-453 -862)"><rect x="454.5" y="1086.5" width="748" height="719" stroke="#000000" stroke-width="3.4375" stroke-miterlimit="8" fill="none"/><rect x="2304.5" y="874.5" width="1810" height="1736" stroke="#000000" stroke-width="3.4375" stroke-miterlimit="8" fill="none"/><rect x="2461.5" y="1044.5" width="1419" height="1028" stroke="#000000" stroke-width="3.4375" stroke-miterlimit="8" fill="#0365C0"/><text font-family="Arial,Arial_MSFontService,sans-serif" font-weight="700" font-size="92" transform="matrix(1 0 0 1 631.43 1996)">Klient<tspan font-weight="400" font-size="92" x="0" y="110">(prohlížeč)</tspan><tspan font-size="92" x="2545.93" y="804">Server</tspan></text><path d="M1202.5 1296.78 2438.58 1296.78 2438.58 1300.22 1202.5 1300.22ZM2434 1284.75 2461.5 1298.5 2434 1312.25Z"/><path d="M4.9268e-07-1.71875 1236.08-1.7184 1236.08 1.7191-4.9268e-07 1.71875ZM1231.5-13.7496 1259 0.000360892 1231.5 13.7504Z" transform="matrix(-1 0 0 1 2461.5 1551.5)"/><text font-family="Arial,Arial_MSFontService,sans-serif" font-weight="700" font-size="92" transform="matrix(1 0 0 1 1486.75 979)">HTTP požadavek<tspan font-weight="400" font-size="92" x="0" y="110">soubor.php</tspan><tspan font-size="92" x="7.67908" y="720">HTTP odpověď</tspan></text><rect x="3076.5" y="1134.5" width="511" height="166" stroke="#000000" stroke-width="3.4375" stroke-miterlimit="8" fill="#C82506"/><text fill="#FFFFFF" font-family="Arial Nova Light,Arial Nova Light_MSFontService,sans-serif" font-weight="700" font-size="92" transform="matrix(1 0 0 1 3121.22 1251)">Aplikace A</text><rect x="3072.5" y="1342.5" width="511" height="166" stroke="#000000" stroke-width="3.4375" stroke-miterlimit="8" fill="#C82506"/><text fill="#FFFFFF" font-family="Arial Nova Light,Arial Nova Light_MSFontService,sans-serif" font-weight="700" font-size="92" transform="matrix(1 0 0 1 3117.72 1459)">Aplikace B</text><rect x="3072.5" y="1540.5" width="511" height="166" stroke="#000000" stroke-width="3.4375" stroke-miterlimit="8" fill="#C82506"/><text fill="#FFFFFF" font-family="Arial Nova Light,Arial Nova Light_MSFontService,sans-serif" font-weight="700" font-size="92" transform="matrix(1 0 0 1 3114.57 1657)">Aplikace C</text><rect x="2516.5" y="1099.5" width="376" height="706" stroke="#000000" stroke-width="3.4375" stroke-miterlimit="8" fill="#45A4FC"/><text fill="#FFFFFF" font-family="Arial Nova Light,Arial Nova Light_MSFontService,sans-serif" font-weight="300" font-size="92" transform="matrix(1 0 0 1 2594.13 1431)">HTTP<tspan font-size="92" x="-48.698" y="110">rozhraní</tspan><tspan fill="#000000" font-size="92" x="-9.927" y="757">Např. </tspan><tspan fill="#000000" font-size="92" x="232.417" y="757">Glassfish</tspan><tspan fill="#000000" font-size="92" x="587.625" y="757">, </tspan><tspan fill="#000000" font-size="92" x="636.896" y="757">WebSphere</tspan><tspan fill="#000000" font-size="92" x="1098.09" y="757">, …</tspan></text></g></svg>