<svg width="4168" height="2471" xmlns="http://www.w3.org/2000/svg" xmlns:xlink="http://www.w3.org/1999/xlink" overflow="hidden"><defs><clipPath id="clip0"><rect x="161" y="862" width="4168" height="2471"/></clipPath></defs><g clip-path="url(#clip0)" transform="translate(-161 -862)"><rect x="454.5" y="1086.5" width="748" height="719" stroke="#000000" stroke-width="3.4375" stroke-miterlimit="8" fill="none"/><rect x="2304.5" y="874.5" width="1810" height="1146" stroke="#000000" stroke-width="3.4375" stroke-miterlimit="8" fill="none"/><rect x="2461.5" y="1044.5" width="511" height="762" stroke="#000000" stroke-width="3.4375" stroke-miterlimit="8" fill="#0365C0"/><text fill="#FFFFFF" font-family="Arial Nova Light,Arial Nova Light_MSFontService,sans-serif" font-weight="300" font-size="92" transform="matrix(1 0 0 1 2606.59 1404)">HTTP<tspan font-size="92" x="-12.0313" y="110">server</tspan></text><rect x="3524.5" y="1298.5" width="500" height="537" stroke="#000000" stroke-width="3.4375" stroke-miterlimit="8" fill="#0365C0"/><text fill="#FFFFFF" font-family="Arial Nova Light,Arial Nova Light_MSFontService,sans-serif" font-weight="300" font-size="92" transform="matrix(1 0 0 1 3619.08 1545)">Úložiště<tspan font-size="92" x="-66.1604" y="110">dokumentů</tspan><tspan fill="#000000" font-weight="700" font-size="92" x="-2886.49" y="451">Klient</tspan><tspan fill="#000000" font-size="92" x="-2985.3" y="561">(prohlížeč)</tspan><tspan fill="#000000" font-weight="700" font-size="92" x="-680.373" y="632">Aplikační server</tspan></text><path d="M1202.5 1296.78 2438.58 1296.78 2438.58 1300.22 1202.5 1300.22ZM2434 1284.75 2461.5 1298.5 2434 1312.25Z"/><path d="M4.9268e-07-1.71875 1236.08-1.7184 1236.08 1.7191-4.9268e-07 1.71875ZM1231.5-13.7496 1259 0.000360892 1231.5 13.7504Z" transform="matrix(-1 0 0 1 2461.5 1551.5)"/><path d="M2972.5 1422.78 3501.58 1422.78 3501.58 1426.22 2972.5 1426.22ZM3497 1410.75 3524.5 1424.5 3497 1438.25Z"/><path d="M1.1237e-06-1.71875 529.083-1.7184 529.083 1.7191-1.1237e-06 1.71875ZM524.5-13.7497 552 0.000360892 524.5 13.7503Z" transform="matrix(-1 0 0 1 3524.5 1636.5)"/><text font-family="Arial Nova Light,Arial Nova Light_MSFontService,sans-serif" font-weight="700" font-size="92" transform="matrix(1 0 0 1 1490.36 979)">HTTP požadavek<tspan font-size="92" x="7.30713" y="720">HTTP odpověď</tspan><tspan font-size="92" x="1673.79" y="781">PHP</tspan><tspan font-size="92" x="1564.36" y="891">dokument</tspan></text><rect x="2461.5" y="1578.5" width="511" height="166" stroke="#000000" stroke-width="3.4375" stroke-miterlimit="8" fill="#C82506"/><text fill="#FFFFFF" font-family="Arial Nova Light,Arial Nova Light_MSFontService,sans-serif" font-weight="700" font-size="92" transform="matrix(1 0 0 1 2531.25 1695)">mod_php</text><rect x="2304.5" y="2417.5" width="1810" height="355" stroke="#000000" stroke-width="3.4375" stroke-miterlimit="8" fill="none"/><text font-family="Arial Nova Light,Arial Nova Light_MSFontService,sans-serif" font-weight="700" font-size="92" transform="matrix(1 0 0 1 2840.87 2959)">Databázový server</text><path d="M2586.08 1738.5 2586.08 2394.34 2576.92 2394.34 2576.92 1738.5ZM2595.25 2389.75 2581.5 2417.25 2567.75 2389.75Z"/><path d="M4.58333-2.46004e-06 4.58368 649.467-4.58298 649.467-4.58333 2.46004e-06ZM13.7503 644.883 0.000360892 672.383-13.7497 644.883Z" transform="matrix(1 0 0 -1 2804.5 2416.88)"/><text fill="#FF0000" font-family="Arial Nova Light,Arial Nova Light_MSFontService,sans-serif" font-weight="300" font-size="110" transform="matrix(1 0 0 1 227.866 2317)">Firefox<tspan font-size="110" x="315.677" y="0">, Chrome, </tspan><tspan font-size="110" x="814.115" y="0">Edge</tspan><tspan font-size="110" x="1057.6" y="0">, …</tspan><tspan font-size="110" x="67.3292" y="264">+ Aplikace (</tspan><tspan font-size="110" x="625.35" y="264">JavaScript</tspan><tspan font-size="110" x="1122.64" y="264">)</tspan><tspan font-size="110" x="456.615" y="396">jQuery</tspan><tspan font-size="110" x="429.985" y="528">Angular</tspan><tspan font-size="110" x="400.767" y="660">React.JS</tspan><tspan font-size="110" x="446.302" y="792">Vue.JS</tspan><tspan font-size="110" x="558.319" y="924">…</tspan><tspan font-size="110" x="2653.05" y="9">Serverový </tspan><tspan font-size="110" x="3154.93" y="9">framework</tspan><tspan font-size="110" x="1926.94" y="790">Objektová databáze, dokumentová databáze</tspan><tspan font-size="110" x="1303.12" y="-481">XML, JSON</tspan><tspan font-size="110" x="1413.4" y="-349">(REST)</tspan><tspan font-size="110" x="2019.4" y="-49">?</tspan>QL</text></g></svg>